<?xml version="1.0" encoding="UTF-8"?><svg id="Layer_1" xmlns="http://www.w3.org/2000/svg" viewBox="0 0 408.6081 153.3122"><path d="M244.0547,113.3144c-.9897-17.1201-13.8101-29.8201-28.9502-31.9202-15.96-2.22-30.9697,7.5801-36.3999,22.98-7.2896,20.6501,6.23,42.3101,26.6704,45.2,21.4399,3.02,40.0098-13.2998,38.6797-36.2598ZM227.2749,127.1942c-5.1802,8.1299-14.6499,10.6401-23.6602,7.75-7.6899-2.46-13.6099-10.4299-13.3301-20.05.23-8.02,5.75-16.3899,14.8003-19.22,8.3696-2.6099,17.0898.8999,21.7798,7.77,4.5601,6.6699,5.46,15.8.4102,23.75Z" style="fill:#ede8da;"/><path d="M348.5547,131.5343c-.6602-1.04-.4399-2.3901.5-3.1802,8.1499-6.8499,11.1104-16.1699,8.9399-26.46-1.7798-8.4299-8.8398-17.8-19.3101-19.1599-8.2197-1.0701-16.46-.76-24.8398-.55-1.3101.03-2.3701,1.1101-2.3701,2.4299l.02,61.7202c0,1.3298,1.0601,2.4099,2.3804,2.4299l8.5098.1799c1.3301.02,2.4399-1.02,2.48-2.3501l.3599-10.3198c.04-1.21.9502-2.1899,2.1504-2.3301,2.4697-.3101,6.0298-.1001,6.9897,1.29l8.5898,12.52c.4604.6599,1.2104,1.0601,2.0103,1.0601l10.1499-.03c1.9199-.01,3.0698-2.1201,2.04-3.74l-8.6001-13.51ZM337.7246,118.9743c-3.1201,1.01-6.71,1.03-10.2397.95-1.3101-.03-2.3599-1.1099-2.3599-2.4199l-.1001-19.1001c-.0103-1.29,1-2.3699,2.29-2.4399,3.7998-.21,7.52-.1201,11,1.0801,4.1997,1.45,6.5601,6.5798,6.6597,10.0898.1299,4.46-1.5298,9.98-7.25,11.8401Z" style="fill:#ede8da;"/><path d="M165.5146,4.8742l-21.5-.0898c-.9102,0-1.6499.73-1.6499,1.6399l-.02,63.3901c0,.8999.7402,1.6399,1.6401,1.6399l22.23.05c18.0098.04,30.1797-13.52,30.7197-31.7002.5801-19.3699-12.0898-34.8398-31.4199-34.9299ZM177.1045,53.6542c-5.5,4.7-12.8398,4.26-19.46,4.02-.8799-.04-1.5796-.76-1.5796-1.6399l-.0503-35.6301c0-.8599.6699-1.5698,1.5303-1.6399,6.4497-.47,13.46-.45,18.8701,3.72,9.1997,7.1001,9.9395,23.24.6895,31.1699Z" style="fill:#ede8da;"/><path d="M166.9768,148.6189l-8.4133.2962c-1.3647.048-2.501-1.0375-2.5153-2.403l-.2077-19.8202c-.0139-1.3257-1.0878-2.3955-2.4135-2.4044l-18.7505-.1261c-1.3393-.009-2.4334,1.0674-2.4462,2.4068l-.1895,19.8925c-.0129,1.3576-1.1357,2.4412-2.4928,2.406l-8.6889-.2253c-1.3171-.0341-2.367-1.1117-2.367-2.4292l.0009-61.5078c0-1.3319,1.0722-2.4155,2.4039-2.4298l8.7471-.0937c1.3473-.0144,2.4491,1.0701,2.4559,2.4175l.1186,23.41c.0068,1.3362,1.0912,2.4163,2.4274,2.4177l18.7346.0195c1.3356.0014,2.422-1.0754,2.4324-2.411l.1834-23.4568c.0105-1.3457,1.1127-2.4266,2.4583-2.4108l8.4252.0986c1.3302.0156,2.4006,1.0979,2.4015,2.4282l.0399,61.4951c.0008,1.3094-1.0359,2.384-2.3445,2.43Z" style="fill:#ede8da;"/><path d="M289.7882,46.8541l-19.1484.0043c-.9161.0002-1.6541.7513-1.6382,1.6673l.1344,7.7366c.0155.891.7401,1.6063,1.6312,1.6103l26.9415.121c.9109.0041,1.6436.7502,1.6313,1.661l-.14,10.3422c-.0121.8969-.7431,1.6174-1.6401,1.6166l-40.7802-.0366c-.9045-.0008-1.6374-.7343-1.6373-1.6389l.0038-63.5531c0-.9044.7328-1.6378,1.6372-1.6387l40.3444-.0384c.9038-.0009,1.6376.7301,1.6403,1.6338l.0317,10.4609c.0027.904-.7271,1.6395-1.6311,1.6437l-26.5327.1242c-.9012.0042-1.6298.7353-1.6311,1.6364l-.0162,11.2338c-.0013.9037.7291,1.6378,1.6328,1.6411l18.9688.0693c.8903.0033,1.6151.7167,1.6325,1.6068l.2035,10.4256c.0179.9173-.7207,1.6706-1.6381,1.6708Z" style="fill:#ede8da;"/><path d="M290.6723,82.3062l8.9032-.0441c1.3472-.0067,2.4426,1.0839,2.442,2.4311l-.0196,40.8055c-.0071,14.8181-11.9476,25.0116-26.5696,24.4684-12.6241-.4689-24.4175-9.1166-24.5067-22.5096l-.2848-42.7478c-.0089-1.3408,1.0698-2.4354,2.4106-2.4461l8.5529-.0681c1.339-.0107,2.4342,1.0639,2.4492,2.4028l.4805,43.0675c.0598,5.3595,6.62,8.2443,10.727,8.625,3.956.3667,12.4448-1.9484,12.5054-7.3837l.4923-44.1981c.0148-1.3267,1.091-2.3963,2.4178-2.4029Z" style="fill:#ede8da;"/><path d="M390.031,149.6375c-10.0823,1.1594-18.7622-1.8862-24.4781-9.7592-.7842-1.0801-.5917-2.5831.4691-3.3931l6.8692-5.2452c.9436-.7205,2.2802-.6638,3.135.1602,4.938,4.7596,11.2715,6.7627,17.1375,2.625,3.4193-2.4119,1.337-8.2013-2.1601-9.9147l-15.5234-7.6053c-5.4432-2.6668-9.5099-8.7251-10.11-13.3105-.9434-7.2081.6573-13.8976,6.7305-17.9128,9.9483-6.5773,23.4673-5.6385,32.6432,2.9726,1.0864,1.0195,1.0442,2.7573-.1162,3.6916l-6.7621,5.4451c-.7655.6164-1.8267.7082-2.688.2347-4.0916-2.2494-8.5051-3.448-12.8304-2.438-1.4582.3405-3.7589,2.9593-3.6604,4.2674.0984,1.3068,1.6723,4.053,2.962,4.6983l16.0778,8.0434c8.4911,4.2479,11.9036,12.5241,10.6185,21.2926-1.2231,8.346-8.307,14.9973-18.3144,16.1481Z" style="fill:#ede8da;"/><path d="M247.5676,59.3877c.2281,2.9937.3033,6.4386.2765,10.5332-.0059.9012-.7363,1.6333-1.6375,1.6343l-40.5214.0462c-.9061.001-1.6411-.7334-1.6407-1.6395l.0288-63.5061c.0004-.9079.7388-1.6424,1.6467-1.638l10.1619.049c.9016.0043,1.6303.7361,1.6309,1.6377l.0319,49.7511c.0006.9051.7348,1.6384,1.64,1.6377l26.7456-.0193c.859-.0006,1.572.6572,1.6373,1.5137Z" style="fill:#ede8da;"/><path d="M130.474,71.3722l-10.3299.0833c-.9102.0073-1.652-.7285-1.652-1.6388l.0021-63.2498c0-.9007.7269-1.6325,1.6276-1.6387l10.3035-.0706c.9092-.0062,1.6497.7289,1.65,1.6381l.0243,63.2371c.0003.9002-.7254,1.6321-1.6256,1.6394Z" style="fill:#ede8da;"/><path d="M89.9377,10.5943L29.5426,1.4611c-3.3618-.5147-5.9899,2.4969-6.7128,7.151l-5.8476,38.7337c-.3834,2.4749.3176,5.7928,1.6426,7.1072l13.5465,13.2069c.7882.7556,1.4015,3.4385,1.0839,4.6429-.2625,1.0515-1.5769,3.0882-2.4527,3.5374l-16.5473,8.4541c-1.7956.909-3.4607,3.8328-3.8328,6.3407l-5.8589,38.8102c-.5802,3.8219.6026,8.1584,3.6248,8.6183l62.4644,9.5056c2.048.3067,4.3146-1.5443,4.775-4.5887l6.3075-41.526c.3283-2.1683-.6679-5.8808-1.7961-6.9866l-13.2289-12.966c-.7224-.712-1.5111-3.0663-1.4234-4.3037.0545-1.2486,1.4015-3.7345,2.3982-4.2382l17.3135-9.0017c1.2705-.6569,3.0227-4.0737,3.2853-5.8479l5.9246-39.5219c.6347-4.2053-1.4239-7.5673-4.2708-7.9943ZM63.1185,118.8994c-3.7232,9.8011-13.6887,15.868-24.0702,14.0063-11.5974-2.0806-19.7337-13.1192-17.7076-24.8038.7117-4.0847,2.234-7.8301,5.53-10.1406.7229,3.6029,1.6753,6.7347,4.3365,8.9797.5914.4927,2.3544-.0219,2.9019-.5366,3.0447-2.8145-4.5552-14.1486,5.6728-25.1982,4.2382-4.5774,14.948-7.6109,12.3525-3.8219-2.6169,3.8109-2.88,10.4363,1.0186,14.4333l5.6509,5.7821c5.5193,5.6509,7.1181,13.9077,4.3146,21.2996Z" style="fill:#ede8da;"/></svg>