<?xml version="1.0" encoding="UTF-8"?><svg id="Layer_1" xmlns="http://www.w3.org/2000/svg" viewBox="0 0 408.6081 153.3122"><path d="M243.8208,113.3279l-.0319-2.1186-.3345-2.0918-.3947-2.0815-.4111-2.0894-.5539-2.0643-.8201-1.9728-1.3438-1.705-.7928-1.9834-1.0251-1.8754-1.581-1.47-1.3732-1.6043-1.4055-1.5812-1.3986-1.6175-1.7906-1.1646-1.6452-1.3489-1.7957-1.1417-1.9371-.8823-1.986-.7427-1.8939-.9778-2.0413-.5894-2.1158-.2464-2.0278-.7045-2.1256-.0827-2.1145-.2307-2.1341-.07-2.0982.424-2.0901.3495-2.0296.607-2.0267.5828-2.044.5679-2.0109.7067-1.8154,1.1162-1.8824.9914-1.741,1.2221-1.6879,1.2947-1.5952,1.4086-1.411,1.5933-1.5588,1.4607-1.3079,1.6836-1.1996,1.7622-.853,1.9659-.8928,1.9155-.8707,1.9216-.8819,1.9252-.7708,2.0023-.31,2.1282-.4322,2.0892-.2822,2.1159-.2009,2.1286-.1633,2.1441.3452,2.1249.3309,2.1095.1323,2.1541.8468,1.991.379,2.1242.6874,2.0399,1.3187,1.7451.6631,2.0729,1.3655,1.672,1.3013,1.6896,1.2985,1.6909,1.4578,1.5563,1.5956,1.4123,1.5679,1.4453,1.5341,1.5327,1.96.9165,1.8421,1.0867,1.9615.8512,1.9171.9831,2.1258.3783,2.0125.7877,2.1682.0243,2.0536.546,2.1116-.0376,2.1058.102,2.0974-.2081,2.0825-.2953,2.0962-.249,1.9901-.713,2.0473-.5021,1.8609-1.0049,1.9969-.6813,1.7192-1.2266,1.7681-1.1118,1.859-1.0092,1.5443-1.4314,1.4949-1.4714,1.3372-1.613,1.3818-1.569,1.3499-1.6118,1.1796-1.7438.7684-1.9701,1.2293-1.7474.5688-2.0406.8316-1.9459.4645-2.0605.526-2.0495.0834-2.1191.0364-2.1053.2198-2.0997-.3849-2.0894ZM227.3427,127.2374l-1.1085,1.7667-1.6615,1.2919-1.3048,1.6302-1.8538.9591-1.6914,1.1849-1.93.731-1.9169.8002-2.0651.2185-2.0551.0884-2.066.3004-2.0345-.444-2-.4754-2.0754-.2351-1.9515-.9234-1.9298-.95-1.6462-1.3852-1.7131-1.2973-1.5542-1.5062-.9402-1.969-1.3274-1.7063-.8527-1.9796-.8456-1.9991-.0522-2.1906-.2485-2.1164-.3948-2.1416.5838-2.105.1292-2.1588.8106-1.9979.5446-2.114,1.1719-1.8282,1.1391-1.846,1.3837-1.6772,1.8855-1.1423,1.5219-1.5306,1.7951-1.1999,1.9211-.999,2.1025-.529,1.9425-.75,2.0903.0638,2.0484-.3902,2.0808.0892,2.0138.5296,2.0097.5203,1.85.9419,1.7259,1.1263,1.6416,1.2204,1.668,1.2063,1.4783,1.4441,1.04,1.7922,1.4309,1.5824.8496,1.9356.6135,2.014.7891,1.9674.259,2.0992.2166,2.1015-.426,2.0852-.0187,2.1073-.7324,1.9765-.6135,1.9907-.7752,1.9448-.9516,1.877Z" style="fill:#ede8da;"/><path d="M348.7433,131.4143l-.6099-1.5752.9154-1.4919,1.6083-1.3612,1.4038-1.5715,1.4164-1.5602.9667-1.8841,1.1458-1.7473,1.1983-1.7579.6084-2.0271.7835-1.9732.115-2.1269.1166-2.0911.4653-2.0886-.4083-2.091.0816-2.1282-.5605-2.0437-.4273-2.0251-.8721-1.8812-.6667-1.9614-.8914-1.8763-1.3728-1.5747-1.0455-1.7972-1.3034-1.6224-1.7204-1.1953-1.5142-1.4078-1.7662-1.0729-1.74-1.137-1.9799-.6299-2.0125-.4415-1.9636-.7619-2.0956.0563-2.0609-.2148-2.0775.0396-2.0503-.5168-2.0751-.0602-2.0775.3258-2.0717-.4027-2.0703.3172-2.0734-.1401-2.0603.3827-2.0761-.0841-2.0756.1705-1.5141.6987-1.1043,1.5316.2722,2.1265.0644,2.1262.0502,2.1271-.2323,2.1279.2501,2.1266-.3546,2.1254.3291,2.1274.0765,2.1243-.1437,2.1231.0876,2.1241-.1444,2.1276-.1486,2.1272-.0601,2.1253.1796,2.1267.0889,2.1291-.2582,2.1269.3888,2.1291-.0926,2.1281-.1398,2.1301.2451,2.1287-.0961,2.1299.0706,2.1298-.3624,2.1264.2574,2.1291-.2598,2.1317.0659,2.1319.1007,2.1324.2626,2.1358-.1517,2.1359.6877,1.6279,1.6121.7347,2.1221.2011,2.1228.1886,2.1294.0397,2.1387-.4153,1.7566-.3931.9433-1.7163-.3154-2.0753.0633-2.0627.1557-2.06.3189-2.0576-.1477-2.0739.7648-1.5049,1.4598-.7115,2.4322-.2558,2.4738.1341,2.0162,1.3372,1.2575,1.7609,1.4354,1.6424.9381,1.9865,1.343,1.705,1.1097,1.8712,1.1298,1.8616,1.4234,1.6602,2.0173,1.0418,2.0277-.154,2.0285.0062,2.0294.1623,2.0327.1569,2.0318-.1623,2.2534-1.2227-.107-2.6107-1.055-1.6995-1.0671-1.6879-1.1794-1.6196-.9046-1.7972-1.0782-1.6833-1.0862-1.6838-1.3225-1.542-.825-1.8489ZM337.7023,118.9057l-1.9408.7743-2.0849.0814-2.0663-.0618-2.0581.0884-2.0698.2448-1.7446-.7653-.428-1.764-.2884-2.1194.0315-2.1209-.0468-2.117.3141-2.1217-.3189-2.1208.1013-2.1233-.2434-2.122.2139-2.1278.0641-2.1271.6044-1.6216,1.5602-1.0579,2.2386.2067,2.229-.1616,2.2413.0636,2.125.7887,2.2079.3402,1.9758.8801,1.3829,1.656,1.5434,1.5078.8434,1.9819.4646,2.0767.5998,2.0648-.3792,2.1251-.3677,2.085-.6691,2.0055-1.0482,1.8292-1.4253,1.5347-1.5194,1.5217-2.0422.6755Z" style="fill:#ede8da;"/><path d="M165.5142,4.9796l-2.1464-.2992-2.1498.2684-2.1485-.0516-2.1453.0267-2.1466-.3341-2.1517.2987-2.1503-.1214-2.1522.2233-2.1538-.2341-2.1546-.0842-1.7312,1.7521.3209,2.113-.2906,2.1113.1851,2.111.1107,2.1119-.4288,2.1124.267,2.107.1179,2.1102-.3256,2.1123.3335,2.1093-.1511,2.108-.2005,2.109.3133,2.1125-.3035,2.1119-.0053,2.1102.0096,2.1116-.0261,2.114-.0654,2.1117.3385,2.1143-.355,2.1129.295,2.1151-.0637,2.1137-.0633,2.1147.0839,2.1148-.0894,2.1112.3008,2.1142-.0956,2.1164-.3139,2.1167.1546,2.1174-.2101,2.1206.2984,2.1208,1.5601,1.4401,2.2198.3993,2.2224-.3183,2.2209.3217,2.2184-.188,2.2207.0975,2.2239-.1965,2.2233.1881,2.2241.1074,2.2286-.3036,2.2273.2519,2.1543.0397,2.1066-.5191,2.1361-.1858,2.0707-.5575,2.107-.4478,1.941-.9305,1.8658-1.0453,2.0573-.7195,1.6108-1.4505,1.6903-1.3072,1.4419-1.5791,1.7645-1.2799,1.3486-1.68.9271-1.9629,1.4384-1.6391.7031-2.0506,1.0011-1.9026.3948-2.1281.7169-2.0117.3504-2.1081.3092-2.1073.708-2.0783-.1521-2.16-.053-2.1092-.1454-2.1014.0258-2.1231-.5651-2.0493-.0867-2.1417-.8684-1.9553-.7383-1.9693-.6521-2.0047-.9846-1.8618-.8996-1.9095-1.0245-1.8569-1.2221-1.7368-1.5173-1.4896-1.5467-1.437-1.4206-1.5884-1.9171-.964-1.7109-1.2212-1.7791-1.1402-2.0136-.6589-1.9302-.8321-2.0313-.5367-1.9781-.8226-2.1287-.0799-2.0812-.4597-2.1235.2258ZM177.1041,53.6537l-1.5115,1.408-2.0074.5816-1.8266.8621-1.9482.5596-1.9857.4523-2.0247.267-2.0451-.1674-2.0396.4176-2.0299-.4098-2.0394.0143-1.6872-1.6046-.1118-2.0912.2071-2.0931.1234-2.0954.1174-2.0931-.1582-2.0951-.1437-2.094.1322-2.0963-.2156-2.0946.0663-2.096-.1817-2.0957.4214-2.0931-.3086-2.0948-.0203-2.0976.0461-2.098.0403-2.0985-.1505-2.1016.0935-2.102,1.6304-1.6201,2.175-.2965,2.1943.1175,2.1828.1,2.1652.2472,2.1775.1568,2.2026.2327,2.0543.8148,1.7918,1.2987,1.8562,1.1182,1.5179,1.387,1.2994,1.5863,1.3155,1.5858.9566,1.8266.9281,1.8512.6225,1.9782.2909,2.0519.4501,2.0334.106,2.0821-.5088,2.0398-.1871,2.056-.2672,2.0798-.9331,1.8739-1.0989,1.7538-1.0639,1.7542-1.0989,1.7746-1.5714,1.3656Z" style="fill:#ede8da;"/><polygon points="166.9812 148.7446 164.8721 148.5958 162.7681 148.6045 160.6705 148.8931 158.5579 148.7577 156.6304 148.4206 155.8656 146.514 155.8027 144.3138 155.8605 142.1123 155.9121 139.9145 156.2045 137.7113 155.8922 135.5119 156.1447 133.3063 155.871 131.1056 155.9681 128.8976 155.9158 126.691 155.1749 124.9463 153.4271 124.2704 151.3457 124.1921 149.2649 124.0185 147.1843 124.3279 145.1049 124.0422 143.0204 124.1702 140.937 124.0936 138.8514 124.2715 136.7646 124.1128 134.6761 124.2114 133.0043 124.9083 132.1896 126.5677 132.0247 128.7749 131.9516 130.9831 131.9671 133.1884 132.2792 135.3995 132.3025 137.6104 132.3297 139.8216 131.8765 142.0288 132.294 144.2479 132.0189 146.4603 131.2963 148.1837 129.5484 148.8476 127.3802 148.7192 125.2048 148.8471 123.0281 148.8912 120.8645 148.4311 119.3341 147.7593 118.3939 146.212 118.3277 144.0927 118.3564 141.9738 118.5577 139.854 118.2803 137.7336 118.2608 135.6187 118.6585 133.5006 118.4929 131.3802 118.2662 129.263 118.733 127.147 118.6107 125.0301 118.5882 122.9097 118.4878 120.7897 118.4228 118.6716 118.6751 116.552 118.258 114.43 118.6158 112.3104 118.5278 110.1883 118.3865 108.0673 118.2776 105.9444 118.4877 103.8227 118.6141 101.7 118.7344 99.5773 118.5792 97.4581 118.4385 95.3361 118.5737 93.2117 118.3611 91.0869 118.4304 88.9617 118.2517 86.833 118.6761 84.7043 119.1085 82.9092 120.8954 82.1347 123.0806 82.1604 125.2662 82.1802 127.4533 82.0092 129.643 82.0823 131.3607 82.8932 132.2425 84.5976 132.0691 86.7258 132.0094 88.852 131.9278 90.9795 132.0966 93.1056 132.391 95.2277 132.3172 97.3544 131.9587 99.485 132.0733 101.6134 132.0417 103.7432 131.964 105.8766 132.1377 108.0088 132.8453 109.8065 134.6459 110.4179 136.726 110.4136 138.806 110.5528 140.8828 110.34 142.9623 110.2845 145.0438 110.6552 147.126 110.5111 149.2089 110.2412 151.2946 110.4615 153.3803 110.6652 155.2099 109.8586 155.7043 108.0337 155.7242 105.9023 156.0311 103.7744 155.7704 101.641 155.8297 99.5101 155.8106 97.3821 156.1524 95.2541 155.8614 93.1188 155.9905 90.9864 155.7749 88.8508 156.0166 86.7153 156.1086 84.5786 156.7815 82.9196 158.4575 81.9264 160.5583 82.2409 162.6652 82.0798 164.7747 81.9931 166.8778 82.4459 168.6413 82.9252 169.4873 84.6937 169.1638 86.8127 169.4994 88.931 169.3503 91.0505 169.1518 93.1706 169.4672 95.2849 169.1658 97.4027 169.1625 99.5227 169.1742 101.6394 169.1501 103.755 169.0867 105.8715 169.4273 107.9913 169.0743 110.111 169.3714 112.2285 169.3097 114.3477 169.2484 116.4693 169.3343 118.5885 169.247 120.7102 169.5498 122.8305 169.4563 124.953 169.1444 127.0745 169.3011 129.1966 169.093 131.319 169.3934 133.4376 169.5141 135.5591 169.1212 137.6834 169.4459 139.8074 169.1306 141.9325 169.3249 144.0606 169.2338 146.1889 168.7221 147.9568 166.9812 148.7446" style="fill:#ede8da;"/><polygon points="289.7882 46.8941 287.6621 46.801 285.5361 46.6794 283.4136 46.8641 281.2882 46.7367 279.1605 46.8583 277.0324 46.7671 274.9038 46.8088 272.7718 46.9117 270.6397 46.8655 269.1093 48.5238 268.8296 50.4615 269.1983 52.3884 269.28 54.3234 269.0126 56.2644 270.7672 57.8709 272.8371 58.1312 274.9085 57.7899 276.9809 57.6768 279.0494 58.1466 281.1216 58.0176 283.1934 57.9872 285.2608 58.17 287.3325 58.0132 289.4063 57.9227 291.4797 57.9747 293.5548 57.7475 295.6312 57.994 297.7087 57.992 299.3132 59.6542 299.2288 61.72 299.3027 63.7882 299.267 65.8555 299.4498 67.929 299.272 69.9977 297.5598 71.6148 295.4155 71.6433 293.2715 71.7476 291.1296 71.6982 288.9863 71.5219 286.8404 71.4858 284.6967 71.6648 282.5507 71.6087 280.406 71.5132 278.2591 71.528 276.1136 71.548 273.9671 71.3891 271.8202 71.689 269.6771 71.7225 267.5312 71.595 265.3831 71.3846 263.2341 71.7309 261.0851 71.4133 258.9322 71.7044 256.7797 71.4795 255.3048 69.9378 255.0902 67.8195 255.3 65.7027 254.8979 63.5863 254.9602 61.469 254.9206 59.351 255.0015 57.2387 255.0763 55.1231 255.3918 53.0052 255.1028 50.8905 255.3785 48.7771 255.128 46.6626 255.2483 44.5448 255.2193 42.4273 255.2139 40.3117 255.1611 38.1946 255.2256 36.0751 255.3853 33.958 255.062 31.8384 255.3339 29.72 255.192 27.5996 255.2548 25.4804 255.0629 23.3603 255.2077 21.2401 255.0952 19.1234 255.0764 17.0039 255.1863 14.882 255.3302 12.7598 255.3824 10.637 255.346 8.5108 255.013 6.3846 256.7831 4.5685 258.9044 4.5183 261.0258 4.9484 263.1445 4.5078 265.2653 4.7597 267.3883 4.7388 269.5089 4.7528 271.6321 4.8229 273.7538 4.6367 275.8776 4.5341 278.0006 4.9359 280.1243 4.9366 282.2477 4.6235 284.3678 4.5553 286.4909 4.5819 288.6165 4.7811 290.7419 4.5017 292.8681 4.4802 294.9982 4.8757 297.1277 4.7081 298.9942 6.3407 298.5338 8.4324 298.6624 10.5226 298.6913 12.6136 298.7981 14.7078 298.8695 16.8021 297.1678 18.2634 295.1302 18.6901 293.09 18.3419 291.05 18.4394 289.0116 18.5904 286.9719 18.7088 284.9308 18.5083 282.8934 18.3915 280.8533 18.2807 278.8122 18.4455 276.7707 18.5958 274.7275 18.4702 272.6825 18.6924 270.6363 18.6327 269.2461 20.207 268.8185 22.4511 269.1209 24.6966 269.1349 26.9422 269.0827 29.1914 269.0362 31.4405 270.6222 32.8865 272.7279 32.9907 274.8336 33.117 276.9368 32.9622 279.0416 33.154 281.1491 33.2322 283.2569 33.3322 285.3661 33.1819 287.4791 32.906 289.5909 32.9982 291.0062 34.7619 291.1507 36.8431 291.1489 38.9275 291.1012 41.0133 291.3047 43.0975 291.301 45.1858 289.7882 46.8941" style="fill:#ede8da;"/><polygon points="290.6719 82.2222 292.8949 82.0967 295.1201 82.2994 297.347 82.1217 299.5753 82.2258 301.4275 82.8439 302.1059 84.6933 301.992 86.8388 301.8738 88.984 302.0373 91.1274 302.2515 93.2723 302.165 95.4195 301.8834 97.5642 302.1805 99.7117 301.8776 101.8577 302.1659 104.006 302.2159 106.1529 301.8536 108.3007 301.8601 110.4487 301.8991 112.5931 301.7702 114.7403 301.8302 116.8901 302.1228 119.0402 302.2232 121.1908 302.002 123.3447 302.0564 125.4988 301.7156 127.616 301.7018 129.7601 301.277 131.8574 300.468 133.8387 299.8902 135.905 298.6598 137.6674 297.6949 139.5735 296.4934 141.3521 295.0719 142.9676 293.2892 144.1855 291.7594 145.7171 289.7745 146.5801 287.9259 147.6529 285.9645 148.5157 283.9378 149.2255 281.7893 149.425 279.6938 149.825 277.5626 149.9454 275.4268 150.0062 273.264 149.8464 271.1365 149.4342 269.0595 148.8394 266.941 148.3823 264.9757 147.4736 262.9795 146.6372 261.1654 145.4581 259.3821 144.2389 257.6696 142.9094 256.1927 141.3217 254.76 139.6881 253.8523 137.7037 252.5771 135.9277 251.7568 133.9065 251.4945 131.7343 251.0386 129.6203 251.1708 127.4559 250.806 125.3261 250.6694 123.1912 251.1157 121.0529 250.9632 118.9205 250.9093 116.786 251.0685 114.6476 250.8882 112.5138 250.7742 110.3771 250.8026 108.2406 250.5518 106.104 250.7748 103.9655 250.7492 101.8277 250.7633 99.6895 250.8056 97.5547 250.6894 95.4181 250.6829 93.2783 250.4577 91.1397 250.5933 88.9982 250.6496 86.8537 250.6049 84.7099 251.2375 82.8909 253.0466 82.173 255.1841 82.3304 257.321 82.3475 259.4596 82.1495 261.6001 82.1867 263.262 82.9513 263.9813 84.5991 264.0273 86.7469 263.8943 88.9003 264.2201 91.0481 264.2796 93.197 264.178 95.3492 263.9935 97.5048 264.3657 99.6517 264.0741 101.8086 264.3911 103.9575 264.1923 106.1142 264.1509 108.2678 264.3896 110.4193 264.2041 112.5756 264.6302 114.7215 264.5921 116.8755 264.6559 119.0307 264.5991 121.1877 264.5486 123.345 264.2573 125.5086 264.5705 127.6654 264.6875 129.8394 265.9523 131.6116 267.3632 133.2271 269.1566 134.4135 271.0975 135.3312 273.152 135.938 275.2494 136.3718 277.2665 136.518 279.1981 135.9084 281.2 135.6641 283.0194 134.8041 284.7992 133.8774 286.1942 132.4432 287.4082 130.8694 287.7122 128.9066 287.7166 126.8075 287.8497 124.7089 288.0169 122.6073 288.0925 120.5051 288.0794 118.4037 287.7696 116.2975 287.7487 114.1922 287.7239 112.0892 288.1794 109.9891 287.7643 107.8804 288.0417 105.7775 288.0463 103.6728 288.0857 101.5675 288.1813 99.4628 288.0205 97.3587 287.9435 95.2527 288.3707 93.1499 288.3969 91.0424 288.1093 88.9309 288.0667 86.8187 288.1189 84.7075 289.0176 83.059 290.6719 82.2222" style="fill:#ede8da;"/><polygon points="390.0432 149.7434 387.8989 149.7095 385.7711 150.0533 383.6486 149.6899 381.5158 149.5913 379.4425 149.0829 377.4252 148.4175 375.4027 147.7683 373.4676 146.8824 371.6863 145.7192 369.8661 144.596 368.2182 143.2247 366.6971 141.7045 365.5045 139.9135 365.2387 138.1035 365.881 136.3005 367.6571 135.0753 369.5879 134.0444 371.2794 132.6943 372.861 131.2003 374.4866 130.803 376.0906 131.3334 377.7023 132.6775 379.3582 133.9683 381.0857 135.2261 383.1919 135.6265 385.1848 136.4353 387.3227 136.3111 389.3671 135.7872 391.2994 134.9949 393.1855 134.0559 394.6724 132.6445 395.1076 130.6188 394.4228 128.7123 393.6219 126.9597 392.7755 125.1021 391.1094 123.8948 389.0241 123.2439 387.0837 122.3054 385.1938 121.2573 383.2067 120.4018 381.2731 119.4367 379.2815 118.5886 377.4313 117.4441 375.4137 116.6412 373.5891 115.4542 371.772 114.2526 370.2576 112.6872 368.9381 110.9669 367.8091 109.129 366.6317 107.3139 365.6263 105.3696 365.219 103.2144 365.301 101.1703 364.9512 99.1491 365.3672 97.1424 365.3873 95.0945 365.8634 93.1037 366.9527 91.3559 367.9321 89.6079 369.1206 87.9916 370.6359 86.6778 372.1956 85.4251 373.8216 84.0988 375.6488 83.0723 377.6684 82.4957 379.6392 81.8217 381.7185 81.6128 383.7355 81.0731 385.8141 80.9257 387.8873 81.1565 389.9779 81.1132 391.9739 81.7519 394.0336 82.0613 396.0531 82.6024 398.0003 83.3732 399.7148 84.5938 401.647 85.4416 403.1371 86.9357 404.7877 88.2079 405.6563 90.1321 404.7534 92.102 402.89 93.2397 401.2561 94.6706 399.543 96.0086 397.8903 97.4215 395.1585 97.6608 393.2078 96.5804 391.1721 95.6441 388.9703 95.219 386.7815 94.759 384.5474 94.8611 382.3269 95.1003 380.6539 96.1559 379.433 97.6918 378.6941 99.4546 379.3756 101.2013 380.1106 102.9912 381.707 104.0375 383.7366 104.9991 385.6066 106.2714 387.67 107.1637 389.5674 108.3936 391.7342 109.0856 393.7995 109.9819 395.6072 111.4013 397.6828 112.285 399.553 113.2893 401.1838 114.6451 402.8822 115.911 404.3888 117.4148 405.5986 119.1674 406.8463 120.9223 407.4491 122.9892 408.055 125.0283 408.404 127.1262 408.5141 129.2465 408.5836 131.3732 408.3562 133.4911 408.1072 135.6918 407.2441 137.73 406.2113 139.6675 405.0353 141.5175 403.7002 143.2688 402.0647 144.7447 400.2088 145.9214 398.3192 147.0083 396.4121 148.0949 394.3245 148.7713 392.1792 149.2118 390.0432 149.7434" style="fill:#ede8da;"/><polygon points="247.4233 59.3987 247.8665 61.4795 248.0297 63.5853 248.0503 65.6973 247.6344 67.8105 247.7697 69.9204 246.2067 71.5517 244.0759 71.4813 241.9458 71.6518 239.8176 71.7611 237.6876 71.7149 235.5554 71.7532 233.4251 71.3966 231.2929 71.632 229.1617 71.6562 227.0285 71.6796 224.8962 71.3635 222.7633 71.3866 220.6302 71.3565 218.501 71.6168 216.3684 71.3637 214.2342 71.8097 212.0988 71.4914 209.9631 71.3883 207.8242 71.5178 205.6855 71.8269 203.7962 69.9617 203.8621 67.845 204.141 65.7299 204.2293 63.6151 203.9833 61.4993 204.2584 59.383 204.1334 57.2722 204.1579 55.1581 203.9457 53.0417 204.1646 50.9287 203.8759 48.8167 204.1544 46.704 204.0153 44.5876 204.1262 42.4717 204.227 40.3577 204.1247 38.2422 204.081 36.1243 204.1559 34.0087 203.9761 31.8906 203.9008 29.7737 203.8302 27.6549 204.0049 25.5374 204.2106 23.4189 203.8342 21.3001 203.9394 19.185 204.2927 17.0672 204.2472 14.9468 204.0206 12.8261 204.1338 10.705 203.9797 8.5803 203.9265 6.4557 205.7204 4.76 207.7496 5.0423 209.7823 4.6781 211.8117 5.0856 213.8471 4.9349 215.8824 4.79 217.6352 6.5044 217.4768 8.6663 217.2702 10.8251 217.316 12.9824 217.7382 15.1405 217.7674 17.3024 217.2877 19.4642 217.2824 21.6237 217.6167 23.7846 217.6291 25.9481 217.5207 28.1093 217.6281 30.2728 217.6135 32.4353 217.7295 34.5997 217.5171 36.763 217.6852 38.9271 217.5714 41.0914 217.7144 43.252 217.6262 45.4156 217.5148 47.5817 217.399 49.7481 217.5649 51.9148 217.7815 54.085 217.6974 56.2554 219.1849 58.0212 221.2406 57.7216 223.2957 58.022 225.3522 57.7312 227.4077 57.6787 229.4645 58.0385 231.521 58.0295 233.5741 57.988 235.6301 58.1143 237.6883 58.0518 239.7466 57.7567 241.8055 57.6537 243.868 57.8725 245.9303 57.8155 247.4233 59.3987" style="fill:#ede8da;"/><polygon points="130.4751 71.511 128.4116 71.5976 126.3467 71.552 124.2797 71.3202 122.2114 71.3226 120.1431 71.3349 118.3197 69.8168 118.5301 67.7086 118.5126 65.6019 118.7383 63.4956 118.5713 61.3884 118.5291 59.2805 118.7018 57.1783 118.584 55.0727 118.3164 52.965 118.4172 50.8604 118.3551 48.757 118.2697 46.6527 118.576 44.5449 118.623 42.4376 118.4778 40.332 118.4439 38.2251 118.4451 36.1157 118.43 34.0087 118.6381 31.8992 118.3261 29.7909 118.2472 27.6806 118.2738 25.5716 118.7078 23.4615 118.5682 21.3514 118.4973 19.2449 118.5702 17.1355 118.4022 15.0237 118.2954 12.9116 118.344 10.799 118.3083 8.6829 118.6674 6.5669 120.1214 4.8684 122.18 4.8325 124.239 4.7975 126.3008 5.1018 128.3637 5.0671 130.4268 5.0854 132.1053 6.4957 131.8506 8.6036 132.295 10.7097 131.975 12.8157 131.8703 14.9225 131.9982 17.0299 132.3057 19.1316 132.3294 21.2367 132.2652 23.3441 131.9881 25.4483 131.9016 27.5513 132.1493 29.6551 131.876 31.7626 132.0028 33.8695 131.98 35.9746 132.194 38.081 131.9769 40.19 132.2673 42.2965 131.9906 44.4057 132.1315 46.5135 132.0223 48.6235 131.9234 50.7321 132.0273 52.8417 132.0729 54.9513 131.9997 57.0575 132.1813 59.1664 132.2583 61.2778 132.3307 63.3894 132.1578 65.5016 131.9539 67.6173 132.3321 69.7328 130.4751 71.511" style="fill:#ede8da;"/><path d="M89.9196,10.7141l-2.0414-.5765-2.0857-.2806-2.0724-.3743-2.1165-.0878-2.0737-.3334-2.0559-.4728-2.085-.2951-2.1305.0272-2.0085-.7716-2.1007-.1686-2.1022-.1812-2.0609-.4519-2.0866-.2694-2.1095-.1275-2.0445-.574-2.102-.1781-2.0505-.5348-2.1082-.1456-2.0734-.389-2.0724-.3872-2.1069-.1655-2.1065-.1687-2.0833-.2986-2.0382-.6156-2.0839-.3291-2.1198-.094-2.0829-.3418-2.0903-.3154-2.082-.37-2.0843.4223-2.0353.7813-1.2908,1.7999-.7818,2.0449-.6912,2.0947-.3755,2.1418.0649,2.2061-.2848,2.1549-.4743,2.1288-.4324,2.1326-.1191,2.1825-.3144,2.1518-.575,2.1145-.0609,2.1908-.2737,2.1598-.3822,2.1434-.5026,2.1216-.2572,2.1616-.2338,2.1676-.4397,2.1368-.3792,2.1465-.2416,2.1708-.6162,2.1141.1336,1.9023.0063,1.9041.9632,1.6619.8581,1.5691,1.2914,1.6753,1.7144,1.2517,1.5317,1.4342,1.3434,1.6313,1.5015,1.4725,1.405,1.5672,1.5941,1.3803,1.6518,1.326,1.5582,1.4214.9689,2.3359-.1294,2.4314-.9667,1.9146-1.4421,1.5408-1.6985,1.1968-1.9336.7517-1.8269.9531-1.94.7378-1.7634,1.0886-1.8176.976-1.9196.787-1.7904,1.0471-1.7224,1.1806-1.49,1.0936-1.0303,1.5777-.7065,1.7418-.7683,1.7582-.3544,2.0336-.1643,2.062-.2742,2.0436-.309,2.0398-.2933,2.0445-.5137,2.0089.0003,2.089-.23,2.053-.3347,2.0392-.7374,1.9771-.1703,2.0638-.2383,2.0535-.3799,2.0287-.1421,2.0674-.2029,2.0606-.3568,2.0376-.2734,2.0507-.6643,1.9951-.0788,2.0835-.1196,2.036.2169,2.0236.3035,2.0659,1.2211,1.7325,1.9097.9767,2.1208.0619,2.0421.5693,2.1469-.122,2.0327.6338,2.0658.4211,2.0953.1903,2.1255.0132,2.085.2941,2.0686.3806,2.0354.5908,2.0651.4026,2.1187.0727,2.04.5877,2.0983.1919,2.0773.34,2.1152.1063,2.0481.5321,2.1269.0307,2.0404.5913,2.1052.1787,2.0663.4256,2.0688.4158,2.0994.2151,2.0872.2724,2.0721.3902,2.1128.1386,2.0973.2421,2.0972.2467,2.0636.4898,2.059.5204,2.2257-.8781,1.6696-1.6223,1.1229-2.1978.2687-2.0782.0901-2.1088.426-2.0573.1615-2.0957.2614-2.0819.4035-2.0628.5845-2.0329-.0544-2.1324.7084-2.0154.1568-2.1012.1624-2.099.2704-2.0837.4735-2.0528.5205-2.0422.2715-2.0829-.1003-2.1417.2883-2.083.7914-2.0071.3229-2.0817-.0128-2.1327-.068-2.4213-.4732-2.4089-1.2332-2.0712-1.4533-1.4468-1.5495-1.3583-1.3173-1.5904-1.5855-1.3206-1.3899-1.5236-1.5675-1.3382-1.4092-1.5066-1.3952-1.5256-1.3922-1.5286-1.1641-1.9309-.5963-2.2852.9186-2.402,1.776-1.7089,1.7851-1.2641,2.0616-.7316,1.7857-1.2545,1.8982-1.0444,2.0905-.6797,1.9207-1.0071,1.9062-1.0362,1.9867-.8889,1.8995-1.0563,1.3443-1.8855.9676-2.0376.8912-2.0778.2566-2.0863.5651-2.0397.0683-2.1123.2986-2.0793.511-2.0498.0768-2.1126.5978-2.0369.1044-2.1097.1745-2.1012.2504-2.0885.5901-2.0387.0019-2.1268.6175-2.0311.1896-2.0981.2488-2.0916.2405-2.0931.5916-2.041.224-2.0996.3446-2.0815.0392-2.005-.3325-1.9657-.7471-1.8586-1.3146-1.5612-1.9584-.4878ZM63.2318,118.9424l-1.1026,1.8727-1.0077,1.895-1.2608,1.7358-1.204,1.7987-1.5536,1.5042-1.7738,1.232-1.7808,1.1988-1.7552,1.3129-2.1745.3804-2.0165.7392-2.0978.5199-2.1608.0291-2.1529-.0087-2.171-.0867-2.003-.7278-2.0443-.5361-1.8334-1.0579-1.9144-.886-1.6836-1.2692-1.5503-1.4182-1.5719-1.4064-1.4366-1.5632-1.1738-1.7725-.7063-2.0132-.7686-1.9502-.8022-1.9605-.357-2.0862-.171-2.1079.0987-2.111-.0033-2.1396.8014-1.8554.4883-1.9067.68-1.8558,1.17-1.5907,1.2809-1.4602,1.4194-1.5878.5828,2.0976.4329,1.9816.7019,1.9111,1.2652,1.5885,1.3951,1.4286,2.8491-.3457.5133-1.9482-.1026-2.0244-.1712-2.0546-.0434-2.0753-.2015-2.0586-.0845-2.0745.3021-2.0565.4437-2.0215.5249-2.0041,1.0838-1.7735.8092-1.905,1.3658-1.5574.9972-1.8713,1.7606-1.4424,2.0283-1.002,1.8408-1.3183,2.0702-.9139,2.2249-.4272,2.2058-.1816.2452,1.5226-.9466,2.0425-.4413,2.179-.1837,2.185.0619,2.1905.284,2.2127.9417,2.0362,1.3724,1.7788,1.6187,1.2371,1.262,1.5922,1.4272,1.4353,1.2533,1.6052,1.4925,1.4431,1.2382,1.672.8651,1.8919.9263,1.8551.8755,1.917.3117,2.0782.2565,2.0821.0643,2.1052-.5379,2.0456-.4847,2.0187-.4036,2.0618Z" style="fill:#ede8da;"/></svg>