<?xml version="1.0" encoding="UTF-8"?><svg id="b" xmlns="http://www.w3.org/2000/svg" viewBox="0 0 2912 1632"><path d="M2921,952s-104-27-109-27.03-260-14.97-264-14.97-192-22-196-22.47c-3.24-.38-52.27,17.66-70.9,24.56-.5-2.41-1.44-4.67-2.97-6.61-13.64,3.92-17.91-15.2-17.47-15.2-.69-.53-3.07-.88-3.97.41-2.28,3.28-3.45,6.67-3.22,9.83.03.39.08.78.13,1.18.29,2.01.71,4.13-.97,5.76-1.87,1.81-4.32,2.81-6.85,2.54-.24-.03-.49-.08-.73-.13-.12-.02-.24-.03-.36-.06h0s0,0,0,0c.26,2.53-2.45,6.78-2.32,10.06.19,4.96-.96,6.2-5.2,8.02-5.09,2.2,2.8,15.12-6.63,16.36-6.77.9-6.31,7.26-8.67,8.4-1.17.57-3.09.6-4.15-.93-7.66-10.97-31.69,3.14-28.42-16.97-1.68-.17-3.29.6-4.25.29-1.47-.47-1.77-3.29-2.22-5.26-3.95-1.43-6.16,3.41-9.79,5.57-3.7,2.2-10.87,2.31-14.18-.6-4.09-3.6-2.53-9.55-2.99-14.74-4.32.95.07,6.17-9.9,12.26-2.36-2.27-.54-5.16-3.33-6.54-1.4,3.07-1.64,5.44-3.93,7.38-2.44-.57-2.81-4.4-4.69-6.65-1.53-1.82-5.23-1.65-6.33-4.6l-4.44-11.84c-2.16.36-.34,1.92-.22,3.67-5.53,2.97-4.75,20.2-11.39,14.52l-7.97-22.23c-.79-2.2,2.3-5.27-1.46-6.2.57,4.08-1.87,6.17-2.29,8.54-.29,1.64-.49,7.97-3.25,11.61-.92,1.21-2.12,2.13-3.71,2.48-3.13.68-4.78-.82-5.7-3.22-2.28-5.9-.12-17.27-4.74-14.93-4.98,1.53-2.48,11.61-8.77,9.97-3.34-.87-4.21-4.74-6.15-7.83-1.06-.82-2.44-.11-1.72,1.1h0s0,0,0,0c-.12,2.21,1.2,4.94-1.09,6.68-1.61-2.87-.49-4.78-.76-6.53-5.6,5.33-12.15,18.45-13.19,12.8-.41-2.21-.32-4.24-.84-5.08-.69-1.1-1.87-2.04-3.68-1.76-1.32.37-5.01,2.53-5.86.28-1.24-3.31,2.72-4.28,4.69-3.84-.68-2.06,1.4-4.65.37-7.34-8.59-5.9-2.25-3.91-7.46-10.81-1.73,1.22-1.71,2.5-2.19,3.16-.88,1.21-4.6,2.19-5.97.47l-6.38-8-4.53,13.66c-7.8-3.79-2.21,5.28-9.45,14.76-2.16,2.82-2.58,5.38-3.08,7.88.41-.19.94-.29,1.52-.3,2.3-.06,5.46,1.22,5.86,3.45.04.21.06.42.04.65-.23,3.67-2.03,6.76-4.5,8.03-.9.46-1.87.69-2.9.61,1.34.85,2.43,5.37.24,5.47,0,.01-.06.02-.17.01.06,0,.12,0,.17-.01,0-.24-10.59-2.75-11.59-.59l-1.82-13.42c-5.97,6.12-.78,19.98-8.08,23.64-2.81-2.03-4.44-6.05-7.05-9.69-4.46,4.78-4.72,9.86-7.13,14.52-3.41-3.56.35-6.14-1.63-10.31-2.45,1.01-.88,3.26-2.21,5.76-2.53-.99-3.43-4.01-3.76-5.94-.46-.11-.92-.17-1.38-.2-.87-.06-1.74.01-2.61.17-.34.06-.68.13-1.02.23.98,3.08-5.52,4.24-5.51,10.52-.14,3.94-2.56,4.53-3.87.84-.65-1.91-1.28-3.19-2.57-1.76-.1.17-.19.38-.27.6-.39,1.07-.67,2.65-1.64,3.37-.11.08-.22.17-.35.23-2.71-.43-3.31-2.94-3.51-4.73-.13-1.17,1.79-1.97,3.01-2.55.22-.1.41-.2.57-.29,1.69-12.91,2.95-7.66-1.12-24.29-2.83,3.04-1.09,7.34-5.11,10.13-2.29-4.51-.91-8.42-5.7-11.29-3.17,19.92-3.88-.81-3.77,23.12,1.21,2.86-2.38,2.98-3.06-.14-1.23-1.76-2.62.1-2.74,2.21.41,3.44-1.56,5.47-2.33,8.31-.55,2.03,2.07,3.2,2.48,4.2-1.18,1.03-2.51,1.62-2.77,2.6-.42,1.62,1.49,2.25,3.86,4.15-2.6.93-4.48.99-6.16,3.86-1,1.7-1.36,3.56.47,7.25-2.65,4.98-7.44-7.18-9.33-9.85-4.17,3.85-5.23,9.42-7.87,15.64-1.37-1.32-1.14-4.39-3.85-5.38-1.86-.68-2.68,2.8-4.06,4.92-2.51-1.14-2.78-3.78-5.27-5.98-2.47,2.34-2.6,4.72-4.88,7.65-1.69-2.98-4.35-3.36-7.84-1.9-3.57,1.5-8.22-15.67-7.99-17.39-5.95,8.06-3.37,16.4-9.91,21.52-2.29-3.03-3.22-5.53-4.65-8.8-3.93,1.37-4.43,12.62-10.67,14.72-9.7,3.27-19.18,4.93-28.91,5.67-.87-.83-1.9-2.63-2.59-3.1-1.25-.86-3.27-.23-5.47.96-2.23.23-2.56-3.2-5.06-5.4-2.42,2.8-2.3,5.64-3.88,8.49-2.6,4.7-16.74,4.73-20.12,4.58-.69-.03-1.39,0-2.06-.21-3.21,4.61-8.84,3.33-14.12,2.75-6.86-.77-20.87,8.17-24.23,6.64-1.19-.55-1.39-2.66-3.01-3.94-2.15,2.97-1.97,6.83-5.12,7.56-14.41,3.35-27.87,7.49-42.12,11.37l-15.62,4.25c-8.09,2.2-15.04,4.66-22.05,7.23-6.42,2.36-13.27,4.22-20.33,7.33l-12.48,5.49-14.6,7.04c-1.93.94-2.95,3.63-5.55,1.19-1.17-1.1-2.39-1.61-3.5-1.31-3.16.86-2.38,5.87-5.75,5.49-1.07-1.39-1.29-3.64-3.58-5.72-1.79,2.18-1.37,4.9-4.4,6.14-1.56-1.45-1.85-6.03-4.32-6.02-3.31,2.83-3.15,5.59-5.22,8.23-2.39-2.06-.92-4.46-3.88-6.52-5.35,10.5-9.16,3.17-12.58,9.83-.78,1.51-1.63,2.55-2.51,3.27-50.77,9.59-87.71,23.14-92.97,25.32-2.19.91-12.63,7.39-26.33,16.11h0l-173.61-46.29c-1.24-2.17-3.34-4.11-7.29-4.39-.15-1.96-1.83-13.85-3.73-6.95-1.09,3.97-2.1,8.09-5.98,9.79l-6.4-12.07c-3.49,3.7-3.24,7.31-5.56,12.09-5.09-5.61-6.89-18.92-8.95-20.02-.85,6.74-.71,12.13-5.68,16.84-3.77-5.68-5.29-10.39-7.56-15.25-1.47,4.41-4.32,8.25-8.36,7.2-3.6-.94-5.02-5.24-6.21-7.57-3.79-1.68-5.18-5.24-5.1-9.59l-5.09,10.66c-4.79-5.65-.56-7.05-7.47-13.7-1.68,2.22-3.74,2.71-4.27,5.34-1.05,2.74-2.85,1.7-2.33-1.16-1.3-5.28-7.29-23.03-11.02-22.68-3.06.29-2.91,12.85-5.51,19.82.1.32.14.59.13.82l-1.48-1.35c-9.73-15.12,1.01-6.46-11.28-23.13-2.36,1.62-3.95,2.37-5.09.22,3.58-1.47,5.17-2.85,4.78-5.74-.44-3.32-3.77-.15-6.39-13.39-1.73-1.42-2.66,1.86-4.78,3.32l-5.01-12.57c-3.12,3.9-1.93,8.14-4.01,11.44-2.29-.67-3.92-1.3-4.78-.65-5.25,3.98.11,9.99-4.38,8.26-7.99-13.86-3.57-17.5-12.7-25.8-.84-.76-.41-2.91-1.75-2.9-1.05,0-2.24-.34-3.79.58-8.4,4.99-4.13-13.56-8.39-20.07-9.96-3.48-.77-5.32-7.4-13.96-1.86-2.43.3-5.79-2.81-7.58-1.64,6.01-2.3,10.64-6.69,14.7-2.58-.9-1.42-3.65-2.29-6.59l-4.12,5.26c-1.2-2.15-2.55-2.92-5.2-3.64,1.83-2.77,2.91-7.03.38-9.15-3.68,1.86-1.69,6.41-3.46,8.56-1.81,2.2-4.09,3.66-2.5,7.45-1.04,2.04-2.28,2.06-2.86-.09.79-2.83-.62-4.54-2.32-3.92-.67.25-1.32.98-2.92,1.47-.04-13.52-4.06,1.6-9.8-18.52-7.14,2.75-4.15,10.9-9.25,16.34-3.04-1.61-12.4-17.45-9.01-21.87-.78-2.01-2.1-2.08-2.65.1.45,3,.58,6.68-2.04,7.8-3.05,1.31-5.69,1.51-7.84,4.72l-6.99-5.16c-.73-6.8-.78-13.39-4.01-19.45-2.66,14.01-4.64,6.95-5.49,19.85-2.23-.48-2.96-2.25-4.75-3.02-1.59,3.95-3.28,9.8-5.5,10.52-1.47.48-4.99-3.39-9.31-7.39-5.84-5.42-4.73-14.21-7.72-20.91-2.28-5.11-.07,7.44-7.05-14.33-9.05,12.17-8.16-.79-11.85,13.76-1.85-1.87-1.96-4.53-2.47-6.85-.07-.11-.11-.28-.11-.5,0-.01,0-.02,0-.03-.2,2.58-16.97,12.33-21.3,10.8-.83-4.32-.88-10.45-5.29-13.76-11.92,8.37-3.62-8.31-9.48-14.02-.48,4.71-1.66,8.01-6.65,8.09,2.45-9.52,8.15-7.18,4.11-16.72-1.38-3.26,1.14-8.12-1.94-11.29-3.07.81-3.89,4.16-4.09,6.09-.2,1.98.36,3.7,2.23,5.4-2.39.98-4.47,1.05-5.78.23-1.2-2.17-.25-4.39.07-6.03.52-2.69.33-6.28-2.6-7.33-.91-.33-2.05.33-4.05-.94.95-1.49,2.18-2.8,3.65-1.78-.36-1.35.99-3.6.16-5.22-3.35-1.84-4.61,1.42-7.98,1.51,1.73-5,4.26-7.76,2.15-11.68l-5.11-1.02c-1.99-4.48-.29-8.73,3.12-13.75-3.93-4.22-8.38,7.44-11.84,5.3-7.38-4.55,5.32-12.02-3.92-28.58-6.73,4.5-8.32,23.53-7.97,22.16l-2.5,9.72c-2.09,8.13-2.97-.32-8.22,1.99-1.37.6-1.31,2.39-1.46,3.78,2.19-1.87.81,4.72,3.42,5.98,1.25.61,2.81-.28,4.42.73-.8,4.8-8.12-1.67-9.79-.47-1.12.18-2.23-.83-1.94-2.03-1.55.24-3.59-.54-5.82.67-1.59.86-1.18,2.9-.88,3.66,1.35,3.36,4.19,6.57,4.01,10.75-1.66.89-3.11,1.88-4.22,4.96-.7-.82-.84-1.97-1.58-3.01-.65-.92-2.28-1.18-3.64-.88-1.14,2.35,1.3,5.19,1.22,7.82-.46,1.97-4.16,20.95-4.86,11.9-1.28-4.25-1.4-8.31-5.01-11.38-1.02.89-1.16,2.98-3.66,3.62-1.76-2.17-1.71-5.13-1.99-7.44-.86.76-2.09.76-2.94,0,.67.99.53,2.23-.09,3.2,3.18-1.43-1.63,10.26-1.57,10.23-5.67,2.48.56-3.49-1.49-10.05-.98.38-1.36,1.78-3.6,1.54,1.71-3.43,1.06-6.51.43-9.56-1.45.23-2.93.31-4.39.15-.65,2.56-2.6,4.77-2.35,7.5.08.85.71,2.04.29,3.22-.64,1.77-2.74.93-4.12,1.11-1.4.18-2.75,2.86-4.72,1.45-1.04-.75-1.38-2.83-2.08-2.83-4.66,0-2.36,8.86-6.62,9.43-.9,1.79-.21,5.44-4.5,5.82,1.34-2.56,2.7-3.93,2.11-6.13l-6.28-2.23c-2.99-1.06-3.3,1.76-4.66,4.58-2.27-1.51.88-2.69.16-4.44.21-6.88-.38-12.72-4.48-17.96-1.33,6.38-5.38,8.41-5.33,11.33.03,1.83,1.53,2.72,2.65,4.65-1.92.31-3.62-2.11-4.59-.58-1.51,2.37-.77,5.1-1.38,7.22,3.81.54-2.38,9.12-3.53,9.57-1.24-2.28-1.18-3.49-2.39-3.74-8.06-.43.66,5.91-7.62,15.64,1.43-5.48-.7-10.47-4.55-15.95-1.72,2.36-1.46,4.2-1.99,5.99-.25.83.76,2.83-.45,3.74-2.49,1.87-3.27-.75-4.46-3.61-2.03,1.19-.14,3.56-1.92,6.19-2.44-1.83-.62-4.45-1.17-6.53-.65-2.42-2.03-4.6-2.02-7.15-1.07.85-2.51.73-3.62.02.28,1.04-.08,2.21-.13,3.26.99.19,1.5.83,1.72,1.56.16.52-3.07,8.24-3.51,6.71-.86-2.57-.62-4.25-.75-5.84-8.57-16.61-4.05-6.43-5.58-16.14-6.36-.84-1.87-9.04-8.11-10.01.23,1.94-9.36,18.21-10.34,24.65-1.76-.29-3.69-.41-4.78-1.56-1.47-2.48-.03-6.05-1.65-8.08-3.68-2.24-4.67-4.81-2.63-8.99.75-1.54.27-3.92-.13-4.86-.37-.86-1.33-1.35-2.61-1.18,0,.83.56,2.26.11,3.05-.88,1.55-3.1,1.15-4.94.92-1.57-.2-1.01-2.49-1.04-3.94-.02-.99.4-1.73,1.37-2-.28-2.74-.39-5.72-.14-8.47-1.25-1.3-3.01.5-5.16.24.52-2.54,2.31-3.91,2.06-5.94-.48-3.93-1.21-5.13-3.15-13.37-1.4,4.64-9.61,25.5-10.14,29.06-1.2.39-3.02.27-4.54.88l-.88,9.37c.04-.43-4.72,4.73-6.67,8.39l-7.47-7.82c-.63-2.64-2.05-3.02-3.82-4l-29.47-32.34-24.67,14-6.93-18.48s-22.4,9.81-26.4,14.48c-4,4.67-8-21.43-8-21.43l-26.67,6.96v-6.96l-48,3.71h-39.94l-1.14-1.66c-2.28-3.4-4.78-7.61-7.45-11.73-.69-.76-1.41-1.49-2.12-2.24l-5.4-7.88,1.38-34.73,4.64-16.6c.52-.81.87-1.73.87-3.09,0,0,0,0,0,0,0,0,0,0,0,0-2.9-1.37-6.1-2.13-9.58-2.14-2.09,0-4.29.26-6.58.82-.84.21-1.65.31-2.44.33-4.18.13-7.75-1.96-12.94-2.04-2.26-.04-4.83.31-7.89,1.38l-3.3-.14-9.59-18.98c-2.81-2.68-3.93-5.81-3.72-9.71-3.49.24-6.61,1.85-10,4.58,0,0,0,0,0,0,0,0,0,0,0,0-.01-.01-.03-.02-.04-.04-.87-.67-1.43-1.36-1.85-2.12-.64-1-.86-1.81-1.01-2.39-.09-.26-.19-.54-.29-.83-.25-.3-.74-.17-2.18.53-.94.79-1.87,1.74-3.11,1.57h0s0,0,0,0c0,0-.02,0-.03,0l-4.53-.61c-1.93-.2-3.99-.39-5.8-.65-1.14-.08-2.17-.2-3.24-.68,0,0-.02,0-.02,0-1.77-.79-.87-4.3-4.31-5.12.82,1.56,1.51,3.47,2.08,5.56l-17.49-1.38c-.23-2.06-.87-3.65-2.04-4.39,0,0,0,.01,0,.02.07,1.75-.05,3.12-.3,4.19l-12.31-.97c-.1-.06-.19-.13-.29-.19,0,0,0,0,0,0-.09.05-.17.1-.26.15l-13.01-1.02-2.56-.09c-.87-.22-1.55-.72-1.53-1.81-.8.18-1.59.2-2.44.37-.96.32-1.89.74-2.69,1.21l-22.32-.75c-.8-2.03-2.43-3.59-6.28-3.63-2.16-.02-1.92-2.93-3.17-5.44-2.77,4.65-8.35,5.18-13.04,8.32l-17.92,2.19c.06-.42.18-.88.39-1.38h-10.86c-1.99.24-3.83.69-5.51,1.46l-21.48-24.83v14.26l-13.33-14.26-6.67,23.17-14.67-23.17-9.38,24.52h0c-59.54-13.16-122.62-24.52-122.62-24.52,0,0-2.61,920.06,0,924.32s2912,0,2912,0v-604.19c5.28-.53,8.41-.81,9-.81,9,0,0-75,0-75ZM2070.44,916.71c.1-.25.22-.51.36-.8.09.05.17.11.25.18.71.57,1.16,1.74.44,2.84-.07.11-.13.22-.23.32h0s0,0,0,0c-.06-.02-.1-.05-.16-.07-.55-.22-.84-.5-.94-.87-.11-.41,0-.93.29-1.6ZM900.17,911.37c.3,5.17-2.12,5.77-2.43,1.11.23-2.32,1.32-3.22,2.43-1.11ZM839.01,864c.55,0,1,.45,1,1s-.45,1-1,1-1-.45-1-1,.45-1,1-1ZM835.01,862c.55,0,1,.45,1,1s-.45,1-1,1-1-.45-1-1,.45-1,1-1Z" fill="#5e8268"/></svg>