<?xml version="1.0" encoding="UTF-8"?><svg id="a" xmlns="http://www.w3.org/2000/svg" viewBox="0 0 2912 1632"><path d="M2778.08,752.5c-.4-.03-1.18-.14-2.42-.15l-6.83-14.63c-1.51,3.95-5.96,8.28-7.21,5.23l-4.54-10.98c-2.25,1.52-.34,10.26-6.13,9.78-1.55-.12-2.31-.99-3.88-3.74-4.84,5.78-2.03,17.19-7.76,15.06-2.2-.82-2.68.74-4.59,2.92-.41-4.74-.33-9.37-3.44-13.29-2.99,4.21-2.82,8.12-3.95,13.46l-13.63-17.78c-8.36,16.09-3.27,4.62-14.84,17.56l-6.97-12.75c-2.62,6.02-3.22,11.52-4.34,16.96l-1.06.09-4.75-13.76c-3.7,3.35-4.73,11.78-6.27,14.69l-1.29.11c-.44-4.38-.3-7.67-3-11.49-2.58.4-2.61,3.13-5.15,4.14l-4.63-14.46c-9.72,12.82-6.85,4.6-13.01,23.75-.05.12-.11.2-.17.25l-.38.03c-1.31-.79-3.68-9.41-5.27-10.32-2.83-1.62-3.54,7.34-7.22,4.61-2.03-5.03-1.82-9.8-4.55-14.03-1.48,4.41-.73,8.1-5.1,10.85.11,1.91.37,3.88-1.21,2.97-6.21-18.55-7.13-3.93-12.3-14.3-2.83,3.4-2.74,6.43-5.09,10.79-3.79-4.12-2.81-9.82-6.23-16.39-3.12,8.78-3.6,17.4-9.44,25.13l-4.04-14.67c-3.87-.66-3.38,3.84-5.31,5.41-4.17,3.42-5.42,6.86-7.01,12.73-1.92-5.15-1.34-9.99-4.67-14.63-3.12,2.5-6.03,1.77-8.98,3.17-2.86-3.99-2.49-8.92-4.28-15.1l-4.84,16.22c-.41,1.37-2.03,3.28-3.22,3.46-2.11.32-3.1-8.03-6.57-8.7-1.84,3.31-2.15,6.16-4.92,8.98-2.35-2.74-3.41-5.71-4.31-10.03-.45-2.08-2.19-1.86-3.02.22-1.23,6.23-1.29,11.87-4.47,15.72l-7-15.83c-2.39,7.83-2.91,14.02-5.66,20.27-1.37-4.99-4.11-5.07-6.69-4.86,1.22-.88-8.94-22.2-10.39-19.24-7.25,11.31-.84,2.71-10.73,12.34-3.18-4.14-2.61-8.31-5.04-12.94l-4.75,4.72c-1.47-2.76-1.81-4.98-3.39-6.67-3.19,2.44-2.67,6.08-4.81,10.83-2.71-1.63-.43-4.49-3.03-7.15-3.11,3.07-3.22,6.02-4.41,9.49-3.32,9.72-4.83-11.12-9.69-9.19-2.99,4.1-2.51,9-6.23,12.97-3.4-4.58-3.06-8.98-4.62-14.54-2.71,2.24-1.31,5.26-2.87,7.95-2.59-3.09-3.94-7.28-6.95-8.12l-6.95.79c-3.49,2.81-1.54,7.19-3.03,11.82-2.86-1.39-.8-4.32-3.64-6.88-2.71,3.18-3.91,5.72-5.61,8.9l-2.1,2.47c.02-3.92-.22-7.38-2-11.23-.01-4.32-2.9-3.97-2.16.53,0,4.37-3.21,5.29-4.1.84-5.64-10.9-6.71,8.25-13.87,15.85l-7.18-20.83c-1.63,4.58-1.93,9.13-4.61,14.14-2.04-2.97-1.67-5.61-4.33-8.47-2.24,2.74-.83,5.33-2.8,8.67-3.01-4.48-4.58-8.91-6.96-14.25-4.69,5.05-1.03,11.53-6.31,12.01-1.73.16-3.22-5.52-5.6-4.36-6.32,3.07-7.4,9.44-10.03,14.05-3.5,6.14-6.75-12.74-10.97-13.2-3.69,8.47-5.04,4.8-8.28,13.63-4.14-9.11-3.71-16.49-6.88-24.17-5.58,5.99-3.44,12.16-9.21,22.13l-3.42-12.91c-3.73-3.7-1.91,5.53-11.38,9.03-2.19-1.61-2.83-14.96-6.48-9.87-1.02,3.62-1.54,7.8-5.4,10.07l-4.9-18.63c-2.46,1.42-.87,4.97-2.79,6.74-3.2,1.62-4.49,3.56-5.23,7.74l-5.38-8.82c-2.85,3.73-3.05,7.24-6.37,10.35-3.69-4.61-2.31-7.85-6.84-13-1.97.91-2.16,3.2-5.11,5.38-.08-4.26-2.5-6.72-6.88-6.85-.91-3.92.3-7.08-1.38-11.53-2.99,1.28-2.46,12.19-5.43,8.53-1.16-1.44-2.12-2.08-2.89-2.34-5.21-1.75-4.46,9.53-9.04,12.43l-5.12-9.12c-5.13,1.67-4.51,12.52-7.62,10.28-.41-2.74-.02-4.69-2.05-7.69-1.52,1.2-2.15,4.32-4.21,3.99l-4.08-9.93-3.71,11.4c-1.71-.87-2.5-3.01-5.62-3.87-1.91,3.95-1.76,7.73-2.13,12.63,1.02,2.12-1.21,2.43-1.53.26-2.9-7.78-.58-16.7-3.77-20.98l-4.34,6.94c-2.64-2.43-.09-5-2.84-8.37-3.16,3.68-1.79,15.35-4.94,20.26-2.2-3.39-1.28-6.23-2.73-10.39-2.79,3.65-3.39,7.88-5.1,12.43-4.23,1.74-2.54-5.3-4.76-7.58-1.72-1.76-4.4-.49-6.4-.94-.97-4.37-.58-8.31-2.4-12.33-3.87-4.33-2.25,11.33-3.5,8.65l-2.55-4.58c-2.54-4.55-7.62,15.61-8.17,17.52-2.15,7.5-4.7-6.38-6.18-7.11-2.11.58-2.06,2.53-3.25,3.51-1.97,1.62-2.52-1.46-3.08-3.69-3.91-6.09-5.85,7.79-7.29,9.58-6.94-6.63-.43-7.34-8.24-17.72-1.87-2.47-1.68-5.65-5.17-7.18-1.28,1.38-1.82,3.14-3.89,4.96-.7-1.62-.73-4.32-3.44-5.54-2.66,3.37-2.2,18.36-7.42,18.51.04,1.31-1.38,2.16-2.01,4-.78,2.23-2.3,2.08-2.83-.22-.66-2.56-2.39-4.13-1.73-6-1.89-.86-3.68-1.87-5.29-.21,1.04,2.95-.91,5.76-2.13,9.18-7.47-7.77-4.46,8.07-15.81,10.68-1.01-2.12.24-3.8-1.67-5.81l-2.62,7.95c-3.97-5.04-4.14-10.21-6.31-15.68-2.14,4.04-1.37,8.63-3.8,12.47-1.98,3.13-5.36-1.05-7.77-1.36-2.96-.39-5.86,1.48-8.42.63.49.93.47,2-.05,3.06-.44.9-1.45,1.51-2.98,1.03-1.42-.44-1.04-2.41-1.23-3.94-.37-.54-.46-1.67-1.07-1.74-.84-.11-1.91.83-2.3,2.11-3.32,10.96-10.85,6.48-8.6,15.63-2.24-.44-1.72-2.47-3.11-3.58-2.39,1.05-3.84,2.42-7.65,2.99-.42-4.84-.69-10.12-4.94-13.94-2.71,3.53-2.48,7.78-5.62,10.87-3.22-.95-3.05-4.05-5.62-6.57-1.67,5.63-3.45,11.29-6.74,16.91-1.75,2.98-5.99.5-7.92-.74l-4.38.05c-1.52,2.1-1.79,5.26-4.49,7.68l-3.2-6.21c-1.59,1.59-5.12,4.34-7.2,1.92-1.76-2.05-1.56-5.66-3.55-6.33-1.75,1.52-2.99,3.11-3.27,4.88-.16.98.5,2.23-.93,4.11-1.92-.92-.99-2.7-1.52-4.12-.46-1.04-1.04-1.9-.95-2.55.23-1.65-3.05-2.22-3.67-.97-2.17,4.39-2.35,9.25-5.35,13.48-1.22,1.71-4.78,1.42-5.39,4.18-.37,1.7.21,4.14-2.31,3.74-.57-4.88-1.02-9.01-4.08-11.34-.62.62-1.24.66-1.87.04-1.08,5.79-1.3,11.79-3.69,17.84-2.67-.63-4.06-3.03-6.5-2.64-3.33.53-3.53,4.23-5.94,6.34-8.76-10.33-4.13.65-8.88-16.3-2.95,3.39-2.99,19.9-7.84,21.45-2.67-2.99-3.79-5.45-6.2-9.4l-6.51,15.88c-2.5.43-4.01-2.66-5.23-5.95-2.38,1.49-2.16,4.09-3.29,5.99-.25,2.13,1,4.76-1.19,6.39-1.3-2.72-1.54-4.52-.96-6.07-6.79,3.47-8.65,7.88-11.4,5.86l-2.7.04c-1.55,3.18-3.19,6.46-6.21,8.46.19,1.33.42,3-.29,4.05-1.22,1.8-3.59,1.64-5.44,1.5-1.13,2.6-2.3,5.93-5.55,5.86-1.27.12-2.88-.09-4.03.55l-3.01,4.94c-1.3.5-2.14-1.35-3.85-3.5-2.3,2.78-3.18,6.47-3.2,10.05-1.89,1.75-3.99,5.23-7.58,3.46-3.5-1.72-4.15-4.68-5.72-7.53-.88,3.42-.78,5.54-3,7.94-.51,1.3-1.13,1.72-2.45.74l-5.63-12.43c.24-2.9-3.19-2.14.28.79-3.05,3.28-3.95,7.87-5.96,11.52-2.12,3.85-8.36,1.12-11.12,1.99-2.4,3.56-1.39,8.47-4.84,11.85l-2.98-5.43c-3.64-1.5-1.38,17.64-11.4,15.71-1.27-.25-1.87-2.52-2.8-2.13-.87.37-1.22,1.47-2.48,2.49-1.74,1.41-2.73-1.91-3.91-2.81.19,3.27-.88,7.9-4.77,7.76-4.72-.17-3.35-6.14-4.45-9.83-7.09,22.13-4.21,4.06-13.1,16.45l-4.36-6.78c-1.81,3.46-2.35,6.43-5.28,8.33l-2.51-3.15c-1.05-1.3-4.29-1.7-5.53.05-2.03,2.85-2.56,6-4.37,9.11-3.3,5.67-13.23-3.8-16.06,8.2-.56,2.37-1.58,4.46-3.38,4.14-.26-5.23-3.39-5.44-3.39-.79-3.92,9.18-3.41-9.64-7.28-1.71-2.08,3.07-2.08,7.22-5.02,9.47-2.06.96-6.21.31-8.11-.25-2.69-3.94-4.65-15.3-7.92-23.33l-6.05,21.82c-.42,1.5-2.8,1.41-3.66.37-1.12-1.34-2.23-7.13-4.33-7.62-7.24-1.67-1.36,8.31-8.7,7.57-3.43-.35-5.09-.92-6.26-4-6.26,6.4-2.26,14-7.41,15.8-1.76.61-2.17-1.37-3.58-3.52-1.12.97-.93,2.91-3.16,4.13-1.56-1.28-2.16-3.18-3.21-5.52-5.9,3.46-.66,9.88-12.67,10.91-3.77.33-6.39,3.25-9.96,3.77-4.55.67-6.79-1.13-8.81-4.35-3.27,1.69-14,5.24-17.28,6.71.51.33,1.09.46,1.81.32-3.24.61-3.34.38-1.81-.32-1.14-.7-1.93-2.34-3.2-4.04-2.8.63-2.29,3.75-4.62,5.83-3.16-2.39-3.53-5.14-6.24-8.15-2.88,2.82-2.42,5.63-4.27,8.54-12.35-.57-12.45,8.33-19.02,1.22-1.92-1.96-7.7,4.47-9.81,4.67-1.76.17-2.47-1.76-3.75-3.67-1.11,2.14-2.56,3.91-4.2,4.7-3.85,1.87-5.56-1.12-8.34-1.86-1.71-.2-4.64,4.46-7.13,1.53-.89-1.05-1.73-1.9-2.63-2.25-1.76-.68-2.17,1.56-3.6,2.93-2.42,2.33-5.29-.09-7.81-1.06-2.69-1.04-3.84,2.29-5.73,3.35-3.4,1.9-6.44-1.22-9.6-1.13-1.89.05-3.45,1.76-4.98,1.4-4.42-1.03-4.18-2.66-6.95-6.41-1.85-2.49-2.54,5.29-7.05,5.1-1.81-.07-2.72-2.27-4.22-2.95-2.65-1.2-5.89,2.13-8.76,1.75-12.06-1.57-3.54,2.86-17.85,3.14-5.42,4.22-9.08,6.1-16.29,6.22-3.47.05-7.19,4.14-11.32-.09-2-2.05-4.76-3.37-7.52-2.92-8.12,1.33-6.82,11.29-11.12,12.21-5.13,1.09-10.46.47-14.44,3.7-3.12,2.54-6.53,12.5-12.38,9.87-1.55-.7-1.96-2.89-3.01-5.49-1.8,2.07-1.99,3.63-2.46,4.9-.79,2.1-4.04.38-5.16,1.4-3.68,3.4-7.21,3.58-11.65,4.81-2.84.79-2.43,5.05-15.94,8.88-1.57-2.05-1.73-4.59-3.8-8-1.49,1.94-2.04,4.42-4.48,5.52l-3.36-9.01c-1.98.34-6.8,11.56-11.25,13.98-17.73,9.67-23.06-.3-26.62,7.32-.39.82-1.74,1.68-2.54,1.94-1.5.48-2.44-.88-4.02-3.63-1.73,6.96-11.06,7.95-11.4,7.53-.81-.99-.04-3.07-3.19-5.66-.47-.39-.69.69-1.8,1.76-1.83,2.99-2.25,6.13-4.38,8.91-5.87-1.02-5.29-5.74-6.86-10.86l-4.97,16.72c-.78,2.63-4.47,3.44-5.91,5.04L0,1101.02v530.98h2912v-865.15l-133.92-14.35ZM1982.53,795.93c-.74-2.32-.23-4.4,1.15-3.68.29,2.96-.17,4.04-1.15,3.68ZM2163,766c-.55,0-1-.45-1-1s.45-1,1-1,1,.45,1,1-.45,1-1,1Z" fill="#759675"/></svg>