<?xml version="1.0" encoding="UTF-8"?><svg id="Layer_1" xmlns="http://www.w3.org/2000/svg" viewBox="0 0 2912 1632"><path d="M2912,662c-3.2077,1.5616-1.7104-8.8314-2-8h2v8Z" style="fill:#688d6f;"/><path d="M2867.3296,813.7779c1.6957,2.3117-1.2006,2.5557-4.4985,2.2546-2.5706-3.5758.66-5.8651,4.4985-2.2546Z" style="fill:#24453a;"/><path d="M2894.1995,692.0367c-1.6394-.3386-2.0675-1.4877-.2834-1.958l.2834,1.958Z" style="fill:#517863;"/><path d="M834.4182,1093.5687c.3713.2408.6658.4811.905.7216.9492-.5076.874-.8013-.905-.7216Z" style="fill:#24453a;"/><path d="M398.2554,962.9407c14.3525.342,4.0554,7.0857,15.7922,4.9019,12.1897.4061,1.5506,10.3592,5.3827,13.7955.6571.4965,1.8035.1799,2.7152,1.8732-10.4902,3.3052-2.2065,6.282-12.3271,7.6592,26.6379,9.0149,9.4966,14.6414,38.4795,25.189,2.9309,1.0667,4.3674-1.7019,4.3694-5.2837l.0173-31.3026c-16.3501-3.1986-10.0337,6.2266-33.3403-.7673,2.3655-3.4425,6.3477-.652,7.0295-2.6012l2.0251-5.7886c6.1858-.7054,11.551.4437,18.1567,3.0183,1.686-12.2612-18.1267-1.2932-32.5581-13.4041-9.6284,4.3523-12.2317-5.7776-16.5278-.3916-.5439.6819-.7139,2.0289.7856,3.1021Z" style="fill:#24453a;"/><path d="M468.616,1023.0435c-2.0774.7744-4.7012,5.0959-2.3474,6.2258,3.5981,1.7272,4.2778,2.9971,6.2742,7.1781,18.2895,3.4516,32.2763-20.2382,39.0059-36.7638-2.031-2.9476-3.8333.6372-6.1245,1.6755-3.0237,1.3701-7.6692-1.7939-10.7393.0999-11.636,7.1774-12.5615,16.5488-26.0688,21.5845Z" style="fill:#24453a;"/><path d="M481.8513,1003.9277c.9387-3.5347-2.7532-4.2744-4.9575-4.916-1.7051-.4963-2.8953,1.9553-4.6692,2.7828-2.2922-.2604-3.3372-2.5736-5.2732-3.194-2.0874,6.8672-2.7913,13.146-1.636,19.8906,8.5266-1.4856,14.4778-6.8152,16.5359-14.5635Z" style="fill:#24453a;"/><path d="M2734.1133,822.6448c4.178-6.8655-23.4008-14.0934-6.6577,2.2377,1.9121-.6974,4.1387-.7925,6.6577-2.2377Z" style="fill:#24453a;"/><path d="M284.0603,879.7271c-2.4556-1.7737-4.9487-6.1177-9.5029-4.5737-.0691.0234-6.4531,4.4976-7.8499,9.8669-.8635,3.3196,6.9058,10.3022,8.6907,8.3425,1.8081-1.9851,2.8853-3.8542,6.3523-4.4441,5.8401.5131,2.825-4.6353,11.9561-.7665,2.482-5.2257-6.3427-5.6331-9.6462-8.4252Z" style="fill:#24453a;"/><path d="M86.1082,690.0157c-1.0728-2.4658-3.4966-3.8427-6.189-4.3254-3.9519,3.0421-10.4172,1.6666-15.8904,2.5826-2.8579,2.673,22.5754,3.2083,22.0793,1.7428Z" style="fill:#24453a;"/><path d="M80.7896,710.7715c1.0683,2.6562,3.6861,2.1393,6.1699-.6208,8.5475-1.6224-6.2587-4.7598-6.1699.6208Z" style="fill:#24453a;"/><path d="M2677.2803,886.0728c.8174-.8871,1.0303-2.9949.2373-3.8733-1.7031-.9117-2.9409-5.4089-6.0342-2.2549,1.0703,2.2871,3.7134,4.2822,3.6616,6.5068.8892.2136,1.6724.124,2.1353-.3787Z" style="fill:#24453a;"/><path d="M259.6956,894.1384c-.0994,5.4016,4.7288,5.4016,4.6194,0-.1992-3.0032-4.4094-3.0032-4.6194,0Z" style="fill:#24453a;"/><path d="M78.0852,662c-.6985-2.2839-1.4553-2.2839-2.1538,0,.6985,2.2839,1.4553,2.2839,2.1538,0Z" style="fill:#24453a;"/><path d="M2874.8999,723.51c-.0762-.2402-.1411-.478-.166-.7448.0029.0309.0054.0511.0083.0803-.0034-.026-.0093-.0491-.0122-.0756.0774.7509.1204,1.0199.1704.744-.0005-.0006-.0005-.0012-.001-.0018,0-.001.0005-.0012.0005-.0022Z" style="fill:#24453a;"/><path d="M2361.7197,657.47c-.9395.3101-1.3599.5601-1.3799.75.7202-.22,1.21-.47,1.3799-.75Z" style="fill:#24453a;"/><path d="M673.0066,1112c1.2974.019,1.2974-2.0191,0-2-1.2973-.019-1.2973,2.0191,0,2Z" style="fill:#24453a;"/><path d="M2780.5225,741.8182c-.8311,3.5907-1.2158,6.0573.3638,8.1632,1.7534-4.7576,1.9707-7.0085-.3638-8.1632Z" style="fill:#24453a;"/><path d="M1157.9175,1148.8806c-.9453-1.5825-1.5278-.533-1.937,1.3893.8755,2.4115,1.8291,1.7865,1.937-1.3893Z" style="fill:#24453a;"/><path d="M1181.0049,1202c1.2975.0191,1.2976-2.0192,0-2-1.2973-.019-1.2973,2.0191,0,2Z" style="fill:#24453a;"/><path d="M1223.0049,1276c1.2974.019,1.2974-2.0191,0-2-1.2973-.019-1.2973,2.0191,0,2Z" style="fill:#24453a;"/><path d="M2025.8833,1092.7305c.1353-1.0225.2197-2.4053-.0435-3.0769-.1924,1.2705-3.2959,2.0908-1.8374,4.3464,1.1934.2936,1.7861-.5574,1.8809-1.2695Z" style="fill:#24453a;"/><path d="M2320.002,995c-.0193,1.2973,2.0192,1.2975,2,0,.019-1.2973-2.0195-1.2973-2,0Z" style="fill:#24453a;"/><path d="M2351.0015,1004c1.2974.019,1.2974-2.0191,0-2-1.2973-.019-1.2973,2.0191,0,2Z" style="fill:#24453a;"/><path d="M2910,654c.6802-1.95-1.2998-6.49-3.0601-5.5-2.48,2.4399-5.0801,3.88-6.5098,5.55-4.5903,5.34,6.23,7.23,3.0898,14.5-2.1699.75-7.0601-2.4-9.1802-.0901-8.04,9.78,6.0703,23.89-4,31.2-.6797,4.76-.6899,7.4001,5.7202,8.7101-2.5801,9.1801.29-3.83-8.8501,4.34-2.6299,2.3601-5.9399.02-9.5601-.55-2.4897-.3899-2.5498,10.28-2.75,11.3501.5503,1.5701,2.2402,2.48,3.71,3.86.3804,1.28-.6597,3.2999-.4497,4.63,4.23,2.62,8.5,5.21,12.1699,9.5901-3.8901-.4701-9.3799-1.3401-9.8901,2.2899,5.46,14.0699,2.6201,12.6901,2.8403,15.1901-.0605,1.96,9.2695,1.2799,4.8896,7.21l-11.3198,2.76c-2.98-1.1301-4.9702-4.79-8.9302-4.9301,1.2603,3.64,3.6299,6.7201,2.6299,9.75-3.9199.4801-6.7397-.5399-10.4297.5,1.0996,4.7001-1.8203,8.9501-1.48,12.65,1.3799,2.1899,6.9497,3.4199,6.5498,7.59-1.8799,2.2001-6.1699,4.4501-5.1597,9.7201-2.2104.8599-4.1504.1499-5.7603,1.08.9702,3.46,2.3599,4.0099,5.73,5.61-7.0303,3.22-11.6802-2.0801-11.27,10.13,1.8003,1.99,2.71,4.11.2202,4.91-1.8403-2.17-1.8101-3.6401-2.6104-3.98-.8799-.3701-3.0498-.9601-4.0898-.1501-4.4399,3.4202-1.3301,7.4202.9302,11.0601,2.23,3.6101,2.0498,7.29,6.71,9.38,3.1196,1.4,2.5298,5.5499.4697,7.7201-7.2798,7.6599,4.0103,8.5798,1.5801,15.8699-10.96,1.7001-4.27,2.71-17.3999.6801-.3799-2-1.75-3.9301-3.9102-5.38-3.9199-2.64,3.0601-5.79,3.02-7.75-.1099-6.8401-8.6099-7.53-13.5801-8.1599,10.4604-6.2301,4.3999-4.7101-.2397-12.04-.7002-2.9401.2002-5.29,2.1299-7.5601,2.8301-3.3301.6699-8.12.7803-12.0701l.1997-6.5798c-10.8901-1.8-3.8501-8.4901-6.29-14.5801-1.8398,1.37-2.0801,2.77-3.1699,4.39-4.1602-1.9901-7.6201-.4501-11.7397,2.7899-1.0601.73-1.8701-2.1299-1.4502-2.71.3901-.53,2.6001-1.02,2.73-2.01.3901-3.11-.9502-5.77,1.7397-9.36-3.1997-2.5-6.6597-1.85-8.96-4.91,2.6802-1.5,5.1001.3901,6.6401-2.8799-1.9097-2.3901-3.8398-1.1301-6.46-2.6101.8799-1.02,2.5698-1.6799,2.9702-3.3099l-5.5-3.9601c1.1299-3.72,2.4199-6.78,1.0698-9.6899-5.2002.39-9.3301-.55-10.5-4.3301-2-.4299-3.8999-1.2699-5.9399-1.4199-.0103,7.5801-5.21,3.5-7.6299,6.78-1.8203,4.33-1.0601,9.3899-3.6699,9.05-3.8003-1.1301-3.04,5.4299-3.04,7.48-3.5503,1.1899-6.8203-1.6301-10.1904-2.4501-1.25,2.4501-2.7598,6.0499-5.9297,5.61-1.9502,16.63,7.5601,7.92,4.5298,19.1801-.6597,2.45-.0898,5.72,2.0303,6.88,2.02-1.1899,1.5796-4.03,1.9497-7.13,6.3003-2.2101,12.1299-2.7401,17.8398-2.4,1.0703,5.9099-2.3696,12.38-9.6997,13.49-1.3198,3.9199-6.98,15.6001-5.6802,18.28l-7.5498,5.01c-2.25-3.77-7.2202-6.66-8.8799-5.8201-3.9302,2,.8701,5.01,3.0098,9.71l-16.5801,10.99c-3.0801-3.0898-7.5596-1.4199-10.7397.6802-2.1602-1.01-3.6001-.4701-3.8701,1.5599,2.9502,1.2699,4.6802,3.2,5.3701,5.46l-3.73,3.1c-1.54-.1699-2.3203-.45-2.9502-1.3699-1.1396,2.97-2.75-.6702-4.6899-.3301-2.0801.75-1.1602,3.85-1.1602,5.38,1.5503-.3199,3.8301-1.0699,6.2104-1.53l-7.2202,6.01c-3.75-.58-6.8403.0499-5.54,4.61l-20.9102,17.4c-.6299.22-.96.51-.98.8199l-4.1602,3.46c-4.6997-.24-9,7.6001-14.1895,7.4001-5.3804-.2001.4097-9.92-.8203-11.42-3.4102,2.0199-7.79,10.7899-10.77,2.71-.2998-3.0399,19.4902-8.85,18.6899-17.0499-.7197-4.3301-8.96-4.0801-9.1099.75.6099,4.71-4.9102,4.5-4-.27-1.9399-7.66-14.5298-4.7-10.4199-13.24,1.9697-4.0901-.8999-5.2-3.5303-7.39-2.3398-1.9401.25-6.7401.1602-9.62-.0801-2.74-3.21-3.01-4.3101-4.16-3.2002-3.34-1.52-13.91-9.2798-17.75-.8403,4.84,1.5498,8.66,0,13.0499-11.6602,3.5601-.9302,13-8.7202,14.6501-.1899,2.74.5601,5.58,1.98,7.96-3.5601,1.8799-5.6899,5.7-5.5801,9.6699-4.8799,2.5-.6997,9.4-1.8896,14.0701-2.5103.37-5.23,1.5701-6.1704,4.08-1.8198-1.9-5.71-2.14-7.4897-5.5599-1.0601,4.75-.8003,7.6399-1.2002,11.4199-.1196,1.1301,2.5703,2.8301.2402,4.02-7.02,2.92-1.3701,5.1799-.8403,9.3401-.2798,2.0399-4.4097,1.8099-5.1099,4.1299-1.21,4.0701,10.79,3.3301,15.7603,5.6001l1.0698,8.02c.8003,6-13.46-1.4401-16.8101-.3601-2.7397.8801-2.7397,6.28-6.3198,7.21-2.3599.6001-5.1001-.99-7.8501.27-1.1401,4.01,2.5898,6.3601,3.25,9.3601-1.3701,1.27-3.6099,2.49-3.6602,3.6799-.1099,2.73,1.02,4.98,4.7202,4.8501,4.9102,1.7-3.4199,4.0299-1.6499,7.1799,1.2397,2.22,7.8999-.52,7.5698,2.75-7.4497,1.9299-13.75,1.03-11.48,10.29,1.1499,4.3799-6.5898,7.8599-11.75,6.1299,2.6299-9.1899-15.0601-7.83-8.5098-17.22-.0601-3.1299-5.2002-2.8899-6.3901-6.11-1.23-3.36,6.0498-7.1901,6.9702-11.0099,2.4897-10.3401-8.7603-4.9302-14.5303-11.8901-4.96-6.24,12.3301-3.79-1.8999-17.4199-1.8804-.9399-3.77-.1801-6.1001.9299-.8301-4.49.7598-7.4299.6401-11.45-.0503-1.75-3.3501-1.05-4.46-2.46-1.9204-2.4501,1.23-5.0701,1.71-7.3201.75-3.49-2.71-6.37-5.0503-8.8999-1.54-1.9601.71-4.75-2-7.4601-2.7397,10.42-1.3999,4.8099-5.04,13.77-.7397-1.02-1.0801-.28-1.8896-.02-4.9199,1.58,1.1499,6.2999.0298,11.92-6.6099,1.45.9702,6.22-4.3901,6.73-4.7397-3.71-3.4497-8.4399-6.25-13.49-19.5596,2.3799-10.4897,4.3199-14.4897,5.8799-16.3003,6.3801-5.04,1.53-20.5298,1.1001,2.5-5.97-6.5205-.91-8.6704-11.9299l3.9702-9.8801c.6001-1.5-.6699-3.27.1602-4.3799,1.2295-1.6401,6.1396-.3201,7.1597-2.6501.6401-1.45-.54-7.5699-1.1299-10.22-.7002-3.1099,1.2397-6.4199-.46-10.4099l-7.2002,2.08c-1.5898-2.7001-4.79-3.7101-7.7598-4.15l.2397-5.6299c.1602-3.7201,2.7402-6.8101,2.8901-10.1201-1.1997.8501-2.79-1.59-4.29-1.9399-4.4702-.2-7.73,15.23-13.23,9.95,6.1099-11.04-6.8799-9.4299,4.6001-17.52,5.4302-3.71,1.02-12.1699,1.0698-17.58-4.2598,1.08-9.0801,5.1801-13.75,2.5599-4.6797-3.24,6.4102-12.0599-6.71-9.1399-3.27-2.6801-2.9297-8.24-1.2598-12.8601-1.3301-1.5599-3.25-1.5-5.5103-2.49-.4697-6.85,1.0698-12.7999-.0898-19.6599-17.6499,6.03,4.73,23.1899-12.9399,24.28-3.2603,7.6099-1.0898,16.3999-.23,25.3099-15.3701-6.9701-7.3999,12.62-4.79,19.37-7.98,4.1599-7.8301,5.8201-16.4102,1.0801,2.5298,5.3199-2.3599,12.4099,2.3999,15.5798,2.5103,1.6802,3.4199,3.3601,2.54,6.2301.6001,1.84,3.7402,2.5499,4.1802,4.7799-.3301,3.78-1.8999,7.3101,3.27,8.4501,11.6797,2.13,3.96,5.7201,12.1899,9.02,2.3501,2,.04,2.13-2.8398.86-7.8604,8.24-13.23-2.3301-16.5303-8.24-1.5098-1.88-12.2598-6.1001-16.77,3.27,1.2402,3.1899,4.7803,5.02,4.6899,7.4399-1.8296,2.63-5.0698,3-6.02,6.8301l9.6904,2.6699c-1.0903,2.73,1.0195,4.54,1.3096,7.46-2.5298,3.3-6.71,1.29-8.9497-2.0399-2.5303-.14-4.0801,1.17-5.8003,1.67-1.0195,3.47,1.02,6.9399,5.7002,7.4299.1899,1.63,1.25,10.89.6201,12.27-5.2002-2.16-.5,8.6899-9.4902,9.09-.1099,5.6801,17.79,1.9901,13.4902,13.15-11.2002-1.77-6.3203,5.15-20.0303-1.6799,2.5703,4.3799,2.2002,9.1499,2.6104,13.5,4.71,10.4099,10.9297,9.1199,20.1899,5.0499,3.1699-1.14,3.4497,6.77,6.1597,11.53-2.7695,6.5-10.1597,8.47-15.9897,8.37.9097,1.08,1.3999,1.63,1.3398,2.5-.3198,4.5601-6.7397,1.83-5.8198,5.5701.1602.6699,1.02,2.0199,1.1299,3.0399-2.3398,2.0599-3.8701,4.3099-3.5898,8.5-5.0303.59-13.3701-4.53-15.48-.6.9497,4.52,4.0898,3.46,6.04,3.8,16.0698,2.7,8.0298,19.8699-1.3003,6.7699-1.7598.62-2.25,4.7201-.5898,6.87-.4399,9.05-10.75,9.8401-17.2402,12.3701-1.2998,1.8398-1.2598,4.5199-1.6299,6.1799-7.5.24-.4897-13.92-11.5298-7.63,1.54-4.1,3.0698-7.58,3.21-11.38-4.2002-4.02-6.9902,4.74-10.5801,3.46-4.1899-1.5,5.4702-6.5699,5.0498-11.59-.6299-7.5-9.5698-4.5399-9.8599-9.41-.2598-4.55,6.6001-2.8999,6.8301-5.87.23-2.92-5.7402-2.75-6.71-4.5499-1.46-2.73,4.2197-8.25,3.4897-12.55-3.4097-.3401-2.6699,3.1-5.8999,4.4199-6.8701-7.2799,6.6201-13.3799-3.7197-17.3199,3.8398-2.12,4.04-5.4401,3.7598-9.0399-.2197-2.8801,2.3999-6.17-1.6602-9.1401-2.3999,2.8601-4.8896,4.6602-7.4897,3.4401-2.1499-6.0299,2.79-16.3199-6.3901-16.61.8604-2.79-.8799-4.72-3.46-6.9299-2.4902-2.74,1.1099-6.77-1.5-11.04-4.0601,5.55-4.6602,12.11-7.1099,18.6899-.4302,1.15-2.3198,1.0901-2.6602,1.64-.6201,1-1.2998,2.17-1.4399,3.37-.5498-.6499-1.46-.73-2.04-.12-.6099.65-2.5098.1-3.3301,1.2301-1.79,2.49-.1899,5.1099,1.0303,7.1799,1.3198,2.23,4.8599,1.99,8.6396,1.4199,2.96,2.2001.79,4.26-2.1797,3.5801-3.6001-6.05-9.4399,13.4099-7.0703,13.78-4.4897,1.51-3.4497.0599-6.5195-3.66-4.4302-4.38-.2603,13.0599-3.3604,17.3099-.3999,2.04,2.4302,3.92,2.8901,6.1001.6401,3.1-.6802,4.4099-3.2002,2.76-4.3398-.1801-7.7197-.91-11.54-4.67-4.8599,14.62-3.6597.2999-4.9897,17.0299,26.27,4.2101,14.8896,3.3701,18.8896,7.6201,7.8203,8.3-1.8999,14,7.4302,14.2l-.8301,3.4c-3.6899-1.33-5.9297,2.2699-8.5796,2.73-6.8101,1.17-12.5503-3.48-19.2705-5.01,3.9004,4.36,6.4004,10.9801,1.5801,15.37-3.9199,1.64-4.3096,1.52-3.6997,6.0901,1.6699,11.7999,15.9497,1.45,12.25,11.5-2.73,2.1399-8.1401-.5901-9.2803,1.98-2.0698,4.6899,9,14.4099-.6196,20.1599-1.6602,1-4.04-.6599-5.2803-.1299-.5601,2.5798-1.8999,5.0699-4.3701,4.5499-1.6099-8.74-11.6396-10.17-12.73-.33-2.8999.4099-6.2896.3899-8.5-3.49-2.1997.6199-2.0796,2.3099-1.6396,4.09,3.5796,9-7.7104,2.5199-9.1602,9.59-3.9102,11.26,10.8398,4.41-.2798,16.1899-2.5.6801-6.6104-6.7999-9.2803-3.1899-4.3701,5.9199,6.0703,6.36,3.48,12.9399-.3901.9701-8.3301,2.4701-10.4399,2.4701,2.0898,4.83,4.9199,6.6901,9.2197,8.88,2.04,1.05,1.3301,6.3101-1.1895,6.77-7.79,1.3999,1.7397,4.5-4.2705,8.3799-4.3896,2.8301-11.4097,6.1101-15.3496,1.92-3.9702-6.72,7.3398-10.42-2.5-16.6801,4.8496-1.6299,3.7397-5.46,4.6396-9.24,1.29-5.3699,3.0903-10.8799-3.5298-13.8899-1.6602-.75-3.7397,1.97-5.96,1.49-2.3198-4.3,9.02-5.3401,11.1499-7.39-10.21-21.51-7.54-5-28.8999-7.24l-5.1602.66-.3799-9.2001c-4.8301-.0699-8.96.49-12.3999,2.7201-1.4702-3.6702,8.6899-3.4202,6.1899-17.02-5.5298-.3501,1.1201-7.5601.1201-8.6401-.3403-.7699-1.3701-1.3199-2.4399-2.1299.0298-2.0601.2598-3.3301-.7202-3.52-7.3599-1.39-4.6899,7.05-10.0103,5.73,7.0601-19.74,1.1904-21.5801,1.1704-21.8l-.9702-13.79c-2.2002-.5099-4.29,1.3-5.3599,2.3801-2.6201,2.6499.4897,6.77-.23,10.28-.23,1.0999-1.75.8398-2.9502,1.72-2.71,1.99-1.8301,6.1199-.8101,9.09-3.04,1.41-6.48-.39-8.7397,1.15-3.6201,6.61,10.8198,4.1299,4.6797,8.3899-6.4697,2.79.0903,6.3901-.2695,9.1001-.1304-.89-8.9204,6.8999-10.4004,6.3101-.0498-.1201-.1299-.2201-.21-.3201.02.13.0601.25.1802.3101.8799,1.51,0,3.9099-.3198,5.3799-23.2104,7.72-8.3901,9.5701-18.0205,12.1801.9702,4.92,3.1401,5.3199,7.5801,4.4401,1.5303,4.1899,3.0601-.01,11.8403,4.21l.0298,10.6299-9.3101,1.1802c.9502,12.0798-1.5098,5.9299.6699,14.71-4.02,2.47-2.4297,4.1299.4102,7.1899-3.3198,2.52-7.3599,4.39-9.48,7.8201-1.6499-.1901-3.21.0999-5.79-.79.6499-1.55,2.2598-2.8201,1.6401-4.3201-2.8301-.22-4.5801-1.2-6.6602-1.49-3.29,1.28-1.29,11.53-7.0698,12.3-3,.59-3.3901-6.53-5.79-4.4199-.1401-2.25.29-6.1001-2.2803-7.5901-6.7998-3.95-2.8799,24.25-16.1797,16.99-.29-3.51.7798-9.27-.7002-13.38,1.2002-.98,3.1802-1.84,2.73-3.4401-2.6401-1.3799-4.6899.8801-6.0298-1.3899,3.5996-1.26,6.3398-2.23,7.23-4.47.71-1.79,1.46-7.02-1.1899-7.4401-3.6401-.5699-4.3003-1.76-6.46-4.34-7.9805-9.52,2.6699-2.3401-4.3101-20.51l-11.1401,1.98c-2.3901.4199-5.75-1.38-6.4199,2.03-.1499.78-1.1299,1.1899-.0801,1.97-7.1499,6.29-4.8999,21.21-.0601,27.6699-2.8901-.51-4.6699-3.1599-6.04-2.1199-2.96,2.26-2.8999,6.03-2.71,9.27-3.0298.0599-6.9702,7.8599-5.8301,9.3099l2.1304,2.72c-1.6504,1.85-3.7305,2.4401-4.2402,4.38,3.5,1.29,3.4102,2.46.1099,3.3-1.4897,2.5699-1.25,5.48-2.9697,7.77-2.3501-.03-4.2402,2.09-5.9902,4.3099-4.5801-1.34-3.8799-13.0499-8.8398-12.5399-4.75.5-1.04,13.3999-3.8198,15.1199-3.4204,2.05-6.1401,3.67-8.6001,6.47-1.8403-5.6699-3.5601-9.6699-8.3701-11.8999-.73-8.78-5.5503,1.6799-10.8501-1.8201-6.1602-3.1699,2.3203-5.75-5.5498-7.59-4.6104-1.08-1.4399-5.85-.6899-7.9301-2.7803-1.4299-1.6001-3.5599-2.1104-5.7-.2197-.9099-2.5098-1.1399-2.3501-1.73.2305-.89,1.6304-1.87,1.6104-3.11-1.6699-5.59-7.27-1.33-2.6899-10.2899l-7.4102.1499c-.27.01-12.0898,10.3201-10.8198,7.99-3.8604,5.97-2.5903,17.51-4.2002,19.8101-1.98,2.84-3.98,4.8899-1.04,8.8799-3.6201,4.1001-17.73,9.29-9.4297,14.5,1.4497,4.03,4.2397,4.8801,7.46,6.05-4.8003,3.73-7.1602,0-10.1602-3.6499-2.1499,3.96-7.27,16.83-10.0098,10.83.0698-2.77-2.5103-2.36-1.9702.2699-1.79.6001-1.8599,2.74-3.27,4.79-4.6602.42-6.9199-6.7-10.5498-.0699-7.4004-2.2001-16.96,14.46-17.5801,7.08-.3403-4.1499-3.5303-4.6699-3.7603-6.34l-1.48-11.0599c-.3501-2.6401-3.98-4.28-2.1499-7.53,2.23-3.9401.48-7.1001-3.1699-9.46-1.1304-2.6501,1.3999-6.1702-2.1304-8.29-2.2598,5.58-2.0098,10.4299-2.5796,15.33-2.8203.4701-3.0303-1.7001-4.9399-3.01,1.4697,5.63-3.0103,10.63-6.8804,13.64-8.6196,6.7,2.6401,10.73-2.6899,16.54-1.8398-3.51-.6602-7.1201-3.04-7.1901-2.0898-.0599-3.5898-1.5599-4.5698-.7999-4.04,3.84-7.0801,4.85-13.6899,4.26,2.2002-5.6901,6.9102-6.3401,12.1499-7.5-1.0898-2.0801,1.2202-6.49-.0103-8.23-3.3896-4.8101-8.8799-2.7201-14.7695-.6301,1.4697-4.79,1.2695-8.71-1.8804-12.6699-7.4399-9.3701,3.3403-13.45-8.5796-13.95.1499-2.2001,2.3096-3.02,3.3198-5.3101,4.1597-9.3401-13.48,1.11-14.52-3.6799,10.02-6.77-.23-15.4601.4297-30.3201-.8096.02-1.6895-.1101-2.4297-.37,1.4297-3.33,1.1201-6.38-3.0601-10.79-2.2798,3.7101-1.9199,7.2999-2.7998,11.03,5.8398,3.17.4897,13.4401-4.6001,15.25-1.4399,11.47-8.4399,24.9401-5.02,36.0299,2.7998.5801,2.6699,2.3201.3501,3.3901-2.5601-1.99-5.25-3.4301-7.5801-3.0601-2.46,4.95,1.3999,8.48,1.1899,12.0701-.46,7.99-9.3701-4.1401-13.3701,1.1699-.6997.9199-.3301,2.45,1.0698,3.29-.0498.6899-.0396,1.3799.04,2.0601-3.7397,3.0199,2.8501,4.21,3.1104,14.6499.0801,3.21-2.1401,6.5-.4902,10.99-3.79.8601-4.9497-1.4199-8.6499-2.1799-2.52,3.72-.3701,6.9299,2.79,10.45-5.0801,2.5801-10.6602.97-7.5898,8.8101,2.3398.1899,3.4097-1.91,5.46-2.6401-1.6602,1.6001-1.3501,3.5601-2.7603,5.3401l-6,7.5601c-1.21.3599-3.3101-.6602-4.23-.5-1.0298.1799-11.1499,15.4399-9.7798,12.45-3.8901,7.71-10.5503,13.29-18.48,9.5601-4.1099-1.9301-7.6304-4.78-7.23-10.3101.29-3.97,3.9199-7.8401,4.0098-11.99-2.5498-5.6001-5.2197,7.6799-11.6001,1.9099,1.3999-4.7899,5.75-7.2899,6.3101-12.27-1.0498-1.72-2.8599-3.0898-2.9399-6.1499l-4.2998,5.22c-2.5903-1.7-4.3901-2.5701-4.54-4.25-.21-2.55-1.3501-5.54,1.4302-6.79,9.1997-4.9199-.25-6.46-5.0103-7.04,2.0698-4.98,1.8901-11.3799-3.6899-14.47-.71-1.6399,2.1001-13.51-3.6499-11.0999-1.6201.6899-2.2002,12-4.8301,17.0199-6.1201,3.9501-6.1401,9.29-5.6001,15.8199.4199,5.1401-2.9902,10.0901-1,16.05.4102,1.91-4.9902,1.75-5.6499,2.95-2.3804,4.3301.96,8.5701,4.2197,13.4701-6.5898,2.86-15.73-2.42-18.1396.25-2.4204,5.6901,2.5396,9-6.9302,9.0599,1.4697,1.91,3.6602,3.3601,8.25,4.92-7.1001,3.02-7.2402,2.5299-4.71,10.97-1.4102,1.41-3.21,1.4601-5.4502,2.9901.3101,2.4399,2.21,2.8499,3.5801,4.7599-3.3799,1.7301-3.3101,4.9601-5.2197,7.8-1.9702,2.91-18.3701,3.6-17.4902,3.05l-12.7598,7.94c-2.0903,1.3-5.3901.36-5.6201,3.68-.9199,11.13-12.5303-2.86-6.6401-8.66-.2998-2.04-3.2598-1.0099-5.7397-2.33,2.0298-1.47,5.4497-3.2499,3.8999-6.6-5.1699-11.1399,2.6499-12.08-6.5-20.1699-3.8901-3.4401.7397-13.25,1.0498-16.2001-.6802-.26-1.3696-.5-2.1099-.3099-.52-3.02.3301-5.96-.52-9.28-2.27-1.4399-4.6899-.17-7.4399-1.1001,3.4897-8.6199.5698-17.0898-4.3501-23.6099-8.3501,2.8899-11.5698-.4601-9.77,3.96,1.6802,4.11-3.9102,10.24-4.77,10.1699-12.9702-1.0399.6201.8501-12.8101.3701-1.0698,10.1699-9.79,4.72-15.1396,4.6799-3.2202,2.25-2.9702,5.88-1.8501,8.21,3.7197,7.75,8.75,1.8201,10.2998,8.0701.8799,3.53-6.6802,4.26-2.5498,10.71,5.8999,9.21,15.25,6.13,12.3198,10.87-1.7598,2.86-9.3701-.88-17.23,5.84-3.2202-2.4099-5.27-6.7999-8.7202-6.6299-5.8599.3599-5.04,7.4299-6.9297,11.08-5.9902,11.91-3.4302,14.66-11.1201,10.87-1.8799,2.55-1.6797,7.18-3.6001,9.16-6.7998,1.85-4.73-7.39-8.6597-8.73-12.2603-4.19-4.9404-14.93-8.1802-17.04-4.73,1.2799-5.1299.72-7.8599-4.4401,1.8999-.27,5.02-.3899,5.8799-1.97-3.5703-6.79-4.4399-1.1799-8.5-4.4299,2.8501-5.24-.6699-5.72-4.9399-7.3201,1.27-2.25,3.46-.34,5.6099-2.5801-12.4199-7.0499.7598-23.0898-9.7598-24.5999,2.6597-3.16,1.1299-5.25-.46-7.9301-.4404-2.51,1.2295-4.9.3198-7.27-3.4702,1.01-6.6099-.48-9.52-.97-5.46,14.3099-5.1401,2.26-5.5601,17.0599-1.2603,1.1801-3.6401.3801-6.0801,1.73,1.9199,2.8701,4.2002,4.9601,4.8804,8.01-5.9502-.5399-17.9604-4.34-14.6802,7.7101-1.3301,12.13,4.7798,14.6-1.5503,13.89-2.4199-.6301-3.3696.99-2.5498,3.53,1.8101,3.6799,1.7402,4.6599-3.25,5.0499,1.27,15.85,5.5801,7.4601,5.0898,19.33-.0898,2.22,3.6401,1.84,5.1201,2.54,3.52,1.64,2.1001,5.14.75,6.47-4.9199,5.54-15.1699-12.7401-21.8501,5.5099-1.9697-2.08-8.4297-15.23-11.6099-10.1,0,.01-3.2598,11.41-3.2598,11.41-2.75.46-3.1001-2.82-5.1304-4.38l-4.4199,18.09c-.6201,2.55-2.9199,3.65-5.1299,5.58-1.8403,1.6-4.2202-1.04-4.6401-2.41-1.2002-3.92,7.2603-5.12,5.1802-9.79-1.6401-3.67-4.8003-1.26-9.4502-6.84-2.8501-3.42-5.5-6.09-9.46-8.2401,2.3198.73,4.8501-9.32,6.46-12.9599-4.98-1-9.3198-2.4701-13.7197-2.6901,2.0898-1.91,4.1001-3.6901,4.8101-6.29.5298-1.95-3.7002-2.9401-3.7002-4.4401-.0303-17.23-6.5098-16.24-7.04-16.8799-3.75-4.52.5698-13.53-2.23-14.8-5.6802-2.5701,1.6401-1.01-5.2202,12.71-.7397,1.47,1.1504,5-.7598,6.05-1.77.98-10.25,10.4399-10.25,8.76l-.1201,5.02c-.0298,1.2-6.1001,11.73-6.3599,12.86-.3901,1.7001-5.04.5699-4.9702-.85.1699-4.25-.3701-9.0601-3.8496-13.01-.9902,5.8999-2.04,10.23-8.1304,11.8999.9204,11.7701-2.9399,3.9601-3.6001,15.3501-2.4697.86-4.0796.95-5.3896,2.56,3.3198,2.4,6.04,4.79,9.73,5.5,2.5098-1.29,2.1401,1.17-.7002,1.2-1.8599,2.0699-4.1196,3.56-7.0898,4.3-.4399,3.22,4.1699,3.15,5.0098,5.06,2.2104,5.01-3.0796,9.72-8.2197,10l-3.3599,6.42-7.7402,7.98c-2.7402.45-15.1401,2.7401-17.6699,2.77-3.0703-7.95-10.77-.85-16.6299-5.25-2.0903-1.56-6.21-18.36-6.7803-19.67-4.9502-11.29,2.4399-10.41-3.75-15.51-3.8501-3.18-7.71,3.94-15.3398-7.94-2.8901-.82-5.3799,1.37-8.1401-2.56,4.1699-1.39,7.4399-3.02,8.1899-7.5699.48-2.8601-1.21-4.3801-3.1699-4.22-2.7197,1.4399-3.8301,6.25-8.23,2.9199-1.23-9.4399-2.8799-16.15-14.4199-16.15-3.5601-1.0599,6.3599-7.66,3.8198-13.9401-6.96.03-10.0498-4.5499-14.1099-8.7799-2.3301-1.7101-8.3701-.5-9.1602-3.87-.6597-2.8.8101-7.12-2.8999-7.5-12.5898-1.26,9.5898-11.99,9.8999-27.8501-3.8198-.4199-6.6899-1.3099-8.79-4.1299-1.7896.5599-2.7197,1.78-5.1597,1.1399.04-3.0898,6.9497-20.25,3.5801-22.2999-5.71-2.92.0698.49-8.1304-5-4.8296-3.88,9.4902-23.12-8.2998-15.15-3.7402-2.6899-.4102-10.8-7.2798-7.99-.5205-1.9399,2.5195-10.49-2.5801-9.55-7.4502.9301-6.7002,22.8401-12.4902,27.4601l5.6201,6.63c-3.1802-.3301-4.77-2.6101-8.29-1.4301.3701,10.64,3.5801,9.9401-4.0898,15.54l8.4697,12.58c-2.3999,3.03-6.98.71-9.5801,1.73-1.3799,14.47-7.4399,6.4401-2.54,18.03-2.3096,2.38-4.96-.5701-7.8899-.83,1.2302,13.99,7.8201,14.0199,5.1799,17.24-3.5798,4.38-8.46-4.3099-12.4697-3.4601.47,8.0801,5.3499,13.7001,11.21,17.98-2.78.3601-4.1101,1.9901-6.1602,2.52-2.75.6301-5.8999-2.49-8.22-.0299-3.4399,6.36-2.8,1.96-7.4299,2.7599l1.5,10.8901c-13.72,1.23-2.8601-5.5701-26.23-6.6801-1.53-5.7001-8.5901-18.72-17.26-16.74-1.21-2.64,1.3499-4.26,3.4099-6.5399-21.26-3.6802,11.9102-28.3,2.52-33.1802-3.23-1.6799-12.47,6.7301-17.97,5.4401-8.98-2.12,8.1001-14.83,6.54-18.62-6.23-3-12.02.0801-16.6501,5.3601-3.8999,1.9299-1.9399-15.4401-5.0498-20.9302l-8.8401-1.7599c-1.5801-16.9901,2.8801-15.77-1.45-23.77-1.3901-2.5599-.8101-6.5499-3.97-7.7201-1.1602,2.03-1.23,3.8301-2.1902,3.6401-2.0898-5.21-1.25-8.5601-4.0898-12.27-4.1101,2.85-2.29,6.62-2.1899,9.77-9.77,8.7,2.96-.3301-8.9102,10.2999-4.77,4.27,3.9199,9.61,3.4399,13.27-.3599,4.28-5.5698,1.5699-8.0999,1.7201.54,8.0399-7.27,6.23-3.1001,10.2899.8.77-1.6399,1.6-2.6499,1.2001-.78-.3201-.8101-1.7201-1.6899-2.8901-2.0801-2.75-6.74-2.71-8.1602-5.78-2.21-4.74,6.8601-10,6.6602-19.1899-.0901-4.1699-5.9202-5.3-7.3401-8.61-1.4399-3.36-.74-8.0699-3.53-9.97-.5901-.39-3.29.2899-2.45-1.41,1.4399-2.9099-.0801-4.54-2.4299-5.4399-4.8401-1.8301-.49,7.46-8.28,11.6699-7.6401,4.1201.3198,14.96-.26,16.25-.95,2.0901-7.1101-.72-9.1702,4.39-.7898,1.9501-1.3098,4.78,1.3901,5.0599,1.95.2001,4.1001-.9099,4.29,1.7001-4.29.54-7.24-.76-10.97,1.9401,9.1199,15.78-9.25,12.27-11.1702,18.3199-1.0798,2.9401,4.1101,3.4601,4.73,4.9301,1.6702,4.01,3.79,4.77,8.3501,6.79-5.74,5.2799-19.1001,13.1299-21.74,20.7899-1.22,4.35-3.5801,4.13-6.3899,6.26-2.25,1.71.1599,10.0699-5.5,10.85-4.3801.6001-6.8901-5.9099-7.6201-9.4199-1.6401-7.9102-8.45-10.1901-13.76-14.3101-1.46-1.13-.49-4.3201-3.01-4.22,0,.24-12.5701,9.58-15.0801,9.29l-9.6399-1.0901c-2.73.4-4.6599-.77-3.1699-3.1899,8.23-5.9501-.3101-8.9501-1.1101-13.76.24-1.0701,1.3501-3.05,2.8901-4,9.5698-5.9,7.5898-16.49,5.4299-16.97-5.1001-1.1301-24.9001,8.25-21.7-.1301,1.02-2.6499,3.7598-4.0999,3.8899-8.1299.1001-3.1901,4.7-2.17,7.4299-1.8401.03-2.29-2.1199-1.95-2.98-3.5,2.79-3.33.4502-8.02,2.1602-11.09,1.3799-2.4601,5.2-3.53,3.96-7.2999-13.3801-.1801-18.0601-1.6801-29.9502-2.6001-1.3799-1.35,5.0303-8.1599,4.8101-15.34-.1099-3.54-4.7-4.1801-7.27-6.39,8.0901-5.38,6.01-10.9,11.53-17.54-4.8499.8701-8.78-.05-11.0798-3.6899,1.6799-2.0801,2.95-4.6899,3.3298-7.5901,1.51-1.71,2.3401-3.1799.8901-4.6399-2.6201,1.4099-13.1101,4.45-17.1501,5.77-2.4199-.5901-4.72-3.42-4.0898-5.74.8101-2.9601,4.8599-3.1301,7.04-5.01,1.45-1.24-.28-3.6501-1.2102-4.8901-3.7-4.96,4.78-7.1799,2.3801-11.22-1.8501-3.1099-14.1802.0601-14.21,3.0601-.02,3.04-2.54,3.75-3.49.8301,2.8699-6.8601,7.0999-10.9701,6.8599-14.5-9.98-1.02-3.79-5.5-1.54-10.54-6.1899,4.54-11.6899,1.2-14.99,7.72-1.0601-1.95-4.48-2.47-4.77-3.63-.71-2.9401,4.1602-2.9601,5.01-4.6901,5.53-11.3599,5.9302-19.51,8.7102-21.51-2.28-5.3499,2.9399-10.1199.73-11.78-1.3601-1.0199-4.54,3.7101-7.48,1.8201-3.05-1.96,3.8699-10.9099-1.3301-13.0701-2.75-1.1299-7.4399,1.6301-9.1401-1.5499-.9099-4.84,6.8501-11.46,1.9302-13.2999-.8-.3-1.5.22-3.49,1.5599-3.9402-.48,1.5798-15.47-4.9001-18.23-4.99-.4301-3.0801,6.92-4.8899,8.9301-11.0801,12.33.3499,9.4399-11.1101,15.4199.8401,5.7,1.0601,11.23-1.23,16.26-.3198,1.22,2.5601,2.3201,2.8999,3.0801-9.3499,2.8899-2.73,4.45-2.0598,9.49-.8801,2.8398-7.4001,4.1799-6.3401,9.2899.48,2.36,2.3501,4.5699,2.6899,7.75.29,2.7101-3.5798,3.35-4.1499,4.99-3.1401,7.27-5.77,21.9301-15.1201,15.52-6.1499-.11,3.8601,8.39-5.1599,15.7001,3.78,3.5,6.74,7.4299,4.2,10.5399-1.48,1.7999-7.1099.2001-11,3.12-1.0498-4.75-3.1399-3.61-3.4299.37.5801,11.13,10.04,17.2201,6.96,19.3-10.8499,7.33-17.4399-2.4501-13.45,7.3099l-6.98-.36c7.22,12.1,2.1599,5.8199,10.6699,16.62,1.23,1.5601-.26,5.0801,1.9102,6.52,2.2998,1.53,5.04.5701,6.6599,2.4299-2.8601,5.1301-.24,7.2001,4.4199,8.29-4.78,2.3501-13.2-4.4199-19.5398-4.8799-3.25-.2301-1.3101,7.8499-3.0701,8.73-3.77,1.8999-4.9001-7.1001-6.5801-3.8901-1.5601,3,.3899,5.6101.8401,8.05-3.0701,2.8-6.6802,5.45-7.27,10.21-.0901,2,2.45,2.92,2.96,5.27-6.8301,5.3301-20.51-23.1599-12.76-27.1699-.6899-2.53-.4001-5.04,2.0901-3.22,1.5598,2.08,6.6399,1.3899,4.2598-1.5901-7.7-4.8-8.6899,1.02-9.1799-11.1399-5.3799-1.3201-9.6499-.2201-15.6799-.6301,2.7-1.2,4.6201-12.01,3.6899-12.9399-6.2-6.29.03-9.16-6.77-9.02-1.9099,5.0601-16.23-4.0701-15.04-7.05-2.9897.28-8.0798,3.2101-6.1099-2.77,1.1201-2.7999,4.05.1702,8.53-5.6399,1.28-.3601,3.96,2.1899,5.0901.99,3.6799-3.9399,5.9399-9.37,4.3098-14.4-.9299-1.58-4.0999-1.9-4.4299-3.6801,1.04-9.75,5.5701-9.5599,5.7-15.1199-10.52,3.9299-9.1299,4.7-19.8401.5499.9702-4.6,11.9202-15.5,6.2402-21.63-5.3-5.72-13.98,5.39-16.23,3.52,1.2798-2.73,2.2397-7.8-.8601-10.05-1.1899-.85-3.8801,1.1201-4.48-.3099,1.72-3.4301,5.8201-3.58,9.0598-5.79,2.1602-1.48,1.8401-4.92.79-6.73-2.5498-4.42-8.1799-2.52-9.24-5.14-.1599-.87-1.7698-14.1799,5.1602-6.22,3.8201-.48,2.8098-2.53-1.3301-2.72,1.25-4.28-1.8401-6.3201-3.03-9.46-1.2-3.1602,1.4102-9.25-3.55-11.9302-1.99-1.0898-4.3298,1.1602-4.1699,3.77.22,3.4701,1.95,5.01,2.6101,8.04-2.26-.72-2.8301-2.73-4.6702-2.54-2.3799.25-8.6199,11.1501-8.5798,10.6602-.6501,1.96,1.6399,3.3499,2.3499,5.1599-9.8599,6.01-1.3201,8.6599-12.04,9.54-2.2,5.1299.45,10.03,3.77,15.4099-6.6299,4.0801-19.47.25-12.8599,11.5901-2.53-.9-4.55-3.0701-6.1602-1.55-1.3398,1.27-2.0798,3.62-.73,5.38,8.28,10.86,12.1401,3.16,13.28,8.2201-2.9099.8099-5.78-.4801-6.3501,1.6599.4802,2.2,2.8901,4.6599,1.3601,5.73-6.6299,4.66-13.6899-9.1899-16.5901-3.29-1.3098,2.6801.6001,7.3701-2.0798,8.3301-.3501-.97-17.29,5.77-16.71,6.84-7.9202-8.9301-1.6301-17.0699-4.8501-19.3099.3401.52-8.53-1.7001-13.3899-.74-1.9502.3899-4.3201-4.79-2.8601-6.1101,3.7-3.3099,10.54-.78,13.6699-4.1599,2.3701-2.55,2.9402-7.6901,5.3901-9.8801-3.0701-1.8999-4.55-3.9399-5.4402-7.0499-1.7798-6.2699-14.0598,4.0699-13.7898-1.36.1799-3.6799,2.6799-5.65,3.49-8.38,2.8499-9.5-11.72-7.2101-2.51-14.08-7.55-3.4301-7.04,4.52-14.6702-2.79-.4058-.3887-.8657-.7407-1.3494-1.0713-1.28-1.5052-2.7344-2.9213-3.4094-4.2214-1.3821-2.6615-2.2964-6.1246-3.4519-7.5591-2.2249-2.7617-7.8354,7.803-9.7122,8.0177-2.053.2347-1.4866,1.069-3.9324,2.2733-1.9553.9629-7.6387-4.3491-10.3313-4.3242-4.7312.0441-6.7551-2.3308-7.5647-5.3303-.6116-2.2666,2.3682-6.2607,1.2729-9.9568-.7454-2.5156-8.7346-1.9678-10.6165-5.0425-1.7571-2.8706.9629-7.5071-.3086-9.1915-1.8501-2.4514-5.0356.4336-7.7107-.5553-1.9536-.7224-2.364-8.4324-5.7715-8.9487-2.2153-.3358-6.1428,8.7839-9.271,8.3662-2.3457-.3134-4.5701-3.9788-7.5444-4.4037-3.2781-.4683-7.0635,2.0602-9.2192,1.5166-3.7859-.9547-3.082-9.7903-4.4451-11.1371-1.9644-1.9412-10.1008-2.4606-10.3855-5.7322-.1973-2.2659,7.5503-5.9329,6.551-9.0841-.7063-2.2275,3.1213-8.056,1.4531-10.8124-1.4883-2.4595-5.2466-3.9976-6.7285-5.8347-1.7983-2.23-12.5034,5.8438-14.4387,4.4177-2.1487-1.5833-1.1924-3.7446-3.7188-4.4982-2.3303-.6951-3.019-10.384-5.8508-10.5118-2.3789-.1074-5.3936.0092-8.2385.2157-2.3975.1741-4.5828,5.1423-7.3782,5.4878-2.4155.2985-5.0474.1136-7.8025.5073-3.0347.4335-5.5354-3.2455-7.8149-3.3843-3.1292-.1906-4.4761-.0243-6.4917-1.1429-2.3914-1.3271-3.3284-2.0785-4.7026-4.4446-1.2319-2.1213-5.033-3.1331-5.9021-5.8682-.7551-2.3763,2.0166-5.9758,1.2319-8.668-.7114-2.4404-5.0955-3.866-6.052-6.4585-.8855-2.3998-8.1804-1.4673-9.4492-3.9133-1.5652-3.0175,7.5657-11.5222,6.2141-13.5073-2.155-3.1654-8.5396-1.0269-10.3936-2.0925-2.7637-1.5886-3.8362-1.7634-6.7568-.4735-1.9866.8773-7.2786-3.7351-10.4868-3.7902-.2688-.7926-.4795-1.6648-.5576-2.6501-.1982-2.5017-.0938-6.3054-.9238-9.4187-.6077-2.2787-12.3696,1.1349-14.5493-1.4059-1.6934-1.9738,3.8765-11.2218,1.5669-13.2303-2.0718-1.8015-6.2351-1.4855-8.5811-3.2327-2.2817-1.6995-5.3289-2.3928-7.6743-3.968-.3728-.2502-.7849-.4335-1.2185-.5782-6.0115-5.7401-13.3557-10.3192-20.4758-13.0397l-6.01,5.8799c-1.5701,1.4-5.0798-.1099-4.6299-2.3999-.3501-1.51.8298-3,1.52-4.8,2.22-5.76-12.9001-8-18.8301-7.25-20.3401,2.5801-11.6599,7.5-19.0601,9.8-2.24.7-4.6499-1.0601-6.26-3.76,1.3301-1.79,3.21-1.0701,5.4302-3.04-2.9902-2.71-12.0103-1.3201-10.77,4.2-.6602-.99-1.21-1.09-1.5901.1301-.4099-2.3701-3.3501-1.6501-5.8201-2.8901-4.03-1.8099-9.29-4.59-12.6799-7.77-2.6301-1.6399-5.3601-1.0499-6.8801,1.6602-3.7397,6.6699-8.27,1.48-8.6599,7.0599-2.29-.2201-3.6499,1.7001-5.5601,2.4501-3.1899-6.1501-1.1799,9.5599-7.46,8.1199-1.1299-.1299-2.3401-1.23-2.98-.97.54,0-4.28,8.51-2.6399,8.51-10.3401,1.13-11.6201-13.2-9.1899-19.73.6699-1.21,2.5698-3.25,1.8599-5.38s-13.51.73-15.8799,2.67c-.8101.6499-2.6702-.29-3.4402-.67-.4299-1.2301-1.4299-2.14-2.6699-2.52-1.0801-2.65-3.26-4.84-5.8501-6.67-1.1599.6401-2.21.99-3.2,1.1001l-2.3699-5.4401c.3098-.67.73-1.33,1.3098-1.9401-.97-.1899-1.7798-.4199-2.45-.6799l-2.02-4.64c1.6902-4.38,11.7.9601,11.4402-6.0399,3.1899-4.1001-10.6902-2.8501-10.25-6.5701.52-4.45,10.46-2.89,13.6499-5.89-1.9399-1.37-2.6499-1.88-2.78-2.4401.24,0,3.5801-11.5499,7.45-10.7599,3.9302.7899,5.0801-2.63,1.46-4-2.54-.2301-4.4099-1.8-6.04-1.8099-3.5898,0,1.27-6.51-17.8999-5.8,1.6301-7.3401-9.54-4.48-12.9299-.73-2.3601,2.25-13.9299-2.4401-11.78-5.0701l2.8599-8.55c.54-1,2.05-2.27,1.6501-3.9399-.1899-3.9199.45-8.26-.8101-12.03-8.98,9.1001-2.6499-3.59-6.01-7.98-1.1899-1.5601-3.6299-3.12-6.49-1.1799-13.3098,9.0599-9.0999-1.29-22.5598-1.04-3.6902.0701-5.1602-5.5-3.1702-8.29,2.04-2.86,2.3899-7.35,5.46-8.86,14.2-6.98-.1799-10.8099,15.77-15.35-1.76-1.9299-4.51-1.67-5.51-3.23-1.8398-2.8701-1.6599-5.77-1.04-8.41,2.6001-1.4501,6.6001-1.5,8.48-3.62.9902-1.12,4.4202-2.46,5.79-2.05,2.6201-6.25.27-6.1599-4.6399-9.1499.5701-2.1401.3401-5.8601-2.75-4.51-8.75,7.3799-8.3-6.75-8.9299-12.5901-3.05,2.55-3.1501,6.23-4,10.23-.8901,4.1801-6.73,3.8201-8.3501,11.48-.77,3.6501,1.6499,10.1001-1.8799,13.6702-3.0801,3.0999-6.8,5.3298-4.6101,11.0499,2.45,6.42-10.99,1.8099-15.03,4.16l6.29,7.59-.4102,6.1901c-5.6799.5499-.6599,5.5499-15.8799,4.0299-3.8599,5.7201,12.53,3.2301,5.6602,8.62.21,0-2.4202,11.98-1.9202,12.8601-3.05-1.1602-4.0701,2.4299-3.8601,5.1699-.1499,1.0701-1.2898-.3501-3.6699-.01.1101,4,3.9199,4.8301,5.3201,7.8,1.3601,2.8699,1.77,5.54,4.77,6.53-12.6101,4.25,4,18.97-10.25,13.72-1.73,1.47-1.5601,4.6899-5.76,6.1399,2.05.77,11.2,10.5801,11.22,13.66l.03,4.2401h-5.6602v3.1699l-3.3198.05c-2.5601.03-4.3401-2.05-6.28-2.0601,0,34.63-.01,662.55-.01,716.14v135.86h2912v-970c-3.21,1.5601-1.71-8.8301-2-8ZM2105.9199,1088.53c-2.2397-1.8701-2.8999-3.41-5.3701.48-3.8496,1.48-10.6099-5.8301-2.6499-4.8201,2.6499-.08,5.7402.17,6.23-1.77,2.4399.78,4.5898,4.8801,1.79,6.1101ZM2163.3398,1167.75c.6699-1.0901,1.52-2.29,2.6201-3.63,1.4502.12,5.4902-.5299,6.6099.51,0,0-3.3101,1.12-9.23,3.12ZM2232.54,1092.95c-1.9102-.1399-3.4302-2.8099-2.23-4.1699,2.1699-.9399,4.4897-1.41,6.6802-.45l-4.4502,4.6199ZM2317.79,1027.6699c.04-.0199.0698-.0299.1099-.0399.77.4501,1.4902.9,2.1602,1.34-.7603-.4299-1.52-.87-2.27-1.3ZM2379.1602,989.89c.9297-1.7101,1.9097-2.0499,2.5698-1.17l-2.5698,1.17ZM2636.3301,945.0801l-.0303-.03c.0303-.02.0601-.03.0801-.05l-.0498.0801ZM2647.7803,929.1599c-4.3901-1.0399-9.8501.3601-11.9702-2.3198,7.8799-4.5701,7.73,2.7899,14.1499-6.8,1.3999.47,2.5801.8199,3.6099,1.08l-5.7896,8.0399ZM2785.6802,818.28c3.5298-.04,5.0098,2.99,5.0396,6.36l-5.0396-6.36ZM2800.5898,837.11l-7.7798-9.83c6.4702-.65,14.4097,4.5601,7.7798,9.83ZM2862.8301,816.03c-2.5703-3.5701.6602-5.8601,4.5-2.25,1.7002,2.3101-1.2002,2.55-4.5,2.25Z" style="fill:#24453a;"/><path d="M560.9157,556.9177c1.7752-1.2515,3.3738-1.8401,5.4983-2.5175-4.4225-9.8049-23.3348-12.1249-31.7758-10.4987l-22.6,4.354c12.6231-4.488,25.4763-7.5904,38.6883-10.3435,10.0251-2.089,16.2835,3.3704,23.797,9.0449,1.8213,1.3755,4.0029,2.3808,6.1965,1.9054,2.5857-9.2261,8.441-17.2747,17.251-21.0654,7.6475-3.2906,14.6957-6.6084,21.6553-11.2168-1.4875,3.7269-4.2815,6.4991-7.536,8.5483-6.9422,4.3711-13.1287,9.506-17.4811,16.6337-1.2756,2.089-2.4384,5.3942-1.532,7.3181,7.9778,3.0902,2.3628,3.6669,10.1015,9.0858-5.4014.3645-2.6311-3.4473-10.0111.7887-6.2864,3.6083-14.709,4.1402-21.2963.8299-3.6209-1.8196-6.3204-2.5029-10.9554-2.8667Z"/></svg>