<?xml version="1.0" encoding="UTF-8"?><svg id="a" xmlns="http://www.w3.org/2000/svg" viewBox="0 0 2912 1632"><path d="M560.92,556.92c1.78-1.25,3.37-1.84,5.5-2.52-4.42-9.8-23.33-12.12-31.78-10.5l-22.6,4.35c12.62-4.49,25.48-7.59,38.69-10.34,10.03-2.09,16.28,3.37,23.8,9.04,1.82,1.38,4,2.38,6.2,1.91,2.59-9.23,8.44-17.27,17.25-21.07,7.65-3.29,14.7-6.61,21.66-11.22-1.49,3.73-4.28,6.5-7.54,8.55-6.94,4.37-13.13,9.51-17.48,16.63-1.28,2.09-2.44,5.39-1.53,7.32,7.98,3.09,2.36,3.67,10.1,9.09-5.4.36-2.63-3.45-10.01.79-6.29,3.61-14.71,4.14-21.3.83-3.62-1.82-6.32-2.5-10.96-2.87Z"/></svg>