<?xml version="1.0" encoding="UTF-8"?>
<svg id="Layer_1" xmlns="http://www.w3.org/2000/svg" version="1.1" viewBox="0 0 3645.5 1632">
  <!-- Generator: Adobe Illustrator 30.2.1, SVG Export Plug-In . SVG Version: 2.1.1 Build 1)  -->
  <defs>
    <style>
      .st0 {
        fill: #688d6f;
      }

      .st1 {
        fill: #517863;
      }

      .st2 {
        fill: #122521;
      }
    </style>
  </defs>
  <path class="st0" d="M3278.7,662c-3.2,1.6-1.7-8.8-2-8h2v8Z"/>
  <path class="st1" d="M3260.9,692c-1.6-.3-2.1-1.5-.3-2l.3,2Z"/>
  <g>
    <path class="st2" d="M2904.8,1031c0,0-.1,0-.2.1,0,0,.1,0,.2-.1Z"/>
    <path class="st2" d="M1375.3,1418c0,0,.1,0,.2,0,0,0-.1,0-.2,0Z"/>
    <path class="st2" d="M2484,1260.7s0,0,0,.1c.1,0,0-.1,0-.1Z"/>
    <path class="st2" d="M3783.3,1084.3c-2.6-2.6,1.3-7.5-1.6-10-3-2.6-4.7-.6-7.7-3.2-3-2.6-4.9-.4-7.9-3-3-2.6.3-6.5-2.7-9.1-3-2.6-10.3,6.1-13.3,3.5-3-2.6-1.7-4.1-4.7-6.7-3-2.6,2.1-8.7-.9-11.3s-11.3,7.3-14.4,4.8c-3-2.6-2.9-2.7-6-5.2-3-2.5,4-10.9,1-13.5-3-2.6-2.9-2.7-6-5.3-3-2.6-4.2-1.2-7.2-3.7-3-2.6-1.3-4.6-4.4-7.1-3-2.6-5-.2-8-2.8-3-2.6,1.4-7.8-1.7-10.3-3-2.6-11.5,7.6-14.6,5-3-2.6-4.1-1.3-7.1-3.9-3-2.6,3.4-10.3.4-12.8-3-2.6-6,1-9.1-1.5-3-2.6,2.5-9.2-.5-11.7-3-2.6-7.5,2.8-10.5.2-3-2.6-4.7-.5-7.8-3.1-3-2.6,2-8.5-1.1-11.1-3-2.6-3.6-1.8-6.7-4.4-3-2.5-.9-5.1-4-7.6-3-2.6-5.4.3-8.4-2.3-3-2.6-2.2-3.6-5.2-6.2-3-2.5-7.6,2.8-10.6.3-3-2.5.4-6.6-2.7-9.1-3-2.6-8.1,3.5-11.2,1-3-2.5-4.6-.7-7.6-3.3-3-2.5-3-2.6-6-5.1-3-2.5,2.3-8.9-.7-11.5-3-2.5-9.1,4.6-12.1,2.1-3-2.6,4.8-11.9,1.8-14.5-3-2.6-2.5-3.2-5.5-5.8-3-2.6-4.8-.5-7.8-3-3-2.6-9.1,4.7-12.1,2.1-3-2.6-2.6-3.1-5.6-5.7-3-2.6-1.7-4.1-4.7-6.7-3-2.6-5.6.6-8.7-2-3-2.6,5.1-12.2,2-14.8-3-2.6-10.7,6.5-13.7,4-3-2.6-.6-5.5-3.6-8-3-2.6-6.5,1.6-9.6-.9-3-2.6,1.5-7.9-1.6-10.5-3-2.6,1.2-7.6-1.8-10.2-3-2.6-10.5,6.3-13.5,3.8-3-2.6,4.4-11.5,1.4-14-3-2.5-2.4-3.3-5.4-5.8-3-2.6-8.5,4-11.6,1.4-3-2.6-.5-5.6-3.5-8.2-3-2.6-4.1-1.3-7.2-3.8-3-2.5-2.2-3.6-5.2-6.1-3-2.5-8.8,4.4-11.9,1.8-3-2.5,3.3-10,.2-12.6-3-2.6-8.4,3.8-11.4,1.3-3-2.6.4-17.9-3.5-17.2-3.9.8,1.2,11.7-.6,15.2-1.9,3.5-1.3,3.8-3.2,7.4-1.9,3.5-5.9,1.4-7.7,5-1.9,3.5-1.1,3.9-3,7.5-1.9,3.5,1.6,5.4-.3,8.9-1.9,3.5-2.1,3.4-4,6.9-1.9,3.5-8.1.3-9.9,3.8-1.9,3.5,2.4,5.8.5,9.3-1.9,3.5,1,5.1-.8,8.6-1.9,3.5-8.6,0-10.4,3.6-1.9,3.5.6,4.8-1.2,8.4-1.9,3.5-1,4-2.9,7.5-1.9,3.5-.8,4.1-2.7,7.6-1.9,3.5,4.4,6.8,2.6,10.4-1.9,3.5-7.3.7-9.2,4.2-1.9,3.5,3.3,6.2,1.4,9.8-1.9,3.5-3.9,2.4-5.8,6-1.9,3.5,1,5-.9,8.6-1.9,3.5-3,2.9-4.9,6.5-1.9,3.5-8.4.1-10.2,3.7-1.9,3.5-9-.2-10.9,3.3-1.9,3.5,10.4,10,8.5,13.5-1.9,3.5-9.1-.3-11,3.3-1.9,3.5-.3,4.4-2.1,7.9-1.9,3.5-1.5,3.7-3.3,7.3-1.9,3.5,2.9,6,1,9.6-1.9,3.5-8.9-.2-10.8,3.4-1.9,3.5,1.4,5.2-.5,8.8-1.9,3.5-2.7,3.1-4.6,6.6-1.9,3.5-7.9.4-9.7,3.9-1.9,3.5-.2,4.4-2.1,7.9-1.9,3.5-.6,4.2-2.4,7.8-1.9,3.5,9.2,9.3,7.3,12.9-1.9,3.5-3.7,2.5-5.6,6.1-1.9,3.5-11.3-1.4-13.2,2.1-1.9,3.5,6.8,8.1,4.9,11.6-1.9,3.5-4.5,2.1-6.4,5.7-1.9,3.5-11.3-1.4-13.1,2.1-1.9,3.5,11.9,10.8,10.1,14.3-1.9,3.5-12.6-2.1-14.5,1.4-1.4,2.7,3.6,6.2,5.3,9.2-9.8.1-15.6.3-16.1.7-7.3,4.9-5.9,0-17.2,7.2-8-10.8-21.6,1.6-27.8-12.8,6.3-1.7,9.6-4.8,11.3-10.6,14.9-4.7,11.9,1.2,27.1.5.4-4.2.3-9,5.8-10.4-5.9-7-11.1-7.7.4-12.6l-13-1.3c-1.6-7.7-9.2-5.5-.9-13.5-6.1-5.4-14.9,4.4-21.1,9.5-4.2,3.4-6.9-9.8-17.7-.3-2.8,2.5-7-.4-10.1-.5-10-.3-13.9,5.9-12.2,4.8-5.7,3.8.7-8.2-3-11.7,9.4-4.5,4.3-7.6,15.7-4.2.2-3.6-1-8,1.6-10.3,2.9-1.8,10.6-2.7,12.9.7,1.7,3.3,2.1,9.4,7.9,7.8,2.2-.6,3.4-4.9,7.3-4.7-6.3-10,.9-4.4,2.4-11.1-1.9-6.9-10.8-8.9-16.9-7-9,2.8-12-10-11.9-10.1,2.3-3.5,4.5-7.6,1.2-11.7-2.7-.7-5.3,2.5-8,2.2-11.4-1.4-8.8-8-16-19.5-3.6-5.6-13.3,3.3-13.8-2.8-.2-2.9,6.5-1.4,5.5-7.6-13.7-11.8,25.5-11.1-7.6-21.5-4.8-2.6,6.7-10.1,3.3-11.4-12.4,3.5-2-3.1-14.4-8.4,3.1-3,6.9-2.5,9.4-5.3,6.1-7.2,9.5,4.6,15-2.6,3.1-4.1-1-7.2-.2-10.4.7-2.7,5.2,2.5,6.6-.8.3-.7-1.8-24.3-16.5-21.6-.8-2.4,1.4-5-.8-7.8-3.8,1.6-5.4,3.8-7,5.4-6.8-5.7,4.5-20.4-5.6-24.1,14.1-2.1,14.9-15.2-1.1-13.2-.6-3.3,0-7.7-3.4-8.9-7-2.5-9.4,7-12.3,8.3.4-6-2.6-8-6.2-6.6-5.2,2-1.6,8.7-6,9.7-10.2-.1-.5-15.1,1.1-21.1,7.3-1.1,10.8-7.6,9.7-13.5-5.7-.3-11.5.2-17.8,2.4.7,9.2-5.3,8.2-4,.2,3-11.3-6.5-2.6-4.5-19.2-11,1.4,4.5,16.7-12.3,22.3-7.9,6.9-6.9-2.9-12.3-4.7-3.3.3-3.8,4-1.9,6.6-12-2-.1,4.6-11.5.5-7.3-2.6-.8,8.4-8.9,13.7,3.6,4.9,9.4,7.3,14.9,8-4.7,5.5,11.6,7.6.2,7.5-3.2-2.5-5.8-5.3-9.6-5.3-9.5,0-4.6,9.1-8.2,11.4-2.4,1.6-12.4.1-11.9,4.6,2.1,3.2,6.4,1.9,9,3.2-2.5,8.6,6.8,3.3,10.7,3,5.6,4.8,4.8,8.7,13.8,8.5.4-3.7-1.3-7-5.7-8.8.3-2,1.7-2.6,3.9-1.6,3.2-2.1,7.7-3.8,10.7-.7,1.2,6.5-12.6,2.3-6.8,14.7-3.3-4.2-11.3-1-15-.2,0,1.5.6,3.1-.4,4.4,2-.9,2.2,2,4.6,3.8,3.2,1.1,2.8,1.9-.6.9-4.4,2.7-7,1.7-9.8,1.3.5,1.4.8,2.8,0,4.1,3.6,1.4,5.5,5.3,8.2,8.2-.2,1.8-.8,2.3-2.2,1.3-5.8-1.8-9.4-3.3-14.3-3.7,1.2,2.9-6.2,2.6-4.5-.1-3.2.3-7.1,1.9-10.2.3,1.2,1.6.2,5.2-2.4,4.3-3,12.7,8,6.9,8.9,18.4-1.5,10.7-9.4,3.3-14.5,6.8-2.3,2.5-3.4,5.6-6.7,7.7.9,2.6,3.7,3.1,3.3,6.1-8.8-8.2-1.9-.7-16.1-5.5-5.2,8.6-7,2.8-14.1,6.8,3.5,4.4,16.3-2.4,18,9.5-6.3,3-12.2,5.3-17.5,8.8,8,6.7-.4,5-2.3,9.1,4.6-1.2,9.6,2.8,14.1,1.6,6.5-2.4,13-3.2,20.2-1.7,1.6,6.5-6.5,4.4,3.9,12-5.7,5.6-11.6,10.8-19,13.3-2.2.8-5-2.3-6.5.5-5.5,4.1.7,5.2,1.5,9.3-8,16.2-10.3,5.1-19.9,4.4.4,4.1,1.7,6.5,1.2,10-4.8.2-8.3-1.7-13.2-2.6-.7,2.3.8,4.2.5,6.8-7.7,1.8-3.4,4,.5,5.9,3.2,1.8-3.8,7.8,6.4,14.5-5.6,2.2-14.8-5.4-21.4.8-1.7,1.7,5.1,9.4,5,10.1-.4,1.7-15.9,1.3-12.5,10.3,1.2,3.2,6.6,4,9,5-1.4-3.2,12.5-3.9,14.8-4.2,7.4,18.3,15-2.1,35.7,7.1-1.7,3.8-6.8,5-6,8.3,5.7,11.8-8.8,16.2-17.6,12.7-4.2,7.9-4.8,1-10.5,1.9-15.2,6-6.1,4.6-13,12.7-6.8,1.3-23.4,1.8-15.4,12.6-19.7,4.1-8.1,3.1-18.2.8-3.7-.9-23.9-3.4-25-7.4-2.2-8,5-9.8,3-14.1.7-4.4-15.3,7.3-15.4,7.5,3.5-8.2-4-13.5-10.1-15.8-.7-3-2.2-3.1-3-.4-1.1,7.3-8.3.6-5.4-1.3,8.7,1-.5-9.8,6.7-5.1,2.7,1.9,7.8,4.5,8.7,1.2,0-3.2-1.7-4.7,2.2-4.7-1-2.5-1.8-6.3,2.6-6.1,4.1.6,5.4-2.6,8.2-3.6,2.5-.9,5.3-.5,5.4-3.4.2-5-11.7-4.6-14-6.5-3.5-10.5-11.8-4.9-10.7-11.5.6-3.4,12.5-4.8,11.1-4,3.4-1.7,4.8-6.9,5.6-10.5-14.2-7.4-7.4-1.6-19.1-2.9,1.5-2.8,5-3.3,5.4-6.4-3.6,2.6-12.8-11.2-10.6-16,1-2.2.6-5-.8-6.9-3.4,3.6-5.2,6.7-7.6,9.7-1.8-9.3-10.2-.2-16.9-4.1-9.5,4.7-19.4-6.2-29.9,0,5.8-12.8,2.7.3-9.8-10.9-2.6-2.4-5.5-3.4-4.4-8.8-2.8.6-3.3,2.3-5.3,3.1-1.5-6.1-5.7-5.1-4.2-1,.4.5,2,1.2.8,3.7-2.4,0-2.6-2.9-4.9-3.5,1,4.9-7.7,17-10.2,16.3-5.2-1.5-10-3.8-15.3-1.6-2,7.9-7.9,1.5-17.1,8.5-.2.1-14.3-1.8-11.4-9.6-.5-2.4-1.9-2.6-3.2-.3,2.1,1.2-.6,16.3.2,16.8-1.8,1.4-10.3,8.8-10.7,8.2l4.1,11.7c-5.2.8-9.5,1.2-13.8,5.4,8.1,10.9,6.4,9.8,14.7,16.1-9.4-.8-17.6,3.1-20.2,11.3,7.7,1.3,24.8-.7,28.8-3.8,3,.3,5.2,1.6,2.2,2.4-5.4,5.6-16.9,7.3-13.1,14.8-8.9-.6-7.9.2-13-6.7-5.5,5-6.2,9.2-13.4,2.5,2.3-2.9.5-5.6.6-8,8.8-11-6.4-9.5-11-18.9-6-2.9-6.1-7.8-16.5-13.9-16.9,7.1-12.4-7.8-20.7-5.2-3.9,1.2,3.2,6,.9,11.1-4.2,6.7-10.5-2.6-13.1,9.9-1,2.5-3.6,4.1-3,6.6-6.9-7.5-3.6,2.6-8.4,4.2-.3,17.4,7,6.4,13.3,23.4,1.9,1.8.2,3.1-1.7.9-19.4,3.9.1-7.2-25.3-12.5,1.4,1.9-1.2,5.2-.3,7.2.8,1.8,2.9,4.5-.2,5.7-14.7,10.8-3.3,9.7-29.2,9.8-1.9,5,4,3.9,7.7,3.8,10.9,15.6,12.8,7.3,20.1,11.3,9.1-2.4,21.1,9.1,29.9,14.2l3.9-5.8c5.2.3,9.7-.2,14.2.9l-.5,13.1c1,2.1,4.1,2.3,5.8,4l-1.1,21.8c-1.8,3-5.7,3.8-6.4,7.7,4.1-.7,5.5-4.2,6.4,2.2v69.3c-14.2.6-27-2.6-40.5-4.5-18.3-2.7-28.8,5.3-44.2,3.6-15.7-15.9-23-7.4-25-9-11.9-12.3-10.9-7-18.3,2.8,0-5.7-.6-9.4-2-14.4,0-4.6,7.9-8.4,5.6-12.3-1.3-2.2-9.3,2.8-9.9-.7,3.6-3,8.8-5.9,7.3-10.4-5-6.9-.3-6.7-3.2-11.5-1.7-1.9-6.2.2-7.2-2-1.3-8.1,4-9.3-6.9-8.8-8.7,10.6-2,13-7.7,13.6,0,1.8.6,3.5,1,5.9-1.8,1.1-19,2.4-10.5,4.4.7,4.8,3.6,8.4,6.5,12.7,0,11.5-4.7,12.6-15,10.4,7.6,13.8-4.9,6.7,8.6,19.1.3.8-12.8,9-16.4,4.5-1.7,5,.8,10-1.2,14.4-2.9,4.7-8,8-1,12.2-7.1,2.2-8.7,8.2-12.9-.5-1,.9-13.1,6.5-10.8,6.3-4.5.6-2.2-6.2-14.7.4,1,19.6-9.2,16.3.3,28.3-6.7-3.1-9.3,1.5-13.8-5.5-1.2-1.8-3.1-2.9-4.7-1.7-3.1,2.2.6,7.9.4,11.1-14.2,1.3-4.2-.4-15.7,6.1.8,7.9-5,12.8-10.8,17.6-13.1,11.8-8.3,4.9-24.6,6.3-3.5,0-5.8,4.6-10.9,2.5-10.1-4.1-16.1,15.9-20.6,19.2l-16.1,11.7c-3.1,2.3-4.4,5.6-9.2,5-6.3-.7-8.2,11.1-19,13-.8,1.6-.8,4.4-2.1,5.5-34.4,15.5-10.4,23.3-56.6,12.8-31.5-5.9-9.6-13-22.5-19.4-8.8-2.4-14.7-3.6-13.8-8.7.7-2,8-6.1,2-9.1-6,1.2-4.1-5.2-.6-6.1-.5-2.2,1.8-4.9.4-7.5-2.4-4.3-2.5-7.9-8.4-6.7l-4.7,8.3c-1.5-5.5.1-10.1,3.3-12.4l1-10.3c-17.2-6.3-10.3,8.2-22.4-.2-1.1,4.1-5.4,15.9-7.5,19.7-1.1,2-4.9,3-4.7,6,1.9,7.4,1.8,13.6-7.8,13.7,2,5.5,12.5,1.8,8.1,10.8-3-1.1-6.5-1.9-10-.3-7.1,3.3-1.4,9.5-4.3,10.6-2.3.9-5.2-6.1-12.4-2-1.9,1.1-3.9,1.5-5.5-.4-8.5-9-12.2,3.9-20.4,4.8-5.2,1.3-6,15.4-14,17.6-7.6.5-8.1-8.4-17.4-5.2.2,11.8-29.5,6.4-36.3,8.3-3.7-10.3-7.5,2.4-17.6-5.9-4-3.2-9.4-.6-12.6,3.4-3.2-2.2-3.5-4.8-6.1-7.3-2.8,1.9-5.8,6.7-9.3,3-1.7-1-2.4,1.3-4.1,2.4-3.1,2-9.1-.6-11.6,2.7-5.2,7,2.6,2.8-16.3,9.4-6.5,5.4-4.8-3.9-7.7-4.5-8.3,1.3-.6,5.6-1.2,8.7-3.6,2.6-7.3,1-4.2,8-2.8,2.7-20.4-7.3-21-13.6-4.5,2.5-3.6,5.7-5.8,8.2-8.3,1.3-4.9-.8-7.5,9.8-4.9.9-14.7,3-19.4,4.4-5.8,1.5-16.4-10.1-23.3-4.9-4.5,3.4-9.4,3.6-14.8,1.6-7.9-2.9-6.3,3.3-26.1-4.3-12.3-4.3-21.7,15.3-33.8,6.1-14-11.7-12,4.4-25.9-4.2-6.4-3.9-12.5-1-18.9.9-7.9,2.3-11.6-9.6-22.3-2.2-9.9,6.8-8.7-5.7-22.2,2.4-13,7.1-8.5-6.7-16.4-7.8-8.4.9-9.7,9.8-13.1,12.6-11.1.8-12.6-17.7-21.1-16.9-3.7.3-6.3,2.5-10.4.2-2.5-1.5-6.3.7-8.7-1.5-3.2-6.4-7.6,2.8-17.2-3-3-2.2-4.9-1.3-7.9-1.2-11.1-2-9.8,7.2-18.6,3.8-6.1-2.1-35,5.5-42.2-1.3-1.7-.9-2.5,2.2-4.4,3.3-4.1,2.5-9.4,1.6-13.3,4.7-7.5,8.7-3.2,8.9-15.4,8.5-5.9,3.6-10.7,6.9-18.1,4.5-1.2-.4-3.6,2.1-5.2.5-8.5-8.4-3.5-1-17.4-8.3-3.9-2-7,2.9-9.7,5-3.3,2.5-7.6-.6-10.6-2.2-6.1-3.2-14.2,2.2-17-5.7-1.7-5-1.4-1.8-17.1-6.1-2.8,0-15.9-6.5-16.3-1.6-.1,3.8,4,7.5,2.4,11.2-.9,2.1-4.7,3.6-7,4.4-12.6-7.2-16.2-1.9-25.6-15.1-12.3,2.7-21-4.8-19.8-4.7-1.7-.5-3,.9-3.8,3.1-3.2-.9-15.3.9-16.6,2.6-1.2,1.6,1.2,5.1.7,7.4-1.3,5.8-4-5-12.6,1.5-7.4,5.7-12.1-14.9-35.8-10.2-2.5.9-3.7,5.6-4.1,7.8-2.3,14-32.6-1-33.9-8.4-4.8,4.9-20-3.2-30.1-2,0,0-5.5-6.7-5.5-6.7-3.3-12.1,12.9-12.4,10.1-22.3-.9-2-4.7-2.5-5.4-6.7-.7-4.7-6.2,5.3-11.4,5-4.6-.3-2.5-6.8-5.8-10.2-10-10.2-8.4,14.2-17.3,9.6-3.7-1.9,5.8-9.4,4.7-19.7-23.5-8.1-15.3,4.9-24.6.5-6.7-3.1,2.5-8.6-14.4-13.7l2.2-9.1c14.2-3.8,18.6,4.4,22.5.2,9.4-12.9-8.5-11.5-14.7-24.8-5.2-10.7,17.7-2.3,19.1-7.8,1-3.9,1.8-7.2,4.7-10-4.1-6.5-8.9,4.4-17.1-5.5-7.4-9.8-5.5-7.5-17.7-7.3-3.2-.7-1.6-6.6.9-8.4,9-6.4-2.8-13.1,9.5-20.8l1.3-14.2c.2-2.7-5-1.6-6.5-.4-1.1-3.5-.6-6.1-.8-9.3-4.4-.9-8.1.3-11.6,2,.7,0-6.1,9.4-7.5,8.9-7.9-3.3,3.6-9.3-11.1-12.1-3.7-9.7,19.5-3.3,12.8-17.9-4.3,7.4-11.2,0-2.6-2.8,0-1.3,0-2.6-.2-3.9-12.7-.9-5.4-16.2-15.2-13.9-1.6,6.3-14.2,5.8-9.4,13.6,1.8.2,4,1.1,4.6,4.1-6.6-5.2-9.9.3-12.4,7-3,1.2-5.8.2-8.1,2.4,7.9,9.9,2.4,12.6,10.4,17.9-8.1,7.7-10.4-4.7-16.8-4.6-11.7.5,3.6,14.5,1.5,24.5-5.7,8.2-.6,9.2,4.2,15.3,2.7,6.7-9.7,1.5-13.3.4.7-.3-11.1-7.5-12.5-2,.5,5.1,5,9.2-4.1,10.2-9.5,4.4-7.3-6.5-14-3.7l.6,8.6c.3,4.4,1.8,6.5,4.9,8.3.8,4.6-8.7,6.1-7.7,10.4-.6-3.1,11.7,11.1,11.1,12.3-26.8,7.6,0,6.5-25.4,14.7-12-9.2-12.5-1.2-20.3-13.7-9.8-5.5-3.7-6.6-18.9-8.4-.8-3.8-3.5-7.3-6.8-7.3.6,8.5-4.2,4.7-8.5,7.1-5.3,6.8-6.6-1.3-5.8-6.5-1.4-.4-2.8-.6-4.2-.5-8.4,13.6-9.5-4.9-19.4,3.2-.4,2.6,1.7,4.5-.1,7.3-7.5-8-11.1,2-23.5-9.2-27.3-8.8-20.1-.9-14.9-22.6-1.5-2.4-11.5-.6-14-.8-4.4.2-5.1-5.9-6.6-9.3-9.9-5.4-11.6-17.8-4.7-26.9.9-3-1.1-5.1-4.4-4.6-9.3,1.2-.9-6.7-11.8-7.5-2.2-.2-3.7-2.7-6.1-2.3-23,4.2-6.4-15-18.9-24,5.3-.9,7.5-3.9,11.1-5.5,4.5-2,8.3,7.5,19.2-2.6,9.9-8.1,20.6-20.2,34.3-19.1l6.2-1c-2,.3,21.7,7.3,32.1-.6,8.4,2,5.1,2.1,14.9-4.7-2.4-2.3-2.2-6.9-4.1-8.2-11.3-7.6-15.7-1.6-20.8-5.6,3-9.4,14.3,3.7,15.7-3.8,1.8-10.1-1.6-4.5-.3-13.7-2.9-1.8-5.5-4-8.3-4.7-4,3.9-6.6.2-9.6-.5-10.9,0-7.5-1.3-14.7-7.8-5.5,0-5.8,4.3-12-.7-4.2-1.7-7.5,1.3-11.4,2.6-15.4-1-8.1,9-1.6,16.6-2.6,2.4-6.2,3.7-9,2.8-3.7-1.3-5.5.7-8.2,1.4-2.4.6-6-.2-8.4.9-6.3-10.7-44.4-9.8-28.2,5.7-3.4,1.4-5.2,4.2-7.9,4.1-12.6-.3-7.6,2.7-20.2-4.6,0,0,2.9-53.9,2.9-53.9,1.4-14.4-.1-48.7,8.9-56.1-3.5-.4-5.7-1.1-5.8-3.5,0-1.3-.4-5.3,2.2-5.2l13.8.2c2-5.3,14.1-3.2,16.8-17.8,1.7-9.2,6.7-5.6,8.7-14.3.7,3,1.5,4.6,3.2,3.3,2.5-2-.2-8.7,3.3-9.1,3.5-.3,6.9,1,9,3.1,7.6,7.3,7.1-.6,14.7,2.8,1.4-.4,2.9-.6,4.4-.5-2-2.6,18.7-1.6,18-14,1.8-1.5,3.8,2.1,5.2,1.7,17.2-5.3,11.7,4.8,17.8,3,3-.2,4.1-8.2,5.1-10.3-3.3,1.7-7.1-2.9-9.9-3.3-7-1.2-13.1,1.4-20-1.6,1.6-4.1,5.6-6.4,9.7-8.9,5.8,5,18.9,1.5,8.7-4.7-4.4-2.9-7.3.9-9.8,1.2-6-1.6-11-5.5-16.7-2.5-.4,4.4-1.4,11.5-7.4,8.1-8.6-6.1,10.4-6,4.3-11.1-3.2-1.6-6.2.3-9-2,2.2-1.6,4-.8,4-2.8.3-1.7,1.7-3.9,3.7-3,.7-6.3-8.2,1.1-18.3-12.2-6.9-6.6,11.1-2.8-1.6-13.1-3.9,2.2-4.8.7-7-2.3-6.5-4.3,2-6.9-1.5-9.7-5.2-1.7-8.6-1.1-10.2,4.3-2.6-10.1,3-5.4-11.3-9.9,8.7-7.2,17-3.5,19.3-6.8,5.4-8.2,9.2-7.2,6.2-10.1-6.8-11.5-10.6-4.8-8.9-19.4-18.3,2.3-8.8-4.6-22.1-.7-7.8-7.8-9.4.8-18.7,0-.7-3-13.9-8.7-2.8-7.9,6.8,2.2,8.9-8.5,5.3-12-1.2-.9-3-.4-6-2.2,1.1-2.4,3.9-1.5,6.2-3.2-1.8-9.9,10-7.8,5.7-14.4-4-6-14.2,7-25.3,4.5-2.2,2.2-3.5,4.7-6.8,6.7-7.1-8.5-.8-13,1.8-22.4-2.3.6-4.2-1.5-5.6-4,5-1.3,9,1.8,8.2-4.6-3.1-1.6-1.1-4.4-5.9-11.2l3.3-8.1c-9.6-6.2-2.8-6.3-7.9-10.6-3.5-2.3-8.1-2.3-12,2-2.3-9.9-11.7-9.4-21.2-5.5-2.2,1.9-2.4,1.9-3.6,1.6-1.6-.4-4.2-3-1.2-4.4,2.4-1.1,3.6-2.3.1-5.1-7.2,11.5-16.8-10.7-23.6-2.6-6.1,7.6-10.1-2.4-12.9,8.2-4.9-7.9-16.5-6.6-7.5-16.7,18.6-11.9,23.4-2.1,32.4-4.3,6.1-1.5,11.5-.9,16.2,1.3-.6-.3,15.5,5.1,20,4.4,2.5-.4,4.3-.2,6.2,1.5,2.2,2,4-4.1,5.9-3.9,4.1.3,24.5,4.2,23.7-4.2-1.5-.6-8.6-4.5-8-6.8,1.6-5.6,7,5.5,10.3,2.7,2.8-1.1,6-1.2,8-3.8-1.2-.4-1.7-.2-2.5-.2-1.3,0-2.9-2.9-1.1-3.7,2.1-.9,5.5.2,5.6-2.7-4.9-12.5-2.5,3.9-19-6.8,3-3.5,4.9-4.6,4.5-8.4-2.9,1-4.1-1.9-6.4-3.8-11-7.1-18.2,14.4-15.2-10.7-5.9,1.6-5-6.4.3-3.7,5.8,1.2,10.6-1.9,14-6.7-1.4-10.5-12.4-12.5-20.1-6.4-7.7-6-2.3-11.9-13.8-11,1.4,6-3.8,5.4-8,5.5-3.1.1-4.5-4.9-8.7-5.4-1.3.4-1.8,3.4-3.4,3.6,1.1,4.2-2.1,7.5-5.2,2.6-.7-1.5.9-2.7,1-4.2-6.3-9.4-12-.7-18.5-6-2.9-2.3-6.5-3.5-9.7-2.5-2.4,4.3-8.3-4.1-4.3-6.1,2-1.3,5.2,0,6.6-1.3,1.7-1.6,3.9-1.9,6.3-3.9-13.9-8.3,3.4-15.4-22.3-12.7-.5-6.1,2.9-8.6,5.8-11.8-.9-2.2-3.8-5.2-1.6-7.8,2.9-3.3,10.6.3,11.3-3.2-1.2-3.8-3.4-5.5-2-10.8-2.3,1.2-4.2-1.7-5.8-4,4.9-1.8,9.4,2.1,12.1-2.4-.7-3.3,7.3-.5,5.6-4-4.3-6.4,5.6-9.8,3.9-12.8-1.6-2.8-10.9,1.1-11.7-7.6-.9-.6-1.9-.3-3.2.8,0,0-7.2,5.8-7.2,5.8-5-5.9-3.4-4.2-9.5,0-1.8-5.6-.3-3.2-6.1-4.6.7-2.7,7.3-5.7,6.5-1.4,6.1-.7-2.1-11.8,3.8-12.1-2.6-6.1-19.1-4.3-13.1-13,4.2-9.2-6.9,2.5-9-.6l4-6.1c-13.1-8.1.8-8.8-19.4-8.6-3,0-5.3,0-8.5-.4-1.9-.2-3.2,3.4-3.8,4.7.5,2.6-7.7,3.2-6.3.1-6.1-5,2.4-7.6-7.8-12.6.4-5.9,3-11.2,2-17.6-.4-3-11.7,1.8-12.6,6.9-8.9,1.3-3,1.3-3.7,7.4-9.1-6.3-4.8-20.8-6.8-30.5h0c-7.9-1.4-4.3,10.4-6.4,14.4-7.4-6-8.3,5.2-13.5-1.3-6.1-5.2-2,4.4-2.2,8.7-1.1.4-2.3.2-3.3.4-.4,2.9,1.6,6.5,2.3,9.9-4.3,1.6-6.6-1.8-10.2-4.2-2.1,2.9-1.3,5.9-3.6,8.1-13-2.9-6.4,10.8-18.3,1.4-.5-.7-.9-1.5-.3-2.5-1.1.5-2.2,0-3.4-.2-.2,3.5-.9,7.1-3.3,10l-4.8-11.5c-2.7.2-3.8,1.3-4,5.2-3.3,10.6-11.1-1-17-6.1-2.9,9.2,10.7,13.5,7.8,18.5-2.9,4.9-8,.1-15,1.9-.8,3.3,1.1,3.7,4.1,4.8,2.4.9.7,6.9-2.1,6.8-3.3,0-6.1-2.2-9.8-1.3-7.1,1.7-5.5-7.5-15.4-4l.5,4.8c-3.9,1.8-7.8,2.8-10.3,6.7,5.6,6.7,7.7,13.9,15.8,9.5,5.3-1.7,3,7.5,11.5,4.6.7,3.9-1.2,5.2-3.4,2.2-3.7.3-7.7,2.4-11.2,1.7-.6,3.6,1.7,6.8,5.1,9.3,4.1,3-2.5,4.8,5.1,10.7,3.7,2.9,7.1,3.2,11.4.3,1.8,3.1,3,6.5,6.2,8.8-.4,3-6.4.7-6.1,5.4.1,6.1,6.7-.9,10.1,2.9-9.8,7.8,17.3,5.2,9.1,15.3-2.3-.9-2.8-5.4-4.9-3.9-8,9.3-19.5-3.8-19.8-10.1-7.7-.7-7.5,6.1-11.5,4.6-4.5-1.7-6.7,1.4-9.7,2,2-.5-15.2-1.9-13.7,2,.6,1.5,7.6,2.1,7.1,6.9,5.1,1.5,3.3,13.4-2,8.4-1.7,1.8-27-.8-18.4-6.8,2.4-1.7,3.4-4,1.9-6.1-2.9-3.8-7.2.8-12,2.1-4.1,1.1-5.6-6-10.3-3.9-3.4,1.5,0,5.6-11,4.3.9,6.3-6.2,5-4.4,0-9.4-2.6-8.4,6.1-17.9,2.1-4.9.2-9,4.7-14.3,5.7-1.7,6.2.8,8.9,6.5,11.6-15.9,4.5-1.6,8.4-15.8,15.4-3.7,3-10.6,15.6-2.3,17.1,13.5-.3,9.2,10.1,22.6,1,2.9-1.9,5.3-.4,6.5,1.2,3.4,4.4-3,17.1,6,8,1.3,3.8.6,8.1.8,12,.4,1.7-1.1,2.9-1.6,3.9l-2.9,8.5c-2.1,2.6,9.4,7.3,11.8,5.1,3.6-3.9,14.2-6.5,12.9.7,19.2-.7,14.3,5.8,17.9,5.8-1.6-9.1,8.7-.4,11.3-.6,1.5-.3,2.5-1.1,3.3-.8,3.1,1-1,5,10.7,2.6-.2,1.9-2.7,5.3-.8,7.3,9,9.4,20.1-3.7,21.4-4.5,10.8-9.2,17.6-2.9,23.9,7.5-17.7-3.3-15.4,12-25.2-1.7-9.2,12.1-10.4,6.1-18.7,9.2-5.2,3.1-15.9-4.7-16.7,3.9,1.5,5.1,11.3,1.9,12.5,7.5-7.3-1.7-11.1,2.7-12.6-1.6-6.4-10.9-6.9,1.4-12.6,2.5-.2,4-3.1,4.2-6.5,4.1-6.7-1-7.3,6.8-.5,7.3-3.9,4.1-1.7,10.1,4.3,6.3,3.8,2.7,5.8,6.1,8.5,9.2.8.4,2.6,1.3,3.4.7,2.4-1.9,15.2-4.8,15.9-2.7.7,2.1-1.2,4.2-1.9,5.4-2.4,6.3-1.1,21.1,9.2,19.7-1.6,0,2.7-7.7,2.7-8.4,10.4,5.4,6.4-13.5,10.4-7.2,1.9-.7,3.3-2.7,5.6-2.4.4-5.6,4.9-.4,8.7-7.1,1.5-2.7,4.2-3.3,6.9-1.7,3.4,3.2,8.6,6,12.7,7.8,2.5,1.2,5.4.5,5.8,2.9.4-1.2.9-1.1,1.6-.1-1.2-5.5,7.8-6.9,10.8-4.2-2.2,2-4.1,1.3-5.4,3,1.6,2.7,4,4.5,6.3,3.8,7.4-2.3-1.3-7.2,19.1-9.8,31.3.5,12.2,10,18.9,14.6,2.8,2.3,7.2-4.9,9.1-6,20.4,8.8,39.8,26.7,31.6,49.7-12.5-2.5-18.1-8-27.5-7.8-4.7,13.7-22.6,24.4-13.1,40.8-10,8-5.5,7.9-20.8,6.5-5-.4-4.4-6.8-14.4.2-1,2.8,3.1,4.1,6.4,4.6-.8,2.2-2,1.6-3,1.3-6.2,2.4,1,4.2,1,6.6,9.3,6.5,7,0,11.8,1.6,8,2.6-1.7,13.4,4.2,17.8,1.7,1.3,6.9-2.1,13.4-.5,4.1-2.6,7.7-4.1,12.8-2.9,2.5.6,4-4.1,5.9-3.9,10.5.8,4.1,20.5,4.1,23.3,0,2.9,2.4,6.6.5,9.3-6.8,9.5,4.3,3.1-4.2,22.2-15-5.6-20.5,17.3-2.6,14.7,4.3,21.6-18.8,22.5-10.2,35.2-.3,12.6-24.8,8.5-20.2,21,8.5-1.8,8,4.3,23.3,9.2-2.8,5.2-7.9,6.4-11.3,10l-9.7,10.4c-3.5,3.7-4.7,9.9-9.4,11.8-10.1,3.8-8.9,3.1-13.7,12.6-4,1.3-7.3,3.3-11,5.6-11.6-3.1-38-.2-24.7-16.5,4.8-6.7-7.4-6.7-1.6-13.5,1.5-1.7,3.4-1.3,7.6-1.6,4.7-1.4-6.8-12.4,7.8-7,4.5,2.4,7.6-1.3,9.1-5.2,1.8-5,6,2.3,9.6-10.6,4.5-2.1,11.6-3.6,12.6-9.4-1.5-3.7-8.4-3.1-11.7-.9-6-1.7,7.1-7.4,1-10.1-4.1-1.8-9.8-9.9-10.2-10.3.3-.7,4.7-11.4,6.8-11.6l-6.7-2.7c8.8-8.5,11.5,1.5,17.6-.5,1.9-.6,5.2-5.9,2.9-6.7-22.5-8.2-26.9.9-31.8-3.5-4.2-3.8-7.5,3.4-12.5,2.2-8.5-2.1.8-8.8-18.5-9.4-1.5-3-.4-6.9,2.2-9.9,4.5-5.4-1.6-6.9-.9-12.5-11.3-2.2-5.5-1.2-10.9,6.2-7.3,4.6-16.9,5-23.4-.6-1.2-1.1,1-5.6-1-6.9-11.5-3.3-9.6,5.2-16.3-9.2-4.2-6.3,19.1-1.1,18.6-5-2.9-2.4-8.3-6.7-10.5-9.8-2.2-2.2,2.1-4.8,3.8-5.5.3-3.2-1.1-6.5-5.8-7.6,14-8.2,8-11.8-4.7-8.2-1.7-8.1,4.6-.2,9.5-12.9-3-.7-5.2-1.4-5.4-3.8-.6-8.1,7.1-7.5,6.1-10.7-4.8-12.5,7.9-12.3.8-17.5-2-4.1,9.6-4.1,7.3-6.4-2.6-.2-3.7-2.5-5.6-4.8-7.1-8.5,6.8-14.3-1.6-11.3-10.9,2-1.9,12.7-9,10.5-2.8-1.8.5-10.9-4-7.6-1.5,1.1-2.7.8-2.8-1,6.9-8.9-3.5-12.7-10.3-9.8-2.8,2.4-1.3,6.7-2.3,9.5l-8.4-3.9c2.1,4.3,1.4,4.1-1.6,6.5-1.7,2.5-2.5,1.1-3-1.6-7.4-3.2,3.8-8.3-4.2-10.5,0,6.2-3.4,5.7-10.5,10.2l.2-11.2c4.6-2.2,5.4-7.5,9-9.6,9.6-6.9,21.5-7.1,3-15.3,1.1-1.6,1.4-4.4-.5-4.4-3.2,4.6-9,5.4-11.5,2.5l5.9-13.5c1.5-3.3,7.1-3.9,6.3-8.7-2.8-.4-5.5.3-8.7.2.6-5.5-3.1-8.6-3.4-12.5-.3-3.6,3.5-7.6-.2-10.3-11.4,21.4-4,19.7-7.7,40.3-1.8-3.1-1.6-5.4-3.7-7.7-4.9-5.3-1.6-13.6-6.5-14.6-4.6-1,.7,5.8-8.7,12.7-.5,1.9-1.5,22-1.6,22.2-.7,1.1-1.5,1.9-2.1,2.8-1.2-2.8-.3-3.7-2-6.9-1.9-3.5-.2-4.4-2.1-7.9-1.9-3.5-7.9-.4-9.7-3.9-1.9-3.5-2.7-3.1-4.6-6.6-1.9-3.5,1.4-5.2-.5-8.8-1.9-3.5-8.9.2-10.8-3.4-1.9-3.5,2.9-6,1-9.6-1.9-3.5-1.5-3.7-3.3-7.3-1.9-3.5-.3-4.4-2.1-7.9-1.9-3.5-9.1.3-11-3.3-1.9-3.5,10.4-10,8.5-13.5-1.9-3.5-9,.2-10.9-3.3-1.9-3.5-8.4-.1-10.2-3.7-1.9-3.5-3-2.9-4.9-6.5-1.9-3.5,1-5-.9-8.6-1.9-3.5-3.9-2.4-5.8-6-1.9-3.5,3.3-6.2,1.4-9.8-1.9-3.5-7.3-.7-9.2-4.2-1.9-3.5,4.4-6.8,2.6-10.4-1.9-3.5-.8-4.1-2.7-7.6-1.9-3.5-1-4-2.9-7.5-1.9-3.5.6-4.8-1.2-8.4-1.9-3.5-8.6,0-10.4-3.6-1.9-3.5,1-5.1-.8-8.6-1.9-3.5,2.4-5.8.5-9.3-1.9-3.5-8.1-.3-9.9-3.8s-2.1-3.4-4-6.9c-1.9-3.5,1.6-5.4-.3-8.9-1.9-3.5-1.1-3.9-3-7.5-1.9-3.5-5.9-1.4-7.7-5-1.9-3.5-1.3-3.8-3.2-7.4s3.3-14.4-.6-15.2c-3.9-.8-.5,14.6-3.5,17.2-3,2.6-8.4-3.8-11.4-1.3-3,2.5,3.3,10,.2,12.6-3,2.5-8.8-4.4-11.9-1.8-3,2.5-2.2,3.6-5.2,6.1-3,2.6-4.1,1.3-7.2,3.8-3,2.6-.5,5.6-3.5,8.2-3,2.6-8.5-4-11.6-1.4-3,2.5-2.4,3.3-5.4,5.8-3,2.6,4.4,11.5,1.4,14-3,2.6-10.5-6.3-13.5-3.8-3,2.6,1.2,7.6-1.8,10.2-3,2.6,1.5,7.9-1.6,10.5-3,2.6-6.5-1.6-9.6.9-3,2.6-.6,5.5-3.6,8-3,2.6-10.7-6.5-13.7-4-3,2.6,5.1,12.2,2,14.8-3,2.6-5.6-.6-8.7,2-3,2.6-1.7,4.1-4.7,6.7-3,2.6-2.6,3.1-5.6,5.7-3,2.6-9.1-4.7-12.1-2.1-3,2.6-4.8.5-7.8,3-3,2.6-2.5,3.2-5.5,5.8-3,2.6,4.8,11.9,1.8,14.5-3,2.5-9.1-4.6-12.1-2.1-3,2.5,2.3,8.9-.7,11.5-3,2.5-3,2.6-6,5.1-3,2.5-4.6.7-7.6,3.3-3,2.6-8.1-3.5-11.2-1-3,2.5.4,6.6-2.7,9.1-3,2.5-7.6-2.8-10.6-.3-3,2.6-2.2,3.6-5.2,6.2-3,2.6-5.4-.3-8.4,2.3-3,2.5-.9,5.1-4,7.6-3,2.6-3.6,1.8-6.7,4.4-3,2.6,2,8.5-1.1,11.1-3,2.6-4.7.5-7.8,3.1-3,2.6-7.5-2.8-10.5-.2-3,2.6,2.5,9.2-.5,11.7-3,2.6-6-1-9.1,1.5-3,2.6,3.4,10.3.4,12.8-3,2.6-4.1,1.3-7.1,3.9-3,2.6-11.5-7.6-14.6-5-3,2.6,1.4,7.8-1.7,10.3-3,2.6-5,.2-8,2.8-3,2.6-1.3,4.6-4.4,7.1-3,2.6-4.2,1.2-7.2,3.7-3,2.6-2.9,2.7-6,5.3-3,2.6,4,10.9,1,13.5-3,2.6-2.9,2.7-6,5.2-3,2.6-11.3-7.3-14.4-4.8-3,2.6,2.1,8.7-.9,11.3-3,2.6-1.7,4.1-4.7,6.7-3,2.6-10.3-6.1-13.3-3.5-3,2.6.3,6.5-2.7,9.1-3,2.6-4.9.4-7.9,3-3,2.6-4.7.6-7.7,3.2s1.2,7.6-1.8,10.2l33.4-.2v804h3817.6v-633.3c0,0-.2,0-.4,0ZM3048.3,890.3c-4.7-.3-4.1-2.7,1.1-2.4,2.1,1.1,1.2,2.2-1.1,2.4ZM2894.8,1063c.9,1.2,3.6,1.8,1.4,5-1.9-3-2.1-4.2-5.5-4.8,1.3-2.1,3-1.6,4.1-.2ZM889.6,943.1c1.2.3,3.5,4.2,1.2,4.4h0s-6.8.5-6.8.5c-5.5-1.2,3.5-6.2,5.5-4.8ZM872.2,1001.4c16.8-12-9.6,27-14.2,29.7-5.1,5.5-18.3,6-18.7,5.4h0c-1.6-7-12.5-7.2-3.9-13.4,16-5.3,18.2-25.6,36.8-21.7ZM857,884c0,2.9-4.5,2.9-4.5,0,0-2.9,4.5-2.9,4.5,0ZM853,890c0,2.9-4.5,2.9-4.5,0,0-2.9,4.5-2.9,4.5,0ZM833.7,998.6c7.4,5.5,3.6,2.4,9.9.4,2.2.6,5.9,1.4,5,4.9-2.1,7.7-8,13.1-16.5,14.6-1.2-6.7-.5-13,1.6-19.9ZM804.8,723c0,1.3-2,1.3-2,0,0-1.3,2-1.3,2,0ZM722.8,593c0,1.3-2,1.3-2,0,0-1.3,2-1.3,2,0ZM534.8,613c0-1.3,2-1.3,2,0,0,1.3-2,1.3-2,0ZM464.8,663c0,1.3-2,1.3-2,0,0-1.3,2-1.3,2,0ZM444.8,662c-.7,2.3-1.5,2.3-2.2,0,.7-2.3,1.5-2.3,2.2,0ZM450.2,712.5c-4.4-.2-2.7-4.8,1.7-4.8,9.8.4.5,3.4-1.7,4.8ZM473,716.8h0c-2,.7-3.3-1.3-4.5-2.9-1.7.4-3.7.4-3.6-1.7,4.2-1.2,7.7-1.2,12.2-.7-.5,1.7-1.3,4.3-4.1,5.2ZM492.5,693.7c-7.3,6.5-21.1,1.8-29.7,4.2-7,1.9-4.6-6.4-9.9-7.8.5,1.5-24.9.9-22.1-1.7,5.5-.9,11.9.5,15.9-2.6h0c3.4-2.6,5.7-4.5,11.7-2.5-1.9-.6,18,3.3,14.3,4.5-2.3.6-5,.3-5.4,3-.2,1.8,3.1,1.9,4.3,1.4.7-.3.8-3.5,2-3.4l15.4,1.3c1.6.1,4.8,2.5,3.5,3.6ZM504.6,680c-1.5.4-3.4,0-6.6.2-4.5.4-4.6-4.7,0-4.3,8.3,7.2,11.6.4,18.9,5.8-5.1,3.9-13,5.3-12.3-1.7ZM626.4,894.1c.2-3,4.4-3,4.6,0,.1,5.4-4.7,5.4-4.6,0ZM803.5,829.9c1.1.5,1.5,1.7.6,4.1-1.1-.5-1.5-1.7-.6-4.1ZM805.1,840.1c.1,5.4-4.7,5.4-4.6,0,.2-3,4.4-3,4.6,0ZM813.3,973.6c-8.2-2.4-18.9-7.6-20.2,2.8-.7,1.9-4.7-.8-7,2.6,23.3,7,17-2.4,33.3.8v31.3s0,0,0,0c0,3.6-1.4,6.4-4.4,5.3-29-10.5-11.8-16.2-38.5-25.2,10.1-1.4,1.8-4.4,12.3-7.7-.9-1.7-2.1-1.4-2.7-1.9-3.5-3.7,6.4-13.8-5.4-13.8-11.7,2.2-1.4-4.6-15.8-4.9-1.5-1.1-1.3-2.4-.8-3.1,4.3-5.4,6.9,4.7,16.5.4,14.4,12.1,34.2,1.1,32.6,13.4ZM777.7,914c3.1-1.1,4.6,2.7,1.5,4.5-2.9,4.5-3.4-4.4-1.5-4.5ZM790.5,922.4h0c1,1.1-1,1.8-1.8,2.5-.9.7-4.4-3.5-5.4-4.1.5-1.1,1.7-4.8,2.9-5.8.8-.7,3.9-.7,4,1.3.1,2-2.2,3.3.3,6.1ZM734.8,815.9c1,7.8,8.3,2.7,10.6,8.1,1.7-.9,2.1-2.7,3.1-4.7,1.5.5,2,2.2,4,2.6,14.5-23.1,29.5,16.6,38.6,25.9-14.4,14.5-10.2,3.1-20.4,10.3-2.6-1.2-3.6-2.8-6.1-4.4-2.5,2.8-6.4,3-9.9,4.5-2.5,8.3,8.5,17.6-3.3,22.5-22.9-12.1-10.1-5.9-20.7-6.8,0,1.7,1.7,1.7,4,2.5-.2,1.8-2.4,2.4-3.6,1.9.5,1.1.8,2.4.1,3.4,1.6-.5,1.3,1.5,1.5,2.5,2.4.7,2.5,3.3,2.3,5.5,3.4-1.9,8.5-2,10.9,2.1,4.6,4-11.4,3.7-13.2,4.3.3.1-16,11.7-15.4,11.8-5.1-17.2-5.1-5.5-10.7-11.6-1.5,0-2-1.3-1.7-2.7-3.1-.4,1.2-8.2-3.1-9.4-8.4-1.8-7.1,10.2-15-2.2h0c-4.2-.2-2.7,1.1-5.6,3.9-1.8-11,.3-22.3,1.1-34.3,1.8-6.6-.8-42.7,7-46.2,2.2,9.8,9.1,14.7,18.6,15.8,7.3,4.1,7.5,2.9,10.8-4.1,0,1.5,16.4-12.9,16.1-1.3ZM756.9,919.9c-3.6.9-4.9-1.7-8.5-2.3-2.6-1.7-.9-4.3,1.9-1.9h0c3.3.6,5.9,1,6.7,4.2ZM744.8,909.8c-5.2,2.9-11.6-12.8-4-6.6,2,3,4.2,3.8,4,6.6ZM697.4,909.2h0c-2.3.6-3.8-5.4-2.2-6.2,2.8-1.3,5.5-1,6.5-5.1,3,3.3,1.8,9.6-4.3,11.3ZM680.6,894c-.1-2.7,5.2-3.7,6.1-.2.8,3.2-5.9,3.4-6.1.2ZM720.7,777.9c-1,2.9-3.3,2.7-5,2.6-7.3-2.2.2-8.7,5-2.6ZM712.8,769.7h0c-4.5-.8-6.8,5.4-9,5.8-11.8-11.9,16.5-17.6,27.6-17.3-1.4,9.1-10.2,13-18.6,11.5ZM744.6,749.4c-.5,2.9-2.2,3.2-4.8,4h0c-6,.2-10.2.1-14.2-1,6.4-3.3,12.6-3.4,19.1-3ZM727.1,674.1c0,5.4-4.7,5.4-4.6,0,.2-3,4.4-3,4.6,0ZM722.5,642.2c-1.3,7.1-10.7,7.2-12,6.3-7.6-6.9,16.5-18,12-6.3ZM704.9,643.7c2.8.5,2.6,4,.5,4.2-5.8-1.7-9.7-6.2-.5-4.2ZM704.1,631.4c-.3,2.7-7.2,9.7-10.4,5.6-2.1-5.1,5.3-6.5,10.4-5.6ZM690.8,735.2c3.2,1.1,10,1.2,13.6,1.9,8.8-4.4,2.8-1.8,8.5,3.3,15.9-13.8,24.3,7.2,13.7,5.1-2,2.4-21.6,1.8-19.7,7.3.8,2.4,6.9-.3,7.8,2.1.5,1.2,0,2.4-1,3-3.1,1.7-3.7-5.9-10.5-1.9-.8.5-10.7,1.7-10.7,1.7-1.2-.7-1.7-19.3-6.1-27.7,3.4.8,2.5,4.3,4.3,5.1ZM678.5,741.7c1.1-1.1,5.1,2,3.9,4-2.5,4.3-3.3,7.7-3.6,13.7h0c-.2,4.3-7.2,5-8.9,2.4-1-1.5,5.8-17.2,8.6-20.1ZM647,726c0,2.9-4.5,2.9-4.5,0,0-2.9,4.5-2.9,4.5,0ZM640.8,727c0,1.3-2,1.3-2,0,0-1.3,2-1.3,2,0ZM642.9,732.1c8.2,7.3,5,5.3,13.3.9,6.3,4.2,13.4,8.3,12.9-3,6,3.7-1.7,29.3-8.5,28.1-13.3-3.1-21.8-14.2-27.8-25.7,3.1-2.3,9.8-3.9,10.1-.2ZM567.5,780.1c-4.9-2.9-8.1-3.6-12.7-3.6-6.6-3.2,6.2-7.2,8.3-9.5,4.3,3,5.5,8.1,4.4,13.1ZM629.7,814c-2.9-1.8,0-10.4,2.8-2.2.7,2.3-1.7,2.8-2.8,2.2ZM620.7,770c-3-.3-5.4,4.2-8.1,2.8-9.4-5.7-9.7-10-15.4-2.3-1.1,1.1-2.9.2-3.4-.6-.6-2.6-3.2-3.5-5.6-2.3-3.3,3.8-.7,17.3-9.4,12.4h0c-1-.3-3.1.9-4-.5.3,0-7.6-19.2-7.1-17.7-1.5-4.9-3.5-6.1-8.5-7-9-1.6,5.4-15-2.2-15.4-3.8,2.4-5.6,5.5-10.5,4.6,3.7-13.9,13-13.5,24.7-12.9-2.7,6.5,7.4,5.6,10.7,6.7,4.1,0,4.5-6,6.8-7.5,4.7-3.1,10.3-3.7,13-8.3,1.3,2.5,1,5.4,3.2,5.4,10.8.1,4.1,12.3,10.7,12.9,1.9.2,5.9.9,6.5-2.2.4-1.9.2-5.5,2-4,7.2,6,10.5,14.3,16.3,19.9,10.6,9.4,29.3,12.2,5,18-9.5,6.7-15.6,1-24.7-2ZM640.7,816.5c.7-6.9,2.4-6.6,7.9-8.3,7.7-3.3,10.4,6.8,17.9-2.5,6.9-2.4,1.2,26.7-1.1,29.1-6.9-6.6-17.7-15-24.8-18.2ZM648.5,888.9h0c-3.5.6-4.5,2.5-6.4,4.4-1.8,2-9.6-5-8.7-8.3,5-11.6,11.3-12.6,17.4-5.3,3.5,3.1,11.7,2.6,9.6,8.4-9.1-3.9-6.1,1.3-12,.8ZM681.8,1065.4c.3-2.1,6.8-2.9,8.3-.9,3.7,6.5-9.5,8.2-8.3.9ZM704.6,1090c-.1-2.7,5.2-3.7,6.1-.2.8,3.2-5.9,3.4-6.1.2ZM812.2,1170.1c-6.3-6.1-.1-16.3-6.9-13.8-3.9,1.4-7.6,2.2-12.1,1.4,2.1-14.9,10.8-13.4,22.2-22.4,1.6,12-2.6,23.2-3.2,34.8ZM819.7,1083.9c-1.9,14.2-.2,26.3-4.5,39-3.9-1.7-2.5-4.9-2.7-7-4.7-1.5-8.8-4.7-12.7.7-2,1.8.5,4.6-.4,7.3-1,3-2,5.9-.9,8.7-14.8,6.2-7.2,7.2-10.8,12.7-2.3,3.5-3.8,6.5-4.7,10.8-12.8-8.1-13.2,13.1-24.9-7.5-1-1.3-3.5-.6-3.1,1.3,5.4,10.3-7.4,22.3-14.4,10.6-3.4-6.3-10.9-19.8-14.5-26.1,15.2-15.6,6.6-12,8.7-20.3.8-3.1-.9-4.8-3.1-4.7-4,.3-5.4,7.1-9.7,5.6-1.7-.6-5.6-1.4-4.9-4.2-1.7,7.7,3.3-30.6,2.8-15.5,1-15.5,1.4-9.5-12.4-13.1-10.9,4.3-4.9-3.4-2.3-8.5-3.4-3.9-.5-8.2-1.1-11.9-1.4-8.3-14.9,2-29.5-5.2.7-3.1,2.2-3.9,3.6-5.9l-8.7-8.8c-.3-12.1-6.3-6-10.6-22.4-1.6-6.1,6.3-11.6,11.7-12.1,2.6-.2,4.3,2.8,6.3,2.8,23.4-8.7,15.9,4.8,37.9,8.2.2-4.3,4.2-9.6,9.2-9.1,3.6.3.6,4.4,12.9.7h0c2.7-4.2,15.4,3.2,16.8,1.9,2.4-5.2-10.7-13.6,1.9-21,5-4,8.8,11.8,14.2-1,1.7,3,2.9,4.9,5.8,5.6,10,2.5,1.7,12.7,6.9,12.3.9-3-.6-5.2,1.8-6.4,22.6,27.9,45.4,16,32.9,58.6-11.6-4.1-7.6-4-18.8,1.4,7.1,13.7,22.3,13.4,21.3,22.4ZM854.4,1233c-3.4.9-5.4-1.6-6.5-4.6h0c-12.6,3.4-2.8-.5-15.3-.9-2.1,1.3-1.7-17.4-.8-19.6,2.1,3.6,2.1,7.9,5.5,12.4,3.3-4.6.8-8.8,2.6-13.6,14.8,2.8,19,12.5,14.6,26.2ZM884.5,1246c0-2.9,4.5-2.9,4.5,0,0,2.9-4.5,2.9-4.5,0ZM2795.9,1215.6c-2.7,3.1-4.4,9.3-8.2,11.3-4.9,2.6-10.3,3.4-14.9,7.5-21.8,1.1-14.9-3.3-20.5-6-4.3-2.1-7.7,2.4-11.4,2l-34.1-4.4-19.7,5.5c-3.9-13-.9-90.9-1.5-105.8l10.4,5.9c2.8,1.6,3.8,5.7,8.9,4.4,9.9,2.6,10.3-3.1,17.4,1.3.8,1.8,1.3,4.4-.1,6.2-6.1-3.4-24.7,0-27.3,3.9-.6,5.3,11.4,11.7,16.5,13.7l16.4,4.4c3.6,1,6.1,5.3,9.9,4.5l1.4-4.4c.6-1.8,13.6-2,16.9,1.9h0c5.5,6.5,7.7-.5,9.9,2.3,1.1,1.4,1.1,3.4-.9,4.5-8.5,4.4,6.7,16.4,7.7,17.6,1,1.3-.8,6.2,2.1,6.1,4.1-1,7.2-3.2,12-3.8.9,3-1.2,3.8-2.4,6.4,6.4.9,16.1,9.9,11.4,15.1ZM2822.1,1105.7h0c-41,6.2-4.1-7.3-43.8,8.4-1.4.5-3.2,3-4.7,1.4-10.9-9.5-10.4,4.3-31.2-4.3,3.1-3.6,5.8-3.8,2.6-9.5.6-1.7,30.8-8.5,26.7-6.4,11.9-5.8,13.6,14.3,26.1-.6,3.5-2.3,6.3,3.4,9.2,5,3.4,1.9,6.8-4.3,9.5-4.7,4.8,1.1,7.1,6.8,5.5,10.8ZM2898.8,1087c0,1.3-2,1.3-2,0,0-1.3,2-1.3,2,0ZM2911.1,1204.5c-14.7.4-31.5,6.6-44.3,11.7-1.8,4.6-12.7,5.6-16.7,7-4.2,1.2-6.1-2.2-5.3-5.4,1.2-4.6,6-5.6,9.8-8-.8-4.3-3.8-5.3.7-9.3,4.4-4-2.8-4.3-4.1-14.9,4.2-2.6,10.3-2.4,14.1,1.6,4.8,5.1-7.8,8.5-3.8,14,1.6,2.2,5.2,2.2,5.1,4.9h0c5.6.2,14.7,5.2,10.9-4.2,2.3-12.6,8.7-26.2,22.7-28.5,9-1.8,8.3-9,13.6-9.5,5,.6,10.9,5.5,7.3,11.9,0,2.8,2.5,5.4,4.4,5.4,10.4-.3,9.6-11.2,19.9-4,1.1.8,2.6.8,3.1,1.8,3.2,6-26.3,24.4-37.4,25.6ZM3094.2,824.9c-16.5-15.5,9.9-10.1,6.7-2.2-2.5,1.4-4.7,1.5-6.7,2.2ZM3080.6,946.9c-7.1-3.1-12-8.8-13.2-15.5,20.9-5,7.8.9,17.6,7.5h0c1.5,2.9,2.9,4.3,3.8,7.2-3.2-1.2-5-1.2-8.2.9ZM3103.3,903.9c-2.7,2.1-15.1-1.1-18.6-5.6,3.1-2.9,4.8-7,8.2-7.6,5.8-1,13.5,10.8,10.4,13.2ZM3117.8,839.1c-1.6,2.1-3.9,3.6-2.3,7.6h0c-.4,4.5-4.3,4.3-4.9-.3,8-11.1-7.9-16.8-1.6-20,2.6-1.3,13.5,6.7,8.8,12.7ZM3149.3,920.8c-5.7.2-3.1-9.8,1.5-10.6,2-.5,3.7-2.6,6-.9-3.8,4.6-4.7,7.9-7.5,11.5ZM3172.7,968.6c-1.9-.3-4.3-.4-4.1,2.2h0c1.5,9.5-4.3,4.3-6-.5-.3-3.7,10.9-6.6,11.9-5.4,1.1,1.3,1.1,4.1-1.8,3.6Z"/>
    <polygon class="st2" points="726.6 745.6 726.6 745.6 726.6 745.6 726.6 745.6"/>
    <path class="st2" d="M732.6,896.3s0,0,.1,0c0,0,0,0-.1,0Z"/>
    <polygon class="st2" points="504.6 680 504.6 680 504.6 680 504.6 680"/>
  </g>
</svg>