<?xml version="1.0" encoding="UTF-8"?><svg id="a" xmlns="http://www.w3.org/2000/svg" xmlns:xlink="http://www.w3.org/1999/xlink" viewBox="0 0 2912 1632"><defs><linearGradient id="b" x1="1022.39" y1="899.96" x2="1022.39" y2="899.73" gradientUnits="userSpaceOnUse"><stop offset=".03" stop-color="#afc28e"/><stop offset=".1" stop-color="#a3b888"/><stop offset=".36" stop-color="#7f9c78"/><stop offset=".61" stop-color="#66886c"/><stop offset=".83" stop-color="#567c65"/><stop offset="1" stop-color="#517863"/></linearGradient><linearGradient id="c" x1="1043.01" y1="900.17" x2="1043.01" y2="898.11" xlink:href="#b"/><linearGradient id="d" x1="1053.35" y1="896.59" x2="1053.35" y2="896.4" xlink:href="#b"/><linearGradient id="e" x1="1060.97" y1="896.09" x2="1060.97" y2="895.59" xlink:href="#b"/><linearGradient id="f" x1="1563.45" y1="959.18" x2="1563.45" y2="958.21" xlink:href="#b"/><linearGradient id="g" x1="2288.48" y1="764.23" x2="2288.48" y2="763.78" xlink:href="#b"/><linearGradient id="h" x1="2781.02" y1="750.68" x2="2781.02" y2="742.26" xlink:href="#b"/><linearGradient id="i" x1="2874.82" y1="723.69" x2="2874.82" y2="722.82" xlink:href="#b"/></defs><path d="M2912,699.66h-21.66l-140.38-3.42-706.43-55.3-198.21,159.06s-104.04,30.68-215.27,62.82h-180.8c.46-1.61,1.22-3.39,2.87-5.29,2.31.14,5.1,4.15,7.31,2.31,5.69-4.72,7.79-2.22,8.61-14.02-5.17.83-8.44-1.66-12.44-1.74l-21.58-.44c1.58.03-20.41-1.76-21.31-4.38-1.28-3.72,3.66-6.14,5.93-8.59l12.4-13.4c2.18-2.36,9.17-12.44,15.34-16.65,4.01-2.74,2.51-7.04,3.97-10.46,4.26-10.01,7.76-18.96,8.55-30.01.24-3.42,1.44-18.15,4.63-16.08l-10.08-5.57c-10.88-6.01-22.34-9.79-33.56-15.85-33.07,17.84-61.57,40.71-90.69,64.2-15.64,12.62-38.42,32.58-54.23,41.06-18.77,5.4-38.78,6.03-58.29,8.87-25.85,3.76-50.5,7.69-75.96,13.83-10.07,2.43-20.38,5.26-30.74,6.73.86-.12-13.64-9.1-15.1-3.91-2.47-3.34-2.55-7.26-4.35-10.69-6.07,6.66-1.9-.57-10.3.66-.8-4.2-4.31-6.31-5.68-9.89l-5.1-13.33c-2.58,2.55-1.73,5.62-2.63,8.95-3.74.37-5.77,2.77-7.66,6.56-3.53-2.22-3.98-6.6-6.99-9.23-1.83.94-3.55,1.77-4.8,1.11-4.42-2.33,1.05-1.23-6.3-12.2-1.54-2.3-.46-5.33-3.31-7.68-1.57,3.3-2.43,5.51-4.31,7.46-.14-3.27-.4-6.08-3.86-7.69-5.58,13.21-2.32,1.57-11.9,17.78-1.54-6.14-7.19-5.21-9.48-7.54.15.16-13.19-16.12-12.41-17.92-2.54,5.12-4.24,9.31-9.63,13.24l-5.51-11.11c-.54,2.92-.67,6.29-3.65,7.33-3.81-1.25-5.12-6.33-7.89-11.33l-4.56,7.48c-6.06-1.65-8.16-8.26-8.91-15.54-2.36.76-1.58,3.54-2.68,4.68-2.81.92-3.79-1.23-5.6-3.96-2.25,1.82-1.99,4.39-3.23,7.38-2.29-2.6-2-5.3-3.67-8.12-1.46-2.47-4.31-2.34-6.15-2.07-2.77,1.18-5.53.23-6.24-2.02,4,12.74-9.61-21.74-7.1-10.86-2.59,1.7-3.98,3.96-5.79,6.59-4.09-.39-3.3-6.45-6.63-8.27-2.03-1.11-4.37-.49-6.68-3.3-2.89-3.51-6.89-5.28-9.1-9.92l-4.27,9.64c-2.11-2.63-2.6-4.95-3.89-6.99-1.6,1.45-2.54,3.08-4.21,3.13l-4.55-7.84c-1.44,3.14-4.52,6.38-7.21,5.37l-5.91-15.42c-1.07,6.28-3.04,11.29-8.39,13.92-1.38-6.85-.91-12.19-1.29-17.93-3.2,5.7-3.73,10.57-8.05,15.24-2.87-2.07-4.3-5.59-6.62-9.36l-6.12,4.35-4.93-7.42c-1.43.43-1.81,2.01-3.63,3.22l-7.36-12.32c-3.74,2.68-3.41,6-5.46,8.61l-6.53-16.2c-2.38,1.17-2.14,3.13-3.77,4.17-1.74-5.64-1.07-10.1-3.78-14.35-1.63,4.29-.71,7.85-4.76,10.59l-5.13-7.23c-1.4-1.98-3.68-2.97-3.14-5.14-4.28-.12-3.17,3.77-7.19,4.02-5.22.32-4.42-7.85-9.77-10.57-1.8-.91-3.53.99-5.45,2.04-2.17-11.95-6.57-4.93-9.1-9.87-4.34-8.49-4.15,6.57-12.97,5.22-2.73-2.62-.25-7.08-2.14-11.04-2.82,4.78-2.72,10.03-7.22,14.88-1.85-2.72-1.86-4.98-3.35-7.84-3.27,2.45-1.85,8.67-6.56,13.54-2.57-2.71-2.63-5.1-5.1-8.95-4.52,3.49-8.51,6.34-12.88,10.53l-4.3-4.14c-1.44,1.6-2.24,3.24-3.45,4.18.24,3.09-1.56,5.51-4.4,7.73-3.39,2.65-4.28,8.61-8.2,10.31-3.51,1.52-4.22-3.68-5.51-6.32-3.02,4.72-4.55,8.89-6.34,14.38.04,2.67-3.07,1.93-.21-.77-1.98-3.97-4.03-7.33-5.5-11.61l-6.4,14.25c-1.48-1.62-1.6-3.88-3.92-4.91l-5.72,18.14c-2.36-1.09-3.01-4.04-4.99-7.32l-8.18,15.51c-2.54-1.46-2.46-3.62-5.02-5.82-2.13,2.53-.73,5.25-3.25,6.62-2.6-4.11,1.11-6.99-1.84-10.28-1.23,5.5-2.59,11.89-9.16,14.51-2.59-1.08-3.46-5.47-3.3-8.54-.6-2.22-2.16-2.19-2.69-.11.46,3.81-.29,6.32-2.96,7.59-2.31-3.65-3.77-6.27-6.12-8.73-3.54,2.95-3.27,8.02-7.7,7.42-1.36-.18-1.97-1.96-3.86-3.53-7.19,10.18-2.79-6.66-13.04-4.65-.12.93.45,2.44-.34,3.95-3.18,1.03-5.65-1.73-5.21-4.21.55-3.09-.7-6-1.98-8.71l-4.21,7.41c-2.08,3.67-5.08,5.14-5.82,10.19-3.49-3.49-3.4-6.94-6.52-8.84-1.95,1.26-2.35,4.84-3.83,6.16-2.77.07-3.39-2.91-4.86-6.02l-4.66,7.33c-3.75-2.03-2.5-9.02-7.03-12.51-2.42,2.1-3.56,17.91-7.68,9.58-.45-2.72-.81-4.56-2.83-4.54-4.37.04-3.85,9.54-5.68,6.51l-2.23-3.71c-.96-1.6-4.41,4.24-2.61,7.76-1.08,2.43-2.31,1.89-2.76-.44.13-3.36.54-6.48-2.08-9.11-8.59,16.86-6.29,5.14-11.01,16.64-3.31-2.91-4.17-7.1-4.59-11.3-1.23.25-2.49.36-3.74.28-.05,3.14-.31,6.22-2.18,9.87l-5.29-8.33c-1.85,2.86-1.6,5.6-4.9,6.6-2.09-.86-1.69-3.49-4.22-5.1-2.6,2.11-2.27,4.82-6.2,6.88-1.82-2.81-.13-6.13-2.78-8.43-2.05,4.51-.12,8.17-3.21,11.91-.99-2.13-.95-4.25-2.77-5.83-1.4,2.06-.65,3.19-.75,4.15,0,.96.27,2.02-.25,3.79,0,0-449.56,4.26-449.73,2.18-.17-2.08-4.03,844.03-4.03,844.03h2919.65l-7.65-932.34Z" fill="#8ba37c"/><path d="M0,796v-10l2.22-.24c1.42-.93,1.56.55,1.8,2.21.68,4.1-.65,7.5-4.02,8.03Z" fill="#83a47a"/><path d="M1022.57,899.72c-.08.07-.17.14-.25.22-.03-.06-.06-.12-.1-.18l.35-.04Z" fill="url(#b)"/><circle cx="1043.01" cy="899" r="1" fill="url(#c)"/><path d="M1053.55,896.39c-.11.06-.23.12-.35.18-.02-.04-.04-.09-.05-.13l.4-.05Z" fill="url(#d)"/><path d="M1061.29,895.56c-.07.16-.14.32-.21.49-.16-.13-.3-.28-.43-.42l.64-.07Z" fill="url(#e)"/><path d="M1563.25,959.1c-.19-.29-.37-.6-.55-.91,1.96-.15,1.84.23.55.91Z" fill="url(#f)"/><path d="M2289.14,763.76c-.33.16-.67.3-1.03.43-.1-.07-.2-.17-.28-.29l1.31-.14Z" fill="url(#g)"/><path d="M2780.89,749.98c-1.58-2.1-1.2-4.57-.37-8.16,2.34,1.15,2.12,3.4.37,8.16Z" fill="url(#h)"/><path d="M2874.9,723.51c-.04.25-.09.08-.17-.74.03.27.08.51.17.74Z" fill="url(#i)"/><path d="M2890.34,699.66c-.26-1.57-2.16-1.36-4-2.12l-31-12.76c-17.7-7.28-33.77-16.39-49.9-26.37-1.38-.85-2.97-.66-3.62-1.64-.12,1.31-.41,2.5-1.3,2.53-.87.04-2.92.41-3.58-.16-4.6-3.97-8.61-1.85-13.69-1.63l-18.63.78c-2.17.09-4.18,2.26-6.51,1.44-5-1.77-8.52.09-12.79,1.52-5.44,1.83-11.39.96-17.27,1l-12.02.08c-36.98.24-30.18-5.57-51.84-5.12-3,.06-1.97-5.55-.55-6.44-7.95-.19-15.91-1.33-23.87-.09l-43.27-1.29c-58.25-21.75-111.56-27.51-170.58-51.08-25.86-10.33-65.67-45.59-86.86-65.13-1.69-1.56-2.69-3.16-2.97-4.81-4.88-.6-6.27-6.66-11.69-1.95-7.27,6.32-7.58,11.04-21.83,7.23-9.46-14.32-17.52-28.75-28.99-41.34-4.13-4.53-42.33-33.29-48.04-35.16-13.15-4.32-27.91-.26-41.51-3.34-13.47-3.05-24.56-10.61-36.2-17.47-2.58-1.52-5.22,1.5-7.02,2.88l-69.09,52.79c-2.81,2.15-5.27,4.28-8.14,4.75-4.59,5.39-10.98,9.31-17.75,13.36l-59.6,35.69c-1.4.84-3.23.74-3.85,1.56-3.59,4.72-10.33,5.33-14.71,8.47-6.16,4.43-12.21,9.91-20.48,13.01-33.11,12.4-30.23,7.23-53.12-.87-4.54-1.6-7.08-1.52-10.57,1.64-5.86,5.31-26.2,23.04-31.86,23.29-2.75,3.79-7.54,5.85-12.1,8.5-10.97,6.4-20.6,13.34-30.4,21.21-9.25,3.67-46.58,1.03-53.71,5.09l-24.07,13.69c-1.62.92-2.31,2.67-2.98,3.44-3.21.42-6.15,1.99-9.67,3.63l-30.03,14c-15.53,7.24-29.54,16.53-45.11,21.4-1.02.32-1.76,1.87-3.49,2.61l-66.22,28.13c-11.24,4.78-23.12,7.63-34.66,14.18-14.54,8.27-29.52,15.08-43.67,24.27-8.67,5.63-24.07-9.52-31.97-8.98-3.19-2.07-4.39,12.65-4.64,16.08-.78,11.05-4.29,19.99-8.55,30.01-1.45,3.42.04,7.72-3.97,10.46-6.18,4.22-13.16,14.3-15.34,16.66l-12.4,13.39c-2.27,2.46-7.21,4.87-5.93,8.59.88,2.53,21.39,4.28,21.39,4.38l21.5.44c4,.08,7.27,2.57,12.44,1.74-.19,2.73-.46,4.7-.82,6.16-1.18,4.86-3.43,4.23-7.79,7.86-2.21,1.83-5-2.18-7.31-2.32-6.05,6.96-.16,12.43-11.48,13.4,2.49,2.76-19.85,12.28-21.07,9.18-2.12.37-2.29,4.76-4.31,5.24-3.72.87-5.13,3.6-8.1,4.94l-10.42,4.69c-2.99,1.34-6.21,1.68-9.47,4.68l-3.09-10.02c-4.85,5.01-5.31,12.17-10.52,15.97-5,1.31-11.43.46-15.34,4.66-2.26,2.44-5.02,1.16-8.17,1.52-2.16.25-1.54,4.38-2.98,5.26-5.21,3.21-10.51-.06-12.86-5.81-3.51,3.77-7.77,7.7-11.87,6.35-3.87-1.27-3.61-6.55-6.47-9.15-.56,3.97-3.34,6.62-7.96,5.4-2.36,1.42-2.47,4.24-4.39,5.92-1.56,1.36-3.13.12-3.77-1.22-.52-1.1.71-2.68-.83-4.57-1.84,2.89-2.14,8.58-6.97,8.5-3.88-2.24-.31-12.47-5.33-14.14-5.39-1.8-3.78,6.39-7.8,5.96-4.19-.44-3.1-6.21-6.9-6.88-2.73,4.68-18.96,10.58-23.99,2.18-2.77,3.45-5.92,10.31-9.84,8.41l-22.33-10.8c-4.59-2.23-13.91-4.47-19.6-4.08-14.63,1-9.87-3.9-16.86-9.85-1.15,3.53-2.57,6.61-5.53,6.67-2.5.05-3.55-3.11-5.12-4.95-1.01.27-1.68,1.29-3.44,2.38-1.81-3.03-2.26-6.55-4.44-9.46-1.85,3.22-2.84,7.99-6.57,8.28-5.24.4-5.86-4.98-8.33-8.56-2.29,7.89-12.62,9.49-15.87,8.36-12.58-4.38-14.84.35-16.97.17.45-.04-4.37-2.03-6.86-5.43l-4.8.52c-1.28,3.13-2.99,6.62-5.51,6.82-2.78.22-5.12-2.89-8.16,0-.72.7-1.92.68-2.9.41-.58-.78-1.75-2.36-3.06-4.26-.1-.28-.21-.55-.32-.83l-.24.03c-2.26-3.3-4.78-7.28-5.52-9.62-1.43-4.53-5.24,1.91-10.72,8.81-.67.84-1.32,1.78-1.97,2.76l-1.81.19c-.07.16-.14.32-.21.49-.16-.13-.3-.28-.43-.42l-1.63.17c-.11.06-5.7.71-5.81.77-.02-.04-.04-.09-.05-.13l-3.67-3.85c-1.93-8.55-.61-9.27-.61-9.27l-4.42,6.43c-1.59,2.32-2.45,5.07-2.45,7.88l-3.4.37-1.5.16-1.33-.16-4.76-7.3-5-5.48-2.46,14.15-.98.34c-.08.07-.17.14-.25.22-.03-.06-.06-.12-.1-.18h0l-10.44-8.8-6.89,10.66-1.02.11-2.39-7.64-1.77,8.09s-3.51-1.31-5.19-3.57c-2.05-2.75-2.33-6.52-2.33-6s-2.38,6.19-2.73,10.67l-7.43.31c-3.59-2.86-4.84-5.59-4.84-5.59,0,0,.64,2.01.67,4.37,0,.74-.59,1.43-.59,2.22l-9.14.98c-4.34-4-5.53-8.9-5.53-8.9l-3.19,9.84-4.95.53-6.94-4.39-.34-2.92-8.71,9.03-.48.05c-.31.25-.61.69-.94,1.42l-5.57,5.77h0c-64.13-1.84-933.2-4.23-933.69-6.47l8.63,722.47h2905.58v-932.34h-21.66ZM1563.25,959.1c-.19-.29-.37-.6-.55-.91,1.96-.15,1.84.23.55.91ZM1909.97,804.47l-1.91.2s0-.07.02-.1c.21-1.15-.72-2.4.41-4.72,2.47.82,1.93,3.17,1.48,4.62ZM1987,774c-.55,0-1-.45-1-1s.45-1,1-1,1,.45,1,1-.44,1-1,1ZM2018.75,767.25c-1.17-1.3-.46-2.82.45-3.34.91,1.87,1.11,2.79-.45,3.34ZM2237,742c-.55,0-1-.45-1-1s.45-1,1-1,1,.45,1,1-.45,1-1,1ZM2288.11,764.19c-.1-.07-.2-.17-.28-.29l1.31-.14c-.33.16-.67.3-1.03.43ZM2360.34,658.22c.02-.19.44-.44,1.38-.75-.17.28-.66.53-1.38.75ZM2780.89,749.98c-1.58-2.1-1.2-4.57-.37-8.16,2.34,1.15,2.12,3.4.37,8.16ZM2874.73,722.77c.03.27.08.51.17.74-.04.25-.09.08-.17-.74Z" fill="#517863"/></svg>