<?xml version="1.0" encoding="UTF-8"?><svg id="Layer_2" xmlns="http://www.w3.org/2000/svg" viewBox="0 0 2912 1632"><path d="M2921,952s-104-27-109-27.0327-260-14.9673-264-14.9673-192-22-196-22.47c-3.2358-.3802-52.2742,17.6556-70.8955,24.5616-.5039-2.4142-1.4377-4.6746-2.9746-6.6117-13.6399,3.92-17.9099-15.2-17.47-15.2-.6899-.53-3.0698-.88-3.97.4099-2.28,3.28-3.45,6.67-3.22,9.8301.0266.3875.0776.7843.1338,1.1849.2864,2.0074.7139,4.1259-.9695,5.7587-1.8672,1.8113-4.3191,2.8082-6.8535,2.54-.2422-.0256-.4858-.0802-.729-.1293-.1191-.024-.2378-.0334-.3569-.0633h0c-.0017-.0005-.0032-.0005-.0049-.001.26,2.53-2.45,6.78-2.3198,10.0599.1899,4.9601-.9602,6.2001-5.2002,8.02-5.0898,2.2001,2.8,15.12-6.6299,16.36-6.77.9-6.3101,7.26-8.6699,8.4-1.1702.5699-3.0901.6-4.1501-.9301-7.6599-10.97-31.6899,3.14-28.4199-16.97-1.6799-.1699-3.29.6-4.25.29-1.47-.47-1.77-3.29-2.22-5.26-3.9502-1.4301-6.1602,3.4099-9.79,5.5699-3.7,2.2001-10.8701,2.3099-14.1802-.6-4.0898-3.6-2.5298-9.55-2.9897-14.74-4.3201.95.0698,6.1699-9.9001,12.26-2.3601-2.27-.54-5.16-3.3298-6.54-1.4001,3.0701-1.6401,5.4399-3.9302,7.38-2.4399-.5699-2.8101-4.4-4.6899-6.65-1.53-1.8199-5.23-1.6499-6.3301-4.6l-4.4399-11.84c-2.1599.36-.3401,1.9199-.22,3.6699-5.53,2.97-4.75,20.2001-11.3899,14.52l-7.9702-22.23c-.79-2.2,2.3-5.27-1.46-6.2.5701,4.08-1.8699,6.1699-2.29,8.54-.2925,1.6425-.4949,7.9653-3.2529,11.606-.9197,1.2145-2.124,2.1311-3.7109,2.4768-3.1323.6823-4.7808-.8198-5.7034-3.2155-2.2766-5.9041-.1187-17.2679-4.7427-14.9274-4.98,1.53-2.48,11.61-8.77,9.97-3.3401-.87-4.21-4.74-6.1499-7.83-1.0601-.8199-2.4402-.11-1.72,1.1v.0005s.0007.0005.001.0008c-.1177,2.2087,1.2007,4.9435-1.0942,6.6826-1.6143-2.8704-.4917-4.7797-.7583-6.5326-5.5996,5.3307-12.1484,18.4482-13.1885,12.7986-.4102-2.21-.3201-4.24-.8401-5.08-.6899-1.1-1.8699-2.0399-3.6799-1.76-1.3201.37-5.01,2.53-5.8601.28-1.24-3.3099,2.72-4.28,4.6902-3.84-.6802-2.0601,1.3999-4.65.3699-7.3401-8.5901-5.8999-2.25-3.9099-7.46-10.8099-1.73,1.22-1.71,2.5-2.1902,3.16-.8799,1.21-4.5999,2.1899-5.9697.47l-6.3801-8-4.53,13.6599c-7.8-3.7899-2.21,5.28-9.45,14.76-2.1599,2.8201-2.5801,5.3801-3.0801,7.8801.4128-.1877.9395-.2851,1.521-.2982,2.3025-.0552,5.4646,1.2195,5.8577,3.4531.0369.2075.0552.4213.0415.645-.2273,3.6738-2.0332,6.7591-4.4966,8.0255-.895.4611-1.8745.6884-2.9004.6071,1.3386.845,2.425,5.3676.2368,5.4675,0,.01-.0601.02-.1699.01.0601,0,.1199,0,.1699-.01,0-.24-10.59-2.75-11.59-.59l-1.8199-13.42c-5.97,6.1201-.78,19.98-8.0801,23.64-2.8101-2.0299-4.4399-6.0499-7.05-9.6901-4.46,4.78-4.72,9.8601-7.1299,14.52-3.41-3.5599.35-6.1399-1.6301-10.3099-2.45,1.01-.8799,3.26-2.21,5.76-2.53-.99-3.4299-4.01-3.76-5.9401-.4568-.1073-.9175-.1667-1.379-.1984-.8706-.0579-1.7441.0111-2.6056.1717-.3406.0644-.6804.1343-1.0154.2267.98,3.08-5.52,4.24-5.51,10.5199-.1399,3.9401-2.5599,4.53-3.8699.8401-.6501-1.91-1.28-3.1899-2.5701-1.76-.1011.1653-.1875.3771-.2701.6049-.3883,1.0732-.6709,2.6527-1.6387,3.3671-.1115.0832-.2198.1706-.3512.228-2.71-.4299-3.3101-2.9399-3.51-4.73-.1272-1.1714,1.7896-1.9675,3.0087-2.5486.2169-.1042.4144-.2026.5719-.2946,1.6897-12.9059,2.9491-7.6583-1.1206-24.2867-2.83,3.0399-1.0898,7.3398-5.1099,10.1299-2.29-4.51-.9102-8.4199-5.7001-11.29-3.17,19.92-3.88-.8099-3.77,23.1201,1.2101,2.8599-2.38,2.98-3.0599-.1401-1.23-1.7599-2.6201.1001-2.74,2.2101.4099,3.4401-1.5601,5.4701-2.3301,8.3099-.55,2.03,2.0701,3.2001,2.48,4.2001-1.1799,1.0299-2.51,1.62-2.77,2.6-.4199,1.62,1.49,2.25,3.8601,4.15-2.6001.9301-4.48.99-6.16,3.86-1,1.7-1.36,3.5601.47,7.25-2.65,4.98-7.4401-7.1799-9.33-9.85-4.17,3.85-5.23,9.42-7.87,15.64-1.37-1.3201-1.14-4.39-3.85-5.38-1.8601-.6801-2.6801,2.7999-4.0601,4.92-2.51-1.1401-2.78-3.78-5.27-5.98-2.47,2.3398-2.6,4.72-4.8799,7.6499-1.6901-2.98-4.3501-3.36-7.8401-1.8999-3.5701,1.5-8.22-15.6702-7.99-17.3901-5.95,8.0601-3.37,16.4-9.91,21.52-2.2899-3.03-3.22-5.53-4.65-8.8-3.9299,1.3701-4.4299,12.6201-10.6699,14.7201-9.7,3.2699-19.1801,4.9301-28.91,5.67-.87-.8301-1.9-2.6301-2.59-3.1001-1.25-.86-3.27-.23-5.47.96-2.23.2301-2.5601-3.2-5.0601-5.3999-2.4199,2.8-2.3,5.6399-3.88,8.49-2.6,4.7-16.74,4.73-20.12,4.5801-.6899-.03-1.39.0099-2.0601-.2101-3.21,4.61-8.84,3.33-14.1199,2.75-6.8601-.77-20.8701,8.17-24.23,6.64-1.1901-.55-1.3901-2.66-3.01-3.9399-2.1501,2.97-1.9701,6.8298-5.1201,7.5599-14.4099,3.35-27.8699,7.49-42.1199,11.37l-15.6201,4.25c-8.09,2.2-15.04,4.6599-22.05,7.23-6.4199,2.36-13.2699,4.22-20.3298,7.3301l-12.4801,5.49-14.6,7.0399c-1.9299.9401-2.95,3.63-5.55,1.1901-1.1699-1.1001-2.3899-1.6101-3.5-1.3101-3.1599.8601-2.3799,5.87-5.75,5.49-1.0699-1.3899-1.29-3.6399-3.58-5.72-1.7899,2.1799-1.37,4.9-4.4,6.14-1.5601-1.4501-1.85-6.03-4.3201-6.02-3.3099,2.83-3.1499,5.59-5.22,8.23-2.3899-2.0599-.9199-4.46-3.8799-6.5199-5.3501,10.5-9.16,3.1699-12.5801,9.8298-.7778,1.514-1.6302,2.5522-2.5078,3.2688-50.7661,9.5872-87.7078,23.1417-92.9722,25.3213-2.1891.9063-12.6344,7.3873-26.3279,16.1101h0l-173.6057-46.2946c-1.2371-2.1736-3.3401-4.106-7.2904-4.3948-.1503-1.9562-1.8275-13.8532-3.7284-6.9482-1.092,3.967-2.1,8.0905-5.9845,9.7906l-6.4006-12.0697c-3.4923,3.6961-3.2438,7.3109-5.5636,12.0922-5.0908-5.6054-6.8926-18.9197-8.9503-20.0156-.85,6.7394-.7087,12.1263-5.6847,16.8424-3.7734-5.6797-5.2903-10.3885-7.5581-15.2501-1.4686,4.4077-4.3235,8.254-8.3569,7.1998-3.6023-.9415-5.0188-5.2426-6.2078-7.5659-3.7925-1.6759-5.1768-5.2446-5.101-9.5892l-5.0883,10.6616c-4.7896-5.6475-.5574-7.052-7.4651-13.6992-1.6807,2.2151-3.7375,2.706-4.2655,5.3417-1.0454,2.7388-2.847,1.6978-2.3324-1.1642-1.2987-5.2783-7.2917-23.0289-11.021-22.6772-3.0562.2883-2.9069,12.855-5.5081,19.8188.1023.3208.1381.5903.1316.8171l-1.48-1.3455c-9.7345-15.1179,1.0129-6.4608-11.2766-23.1301-2.3596,1.6193-3.9489,2.366-5.0861.2172,3.5848-1.4686,5.1678-2.8497,4.7804-5.7415-.4449-3.3217-3.766-.1464-6.3865-13.3875-1.7347-1.4182-2.6592,1.8588-4.7787,3.3171l-5.0087-12.5654c-3.1218,3.8998-1.9312,8.1412-4.009,11.4352-2.2883-.6674-3.9163-1.3004-4.7822-.6451-5.2528,3.975.1147,9.9879-4.3813,8.2555-7.9883-13.8592-3.5691-17.5018-12.698-25.8004-.8376-.7614-.4076-2.9091-1.7515-2.8996-1.0466.0073-2.2366-.3384-3.7881.5834-8.4041,4.9926-4.127-13.5637-8.3854-20.0675-9.962-3.4771-.7701-5.3229-7.3973-13.9563-1.865-2.4296.2957-5.7942-2.8053-7.5764-1.6405,6.0073-2.2987,10.6437-6.694,14.6965-2.5786-.9007-1.4242-3.6466-2.2886-6.5869l-4.1211,5.2607c-1.2041-2.1458-2.5544-2.9229-5.2029-3.6432,1.8252-2.7704,2.9106-7.0288.3762-9.15-3.6791,1.8625-1.6873,6.4066-3.4597,8.5613-1.8076,2.1973-4.0934,3.6603-2.4993,7.4458-1.0359,2.0432-2.2769,2.059-2.8638-.0931.7942-2.8286-.6162-4.5439-2.3188-3.915-.6682.2468-1.324.9756-2.9183,1.474-.0419-13.5162-4.0563,1.6044-9.8019-18.523-7.1396,2.7544-4.1472,10.9014-9.2488,16.3416-3.0378-1.6145-12.4011-17.4489-9.0114-21.8683-.7782-2.0132-2.0962-2.0807-2.6506.1037.4537,3.0027.5768,6.6786-2.0356,7.8031-3.0465,1.3113-5.6888,1.5081-7.8353,4.7249l-6.9885-5.1592c-.7344-6.799-.7759-13.3896-4.0054-19.4453-2.6604,14.0104-4.6394,6.9498-5.4851,19.85-2.2264-.4794-2.9634-2.2513-4.7471-3.0195-1.5925,3.9539-3.2775,9.7986-5.5035,10.519-1.4739.4769-4.9894-3.3851-9.3083-7.3942-5.8411-5.4222-4.7344-14.209-7.7231-20.9147-2.2765-5.1077-.0717,7.4401-7.0477-14.3325-9.0528,12.1656-8.1625-.791-11.8539,13.7647-1.8462-1.8699-1.9584-4.5258-2.4653-6.8506-.0714-.1127-.1075-.2788-.1118-.5001-.0029-.0114-.0048-.0234-.0078-.0347-.1998,2.5842-16.9717,12.3333-21.2956,10.8039-.8321-4.3194-.8765-10.4492-5.2887-13.7615-11.9182,8.3732-3.6172-8.3107-9.4759-14.0161-.4847,4.7113-1.6555,8.0071-6.6499,8.0882,2.4502-9.5193,8.1501-7.1782,4.1107-16.7199-1.3817-3.2637,1.1353-8.1192-1.9421-11.2944-3.0654.8065-3.8919,4.1569-4.0883,6.0862-.2012,1.9766.3641,3.7012,2.2298,5.4013-2.3934.9758-4.4675,1.0516-5.7837.2286-1.1963-2.1652-.2459-4.3896.0684-6.0288.5163-2.6927.3314-6.2762-2.5984-7.3334-.9073-.3274-2.0493.3306-4.0465-.9407.9496-1.4897,2.1847-2.7985,3.6476-1.7784-.3637-1.3505.9911-3.5971.1631-5.2157-3.35-1.8409-4.6105,1.4226-7.9781,1.5071,1.7273-4.9996,4.2627-7.7603,2.1526-11.6829l-5.1136-1.0209c-1.9869-4.4821-.2897-8.7291,3.1221-13.7497-3.9341-4.2205-8.3763,7.4365-11.8373,5.303-7.3753-4.5463,5.3228-12.0239-3.9173-28.5797-6.7264,4.4966-8.3229,23.534-7.969,22.1581l-2.5006,9.7228c-2.0912,8.1309-2.9714-.3242-8.2182,1.985-1.3728.6042-1.3122,2.3914-1.4626,3.7775,2.1859-1.8704.8095,4.7226,3.418,5.9839,1.2523.6055,2.808-.2849,4.4174.7346-.8006,4.7973-8.1155-1.6655-9.7934-.4717-1.1244.178-2.2346-.8284-1.937-2.0262-1.5519.2435-3.5878-.5391-5.8229.6678-1.5899.8585-1.1758,2.8981-.8752,3.6628,1.3518,3.3629,4.187,6.5677,4.0057,10.751-1.6646.8853-3.1068,1.881-4.2209,4.9576-.6978-.8207-.8433-1.9689-1.5812-3.0113-.6536-.9234-2.281-1.1772-3.6366-.8759-1.1406,2.3509,1.2961,5.189,1.2242,7.8155-.4626,1.9672-4.1586,20.9481-4.8562,11.902-1.2839-4.2502-1.4016-8.3101-5.006-11.383-1.0183.8942-1.1594,2.9772-3.6615,3.6183-1.7579-2.1669-1.7084-5.1333-1.9892-7.4436-.8568.7619-2.0898.7568-2.9449-.0052.6717.988.5341,2.2313-.0892,3.2021,3.1829-1.4266-1.6341,10.262-1.5682,10.2332-5.6714,2.4788.564-3.4919-1.4922-10.0495-.9797.3813-1.361,1.7805-3.5964,1.543,1.7056-3.4252,1.0569-6.5118.4257-9.5587-1.4514.2306-2.9258.3138-4.3884.147-.6476,2.5643-2.603,4.7657-2.3516,7.5013.0779.8488.7132,2.0428.2889,3.2211-.6365,1.7679-2.7377.9326-4.121,1.1148-1.3971.184-2.7503,2.8611-4.7155,1.4465-1.044-.7515-1.3781-2.8274-2.0782-2.8284-4.657-.0063-2.3633,8.8567-6.6183,9.4291-.9003,1.7863-.2096,5.4383-4.5008,5.8186,1.3382-2.5568,2.7022-3.935,2.1071-6.1283l-6.2792-2.2344c-2.9904-1.0641-3.3007,1.7567-4.6591,4.579-2.2695-1.5082.8758-2.6878.1559-4.4388.2073-6.8757-.3843-12.7181-4.4788-17.9591-1.3314,6.3774-5.3844,8.4124-5.3313,11.3282.0333,1.8304,1.5286,2.7219,2.6503,4.6511-1.9168.3067-3.617-2.1075-4.5917-.5823-1.5128,2.3672-.7661,5.0952-1.382,7.2232,3.8134.5439-2.3842,9.1155-3.5266,9.5718-1.2383-2.2755-1.1778-3.4919-2.3947-3.7397-8.0593-.4297.6559,5.9078-7.6171,15.6404,1.4338-5.4821-.7021-10.4686-4.5497-15.9523-1.7196,2.3573-1.456,4.202-1.9907,5.9916-.247.8265.7576,2.8345-.4531,3.7438-2.4893,1.8698-3.2697-.7525-4.4645-3.6111-2.0253,1.193-.1397,3.5628-1.924,6.1866-2.4377-1.8325-.6186-4.453-1.1743-6.5293-.6474-2.4191-2.028-4.5968-2.021-7.1497-1.0672.85-2.5054.7333-3.6168.021.2819,1.0417-.0754,2.2131-.126,3.2599.995.1882,1.5034.8313,1.7219,1.5551.1573.5209-3.0717,8.2412-3.5051,6.7062-.864-2.5671-.6217-4.2546-.7523-5.8414-8.5712-16.6074-4.0509-6.4335-5.58-16.1365-6.3641-.8448-1.8691-9.0375-8.1102-10.0052.233,1.9429-9.3625,18.2143-10.3358,24.6466-1.76-.2892-3.6895-.41-4.7781-1.5558-1.4739-2.4778-.0289-6.0489-1.6536-8.0835-3.6782-2.2449-4.6663-4.8082-2.6261-8.9918.7515-1.5409.274-3.9235-.1271-4.8628-.3665-.8583-1.3271-1.3478-2.6105-1.1842-.0038.8333.5642,2.2596.1138,3.0514-.8842,1.5543-3.0983,1.1476-4.9446.9175-1.5735-.1961-1.0056-2.4854-1.038-3.9374-.022-.9879.3976-1.7268,1.3701-2-.2764-2.7431-.3945-5.7194-.1365-8.4724-1.2518-1.2979-3.0073.4961-5.1577.2413.5191-2.5352,2.3069-3.9102,2.0605-5.9368-.478-3.9326-1.2144-5.1314-3.1535-13.374-1.4013,4.6436-9.6147,25.5048-10.1373,29.064-1.201.3865-3.0217.2659-4.5377.8789l-.8807,9.3671c.0402-.4274-4.7242,4.7316-6.6707,8.3895l-7.466-7.8235c-.6332-2.6401-2.0464-3.0228-3.8154-3.998l-29.4749-32.3359-24.6735,14-6.9309-18.4756s-22.4024,9.8089-26.4024,14.4756c-4,4.6666-8-21.4342-8-21.4342l-26.6667,6.9586v-6.9586l-48,3.7099h-39.9409l-1.1398-1.6641c-2.2761-3.4045-4.7784-7.6143-7.449-11.7283-.6937-.7567-1.41-1.4937-2.1183-2.2397l-5.399-7.8825,1.3805-34.735,4.6407-16.5966c.5196-.8103.8737-1.7252.868-3.0883-.0019-.0009-.0039-.0015-.0058-.0024.0024.0015-.0032.0001.0014.0023-2.8968-1.3747-6.0965-2.13-9.5826-2.1371-2.0915-.004-4.286.2614-6.58.8239-.8433.2068-1.6502.3078-2.4356.3311-4.1812.1253-7.7512-1.9556-12.9376-2.0405-2.259-.0365-4.8294.313-7.8856,1.381l-3.3002-.1375-9.589-18.9818c-2.8126-2.6846-3.9337-5.8128-3.7217-9.7113-3.487.2406-6.6094,1.8474-10.0019,4.583-.0008-.0006-.0013-.0012-.0021-.0018-.0007.0006-.0014.0011-.0021.0017-.0139-.0125-.0253-.0244-.039-.0367-.8734-.6736-1.4266-1.3614-1.8521-2.1237-.6414-.9965-.8608-1.8129-1.0051-2.3944-.0923-.2635-.1913-.5394-.2933-.8257-.2491-.3008-.7435-.1661-2.1758.5303-.9441.7857-1.8677,1.7357-3.1119,1.5678l-.0017-.0002c-.0008.0004-.0015.0007-.0023.0012-.0087-.0018-.0188-.0034-.0275-.0052l-4.5334-.6114c-1.9347-.1982-3.9946-.3856-5.7997-.6469-1.139-.0802-2.168-.2012-3.2379-.6766-.0075-.0024-.0164-.0045-.0239-.007-1.7676-.7928-.8663-4.2969-4.3054-5.1152.8216,1.5571,1.5059,3.4708,2.0838,5.5577l-17.4854-1.376c-.2278-2.0612-.8663-3.6537-2.0394-4.3897-.0013.0059-.002.0125-.0033.0184.0684,1.7485-.0474,3.1161-.3043,4.1866l-12.3105-.9688c-.0953-.0638-.1915-.1264-.2865-.1903-.0024.0002-.0046.0009-.0071.0011-.0942.0499-.1724.0961-.2637.1453l-13.0091-1.0237-2.5622-.0864c-.8727-.2151-1.55-.7178-1.5284-1.809-.8047.1785-1.5864.2021-2.4432.3746-.9594.3181-1.8904.7371-2.6925,1.2097l-22.3228-.7526c-.8019-2.0276-2.4316-3.5922-6.2823-3.6302-2.1581-.0212-1.9227-2.9268-3.1729-5.444-2.7721,4.6451-8.3499,5.1797-13.0442,8.3157l-17.9235,2.1856c.0626-.4226.1756-.8751.3859-1.3843l-10.8593.0083c-1.9911.2326-3.832.684-5.5064,1.4519l-21.4798-24.8322v14.2551l-13.3334-14.2551-6.6666,23.1739-14.6667-23.1739-9.3758,24.516h0c-59.5393-13.1604-122.6242-24.516-122.6242-24.516,0,0-2.613,920.0644,0,924.3243s2912,0,2912,0v-604.1896c5.2834-.5262,8.4092-.8104,9-.8104,9,0,0-75,0-75ZM2070.4429,916.7057c.1023-.2463.2178-.506.3572-.7958.0852.0488.166.1143.2463.1796.7107.572,1.1614,1.7426.4409,2.8391-.0703.1077-.1333.216-.2273.3214l-.0007-.0004s-.0002.0002-.0005.0004c-.061-.0216-.1021-.0477-.158-.0705-.5469-.2215-.8435-.5029-.9446-.8712-.113-.4086.0054-.9279.2866-1.6026ZM900.1697,911.3716c.298,5.1653-2.1227,5.7742-2.4337,1.1058.2286-2.3171,1.3164-3.2159,2.4337-1.1058ZM839.0061,864c.5523,0,1,.4477,1,1s-.4477,1-1,1-1-.4478-1-1,.4478-1,1-1ZM835.0061,862c.5523,0,1,.4477,1,1s-.4477,1-1,1-1-.4478-1-1,.4478-1,1-1Z" style="fill:#5e8268;"/></svg>