<?xml version="1.0" encoding="UTF-8"?><svg id="Layer_1" xmlns="http://www.w3.org/2000/svg" viewBox="0 0 3645.4989 1632"><path d="M3278.7494,662c-3.2078,1.5616-1.7104-8.8314-2-8h2v8Z" style="fill:#688d6f;"/><path d="M3260.9489,692.0367c-1.6394-.3386-2.0674-1.4877-.2834-1.958l.2834,1.958Z" style="fill:#517863;"/><path d="M2904.7973,1031.0168c-.0671.0329-.1296.0734-.1985.1035.0867-.0379.1492-.0718.1985-.1035Z" style="fill:#122521;"/><path d="M1375.3204,1417.9772c.0588.0157.1139.0161.1737.0361-.0742-.0249-.1289-.0343-.1737-.0361Z" style="fill:#122521;"/><path d="M2483.9506,1260.6975c.0205.0431.04.0801.0605.1226.1055-.0938.0974-.1396-.0605-.1226Z" style="fill:#122521;"/><path d="M3783.3188,1084.3334c-2.5969-2.6139,1.3269-7.4659-1.6372-9.9537-3.0452-2.5557-4.6562-.6358-7.7017-3.1915-3.043-2.5539-4.8516-.3988-7.8948-2.9527-3.0403-2.5517.3013-6.5333-2.7393-9.085-3.042-2.5531-10.2629,6.0507-13.3049,3.4976-3.0413-2.5524-1.7046-4.1452-4.7458-6.6976-3.0413-2.5524,2.1345-8.7193-.9067-11.2717s-11.3333,7.3279-14.3748,4.7755c-3.0398-2.5513-2.9177-2.6967-5.9575-5.248-3.0386-2.55,4.0105-10.9492.9722-13.4991-3.0413-2.5522-2.9141-2.7037-5.9553-5.256-3.0408-2.552-4.1821-1.1921-7.2229-3.744-3.0405-2.5519-1.3335-4.5863-4.374-7.1382-3.0413-2.5523-4.9756-.2474-8.0168-2.7997-3.0408-2.5519,1.3599-7.7953-1.6809-10.3472-3.0398-2.5512-11.5254,7.5596-14.5652,5.0084-3.0408-2.5518-4.0686-1.327-7.1091-3.8789-3.0398-2.5511,3.4263-10.2556.3865-12.8067-3.0398-2.5513-6.0447,1.0289-9.0847-1.5223-3.0391-2.5508,2.5081-9.1604-.5312-11.7112-3.0403-2.5515-7.5093,2.7733-10.5493.2219-3.0386-2.5502-4.7183-.5489-7.7571-3.0991-3.04-2.5514,1.9702-8.5212-1.0698-11.0726-3.0388-2.5504-3.6414-1.8326-6.6802-4.3831-3.0381-2.5498-.9138-5.0809-3.9521-7.6307-3.0398-2.5511-5.4021.2637-8.4417-2.2874-3.0388-2.5503-2.158-3.5999-5.1968-6.1501-3.0376-2.5493-7.5542,2.8325-10.5916.2832-3.0381-2.5497.3577-6.5956-2.6804-9.1453-3.0403-2.5515-8.145,3.5311-11.1855.9796-3.0378-2.5496-4.5657-.7291-7.6035-3.2787-3.0369-2.5486-2.9954-2.5978-6.0322-5.1465-3.0369-2.5487,2.3267-8.9394-.7104-11.4881-3.0383-2.55-9.0681,4.6346-12.1064,2.0847-3.0396-2.551,4.8237-11.9206,1.7842-14.4716-3.0391-2.5505-2.458-3.2428-5.4971-5.7933-3.0396-2.551-4.7686-.4908-7.8081-3.0417-3.0391-2.5507-9.1096,4.6824-12.1489,2.1317-3.0388-2.5504-2.5745-3.1036-5.6133-5.654-3.0396-2.5508-1.7031-4.1432-4.7427-6.694-3.0391-2.5507-5.644.553-8.6831-1.9977-3.0388-2.5502,5.0879-12.2334,2.0491-14.7837-3.0388-2.5505-10.6545,6.5239-13.6936,3.9734-3.0398-2.5511-.593-5.4666-3.6328-8.0177-3.0388-2.5503-6.5317,1.6117-9.5706-.9386-3.0386-2.5501,1.4551-7.9044-1.5835-10.4544-3.0388-2.5504,1.2183-7.6229-1.8208-10.1733-3.0396-2.551-10.4939,6.3309-13.5334,3.7799-3.0386-2.5502,4.4456-11.468,1.407-14.0182-3.0383-2.5499-2.4089-3.2998-5.4473-5.8497-3.0386-2.55-8.5317,3.9952-11.5701,1.4451-3.0396-2.5507-.4729-5.6088-3.5122-8.1595-3.0391-2.5505-4.1216-1.2606-7.1606-3.811-3.0383-2.5499-2.1909-3.5598-5.229-6.1096-3.0381-2.5497-8.8335,4.3556-11.8716,1.8059-3.0381-2.5499,3.2515-10.0441.2131-12.5941-3.0391-2.5504-8.4065,3.845-11.4453,1.2946-3.0393-2.5507.3638-17.943-3.5244-17.1533-3.9246.7971,1.2373,11.6528-.6243,15.1987-1.8613,3.5459-1.2986,3.8413-3.1602,7.3872-1.8601,3.5435-5.8652,1.441-7.7256,4.9844-1.8584,3.5404-1.1111,3.9328-2.9695,7.4732-1.8596,3.5423,1.6045,5.3608-.2551,8.9031-1.8589,3.5414-2.1438,3.3919-4.0029,6.9333-1.8589,3.5414-8.0718.2799-9.9309,3.8212-1.8591,3.5414,2.374,5.7635.5149,9.3049-1.8582,3.5398,1.0234,5.0525-.8347,8.5923-1.8596,3.5422-8.5811.0138-10.4404,3.556-1.8591,3.5416.614,4.84-1.2451,8.3816-1.8591,3.5413-1.03,3.9765-2.8889,7.5178-1.8589,3.5411-.7983,4.098-2.6572,7.6391-1.8591,3.5417,4.4146,6.835,2.5552,10.3767-1.8589,3.5412-7.3484.6595-9.2073,4.2006-1.8584,3.5402,3.2839,6.2396,1.4255,9.7797-1.8589,3.541-3.9426,2.4472-5.8015,5.9882-1.8584,3.54.9988,5.0399-.8594,8.58-1.8586,3.5403-3.0098,2.936-4.8682,6.4762-1.8582,3.5396-8.3623.1252-10.2205,3.6647-1.8584,3.5405-9.0181-.218-10.8767,3.3226-1.8577,3.5388,10.3909,9.9687,8.5332,13.5074-1.8586,3.5404-9.1143-.2684-10.9729,3.272-1.8579,3.539-.2793,4.3676-2.1372,7.9066-1.8574,3.5382-1.4551,3.7495-3.3123,7.2876-1.8584,3.54,2.9026,6.0392,1.0442,9.5793-1.8579,3.5388-8.95-.1842-10.8076,3.3547-1.8569,3.5374,1.375,5.2341-.4819,8.7715-1.8572,3.538-2.7085,3.0912-4.5657,6.6292-1.8586,3.5407-7.8906.3743-9.7493,3.915-1.8584,3.5397-.2083,4.4059-2.0664,7.9457-1.8586,3.5404-.5789,4.2122-2.4373,7.7526-1.8582,3.5398,9.1838,9.3364,7.3257,12.8762-1.8582,3.5399-3.7454,2.5493-5.6035,6.0891-1.8584,3.5402-11.3123-1.4226-13.1707,2.1176-1.8579,3.5395,6.7661,8.0667,4.9082,11.6062-1.8584,3.5401-4.5176,2.1441-6.376,5.6842-1.8584,3.5398-11.2808-1.4066-13.1392,2.1332-1.8579,3.5393,11.9453,10.7852,10.0872,14.3245-1.8582,3.5399-12.6057-2.1019-14.4639,1.438-1.4146,2.6946,3.635,6.1677,5.3093,9.2343-9.8381.1157-15.5669.3492-16.1335.728-7.3215,4.8945-5.9409-.0858-17.2368,7.1886-7.9749-10.7662-21.5789,1.6414-27.8315-12.8354,6.3369-1.673,9.6013-4.7554,11.2576-10.6019,14.9465-4.6929,11.927,1.1807,27.0508.532.376-4.2251.3425-9.0059,5.7612-10.3545-5.9277-7.0046-11.1292-7.696.4314-12.5573l-12.9592-1.3436c-1.5564-7.6504-9.2234-5.5398-.9075-13.4725-6.1204-5.4067-14.8511,4.4111-21.1287,9.5045-4.2327,3.4342-6.9414-9.7943-17.7063-.2852-2.78,2.4556-7.0049-.4299-10.0608-.5262-9.9578-.3136-13.916,5.9043-12.2332,4.7961-5.6951,3.7501.7205-8.2451-2.9817-11.7078,9.3848-4.5474,4.3418-7.5865,15.6985-4.1874.239-3.6475-1.0078-7.9688,1.5635-10.286,2.9478-1.8161,10.6196-2.6755,12.8872.6971,1.698,3.267,2.1189,9.4354,7.8535,7.8101,2.1709-.6153,3.4102-4.8848,7.2668-4.6842-6.3333-9.9671.8818-4.4266,2.4304-11.0804-1.8516-6.913-10.8022-8.8959-16.9128-7.0321-9.0449,2.7589-11.9939-10.0419-11.9363-10.1286,2.3474-3.5246,4.4827-7.6354,1.1631-11.6891-2.7344-.6546-5.3149,2.4822-8.033,2.1537-11.4241-1.3809-8.7659-8.0162-16.0049-19.4722-3.5696-5.6493-13.3398,3.2747-13.7715-2.7723-.2102-2.9448,6.4753-1.3759,5.4695-7.6338-13.7368-11.8329,25.4897-11.0742-7.5564-21.4642-4.7993-2.6232,6.7078-10.0533,3.2842-11.3667-12.3892,3.4736-1.99-3.128-14.3784-8.3767,3.1111-3.0489,6.9497-2.4524,9.4253-5.3426,6.1326-7.1596,9.5493,4.5837,14.9585-2.611,3.062-4.0725-.957-7.1617-.156-10.4461.667-2.7338,5.2173,2.4888,6.6377-.8354.2864-.6702-1.8201-24.3021-16.5383-21.6248-.7622-2.4018,1.3774-5.0438-.8396-7.8251-3.7932,1.5512-5.376,3.8372-6.9758,5.3614-6.843-5.6899,4.4512-20.4074-5.5647-24.0802,14.0654-2.0547,14.8743-15.1801-1.0505-13.1927-.5603-3.252.0813-7.6737-3.3589-8.8956-7.0005-2.4866-9.3567,6.9532-12.3235,8.3061.4033-6.0154-2.6343-7.9893-6.1719-6.6178-5.1799,2.0083-1.5781,8.6577-6.0498,9.6816-10.1729-.1339-.5007-15.1274,1.1497-21.0634,7.324-1.1085,10.7708-7.5752,9.6963-13.4911-5.7046-.3391-11.5386.1913-17.8389,2.408.6746,9.1551-5.3254,8.1809-3.981.2489,3.0322-11.2593-6.4812-2.5516-4.532-19.187-10.9893,1.3601,4.4646,16.6851-12.2734,22.3479-7.9136,6.8979-6.908-2.8965-12.3308-4.7255-3.3328.2853-3.8447,3.9517-1.854,6.5866-11.9709-1.9557-.1208,4.5681-11.5164.5256-7.3213-2.5972-.7676,8.4221-8.8838,13.6651,3.6169,4.9315,9.4302,7.2765,14.887,7.9728-4.6724,5.541,11.5867,7.5856.1606,7.4869-3.2375-2.4821-5.7771-5.3065-9.6062-5.3292-9.5493-.0567-4.6123,9.1004-8.1726,11.4484-2.3777,1.5681-12.3835.1234-11.8892,4.5823,2.0591,3.1857,6.4033,1.9087,9.0459,3.2178-2.4976,8.6263,6.8181,3.2568,10.6882,2.9638,5.6135,4.813,4.8064,8.7045,13.7725,8.5378.3782-3.6704-1.3118-6.9728-5.6689-8.846.2727-2.0259,1.7141-2.5694,3.8782-1.564,3.1716-2.092,7.6555-3.7711,10.7351-.6723,1.2236,6.5437-12.6174,2.2874-6.7891,14.6705-3.3293-4.2111-11.2778-.9588-14.9758-.1914.0088,1.5055.5989,3.0782-.4253,4.4042,2.04-.8754,2.2349,1.9848,4.6482,3.7983,3.2043,1.064,2.7849,1.9472-.5537.9136-4.3577,2.6606-7.03,1.7376-9.7844,1.3091.5393,1.3755.7729,2.8353-.0894,4.147,3.5608,1.3578,5.5159,5.2508,8.1936,8.2156-.2397,1.8326-.7568,2.2569-2.2463,1.3277-5.7869-1.7993-9.4338-3.3209-14.2937-3.6798,1.1743,2.8887-6.1777,2.6357-4.5354-.147-3.1746.338-7.1421,1.9155-10.2205.2677,1.1938,1.5719.2371,5.1742-2.3728,4.252-3.0437,12.7166,8.0046,6.8792,8.9075,18.3693-1.5322,10.697-9.4053,3.2588-14.5305,6.7879-2.3354,2.5124-3.3784,5.6005-6.6985,7.7427.9182,2.6398,3.7283,3.1472,3.2595,6.142-8.8201-8.157-1.8713-.672-16.1218-5.4535-5.1899,8.6486-6.969,2.7816-14.1462,6.799,3.5154,4.4472,16.262-2.3639,17.9834,9.46-6.2874,2.994-12.2219,5.3255-17.4961,8.7509,8.0156,6.6848-.3933,5.0028-2.2959,9.1077,4.5935-1.2192,9.5657,2.8067,14.0791,1.5521,6.5374-2.3709,13.0237-3.2099,20.2461-1.7107,1.595,6.5347-6.4922,4.4136,3.8936,12.0311-5.7004,5.5526-11.6343,10.7689-18.9753,13.2919-2.2249.7647-4.9622-2.2788-6.4958.4713-5.5178,4.0536.7498,5.2484,1.5132,9.2847-7.9727,16.229-10.3367,5.146-19.8945,4.4244.4434,4.1224,1.6829,6.4842,1.2205,10.0287-4.7976.2276-8.2805-1.6807-13.178-2.5932-.698,2.3252.8071,4.2223.4907,6.768-7.7327,1.7535-3.4175,4.0451.4883,5.9298,3.1584,1.7639-3.7732,7.7978,6.3538,14.5101-5.6011,2.2008-14.8398-5.386-21.4131.7979-1.6921,1.7185,5.1453,9.421,4.9722,10.1215-.4265,1.7268-15.9482,1.2728-12.5134,10.3229,1.2024,3.168,6.5801,4.0308,8.9822,4.9586-1.4465-3.2219,12.4719-3.8987,14.8494-4.203,7.4355,18.2677,15.0273-2.0735,35.6702,7.1333-1.7383,3.7742-6.7571,5.04-6.0449,8.2603,5.7156,11.8114-8.7781,16.1549-17.5615,12.6678-4.2126,7.9487-4.8386,1.0341-10.4861,1.9418-15.2021,5.9834-6.1479,4.6152-13.0029,12.6935-6.8171,1.3483-23.3721,1.818-15.3987,12.5612-19.7114,4.1012-8.1443,3.1359-18.2241.7592-3.7324-.88-23.8726-3.4138-24.9597-7.413-2.1726-7.9923,5.0264-9.7814,3.0088-14.1096.6501-4.4077-15.2993,7.342-15.3647,7.5111,3.4778-8.2251-4.0288-13.4589-10.1052-15.8243-.6812-3.0242-2.1755-3.1266-3.0422-.3862-1.1084,7.2504-8.2839.5743-5.4004-1.3054,8.6824,1.0459-.5205-9.7654,6.7261-5.0529,2.6519,1.8835,7.8037,4.4901,8.7488,1.1554-.0059-3.2129-1.7017-4.6924,2.2151-4.6936-1.0215-2.535-1.8438-6.3282,2.5669-6.05,4.0796.6027,5.4033-2.5643,8.2239-3.6215,2.4734-.927,5.2705-.5166,5.3606-3.4076.1548-4.972-11.6855-4.6407-13.9578-6.5034-3.5098-10.5094-11.7812-4.8567-10.6833-11.4694.5669-3.415,12.4792-4.8346,11.1357-3.973,3.4189-1.6732,4.7578-6.8575,5.5667-10.5445-14.2476-7.3644-7.4275-1.6307-19.0696-2.9219,1.4604-2.8349,4.9802-3.3383,5.3665-6.3962-3.5596,2.5628-12.7561-11.1693-10.5837-15.9951.9961-2.2126.5779-4.9942-.803-6.8594-3.4214,3.5821-5.1807,6.6596-7.5664,9.7192-1.8027-9.2786-10.1973-.2415-16.9153-4.112-9.4512,4.7487-19.4011-6.1659-29.8718.0357,5.7864-12.7937,2.6528.3244-9.7976-10.9119-2.6245-2.3687-5.4756-3.3705-4.3933-8.7739-2.7747.6221-3.3079,2.3288-5.2732,3.0871-1.4578-6.1226-5.6814-5.112-4.2227-.9877.3904.4895,2.0332,1.2107.7988,3.667-2.4326-.0888-2.5667-2.9388-4.9175-3.482.9978,4.8684-7.7197,17.0408-10.208,16.3329-5.2209-1.4852-10.0249-3.792-15.2922-1.5503-2.0283,7.8906-7.8723,1.5174-17.1245,8.4843-.1672.1034-14.3379-1.7508-11.4148-9.6223-.5254-2.4136-1.8955-2.6465-3.1648-.2949,2.1484,1.1933-.646,16.34.2268,16.7927-1.7925,1.4114-10.3357,8.7582-10.7441,8.2134l4.0798,11.6651c-5.1648.8417-9.4722,1.1776-13.8423,5.3896,8.1133,10.8622,6.446,9.7844,14.7395,16.1022-9.385-.8083-17.6089,3.0691-20.2251,11.2618,7.7043,1.3448,24.8413-.743,28.7632-3.7916,2.9834.3381,5.2083,1.5967,2.2007,2.4172-5.4065,5.5587-16.8745,7.2643-13.1482,14.7887-8.9028-.6249-7.9231.1781-13.0464-6.7437-5.5217,4.9852-6.1765,9.2026-13.3999,2.4916,2.282-2.8932.4751-5.5662.6172-8.0289,8.8052-11.012-6.394-9.5126-11.0032-18.9432-5.9956-2.8667-6.0579-7.804-16.4829-13.8787-16.8977,7.069-12.385-7.7667-20.7322-5.1556-3.8799,1.2136,3.2488,5.9751.9495,11.0803-4.1531,6.672-10.5322-2.5988-13.0586,9.8506-.9756,2.5249-3.6301,4.0747-3.0479,6.6431-6.9353-7.4932-3.626,2.5762-8.394,4.1689-.2637,17.3927,7.042,6.3827,13.3389,23.4214,1.9395,1.7815.1968,3.1075-1.7371.9275-19.3674,3.8831.1226-7.2052-25.3342-12.4749,1.4199,1.8594-1.2151,5.1777-.2637,7.243.8154,1.77,2.8604,4.4666-.1536,5.6868-14.71,10.8156-3.3286,9.7418-29.1577,9.7571-1.8821,4.9603,4.011,3.8738,7.6848,3.8354,10.9121,15.6064,12.7791,7.2864,20.1484,11.3179,9.0583-2.4165,21.1167,9.1089,29.9473,14.2037l3.8772-5.829c5.2375.281,9.7231-.1548,14.2385.8857l-.5298,13.1204c1.0005,2.1206,4.1326,2.264,5.7986,4.049l-1.0684,21.7571c-1.7874,2.9635-5.7402,3.8394-6.4497,7.6666,4.0879-.7,5.4895-4.1802,6.3586,2.2084l-.1384,69.3068c-14.0964.5604-26.8237-2.5715-40.3357-4.5343-18.323-2.6619-28.7705,5.33-44.2488,3.61-15.7136-15.9175-23.0176-7.4181-25.0225-9.0162-11.8767-12.3273-10.9414-6.9888-18.2527,2.821.0701-5.6707-.5906-9.4292-2.0305-14.3698.0186-4.6223,7.9075-8.4044,5.6169-12.2953-1.3147-2.2335-9.2688,2.7542-9.9214-.6572,3.6333-3.0239,8.7644-5.877,7.3369-10.3716-5.0408-6.9135-.2778-6.7252-3.2029-11.5123-1.6782-1.8615-6.2192.2434-7.2395-2.006-1.3162-8.051,3.9722-9.3398-6.9133-8.8456-8.7034,10.5576-1.9829,12.9603-7.6746,13.6378-.0435,1.8284.585,3.5226.9641,5.8867-1.7695,1.1218-18.9944,2.4274-10.5215,4.3899.6748,4.7546,3.5891,8.4005,6.4597,12.7195-.0115,11.5059-4.6719,12.5734-15.0444,10.3885,7.6331,13.7753-4.8901,6.705,8.5903,19.0792.2876.7917-12.78,8.9702-16.3811,4.4835-1.6653,4.9932.8044,10.0251-1.1741,14.4149-2.8591,4.6866-7.9871,7.9781-1.03,12.2231-7.1392,2.2468-8.6814,8.1968-12.8865-.5233-1.0239.9092-13.123,6.4865-10.8293,6.272-4.4963.5856-2.217-6.2495-14.7222.3709.9932,19.5541-9.1829,16.3248.2993,28.2761-6.6526-3.0929-9.2905,1.4666-13.7617-5.4723-1.1665-1.8107-3.0554-2.8662-4.7173-1.7155-3.1243,2.1635.573,7.933.405,11.1145-14.1885,1.2948-4.2383-.4385-15.7229,6.0934.7542,7.8577-4.9575,12.7568-10.827,17.6061-13.118,11.8419-8.2662,4.9075-24.6377,6.2543-3.5099.016-5.7639,4.5767-10.8693,2.4899-10.0588-4.1116-16.0978,15.8763-20.6113,19.1584l-16.1207,11.7222c-3.1115,2.2627-4.3555,5.5818-9.2332,5.0153-6.342-.7367-8.1791,11.0929-18.9796,12.955-.8236,1.6086-.787,4.3953-2.121,5.4746-34.3932,15.4971-10.4318,23.2576-56.5518,12.8104-31.5356-5.9218-9.5823-13.0159-22.4801-19.3905-8.7866-2.3669-14.6818-3.6385-13.8188-8.6598.7024-2.048,7.952-6.0935,2.0309-9.1384-6.0137,1.1659-4.0696-5.1895-.6254-6.0573-.4962-2.15,1.7867-4.8518.4478-7.4578-2.3715-4.3103-2.4832-7.908-8.3585-6.726l-4.7231,8.3455c-1.5427-5.4994.1354-10.0574,3.311-12.4294l.9634-10.2699c-17.1816-6.2904-10.2736,8.1632-22.3846-.1708-1.0873,4.1305-5.3982,15.9325-7.5046,19.7498-1.1022,1.9972-4.873,3.0348-4.7063,5.9604,1.8721,7.3655,1.7914,13.5726-7.8391,13.7253,2.0082,5.4836,12.5485,1.788,8.1364,10.7765-2.9705-1.0802-6.4812-1.8904-10.0208-.2571-7.0862,3.2698-1.4352,9.4874-4.3121,10.5656-2.2939.8597-5.2083-6.0521-12.3789-1.9932-1.9033,1.0774-3.8634,1.4698-5.4982-.3751-8.4558-9.0284-12.2271,3.9271-20.3589,4.8199-5.1947,1.3275-5.9927,15.3518-14.0333,17.5778-7.6141.48-8.0624-8.3839-17.4485-5.2167.1835,11.8047-29.5491,6.3807-36.2861,8.2925-3.7343-10.2838-7.4503,2.3678-17.5511-5.859-3.9537-3.2202-9.3645-.5831-12.6472,3.4189-3.2454-2.1514-3.5135-4.7814-6.1415-7.2783-2.7848,1.9392-5.7767,6.7067-9.3116,3.0013-1.7125-.9819-2.4249,1.3024-4.1008,2.406-3.0748,2.0248-9.125-.6458-11.5684,2.6569-5.213,7.0461,2.5641,2.8494-16.3313,9.4139-6.5308,5.4495-4.7959-3.863-7.723-4.5126-8.2551,1.3378-.5945,5.5614-1.2034,8.6519-3.5603,2.6426-7.2732,1.0206-4.2009,8.0171-2.798,2.7098-20.3506-7.314-20.972-13.5905-4.4578,2.4506-3.5789,5.7244-5.7776,8.1771-8.2765,1.3263-4.8533-.7506-7.4692,9.7502-4.8602.8729-14.6741,3.0496-19.4027,4.3925-5.7747,1.4705-16.3984-10.1165-23.2682-4.9298-4.5243,3.416-9.4309,3.558-14.816,1.5734-7.8883-2.9072-6.2745,3.3225-26.1104-4.3121-12.2921-4.3389-21.7054,15.2914-33.8359,6.0654-13.9597-11.7296-11.9523,4.3904-25.8821-4.2128-6.3501-3.9218-12.4735-.9833-18.8549.858-7.9384,2.2905-11.5524-9.6213-22.2863-2.2444-9.9307,6.8248-8.696-5.6602-22.2476,2.3627-13.0039,7.1155-8.4805-6.6724-16.429-7.7605-8.3508.9086-9.7346,9.7932-13.1226,12.5698-11.1492.8405-12.5823-17.7157-21.0612-16.9432-3.6776.335-6.3265,2.5385-10.4019.1864-2.5417-1.4669-6.2629.679-8.7223-1.5396-3.1642-6.4318-7.6375,2.8329-17.2109-3.0394-3.0286-2.1592-4.8551-1.3365-7.8872-1.189-11.1127-2.0302-9.798,7.2146-18.55,3.8184-6.1283-2.064-35.0376,5.5425-42.2462-1.3455-1.6686-.8676-2.5135,2.222-4.3755,3.3468-4.0643,2.455-9.4269,1.6031-13.3181,4.6864-7.4603,8.6715-3.1794,8.8927-15.3762,8.5078-5.9147,3.582-10.6891,6.8518-18.114,4.4672-1.1862-.381-3.6086,2.0962-5.2339.4775-8.4586-8.4246-3.5109-1.0277-17.4017-8.2643-3.8873-2.0251-6.955,2.8743-9.6923,4.9811-3.2532,2.5038-7.5549-.5717-10.5875-2.1742-6.1055-3.2263-14.1998,2.2307-16.952-5.7188-1.7344-5.0095-1.4009-1.813-17.129-6.0955-2.8055-.0367-15.9027-6.4972-16.3411-1.5647-.1083,3.7744,4.0099,7.4622,2.4481,11.1973-.8959,2.1426-4.7332,3.6429-6.986,4.4454-12.6422-7.2107-16.1737-1.9191-25.6062-15.0739-12.2752,2.6793-20.9722-4.7691-19.8033-4.7212-1.7009-.4547-2.9747.874-3.8132,3.0715-3.1692-.9425-15.2801.8643-16.5821,2.6112-1.1854,1.5905,1.238,5.0785.7285,7.3901-1.271,5.7664-4.0001-5.0364-12.5997,1.5314-7.417,5.6647-12.1184-14.8754-35.8166-10.1968-2.5433.902-3.6978,5.5857-4.0632,7.7921-2.3167,13.9891-32.6289-.9545-33.941-8.4493-4.7599,4.9435-19.9663-3.1504-30.1465-1.9948,0,0-5.517-6.743-5.5153-6.7427-3.2984-12.1003,12.9302-12.4447,10.0841-22.261-.914-2.0314-4.7418-2.5323-5.4045-6.7483-.7443-4.7358-6.2333,5.2725-11.3792,4.9512-4.6125-.2881-2.5427-6.8188-5.8255-10.1694-9.975-10.1808-8.4358,14.2188-17.3106,9.611-3.7077-1.925,5.7552-9.3561,4.6888-19.7198-23.472-8.088-15.3345,4.8639-24.6443.5428-6.7048-3.1119,2.5413-8.6187-14.3981-13.6847l2.2415-9.0563c14.2184-3.7654,18.588,4.3746,22.4566.2081,9.3919-12.9093-8.4596-11.5326-14.7188-24.7762-5.1875-10.7029,17.6654-2.2515,19.1295-7.8193,1.0259-3.9015,1.8299-7.2266,4.7031-10.0315-4.0675-6.4718-8.903,4.4126-17.0897-5.5452-7.4198-9.8101-5.5092-7.514-17.7112-7.3422-3.1567-.7238-1.5888-6.5764.944-8.3809,9.0392-6.4399-2.8134-13.1123,9.5393-20.7631l1.275-14.1938c.2428-2.7028-4.9595-1.6353-6.4814-.4208-1.1482-3.4706-.5984-6.0724-.8374-9.3282-4.4402-.9088-8.0743.3385-11.6098,1.9847.7476.059-6.0965,9.3593-7.4525,8.9204-7.8808-3.2742,3.6437-9.2954-11.0939-12.1224-3.6617-9.6877,19.5349-3.3279,12.8472-17.949-4.2899,7.3724-11.1997-.0366-2.6314-2.849.0168-1.2981-.0603-2.5946-.2047-3.8845-12.6871-.939-5.426-16.1824-15.2412-13.8843-1.6399,6.2579-14.1639,5.8258-9.3677,13.6323,1.8066.1825,4.0478,1.1227,4.5826,4.0829-6.609-5.1998-9.892.3008-12.3672,6.9536-3.0091,1.2317-5.7653.1947-8.1321,2.4272,7.921,9.9246,2.393,12.6044,10.3798,17.9344-8.1349,7.7379-10.3819-4.6953-16.8026-4.6245-11.6618.4823,3.578,14.4972,1.5428,24.5358-5.686,8.1694-.6135,9.1611,4.1573,15.2853,2.696,6.7443-9.683,1.5-13.3497.4417.6744-.2891-11.1251-7.4568-12.5406-2.0262.502,5.1093,4.9502,9.1566-4.1355,10.1586-9.4938,4.443-7.2567-6.5298-13.9669-3.6942l.605,8.5511c.3118,4.4075,1.8031,6.5371,4.9375,8.326.76,4.5573-8.6524,6.0726-7.7452,10.4435-.6432-3.099,11.7188,11.0663,11.0604,12.3259-26.7936,7.5959-.0117,6.5466-25.4333,14.6667-11.9735-9.1725-12.4594-1.1613-20.3007-13.7485-9.8439-5.51-3.6535-6.6389-18.8547-8.4103-.8215-3.7997-3.5036-7.3274-6.8438-7.325.6489,8.4664-4.2417,4.7399-8.5017,7.0801-5.2685,6.7826-6.6184-1.2612-5.7607-6.5499-1.3729-.3589-2.7787-.6201-4.2099-.5092-8.3774,13.6348-9.5004-4.8817-19.3674,3.2369-.3671,2.6385,1.7153,4.4965-.1374,7.2524-7.4924-7.9624-11.0732,1.9802-23.532-9.2242-27.2827-8.8362-20.1129-.9008-14.949-22.5825-1.538-2.3657-11.5224-.5779-13.9626-.8099-4.4426.1747-5.1175-5.931-6.5532-9.3453-9.9092-5.4305-11.6039-17.7819-4.6572-26.9423.85-3.0195-1.0823-5.0619-4.4081-4.6476-9.275,1.1555-.8518-6.7169-11.8292-7.522-2.1605-.1584-3.6926-2.7371-6.1451-2.2603-23.0117,4.2417-6.4348-15.0488-18.9264-23.9758,5.3294-.8622,7.4507-3.8962,11.0754-5.4733,4.5223-1.9675,8.2794,7.4928,19.1924-2.5869,9.9167-8.1127,20.6029-20.209,34.2891-19.072l6.2183-1.0177c-1.9761.3234,21.7199,7.2974,32.0854-.5569,8.4464,2.0459,5.0933,2.0808,14.8787-4.7031-2.3705-2.2694-2.1562-6.9071-4.0901-8.2137-11.2672-7.6129-15.7239-1.6481-20.7594-5.6206,2.9964-9.4224,14.3473,3.6895,15.7071-3.778,1.838-10.0934-1.554-4.5272-.3366-13.7325-2.8572-1.8108-5.5035-4.0459-8.3263-4.6536-3.9714,3.8911-6.5592.2081-9.6334-.496-10.9352-.031-7.5013-1.2699-14.6665-7.7542-5.5165.028-5.7889,4.3489-12.0233-.6853-4.2134-1.7087-7.5089,1.2648-11.374,2.6024-15.3987-.9727-8.0504,8.9819-1.6097,16.5854-2.6312,2.4004-6.2491,3.7194-8.9747,2.8-3.7423-1.2622-5.4704.7329-8.1947,1.4032-2.4184.595-6.015-.1608-8.4308.8574-6.2872-10.6541-44.4478-9.7605-28.2179,5.7478-3.3676,1.4143-5.194,4.1649-7.8626,4.0944-12.6212-.3336-7.6157,2.7416-20.234-4.5956,0,0,2.8806-53.9436,2.8804-53.9435,1.44-14.4486-.1499-48.7036,8.8627-56.1049-3.5352-.4303-5.7161-1.1462-5.8045-3.5378-.049-1.323-.386-5.2504,2.1984-5.2103l13.7972.2137c2.0188-5.3007,14.085-3.197,16.7777-17.7622,1.696-9.1741,6.6781-5.6268,8.7483-14.2928.7316,3.021,1.5297,4.5683,3.1746,3.3009,2.5395-1.9566-.2332-8.726,3.3304-9.0584,3.4878-.3253,6.856,1.0119,9.0179,3.0811,7.6307,7.3036,7.1206-.6401,14.6728,2.7841,1.433-.37,2.9091-.5581,4.3884-.4619-2.0261-2.5806,18.7056-1.5506,18.0273-14.0088,1.8125-1.4768,3.8487,2.0829,5.1866,1.6689,17.1686-5.3124,11.6501,4.822,17.7817,2.9562,2.969-.2018,4.0974-8.2243,5.1039-10.275-3.3025,1.7184-7.1138-2.8717-9.8854-3.3329-7.0383-1.1711-13.1473,1.3952-19.9651-1.6074,1.6101-4.0558,5.645-6.4293,9.7009-8.9113,5.7836,4.97,18.9263,1.5147,8.6639-4.6729-4.39-2.9269-7.3218.8697-9.754,1.1717-5.9659-1.608-10.9699-5.5117-16.6931-2.5428-.4312,4.3776-1.4008,11.4553-7.4487,8.0865-8.5611-6.1345,10.4363-6.0083,4.2533-11.1258-3.2046-1.6311-6.1852.2617-8.9811-2.0108,2.1767-1.5837,3.9891-.8326,4.0464-2.8128.2615-1.7138,1.734-3.897,3.6693-3.0131.7214-6.2849-8.2475,1.096-18.2685-12.1831-6.8983-6.5958,11.1457-2.7924-1.6369-13.145-3.95,2.1844-4.7961.7046-7.0131-2.3281-6.5066-4.3076,2.0255-6.8755-1.5456-9.6601-5.1612-1.6915-8.588-1.0928-10.2231,4.272-2.5515-10.1257,3.0452-5.4261-11.3203-9.8619,8.7399-7.1714,17.0482-3.5307,19.2573-6.8388,5.4493-8.1602,9.2361-7.2356,6.207-10.0885-6.7786-11.5275-10.6245-4.8064-8.9465-19.4085-18.2765,2.3098-8.7796-4.6212-22.0761-.6764-7.8097-7.7954-9.3914.8114-18.7186-.0589-.6977-3.0249-13.8851-8.7494-2.7825-7.8616,6.7762,2.1995,8.9026-8.4832,5.349-11.9785-1.182-.851-2.9737-.4213-6.0268-2.1514,1.0875-2.397,3.858-1.468,6.2441-3.1836-1.7756-9.8722,10.0355-7.8219,5.661-14.3702-3.9969-5.9829-14.173,6.9572-25.3041,4.456-2.2212,2.2022-3.4986,4.7182-6.7784,6.6955-7.0899-8.4641-.8342-13.0119,1.7861-22.4423-2.3412.5952-4.1862-1.475-5.637-3.9595,4.9581-1.3298,8.9973,1.7535,8.2144-4.6231-3.0905-1.5693-1.0773-4.3565-5.912-11.23l3.3169-8.0742c-9.6458-6.1923-2.7878-6.3016-7.9141-10.5802-3.5246-2.2734-8.1337-2.3081-11.9824,2.0017-2.2714-9.9294-11.6606-9.3869-21.235-5.5021-2.2196,1.8884-2.3971,1.8615-3.6475,1.5502-1.5689-.3906-4.1718-2.9888-1.209-4.3627,2.4449-1.1338,3.5805-2.3065.1104-5.1125-7.2487,11.4742-16.8257-10.6806-23.6252-2.6294-6.1017,7.6497-10.127-2.425-12.9374,8.2222-4.9059-7.8813-16.451-6.5649-7.4593-16.7059,18.5755-11.8763,23.438-2.0957,32.4169-4.2974,6.1194-1.5005,11.5311-.8865,16.1669,1.3134-.5683-.2697,15.4543,5.1165,19.9579,4.378,2.5419-.4169,4.3323-.2313,6.1942,1.5275,2.1661,2.0461,3.9956-4.083,5.8564-3.9276,4.1146.3436,24.5364,4.2472,23.6606-4.1617-1.4665-.6212-8.6169-4.5438-7.9715-6.7894,1.6223-5.644,7.0332,5.5044,10.3022,2.6896,2.8138-1.1024,6.0344-1.1602,8.0262-3.769-1.2079-.4127-1.7256-.167-2.5404-.2111-1.2984-.0703-2.9146-2.8514-1.1196-3.666,2.0924-.9496,5.4733.2199,5.5602-2.6531-4.9095-12.4528-2.4554,3.8619-18.9704-6.8149,2.9846-3.5051,4.9373-4.5938,4.477-8.4396-2.8978,1.0458-4.1145-1.8512-6.403-3.8067-10.9715-7.1192-18.2347,14.4033-15.1613-10.692-5.867,1.6148-4.9785-6.4421.2677-3.6588,5.8404,1.2495,10.6354-1.9414,13.9526-6.6555-1.4165-10.481-12.4288-12.5389-20.0924-6.3843-7.7435-5.9608-2.2588-11.8744-13.8339-11.0023,1.3579,6.0194-3.7662,5.3961-7.9738,5.4541-3.1096.1055-4.476-4.8799-8.7476-5.3924-1.3387.3627-1.8315,3.4212-3.4473,3.6388,1.0963,4.172-2.1276,7.5251-5.2155,2.6189-.6566-1.5358.8792-2.7061,1.0273-4.2407-6.3119-9.3828-12.0436-.6933-18.5083-5.9531-2.8629-2.3293-6.5266-3.5484-9.6588-2.4768-2.4086,4.2622-8.3358-4.1298-4.3375-6.0894,2.0058-1.3355,5.1569.0983,6.5939-1.3022,1.668-1.6256,3.9138-1.8966,6.3294-3.8673-13.8682-8.2711,3.4271-15.3666-22.289-12.7269-.4804-6.053,2.8792-8.6331,5.782-11.7681-.9418-2.2011-3.8145-5.249-1.5568-7.8127,2.9481-3.3476,10.5884.337,11.3281-3.1866-1.214-3.8045-3.3749-5.5368-2.019-10.8169-2.3039,1.2411-4.196-1.6505-5.7624-4.0082,4.9433-1.7751,9.4087,2.0538,12.1246-2.375-.7498-3.3277,7.3408-.4864,5.6063-4-4.3408-6.3686,5.5938-9.8114,3.9157-12.7643-1.5999-2.8148-10.9141,1.0983-11.7372-7.6451-.8711-.6298-1.9175-.2682-3.1819.7623,0,0-7.1516,5.8291-7.1519,5.8303-5.0122-5.9158-3.391-4.2328-9.5399-.0906-1.8346-5.6252-.3188-3.2017-6.1096-4.5757.6518-2.6787,7.305-5.7319,6.4505-1.4275,6.1038-.713-2.074-11.8125,3.8005-12.126-2.6148-6.0846-19.0834-4.2809-13.1174-13.0077,4.1744-9.2006-6.8879,2.4878-9.0447-.6024l4.0267-6.1335c-13.0867-8.1267.8281-8.7709-19.4153-8.601-3.0356.0255-5.329.0028-8.4967-.368-1.8916-.2216-3.2393,3.405-3.759,4.7493.5212,2.585-7.6906,3.2178-6.2984.1312-6.0687-5.0299,2.3758-7.58-7.7734-12.6493.448-5.9426,2.9627-11.194,2.0301-17.6467-.4344-3.0056-11.72,1.7764-12.6102,6.8754-8.8996,1.2885-3.0465,1.2816-3.6956,7.3944-9.0879-6.2556-4.8083-20.8038-6.8118-30.4882h-.0001c-7.8722-1.3953-4.3158,10.4496-6.3819,14.3634-7.3996-5.9507-8.2897,5.1746-13.5342-1.2512-6.1169-5.1949-1.9622,4.4011-2.1758,8.7407-1.1483.3691-2.3437.1718-3.3358.3569-.4291,2.9008,1.602,6.5267,2.3381,9.8899-4.2949,1.5837-6.567-1.7966-10.1643-4.2483-2.0693,2.8762-1.3034,5.9446-3.5936,8.0679-13.0025-2.8654-6.4274,10.7899-18.325,1.3921-.4514-.6643-.8832-1.5315-.3285-2.5137-1.0782.4849-2.2315-.033-3.4226-.1891-.2364,3.4657-.8562,7.1007-3.3278,9.9686l-4.8349-11.5171c-2.7358.157-3.8236,1.2925-3.9678,5.1837-3.2826,10.5861-11.1362-1.0271-16.9931-6.0586-2.8775,9.2386,10.7414,13.495,7.801,18.4706-2.9185,4.9386-7.9515.1411-14.9703,1.9158-.788,3.2991,1.1079,3.7102,4.0675,4.764,2.4449.8705.7236,6.8574-2.0902,6.8024-3.3455-.0654-6.1036-2.1851-9.8223-1.3059-7.0777,1.6736-5.5461-7.5198-15.3866-4.0483l.5181,4.7633c-3.8754,1.7722-7.7833,2.776-10.2861,6.6588,5.5864,6.6526,7.714,13.9022,15.813,9.5239,5.2787-1.7242,3.0469,7.5114,11.4583,4.6013.6589,3.9347-1.1816,5.1575-3.4491,2.1912-3.6673.2925-7.7349,2.3811-11.2121,1.6929-.6087,3.6071,1.7393,6.7617,5.1087,9.2518,4.1231,3.0472-2.5228,4.7638,5.1043,10.7147,3.6586,2.8546,7.1427,3.1781,11.3754.2768,1.8103,3.1342,2.9664,6.4722,6.2348,8.8107-.423,3.0012-6.4043.7494-6.1067,5.4078.1011,6.1464,6.6851-.9164,10.0588,2.8644-9.7922,7.8451,17.33,5.1617,9.1266,15.2955-2.2598-.9155-2.7578-5.3753-4.8954-3.8924-7.992,9.2749-19.534-3.7872-19.7651-10.1206-7.7305-.7271-7.4528,6.0914-11.4937,4.5615-4.5251-1.7132-6.71,1.384-9.7465,1.9722,2.0349-.539-15.155-1.8699-13.6838,2.0056.5845,1.5398,7.6019,2.113,7.0808,6.9157,5.0727,1.5465,3.3241,13.3791-1.9624,8.3824-1.6518,1.8364-26.9962-.8322-18.4362-6.8339,2.4074-1.6878,3.4475-4.0222,1.8916-6.0607-2.9092-3.8115-7.2435.847-11.9661,2.0724-4.1203,1.0692-5.5776-5.9933-10.2639-3.8688-3.3985,1.5406-.0819,5.6375-10.9733,4.2501.9107,6.3323-6.2141,4.9531-4.3569.021-9.3917-2.5747-8.4119,6.0835-17.8955,2.1035-4.9304.152-8.9529,4.7146-14.2769,5.67-1.6718,6.1526.7624,8.8835,6.5495,11.6384-15.9425,4.5426-1.5694,8.3737-15.7705,15.3526-3.7169,3.007-10.5763,15.6129-2.2853,17.1453,13.4626-.252,9.2474,10.0987,22.5597,1.045,2.8604-1.9454,5.299-.3786,6.4904,1.1784,3.3578,4.3883-2.9691,17.0823,6.0134,7.9825,1.2608,3.7654.6168,8.1095.8041,12.0261.4019,1.6671-1.107,2.937-1.6483,3.9423l-2.8609,8.5459c-2.1484,2.6318,9.4221,7.3206,11.781,5.0677,3.5875-3.879,14.2108-6.5339,12.9328.7328,19.1689-.7125,14.31,5.8013,17.895,5.8058-1.5942-9.0851,8.6805-.3585,11.3464-.5596,1.4823-.3143,2.4538-1.1156,3.328-.8425,3.1451.9824-1.039,5.0443,10.684,2.5976-.2409,1.8788-2.7405,5.28-.8011,7.3161,8.9578,9.4049,20.0772-3.7087,21.4225-4.4574,10.8399-9.2266,17.5538-2.8986,23.8595,7.5331-17.7304-3.2744-15.4491,11.9527-25.1916-1.7214-9.1737,12.0748-10.3773,6.0935-18.7446,9.1832-5.2382,3.1021-15.9412-4.7341-16.6569,3.9247,1.473,5.0978,11.2782,1.9381,12.4834,7.5492-7.2744-1.6843-11.0706,2.6666-12.6355-1.6019-6.4416-10.9146-6.8852,1.3857-12.5848,2.5488-.1939,4.0103-3.0516,4.1995-6.4868,4.0862-6.7136-.9706-7.2654,6.7915-.4789,7.2678-3.9003,4.1216-1.7181,10.147,4.2587,6.2825,3.7514,2.7232,5.785,6.0697,8.5232,9.1877.7636.3802,2.6314,1.3197,3.4331.6667,2.3774-1.9365,15.17-4.7972,15.8812-2.6636.7079,2.1237-1.1833,4.1711-1.8602,5.3765-2.4266,6.343-1.0559,21.111,9.2125,19.728-1.6213.0732,2.7282-7.7431,2.6605-8.4421,10.4411,5.3621,6.4244-13.4745,10.3998-7.2167,1.905-.7448,3.2672-2.6664,5.559-2.4462.3894-5.5852,4.9212-.392,8.6631-7.0597,1.5213-2.7108,4.2435-3.298,6.8809-1.6609,3.3872,3.1801,8.642,5.9625,12.6767,7.7744,2.4664,1.2327,5.4101.5165,5.816,2.8833.3855-1.2144.9347-1.12,1.5958-.1312-1.2443-5.5204,7.7752-6.9056,10.7633-4.1979-2.213,1.9738-4.0946,1.2552-5.423,3.0398,1.6098,2.6985,4.0168,4.4632,6.2612,3.7644,7.3943-2.3024-1.2825-7.2229,19.0539-9.8035,31.3441.5263,12.2342,10.0329,18.8766,14.5713,2.7967,2.2799,7.1997-4.8816,9.0771-6.0063,20.4465,8.8307,39.8216,26.712,31.5691,49.6904-12.4623-2.4955-18.0573-8.026-27.5011-7.8297-4.6547,13.6514-22.5877,24.4328-13.1311,40.79-10.0452,7.9891-5.517,7.8653-20.7822,6.5375-4.9641-.4318-4.4098-6.8027-14.4282.1516-.9895,2.8349,3.1211,4.0857,6.4158,4.5893-.8226,2.1569-1.9986,1.6351-3.0311,1.335-6.1697,2.4297.9975,4.2087.9621,6.6333,9.3149,6.5402,6.9825.0552,11.7765,1.6062,7.966,2.5772-1.6913,13.3892,4.1578,17.825,1.6599,1.2588,6.9017-2.1169,13.3679-.4789,4.1265-2.5744,7.735-4.0526,12.785-2.8928,2.5068.5757,3.9769-4.0773,5.9073-3.9218,10.5063.8461,4.0544,20.501,4.126,23.335.0741,2.9303,2.3842,6.6439.5007,9.2978-6.7606,9.526,4.2515,3.1239-4.1979,22.171-15.0098-5.6176-20.5047,17.339-2.6298,14.674,4.3153,21.6328-18.8417,22.4998-10.2166,35.1529-.2803,12.5778-24.8398,8.4513-20.212,21.0096,8.462-1.7942,7.985,4.3032,23.2879,9.2382-2.8198,5.1633-7.8769,6.4064-11.2519,10.0061l-9.7122,10.359c-3.5035,3.7368-4.6934,9.9208-9.391,11.84-10.069,3.7631-8.8977,3.0547-13.7253,12.6035-3.9534,1.3013-7.2566,3.2887-10.992,5.5677-11.6016-3.1002-37.9852-.1556-24.7029-16.5176,4.7582-6.6569-7.3531-6.688-1.5862-13.4808,1.4661-1.7269,3.4273-1.3365,7.5852-1.5952,4.665-1.3641-6.7851-12.3629,7.8056-6.9756,4.4539,2.3616,7.6196-1.2531,9.0584-5.1885,1.8199-4.9778,6.009,2.3312,9.6222-10.637,4.4842-2.1292,11.5763-3.6317,12.5536-9.3844-1.4978-3.6783-8.3838-3.058-11.6935-.8739-5.9822-1.6562,7.1174-7.4385.9743-10.1023-4.1367-1.7938-9.8278-9.8997-10.2489-10.2626.2554-.6893,4.6688-11.438,6.7953-11.6068l-6.652-2.7307c8.8333-8.4914,11.455,1.5388,17.571-.5067,1.8807-.629,5.1898-5.8758,2.9183-6.6983-22.5078-8.1503-26.9337.9427-31.832-3.4537-4.2087-3.7774-7.5266,3.4412-12.5282,2.1929-8.4847-2.1176.847-8.8412-18.4526-9.3576-1.4854-3.006-.3551-6.8717,2.1724-9.879,4.5242-5.3831-1.6025-6.9271-.8984-12.4552-11.3492-2.1772-5.5119-1.2172-10.9461,6.1528-7.3424,4.634-16.8818,5.0014-23.3537-.5757-1.2394-1.0681.9842-5.6201-1.0121-6.8931-11.5104-3.2753-9.5634,5.2317-16.3156-9.2212-4.2283-6.2644,19.1382-1.0952,18.6287-4.9801-2.856-2.3772-8.2678-6.738-10.5404-9.8325-2.1664-2.2165,2.0738-4.7619,3.8174-5.4848.3145-3.2467-1.1092-6.5026-5.8377-7.5965,13.959-8.2196,8.0461-11.7757-4.6891-8.2328-1.7205-8.1117,4.6141-.1623,9.4707-12.8752-3.0153-.74-5.2491-1.446-5.4198-3.7886-.5882-8.0729,7.14-7.4984,6.0658-10.6809-4.7911-12.5313,7.91-12.3497.8247-17.5438-1.9566-4.0667,9.6444-4.0959,7.2599-6.3531-2.6111-.2373-3.7018-2.5427-5.5852-4.8177-7.051-8.517,6.7618-14.2643-1.6313-11.251-10.8624,2.0396-1.8951,12.7489-8.9749,10.4621-2.8434-1.7626.5111-10.948-3.9907-7.6335-1.4543,1.0708-2.7166.8125-2.8022-1.0375,6.9477-8.891-3.49-12.7499-10.2984-9.8058-2.8403,2.416-1.3338,6.7169-2.281,9.5165l-8.4106-3.9143c2.0552,4.2567,1.3519,4.08-1.5623,6.5394-1.6505,2.4526-2.4935,1.1321-2.9915-1.5645-7.364-3.1953,3.7675-8.3153-4.1896-10.4955-.0934,6.1804-3.3839,5.6572-10.4983,10.1999l.2-11.2093c4.6163-2.2234,5.4386-7.4868,9.0015-9.605,9.6101-6.9391,21.5163-7.0777,3.012-15.2937,1.1456-1.5715,1.4277-4.4082-.5022-4.4353-3.2375,4.6314-9.0041,5.3986-11.5148,2.5464l5.8768-13.4928c1.4513-3.3321,7.0589-3.8668,6.2673-8.7094-2.8118-.368-5.4633.2641-8.7352.2007.5903-5.4563-3.1114-8.6222-3.4007-12.4716-.2716-3.6125,3.4807-7.5721-.1721-10.2911-11.4464,21.3674-3.9975,19.6763-7.6614,40.267-1.7747-3.097-1.601-5.3998-3.6708-7.6615-4.8819-5.3347-1.5907-13.5747-6.534-14.6348-4.5624-.9785.6916,5.7703-8.7007,12.6695-.5228,1.9186-1.5381,22.0352-1.6166,22.1737-.6517,1.1492-1.4904,1.9278-2.1469,2.8353-1.2464-2.8221-.3313-3.6685-2.0296-6.9037-1.8582-3.5398-.2082-4.4059-2.0664-7.9457-1.8586-3.5407-7.8906-.3743-9.7493-3.915-1.8572-3.538-2.7085-3.0911-4.5657-6.6292-1.857-3.5374,1.3751-5.2341-.4818-8.7715-1.8577-3.5388-8.9499.1842-10.8076-3.3547-1.8583-3.54,2.9025-6.0392,1.0442-9.5792-1.8574-3.5382-1.455-3.7495-3.3123-7.2877-1.8578-3.539-.2794-4.3676-2.1373-7.9066-1.8585-3.5404-9.1142.2685-10.9727-3.2719-1.8577-3.5388,10.3908-9.9687,8.5331-13.5075-1.8586-3.5405-9.0182.218-10.8769-3.3225-1.8581-3.5396-8.3622-.1252-10.2203-3.6648-1.8585-3.5402-3.0096-2.9359-4.8681-6.4762-1.8583-3.54.999-5.0399-.8594-8.58-1.8589-3.541-3.9426-2.4472-5.8015-5.9882-1.8584-3.5402,3.2838-6.2395,1.4254-9.7797-1.8589-3.5412-7.3483-.6595-9.2073-4.2006-1.8592-3.5417,4.4144-6.835,2.5552-10.3767-1.8589-3.5412-.7983-4.098-2.6572-7.6392-1.8589-3.5413-1.0298-3.9765-2.8888-7.5178-1.8592-3.5416.6141-4.84-1.2451-8.3816-1.8595-3.5422-8.5809-.0137-10.4404-3.556-1.8582-3.5398,1.0234-5.0525-.8348-8.5923-1.859-3.5413,2.374-5.7635.515-9.3049-1.8591-3.5413-8.072-.2798-9.931-3.8212s-2.1439-3.3919-4.0029-6.9333c-1.8596-3.5424,1.6046-5.3608-.255-8.9031-1.8585-3.5404-1.1111-3.9327-2.9697-7.4731-1.8602-3.5435-5.8654-1.441-7.7255-4.9844-1.8615-3.546-1.2987-3.8414-3.1602-7.3873s3.3005-14.4016-.6242-15.1987c-3.8882-.7897-.4852,14.6027-3.5244,17.1533-3.039,2.5505-8.4064-3.845-11.4454-1.2945-3.0383,2.5499,3.2513,10.0441.2131,12.594-3.038,2.5497-8.8334-4.3556-11.8714-1.8059-3.0383,2.5499-2.1908,3.5597-5.2291,6.1096-3.039,2.5505-4.1216,1.2606-7.1606,3.811-3.0392,2.5507-.4728,5.6088-3.5121,8.1595-3.0385,2.55-8.5316-3.9952-11.5701-1.4451-3.0383,2.5499-2.4089,3.2998-5.4473,5.8497-3.0386,2.5502,4.4456,11.468,1.407,14.0182-3.0397,2.551-10.494-6.331-13.5336-3.78-3.0389,2.5505,1.2182,7.6229-1.8207,10.1733-3.0385,2.5501,1.4551,7.9044-1.5834,10.4544-3.0388,2.5504-6.5318-1.6117-9.5706.9387-3.0398,2.5511-.593,5.4665-3.6328,8.0176-3.0389,2.5505-10.6547-6.5239-13.6936-3.9734-3.0387,2.5503,5.088,12.2335,2.0492,14.7837-3.0392,2.5507-5.6441-.553-8.6833,1.9977-3.0394,2.5508-1.703,4.1432-4.7424,6.6941-3.0388,2.5504-2.5746,3.1036-5.6135,5.6539-3.0392,2.5507-9.1097-4.6824-12.149-2.1317-3.0396,2.551-4.7686.4908-7.808,3.0417-3.0391,2.5505-2.4581,3.2428-5.4971,5.7933-3.0396,2.551,4.8239,11.9206,1.7843,14.4716-3.0384,2.55-9.0682-4.6347-12.1066-2.0847-3.0369,2.5488,2.3265,8.9394-.7104,11.4882-3.0367,2.5486-2.9954,2.5978-6.0321,5.1464-3.0379,2.5496-4.5658.7291-7.6037,3.2787-3.0403,2.5515-8.1452-3.5311-11.1854-.9796-3.038,2.5497.3576,6.5956-2.6804,9.1453-3.0375,2.5493-7.5541-2.8324-10.5916-.2832-3.0388,2.5503-2.1579,3.5999-5.1967,6.1501-3.0397,2.5511-5.4021-.2637-8.4418,2.2874-3.0381,2.5498-.9139,5.0809-3.9521,7.6307-3.0389,2.5504-3.6412,1.8327-6.6801,4.3831-3.0401,2.5514,1.9701,8.5212-1.0699,11.0726-3.0387,2.5502-4.7183.5489-7.757,3.0991-3.0402,2.5515-7.509-2.7733-10.5492-.2219-3.0394,2.5508,2.5078,9.1604-.5315,11.7112-3.04,2.5513-6.0447-1.0289-9.0847,1.5223-3.0397,2.5511,3.4263,10.2556.3866,12.8068-3.0406,2.5518-4.0685,1.327-7.1091,3.8788-3.0399,2.5512-11.5254-7.5595-14.5652-5.0083-3.0407,2.5519,1.3598,7.7952-1.6809,10.3472-3.0411,2.5524-4.9756.2474-8.0168,2.7997-3.0407,2.5519-1.3334,4.5862-4.3741,7.1382-3.0408,2.552-4.1821,1.1921-7.2228,3.7441-3.0411,2.5522-2.9141,2.7037-5.9552,5.2559-3.0385,2.55,4.0106,10.9492.9722,13.4992-3.0399,2.5513-2.9178,2.6967-5.9578,5.248-3.0413,2.5524-11.3333-7.3279-14.3746-4.7755-3.0412,2.5524,2.1344,8.7193-.9068,11.2717-3.0413,2.5524-1.7045,4.1452-4.7458,6.6976-3.0421,2.553-10.2629-6.0508-13.3049-3.4977-3.0404,2.5517.3011,6.5333-2.7393,9.085-3.0431,2.554-4.8518.3988-7.8949,2.9527-3.0451,2.5557-4.6564.6358-7.7015,3.1915s1.2,7.6138-1.8452,10.1695l33.361-.2136v803.9773h3817.5864v-633.2831c-.0769.0181-.2354.0342-.4307.0494ZM3048.2729,890.27c-4.6685-.3109-4.0596-2.7317,1.1057-2.4337,2.1101,1.1173,1.2114,2.2051-1.1057,2.4337ZM2894.7619,1062.995c.9321,1.2462,3.6104,1.8065,1.3574,4.9611-1.8918-2.9556-2.0688-4.2203-5.4902-4.7644,1.2876-2.0781,3.0476-1.6477,4.1328-.1967ZM889.606,943.0893c1.2071.3107,3.5319,4.2041,1.216,4.3636h0s-6.7657.4658-6.7657.4667c-5.4648-1.23,3.4696-6.2073,5.5497-4.8303ZM872.1732,1001.3575c16.7986-12.0176-9.5587,27.0367-14.2285,29.7352-5.118,5.5421-18.3278,6.0348-18.6526,5.3546h0c-1.567-6.9956-12.5137-7.2156-3.9268-13.4033,16.0482-5.2554,18.2189-25.5901,36.8079-21.6865ZM856.9913,884c.0428,2.8994-4.5117,2.8993-4.4693.0002-.0428-2.8996,4.5117-2.8995,4.4693-.0002ZM852.9913,890c.0428,2.8994-4.5117,2.8993-4.4693.0002-.0428-2.8996,4.5117-2.8995,4.4693-.0002ZM833.701,998.6005c7.4131,5.4654,3.6317,2.384,9.9423.4112,2.2044.6416,5.8963,1.3813,4.9575,4.9161-2.058,7.7482-8.0092,13.0778-16.5359,14.5634-1.1551-6.7447-.4513-13.0235,1.6361-19.8907ZM804.7568,723c.0192,1.2973-2.019,1.2973-2,0-.0192-1.2974,2.019-1.2974,2,0ZM722.7569,593c.0192,1.2974-2.019,1.2974-2,0-.0192-1.2974,2.019-1.2974,2,0ZM534.7576,613c-.0192-1.2974,2.019-1.2974,2,0,.0192,1.2973-2.019,1.2973-2,0ZM464.7577,663c.0192,1.2973-2.019,1.2973-2,0-.0192-1.2974,2.019-1.2974,2,0ZM444.8348,662c-.6984,2.2839-1.4554,2.2839-2.1538,0,.6984-2.2839,1.4554-2.2839,2.1538,0ZM450.2045,712.5133c-4.3949-.1522-2.7274-4.8285,1.6528-4.8357,9.7801.3781.4862,3.3528-1.6528,4.8357ZM472.9598,716.8315h0c-2.0497.7053-3.317-1.3029-4.5412-2.887-1.6885.3801-3.6606.3865-3.614-1.6582,4.1564-1.159,7.7106-1.1669,12.2278-.6895-.454,1.6882-1.3319,4.2916-4.0726,5.2347ZM492.4773,693.6643c-7.283,6.5457-21.0779,1.8471-29.6933,4.196-7.0289,1.9163-4.6165-6.4149-9.9266-7.8445.4962,1.4654-24.9372.9301-22.0793-1.7428,5.4734-.916,11.9386.4594,15.8905-2.5827h-.0002c3.3965-2.6144,5.7179-4.5374,11.7335-2.4544-1.8514-.6411,17.9726,3.3234,14.2977,4.4515-2.3158.6244-5.0243.3022-5.3824,3.0397-.2291,1.7514,3.1354,1.9113,4.2617,1.4225.7165-.311.8316-3.5284,1.9705-3.4319l15.3817,1.3035c1.5701.1331,4.8153,2.5026,3.5463,3.6431ZM504.5962,679.9803c-1.5192.3929-3.3979-.0667-6.6263.1946-4.5301.3842-4.6033-4.7483.0008-4.3396,8.2726,7.2467,11.5899.4425,18.8906,5.8332-5.097,3.907-12.9766,5.3233-12.2651-1.6882ZM626.4449,894.1385c.2099-3.0032,4.4202-3.0033,4.6195,0,.1091,5.4015-4.719,5.4016-4.6195,0ZM803.4806,829.9283c1.136.473,1.5128,1.7139.5524,4.1431-1.136-.473-1.5128-1.7139-.5524-4.1431ZM805.065,840.1385c.1065,5.4016-4.7194,5.4016-4.6206,0,.2107-3.0032,4.4183-3.0033,4.6206,0ZM813.305,973.6343c-8.1822-2.4409-18.9074-7.6183-20.1817,2.7703-.6819,1.9491-4.6642-.8416-7.0296,2.6011,23.3067,6.994,16.9903-2.4313,33.3402.7674l-.0173,31.3025.0002.0002c-.002,3.5819-1.4384,6.3504-4.3694,5.2837-28.9828-10.5475-11.8416-16.174-38.4795-25.189,10.1206-1.3771,1.8369-4.354,12.327-7.6592-.9114-1.6934-2.0581-1.3767-2.7155-1.873-3.5231-3.6887,6.3617-13.8024-5.3823-13.7957-11.7368,2.1838-1.4397-4.5598-15.7923-4.9018-1.4996-1.0733-1.3295-2.4202-.7856-3.1021,4.296-5.3862,6.8993,4.7438,16.5279.3916,14.4313,12.1108,34.2441,1.1428,32.5579,13.404ZM777.7482,913.9914c3.088-1.0754,4.5618,2.7329,1.477,4.5266-2.9322,4.4801-3.3943-4.3714-1.477-4.5266ZM790.485,922.379h.0001c.9703,1.0622-.9997,1.8265-1.8114,2.5019-.8853.7366-4.3676-3.4559-5.4395-4.0858.5479-1.1012,1.7285-4.766,2.9494-5.7897.7909-.6631,3.9008-.7422,4.0287,1.2965.1274,2.0297-2.2383,3.3284.2727,6.0771ZM734.8326,815.9225c.971,7.7831,8.3161,2.6728,10.5625,8.1278,1.7053-.9106,2.0535-2.7065,3.0545-4.6919,1.4777.5091,2.0066,2.186,3.9911,2.5956,14.5043-23.1485,29.482,16.6474,38.6269,25.9497-14.3868,14.5178-10.2189,3.1371-20.3549,10.3311-2.5874-1.1978-3.5756-2.8054-6.1258-4.4062-2.5374,2.7765-6.4008,3.0282-9.8833,4.4992-2.4666,8.2635,8.4736,17.6067-3.2934,22.4761-22.8895-12.0936-10.1494-5.8583-20.6533-6.804.081,1.6684,1.7001,1.747,3.998,2.4651-.1777,1.8123-2.3673,2.384-3.6253,1.9234.4628,1.0909.7707,2.3704.1207,3.4436,1.6376-.4502,1.3258,1.5434,1.5433,2.5249,2.3939.7209,2.4761,3.336,2.2625,5.4856,3.3597-1.8991,8.5232-1.9803,10.939,2.0815,4.6398,4.0417-11.3573,3.6903-13.2437,4.2889.2766.1108-16.0278,11.6913-15.4212,11.7771-5.1495-17.158-5.1264-5.4552-10.6939-11.633-1.4656.0607-1.9836-1.252-1.7008-2.6614-3.1309-.3573,1.176-8.2165-3.1432-9.3932-8.3858-1.847-7.0986,10.2049-14.9617-2.1974h-.0004c-4.2084-.2065-2.6511,1.0533-5.5702,3.9409-1.8252-11.0073.2763-22.2908,1.0772-34.2553,1.8408-6.5959-.8137-42.7318,6.9573-46.2206,2.1844,9.7804,9.0763,14.6794,18.5901,15.8119,7.3284,4.0633,7.5245,2.938,10.8082-4.1298.0163,1.486,16.4214-12.9435,16.1398-1.3295ZM756.8517,919.8868c-3.6402.9399-4.9081-1.7455-8.5335-2.3212-2.5988-1.6719-.8996-4.258,1.8613-1.8546h0c3.3096.5627,5.9279.972,6.6722,4.1758ZM744.7665,909.8076c-5.2068,2.9371-11.5765-12.7916-4.0195-6.5777,1.9537,3.0076,4.1753,3.7989,4.0195,6.5777ZM697.3512,909.191h0c-2.2626.6245-3.8385-5.3768-2.191-6.1635,2.8117-1.3425,5.5063-1.027,6.5231-5.1421,2.9669,3.3087,1.8258,9.6059-4.332,11.3056ZM680.5511,894.0432c-.1491-2.6585,5.1581-3.6693,6.0771-.1895.8348,3.1613-5.8966,3.4073-6.0771.1895ZM720.699,777.8693c-.9608,2.8671-3.2643,2.6503-4.9516,2.6307-7.3216-2.1772.2099-8.7342,4.9516-2.6307ZM712.7538,769.7057h0c-4.5206-.8071-6.7961,5.4404-8.9808,5.8103-11.8309-11.8989,16.5399-17.5718,27.6295-17.3312-1.3916,9.0799-10.1532,13.0377-18.6486,11.5209ZM744.6194,749.3663c-.4818,2.9177-2.1889,3.171-4.8435,3.9755h0c-6.037.1616-10.1889.1262-14.2213-.9663,6.4461-3.3414,12.6421-3.397,19.0648-3.0092ZM727.0696,674.1384c.0957,5.4016-4.7211,5.4016-4.6253,0,.2142-3.0031,4.4111-3.0031,4.6253,0ZM722.529,642.1628c-1.3042,7.0795-10.7359,7.1691-12.0453,6.2989-7.5952-6.9308,16.5015-17.996,12.0453-6.2989ZM704.8669,643.7345c2.7886.535,2.6226,3.9714.5421,4.1835-5.7538-1.6908-9.6813-6.2309-.5421-4.1835ZM704.0721,631.3735c-.3397,2.7486-7.2086,9.7312-10.431,5.5836-2.1086-5.1151,5.3206-6.4974,10.431-5.5836ZM690.7829,735.223c3.228,1.0552,10.0281,1.2013,13.6222,1.9472,8.7582-4.4226,2.8078-1.8049,8.4813,3.2816,15.8695-13.8087,24.3303,7.2411,13.7236,5.1283-2.0484,2.4322-21.5745,1.7875-19.6791,7.2869.8206,2.381,6.9168-.2831,7.8406,2.1329.4759,1.2447.0324,2.446-1.0264,3.0205-3.1423,1.7048-3.7488-5.8769-10.4754-1.9477-.7954.4646-10.7399,1.7249-10.727,1.7325-1.1941-.7009-1.6564-19.3353-6.0702-27.6988,3.4453.8161,2.5418,4.3234,4.3104,5.1166ZM678.5005,741.7051c1.0844-1.1398,5.0874,1.9603,3.9266,3.983-2.4588,4.2845-3.2952,7.7436-3.5834,13.701h0c-.2064,4.2652-7.2413,4.9997-8.9117,2.434-.9669-1.4851,5.7911-17.1987,8.5685-20.118ZM646.9919,726c.0428,2.8994-4.5117,2.8993-4.4693.0002-.0428-2.8996,4.5117-2.8995,4.4693-.0002ZM640.7572,727c.0192,1.2973-2.019,1.2973-2,0-.0192-1.2974,2.019-1.2974,2,0ZM642.8517,732.0682c8.1748,7.3083,4.9963,5.2575,13.2782.8762,6.3144,4.249,13.3576,8.3436,12.9029-3.0473,5.9551,3.7226-1.67,29.2921-8.4532,28.0703-13.3359-3.0748-21.7576-14.1823-27.7955-25.6619,3.1281-2.2994,9.7656-3.8534,10.0676-.2373ZM567.4653,780.1443c-4.8942-2.9335-8.0678-3.594-12.7331-3.5549-6.6021-3.1698,6.192-7.2068,8.3349-9.5128,4.3228,2.9549,5.5456,8.1294,4.3982,13.0677ZM629.7359,814.0275c-2.8526-1.7882-.0652-10.351,2.8042-2.2298.7439,2.3307-1.7438,2.7767-2.8042,2.2298ZM620.7292,769.962c-2.9899-.3478-5.3577,4.2106-8.1251,2.7777-9.4034-5.719-9.6726-10.0221-15.3785-2.3205-1.097,1.0712-2.9437.1966-3.3539-.6207-.633-2.5867-3.2219-3.4516-5.5655-2.3024-3.2554,3.836-.6764,17.3283-9.4122,12.4095h-.0001c-1.0022-.3495-3.0698.8783-4.0072-.502.2744.0825-7.6257-19.208-7.1477-17.6797-1.5177-4.852-3.5289-6.1104-8.4614-6.9869-8.9617-1.5924,5.4447-14.9641-2.1719-15.3549-3.8293,2.4497-5.6287,5.4946-10.55,4.5509,3.7126-13.8705,13.0473-13.4777,24.7103-12.8851-2.6835,6.498,7.3603,5.6165,10.6991,6.7222,4.135-.0688,4.4972-5.9623,6.8342-7.5235,4.6957-3.1369,10.2755-3.6706,13.0468-8.3195,1.2523,2.518,1.0154,5.4264,3.1746,5.4477,10.8255.1067,4.1328,12.2594,10.6802,12.936,1.8628.1925,5.8863.8932,6.4955-2.1741.3779-1.9025.2385-5.5231,1.9908-4.0465,7.1593,6.0329,10.5104,14.284,16.2965,19.9298,10.5618,9.4425,29.2845,12.1954,4.9507,17.9511-9.5312,6.7033-15.5935,1.0275-24.7052-2.0091ZM640.6582,816.5266c.6873-6.9401,2.4019-6.5562,7.9471-8.3383,7.7475-3.2636,10.4269,6.8074,17.9057-2.5271,6.868-2.4263,1.2444,26.7478-1.0591,29.0543-6.9053-6.5637-17.6716-14.9763-24.7937-18.1889ZM648.4999,888.9186h0c-3.4672.59-4.5442,2.459-6.3524,4.4443-1.7849,1.9597-9.5541-5.023-8.6912-8.342,4.9947-11.6161,11.3083-12.5535,17.354-5.2945,3.5261,3.1485,11.6909,2.552,9.6455,8.4258-9.1309-3.8688-6.1158,1.2795-11.9559.7664ZM681.8398,1065.3906c.3309-2.1021,6.787-2.9436,8.2591-.88,3.6781,6.5446-9.4528,8.2062-8.2591.88ZM704.5508,1090.0425c-.1494-2.6566,5.1592-3.6685,6.0773-.1895.8345,3.1625-5.8962,3.4088-6.0773.1895ZM812.1977,1170.1212c-6.2681-6.1158-.1058-16.2517-6.8592-13.7808-3.9218,1.4348-7.5963,2.2489-12.1354,1.4158,2.0917-14.8633,10.8267-13.389,22.1637-22.4038,1.5774,11.9504-2.5757,23.2471-3.1691,34.7688ZM819.7155,1083.8981c-1.8988,14.1842-.1722,26.2942-4.4834,38.9824-3.9337-1.7294-2.4772-4.8518-2.7013-7.0332-4.7082-1.4875-8.8303-4.6521-12.6615.67-1.9511,1.813.4837,4.6416-.4131,7.2701-1.0108,2.9624-2.0189,5.8661-.9117,8.722-14.8052,6.2135-7.2291,7.15-10.839,12.7489-2.2829,3.5408-3.7761,6.5121-4.6717,10.7612-12.7956-8.1094-13.2405,13.0604-24.8571-7.5322-1.0161-1.3344-3.4972-.5708-3.0619,1.3267,5.3816,10.333-7.3597,22.3489-14.3985,10.6207-3.3713-6.2577-10.9342-19.7949-14.5388-26.0717,15.1664-15.5846,6.5507-12.0104,8.6942-20.2563.8163-3.1399-.8597-4.8412-3.1187-4.6783-4.0069.2887-5.3907,7.0614-9.7491,5.6302-1.7323-.5688-5.5619-1.412-4.9451-4.187-1.7039,7.666,3.3313-30.6244,2.7794-15.4771.9884-15.4717,1.3862-9.549-12.4299-13.053-10.8713,4.3483-4.9033-3.3629-2.2717-8.5182-3.3663-3.8794-.4764-8.1747-1.106-11.941-1.3829-8.2731-14.9157,2.0118-29.5384-5.2174.7341-3.1437,2.1905-3.9075,3.5854-5.8773l-8.6505-8.8269c-.3358-12.1018-6.3489-6.0258-10.5707-22.369-1.5781-6.1092,6.2976-11.6219,11.6762-12.1154,2.6247-.2408,4.2657,2.7705,6.3201,2.7685,23.3586-8.6737,15.8579,4.8244,37.9252,8.1801.1573-4.3418,4.2015-9.5519,9.2103-9.0666,3.5859.3474.6045,4.3956,12.8894.6992l-.0002-.0005c2.6578-4.162,15.4189,3.1509,16.8447,1.8901,2.4211-5.1872-10.6804-13.6058,1.8724-20.9754,4.9837-3.9962,8.8377,11.7971,14.2298-1,1.7465,3.02,2.9044,4.9406,5.7559,5.6416,10.0377,2.4676,1.749,12.7115,6.8593,12.2841.9073-3.0398-.5552-5.2256,1.8395-6.3699,22.5658,27.9114,45.4041,15.9521,32.8861,58.5975-11.6259-4.1472-7.5996-4.0464-18.7511,1.3606,7.0714,13.682,22.304,13.427,21.3014,22.4124ZM854.4313,1232.9724c-3.4294.8816-5.3605-1.6128-6.5431-4.5566h0c-12.5594,3.4116-2.8486-.5178-15.2761-.9053-2.0726,1.3085-1.7307-17.3616-.8372-19.6169,2.0941,3.5884,2.0631,7.8932,5.5112,12.4415,3.3245-4.6416.8095-8.7715,2.5661-13.55,14.7869,2.7899,19.0297,12.4537,14.5791,26.1874ZM884.5218,1246.0002c-.0428-2.8997,4.5117-2.8995,4.4693-.0002.0428,2.8994-4.5117,2.8993-4.4693.0002ZM2795.9103,1215.5912c-2.7324,3.0511-4.3726,9.2881-8.1899,11.3453-4.8936,2.6373-10.322,3.4325-14.8879,7.4752-21.835,1.1058-14.8611-3.2509-20.5349-6.0312-4.2913-2.1029-7.7109,2.4441-11.4109,1.9662l-34.084-4.4027-19.7173,5.5128c-3.8977-13.0021-.8831-90.8812-1.5088-105.7883l10.4424,5.8621c2.824,1.5853,3.7856,5.6726,8.9478,4.3783,9.9399,2.5865,10.2546-3.0807,17.4043,1.3334.7744,1.8251,1.314,4.4452-.1365,6.1503-6.1353-3.4115-24.7295-.066-27.292,3.9021-.5852,5.2516,11.3657,11.6871,16.5459,13.6667l16.3716,4.3785c3.6152.967,6.1309,5.3097,9.8682,4.476l1.4407-4.3785c.5845-1.7756,13.6313-1.9508,16.8975,1.8922h-.0002c5.5132,6.4867,7.748-.4502,9.9214,2.3414,1.0842,1.3928,1.123,3.4176-.8892,4.4608-8.478,4.3956,6.7312,16.4471,7.666,17.6211,1.0376,1.3031-.7886,6.1519,2.1311,6.0538,4.0505-.9711,7.176-3.245,12.0088-3.7921.865,3.042-1.1609,3.785-2.3518,6.4337,6.3767.9276,16.0869,9.8625,11.3579,15.1429ZM2822.1369,1105.6801h0c-41.0222,6.2305-4.1335-7.3416-43.7705,8.3784-1.3582.5387-3.1921,2.9872-4.6589,1.4354-10.9285-9.5258-10.4365,4.3466-31.2136-4.3368,3.1309-3.6388,5.7837-3.8273,2.634-9.5234.5664-1.7118,30.7605-8.5277,26.7124-6.4346,11.8511-5.7771,13.5586,14.2515,26.1431-.5944,3.4595-2.2917,6.3315,3.3619,9.1624,4.9644,3.3662,1.9055,6.8384-4.2701,9.467-4.736,4.7864,1.0535,7.0959,6.755,5.5242,10.8469ZM2898.7507,1087c.0193,1.2972-2.019,1.2972-2,0-.0193-1.2974,2.019-1.2974,2,0ZM2911.0727,1204.5497c-14.6958.4144-31.4778,6.6169-44.2595,11.7491-1.8455,4.5962-12.7122,5.5837-16.697,6.9583-4.2383,1.1604-6.0598-2.1831-5.2622-5.3627,1.2231-4.6399,6.0334-5.6173,9.7876-8.0323-.8167-4.3074-3.7842-5.2791.7305-9.3342,4.4404-3.9883-2.7761-4.2606-4.146-14.8785,4.2288-2.6283,10.335-2.4237,14.106,1.6267,4.759,5.1116-7.7583,8.5107-3.7678,14.0214,1.5728,2.1715,5.1631,2.2238,5.1392,4.8601h0c5.6069.2184,14.6987,5.1997,10.8552-4.2129,2.3213-12.5551,8.6692-26.2372,22.6604-28.4934,8.9807-1.8065,8.2771-8.9838,13.5581-9.4528,5.0344.6099,10.8748,5.5475,7.3438,11.8739-.0105,2.7617,2.5049,5.4083,4.4175,5.3538,10.4045-.297,9.6038-11.2291,19.8694-4.0039,1.0815.7611,2.6011.8058,3.1108,1.7697,3.1626,5.9801-26.252,24.3834-37.4458,25.5579ZM3094.205,824.8825c-16.4624-15.4936,9.9326-10.1016,6.658-2.2376-2.5193,1.4451-4.7456,1.5402-6.658,2.2376ZM3080.5602,946.8686c-7.1177-3.0778-12.0425-8.7523-13.2166-15.5393,20.8518-5.0034,7.7573.8536,17.6228,7.4696h0c1.5469,2.8536,2.9165,4.3165,3.8223,7.1893-3.1875-1.2156-5.0117-1.1799-8.2285.8804ZM3103.3486,903.8678c-2.6802,2.0705-15.0703-1.0869-18.6406-5.5714,3.092-2.9164,4.7827-6.9722,8.2341-7.5849,5.8384-1.0365,13.4907,10.7736,10.4065,13.1563ZM3117.7521,839.1287c-1.6299,2.0838-3.9026,3.6389-2.3271,7.6448h0c-.3511,4.499-4.3401,4.3445-4.8855-.3168,8.0137-11.0557-7.8904-16.8063-1.6333-19.9946,2.6248-1.3374,13.5322,6.6749,8.8459,12.6667ZM3149.2704,920.8393c-5.7397.213-3.1248-9.7971,1.4932-10.6284,2.0173-.5215,3.6572-2.6322,6.0134-.8526-3.8232,4.552-4.6792,7.8814-7.5066,11.481ZM3172.7123,968.6378c-1.927-.317-4.2849-.4251-4.1367,2.2251h0c1.4868,9.5379-4.3213,4.3125-6.0061-.452-.2842-3.7147,10.896-6.6474,11.9358-5.3791,1.0938,1.3341,1.1077,4.0832-1.793,3.606Z" style="fill:#122521;"/><polygon points="726.61 745.5801 726.6101 745.5801 726.6102 745.58 726.61 745.5801" style="fill:#122521;"/><path d="M732.6382,896.2532c.0275-.0142.0716-.0272.1132-.0404-.0115-.0046-.0414.0034-.1132.0404Z" style="fill:#122521;"/></svg>