<?xml version="1.0" encoding="UTF-8"?><svg id="Layer_1" xmlns="http://www.w3.org/2000/svg" viewBox="0 0 2912 1632"><path d="M2910.0674,654h-.0371c.002.0269.0029.0669.002.1147-4.2705,14.1448-14.1182,46.53-15.4229,48.8352-1.6738,2.9557-16.4492,29.05-16.4492,29.05l-2.4102,8.0964c-1.4932.8564-3.3711,1.8042-5,5.0236-2.5898.12-6.9297-1.76-10.29-1.97-2.7402-2.4501-2.7295-6.85-5.21-10.53-2.7803.84-2.0898,3.6901-4.1797,7.51-1.0898-2.61-3.0303-4.17-5.9805-5.1901-1.7295-2.09-.2295-5.5699-3.3896-7.8499-2.7402,4.1899-2.0205,8.0499-5.3906,11.49l-3.7998-6.3201c-6.3301,6.5801-1.9395,16.3101-7.9697,19.6599-2.2197-6.73-2.8096-12.5599-5.6396-18.1199l-1.5,10.3599c-2.5801-1.2-1.4199-4-3.3701-6.3799-5.1406,16.6508-3.5039,7.1099-8.0332,18.0244l-6.5869-13.9944c-.4541.229-.7627.4883-.9805.7717l-3.1602,2.4863-.8799-1.2581c-.1143.827-.2812,1.6072-.4941,2.3394l-9.876,7.7705-8.0791,7.5601.3926,9.5767c-1.5312-3.3401-4.8496-2.4426-.3926-9.5767.1699-4.1699-.3604-3.23-2.6504.17-1.0205-1.55-1.2402-3.29-2.8398-2.37-1.8203,4.33-1.0605,9.3899-3.6699,9.05.4375.6812.8076,1.468,1.0498,2.3262-.2432-.8575-.6133-1.6439-1.0527-2.3256-2.1387-.2806-3.042.6793-3.0127,3.5931.0186,1.7607-.1787,2.9658-.0264,3.882.1943-.0656.4648-.0381.7783.0228-.3125-.0598-.582-.0859-.7764-.0186-3.5498,1.1899-6.8203-1.6301-10.1904-2.4501-1.25,2.4501-2.7598,6.0499-5.9297,5.61-1.0439,8.9049,1.1973,10.5438,3.04,11.874-7.6748,3.6346-16.3301,7.6683-24.9268,11.541-16.2275,7.3098-114.2285,13.807-181.9268,17.5057-.1992-.7455-.8047-1.5435-1.9365-1.5607l-43.8701-.78-17.7402-2.24-16.3994-4.74c-.8906-.26-11.25,6.3499-10.8301,9.01.6396,4.0299,12.5693,1.3799,12.6699,11.8999-1.2002.8601-3.2402.9-3.9697.99-.1504,3.3101-2.7305,6.4-2.8906,10.1201l-.2402,5.6299h.0107c-.0273.6199-.1348,1.356-.2969,2.1725-1.2783,1.1868-2.584,2.287-3.9092,3.2523-12.7402,9.2825-8.7041,22.8835-70.4785,57.9552-40.3252,22.8937-55.2402,36.1411-60.7393,42.5822-1.4502-.905-3.1582-1.9006-5.2061-3.0122-5.1807,2.54-.3906,13.1201-5.6807,12.6602.0205-1.1101-.3301-2-1.1299-2.79,1.0605,1.1799.9805,2.5.5205,3.9399l-.0107.01c-.2598.49-.5098.98-.75,1.47-.1992.4301-.3994.8601-.5693,1.3-.0801.2-.1602.4099-.2207.61-.0898.26-.1699.52-.2295.78-.0098.0299-.0205.0599-.0205.08-.04.15-.0693.29-.0996.4399-.0703.3301-.1104.6702-.1299,1.01-.002.0348-.002.0681-.0039.1023l-17.8486,20.1396-67.9878,41.1086-45.3174,17.0444c.1089-1.0505.0845-2.0864-.3325-3.135-1.2397-3.1399-5.1299-2.9399-8.2397-4.76,1.23-1.2999,5.3599-3.96,3.6099-6.0898-3.1201-3.78-5.8398-6.3101-7.1401-11.1001-1.1802,1.41-2.1099,3.4-2.8398,5.5801-.0601.1599-.1099.33-.1602.5-.5,1.5399-.8999,3.1699-1.21,4.73-.0298.1599-.0601.3199-.0898.47-.2202,1.1499-.3999,2.26-.54,3.27-.0503.33-.0903.6399-.1201.95-.3101,2.45-.3701,4.1899-.2998,4.29q0,.01.0098,0c-.04.1699-.0898.34-.1499.5-.3198.99-.8198,1.9299-1.2998,2.8999-.1602.3101-.3101.6301-.46.9501-.46,1.01-.8301,2.0699-.9302,3.27-.02.2599-.0298.5199-.02.7899,0,.27.02.54.0601.8201.0498.35.1099.7.21,1.0701,1.0898,4.1799-1.48,6.7-5.1899,7.51-1.52,1.0698-1.5,4.1699-1.6201,6.8099-.1396.8085-.375,1.4585-.6592,1.9525l-1.2773,1.052c-.7803.0786-1.5591-.7634-1.8936-2.7246-.9297-2.3899-2.2598-3.3499-3.1396-3.9099-1.9502-1.25-3.7104.6699-5.2202,1.54.2598,1.4199.3901,2.6799.3999,3.8199-.0151.7484-.0923,1.4974-.2212,2.2422l-37.4585,3.5778c-23.2104,7.72-8.3901,9.5701-18.0205,12.1801-1.0098-2.0599-2.3198-4.02-3.4897-6.11-1.0298,4.52-3.98,8.8101-8.71,8.58-3.1802-.16-5.6602-2.98-8.0801-1.1901-.0317.2638-.0137.5376.0151.8267-.0298-.2898-.0493-.5645-.019-.8297-.4331.3186-1.4248-.1226-1.9561.2145v-.0013c-.0698-.9501-.5698-2.5499-1.5801-2.6801-2.9702-.3899-4.5801-1.0999-6.5-.01-2.3398,1.3301-3.6699,2.49-3.7998,5.0601v.0042c-1.4639-.2322-4.228-.2622-3.98,1.8326,1.0688.405,2.0776,1.5294,3.1265,2.1997.8354-1.1354.9214-2.1338.897-2.9401.0264.8069-.0586,1.8062-.8936,2.9436-1.0498-.67-2.0601-1.8-3.1299-2.2-.4404-.1702-.8203-.6702-1.1504-1.4001-.0596-.1399-.1299-.2999-.1899-.46-.1196-.33-.23-.6899-.3398-1.0699-.0498-.1901-.1001-.39-.1499-.59-.2002-.8201-.3604-1.72-.5-2.66-.04-.2301-.0703-.4701-.1001-.7101-.3398-2.49-.52-5.1299-.6201-6.8899-.0098-.16-.02-.3101-.0298-.46-.0498-.9773-.0801-1.5859-.1104-1.5894.4849-4.2302.6313-8.3271-2.0879-12.0612-1.7734,4.8151-2.8677,8.2701-2.7007,11.9554.7329-.1703,1.4766-.2206,2.2192-.1973-.7437-.0215-1.4883.0309-2.2202.2023-1.79,1.4301-2.4102,4.12-4.9902,3.2799-1.3218-.4437-2.8018.2488-4.0996.5723,1.2979-.3269,2.7783-1.0132,4.104-.5763.0479-4.0503.1714-8.1293-2.3018-13.2484-.7236,4.7622-.96,9.2668-2.0342,13.8835l.0015-.0004c-.5801,2.4799-2.6597,5.4996-3.02,7.8394.0005.0011.0005.0027.001.0038l-.001-.0002-1.0249,1.3157c-.4673.422-.9468.877-1.124,1.4431l-4.5425,5.8314c-.3555-.175-.8726-.2727-1.5684-.2137-.1499.78-1.1299,1.1899-.0801,1.97.0962.0096.1812.0085.271.0122l-2.4736,3.1755c.0337-.1461.0649-.3065.0928-.4978-.2603.41-.5.8401-.71,1.29l-1.5601,11.5901c-.0503-.3901-.0801-.79-.1104-1.1801-.0195-.3199-.04-.63-.0498-.9501-.0298-.8199-.0298-1.6399.02-2.4399.02-.3201.04-.63.0698-.9399.2202-2.1801.7402-4.25,1.6304-6.0801-.02,0-.0503-.01-.0801-.03-1.2402-.6299-3.6899-7.1399-7.6304-6.25-3.1699.72-4.5195,9.4501-9.71,12.77-2.1396,1.3601-3.3496-1.3999-4.7598-2.6499-.8501,3.7999-.04,7.3099-2.8999,8.21-1.3599-1.64-1.9302-3.72-2.6602-3.8201-.79-.11-1.0298,2.45-1.8398,2.77l-9.0903,3.6001c-2.9595-3.1299-4.0396-7.489-6.019-10.3591.0005-.0002.001-.0002.0015-.0005l.0117-3.2803c.0029-.854-2.314-1.877-3.6113-.4854-1.21,1.2981-.0273,2.9771-.0537,3.8969,0,.0001.0005.0001.001.0002-.1001,3.5798-1.6904,8.5187-3.8701,11.6781-.6299.9199-3.4497,1.1399-4.6597,2.28-2.3901-1.05-.9302-3.78-2.5801-6.4301-2.3398,3.5299-2.77,7.1901-3.6899,12.3099-3.8203-9.0294-5.9302-5.9905-5.54-10.1892l.0029-.0007c.1479-1.6021.9546-6.1069-1.9395-6.0641-3.6226.2643-1.1294,4.8983-1.7134,6.4641h0l-2.71,7.1901-7.4102.1499c.04-2.6-2.3701-3.5601-3.73-5.8201-.2622.1553-.4951.2295-.7114.2615.2168-.0322.4502-.1079.7129-.2654.9404-.2378,1.2886-.7739,1.479-1.3867.2759-.885-.4277-2.2412-1.4678-3.0994-1.2866-1.6938-2.5781-1.7167-2.5728.2341-.0068.0524-.0146.1086-.022.1628.0073-.0557.0151-.1133.022-.167-2.7202-2.8198-.8501-7.0898-2.54-11.8999-3.7397,2.27,1.8003,13.95-8.9097,18.9299l-2.1802-5.8899-6.7373,13.9719-1.1587.2186c-1.2319-3.829-1.0991-6.8934-4.2139-9.7106-2.7002,1.96-1.46,4-2.75,6.9299-2.75-1.35-1.7402-4.22-3.5601-6.8-2.8804,1.8301-3.0103,6.05-6.0303,6.28-3.1401.25-3.0098-4.1099-4.9297-7.7-1.3003,3.73-4.7002,7.86-9.3203,6.55-3.2397-.91-5.6699-2.02-6.6499-4.5601-1.9297,2.42-1.6299,4.02-2.3799,5.41-1.7202-1.2101-2.21-2.4301-3.98-2.87-.8003,2.76-1.2402,4.5701-3.3301,6.86-3.9199-2.03-6.1699-5.16-9.6201-9.99-3.21,4.2001-1.9897,7.8199-4.0498,12.5-2.7002-.87-5.8198-14.86-6.4102-15.9601-2.5498,2.5901-1.75,6.52-4.9399,6.6201-3.9102.1299-5.3301-3.3201-8.0898-5.1301-2.54,1.6301-2.48,4.3701-4.9004,4.3601-1.4199-2.53-2.54-3.8501-4.3198-3.91-1.8799-.0599-2.1299,1.85-4.1699,4.2201-2.3599-8.0701-2.02-16.3701-5.75-24.29-3.4858,6.8665-2.8521,16.9032-5.7812,22.4023l-5.0283-2.3672-1.0903-7.9053c-1.5601,2.23-2.3501,4.9102-4.21,5.4102l-.5791-.0732c-.7349-.3022-1.5293-1.2864-2.6113-1.2468-.0137.3088-.0161.611-.0205.9146l-8.269-1.0446c.1099-.4801.21-.9601.2896-1.4301-.1895.4-.3999.8101-.3296,1.25-.7402-2.72-2.9902,3.67-6,6.5901-.3101.3099-.6304.5699-.96.78-.6899.45-1.4204.6699-2.1602.5199-.1602-.0299-.3101-.0699-.4702-.14-.3198-.1199-.6396-.3199-.96-.59-2.9199-2.4601-3.54-7.27-4.8896-10.76.8198-3.17-.4302-5.2799-2.5801-2.65.1602,3.97.0098,6.79-2.1699,9.8-1.7305.1599-2.46-2.26-4.3101-5.28-1.6099,2.9-1.1201,6.76-4.1704,9.4399-2.0195,1.78-5.0298.3501-5.7295-1.26-.8101-1.8198-.7305-3.1799-1.3501-6.3398-2.0801.8099-1.8599,3.26-2.6401,5.24-3.0498-.67-4.8701.96-5.9199,4.27-4.7603.1899-1.7202-6.9001-7.3398-12.8901-.4805,2.02-1.2402,5.0701-4.1704,6.1301-4.3398-2.5701-3.1699-7.5901-3.77-12.7101-3.8799-.5699-.2798,10.08-4.5801,8.0599-3.3096-1.5499-3.1099-8.75-5.6797-4.8699-1.1699,1.78-1.0498,3.34-1.8203,3.74l-4.7197-13.05c-2.5698,6.04-4.4102,12.12-10.6201,16.1001l-4.27-6.28c-4.6797,2.6599-2.8999,11.6899-6.6401,10.1399-1.5698-3.1-2.0596-7.3199-5.0298-8.34-9.5698,4.14-2.27-6.9401-9.2598-17.6901-2.5903,4.04-4.2104,8.52-4.3003,14.24,1.9399,2.1101-.1797,2.5701-1.4399.5-.5801-2.8699-.6802-5.2799-3.04-6.5898-.8398,4.8599-1.02,9.21-5.5898,10.6899-3.1401-5.54-1.75-10.95-4.6099-14.51-4.6304-1.37-5.8203,3.46-7.46,5.97-.3301-3.3899,1.21-6.5699-2.3203-8.1399-1.1797,4.2899.8501,6.76-1.6899,8.24-1.4702-1.5-1.2603-3.0901-2.2603-3.6801-.6099-.36-1.5298.0599-3.0098.48-2.0498.58-2.9199-2.35-4.2197-3.9l-7.6602,2.6801c-3.04,1.0599-1.8501,6.9301-5.3701,8.0599-10.4399,3.3701-2.6797-10.8699-10.1201-19.8699-4.6597,4.4399.3003,14.23-9.29,15.6899-1.3398-5.88-3.1597-10.51-5.96-15.3701-4.0098,3.8201-.5698,12.7001-8.46,13.3401-.5498-5.14.0103-9.6799-1.9199-14.27-6.6699,9.8-7.0898,7.16-12.8599,16.22l-3.9199-9.08c-1.6001,1.7999-3.0601,4.5599-4.9102,5.09l-5.5801-4.78c-1.2202,1.4102-1.29,3.42-2.9897,3.26l-1.04-15.3899c-6.6699,2.8099.3301,13.51-4.8799,13.53l-.2803-14.3701c-2.5698-.6199-5.23-.36-7.8398-.04.21,1.4301.3398,2.8801.3701,4.3301,1.0229.6593,1.543,1.7278,1.7144,2.9098-.1724-1.1825-.6934-2.2511-1.7158-2.9098-.0293-1.4503-.1611-2.8958-.3726-4.3307-.2646-1.572-1.7964-1.0878-1.915.6298-.5791,2.2234-2.8521,1.938-1.479-.3273-.8853-3.4198-2.0972-6.5175-.563-10.3971.2075-3.8214-2.2153-4.5753-2.3413-.499-2.2217,1.8428-1.6826,3.6172-1.9746,4.9236-.001.0005-.002.0002-.0034.0007l-2.6997,12.0901c-6.0103-8-2.3999-15.9202-6.54-13.79-3.2603,4.34-1.0103,8.59-3.52,13.8999-2.2402-3.6-1.0103-7.54-2.52-13.21l-5.9702,9.8101c-2.4102-2.3301-1.9399-5.3101-2.6499-8.6801-2.7202-13.01-3.3799,11.75-8.5,10.3099-1.29-7.5399-2.1201-14.25-5.9702-19.8199-1.5098,3.84.0703,9.61-3.6099,11.27-3.3599.52-5.1099-3.5-6.3696-4.83-.04,2.53-.8901,4.2-3.0903,5.1799-4.46-10.98-3.1201,4.3-9.8101-16.45-.9102,6.87-1.0298,12.34-6.0098,16.35-.8203-3.2899.3701-5.4601-2.8101-6.66-3.0601,3.04-3.9502,11.51-8.77,10.24-4.0898-1.09-2.4702-8.04-7.0498-11.6899-2.6802,1.2-3.7705,3.76-5.5503,4.8899-1.6997-1.3599-4.2998-2.1699-5.6201-.25-1.3896,2.01-1.77,4.04-2.2798,6.4901-4.8599-3.9601-2.6001-8.86-7.1602-12.2301l-7.4497,8.53c.0601-.0499.0098-.2-.1401-.45-.02-.05-.0601-.1-.1001-.1599-.3398-.52-1-1.3401-1.8301-2.3-.1401-.16-.2798-.3201-.4297-.49-1.9702-2.24-4.7002-5.0801-6.7402-6.98-.5698-.53-1.0801-.98-1.5098-1.3301h-.0103c-.21-.1799-.4102-.3301-.5801-.4399-.0791-.0592-.1572-.1082-.2266-.1479.0454-1.2976.0015-2.6904-.7402-3.7281-1.0454-1.4617-2.9238-1.1471-5.6123-2.1669,2.7417-2.5176,3.3604-6.0671,2.2246-9.2571-.5688-1.5979.7124-3.585-1.1128-6.1265-1.9009,1.6659-1.2676,4.2623-1.438,6.1842-2.356.1194,1.6089,8.4059-2.1768,6.7635-.7593-.3295-.8994-1.4847-1.1694-3.0518-3.2246-6.3038-2.9595,5.5161-4.0977,8.0782.9365-.2701,1.9741-.1326,2.6196.2585,1.0747.651.9541,2.1088,1.749,3.5614.2949.5396.6602.9778,1.0674,1.3417-.4072-.3634-.772-.8009-1.0669-1.3395-.7998-1.46-.6797-2.9099-1.75-3.5599-.6499-.39-1.6797-.5299-2.6196-.26-1.4302,3.2201-1.71,6.5-4.0601,10.3-3.5-4.12-3.23-8.36-5.2002-12.2201-2.5,4.74-1.3398,9.6401-5.5103,11.3-.8896.3501-2.2798-1.0601-2.8999-1.08-3.9497-.13-1.77,9.91-3.1001,14.0599-3.0498-1.53-.7695-14.26-6.7896-22.4099-.1802,5.4399-1.0303,9.23-3,14.73-.4102,3.04-1.5-.48-3.77-1.21-1.8604-1.4102-1.2402-4.1801-2.4902-7.5-1.7397,1.0999-1.8198,2.83-2.46,4.0999l-4.6299-12.0999c-9.0898,11.08-2.9702,15.3398-10.9902,23.33-2.1797-3.7401-2.9697-7.67-6.21-10.59-2.3701,2.59-16.7998,3.9099-18.4199-.4501-4.9297-13.2999-6.2998-13.76-9.46-28.2799-3.1201,3.8999-3.4199,8.47-4.27,13.6199-3.6802,22.23-7.1499,13.3201-10.3599,28.79-4.1104-6.45-11.0703-16.53-11.3901-22.53-6.6001,13.78-3.98,1.5901-9.5498,16.3601-.3999,1.0699-.3301,3.0599-1.27,4.23-3.3701,1.3799-6.8003,2.5699-10,2.1799-1.02-.13-2.6699-.4199-2.7002,1.46-.4697,13.1201-5.1001,3.75-3.1797,20.03-4.7803,2.5801-6.79,7.73-6.7202,12.1001.3774.3054.7461.6758,1.083,1.0867-.3379-.4111-.7075-.782-1.0874-1.0885-1.1963,2.337-3.8394,3.4911-5.9517,5.5809-2.1675,2.145-1.3467,6.9458-4.1284,8.4133-2.8706,1.5146-4.2017-3.1619-5.9429-4.5598-5.2549.9236-6.7295,6.7041-10.3032,10.118-2.5605,2.4464-10.6533-.6292-10.7256-4.3258-.1992-10.1437-2.0176-18.6868-9.0142-26.5055-2.9243-3.2677-3.9126-7.7247-8.1919-10.441-2.2451-17.1582-4.5898-6.6339-9.3892-25.5571-4.7397,4.3582-4.6538,8.6002-8.3623,13.2174-2.3491-2.6727-2.0742-5.6566-2.9458-8.8525-3.8936.6869-6.3267-.7489-7.9961-4.2811-2.7588-5.8362,8.0605-7.161-1.4331-17.6428-1.7085-1.8861-2.9873-8.9379-6.5088-9.4404-6.9282-.9886-7.4521,7.3728-9.1646,11.9099-4.9043,12.9968-2.8569,17.0725-13.356,24.4728-4.4946,3.1678-5.9131,6.0736-7.438,11.3031-.9233,3.167-6.2764,1.8818-8.415.8982-6.1621-2.833-2.5186-10.1461-3.7642-12.5112-1.7778-3.3762-8.127-.79-8.4565-2.7715-.2773-1.6682,7.2017-7.8357,1.8315-9.0098-2.6367-.5764-5.2715.7832-6.1606-2.2043.1475-4.3961-3.2275-5.2513-4.1509-.9541-4.0591,2.219-3.4355,5.4202-4.3086,8.8529l-2.4253,9.5389c-1.4351,1.0967-4.27,2.7529-6.2153,2.5453-4.8013-8.2904-.1431-10.2839-1.9966-17.1219-4.6455-1.9668-6.5264-5.438-7.79-10.0786-1.4302-1.6774-2.8022,1.4342-3.9175,2.4968-1.8477,1.7607-5.2759.0564-6.9482,2.2488-1.689,2.2131-1.2515,4.9478-2.1411,6.8313-.002.0007-.0039.001-.0059.0017-.4097.62-2.1201,4.3501-4.27,3.24-4.1499-2.13-3.9897-8.13-4-11.55-1.1899.0801-3.9185-.5496-5.0786,1.0691.0005-.001.001-.0021.002-.0032,1.1582-1.6174,3.8906-.9873,5.0786-1.0693-.0054-1.9585,3.7065-4.5171,1.3799-7.1996-9.0542-10.4371.603-18.3912-9.3413-14.3792-5.167,2.0846-5.561,7.8971-7.126,12.4598-1.4761,1.5872-4.2095,1.2556-6.5986,2.0325l1.291,6.95c-1.6646,2.5164-3.9175,4.4116-3.4995,8.3137-3.6987,7.2207-2.397-7.4419-11.8521-5.7025-5.3564.9855-4.0967,17.2107-7.5771,24.016-6.5684-1.7776-7.7852-5.9014-8.7749-12.6968-2.7349,1.2035-1.981,4.0122-3.1802,7.0974-.5898,4.4834-4.6709,4.0938-4.8081-.1621,5.252-.088-7.1108-19.9946-7.1108-19.9934-.1133-.3997-2.4268-19.9666-6.6714-22.7815,2.3066,4.8879-5.0859,19.8208-8.1821,21.8097-4.5264,2.9075-3.7949,6.743-2.417,10.2592-.001.0001-.002,0-.0034.0002.5601,3.65-1.2803,8.46-3.0801,12.03-4.4897-24.37-3.1201-6.21-11.4399-28.12l-1.3101,26.4c-3.23-2.64-.6602-5.6799-1.7603-10.21-3.5698.08-1.0996,6.1099-4.8198,6.09-3.3599-.02-1.75-5.4801-3.8799-7.66-3.2002-3.28-1.4502,6.0701-7.75,6.8401-1.8198-6.3301-2.54-12.6301-1.8901-19.2201-2.4102,2.17-2.3701,4.34-4.3701,3.7301-1.3301-3.9102.6201-7.1201-1.7695-12.0901l-7.6704,10.45c-7.4297-8.0699-3.6299-1.8899-9.4399-10.1499-.1797,4.6-1.8896,6.9299-4.0898,9.6499-.3398,2.97-1.8101,2.8-2.0601-.09-1.25-2.24-2.2002-4.5599-1.6299-7.5699-.8599-2.75-2.6001-2.28-3.1499.27,2.1597,2.83.3096,4.7999-1.3901,2.5499.1597-5.1801-.52-8.7599-3.9902-11.62-2.1401,3.01-1.3999,6.65-3.29,8.3201-7.4399-1.54-.9399-7.42-10.5601-8.4301.3804-3.7999-2.5796-3.67-1.2598-.97-1.2002,5.25-3.3501,9.6-6.0898,13.7799-4.2002-2.9199-1.1201-19.3599-9.52-14.51l-4.5-9.3899c-2.8599-5.98.4697-12.98-4.1099-18.0701.6499,5.27-1.8501,8.55-3.8701,12.75-2.25,4.7,3.5298,20.01-4.6602,15.1201-6.3398,14.8599-3.1099,2.71-9.1001,14.2l-5.4399-18.74c-1.6602-.5901-3.9697-1.0601-4.2402-3.9401l-1.3096-13.62c-.3701-3.83-.52-7.52-3.73-10.0601-.1001,7.53.5601,12.8501-1.79,19.49-1.25-.5898-2.8701-1.0698-4.52-1.22-2.7803,2-3.1802,10.1501-8.71,21.51-5.5596-2.5331-25.5039-6.5051-35.6431-8.4253-.6973-1.9062-1.7188-3.5016-2.0571-5.1647-2.0498-1.0199-2.5698,2.4-3.96,4.0499-8.6099-5.3999,2.6201-5.3298-12.3599-19.8298-3.6401,7-6.7202,13.0299-11.6704,19.4399l-11.8296-1.38c-1.25-5.2101-1.3901-10.27-1.8501-16.1801-.1802-1.6399-1.6699-2.24-2.6699-1.1199l-4.7803,12.2999c-4.0298-6.26-5.27-12.4601-7.6997-19.0499l-14.6602,22.23c-2.46.8398-5.3198-2.17-8.3301-2.2001-2.8901-1.2799-1.3599-2.49,2.0303-2.76,4.6597-15.83-3.1104-8.4401,1.9199-17.8199,1.5298-2.8401-3.1001-4.03-6.1499-4.03-.1504-5.41-1.6802-10.75-5.3501-14.55-3.4399,4.99-3.3003,10.6301-7.25,14.6101-1.8301.7999-6.04-.0801-7.1401,4.6799-1.9399-.4299-2.1699-1.8301-.79-2.8401,1.27-.9199,2.2998-1.7,3.04-2.6899.8203-1.09-2.5-14.96-6.79-19.55-8.52-9.1199,1.1499-10.0299-8.27-12.24.5698-6.02,1.46-4.8099-2.9097-9.1099-1.0771-1.0593-2.7817-1.6359-3.3511-3.1045.5713,1.4688,2.2778,2.042,3.3521,3.1007.7939.5521,1.6797-.1206,2.2847-.8478.5435-.6531.9302-1.8774-.0054-3.2894-.8721-1.3153-1.7422-1.4979-3.2578-1.6602-1.1553-.1237-2.4121.1135-2.5439,2.0073,0,.0013.0005.0026.001.0039-.4497.5599-1.7896.5199-2.46.1199-1.3604-.1151-1.8799-.7478-1.7544-1.3179-.1226.5692.3989,1.2001,1.7563,1.3148.0137-.76.064-1.548.3569-2.2571.0005.0001.001,0,.0015.0001.5996-1.4601-.5303-2.36-1.3901-2.86-2.0801-1.22-4.6499-.21-5.21,2.86-.23,1.3087-1.3276,1.809-1.9082,2.099.2231-.7013.0688-1.3843-.0645-1.5508-.1333-.1666-.2451.1842.063,1.5514,0,.0001-.0005.0002-.0005.0004-.4697,3.65,1.3301,6.9,3.6704,11-1.6602,1.63-4.3804.29-6.6001,1.74-.8501,1.8201-.23,5.03-2.3301,5.29-1.1304-2.3301-1.1602-3.89-2.6001-4.98-1.0098-.76-2.3999-.9-4.5303-.23l-3.7896-3.4401c-3.6001,1.9501-3.3101,5.2201-3.8203,9.01l-5.1157,3.5546-8.4639-4.5146c-.2603-1.97-1.2002-4.3099.5298-7.5898.5698-1.78-3.3701-1.3301-4.4199-2.5601-1.6201-3.17,1.1997-7.7-1.1401-10.3-2.0498-2.27-5.0801.3201-8.1201,1.41-1.1396-13.63,5.6602-6.0399-1.0801-22.38-1.8398,1.5-1.8301,2.96-3.5195,3.9-1.1904.67-3-.33-3.9805-1.8.062.5839.0547,1.0782-.0171,1.5294.0708-.4504.0776-.9432.0151-1.5244-.0527-.0178-.0962-.0397-.1455-.0588,2.6626-2.0273,5.2471-4.6753,5.6538-7.5123.7109-.5286,1.3315-1.3075,1.7515-2.5338-9.9897-8.5486,4.3125-23.9646-5.1631-32.9368-2.916-2.7609-5.2139-4.3051-4.4473-9.3291-2.8691.3375-2.5186,3.4343-4.2544,4.0959-3.1929-1.0109-.6113-4.332-3.0234-7.9076l-4.7861,12.361c-6.7715-4.8344-3.2759-14.4663-7.0435-24.4541-2.8384,11.5002-6.8647,10.7058-7.3926,16.2651-13.6343-.3057-8.7026,5.1945-15.5225,4.0063-1.8184-.3169-2.2993,1.2202-2.5298,1.9989-.3486,1.1769.0151,1.8547,1.4556,3.2113,3.0303,2.8525-.7568,1.928-6.2061,10.0883-2.209,3.308-10.5176-.3326-19.2573,6.8387-117.6963-4.4285-202.0874-65.958-202.0874-65.958-.7598-1.15-1.48-2.26-2.1797-3.3301-4.1699-6.4299-7.3301-11.45-11.29-15.6899-.0103,0-.0103-.01-.0103-.01-4.25-4.55-9.4399-8.1899-17.8198-11.74-.1699-.0801-.3398-.15-.5098-.22-.29-.1201-.5801-.24-.8804-.3601-.2998-.1299-.6001-.25-.8999-.3599l-.3169.3101-8.7778-1.7158c2.0356-5.6954-12.9551-7.9105-18.8555-7.1643.2305,1.0601-1.8599,2.3301-1.5796,3.1699l-33.7144-35.0256c1.1475-4.9384-.0752-10.1128-4.3984-13.0677-.8042.703-1.6216,1.2648-2.4556,1.7582l-1.9116-3.1548-6.7021-.5935c1.7607-.1185,3.9351.026,6.7021.5935-3.0601-5.76-7.9199-10.2799-14.2803-13.49-2.79,2.52-6.48,4.22-9.5801,5.9601-.5654.3143-2.8511,2.7985-5.9707,4.8878l-16.0322-1.4199c-.6548-2.0269,1.1787-4.7273,1.3828-6.3279-11.7295,2.45-7.5396-1.6201-10.6895-2.6001-.8701-.27-1.8403.53-3.3301.8401-2.5103.54-6.27-4.3101-9.8604-3.6001-1.7798.3601-1.9897,2.6201-1.48,4.1602,1.6304.0099,3.5,1.5798,6.04,1.8099,3.2051,1.213,2.6665,4.0271-.2261,4.1093l-1.2339-.1093L0,678.37v953.63h2912v-984.4175s-.7471,2.4916-1.9326,6.4175Z" style="fill:#36604d;"/></svg>