<?xml version="1.0" encoding="UTF-8"?><svg id="a" xmlns="http://www.w3.org/2000/svg" viewBox="0 0 2912 1632"><path d="M751.89,490.58l4.58,1.64c-3.77.98-6.09,1.73-9.04,3.63-4.82,3.09-11.42,3.49-16.76,1.55l-5.2-1.89-4.79,1.96c6.4-6.54,1.11-4.33,7.84-9.26,1-1.08-.8-4.33-1.73-5.57-4.24-5.68-9.85-9.44-16.07-12.57-2.99-1.5-5.71-3.48-7.49-6.69,6.58,3.25,13.1,5.49,20.1,7.8,7.6,2.51,12.85,8.83,15.76,16.08,1.89-.02,3.59-.78,4.84-1.93,4.5-4.14,10.56-10.55,17.36-10.1,11.79.77,22.96,2.51,34.24,5-4.4.19-8.39-.63-12.7-1.01-10.37-.91-26.77.97-30.94,11.38Z"/></svg>