<?xml version="1.0" encoding="UTF-8"?><svg id="Layer_1" xmlns="http://www.w3.org/2000/svg" xmlns:xlink="http://www.w3.org/1999/xlink" viewBox="0 0 2912 1632"><defs><linearGradient id="linear-gradient" x1="1914.41" y1="1107.3178" x2="1914.41" y2="469.1108" gradientUnits="userSpaceOnUse"><stop offset=".0277" stop-color="#afc28e"/><stop offset=".1016" stop-color="#a3b888"/><stop offset=".3617" stop-color="#7f9c78"/><stop offset=".606" stop-color="#66886c"/><stop offset=".8258" stop-color="#567c65"/><stop offset="1" stop-color="#517863"/></linearGradient></defs><path d="M.0086,796v-10l2.2152-.2415c1.4168-.9282,1.5629.5484,1.8016,2.2084.6785,4.1015-.6494,7.4951-4.0169,8.0331Z" style="fill:#83a47a;"/><path d="M2912,699.6599h-21.6602l-140.3753-3.4163-706.4257-55.301-198.2055,159.0574s-461.5721,136.1131-479.6776,135.2867c-17.1733-.7839-79.5534,14.0139-82.0598,28.5425l-126.6571,5.3517-86.4789-29.4809-83.5698-21.97-15.7402,27.3501-24.0801-42.6501-5.124-2.8443c5.2715-7.403,10.7236-16.4305,10.2109-17.6643,2.4917-.1769,1.3301,2.5808,2.0215,3.5708l6.0054,8.6008c5.9116.478,10.8413-3.4452,13.8086-8.4169,1.7798,1.9095,2.8545,5.1749,6.0498,4.1478,2.6289-.8451,2.8374-4.1561,4.5269-4.9809,2.3145,2.5156,3.0356,4.9611,4.4185,7.2132,2.7495-3.1457,2.6187-5.8741,4.0952-8.2058,1.9019,2.4691.1938,5.0551,2.9062,6.4161,2.8599-2.1688,3.2764-4.8474,5.3652-7.5277,5.4507,3.2451-.5342,9.8833,7.2725,12.7548,1.0894.4005,1.9746,1.9543,2.3931,1.4741l1.9922-2.2855c2.2095-2.5353,7.3687,1.2836,9.312,5.2618,9.27-8.4036,7.4951-4.4159,14.6079-11.2054,2.0513,5.2207,9.9849-.9728,13.0645-2.9953,3.0054,3.085,1.5327,7.0718,3.207,10.8257,3.269-1.546,2.7979-4.414,5.5068-6.0881.7725,2.0101.6772,4.1545,2.375,5.5663,3.1992-8.0598,11.4258-1.2679,13.2471-2.338,1.0723-.6298,1.5317-1.7957,2.7354-2.9042,3.8418-3.5388,4.7129,5.2424,6.4639,6.9772.6816.6755,3.1157,1.4147,4.2935.2911,3.0371-2.8973,5.3774.2122,8.1528-.0034,5.6265-.4371,7.1763-17.2191,9.0513-9.89,1.3105,5.1243,9.2168,8.1514,8.0278,7.9674,2.1616.3345,4.3066-4.5988,17.0586-.1621,3.2559,1.1329,13.5845-.4613,15.8716-8.3538,2.4751,3.5766,3.0977,8.96,8.334,8.5554,3.7324-.2884,4.7207-5.0566,6.5718-8.2744,2.1748,2.9051,2.6309,6.4304,4.4395,9.4619,1.7568-1.0893,2.4263-2.1103,3.4385-2.384,1.5708,1.8352,2.6182,4.9951,5.1206,4.9462,2.9614-.0578,4.3794-3.1321,5.5249-6.6646,6.999,5.9447,2.2314,10.8517,16.8662,9.8513,5.6855-.3887,15.0054,1.8506,19.6006,4.0743l22.3311,10.8061c3.9116,1.8929,7.0684-4.9613,9.834-8.4109,5.0303,8.3948,21.2598,2.4999,23.9888-2.181,3.7998.6644,2.7183,6.4366,6.9028,6.8821,4.0249.4285,2.4062-7.7676,7.8047-5.9671,5.0161,1.6733,1.4507,11.9078,5.3223,14.1467,4.8311.0757,5.1367-5.618,6.9766-8.5027,1.5356,1.8856.3071,3.474.8296,4.5725.6333,1.3323,2.21,2.577,3.7661,1.2156,1.9248-1.6838,2.0332-4.5018,4.3887-5.9174,4.6221,1.2158,7.3979-1.4277,7.9639-5.3995,2.8608,2.5977,2.6025,7.8734,6.4712,9.1491,4.0933,1.3499,8.3569-2.5841,11.8716-6.3547,2.3491,5.7543,7.6431,9.0212,12.8599,5.8173,1.4404-.8846.8135-5.0143,2.9751-5.264,3.1519-.364,5.9077.9202,8.1748-1.5206,3.9019-4.2006,10.3311-3.3517,15.3394-4.6621,5.208-3.7984,5.667-10.9559,10.519-15.9717l3.0845,10.0217c3.2607-2.996,6.4814-3.3344,9.4688-4.679l10.4224-4.6909c2.9683-1.3361,4.3799-4.0713,8.0986-4.9407,2.0249-.4735,2.1909-4.8643,4.3184-5.2393,1.2104,3.106,23.5562-6.4178,21.0679-9.1741,11.3198-.9769,5.4272-6.4476,11.4756-13.4001,2.3101.1357,5.0977,4.1452,7.3071,2.3135,5.6875-4.7153,7.7856-2.2239,8.6104-14.0151-5.1694.827-8.437-1.6622-12.436-1.7432l-21.5781-.4373c1.584.0321-20.4058-1.7568-21.3091-4.3779-1.2822-3.7195,3.6592-6.1375,5.9268-8.5884l12.3979-13.3986c2.1836-2.36,9.1665-12.4384,15.3447-16.6547,4.0103-2.7369,2.5146-7.038,3.9702-10.4635,4.2559-10.0145,7.7637-18.9622,8.5522-30.0109.2441-3.4226,1.4448-18.1497,4.6338-16.0781l-10.084-5.5735c-10.8804-6.0137-22.3438-9.7882-33.5566-15.8522-33.0669,17.8443-61.5737,40.7081-90.6943,64.2021-15.6387,12.6174-38.4204,32.5778-54.2319,41.0602-18.771,5.3994-38.7754,6.032-58.2861,8.8716-25.8535,3.7629-50.5044,7.6895-75.9644,13.827-10.0728,2.4282-20.3784,5.2632-30.7383,6.7299.8589-.1216-13.6421-9.0977-15.1001-3.9126-2.4727-3.338-2.5503-7.256-4.3535-10.6925-6.0679,6.6632-1.8979-.5692-10.3003.6582-.7979-4.2048-4.314-6.3063-5.6812-9.8852l-5.0952-13.3323c-2.5776,2.5495-1.7314,5.6183-2.6265,8.9523-3.7388.3741-5.7729,2.7668-7.6646,6.5605-3.5288-2.2246-3.9819-6.5966-6.9937-9.2256-1.8325.9378-3.5547,1.7682-4.7983,1.113-4.4194-2.3279,1.0479-1.2321-6.2983-12.1981-1.541-2.3005-.4648-5.3341-3.314-7.6788-1.5742,3.2984-2.4268,5.5104-4.313,7.4596-.1406-3.2739-.3999-6.0848-3.8643-7.6895-5.5811,13.2118-2.3179,1.5715-11.8979,17.7846-1.5405-6.1356-7.1929-5.2086-9.4775-7.5441.1538.1575-13.1924-16.1229-12.4136-17.9151-2.5352,5.1166-4.2441,9.3118-9.6318,13.2388l-5.5146-11.108c-.5439,2.9221-.6738,6.2945-3.6465,7.3311-3.811-1.2451-5.124-6.3253-7.8901-11.3335l-4.5586,7.4759c-6.062-1.6537-8.1631-8.2604-8.9092-15.542-2.3584.7593-1.5791,3.5432-2.6787,4.6799-2.8149.9202-3.7896-1.2329-5.6011-3.9572-2.248,1.8236-1.9941,4.387-3.231,7.3763-2.291-2.5967-2.002-5.3005-3.667-8.1244-1.4561-2.4705-4.3086-2.3363-6.1509-2.0713-2.7705,1.1759-5.5312.2256-6.2358-2.021,3.9966,12.7394-9.6123-21.7392-7.103-10.8583-2.5913,1.7003-3.9766,3.9636-5.792,6.5896-4.0874-.3927-3.2964-6.4503-6.6255-8.2659-2.0293-1.1067-4.3657-.4883-6.6758-3.2961-2.8911-3.5145-6.8931-5.2838-9.103-9.9236l-4.2695,9.6353c-2.1108-2.6258-2.5962-4.9492-3.8896-6.9943-1.5952,1.4487-2.542,3.0814-4.2129,3.1252l-4.5542-7.8441c-1.438,3.1367-4.5205,6.3781-7.2134,5.3741l-5.9131-15.4225c-1.0728,6.2824-3.0396,11.2918-8.3887,13.9155-1.3833-6.8544-.9111-12.1914-1.2866-17.9283-3.1987,5.7036-3.731,10.572-8.0493,15.2414-2.8711-2.0677-4.3013-5.5919-6.6162-9.3597l-6.1152,4.3459-4.9258-7.4158c-1.4268.4324-1.8091,2.0126-3.6304,3.2158l-7.3584-12.322c-3.7378,2.6833-3.4082,5.9982-5.4619,8.6146l-6.5317-16.1963c-2.3833,1.1702-2.1431,3.1263-3.7734,4.1686-1.7363-5.6417-1.0703-10.0978-3.7759-14.3505-1.6318,4.2911-.71,7.8504-4.7646,10.5853l-5.1255-7.2308c-1.4033-1.98-3.6821-2.9717-3.1431-5.1406-4.2769-.1206-3.167,3.7729-7.1895,4.0202-5.2168.3207-4.4185-7.8506-9.7739-10.569-1.8018-.9147-3.5327.9904-5.4512,2.0358-2.1733-11.9471-6.5732-4.9333-9.1016-9.8742-4.3423-8.4875-4.1484,6.5651-12.9688,5.2209-2.729-2.6155-.25-7.0842-2.1367-11.0394-2.8232,4.7765-2.7168,10.0271-7.2222,14.8755-1.8511-2.72-1.8647-4.9815-3.3535-7.8423-3.2744,2.4474-1.8511,8.6662-6.562,13.5366-2.5684-2.7119-2.6318-5.0999-5.0972-8.9453-4.5244,3.4945-8.5103,6.3436-12.8765,10.5344l-4.2954-4.1447c-1.4355,1.6035-2.2402,3.243-3.4517,4.1808.2383,3.0928-1.5615,5.5118-4.4038,7.7315-3.3931,2.6498-4.2812,8.6122-8.2036,10.3112-3.5112,1.5212-4.2197-3.6774-5.5068-6.3244-3.0244,4.717-4.5474,8.886-6.3398,14.3788.0439,2.6734-3.0654,1.9299-.2061-.7744-1.979-3.9704-4.0308-7.3264-5.5-11.6124l-6.4014,14.2463c-1.4785-1.6235-1.5962-3.8759-3.9165-4.9052l-5.7222,18.1397c-2.3628-1.0928-3.0146-4.0382-4.9922-7.3182l-8.1763,15.5066c-2.542-1.4565-2.4629-3.6221-5.0205-5.8243-2.1318,2.5307-.7319,5.2535-3.2549,6.618-2.6001-4.1144,1.1069-6.9924-1.8364-10.2812-1.2251,5.496-2.5923,11.8874-9.1621,14.5119-2.5928-1.0793-3.4624-5.4689-3.2979-8.5372-.5981-2.2202-2.1646-2.1929-2.688-.1104.4624,3.8141-.2939,6.3228-2.9561,7.5901-2.3101-3.6537-3.772-6.27-6.1211-8.7255-3.5391,2.9492-3.269,8.0157-7.7041,7.4166-1.3599-.1837-1.9741-1.9624-3.8608-3.5325-7.1909,10.1796-2.7915-6.6578-13.0391-4.6469-.1157.9295.4478,2.4445-.3413,3.9491-3.1836,1.0338-5.6533-1.7283-5.2124-4.2063.5493-3.0876-.6992-6.0017-1.9829-8.7123l-4.2085,7.4125c-2.084,3.6715-5.0752,5.141-5.8247,10.1879-3.4912-3.4944-3.396-6.9419-6.5171-8.8394-1.9482,1.2626-2.3525,4.8408-3.8301,6.1616-2.7681.0683-3.3906-2.9114-4.8623-6.0151l-4.6606,7.3348c-3.7539-2.0256-2.4961-9.0178-7.0298-12.5073-2.4243,2.1031-3.5591,17.9056-7.6807,9.5783-.4482-2.724-.813-4.5628-2.8315-4.5446-4.3677.0396-3.8521,9.5442-5.6792,6.5054l-2.2314-3.7097c-.9639-1.6035-4.4087,4.2379-2.6147,7.7607-1.0815,2.4331-2.3105,1.8864-2.7612-.438.1313-3.3586.5361-6.4836-2.0791-9.1068-8.5898,16.8632-6.2881,5.144-11.0059,16.6385-3.3066-2.9149-4.167-7.0981-4.5938-11.3024-1.231.2537-2.4878.3596-3.7427.2782-.0518,3.1398-.3149,6.2249-2.1831,9.8738l-5.29-8.3323c-1.8506,2.8617-1.6045,5.6033-4.897,6.5968-2.0903-.8616-1.6899-3.4901-4.2246-5.0953-2.6045,2.1059-2.2656,4.8181-6.1987,6.877-1.8169-2.8104-.127-6.127-2.7837-8.429-2.0542,4.5061-.1152,8.1705-3.2095,11.9111-.9907-2.1269-.9507-4.2452-2.7744-5.8267-1.3999,2.0582-.6538,3.1888-.7485,4.1465.0083.9607.27,2.0186-.2485,3.7884,0,0-449.5615,4.2552-449.7334,2.1785-.1719-2.0767-4.0254,844.0331-4.0254,844.0331h2919.6543l-7.6543-932.3401ZM873.8691,837.3865c-.3862.5684-.7471,1.1257-1.0864,1.6757l-1.4683-2.4974c.8647-.249,1.7212-.0724,2.5547.8217Z" style="fill:#92ac83;"/><path d="M2890.0801,704.6c-.28-1.6.3899-3.46.26-4.9401-.26-1.5698-2.1602-1.3599-4-2.1199l-31-12.76c-17.7-7.28-33.77-16.39-49.9001-26.3701-1.3799-.8499-2.97-.6599-3.6199-1.6399-.1201,1.3101-.4102,2.5-1.3,2.53-.8701.04-2.9199.4099-3.5801-.16-4.5999-3.9701-8.6099-1.85-13.6899-1.63l-18.6299.78c-2.1702.09-4.1802,2.26-6.5103,1.4399-5-1.77-8.5198.0901-12.7898,1.52-5.4402,1.8301-11.3901.96-17.27,1l-12.02.0801c-36.98.24-30.1799-5.5701-51.8401-5.1201-3,.0601-1.97-5.55-.5498-6.4399-7.9502-.1899-15.9102-1.3301-23.8701-.0901l-43.27-1.2899c-58.25-21.75-111.5601-27.51-170.5801-51.08-25.8599-10.3301-65.6699-45.5901-86.8599-65.1301-1.6899-1.5599-2.6899-3.1599-2.97-4.8099-4.8801-.6-6.27-6.66-11.6902-1.9501-7.27,6.3201-7.5798,11.04-21.8298,7.2301-9.4602-14.3199-17.52-28.75-28.99-41.34-4.1301-4.53-42.3301-33.29-48.04-35.16-13.1499-4.3199-27.9102-.26-41.51-3.34-13.47-3.05-24.5601-10.6101-36.2-17.47-2.5801-1.52-5.2202,1.5-7.02,2.8799l-69.0901,52.79c-2.8101,2.1499-5.27,4.28-8.1399,4.75-4.5901,5.39-10.98,9.3101-17.75,13.36l-59.6001,35.6901c-1.3999.84-3.23.74-3.85,1.5599-3.59,4.7201-10.33,5.33-14.7101,8.4701-6.1599,4.4299-12.21,9.9099-20.48,13.0099-33.1099,12.4-30.23,7.2301-53.1199-.87-4.54-1.6-7.0801-1.52-10.5701,1.64-5.86,5.3099-26.2,23.0399-31.86,23.2899-2.75,3.79-7.54,5.8501-12.1,8.5-10.97,6.4001-20.6001,13.3401-30.4,21.2101-9.25,3.67-46.58,1.03-53.7101,5.09l-24.0699,13.6901c-1.62.92-2.3099,2.67-2.98,3.4401-3.2101.4199-6.15,1.99-9.67,3.6299l-30.03,14c-15.5299,7.24-29.5399,16.53-45.1099,21.4-1.02.3199-1.76,1.87-3.49,2.61l-66.2201,28.13c-11.24,4.78-23.12,7.63-34.66,14.1801-14.54,8.27-29.52,15.08-43.6699,24.27-8.67,5.6299-24.0701-9.52-31.97-8.98-3.1901-2.0701-4.3901,12.6499-4.6401,16.0798-.7799,11.05-4.2899,19.9901-8.5499,30.01-1.4501,3.4202.0399,7.7201-3.97,10.4601-6.1801,4.22-13.16,14.2999-15.34,16.66l-12.4001,13.3899c-2.2699,2.4601-7.21,4.8701-5.9299,8.5901.88,2.53,21.39,4.28,21.39,4.38l21.5.4401c4,.0798,7.27,2.5698,12.4401,1.74-.8301,11.7899-2.9301,9.2999-8.6101,14.0199-2.21,1.83-5-2.1801-7.3099-2.3199-6.0499,6.96-.16,12.4299-11.4801,13.3999,2.4901,2.76-19.8499,12.28-21.0698,9.1801-2.1201.37-2.29,4.76-4.3101,5.24-3.72.87-5.13,3.6-8.1001,4.9401l-10.4199,4.6899c-2.99,1.3401-6.21,1.6799-9.47,4.6799l-3.0901-10.0199c-4.85,5.01-5.3099,12.17-10.52,15.97-5,1.3099-11.4299.4601-15.3398,4.66-2.26,2.4399-5.02,1.1599-8.1702,1.52-2.1599.25-1.5399,4.3799-2.98,5.26-5.21,3.21-10.51-.0601-12.8599-5.8101-3.51,3.77-7.77,7.7-11.8701,6.3501-3.8699-1.27-3.61-6.55-6.47-9.1501-.5601,3.97-3.34,6.6201-7.96,5.4001-2.3601,1.4199-2.47,4.24-4.39,5.9199-1.5599,1.36-3.13.12-3.77-1.22-.52-1.1001.7101-2.6801-.83-4.5701-1.8401,2.89-2.14,8.5801-6.97,8.5-3.8801-2.24-.3101-12.47-5.3301-14.1399-5.39-1.8-3.78,6.3899-7.8,5.96-4.1899-.4401-3.0999-6.21-6.8999-6.8801-2.73,4.6802-18.96,10.5801-23.99,2.1802-2.77,3.45-5.92,10.3099-9.8401,8.4099l-22.33-10.8c-4.59-2.23-13.91-4.47-19.6-4.08-14.63,1-9.8701-3.9-16.8601-9.85-1.1499,3.53-2.5699,6.61-5.5299,6.6699-2.5.05-3.5499-3.1099-5.12-4.95-1.01.27-1.6799,1.29-3.4399,2.38-1.8101-3.0299-2.26-6.5499-4.4401-9.4601-1.85,3.2201-2.84,7.9901-6.5699,8.28-5.24.4001-5.8601-4.98-8.3301-8.5599-2.29,7.89-12.62,9.49-15.87,8.36-12.58-4.38-14.84.3501-16.97.1699.5499-.0499-6.86-3.0399-8.12-7.98-1.88-7.33-3.4301,9.4501-9.05,9.8901-2.78.22-5.12-2.8901-8.1599,0-1.17,1.1299-3.6101.3899-4.29-.29-1.75-1.73-2.6201-10.51-6.46-6.98-1.2101,1.1099-1.67,2.28-2.74,2.9099-1.8201,1.0701-10.05-5.72-13.25,2.3401-1.6901-1.41-1.6001-3.5601-2.3701-5.5701-2.71,1.67-2.24,4.54-5.51,6.0901-1.6699-3.75-.2-7.74-3.2-10.8301-3.0801,2.03-11.02,8.22-13.0701,3-7.1099,6.79-5.3398,2.8-14.6099,11.2-1.9401-3.97-7.1001-7.7899-9.3101-5.26l-1.99,2.29c-.42.48-1.3-1.08-2.39-1.48-7.8099-2.87-1.83-9.51-7.28-12.75-2.08,2.6799-2.5,5.36-5.36,7.53-2.71-1.3601-1.01-3.95-2.9099-6.42-1.4701,2.33-1.3401,5.0599-4.0901,8.2101-1.39-2.26-2.11-4.7001-4.4199-7.22-1.6901.8298-1.9001,4.1399-4.53,4.98-3.1901,1.0299-4.27-2.23-6.05-4.1401-2.96,4.9701-7.89,8.8901-13.81,8.4102l-6-8.6001c-.69-.99.47-3.75-2.02-3.5701.9301,2.24-17.74,30.0701-19.4,27.4401.51,2.3199.62,4.9801,2.46,6.84,3.69-14.5599,2.8-1.6,11.85-13.77,6.98,21.78,4.78,9.23,7.05,14.3401,2.99,6.7,1.88,15.49,7.73,20.9099,4.31,4.01,7.83,7.8701,9.3,7.4001,2.23-.7201,3.91-6.5701,5.5099-10.52,1.78.76,2.52,2.5399,4.7401,3.02.85-12.9001,2.83-5.8401,5.49-19.8501,3.23,6.05,3.2699,12.64,4,19.4399l6.99,5.1602c2.15-3.2201,4.7899-3.4102,7.84-4.7201,2.6101-1.13,2.49-4.7999,2.03-7.8099.5601-2.1801,1.88-2.1101,2.65-.1001-3.38,4.42,5.98,20.25,9.0199,21.8701,5.1001-5.4401,2.1101-13.5901,9.24-16.3401,5.75,20.12,9.77,5,9.8101,18.52,1.5901-.5,2.25-1.23,2.92-1.48,1.7001-.62,3.11,1.09,2.3099,3.9199.5901,2.1501,1.8301,2.1401,2.8701.0901-1.6001-3.78.6899-5.25,2.5-7.4399,1.77-2.1602-.2201-6.7001,3.46-8.5601,2.53,2.12,1.45,6.3799-.38,9.1499,2.65.7201,4,1.49,5.2,3.6401l4.12-5.26c.8701,2.9399-.29,5.6799,2.29,6.59,4.3999-4.0599,5.0601-8.6901,6.7-14.7001,3.1001,1.78.9401,5.15,2.8,7.5701,6.63,8.6399-2.5601,10.48,7.3999,13.96,4.26,6.51-.0199,25.0601,8.3901,20.0701,1.5499-.92,2.74-.5801,3.78-.5801,1.3499-.01.9199,2.13,1.75,2.89,9.1299,8.2999,4.71,11.9501,12.7,25.8099,4.5,1.7301-.8701-4.2899,4.3799-8.26.8701-.6599,2.5-.0199,4.79.6401,2.0701-3.29.8801-7.53,4.01-11.4301l5,12.5699c2.1201-1.46,3.05-4.74,4.78-3.3199,2.62,13.24,5.9399,10.0599,6.39,13.39.39,2.89-1.2001,4.27-4.78,5.74,1.14,2.15,2.7301,1.4,5.08-.22,12.29,16.6699,1.55,8.01,11.28,23.1299-.55,2.7001,2.1101,2.9001,1.3501.53,2.5999-6.97,2.45-19.53,5.51-19.8199,3.73-.35,9.72,17.4,11.02,22.6801-.52,2.8599,1.2899,3.8999,2.3298,1.1599.53-2.6299,2.5901-3.1299,4.27-5.34,6.9001,6.65,2.67,8.0499,7.4601,13.7001l5.09-10.6602c-.0801,4.3401,1.3101,7.9102,5.1001,9.5901,1.4399-1.6,5.1299-2.4099,5.9099-5.04l4.97-16.72c1.5701,5.12.99,9.8401,6.8601,10.86,2.1299-2.7799,2.5499-5.92,4.3799-8.91,1.1101-1.0699,1.3301-2.1499,1.8-1.76,3.1499,2.5901,2.38,4.67,3.1899,5.6602.3401.4199,9.67-.5701,11.4-7.53,1.58,2.75,2.52,4.1099,4.02,3.6299.7999-.26,2.15-1.1199,2.5399-1.9399,3.5601-7.62,8.8901,2.35,26.6201-7.3201,4.45-2.4199,9.27-13.6399,11.25-13.98l3.36,9.01c2.4401-1.1,2.99-3.58,4.48-5.52,2.0699,3.41,2.23,5.9501,3.7999,8,13.51-3.83,13.1001-8.09,15.9401-8.8799,4.4401-1.23,7.9701-1.41,11.65-4.8101,1.12-1.02,4.37.7,5.1599-1.4.4701-1.2699.6602-2.83,2.4601-4.9,1.0499,2.6001,1.4601,4.79,3.01,5.49,5.85,2.6301,9.26-7.33,12.38-9.8699,3.98-3.23,9.3101-2.6101,14.4399-3.7001,4.3-.92,3-10.88,11.1201-12.2101,2.76-.45,5.5199.8701,7.5199,2.9202,4.13,4.23,7.85.1399,11.3199.0898,7.2101-.1199,10.8701-2,16.29-6.22,14.3101-.28,5.79-4.71,17.8501-3.1399,2.8699.3799,6.1099-2.9501,8.76-1.75,1.5.6799,2.4099,2.8799,4.22,2.95,4.51.1899,5.2-7.5901,7.05-5.1001,2.7699,3.75,2.5299,5.3801,6.95,6.4102,1.53.3599,3.09-1.3501,4.98-1.4001,3.1599-.0898,6.2,3.03,9.6,1.1301,1.89-1.0601,3.0399-4.3901,5.73-3.3501,2.52.97,5.39,3.3901,7.8099,1.0601,1.4302-1.37,1.8401-3.61,3.6001-2.9299.8999.3499,1.74,1.2,2.63,2.25,2.49,2.9299,5.42-1.7301,7.13-1.53,2.78.74,4.49,3.73,8.34,1.8599,1.64-.7899,3.09-2.5599,4.2001-4.7,1.28,1.91,1.99,3.8401,3.75,3.67,2.1099-.2001,7.8899-6.63,9.8099-4.67,6.5699,7.1101,6.67-1.79,19.02-1.22,1.85-2.9099,1.39-5.72,4.2699-8.54,2.7101,3.01,3.0801,5.76,6.2401,8.15,2.33-2.08,1.8199-5.2,4.62-5.83,1.27,1.7,2.0601,3.34,3.2,4.04,3.28-1.47,14.01-5.02,17.28-6.7101-.1899-.2899-.37-.6-.55-.91,1.96-.1499,1.8401.23.55.91,2.02,3.2201,4.26,5.02,8.8101,4.35,3.5699-.52,6.1899-3.4399,9.96-3.77,12.01-1.0299,6.77-7.45,12.6699-10.9099,1.05,2.34,1.6501,4.24,3.2101,5.52,2.23-1.22,2.0399-3.16,3.16-4.1301,1.4099,2.1501,1.8199,4.1301,3.58,3.52,5.15-1.7999,1.15-9.3999,7.41-15.7999,1.1699,3.08,2.83,3.65,6.26,4,7.34.74,1.46-9.24,8.7-7.5699,2.1.49,3.21,6.28,4.3301,7.6199.8599,1.04,3.24,1.1301,3.6599-.3699l6.05-21.8201c3.27,8.03,5.23,19.39,7.9199,23.3301,1.9.5599,6.05,1.21,8.1101.25,2.9399-2.25,2.9399-6.4001,5.0199-9.4701,3.87-7.9301,3.36,10.89,7.28,1.7101,0-4.6501,3.13-4.4401,3.39.7899,1.8.3199,2.8201-1.7699,3.38-4.14,2.83-12,12.7599-2.53,16.0599-8.2,1.8101-3.11,2.3401-6.26,4.3701-9.11,1.24-1.75,4.48-1.35,5.5299-.05l2.51,3.15c2.9301-1.9,3.4701-4.87,5.28-8.3301l4.36,6.78c8.89-12.3899,6.01,5.6801,13.1-16.45,1.1,3.6899-.2699,9.6599,4.4501,9.8301,3.8899.1399,4.96-4.49,4.77-7.76,1.1799.8999,2.1699,4.22,3.9099,2.8099,1.26-1.02,1.61-2.12,2.48-2.49.9301-.39,1.53,1.88,2.8,2.13,10.02,1.9299,7.76-17.21,11.3999-15.71l2.9801,5.4299c3.45-3.38,2.4401-8.29,4.84-11.85,2.76-.87,9,1.86,11.12-1.99,2.01-3.65,2.91-8.2401,5.9601-11.52-3.4701-2.9301-.04-3.6901-.28-.7899l5.6299,12.4299c1.3201.98,1.9401.5601,2.4501-.74,2.2201-2.4,2.12-4.52,3-7.9399,1.5699,2.8499,2.2201,5.8099,5.7201,7.5299,3.5898,1.77,5.6899-1.7101,7.5798-3.4601.02-3.5798.9001-7.2699,3.2001-10.0499,1.7101,2.15,2.5499,4,3.85,3.5l3.01-4.9401c-.03-.95-.8999-2.7.15-3.9299,1.24-1.45,3.0599-.51,3.58.52.3501.7.3,1.61.3,2.86,3.25.0699,4.4199-3.26,5.55-5.86l2.74-8.15c1.5499.7001,1.75,2.1901,2.99,2.6,3.02-2,4.6599-5.28,6.21-8.46.4-.8201-.25-2.5.74-3.86,1.87.11,3.13,2.5199,1.96,3.8199,2.75,2.02,4.6101-2.3899,11.4-5.86.65-.33,1.4401-.3099,2.15-.3199,1.13-1.9.9099-4.5,3.29-5.99,1.22,3.29,2.73,6.3799,5.23,5.95l6.51-15.88c2.4099,3.9501,3.53,6.41,6.2,9.4,4.8501-1.55,4.89-18.0601,7.8401-21.45,4.75,16.95.1199,5.97,8.8799,16.2999,2.41-2.11,2.6101-5.8099,5.9401-6.34,2.4401-.39,3.83,2.01,6.5,2.6399,2.39-6.0499,2.61-12.0499,3.6901-17.8398.21-1.1501-.7201-2.4001.4099-4.7201,2.5.83,1.9199,3.2301,1.46,4.6801,3.0601,2.33,3.51,6.46,4.0801,11.34,2.52.4,1.9399-2.0399,2.3101-3.74.6099-2.76,4.1699-2.4701,5.3899-4.1801,3-4.23,3.1799-9.09,5.3501-13.48.6199-1.25,3.8999-.6799,3.6699.97-.0901.6501.49,1.51.95,2.55l2.4501.01c.2799-1.77,1.5199-3.36,3.2699-4.88,1.99.67,1.79,4.28,3.55,6.33,2.0801,2.42,5.6101-.33,7.2-1.9199l3.2001,6.21c2.7001-2.4199,2.9701-5.5801,4.49-7.6799.92-1.28-1.75-6.2001,2.29-6.1401,2.67.04,2.2799,4.6301,2.09,6.0901,1.9299,1.24,6.1699,3.72,7.9199.74,3.29-5.62,5.0701-11.28,6.7401-16.9099,2.5699,2.5199,2.4,5.6199,5.62,6.5698,3.1399-3.0898,2.9099-7.3398,5.62-10.8699,4.25,3.8199,4.5199,9.1,4.9401,13.9399,3.8099-.5701,5.26-1.9399,7.6499-2.99,1.39,1.11.87,3.14,3.1101,3.5801-2.25-9.1501,5.28-4.67,8.5999-15.6301.3901-1.28,1.46-2.22,2.3-2.1099.6101.0699.7,1.2,1.0701,1.74,1.29.3499,2.98-.5801,4.26-.1501,2.5598.8501,5.46-1.0199,8.4199-.6299,2.4099.3099,5.79,4.49,7.77,1.36,2.4299-3.84,1.6599-8.4301,3.8-12.4701,2.1699,5.4701,2.3398,10.6401,6.3101,15.6801l2.6199-7.9501c1.9099,2.01.6599,3.6901,1.6699,5.8101,11.3501-2.61,8.3401-18.45,15.8101-10.6799,1.22-3.42,3.1702-6.23,2.1301-9.1801,1.6099-1.66,3.3999-.65,5.29.2101-.3-2.02-.1602-4.8901,1.3298-5.6801,1.79-.9501,3.96-.4501,5.1899,1.97,1.05,2.04-.2698,4.2999.05,5.9301,5.22-.15,4.76-15.14,7.4199-18.51,2.7102,1.22,2.7402,3.9199,3.4402,5.54,2.0701-1.8201,2.6099-3.5801,3.8899-4.9601,3.49,1.53,3.3,4.7101,5.1699,7.1801,7.8101,10.3799,1.3,11.09,8.2402,17.72,1.4399-1.79,3.3799-15.6699,7.2898-9.5801.5601,2.23,1.1101,5.3101,3.0801,3.6901,1.1899-.98,1.1399-2.9301,3.25-3.51,1.48.7301,4.03,14.61,6.1799,7.11.55-1.9099,5.6301-22.0699,8.1702-17.52l2.55,4.5801c1.25,2.6799-.3701-12.98,3.5-8.65,1.8198,4.02,1.4299,7.9601,2.3999,12.33,2,.45,4.6799-.8199,6.3999.9401,2.22,2.2799.53,9.3199,4.76,7.58,1.71-4.55,2.3101-8.78,5.1001-12.4299,1.45,4.1599.53,7,2.73,10.3899,3.1499-4.9099,1.78-16.58,4.9399-20.26,2.75,3.3701.2,5.9401,2.8401,8.3701l4.3398-6.9401c3.1902,4.28.8701,13.2001,3.77,20.9801.3201,2.1699,2.55,1.8599,1.53-.26.3701-4.9001.22-8.6801,2.1301-12.6301,3.1199.8601,3.9099,3,5.6199,3.8701l3.71-11.4001,4.0801,9.9301c2.0601.33,2.6899-2.7899,4.21-3.99,2.03,3,1.6401,4.9501,2.05,7.6901,3.1099,2.24,2.49-8.6101,7.6201-10.28l5.1199,9.12c4.5801-2.9,3.8301-14.1801,9.04-12.4301.77.26,1.73.9,2.8899,2.3401,2.9702,3.6599,2.4399-7.25,5.4302-8.53,1.6799,4.45.47,7.61,1.3799,11.53,4.3799.1299,6.8,2.59,6.8799,6.85,2.9502-2.1801,3.1401-4.4701,5.1101-5.38,4.53,5.1499,3.1501,8.3899,6.8401,13,3.3198-3.1101,3.52-6.62,6.3699-10.3501l5.3801,8.8201c.74-4.1799,2.03-6.12,5.23-7.74,1.9199-1.77.3301-5.3201,2.79-6.74l4.8999,18.63c3.8601-2.27,4.3799-6.4501,5.3999-10.0699,3.6501-5.0901,4.29,8.26,6.48,9.8699,9.4702-3.5,7.6501-12.73,11.3801-9.03l3.4199,12.9102c5.77-9.9701,3.6301-16.1401,9.2102-22.1301,3.1699,7.6801,2.7397,15.0601,6.8799,24.17,3.24-8.83,4.5901-5.16,8.28-13.63,4.22.46,7.47,19.3401,10.97,13.2,2.6299-4.6099,3.71-10.98,10.03-14.0499,2.3799-1.16,3.8699,4.52,5.5999,4.36,5.28-.48,1.6201-6.96,6.3101-12.01,2.3801,5.3401,3.9502,9.77,6.96,14.25,1.9702-3.34.5601-5.9299,2.8-8.6699,2.6599,2.8599,2.29,5.5,4.3301,8.47,2.6799-5.01,2.98-9.5601,4.6101-14.14l7.1799,20.83c7.1599-7.6,8.23-26.75,13.8699-15.85.8901,4.4501,4.1001,3.53,4.1001-.84-.74-4.5,2.1499-4.8501,2.1599-.53,2.28,4.9399,2.03,9.23,1.95,14.6899,3.4202-.8999,1.0601-3.7999,2.1501-5.9299,1.7-3.1799,2.8999-5.72,5.6099-8.9,2.8401,2.5599.78,5.49,3.6401,6.88,1.49-4.63-.46-9.01,3.03-11.8201l6.95-.7899c3.01.84,4.3601,5.0299,6.95,8.12,1.5601-2.6899.1602-5.71,2.8701-7.95,1.5598,5.5599,1.22,9.96,4.6199,14.54,3.72-3.9701,3.24-8.8701,6.23-12.9701,4.8601-1.9301,6.3701,18.91,9.6902,9.1901,1.1899-3.47,1.2998-6.42,4.4099-9.49,2.5999,2.6599.3201,5.52,3.03,7.1499,2.1399-4.75,1.6199-8.3899,4.8101-10.83,1.5798,1.6901,1.9199,3.91,3.3899,6.67l4.75-4.72c2.4299,4.6299,1.8601,8.7999,5.04,12.9399,9.8899-9.63,3.48-1.03,10.73-12.3401,1.45-2.96,11.6099,18.3601,10.3899,19.24,2.5801-.21,5.3201-.1299,6.6899,4.8601,2.75-6.25,3.27-12.4401,5.6602-20.27l7,15.83c3.1799-3.85,3.24-9.49,4.47-15.72.8301-2.08,2.5701-2.2999,3.02-.2201.8999,4.3201,1.96,7.29,4.3101,10.03,2.7698-2.8199,3.0798-5.6699,4.9199-8.98,3.47.67,4.46,9.02,6.5701,8.7,1.1899-.1799,2.8101-2.0898,3.22-3.46l4.8401-16.22c1.7898,6.1799,1.4199,11.1101,4.2798,15.1001,2.9502-1.4001,5.8601-.6702,8.98-3.1702,3.3301,4.6401,2.75,9.4801,4.6702,14.6301,1.5898-5.8701,2.8398-9.3101,7.01-12.73,1.9299-1.5701,1.4399-6.0701,5.3101-5.41l4.0398,14.67c5.8401-7.73,6.3201-16.3501,9.4402-25.1301,3.4199,6.5701,2.4399,12.27,6.23,16.3901,2.3499-4.3601,2.2598-7.3901,5.0898-10.79,5.1699,10.3699,6.0901-4.25,12.3,14.3,1.5801.9099,1.3201-1.0601,1.21-2.9701,4.3701-2.75,3.6201-6.4401,5.1001-10.85,2.73,4.23,2.52,9,4.55,14.03,3.6799,2.73,4.3899-6.23,7.22-4.6101,1.8398,1.05,4.74,12.51,5.8098,10.03,6.1602-19.1499,3.29-10.9299,13.0103-23.75l4.6299,14.46c2.54-1.01,2.5701-3.74,5.1499-4.1399,2.8801,4.0699,2.53,7.54,3.1001,12.3799,2.4099.26,2.9199-11.5599,7.47-15.6899l5.3899,15.6001c1.4302-6.0801,1.8301-12.1602,4.7603-18.8901l6.9697,12.75c11.5701-12.9399,6.4802-1.47,14.8401-17.5599l13.6301,17.7799c1.1299-5.3398.96-9.25,3.95-13.46,3.1101,3.92,3.03,8.55,3.4399,13.29,1.9099-2.1799,2.3899-3.74,4.5901-2.9199,5.73,2.1299,2.9199-9.28,7.76-15.0601,1.5701,2.75,2.3298,3.62,3.8799,3.74,5.79.48,3.8801-8.26,6.1301-9.78l4.54,10.98c1.25,3.05,5.7-1.28,7.21-5.23l6.8298,14.63c1.24.01,2.02.12,2.4202.15,2.04.15,3.9399.99,5.9399,1.4199,5.22.1501,9.45-3.48,10.3701-10.1099l3,4.2899c1.4099-2.7-.6001-4.97,2.0198-6.2899,1.8,5.99,1.0801,11.03,5.51,16.6799,5.8801-15.12,3.6001-2.86,9.1101-20.71,1.95,2.3799.79,5.1799,3.3699,6.3799l1.5-10.3599c2.8301,5.5599,3.4202,11.3899,5.6401,18.1199,6.03-3.3499,1.6399-13.0798,7.97-19.6599l3.8,6.3201c3.3699-3.4401,2.6499-7.3,5.3899-11.49,3.1599,2.2799,1.6599,5.7599,3.3901,7.8499,2.95,1.02,4.8899,2.5801,5.98,5.1901,2.0898-3.8199,1.3999-6.67,4.1799-7.51,2.48,3.6801,2.47,8.08,5.21,10.53,3.3601.21,7.7,2.09,10.29,1.97,3.8-7.51,8.96-2.66,7.4099-13.12-.21-1.3301.8301-3.35.45-4.63-1.4697-1.38-3.1699-2.2899-3.71-3.86-.04.25-.0898.0801-.1699-.74.03.27.0801.51.1699.74.2002-1.2.27-11.74,2.75-11.3501,3.6201.5701,6.9302,2.9102,9.5601.55,9.1401-8.1699,6.27,4.8401,8.8501-4.34-3.3701-1-5.6301-1.8199-5.98-3.77ZM1043.01,900c-.5601,0-1-.45-1-1s.4399-1,1-1c.55,0,1,.45,1,1s-.45,1-1,1ZM1987,774c-.55,0-1-.45-1-1s.45-1,1-1c.5601,0,1,.45,1,1s-.4399,1-1,1ZM2018.75,767.25c-1.1699-1.3-.46-2.8201.45-3.3401.9099,1.8701,1.1101,2.79-.45,3.3401ZM2237,742c-.55,0-1-.45-1-1s.45-1,1-1,1,.45,1,1-.45,1-1,1ZM2361.72,657.47c-.1699.28-.6599.53-1.3799.75.0198-.1899.4399-.4399,1.3799-.75ZM2780.8901,749.98c-1.5801-2.1-1.2002-4.5701-.3701-8.1599,2.3398,1.1499,2.1201,3.3999.3701,8.1599Z" style="fill:url(#linear-gradient);"/></svg>