<?xml version="1.0" encoding="UTF-8"?><svg id="a" xmlns="http://www.w3.org/2000/svg" viewBox="0 0 2912 1632"><path d="M2912,662c-3.21,1.56-1.71-8.83-2-8h2v8Z" fill="#688d6f"/><path d="M2867.33,813.78c1.7,2.31-1.2,2.56-4.5,2.25-2.57-3.58.66-5.87,4.5-2.25Z" fill="#24453a"/><path d="M2894.2,692.04c-1.64-.34-2.07-1.49-.28-1.96l.28,1.96Z" fill="#517863"/><path d="M834.42,1093.57c.37.24.67.48.91.72.95-.51.87-.8-.91-.72Z" fill="#24453a"/><path d="M398.26,962.94c14.35.34,4.06,7.09,15.79,4.9,12.19.41,1.55,10.36,5.38,13.8.66.5,1.8.18,2.72,1.87-10.49,3.31-2.21,6.28-12.33,7.66,26.64,9.01,9.5,14.64,38.48,25.19,2.93,1.07,4.37-1.7,4.37-5.28l.02-31.3c-16.35-3.2-10.03,6.23-33.34-.77,2.37-3.44,6.35-.65,7.03-2.6l2.03-5.79c6.19-.71,11.55.44,18.16,3.02,1.69-12.26-18.13-1.29-32.56-13.4-9.63,4.35-12.23-5.78-16.53-.39-.54.68-.71,2.03.79,3.1Z" fill="#24453a"/><path d="M468.62,1023.04c-2.08.77-4.7,5.1-2.35,6.23,3.6,1.73,4.28,3,6.27,7.18,18.29,3.45,32.28-20.24,39.01-36.76-2.03-2.95-3.83.64-6.12,1.68-3.02,1.37-7.67-1.79-10.74.1-11.64,7.18-12.56,16.55-26.07,21.58Z" fill="#24453a"/><path d="M481.85,1003.93c.94-3.53-2.75-4.27-4.96-4.92-1.71-.5-2.9,1.96-4.67,2.78-2.29-.26-3.34-2.57-5.27-3.19-2.09,6.87-2.79,13.15-1.64,19.89,8.53-1.49,14.48-6.82,16.54-14.56Z" fill="#24453a"/><path d="M2734.11,822.64c4.18-6.87-23.4-14.09-6.66,2.24,1.91-.7,4.14-.79,6.66-2.24Z" fill="#24453a"/><path d="M284.06,879.73c-2.46-1.77-4.95-6.12-9.5-4.57-.07.02-6.45,4.5-7.85,9.87-.86,3.32,6.91,10.3,8.69,8.34,1.81-1.99,2.89-3.85,6.35-4.44,5.84.51,2.82-4.64,11.96-.77,2.48-5.23-6.34-5.63-9.65-8.43Z" fill="#24453a"/><path d="M86.11,690.02c-1.07-2.47-3.5-3.84-6.19-4.33-3.95,3.04-10.42,1.67-15.89,2.58-2.86,2.67,22.58,3.21,22.08,1.74Z" fill="#24453a"/><path d="M80.79,710.77c1.07,2.66,3.69,2.14,6.17-.62,8.55-1.62-6.26-4.76-6.17.62Z" fill="#24453a"/><path d="M2677.28,886.07c.82-.89,1.03-2.99.24-3.87-1.7-.91-2.94-5.41-6.03-2.25,1.07,2.29,3.71,4.28,3.66,6.51.89.21,1.67.12,2.14-.38Z" fill="#24453a"/><path d="M259.7,894.14c-.1,5.4,4.73,5.4,4.62,0-.2-3-4.41-3-4.62,0Z" fill="#24453a"/><path d="M78.09,662c-.7-2.28-1.46-2.28-2.15,0,.7,2.28,1.46,2.28,2.15,0Z" fill="#24453a"/><path d="M2874.9,723.51c-.08-.24-.14-.48-.17-.74,0,.03,0,.05,0,.08,0-.03,0-.05-.01-.08.08.75.12,1.02.17.74,0,0,0,0,0,0,0,0,0,0,0,0Z" fill="#24453a"/><path d="M2361.72,657.47c-.94.31-1.36.56-1.38.75.72-.22,1.21-.47,1.38-.75Z" fill="#24453a"/><path d="M673.01,1112c1.3.02,1.3-2.02,0-2-1.3-.02-1.3,2.02,0,2Z" fill="#24453a"/><path d="M2780.52,741.82c-.83,3.59-1.22,6.06.36,8.16,1.75-4.76,1.97-7.01-.36-8.16Z" fill="#24453a"/><path d="M1157.92,1148.88c-.95-1.58-1.53-.53-1.94,1.39.88,2.41,1.83,1.79,1.94-1.39Z" fill="#24453a"/><path d="M1181,1202c1.3.02,1.3-2.02,0-2-1.3-.02-1.3,2.02,0,2Z" fill="#24453a"/><path d="M1223,1276c1.3.02,1.3-2.02,0-2-1.3-.02-1.3,2.02,0,2Z" fill="#24453a"/><path d="M2025.88,1092.73c.14-1.02.22-2.41-.04-3.08-.19,1.27-3.3,2.09-1.84,4.35,1.19.29,1.79-.56,1.88-1.27Z" fill="#24453a"/><path d="M2320,995c-.02,1.3,2.02,1.3,2,0,.02-1.3-2.02-1.3-2,0Z" fill="#24453a"/><path d="M2351,1004c1.3.02,1.3-2.02,0-2-1.3-.02-1.3,2.02,0,2Z" fill="#24453a"/><path d="M2910,654c.68-1.95-1.3-6.49-3.06-5.5-2.48,2.44-5.08,3.88-6.51,5.55-4.59,5.34,6.23,7.23,3.09,14.5-2.17.75-7.06-2.4-9.18-.09-8.04,9.78,6.07,23.89-4,31.2-.68,4.76-.69,7.4,5.72,8.71-2.58,9.18.29-3.83-8.85,4.34-2.63,2.36-5.94.02-9.56-.55-2.49-.39-2.55,10.28-2.75,11.35.55,1.57,2.24,2.48,3.71,3.86.38,1.28-.66,3.3-.45,4.63,4.23,2.62,8.5,5.21,12.17,9.59-3.89-.47-9.38-1.34-9.89,2.29,5.46,14.07,2.62,12.69,2.84,15.19-.06,1.96,9.27,1.28,4.89,7.21l-11.32,2.76c-2.98-1.13-4.97-4.79-8.93-4.93,1.26,3.64,3.63,6.72,2.63,9.75-3.92.48-6.74-.54-10.43.5,1.1,4.7-1.82,8.95-1.48,12.65,1.38,2.19,6.95,3.42,6.55,7.59-1.88,2.2-6.17,4.45-5.16,9.72-2.21.86-4.15.15-5.76,1.08.97,3.46,2.36,4.01,5.73,5.61-7.03,3.22-11.68-2.08-11.27,10.13,1.8,1.99,2.71,4.11.22,4.91-1.84-2.17-1.81-3.64-2.61-3.98-.88-.37-3.05-.96-4.09-.15-4.44,3.42-1.33,7.42.93,11.06,2.23,3.61,2.05,7.29,6.71,9.38,3.12,1.4,2.53,5.55.47,7.72-7.28,7.66,4.01,8.58,1.58,15.87-10.96,1.7-4.27,2.71-17.4.68-.38-2-1.75-3.93-3.91-5.38-3.92-2.64,3.06-5.79,3.02-7.75-.11-6.84-8.61-7.53-13.58-8.16,10.46-6.23,4.4-4.71-.24-12.04-.7-2.94.2-5.29,2.13-7.56,2.83-3.33.67-8.12.78-12.07l.2-6.58c-10.89-1.8-3.85-8.49-6.29-14.58-1.84,1.37-2.08,2.77-3.17,4.39-4.16-1.99-7.62-.45-11.74,2.79-1.06.73-1.87-2.13-1.45-2.71.39-.53,2.6-1.02,2.73-2.01.39-3.11-.95-5.77,1.74-9.36-3.2-2.5-6.66-1.85-8.96-4.91,2.68-1.5,5.1.39,6.64-2.88-1.91-2.39-3.84-1.13-6.46-2.61.88-1.02,2.57-1.68,2.97-3.31l-5.5-3.96c1.13-3.72,2.42-6.78,1.07-9.69-5.2.39-9.33-.55-10.5-4.33-2-.43-3.9-1.27-5.94-1.42-.01,7.58-5.21,3.5-7.63,6.78-1.82,4.33-1.06,9.39-3.67,9.05-3.8-1.13-3.04,5.43-3.04,7.48-3.55,1.19-6.82-1.63-10.19-2.45-1.25,2.45-2.76,6.05-5.93,5.61-1.95,16.63,7.56,7.92,4.53,19.18-.66,2.45-.09,5.72,2.03,6.88,2.02-1.19,1.58-4.03,1.95-7.13,6.3-2.21,12.13-2.74,17.84-2.4,1.07,5.91-2.37,12.38-9.7,13.49-1.32,3.92-6.98,15.6-5.68,18.28l-7.55,5.01c-2.25-3.77-7.22-6.66-8.88-5.82-3.93,2,.87,5.01,3.01,9.71l-16.58,10.99c-3.08-3.09-7.56-1.42-10.74.68-2.16-1.01-3.6-.47-3.87,1.56,2.95,1.27,4.68,3.2,5.37,5.46l-3.73,3.1c-1.54-.17-2.32-.45-2.95-1.37-1.14,2.97-2.75-.67-4.69-.33-2.08.75-1.16,3.85-1.16,5.38,1.55-.32,3.83-1.07,6.21-1.53l-7.22,6.01c-3.75-.58-6.84.05-5.54,4.61l-20.91,17.4c-.63.22-.96.51-.98.82l-4.16,3.46c-4.7-.24-9,7.6-14.19,7.4-5.38-.2.41-9.92-.82-11.42-3.41,2.02-7.79,10.79-10.77,2.71-.3-3.04,19.49-8.85,18.69-17.05-.72-4.33-8.96-4.08-9.11.75.61,4.71-4.91,4.5-4-.27-1.94-7.66-14.53-4.7-10.42-13.24,1.97-4.09-.9-5.2-3.53-7.39-2.34-1.94.25-6.74.16-9.62-.08-2.74-3.21-3.01-4.31-4.16-3.2-3.34-1.52-13.91-9.28-17.75-.84,4.84,1.55,8.66,0,13.05-11.66,3.56-.93,13-8.72,14.65-.19,2.74.56,5.58,1.98,7.96-3.56,1.88-5.69,5.7-5.58,9.67-4.88,2.5-.7,9.4-1.89,14.07-2.51.37-5.23,1.57-6.17,4.08-1.82-1.9-5.71-2.14-7.49-5.56-1.06,4.75-.8,7.64-1.2,11.42-.12,1.13,2.57,2.83.24,4.02-7.02,2.92-1.37,5.18-.84,9.34-.28,2.04-4.41,1.81-5.11,4.13-1.21,4.07,10.79,3.33,15.76,5.6l1.07,8.02c.8,6-13.46-1.44-16.81-.36-2.74.88-2.74,6.28-6.32,7.21-2.36.6-5.1-.99-7.85.27-1.14,4.01,2.59,6.36,3.25,9.36-1.37,1.27-3.61,2.49-3.66,3.68-.11,2.73,1.02,4.98,4.72,4.85,4.91,1.7-3.42,4.03-1.65,7.18,1.24,2.22,7.9-.52,7.57,2.75-7.45,1.93-13.75,1.03-11.48,10.29,1.15,4.38-6.59,7.86-11.75,6.13,2.63-9.19-15.06-7.83-8.51-17.22-.06-3.13-5.2-2.89-6.39-6.11-1.23-3.36,6.05-7.19,6.97-11.01,2.49-10.34-8.76-4.93-14.53-11.89-4.96-6.24,12.33-3.79-1.9-17.42-1.88-.94-3.77-.18-6.1.93-.83-4.49.76-7.43.64-11.45-.05-1.75-3.35-1.05-4.46-2.46-1.92-2.45,1.23-5.07,1.71-7.32.75-3.49-2.71-6.37-5.05-8.9-1.54-1.96.71-4.75-2-7.46-2.74,10.42-1.4,4.81-5.04,13.77-.74-1.02-1.08-.28-1.89-.02-4.92,1.58,1.15,6.3.03,11.92-6.61,1.45.97,6.22-4.39,6.73-4.74-3.71-3.45-8.44-6.25-13.49-19.56,2.38-10.49,4.32-14.49,5.88-16.3,6.38-5.04,1.53-20.53,1.1,2.5-5.97-6.52-.91-8.67-11.93l3.97-9.88c.6-1.5-.67-3.27.16-4.38,1.23-1.64,6.14-.32,7.16-2.65.64-1.45-.54-7.57-1.13-10.22-.7-3.11,1.24-6.42-.46-10.41l-7.2,2.08c-1.59-2.7-4.79-3.71-7.76-4.15l.24-5.63c.16-3.72,2.74-6.81,2.89-10.12-1.2.85-2.79-1.59-4.29-1.94-4.47-.2-7.73,15.23-13.23,9.95,6.11-11.04-6.88-9.43,4.6-17.52,5.43-3.71,1.02-12.17,1.07-17.58-4.26,1.08-9.08,5.18-13.75,2.56-4.68-3.24,6.41-12.06-6.71-9.14-3.27-2.68-2.93-8.24-1.26-12.86-1.33-1.56-3.25-1.5-5.51-2.49-.47-6.85,1.07-12.8-.09-19.66-17.65,6.03,4.73,23.19-12.94,24.28-3.26,7.61-1.09,16.4-.23,25.31-15.37-6.97-7.4,12.62-4.79,19.37-7.98,4.16-7.83,5.82-16.41,1.08,2.53,5.32-2.36,12.41,2.4,15.58,2.51,1.68,3.42,3.36,2.54,6.23.6,1.84,3.74,2.55,4.18,4.78-.33,3.78-1.9,7.31,3.27,8.45,11.68,2.13,3.96,5.72,12.19,9.02,2.35,2,.04,2.13-2.84.86-7.86,8.24-13.23-2.33-16.53-8.24-1.51-1.88-12.26-6.1-16.77,3.27,1.24,3.19,4.78,5.02,4.69,7.44-1.83,2.63-5.07,3-6.02,6.83l9.69,2.67c-1.09,2.73,1.02,4.54,1.31,7.46-2.53,3.3-6.71,1.29-8.95-2.04-2.53-.14-4.08,1.17-5.8,1.67-1.02,3.47,1.02,6.94,5.7,7.43.19,1.63,1.25,10.89.62,12.27-5.2-2.16-.5,8.69-9.49,9.09-.11,5.68,17.79,1.99,13.49,13.15-11.2-1.77-6.32,5.15-20.03-1.68,2.57,4.38,2.2,9.15,2.61,13.5,4.71,10.41,10.93,9.12,20.19,5.05,3.17-1.14,3.45,6.77,6.16,11.53-2.77,6.5-10.16,8.47-15.99,8.37.91,1.08,1.4,1.63,1.34,2.5-.32,4.56-6.74,1.83-5.82,5.57.16.67,1.02,2.02,1.13,3.04-2.34,2.06-3.87,4.31-3.59,8.5-5.03.59-13.37-4.53-15.48-.6.95,4.52,4.09,3.46,6.04,3.8,16.07,2.7,8.03,19.87-1.3,6.77-1.76.62-2.25,4.72-.59,6.87-.44,9.05-10.75,9.84-17.24,12.37-1.3,1.84-1.26,4.52-1.63,6.18-7.5.24-.49-13.92-11.53-7.63,1.54-4.1,3.07-7.58,3.21-11.38-4.2-4.02-6.99,4.74-10.58,3.46-4.19-1.5,5.47-6.57,5.05-11.59-.63-7.5-9.57-4.54-9.86-9.41-.26-4.55,6.6-2.9,6.83-5.87.23-2.92-5.74-2.75-6.71-4.55-1.46-2.73,4.22-8.25,3.49-12.55-3.41-.34-2.67,3.1-5.9,4.42-6.87-7.28,6.62-13.38-3.72-17.32,3.84-2.12,4.04-5.44,3.76-9.04-.22-2.88,2.4-6.17-1.66-9.14-2.4,2.86-4.89,4.66-7.49,3.44-2.15-6.03,2.79-16.32-6.39-16.61.86-2.79-.88-4.72-3.46-6.93-2.49-2.74,1.11-6.77-1.5-11.04-4.06,5.55-4.66,12.11-7.11,18.69-.43,1.15-2.32,1.09-2.66,1.64-.62,1-1.3,2.17-1.44,3.37-.55-.65-1.46-.73-2.04-.12-.61.65-2.51.1-3.33,1.23-1.79,2.49-.19,5.11,1.03,7.18,1.32,2.23,4.86,1.99,8.64,1.42,2.96,2.2.79,4.26-2.18,3.58-3.6-6.05-9.44,13.41-7.07,13.78-4.49,1.51-3.45.06-6.52-3.66-4.43-4.38-.26,13.06-3.36,17.31-.4,2.04,2.43,3.92,2.89,6.1.64,3.1-.68,4.41-3.2,2.76-4.34-.18-7.72-.91-11.54-4.67-4.86,14.62-3.66.3-4.99,17.03,26.27,4.21,14.89,3.37,18.89,7.62,7.82,8.3-1.9,14,7.43,14.2l-.83,3.4c-3.69-1.33-5.93,2.27-8.58,2.73-6.81,1.17-12.55-3.48-19.27-5.01,3.9,4.36,6.4,10.98,1.58,15.37-3.92,1.64-4.31,1.52-3.7,6.09,1.67,11.8,15.95,1.45,12.25,11.5-2.73,2.14-8.14-.59-9.28,1.98-2.07,4.69,9,14.41-.62,20.16-1.66,1-4.04-.66-5.28-.13-.56,2.58-1.9,5.07-4.37,4.55-1.61-8.74-11.64-10.17-12.73-.33-2.9.41-6.29.39-8.5-3.49-2.2.62-2.08,2.31-1.64,4.09,3.58,9-7.71,2.52-9.16,9.59-3.91,11.26,10.84,4.41-.28,16.19-2.5.68-6.61-6.8-9.28-3.19-4.37,5.92,6.07,6.36,3.48,12.94-.39.97-8.33,2.47-10.44,2.47,2.09,4.83,4.92,6.69,9.22,8.88,2.04,1.05,1.33,6.31-1.19,6.77-7.79,1.4,1.74,4.5-4.27,8.38-4.39,2.83-11.41,6.11-15.35,1.92-3.97-6.72,7.34-10.42-2.5-16.68,4.85-1.63,3.74-5.46,4.64-9.24,1.29-5.37,3.09-10.88-3.53-13.89-1.66-.75-3.74,1.97-5.96,1.49-2.32-4.3,9.02-5.34,11.15-7.39-10.21-21.51-7.54-5-28.9-7.24l-5.16.66-.38-9.2c-4.83-.07-8.96.49-12.4,2.72-1.47-3.67,8.69-3.42,6.19-17.02-5.53-.35,1.12-7.56.12-8.64-.34-.77-1.37-1.32-2.44-2.13.03-2.06.26-3.33-.72-3.52-7.36-1.39-4.69,7.05-10.01,5.73,7.06-19.74,1.19-21.58,1.17-21.8l-.97-13.79c-2.2-.51-4.29,1.3-5.36,2.38-2.62,2.65.49,6.77-.23,10.28-.23,1.1-1.75.84-2.95,1.72-2.71,1.99-1.83,6.12-.81,9.09-3.04,1.41-6.48-.39-8.74,1.15-3.62,6.61,10.82,4.13,4.68,8.39-6.47,2.79.09,6.39-.27,9.1-.13-.89-8.92,6.9-10.4,6.31-.05-.12-.13-.22-.21-.32.02.13.06.25.18.31.88,1.51,0,3.91-.32,5.38-23.21,7.72-8.39,9.57-18.02,12.18.97,4.92,3.14,5.32,7.58,4.44,1.53,4.19,3.06-.01,11.84,4.21l.03,10.63-9.31,1.18c.95,12.08-1.51,5.93.67,14.71-4.02,2.47-2.43,4.13.41,7.19-3.32,2.52-7.36,4.39-9.48,7.82-1.65-.19-3.21.1-5.79-.79.65-1.55,2.26-2.82,1.64-4.32-2.83-.22-4.58-1.2-6.66-1.49-3.29,1.28-1.29,11.53-7.07,12.3-3,.59-3.39-6.53-5.79-4.42-.14-2.25.29-6.1-2.28-7.59-6.8-3.95-2.88,24.25-16.18,16.99-.29-3.51.78-9.27-.7-13.38,1.2-.98,3.18-1.84,2.73-3.44-2.64-1.38-4.69.88-6.03-1.39,3.6-1.26,6.34-2.23,7.23-4.47.71-1.79,1.46-7.02-1.19-7.44-3.64-.57-4.3-1.76-6.46-4.34-7.98-9.52,2.67-2.34-4.31-20.51l-11.14,1.98c-2.39.42-5.75-1.38-6.42,2.03-.15.78-1.13,1.19-.08,1.97-7.15,6.29-4.9,21.21-.06,27.67-2.89-.51-4.67-3.16-6.04-2.12-2.96,2.26-2.9,6.03-2.71,9.27-3.03.06-6.97,7.86-5.83,9.31l2.13,2.72c-1.65,1.85-3.73,2.44-4.24,4.38,3.5,1.29,3.41,2.46.11,3.3-1.49,2.57-1.25,5.48-2.97,7.77-2.35-.03-4.24,2.09-5.99,4.31-4.58-1.34-3.88-13.05-8.84-12.54-4.75.5-1.04,13.4-3.82,15.12-3.42,2.05-6.14,3.67-8.6,6.47-1.84-5.67-3.56-9.67-8.37-11.9-.73-8.78-5.55,1.68-10.85-1.82-6.16-3.17,2.32-5.75-5.55-7.59-4.61-1.08-1.44-5.85-.69-7.93-2.78-1.43-1.6-3.56-2.11-5.7-.22-.91-2.51-1.14-2.35-1.73.23-.89,1.63-1.87,1.61-3.11-1.67-5.59-7.27-1.33-2.69-10.29l-7.41.15c-.27.01-12.09,10.32-10.82,7.99-3.86,5.97-2.59,17.51-4.2,19.81-1.98,2.84-3.98,4.89-1.04,8.88-3.62,4.1-17.73,9.29-9.43,14.5,1.45,4.03,4.24,4.88,7.46,6.05-4.8,3.73-7.16,0-10.16-3.65-2.15,3.96-7.27,16.83-10.01,10.83.07-2.77-2.51-2.36-1.97.27-1.79.6-1.86,2.74-3.27,4.79-4.66.42-6.92-6.7-10.55-.07-7.4-2.2-16.96,14.46-17.58,7.08-.34-4.15-3.53-4.67-3.76-6.34l-1.48-11.06c-.35-2.64-3.98-4.28-2.15-7.53,2.23-3.94.48-7.1-3.17-9.46-1.13-2.65,1.4-6.17-2.13-8.29-2.26,5.58-2.01,10.43-2.58,15.33-2.82.47-3.03-1.7-4.94-3.01,1.47,5.63-3.01,10.63-6.88,13.64-8.62,6.7,2.64,10.73-2.69,16.54-1.84-3.51-.66-7.12-3.04-7.19-2.09-.06-3.59-1.56-4.57-.8-4.04,3.84-7.08,4.85-13.69,4.26,2.2-5.69,6.91-6.34,12.15-7.5-1.09-2.08,1.22-6.49-.01-8.23-3.39-4.81-8.88-2.72-14.77-.63,1.47-4.79,1.27-8.71-1.88-12.67-7.44-9.37,3.34-13.45-8.58-13.95.15-2.2,2.31-3.02,3.32-5.31,4.16-9.34-13.48,1.11-14.52-3.68,10.02-6.77-.23-15.46.43-30.32-.81.02-1.69-.11-2.43-.37,1.43-3.33,1.12-6.38-3.06-10.79-2.28,3.71-1.92,7.3-2.8,11.03,5.84,3.17.49,13.44-4.6,15.25-1.44,11.47-8.44,24.94-5.02,36.03,2.8.58,2.67,2.32.35,3.39-2.56-1.99-5.25-3.43-7.58-3.06-2.46,4.95,1.4,8.48,1.19,12.07-.46,7.99-9.37-4.14-13.37,1.17-.7.92-.33,2.45,1.07,3.29-.05.69-.04,1.38.04,2.06-3.74,3.02,2.85,4.21,3.11,14.65.08,3.21-2.14,6.5-.49,10.99-3.79.86-4.95-1.42-8.65-2.18-2.52,3.72-.37,6.93,2.79,10.45-5.08,2.58-10.66.97-7.59,8.81,2.34.19,3.41-1.91,5.46-2.64-1.66,1.6-1.35,3.56-2.76,5.34l-6,7.56c-1.21.36-3.31-.66-4.23-.5-1.03.18-11.15,15.44-9.78,12.45-3.89,7.71-10.55,13.29-18.48,9.56-4.11-1.93-7.63-4.78-7.23-10.31.29-3.97,3.92-7.84,4.01-11.99-2.55-5.6-5.22,7.68-11.6,1.91,1.4-4.79,5.75-7.29,6.31-12.27-1.05-1.72-2.86-3.09-2.94-6.15l-4.3,5.22c-2.59-1.7-4.39-2.57-4.54-4.25-.21-2.55-1.35-5.54,1.43-6.79,9.2-4.92-.25-6.46-5.01-7.04,2.07-4.98,1.89-11.38-3.69-14.47-.71-1.64,2.1-13.51-3.65-11.1-1.62.69-2.2,12-4.83,17.02-6.12,3.95-6.14,9.29-5.6,15.82.42,5.14-2.99,10.09-1,16.05.41,1.91-4.99,1.75-5.65,2.95-2.38,4.33.96,8.57,4.22,13.47-6.59,2.86-15.73-2.42-18.14.25-2.42,5.69,2.54,9-6.93,9.06,1.47,1.91,3.66,3.36,8.25,4.92-7.1,3.02-7.24,2.53-4.71,10.97-1.41,1.41-3.21,1.46-5.45,2.99.31,2.44,2.21,2.85,3.58,4.76-3.38,1.73-3.31,4.96-5.22,7.8-1.97,2.91-18.37,3.6-17.49,3.05l-12.76,7.94c-2.09,1.3-5.39.36-5.62,3.68-.92,11.13-12.53-2.86-6.64-8.66-.3-2.04-3.26-1.01-5.74-2.33,2.03-1.47,5.45-3.25,3.9-6.6-5.17-11.14,2.65-12.08-6.5-20.17-3.89-3.44.74-13.25,1.05-16.2-.68-.26-1.37-.5-2.11-.31-.52-3.02.33-5.96-.52-9.28-2.27-1.44-4.69-.17-7.44-1.1,3.49-8.62.57-17.09-4.35-23.61-8.35,2.89-11.57-.46-9.77,3.96,1.68,4.11-3.91,10.24-4.77,10.17-12.97-1.04.62.85-12.81.37-1.07,10.17-9.79,4.72-15.14,4.68-3.22,2.25-2.97,5.88-1.85,8.21,3.72,7.75,8.75,1.82,10.3,8.07.88,3.53-6.68,4.26-2.55,10.71,5.9,9.21,15.25,6.13,12.32,10.87-1.76,2.86-9.37-.88-17.23,5.84-3.22-2.41-5.27-6.8-8.72-6.63-5.86.36-5.04,7.43-6.93,11.08-5.99,11.91-3.43,14.66-11.12,10.87-1.88,2.55-1.68,7.18-3.6,9.16-6.8,1.85-4.73-7.39-8.66-8.73-12.26-4.19-4.94-14.93-8.18-17.04-4.73,1.28-5.13.72-7.86-4.44,1.9-.27,5.02-.39,5.88-1.97-3.57-6.79-4.44-1.18-8.5-4.43,2.85-5.24-.67-5.72-4.94-7.32,1.27-2.25,3.46-.34,5.61-2.58-12.42-7.05.76-23.09-9.76-24.6,2.66-3.16,1.13-5.25-.46-7.93-.44-2.51,1.23-4.9.32-7.27-3.47,1.01-6.61-.48-9.52-.97-5.46,14.31-5.14,2.26-5.56,17.06-1.26,1.18-3.64.38-6.08,1.73,1.92,2.87,4.2,4.96,4.88,8.01-5.95-.54-17.96-4.34-14.68,7.71-1.33,12.13,4.78,14.6-1.55,13.89-2.42-.63-3.37.99-2.55,3.53,1.81,3.68,1.74,4.66-3.25,5.05,1.27,15.85,5.58,7.46,5.09,19.33-.09,2.22,3.64,1.84,5.12,2.54,3.52,1.64,2.1,5.14.75,6.47-4.92,5.54-15.17-12.74-21.85,5.51-1.97-2.08-8.43-15.23-11.61-10.1,0,.01-3.26,11.41-3.26,11.41-2.75.46-3.1-2.82-5.13-4.38l-4.42,18.09c-.62,2.55-2.92,3.65-5.13,5.58-1.84,1.6-4.22-1.04-4.64-2.41-1.2-3.92,7.26-5.12,5.18-9.79-1.64-3.67-4.8-1.26-9.45-6.84-2.85-3.42-5.5-6.09-9.46-8.24,2.32.73,4.85-9.32,6.46-12.96-4.98-1-9.32-2.47-13.72-2.69,2.09-1.91,4.1-3.69,4.81-6.29.53-1.95-3.7-2.94-3.7-4.44-.03-17.23-6.51-16.24-7.04-16.88-3.75-4.52.57-13.53-2.23-14.8-5.68-2.57,1.64-1.01-5.22,12.71-.74,1.47,1.15,5-.76,6.05-1.77.98-10.25,10.44-10.25,8.76l-.12,5.02c-.03,1.2-6.1,11.73-6.36,12.86-.39,1.7-5.04.57-4.97-.85.17-4.25-.37-9.06-3.85-13.01-.99,5.9-2.04,10.23-8.13,11.9.92,11.77-2.94,3.96-3.6,15.35-2.47.86-4.08.95-5.39,2.56,3.32,2.4,6.04,4.79,9.73,5.5,2.51-1.29,2.14,1.17-.7,1.2-1.86,2.07-4.12,3.56-7.09,4.3-.44,3.22,4.17,3.15,5.01,5.06,2.21,5.01-3.08,9.72-8.22,10l-3.36,6.42-7.74,7.98c-2.74.45-15.14,2.74-17.67,2.77-3.07-7.95-10.77-.85-16.63-5.25-2.09-1.56-6.21-18.36-6.78-19.67-4.95-11.29,2.44-10.41-3.75-15.51-3.85-3.18-7.71,3.94-15.34-7.94-2.89-.82-5.38,1.37-8.14-2.56,4.17-1.39,7.44-3.02,8.19-7.57.48-2.86-1.21-4.38-3.17-4.22-2.72,1.44-3.83,6.25-8.23,2.92-1.23-9.44-2.88-16.15-14.42-16.15-3.56-1.06,6.36-7.66,3.82-13.94-6.96.03-10.05-4.55-14.11-8.78-2.33-1.71-8.37-.5-9.16-3.87-.66-2.8.81-7.12-2.9-7.5-12.59-1.26,9.59-11.99,9.9-27.85-3.82-.42-6.69-1.31-8.79-4.13-1.79.56-2.72,1.78-5.16,1.14.04-3.09,6.95-20.25,3.58-22.3-5.71-2.92.07.49-8.13-5-4.83-3.88,9.49-23.12-8.3-15.15-3.74-2.69-.41-10.8-7.28-7.99-.52-1.94,2.52-10.49-2.58-9.55-7.45.93-6.7,22.84-12.49,27.46l5.62,6.63c-3.18-.33-4.77-2.61-8.29-1.43.37,10.64,3.58,9.94-4.09,15.54l8.47,12.58c-2.4,3.03-6.98.71-9.58,1.73-1.38,14.47-7.44,6.44-2.54,18.03-2.31,2.38-4.96-.57-7.89-.83,1.23,13.99,7.82,14.02,5.18,17.24-3.58,4.38-8.46-4.31-12.47-3.46.47,8.08,5.35,13.7,11.21,17.98-2.78.36-4.11,1.99-6.16,2.52-2.75.63-5.9-2.49-8.22-.03-3.44,6.36-2.8,1.96-7.43,2.76l1.5,10.89c-13.72,1.23-2.86-5.57-26.23-6.68-1.53-5.7-8.59-18.72-17.26-16.74-1.21-2.64,1.35-4.26,3.41-6.54-21.26-3.68,11.91-28.3,2.52-33.18-3.23-1.68-12.47,6.73-17.97,5.44-8.98-2.12,8.1-14.83,6.54-18.62-6.23-3-12.02.08-16.65,5.36-3.9,1.93-1.94-15.44-5.05-20.93l-8.84-1.76c-1.58-16.99,2.88-15.77-1.45-23.77-1.39-2.56-.81-6.55-3.97-7.72-1.16,2.03-1.23,3.83-2.19,3.64-2.09-5.21-1.25-8.56-4.09-12.27-4.11,2.85-2.29,6.62-2.19,9.77-9.77,8.7,2.96-.33-8.91,10.3-4.77,4.27,3.92,9.61,3.44,13.27-.36,4.28-5.57,1.57-8.1,1.72.54,8.04-7.27,6.23-3.1,10.29.8.77-1.64,1.6-2.65,1.2-.78-.32-.81-1.72-1.69-2.89-2.08-2.75-6.74-2.71-8.16-5.78-2.21-4.74,6.86-10,6.66-19.19-.09-4.17-5.92-5.3-7.34-8.61-1.44-3.36-.74-8.07-3.53-9.97-.59-.39-3.29.29-2.45-1.41,1.44-2.91-.08-4.54-2.43-5.44-4.84-1.83-.49,7.46-8.28,11.67-7.64,4.12.32,14.96-.26,16.25-.95,2.09-7.11-.72-9.17,4.39-.79,1.95-1.31,4.78,1.39,5.06,1.95.2,4.1-.91,4.29,1.7-4.29.54-7.24-.76-10.97,1.94,9.12,15.78-9.25,12.27-11.17,18.32-1.08,2.94,4.11,3.46,4.73,4.93,1.67,4.01,3.79,4.77,8.35,6.79-5.74,5.28-19.1,13.13-21.74,20.79-1.22,4.35-3.58,4.13-6.39,6.26-2.25,1.71.16,10.07-5.5,10.85-4.38.6-6.89-5.91-7.62-9.42-1.64-7.91-8.45-10.19-13.76-14.31-1.46-1.13-.49-4.32-3.01-4.22,0,.24-12.57,9.58-15.08,9.29l-9.64-1.09c-2.73.4-4.66-.77-3.17-3.19,8.23-5.95-.31-8.95-1.11-13.76.24-1.07,1.35-3.05,2.89-4,9.57-5.9,7.59-16.49,5.43-16.97-5.1-1.13-24.9,8.25-21.7-.13,1.02-2.65,3.76-4.1,3.89-8.13.1-3.19,4.7-2.17,7.43-1.84.03-2.29-2.12-1.95-2.98-3.5,2.79-3.33.45-8.02,2.16-11.09,1.38-2.46,5.2-3.53,3.96-7.3-13.38-.18-18.06-1.68-29.95-2.6-1.38-1.35,5.03-8.16,4.81-15.34-.11-3.54-4.7-4.18-7.27-6.39,8.09-5.38,6.01-10.9,11.53-17.54-4.85.87-8.78-.05-11.08-3.69,1.68-2.08,2.95-4.69,3.33-7.59,1.51-1.71,2.34-3.18.89-4.64-2.62,1.41-13.11,4.45-17.15,5.77-2.42-.59-4.72-3.42-4.09-5.74.81-2.96,4.86-3.13,7.04-5.01,1.45-1.24-.28-3.65-1.21-4.89-3.7-4.96,4.78-7.18,2.38-11.22-1.85-3.11-14.18.06-14.21,3.06-.02,3.04-2.54,3.75-3.49.83,2.87-6.86,7.1-10.97,6.86-14.5-9.98-1.02-3.79-5.5-1.54-10.54-6.19,4.54-11.69,1.2-14.99,7.72-1.06-1.95-4.48-2.47-4.77-3.63-.71-2.94,4.16-2.96,5.01-4.69,5.53-11.36,5.93-19.51,8.71-21.51-2.28-5.35,2.94-10.12.73-11.78-1.36-1.02-4.54,3.71-7.48,1.82-3.05-1.96,3.87-10.91-1.33-13.07-2.75-1.13-7.44,1.63-9.14-1.55-.91-4.84,6.85-11.46,1.93-13.3-.8-.3-1.5.22-3.49,1.56-3.94-.48,1.58-15.47-4.9-18.23-4.99-.43-3.08,6.92-4.89,8.93-11.08,12.33.35,9.44-11.11,15.42.84,5.7,1.06,11.23-1.23,16.26-.32,1.22,2.56,2.32,2.9,3.08-9.35,2.89-2.73,4.45-2.06,9.49-.88,2.84-7.4,4.18-6.34,9.29.48,2.36,2.35,4.57,2.69,7.75.29,2.71-3.58,3.35-4.15,4.99-3.14,7.27-5.77,21.93-15.12,15.52-6.15-.11,3.86,8.39-5.16,15.7,3.78,3.5,6.74,7.43,4.2,10.54-1.48,1.8-7.11.2-11,3.12-1.05-4.75-3.14-3.61-3.43.37.58,11.13,10.04,17.22,6.96,19.3-10.85,7.33-17.44-2.45-13.45,7.31l-6.98-.36c7.22,12.1,2.16,5.82,10.67,16.62,1.23,1.56-.26,5.08,1.91,6.52,2.3,1.53,5.04.57,6.66,2.43-2.86,5.13-.24,7.2,4.42,8.29-4.78,2.35-13.2-4.42-19.54-4.88-3.25-.23-1.31,7.85-3.07,8.73-3.77,1.9-4.9-7.1-6.58-3.89-1.56,3,.39,5.61.84,8.05-3.07,2.8-6.68,5.45-7.27,10.21-.09,2,2.45,2.92,2.96,5.27-6.83,5.33-20.51-23.16-12.76-27.17-.69-2.53-.4-5.04,2.09-3.22,1.56,2.08,6.64,1.39,4.26-1.59-7.7-4.8-8.69,1.02-9.18-11.14-5.38-1.32-9.65-.22-15.68-.63,2.7-1.2,4.62-12.01,3.69-12.94-6.2-6.29.03-9.16-6.77-9.02-1.91,5.06-16.23-4.07-15.04-7.05-2.99.28-8.08,3.21-6.11-2.77,1.12-2.8,4.05.17,8.53-5.64,1.28-.36,3.96,2.19,5.09.99,3.68-3.94,5.94-9.37,4.31-14.4-.93-1.58-4.1-1.9-4.43-3.68,1.04-9.75,5.57-9.56,5.7-15.12-10.52,3.93-9.13,4.7-19.84.55.97-4.6,11.92-15.5,6.24-21.63-5.3-5.72-13.98,5.39-16.23,3.52,1.28-2.73,2.24-7.8-.86-10.05-1.19-.85-3.88,1.12-4.48-.31,1.72-3.43,5.82-3.58,9.06-5.79,2.16-1.48,1.84-4.92.79-6.73-2.55-4.42-8.18-2.52-9.24-5.14-.16-.87-1.77-14.18,5.16-6.22,3.82-.48,2.81-2.53-1.33-2.72,1.25-4.28-1.84-6.32-3.03-9.46-1.2-3.16,1.41-9.25-3.55-11.93-1.99-1.09-4.33,1.16-4.17,3.77.22,3.47,1.95,5.01,2.61,8.04-2.26-.72-2.83-2.73-4.67-2.54-2.38.25-8.62,11.15-8.58,10.66-.65,1.96,1.64,3.35,2.35,5.16-9.86,6.01-1.32,8.66-12.04,9.54-2.2,5.13.45,10.03,3.77,15.41-6.63,4.08-19.47.25-12.86,11.59-2.53-.9-4.55-3.07-6.16-1.55-1.34,1.27-2.08,3.62-.73,5.38,8.28,10.86,12.14,3.16,13.28,8.22-2.91.81-5.78-.48-6.35,1.66.48,2.2,2.89,4.66,1.36,5.73-6.63,4.66-13.69-9.19-16.59-3.29-1.31,2.68.6,7.37-2.08,8.33-.35-.97-17.29,5.77-16.71,6.84-7.92-8.93-1.63-17.07-4.85-19.31.34.52-8.53-1.7-13.39-.74-1.95.39-4.32-4.79-2.86-6.11,3.7-3.31,10.54-.78,13.67-4.16,2.37-2.55,2.94-7.69,5.39-9.88-3.07-1.9-4.55-3.94-5.44-7.05-1.78-6.27-14.06,4.07-13.79-1.36.18-3.68,2.68-5.65,3.49-8.38,2.85-9.5-11.72-7.21-2.51-14.08-7.55-3.43-7.04,4.52-14.67-2.79-.41-.39-.87-.74-1.35-1.07-1.28-1.51-2.73-2.92-3.41-4.22-1.38-2.66-2.3-6.12-3.45-7.56-2.22-2.76-7.84,7.8-9.71,8.02-2.05.23-1.49,1.07-3.93,2.27-1.96.96-7.64-4.35-10.33-4.32-4.73.04-6.76-2.33-7.56-5.33-.61-2.27,2.37-6.26,1.27-9.96-.75-2.52-8.73-1.97-10.62-5.04-1.76-2.87.96-7.51-.31-9.19-1.85-2.45-5.04.43-7.71-.56-1.95-.72-2.36-8.43-5.77-8.95-2.22-.34-6.14,8.78-9.27,8.37-2.35-.31-4.57-3.98-7.54-4.4-3.28-.47-7.06,2.06-9.22,1.52-3.79-.95-3.08-9.79-4.45-11.14-1.96-1.94-10.1-2.46-10.39-5.73-.2-2.27,7.55-5.93,6.55-9.08-.71-2.23,3.12-8.06,1.45-10.81-1.49-2.46-5.25-4-6.73-5.83-1.8-2.23-12.5,5.84-14.44,4.42-2.15-1.58-1.19-3.74-3.72-4.5-2.33-.7-3.02-10.38-5.85-10.51-2.38-.11-5.39,0-8.24.22-2.4.17-4.58,5.14-7.38,5.49-2.42.3-5.05.11-7.8.51-3.03.43-5.54-3.25-7.81-3.38-3.13-.19-4.48-.02-6.49-1.14-2.39-1.33-3.33-2.08-4.7-4.44-1.23-2.12-5.03-3.13-5.9-5.87-.76-2.38,2.02-5.98,1.23-8.67-.71-2.44-5.1-3.87-6.05-6.46-.89-2.4-8.18-1.47-9.45-3.91-1.57-3.02,7.57-11.52,6.21-13.51-2.16-3.17-8.54-1.03-10.39-2.09-2.76-1.59-3.84-1.76-6.76-.47-1.99.88-7.28-3.74-10.49-3.79-.27-.79-.48-1.66-.56-2.65-.2-2.5-.09-6.31-.92-9.42-.61-2.28-12.37,1.13-14.55-1.41-1.69-1.97,3.88-11.22,1.57-13.23-2.07-1.8-6.24-1.49-8.58-3.23-2.28-1.7-5.33-2.39-7.67-3.97-.37-.25-.78-.43-1.22-.58-6.01-5.74-13.36-10.32-20.48-13.04l-6.01,5.88c-1.57,1.4-5.08-.11-4.63-2.4-.35-1.51.83-3,1.52-4.8,2.22-5.76-12.9-8-18.83-7.25-20.34,2.58-11.66,7.5-19.06,9.8-2.24.7-4.65-1.06-6.26-3.76,1.33-1.79,3.21-1.07,5.43-3.04-2.99-2.71-12.01-1.32-10.77,4.2-.66-.99-1.21-1.09-1.59.13-.41-2.37-3.35-1.65-5.82-2.89-4.03-1.81-9.29-4.59-12.68-7.77-2.63-1.64-5.36-1.05-6.88,1.66-3.74,6.67-8.27,1.48-8.66,7.06-2.29-.22-3.65,1.7-5.56,2.45-3.19-6.15-1.18,9.56-7.46,8.12-1.13-.13-2.34-1.23-2.98-.97.54,0-4.28,8.51-2.64,8.51-10.34,1.13-11.62-13.2-9.19-19.73.67-1.21,2.57-3.25,1.86-5.38s-13.51.73-15.88,2.67c-.81.65-2.67-.29-3.44-.67-.43-1.23-1.43-2.14-2.67-2.52-1.08-2.65-3.26-4.84-5.85-6.67-1.16.64-2.21.99-3.2,1.1l-2.37-5.44c.31-.67.73-1.33,1.31-1.94-.97-.19-1.78-.42-2.45-.68l-2.02-4.64c1.69-4.38,11.7.96,11.44-6.04,3.19-4.1-10.69-2.85-10.25-6.57.52-4.45,10.46-2.89,13.65-5.89-1.94-1.37-2.65-1.88-2.78-2.44.24,0,3.58-11.55,7.45-10.76,3.93.79,5.08-2.63,1.46-4-2.54-.23-4.41-1.8-6.04-1.81-3.59,0,1.27-6.51-17.9-5.8,1.63-7.34-9.54-4.48-12.93-.73-2.36,2.25-13.93-2.44-11.78-5.07l2.86-8.55c.54-1,2.05-2.27,1.65-3.94-.19-3.92.45-8.26-.81-12.03-8.98,9.1-2.65-3.59-6.01-7.98-1.19-1.56-3.63-3.12-6.49-1.18-13.31,9.06-9.1-1.29-22.56-1.04-3.69.07-5.16-5.5-3.17-8.29,2.04-2.86,2.39-7.35,5.46-8.86,14.2-6.98-.18-10.81,15.77-15.35-1.76-1.93-4.51-1.67-5.51-3.23-1.84-2.87-1.66-5.77-1.04-8.41,2.6-1.45,6.6-1.5,8.48-3.62.99-1.12,4.42-2.46,5.79-2.05,2.62-6.25.27-6.16-4.64-9.15.57-2.14.34-5.86-2.75-4.51-8.75,7.38-8.3-6.75-8.93-12.59-3.05,2.55-3.15,6.23-4,10.23-.89,4.18-6.73,3.82-8.35,11.48-.77,3.65,1.65,10.1-1.88,13.67-3.08,3.1-6.8,5.33-4.61,11.05,2.45,6.42-10.99,1.81-15.03,4.16l6.29,7.59-.41,6.19c-5.68.55-.66,5.55-15.88,4.03-3.86,5.72,12.53,3.23,5.66,8.62.21,0-2.42,11.98-1.92,12.86-3.05-1.16-4.07,2.43-3.86,5.17-.15,1.07-1.29-.35-3.67-.01.11,4,3.92,4.83,5.32,7.8,1.36,2.87,1.77,5.54,4.77,6.53-12.61,4.25,4,18.97-10.25,13.72-1.73,1.47-1.56,4.69-5.76,6.14,2.05.77,11.2,10.58,11.22,13.66l.03,4.24h-5.66v3.17l-3.32.05c-2.56.03-4.34-2.05-6.28-2.06,0,34.63-.01,662.55-.01,716.14v135.86h2912v-970c-3.21,1.56-1.71-8.83-2-8ZM2105.92,1088.53c-2.24-1.87-2.9-3.41-5.37.48-3.85,1.48-10.61-5.83-2.65-4.82,2.65-.08,5.74.17,6.23-1.77,2.44.78,4.59,4.88,1.79,6.11ZM2163.34,1167.75c.67-1.09,1.52-2.29,2.62-3.63,1.45.12,5.49-.53,6.61.51,0,0-3.31,1.12-9.23,3.12ZM2232.54,1092.95c-1.91-.14-3.43-2.81-2.23-4.17,2.17-.94,4.49-1.41,6.68-.45l-4.45,4.62ZM2317.79,1027.67s.07-.03.11-.04c.77.45,1.49.9,2.16,1.34-.76-.43-1.52-.87-2.27-1.3ZM2379.16,989.89c.93-1.71,1.91-2.05,2.57-1.17l-2.57,1.17ZM2636.33,945.08l-.03-.03s.06-.03.08-.05l-.05.08ZM2647.78,929.16c-4.39-1.04-9.85.36-11.97-2.32,7.88-4.57,7.73,2.79,14.15-6.8,1.4.47,2.58.82,3.61,1.08l-5.79,8.04ZM2785.68,818.28c3.53-.04,5.01,2.99,5.04,6.36l-5.04-6.36ZM2800.59,837.11l-7.78-9.83c6.47-.65,14.41,4.56,7.78,9.83ZM2862.83,816.03c-2.57-3.57.66-5.86,4.5-2.25,1.7,2.31-1.2,2.55-4.5,2.25Z" fill="#24453a"/></svg>