<?xml version="1.0" encoding="UTF-8"?><svg id="a" xmlns="http://www.w3.org/2000/svg" viewBox="0 0 2912 1632"><path d="M1389.51,1056.82c-.76-.33-.9-1.48-1.17-3.05-3.22-6.3-2.96,5.52-4.1,8.08.94-.27,1.97-.13,2.62.26,1.07.65.95,2.11,1.75,3.56.29.54.66.98,1.07,1.34-.41-.36-.77-.8-1.07-1.34-.8-1.46-.68-2.91-1.75-3.56-.65-.39-1.68-.53-2.62-.26-1.43,3.22-1.71,6.5-4.06,10.3-3.5-4.12-3.23-8.36-5.2-12.22-2.5,4.74-1.34,9.64-5.51,11.3-.89.35-2.28-1.06-2.9-1.08-3.95-.13-1.77,9.91-3.1,14.06-3.05-1.53-.77-14.26-6.79-22.41-.18,5.44-1.03,9.23-3,14.73-.41,3.04-1.5-.48-3.77-1.21-1.86-1.41-1.24-4.18-2.49-7.5-1.74,1.1-1.82,2.83-2.46,4.1l-4.63-12.1c-9.09,11.08-2.97,15.34-10.99,23.33-2.18-3.74-2.97-7.67-6.21-10.59-2.37,2.59-16.8,3.91-18.42-.45-4.93-13.3-6.3-13.76-9.46-28.28-3.12,3.9-3.42,8.47-4.27,13.62-3.68,22.23-7.15,13.32-10.36,28.79-4.11-6.45-11.07-16.53-11.39-22.53-6.6,13.78-3.98,1.59-9.55,16.36-.4,1.07-.33,3.06-1.27,4.23-3.37,1.38-6.8,2.57-10,2.18-1.02-.13-2.67-.42-2.7,1.46-.47,13.12-5.1,3.75-3.18,20.03-4.78,2.58-6.79,7.73-6.72,12.1.38.31.75.68,1.08,1.09-.34-.41-.71-.78-1.09-1.09-1.2,2.34-3.84,3.49-5.95,5.58-2.17,2.15-1.35,6.95-4.13,8.41-2.87,1.51-4.2-3.16-5.94-4.56-5.25.92-6.73,6.7-10.3,10.12-2.56,2.45-10.65-.63-10.73-4.33-.2-10.14-2.02-18.69-9.01-26.51-2.92-3.27-3.91-7.72-8.19-10.44-2.25-17.16-4.59-6.63-9.39-25.56-4.74,4.36-4.65,8.6-8.36,13.22-2.35-2.67-2.07-5.66-2.95-8.85-3.89.69-6.33-.75-8-4.28-2.76-5.84,8.06-7.16-1.43-17.64-1.71-1.89-2.99-8.94-6.51-9.44-6.93-.99-7.45,7.37-9.16,11.91-4.9,13-2.86,17.07-13.36,24.47-4.49,3.17-5.91,6.07-7.44,11.3-.92,3.17-6.28,1.88-8.42.9-6.16-2.83-2.52-10.15-3.76-12.51-1.78-3.38-8.13-.79-8.46-2.77-.28-1.67,7.2-7.84,1.83-9.01-2.64-.58-5.27.78-6.16-2.2.15-4.4-3.23-5.25-4.15-.95-4.06,2.22-3.44,5.42-4.31,8.85l-2.43,9.54c-1.44,1.1-4.27,2.75-6.22,2.55-4.8-8.29-.14-10.28-2-17.12-4.65-1.97-6.53-5.44-7.79-10.08-1.43-1.68-2.8,1.43-3.92,2.5-1.85,1.76-5.28.06-6.95,2.25-1.69,2.21-1.25,4.95-2.14,6.83,0,0,0,0,0,0-.41.62-2.12,4.35-4.27,3.24-4.15-2.13-3.99-8.13-4-11.55-1.19.08-3.92-.55-5.08,1.07,0,0,0,0,0,0,1.16-1.62,3.89-.99,5.08-1.07,0-1.96,3.71-4.52,1.38-7.2-9.05-10.44.6-18.39-9.34-14.38-5.17,2.08-5.56,7.9-7.13,12.46-1.48,1.59-4.21,1.26-6.6,2.03l1.29,6.95c-1.66,2.52-3.92,4.41-3.5,8.31-3.7,7.22-2.4-7.44-11.85-5.7-5.36.99-4.1,17.21-7.58,24.02-6.57-1.78-7.79-5.9-8.77-12.7-2.73,1.2-1.98,4.01-3.18,7.1-.59,4.48-4.67,4.09-4.81-.16,5.25-.09-7.11-19.99-7.11-19.99-.11-.4-2.43-19.97-6.67-22.78,2.31,4.89-5.09,19.82-8.18,21.81-4.53,2.91-3.79,6.74-2.42,10.26,0,0,0,0,0,0,.56,3.65-1.28,8.46-3.08,12.03-4.49-24.37-3.12-6.21-11.44-28.12l-1.31,26.4c-3.23-2.64-.66-5.68-1.76-10.21-3.57.08-1.1,6.11-4.82,6.09-3.36-.02-1.75-5.48-3.88-7.66-3.2-3.28-1.45,6.07-7.75,6.84-1.82-6.33-2.54-12.63-1.89-19.22-2.41,2.17-2.37,4.34-4.37,3.73-1.33-3.91.62-7.12-1.77-12.09l-7.67,10.45c-7.43-8.07-3.63-1.89-9.44-10.15-.18,4.6-1.89,6.93-4.09,9.65-.34,2.97-1.81,2.8-2.06-.09-1.25-2.24-2.2-4.56-1.63-7.57-.86-2.75-2.6-2.28-3.15.27,2.16,2.83.31,4.8-1.39,2.55.16-5.18-.52-8.76-3.99-11.62-2.14,3.01-1.4,6.65-3.29,8.32-7.44-1.54-.94-7.42-10.56-8.43.38-3.8-2.58-3.67-1.26-.97-1.2,5.25-3.35,9.6-6.09,13.78-4.2-2.92-1.12-19.36-9.52-14.51l-4.5-9.39c-2.86-5.98.47-12.98-4.11-18.07.65,5.27-1.85,8.55-3.87,12.75-2.25,4.7,3.53,20.01-4.66,15.12-6.34,14.86-3.11,2.71-9.1,14.2l-5.44-18.74c-1.66-.59-3.97-1.06-4.24-3.94l-1.31-13.62c-.37-3.83-.52-7.52-3.73-10.06-.1,7.53.56,12.85-1.79,19.49-1.25-.59-2.87-1.07-4.52-1.22-2.78,2-3.18,10.15-8.71,21.51-5.56-2.53-25.5-6.51-35.64-8.43-.7-1.91-1.72-3.5-2.06-5.16-2.05-1.02-2.57,2.4-3.96,4.05-8.61-5.4,2.62-5.33-12.36-19.83-3.64,7-6.72,13.03-11.67,19.44l-11.83-1.38c-1.25-5.21-1.39-10.27-1.85-16.18-.18-1.64-1.67-2.24-2.67-1.12l-4.78,12.3c-4.03-6.26-5.27-12.46-7.7-19.05l-14.66,22.23c-2.46.84-5.32-2.17-8.33-2.2-2.89-1.28-1.36-2.49,2.03-2.76,4.66-15.83-3.11-8.44,1.92-17.82,1.53-2.84-3.1-4.03-6.15-4.03-.15-5.41-1.68-10.75-5.35-14.55-3.44,4.99-3.3,10.63-7.25,14.61-1.83.8-6.04-.08-7.14,4.68-1.94-.43-2.17-1.83-.79-2.84,1.27-.92,2.3-1.7,3.04-2.69.82-1.09-2.5-14.96-6.79-19.55-8.52-9.12,1.15-10.03-8.27-12.24.57-6.02,1.46-4.81-2.91-9.11-1.08-1.06-2.78-1.64-3.35-3.1.57,1.47,2.28,2.04,3.35,3.1.79.55,1.68-.12,2.28-.85.54-.65.93-1.88,0-3.29-.87-1.32-1.74-1.5-3.26-1.66-1.16-.12-2.41.11-2.54,2.01,0,0,0,0,0,0-.45.56-1.79.52-2.46.12-1.36-.12-1.88-.75-1.75-1.32-.12.57.4,1.2,1.76,1.31.01-.76.06-1.55.36-2.26,0,0,0,0,0,0,.6-1.46-.53-2.36-1.39-2.86-2.08-1.22-4.65-.21-5.21,2.86-.23,1.31-1.33,1.81-1.91,2.1.22-.7.07-1.38-.06-1.55-.13-.17-.25.18.06,1.55,0,0,0,0,0,0-.47,3.65,1.33,6.9,3.67,11-1.66,1.63-4.38.29-6.6,1.74-.85,1.82-.23,5.03-2.33,5.29-1.13-2.33-1.16-3.89-2.6-4.98-1.01-.76-2.4-.9-4.53-.23l-3.79-3.44c-3.6,1.95-3.31,5.22-3.82,9.01l-5.12,3.55-8.46-4.51c-.26-1.97-1.2-4.31.53-7.59.57-1.78-3.37-1.33-4.42-2.56-1.62-3.17,1.2-7.7-1.14-10.3-2.05-2.27-5.08.32-8.12,1.41-1.14-13.63,5.66-6.04-1.08-22.38-1.84,1.5-1.83,2.96-3.52,3.9-1.19.67-3-.33-3.98-1.8.06.58.05,1.08-.02,1.53.07-.45.08-.94.02-1.52-.05-.02-.1-.04-.15-.06,2.66-2.03,5.25-4.68,5.65-7.51.71-.53,1.33-1.31,1.75-2.53-9.99-8.55,4.31-23.96-5.16-32.94-2.92-2.76-5.21-4.31-4.45-9.33-2.87.34-2.52,3.43-4.25,4.1-3.19-1.01-.61-4.33-3.02-7.91l-4.79,12.36c-6.77-4.83-3.28-14.47-7.04-24.45-2.84,11.5-6.86,10.71-7.39,16.27-13.63-.31-8.7,5.19-15.52,4.01-1.82-.32-2.3,1.22-2.53,2-.35,1.18.02,1.85,1.46,3.21,3.03,2.85-.76,1.93-6.21,10.09-2.21,3.31-10.52-.33-19.26,6.84-117.7-4.43-202.09-65.96-202.09-65.96-.76-1.15-1.48-2.26-2.18-3.33-4.17-6.43-7.33-11.45-11.29-15.69-.01,0-.01-.01-.01-.01-4.25-4.55-9.44-8.19-17.82-11.74-.17-.08-.34-.15-.51-.22-.29-.12-.58-.24-.88-.36-.3-.13-.6-.25-.9-.36l-.32.31-8.78-1.72c2.04-5.7-12.96-7.91-18.86-7.16.23,1.06-1.86,2.33-1.58,3.17l-33.71-35.03c1.15-4.94-.08-10.11-4.4-13.07-.8.7-1.62,1.26-2.46,1.76l-1.91-3.15-6.7-.59c1.76-.12,3.94.03,6.7.59-3.06-5.76-7.92-10.28-14.28-13.49-2.79,2.52-6.48,4.22-9.58,5.96-.57.31-2.85,2.8-5.97,4.89l-16.03-1.42c-.65-2.03,1.18-4.73,1.38-6.33-11.73,2.45-7.54-1.62-10.69-2.6-.87-.27-1.84.53-3.33.84-2.51.54-6.27-4.31-9.86-3.6-1.78.36-1.99,2.62-1.48,4.16,1.63,0,3.5,1.58,6.04,1.81,3.21,1.21,2.67,4.03-.23,4.11l-1.23-.11L0,678.37v953.63h2912v-984.42s-.75,2.49-1.93,6.42h-.04s0,.07,0,.11c-4.27,14.14-14.12,46.53-15.42,48.84-1.67,2.96-16.45,29.05-16.45,29.05l-2.41,8.1c-1.49.86-3.37,1.8-5,5.02-2.59.12-6.93-1.76-10.29-1.97-2.74-2.45-2.73-6.85-5.21-10.53-2.78.84-2.09,3.69-4.18,7.51-1.09-2.61-3.03-4.17-5.98-5.19-1.73-2.09-.23-5.57-3.39-7.85-2.74,4.19-2.02,8.05-5.39,11.49l-3.8-6.32c-6.33,6.58-1.94,16.31-7.97,19.66-2.22-6.73-2.81-12.56-5.64-18.12l-1.5,10.36c-2.58-1.2-1.42-4-3.37-6.38-5.14,16.65-3.5,7.11-8.03,18.02l-6.59-13.99c-.45.23-.76.49-.98.77l-3.16,2.49-.88-1.26c-.11.83-.28,1.61-.49,2.34l-9.88,7.77-8.08,7.56.39,9.58c-1.53-3.34-4.85-2.44-.39-9.58.17-4.17-.36-3.23-2.65.17-1.02-1.55-1.24-3.29-2.84-2.37-1.82,4.33-1.06,9.39-3.67,9.05.44.68.81,1.47,1.05,2.33-.24-.86-.61-1.64-1.05-2.33-2.14-.28-3.04.68-3.01,3.59.02,1.76-.18,2.97-.03,3.88.19-.07.46-.04.78.02-.31-.06-.58-.09-.78-.02-3.55,1.19-6.82-1.63-10.19-2.45-1.25,2.45-2.76,6.05-5.93,5.61-1.04,8.9,1.2,10.54,3.04,11.87-7.67,3.63-16.33,7.67-24.93,11.54-16.23,7.31-114.23,13.81-181.93,17.51-.2-.75-.8-1.54-1.94-1.56l-43.87-.78-17.74-2.24-16.4-4.74c-.89-.26-11.25,6.35-10.83,9.01.64,4.03,12.57,1.38,12.67,11.9-1.2.86-3.24.9-3.97.99-.15,3.31-2.73,6.4-2.89,10.12l-.24,5.63h.01c-.03.62-.13,1.36-.3,2.17-1.28,1.19-2.58,2.29-3.91,3.25-12.74,9.28-8.7,22.88-70.48,57.96-40.33,22.89-55.24,36.14-60.74,42.58-1.45-.91-3.16-1.9-5.21-3.01-5.18,2.54-.39,13.12-5.68,12.66.02-1.11-.33-2-1.13-2.79,1.06,1.18.98,2.5.52,3.94h-.01c-.26.5-.51.99-.75,1.48-.2.43-.4.86-.57,1.3-.08.2-.16.41-.22.61-.09.26-.17.52-.23.78,0,.03-.02.06-.02.08-.04.15-.07.29-.1.44-.07.33-.11.67-.13,1.01,0,.03,0,.07,0,.1l-17.85,20.14-67.99,41.11-45.32,17.04c.11-1.05.08-2.09-.33-3.14-1.24-3.14-5.13-2.94-8.24-4.76,1.23-1.3,5.36-3.96,3.61-6.09-3.12-3.78-5.84-6.31-7.14-11.1-1.18,1.41-2.11,3.4-2.84,5.58-.06.16-.11.33-.16.5-.5,1.54-.9,3.17-1.21,4.73-.03.16-.06.32-.09.47-.22,1.15-.4,2.26-.54,3.27-.05.33-.09.64-.12.95-.31,2.45-.37,4.19-.3,4.29t0,0c-.04.17-.09.34-.15.5-.32.99-.82,1.93-1.3,2.9-.16.31-.31.63-.46.95-.46,1.01-.83,2.07-.93,3.27-.02.26-.03.52-.02.79,0,.27.02.54.06.82.05.35.11.7.21,1.07,1.09,4.18-1.48,6.7-5.19,7.51-1.52,1.07-1.5,4.17-1.62,6.81-.14.81-.38,1.46-.66,1.95l-1.28,1.05c-.78.08-1.56-.76-1.89-2.72-.93-2.39-2.26-3.35-3.14-3.91-1.95-1.25-3.71.67-5.22,1.54.26,1.42.39,2.68.4,3.82-.02.75-.09,1.5-.22,2.24l-37.46,3.58c-23.21,7.72-8.39,9.57-18.02,12.18-1.01-2.06-2.32-4.02-3.49-6.11-1.03,4.52-3.98,8.81-8.71,8.58-3.18-.16-5.66-2.98-8.08-1.19-.03.26-.01.54.02.83-.03-.29-.05-.56-.02-.83-.43.32-1.42-.12-1.96.21h0c-.07-.95-.57-2.55-1.58-2.68-2.97-.39-4.58-1.1-6.5-.01-2.34,1.33-3.67,2.49-3.8,5.06h0c-1.46-.23-4.23-.26-3.98,1.84,1.07.41,2.08,1.53,3.13,2.2.84-1.14.92-2.13.9-2.94.03.81-.06,1.81-.89,2.94-1.05-.67-2.06-1.8-3.13-2.2-.44-.17-.82-.67-1.15-1.4-.06-.14-.13-.3-.19-.46-.12-.33-.23-.69-.34-1.07-.05-.19-.1-.39-.15-.59-.2-.82-.36-1.72-.5-2.66-.04-.23-.07-.47-.1-.71-.34-2.49-.52-5.13-.62-6.89,0-.16-.02-.31-.03-.46-.05-.98-.08-1.59-.11-1.59.48-4.23.63-8.33-2.09-12.06-1.77,4.82-2.87,8.27-2.7,11.96.73-.17,1.48-.22,2.22-.2-.74-.02-1.49.03-2.22.2-1.79,1.43-2.41,4.12-4.99,3.28-1.32-.44-2.8.25-4.1.57,1.3-.33,2.78-1.01,4.1-.58.05-4.05.17-8.13-2.3-13.25-.72,4.76-.96,9.27-2.03,13.88h0c-.58,2.48-2.66,5.5-3.02,7.84,0,0,0,0,0,0h0s-1.02,1.32-1.02,1.32c-.47.42-.95.88-1.12,1.44l-4.54,5.83c-.36-.18-.87-.27-1.57-.21-.15.78-1.13,1.19-.08,1.97.1,0,.18,0,.27.01l-2.47,3.18c.03-.15.06-.31.09-.5-.26.41-.5.84-.71,1.29l-1.56,11.59c-.05-.39-.08-.79-.11-1.18-.02-.32-.04-.63-.05-.95-.03-.82-.03-1.64.02-2.44.02-.32.04-.63.07-.94.22-2.18.74-4.25,1.63-6.08-.02,0-.05-.01-.08-.03-1.24-.63-3.69-7.14-7.63-6.25-3.17.72-4.52,9.45-9.71,12.77-2.14,1.36-3.35-1.4-4.76-2.65-.85,3.8-.04,7.31-2.9,8.21-1.36-1.64-1.93-3.72-2.66-3.82-.79-.11-1.03,2.45-1.84,2.77l-9.09,3.6c-2.96-3.13-4.04-7.49-6.02-10.36,0,0,0,0,0,0v-3.28c.01-.85-2.3-1.88-3.6-.49-1.21,1.3-.03,2.98-.05,3.9,0,0,0,0,0,0-.1,3.58-1.69,8.52-3.87,11.68-.63.92-3.45,1.14-4.66,2.28-2.39-1.05-.93-3.78-2.58-6.43-2.34,3.53-2.77,7.19-3.69,12.31-3.82-9.03-5.93-5.99-5.54-10.19h0c.15-1.6.95-6.11-1.94-6.06-3.62.26-1.13,4.9-1.71,6.46h0l-2.71,7.19-7.41.15c.04-2.6-2.37-3.56-3.73-5.82-.26.16-.5.23-.71.26.22-.03.45-.11.71-.27.94-.24,1.29-.77,1.48-1.39.28-.89-.43-2.24-1.47-3.1-1.29-1.69-2.58-1.72-2.57.23,0,.05-.01.11-.02.16,0-.06.02-.11.02-.17-2.72-2.82-.85-7.09-2.54-11.9-3.74,2.27,1.8,13.95-8.91,18.93l-2.18-5.89-6.74,13.97-1.16.22c-1.23-3.83-1.1-6.89-4.21-9.71-2.7,1.96-1.46,4-2.75,6.93-2.75-1.35-1.74-4.22-3.56-6.8-2.88,1.83-3.01,6.05-6.03,6.28-3.14.25-3.01-4.11-4.93-7.7-1.3,3.73-4.7,7.86-9.32,6.55-3.24-.91-5.67-2.02-6.65-4.56-1.93,2.42-1.63,4.02-2.38,5.41-1.72-1.21-2.21-2.43-3.98-2.87-.8,2.76-1.24,4.57-3.33,6.86-3.92-2.03-6.17-5.16-9.62-9.99-3.21,4.2-1.99,7.82-4.05,12.5-2.7-.87-5.82-14.86-6.41-15.96-2.55,2.59-1.75,6.52-4.94,6.62-3.91.13-5.33-3.32-8.09-5.13-2.54,1.63-2.48,4.37-4.9,4.36-1.42-2.53-2.54-3.85-4.32-3.91-1.88-.06-2.13,1.85-4.17,4.22-2.36-8.07-2.02-16.37-5.75-24.29-3.49,6.87-2.85,16.9-5.78,22.4l-5.03-2.37-1.09-7.91c-1.56,2.23-2.35,4.91-4.21,5.41l-.58-.07c-.73-.3-1.53-1.29-2.61-1.25-.01.31-.02.61-.02.91l-8.27-1.04c.11-.48.21-.96.29-1.43-.19.4-.4.81-.33,1.25-.74-2.72-2.99,3.67-6,6.59-.31.31-.63.57-.96.78-.69.45-1.42.67-2.16.52-.16-.03-.31-.07-.47-.14-.32-.12-.64-.32-.96-.59-2.92-2.46-3.54-7.27-4.89-10.76.82-3.17-.43-5.28-2.58-2.65.16,3.97,0,6.79-2.17,9.8-1.73.16-2.46-2.26-4.31-5.28-1.61,2.9-1.12,6.76-4.17,9.44-2.02,1.78-5.03.35-5.73-1.26-.81-1.82-.73-3.18-1.35-6.34-2.08.81-1.86,3.26-2.64,5.24-3.05-.67-4.87.96-5.92,4.27-4.76.19-1.72-6.9-7.34-12.89-.48,2.02-1.24,5.07-4.17,6.13-4.34-2.57-3.17-7.59-3.77-12.71-3.88-.57-.28,10.08-4.58,8.06-3.31-1.55-3.11-8.75-5.68-4.87-1.17,1.78-1.05,3.34-1.82,3.74l-4.72-13.05c-2.57,6.04-4.41,12.12-10.62,16.1l-4.27-6.28c-4.68,2.66-2.9,11.69-6.64,10.14-1.57-3.1-2.06-7.32-5.03-8.34-9.57,4.14-2.27-6.94-9.26-17.69-2.59,4.04-4.21,8.52-4.3,14.24,1.94,2.11-.18,2.57-1.44.5-.58-2.87-.68-5.28-3.04-6.59-.84,4.86-1.02,9.21-5.59,10.69-3.14-5.54-1.75-10.95-4.61-14.51-4.63-1.37-5.82,3.46-7.46,5.97-.33-3.39,1.21-6.57-2.32-8.14-1.18,4.29.85,6.76-1.69,8.24-1.47-1.5-1.26-3.09-2.26-3.68-.61-.36-1.53.06-3.01.48-2.05.58-2.92-2.35-4.22-3.9l-7.66,2.68c-3.04,1.06-1.85,6.93-5.37,8.06-10.44,3.37-2.68-10.87-10.12-19.87-4.66,4.44.3,14.23-9.29,15.69-1.34-5.88-3.16-10.51-5.96-15.37-4.01,3.82-.57,12.7-8.46,13.34-.55-5.14.01-9.68-1.92-14.27-6.67,9.8-7.09,7.16-12.86,16.22l-3.92-9.08c-1.6,1.8-3.06,4.56-4.91,5.09l-5.58-4.78c-1.22,1.41-1.29,3.42-2.99,3.26l-1.04-15.39c-6.67,2.81.33,13.51-4.88,13.53l-.28-14.37c-2.57-.62-5.23-.36-7.84-.04.21,1.43.34,2.88.37,4.33,1.02.66,1.54,1.73,1.71,2.91-.17-1.18-.69-2.25-1.72-2.91-.03-1.45-.16-2.9-.37-4.33-.26-1.57-1.8-1.09-1.92.63-.58,2.22-2.85,1.94-1.48-.33-.89-3.42-2.1-6.52-.56-10.4.21-3.82-2.22-4.58-2.34-.5-2.22,1.84-1.68,3.62-1.97,4.92,0,0,0,0,0,0l-2.7,12.09c-6.01-8-2.4-15.92-6.54-13.79-3.26,4.34-1.01,8.59-3.52,13.9-2.24-3.6-1.01-7.54-2.52-13.21l-5.97,9.81c-2.41-2.33-1.94-5.31-2.65-8.68-2.72-13.01-3.38,11.75-8.5,10.31-1.29-7.54-2.12-14.25-5.97-19.82-1.51,3.84.07,9.61-3.61,11.27-3.36.52-5.11-3.5-6.37-4.83-.04,2.53-.89,4.2-3.09,5.18-4.46-10.98-3.12,4.3-9.81-16.45-.91,6.87-1.03,12.34-6.01,16.35-.82-3.29.37-5.46-2.81-6.66-3.06,3.04-3.95,11.51-8.77,10.24-4.09-1.09-2.47-8.04-7.05-11.69-2.68,1.2-3.77,3.76-5.55,4.89-1.7-1.36-4.3-2.17-5.62-.25-1.39,2.01-1.77,4.04-2.28,6.49-4.86-3.96-2.6-8.86-7.16-12.23l-7.45,8.53c.06-.05,0-.2-.14-.45-.02-.05-.06-.1-.1-.16-.34-.52-1-1.34-1.83-2.3-.14-.16-.28-.32-.43-.49-1.97-2.24-4.7-5.08-6.74-6.98-.57-.53-1.08-.98-1.51-1.33h-.01c-.21-.18-.41-.33-.58-.44-.08-.06-.16-.11-.23-.15.05-1.3,0-2.69-.74-3.73-1.05-1.46-2.92-1.15-5.61-2.17l-2.5-2.44Z" fill="#36604d"/></svg>