<?xml version="1.0" encoding="UTF-8"?><svg id="a" xmlns="http://www.w3.org/2000/svg" xmlns:xlink="http://www.w3.org/1999/xlink" viewBox="0 0 2912 1632"><defs><linearGradient id="b" x1="1022.39" y1="899.96" x2="1022.39" y2="899.73" gradientUnits="userSpaceOnUse"><stop offset=".03" stop-color="#afc28e"/><stop offset=".1" stop-color="#a3b888"/><stop offset=".36" stop-color="#7f9c78"/><stop offset=".61" stop-color="#66886c"/><stop offset=".83" stop-color="#567c65"/><stop offset="1" stop-color="#517863"/></linearGradient><linearGradient id="c" x1="1043.01" y1="900.17" x2="1043.01" y2="898.11" xlink:href="#b"/><linearGradient id="d" x1="1053.35" y1="896.59" x2="1053.35" y2="896.4" xlink:href="#b"/><linearGradient id="e" x1="1060.97" y1="896.09" x2="1060.97" y2="895.59" xlink:href="#b"/></defs><path d="M1022.57,899.72c-.08.07-.17.14-.25.22-.03-.06-.06-.12-.1-.18l.35-.04Z" fill="url(#b)"/><circle cx="1043.01" cy="899" r="1" fill="url(#c)"/><path d="M1053.55,896.39c-.11.06-.23.12-.35.18-.02-.04-.04-.09-.05-.13l.4-.05Z" fill="url(#d)"/><path d="M1061.29,895.56c-.07.16-.14.32-.21.49-.16-.13-.3-.28-.43-.42l.64-.07Z" fill="url(#e)"/><path d="M838.26,421.6l-5.29-.36,3.4-4.73c.61-.84.44-3.15,0-4.27-5.57-1.96-11.02-3.53-16.86-3.95-2.61-.19-4.83,1.1-6.58,2.74-3.4,3.19-12.8,12.63-17.4,11.48,3.04-7.35,20.56-26.58,27.43-24.01l13.23,4.96c5.83,2.18,5.31-6.66,10.53-.03,5.07-1.19,9.69-3.77,14.4-6.38,1.35-.75,4.45-.09,5.84.71,8.6,4.94,14.18,14.53,18.73,23.53-4.12,1.97-16.41-9.83-19.54-12.65-3.65-3.29-14.49.85-18.74,2.93-.94,3.72-1.91,7.63-2.63,11.25-.11.53-1.16,1.1-1.48.73s-.65-1.25-.99-2.08c-.31-.76-2.03.72-2.33,1.47l-.54,1.3c-.09.23-1.1.15-1.11-.1l-.07-2.56Z"/></svg>