<?xml version="1.0" encoding="UTF-8"?><svg id="Layer_1" xmlns="http://www.w3.org/2000/svg" xmlns:xlink="http://www.w3.org/1999/xlink" viewBox="0 0 2912 1632"><defs><linearGradient id="linear-gradient" x1="1022.3948" y1="899.9588" x2="1022.3948" y2="899.7318" gradientUnits="userSpaceOnUse"><stop offset=".0277" stop-color="#afc28e"/><stop offset=".1016" stop-color="#a3b888"/><stop offset=".3617" stop-color="#7f9c78"/><stop offset=".606" stop-color="#66886c"/><stop offset=".8258" stop-color="#567c65"/><stop offset="1" stop-color="#517863"/></linearGradient><linearGradient id="linear-gradient-2" x1="1043.0098" y1="900.1705" x2="1043.0098" y2="898.1073" xlink:href="#linear-gradient"/><linearGradient id="linear-gradient-3" x1="1053.3499" y1="896.5854" x2="1053.3499" y2="896.3997" xlink:href="#linear-gradient"/><linearGradient id="linear-gradient-4" x1="1060.97" y1="896.0918" x2="1060.97" y2="895.5863" xlink:href="#linear-gradient"/><linearGradient id="linear-gradient-5" x1="1563.4497" y1="959.1803" x2="1563.4497" y2="958.208" xlink:href="#linear-gradient"/><linearGradient id="linear-gradient-6" x1="2288.4849" y1="764.2267" x2="2288.4849" y2="763.7831" xlink:href="#linear-gradient"/><linearGradient id="linear-gradient-7" x1="2781.0202" y1="750.6757" x2="2781.0202" y2="742.2578" xlink:href="#linear-gradient"/><linearGradient id="linear-gradient-8" x1="2874.8154" y1="723.6883" x2="2874.8154" y2="722.8154" xlink:href="#linear-gradient"/><linearGradient id="linear-gradient-9" x1="-2.2114" y1="1033.9614" x2="2912" y2="1033.9614" xlink:href="#linear-gradient"/></defs><path d="M2912,699.6599h-21.6602l-140.375-3.4163-706.4258-55.301-198.2056,159.0574s-104.0396,30.6801-215.2671,62.8201h-180.7988c.4648-1.6125,1.2236-3.3943,2.8706-5.2874,2.3101.1357,5.0977,4.1452,7.3071,2.3135,5.6875-4.7153,7.7856-2.2239,8.6104-14.0151-5.1694.827-8.437-1.6622-12.436-1.7432l-21.5781-.4373c1.584.0321-20.4058-1.7568-21.3091-4.3779-1.2822-3.7195,3.6592-6.1375,5.9268-8.5884l12.3979-13.3986c2.1836-2.36,9.1665-12.4384,15.3447-16.6547,4.0103-2.7369,2.5146-7.038,3.9702-10.4635,4.2559-10.0145,7.7637-18.9622,8.5522-30.0109.2441-3.4226,1.4448-18.1497,4.6338-16.0781l-10.084-5.5735c-10.8804-6.0137-22.3438-9.7882-33.5566-15.8522-33.0669,17.8443-61.5737,40.7081-90.6943,64.2021-15.6387,12.6174-38.4204,32.5778-54.2319,41.0602-18.771,5.3994-38.7754,6.032-58.2861,8.8716-25.8535,3.7629-50.5044,7.6895-75.9644,13.827-10.0728,2.4282-20.3784,5.2632-30.7383,6.7299.8589-.1216-13.6421-9.0977-15.1001-3.9126-2.4727-3.338-2.5503-7.256-4.3535-10.6925-6.0679,6.6632-1.8979-.5692-10.3003.6582-.7979-4.2048-4.314-6.3063-5.6812-9.8852l-5.0952-13.3323c-2.5776,2.5495-1.7314,5.6183-2.6265,8.9523-3.7388.3741-5.7729,2.7668-7.6646,6.5605-3.5288-2.2246-3.9819-6.5966-6.9937-9.2256-1.8325.9378-3.5547,1.7682-4.7983,1.113-4.4194-2.3279,1.0479-1.2321-6.2983-12.1981-1.541-2.3005-.4648-5.3341-3.314-7.6788-1.5742,3.2984-2.4268,5.5104-4.313,7.4596-.1406-3.2739-.3999-6.0848-3.8643-7.6895-5.5811,13.2118-2.3179,1.5715-11.8979,17.7846-1.5405-6.1356-7.1929-5.2086-9.4775-7.5441.1538.1575-13.1924-16.1229-12.4136-17.9151-2.5352,5.1166-4.2441,9.3118-9.6318,13.2388l-5.5146-11.108c-.5439,2.9221-.6738,6.2945-3.6465,7.3311-3.811-1.2451-5.124-6.3253-7.8901-11.3335l-4.5586,7.4759c-6.062-1.6537-8.1631-8.2604-8.9092-15.542-2.3584.7593-1.5791,3.5432-2.6787,4.6799-2.8149.9202-3.7896-1.2329-5.6011-3.9572-2.248,1.8236-1.9941,4.387-3.231,7.3763-2.291-2.5967-2.002-5.3005-3.667-8.1244-1.4561-2.4705-4.3086-2.3363-6.1509-2.0713-2.7705,1.1759-5.5312.2256-6.2358-2.021,3.9966,12.7394-9.6123-21.7392-7.103-10.8583-2.5913,1.7003-3.9766,3.9636-5.792,6.5896-4.0874-.3927-3.2964-6.4503-6.6255-8.2659-2.0293-1.1067-4.3657-.4883-6.6758-3.2961-2.8911-3.5145-6.8931-5.2838-9.103-9.9236l-4.2695,9.6353c-2.1108-2.6258-2.5962-4.9492-3.8896-6.9943-1.5952,1.4487-2.542,3.0814-4.2129,3.1252l-4.5542-7.8441c-1.438,3.1367-4.5205,6.3781-7.2134,5.3741l-5.9131-15.4225c-1.0728,6.2824-3.0396,11.2918-8.3887,13.9155-1.3833-6.8544-.9111-12.1914-1.2866-17.9283-3.1987,5.7036-3.731,10.572-8.0493,15.2414-2.8711-2.0677-4.3013-5.5919-6.6162-9.3597l-6.1152,4.3459-4.9258-7.4158c-1.4268.4324-1.8091,2.0126-3.6304,3.2158l-7.3584-12.322c-3.7378,2.6833-3.4082,5.9982-5.4619,8.6146l-6.5317-16.1963c-2.3833,1.1702-2.1431,3.1263-3.7734,4.1686-1.7363-5.6417-1.0703-10.0978-3.7759-14.3505-1.6318,4.2911-.71,7.8504-4.7646,10.5853l-5.1255-7.2308c-1.4033-1.98-3.6821-2.9717-3.1431-5.1406-4.2769-.1206-3.167,3.7729-7.1895,4.0202-5.2168.3207-4.4185-7.8506-9.7739-10.569-1.8018-.9147-3.5327.9904-5.4512,2.0358-2.1733-11.9471-6.5732-4.9333-9.1016-9.8742-4.3423-8.4875-4.1484,6.5651-12.9688,5.2209-2.729-2.6155-.25-7.0842-2.1367-11.0394-2.8232,4.7765-2.7168,10.0271-7.2222,14.8755-1.8511-2.72-1.8647-4.9815-3.3535-7.8423-3.2744,2.4474-1.8511,8.6662-6.562,13.5366-2.5684-2.7119-2.6318-5.0999-5.0972-8.9453-4.5244,3.4945-8.5103,6.3436-12.8765,10.5344l-4.2954-4.1447c-1.4355,1.6035-2.2402,3.243-3.4517,4.1808.2383,3.0928-1.5615,5.5118-4.4038,7.7315-3.3931,2.6498-4.2812,8.6122-8.2036,10.3112-3.5112,1.5212-4.2197-3.6774-5.5068-6.3244-3.0244,4.717-4.5474,8.886-6.3398,14.3788.0439,2.6734-3.0654,1.9299-.2061-.7744-1.979-3.9704-4.0308-7.3264-5.5-11.6124l-6.4014,14.2463c-1.4785-1.6235-1.5962-3.8759-3.9165-4.9052l-5.7222,18.1397c-2.3628-1.0928-3.0146-4.0382-4.9922-7.3182l-8.1763,15.5066c-2.542-1.4565-2.4629-3.6221-5.0205-5.8243-2.1318,2.5307-.7319,5.2535-3.2549,6.618-2.6001-4.1144,1.1069-6.9924-1.8364-10.2812-1.2251,5.496-2.5923,11.8874-9.1621,14.5119-2.5928-1.0793-3.4624-5.4689-3.2979-8.5372-.5981-2.2202-2.1646-2.1929-2.688-.1104.4624,3.8141-.2939,6.3228-2.9561,7.5901-2.3101-3.6537-3.772-6.27-6.1211-8.7255-3.5391,2.9492-3.269,8.0157-7.7041,7.4166-1.3599-.1837-1.9741-1.9624-3.8608-3.5325-7.1909,10.1796-2.7915-6.6578-13.0391-4.6469-.1157.9295.4478,2.4445-.3413,3.9491-3.1836,1.0338-5.6533-1.7283-5.2124-4.2063.5493-3.0876-.6992-6.0017-1.9829-8.7123l-4.2085,7.4125c-2.084,3.6715-5.0752,5.141-5.8247,10.1879-3.4912-3.4944-3.396-6.9419-6.5171-8.8394-1.9482,1.2626-2.3525,4.8408-3.8301,6.1616-2.7681.0683-3.3906-2.9114-4.8623-6.0151l-4.6606,7.3348c-3.7539-2.0256-2.4961-9.0178-7.0298-12.5073-2.4243,2.1031-3.5591,17.9056-7.6807,9.5783-.4482-2.724-.813-4.5628-2.8315-4.5446-4.3677.0396-3.8521,9.5442-5.6792,6.5054l-2.2314-3.7097c-.9639-1.6035-4.4087,4.2379-2.6147,7.7607-1.0815,2.4331-2.3105,1.8864-2.7612-.438.1313-3.3586.5361-6.4836-2.0791-9.1068-8.5898,16.8632-6.2881,5.144-11.0059,16.6385-3.3066-2.9149-4.167-7.0981-4.5938-11.3024-1.231.2537-2.4878.3596-3.7427.2782-.0518,3.1398-.3149,6.2249-2.1831,9.8738l-5.29-8.3323c-1.8506,2.8617-1.6045,5.6033-4.897,6.5968-2.0903-.8616-1.6899-3.4901-4.2246-5.0953-2.6045,2.1059-2.2656,4.8181-6.1987,6.877-1.8169-2.8104-.127-6.127-2.7837-8.429-2.0542,4.5061-.1152,8.1705-3.2095,11.9111-.9907-2.1269-.9507-4.2452-2.7744-5.8267-1.3999,2.0582-.6538,3.1888-.7485,4.1465.0083.9607.27,2.0186-.2485,3.7884,0,0-449.5615,4.2552-449.7334,2.1785-.1719-2.0767-4.0254,844.0331-4.0254,844.0331h2919.6543l-7.6543-932.3401Z" style="fill:#92ac83;"/><path d="M.0086,796v-10l2.2152-.2415c1.4168-.9282,1.5629.5484,1.8016,2.2084.6785,4.1015-.6494,7.4951-4.0169,8.0331Z" style="fill:#83a47a;"/><path d="M1022.5698,899.72c-.0796.07-.1699.14-.25.22-.0298-.06-.0601-.12-.1001-.18l.3501-.04Z" style="fill:url(#linear-gradient);"/><circle cx="1043.0098" cy="899" r="1" style="fill:url(#linear-gradient-2);"/><path d="M1053.5498,896.39c-.1099.06-.23.12-.3496.18-.02-.04-.04-.09-.0503-.13l.3999-.05Z" style="fill:url(#linear-gradient-3);"/><path d="M1061.29,895.56c-.0703.16-.1401.32-.21.49-.1602-.13-.2998-.28-.4302-.42l.6401-.07Z" style="fill:url(#linear-gradient-4);"/><path d="M1563.25,959.1c-.1899-.29-.3701-.6-.5498-.91,1.96-.15,1.8398.23.5498.91Z" style="fill:url(#linear-gradient-5);"/><path d="M2289.1396,763.76c-.3301.16-.6699.3-1.0293.43-.1006-.07-.2002-.17-.2803-.29l1.3096-.14Z" style="fill:url(#linear-gradient-6);"/><path d="M2780.8896,749.98c-1.5801-2.1-1.1992-4.57-.3701-8.16,2.3408,1.15,2.1201,3.4.3701,8.16Z" style="fill:url(#linear-gradient-7);"/><path d="M2874.9004,723.51c-.04.25-.0908.08-.1699-.7401.0293.27.0791.51.1699.7401Z" style="fill:url(#linear-gradient-8);"/><path d="M2890.3398,699.66c-.2598-1.57-2.1602-1.36-4-2.12l-31-12.76c-17.7002-7.28-33.7695-16.39-49.8994-26.37-1.3809-.85-2.9707-.66-3.6201-1.64-.1201,1.31-.4102,2.5-1.3008,2.53-.8691.04-2.9199.41-3.5791-.16-4.6006-3.97-8.6104-1.85-13.6904-1.63l-18.6299.78c-2.1699.09-4.1797,2.26-6.5098,1.44-5-1.77-8.5205.09-12.79,1.52-5.4404,1.83-11.3906.96-17.2705,1l-12.0195.08c-36.9805.24-30.1807-5.57-51.8398-5.12-3,.06-1.9707-5.55-.5508-6.44-7.9492-.19-15.9092-1.33-23.8701-.09l-43.2695-1.29c-58.25-21.75-111.5596-27.51-170.5801-51.08-25.8604-10.33-65.6699-45.59-86.8604-65.13-1.6895-1.56-2.6895-3.16-2.9697-4.81-4.8799-.6-6.2695-6.66-11.6895-1.95-7.2705,6.32-7.5801,11.04-21.8301,7.23-9.46-14.32-17.5205-28.75-28.9902-41.34-4.1299-4.53-42.3301-33.29-48.04-35.16-13.1499-4.32-27.9102-.26-41.5098-3.34-13.4702-3.05-24.5605-10.61-36.2002-17.47-2.5801-1.52-5.2202,1.5-7.02,2.8799l-69.0903,52.79c-2.8096,2.15-5.2695,4.28-8.1396,4.75-4.5898,5.39-10.98,9.31-17.75,13.36l-59.6001,35.69c-1.3999.84-3.23.74-3.8501,1.56-3.5898,4.72-10.3301,5.33-14.71,8.47-6.1602,4.43-12.21,9.91-20.48,13.0099-33.1099,12.4-30.23,7.23-53.1201-.87-4.5396-1.6-7.0796-1.52-10.5698,1.64-5.8599,5.31-26.2002,23.04-31.8599,23.29-2.75,3.79-7.54,5.85-12.1001,8.5-10.9702,6.4-20.6001,13.34-30.3999,21.21-9.25,3.67-46.5801,1.03-53.71,5.09l-24.0703,13.69c-1.6196.92-2.3101,2.67-2.98,3.44-3.21.42-6.1499,1.99-9.6699,3.6299l-30.0298,14c-15.5303,7.24-29.54,16.53-45.1104,21.4-1.02.32-1.7598,1.87-3.4897,2.61l-66.2202,28.13c-11.2397,4.78-23.1196,7.63-34.6597,14.18-14.54,8.27-29.52,15.08-43.6699,24.27-8.6704,5.63-24.0703-9.52-31.9702-8.98-3.1899-2.0699-4.3901,12.65-4.6401,16.08-.7798,11.05-4.29,19.99-8.5498,30.01-1.4502,3.42.04,7.72-3.9702,10.46-6.1802,4.22-13.1597,14.3-15.3398,16.66l-12.3999,13.39c-2.27,2.46-7.21,4.87-5.9302,8.59.8799,2.53,21.3901,4.28,21.3901,4.38l21.5.44c4,.08,7.27,2.57,12.4399,1.74-.1899,2.73-.46,4.7-.8198,6.16-1.1802,4.86-3.4302,4.23-7.79,7.86-2.21,1.83-5-2.18-7.3101-2.32-6.0503,6.96-.1602,12.43-11.48,13.4,2.4897,2.76-19.8501,12.28-21.0703,9.18-2.1201.37-2.29,4.76-4.3096,5.24-3.7202.87-5.1304,3.6-8.1001,4.94l-10.4204,4.69c-2.9897,1.34-6.21,1.68-9.4697,4.68l-3.0898-10.02c-4.8501,5.0099-5.3101,12.17-10.52,15.97-5,1.31-11.4302.46-15.3403,4.66-2.2598,2.44-5.02,1.16-8.1699,1.52-2.1602.25-1.54,4.38-2.98,5.26-5.21,3.21-10.5098-.06-12.8599-5.81-3.5103,3.77-7.77,7.7-11.8701,6.35-3.8701-1.27-3.6099-6.55-6.4697-9.15-.5601,3.97-3.3403,6.62-7.96,5.4-2.3604,1.42-2.4702,4.24-4.3901,5.92-1.5601,1.36-3.1304.12-3.77-1.22-.52-1.1.71-2.68-.8301-4.57-1.8398,2.89-2.1401,8.58-6.9702,8.5-3.8799-2.24-.3101-12.47-5.3296-14.14-5.3901-1.8-3.7803,6.39-7.8003,5.96-4.1899-.44-3.1001-6.21-6.8999-6.88-2.73,4.68-18.96,10.58-23.9902,2.18-2.7695,3.45-5.9199,10.31-9.8398,8.41l-22.3301-10.8c-4.5898-2.23-13.9102-4.47-19.5996-4.08-14.6304,1-9.8701-3.9-16.8604-9.85-1.1499,3.53-2.5698,6.61-5.5298,6.67-2.5.05-3.5503-3.11-5.1201-4.95-1.0103.27-1.6802,1.29-3.4399,2.38-1.8101-3.03-2.2603-6.55-4.4399-9.46-1.8501,3.22-2.8403,7.99-6.5703,8.28-5.2397.4-5.8599-4.98-8.3296-8.56-2.29,7.89-12.6201,9.49-15.8701,8.36-12.5801-4.38-14.8398.35-16.9702.17.4502-.04-4.3696-2.03-6.8599-5.43l-4.7998.52c-1.2803,3.13-2.9902,6.62-5.5103,6.82-2.7798.22-5.1201-2.89-8.1602,0-.7207.696-1.9214.6802-2.8975.4083-.5801-.7791-1.7451-2.3626-3.064-4.2606-.104-.2764-.2095-.5535-.3184-.8278l-.2354.0252c-2.2622-3.3016-4.7798-7.2802-5.5181-9.6182-1.4292-4.5251-5.2397,1.9053-10.7178,8.8121-.6675.842-1.3247,1.7804-1.9697,2.757l-1.8091.1938c-.0703.16-.1401.32-.21.49-.1602-.13-.2998-.28-.4302-.42l-1.6348.175c-.1099.06-5.6953.705-5.815.765-.02-.04-.04-.09-.0503-.13l-3.6662-3.8516c-1.9272-8.5461-.6097-9.2677-.6097-9.2677l-4.4183,6.4327c-1.5932,2.3196-2.446,5.0675-2.446,7.8815l-3.4038.3651-1.5034.1613-1.3281-.1613-4.7632-7.2962-5.0015-5.4778-2.4618,14.1521-.9782.3419c-.0796.07-.1699.14-.25.22-.0298-.06-.0601-.12-.1001-.18h0l-10.4447-8.8041-6.8899,10.6641-1.0175.1092-2.3887-7.6447-1.7651,8.0904s-3.5115-1.3061-5.1907-3.5665c-2.046-2.7542-2.3327-6.5224-2.3327-5.9992,0,.5355-2.3849,6.1855-2.7335,10.6663l-7.4312.3138c-3.5884-2.8564-4.8396-5.5892-4.8396-5.5892,0,0,.6445,2.0077.6738,4.3666.0092.7407-.5926,1.4336-.5855,2.2159l-9.1421.981c-4.3433-3.996-5.532-8.9023-5.532-8.9023l-3.1921,9.8384-4.9507.5312-6.9357-4.3925-.3446-2.9183-8.7051,9.0282-.4819.0518c-.3086.2532-.6099.6869-.939,1.4221l-5.5679,5.7749h0c-64.1348-1.8361-933.2031-4.2349-933.6948-6.4715l8.6289,722.4745h2905.5825v-932.34h-21.6602ZM1563.25,959.1c-.1899-.29-.3701-.6-.5498-.91,1.96-.15,1.8398.23.5498.91ZM1909.9697,804.47l-1.9097.2c.0098-.03.0098-.07.02-.1.21-1.15-.7202-2.4.4102-4.72,2.4697.82,1.9297,3.17,1.4795,4.62ZM1987,774c-.5498,0-1-.45-1-1s.4502-1,1-1c.5601,0,1,.45,1,1s-.4399,1-1,1ZM2018.75,767.25c-1.1699-1.3-.46-2.82.4502-3.34.9097,1.87,1.1099,2.79-.4502,3.34ZM2237,742c-.5498,0-1-.45-1-1s.4502-1,1-1,1,.45,1,1-.4502,1-1,1ZM2288.1104,764.19c-.1006-.07-.2002-.17-.2803-.29l1.3096-.14c-.3301.16-.6699.3-1.0293.43ZM2360.3398,658.22c.0205-.1899.4404-.4399,1.3799-.75-.1699.28-.6602.53-1.3799.75ZM2780.8896,749.98c-1.5801-2.1-1.1992-4.57-.3701-8.16,2.3408,1.15,2.1201,3.4.3701,8.16ZM2874.7305,722.77c.0293.27.0791.51.1699.7401-.04.25-.0908.08-.1699-.7401Z" style="fill:url(#linear-gradient-9);"/><path d="M838.2571,421.6021l-5.2863-.3552,3.3987-4.735c.6055-.8436.4423-3.1548,0-4.2695-5.5721-1.9614-11.0191-3.5327-16.8601-3.9522-2.6061-.1871-4.8313,1.1037-6.5806,2.7417-3.4039,3.1874-12.7994,12.6315-17.4035,11.4815,3.0373-7.3535,20.5576-26.5844,27.4276-24.0099l13.2317,4.9586c5.8279,2.184,5.314-6.6632,10.5278-.0254,5.074-1.1866,9.6891-3.767,14.3994-6.376,1.3466-.7459,4.4472-.0865,5.8414.7148,8.6026,4.9442,14.1771,14.5268,18.73,23.5326-4.1245,1.9662-16.4074-9.8307-19.5392-12.6477-3.6541-3.2868-14.4895.8479-18.7449,2.9331-.9436,3.7249-1.9071,7.6291-2.6296,11.249-.1068.5349-1.1587,1.1017-1.478.7303-.3142-.3655-.6498-1.2533-.9871-2.0789-.3091-.7565-2.0253.7248-2.3313,1.466l-.5371,1.3011c-.094.2277-1.098.1472-1.1051-.0982l-.0739-2.5605Z"/></svg>