<?xml version="1.0" encoding="UTF-8"?><svg id="Layer_1" xmlns="http://www.w3.org/2000/svg" viewBox="0 0 2912 1632"><path d="M275.0944,515.6168c2.0035,9.6843-2.2761,24.2325,6.8118,30.4882.6491-6.1129-5.204-6.1061,3.6956-7.3945.8902-5.099,12.1758-9.881,12.6102-6.8753.9326,6.4527-1.5821,11.704-2.0301,17.6467,10.1492,5.0692,1.7047,7.6193,7.7734,12.6492-1.3922,3.0866,6.8196,2.4538,6.2984-.1312.5197-1.3442,1.8674-4.9708,3.759-4.7493,3.1677.3709,5.4611.3936,8.4967.3681,20.2434-.1699,6.3286.4743,19.4153,8.601l-4.0267,6.1335c2.1568,3.0902,13.2191-8.5981,9.0447.6024-5.966,8.7268,10.5026,6.9231,13.1174,13.0076-5.8745.3136,2.3033,11.413-3.8005,12.126.8545-4.3044-5.7987-1.2511-6.4505,1.4276,5.7907,1.374,4.275-1.0497,6.1096,4.5756,6.1489-4.1422,4.5277-5.8252,9.5399.0906.0003-.0012,7.1519-5.8303,7.1519-5.8303,1.2643-1.0305,2.3108-1.3921,3.1819-.7623.8231,8.7434,10.1374,4.8303,11.7372,7.6452,1.6781,2.9528-8.2565,6.3956-3.9157,12.7642,1.7345,3.5136-6.3561.6723-5.6063,4-2.7159,4.4288-7.1813.5999-12.1246,2.375,1.5664,2.3577,3.4585,5.2493,5.7624,4.0082-1.3559,5.2801.805,7.0124,2.019,10.8169-.7397,3.5236-8.38-.161-11.3281,3.1866-2.2577,2.5637.615,5.6116,1.5568,7.8127-2.9028,3.1351-6.2624,5.7151-5.782,11.7681,25.7161-2.6397,8.4208,4.4558,22.289,12.7269-2.4156,1.9707-4.6614,2.2417-6.3294,3.8673-1.437,1.4005-4.5881-.0333-6.5939,1.3022-3.9983,1.9596,1.9289,10.3516,4.3375,6.0894,3.1322-1.0716,6.7959.1475,9.6588,2.4768,6.4647,5.2598,12.1964-3.4296,18.5083,5.9531-.1482,1.5346-1.6839,2.7049-1.0273,4.2407,3.0879,4.9062,6.3118,1.5531,5.2155-2.6189,1.6158-.2176,2.1086-3.2761,3.4473-3.6388,4.2716.5125,5.638,5.4979,8.7476,5.3924,4.2076-.058,9.3317.5653,7.9738-5.4541,11.5751-.8721,6.0904,5.0415,13.8339,11.0023,7.6636-6.1546,18.6759-4.0967,20.0924,6.3843-3.3172,4.7141-8.1122,7.905-13.9526,6.6555-5.2462-2.7833-6.1347,5.2736-.2677,3.6588-3.0734,25.0953,4.1898,3.5728,15.1613,10.692,2.2885,1.9555,3.5052,4.8525,6.403,3.8067.4603,3.8458-1.4924,4.9345-4.477,8.4396,16.515,10.6768,14.0609-5.6379,18.9704,6.8149-.0869,2.873-3.4678,1.7035-5.5602,2.6531-1.795.8146-.1788,3.5957,1.1196,3.666.8148.0441,1.3325-.2016,2.5404.2111-1.9918,2.6088-5.2124,2.6666-8.0262,3.769-3.269,2.8148-8.68-8.3336-10.3022-2.6896-.6454,2.2456,6.505,6.1682,7.9715,6.7894.8758,8.4089-19.546,4.5053-23.6606,4.1617-1.8608-.1554-3.6903,5.9737-5.8564,3.9276-1.8619-1.7588-3.6523-1.9444-6.1942-1.5275-4.5036.7385-20.5262-4.6477-19.9579-4.378-4.6358-2.1999-10.0475-2.8139-16.1669-1.3134-8.9789,2.2017-13.8414-7.5789-32.4169,4.2974-8.9918,10.1409,2.5534,8.8245,7.4593,16.7059,2.8104-10.6473,6.8357-.5725,12.9374-8.2222,6.7995-8.0512,16.3765,14.1036,23.6252,2.6294,3.4701,2.806,2.3345,3.9787-.1104,5.1125-2.9627,1.3739-.3599,3.9721,1.209,4.3627,1.2504.3113,1.4279.3382,3.6475-1.5502,9.5743-3.8848,18.9636-4.4273,21.235,5.5021,3.8487-4.3098,8.4578-4.2751,11.9824-2.0017,5.1263,4.2786-1.7317,4.3879,7.9141,10.5802l-3.3169,8.0742c4.8347,6.8735,2.8215,9.6607,5.912,11.23.7829,6.3766-3.2563,3.2933-8.2144,4.6231,1.4508,2.4845,3.2958,4.5546,5.637,3.9595-2.6203,9.4304-8.876,13.9783-1.7861,22.4423,3.2798-1.9773,4.5572-4.4933,6.7784-6.6955,11.1311,2.5012,21.3072-10.4389,25.3041-4.456,4.3745,6.5483-7.4366,4.498-5.661,14.3702-2.3861,1.7156-5.1566.7866-6.2441,3.1836,3.0531,1.7301,4.8448,1.3005,6.0268,2.1514,3.5536,3.4953,1.4272,14.178-5.349,11.9785-11.1026-.8878,2.0848,4.8367,2.7825,7.8616,9.3272.8703,10.9089-7.7365,18.7186.0589,13.2965-3.9448,3.7996,2.9862,22.0761.6764-1.678,14.6021,2.1679,7.881,8.9465,19.4085,3.0292,2.8529-.7576,1.9283-6.207,10.0885-2.2091,3.3081-10.5174-.3326-19.2573,6.8388,14.3656,4.4357,8.7689-.2638,11.3203,9.8619,1.6352-5.3648,5.062-5.9635,10.2232-4.272,3.5711,2.7846-4.961,5.3525,1.5456,9.6601,2.217,3.0327,3.0632,4.5125,7.0131,2.3281,12.7826,10.3526-5.2614,6.5492,1.6369,13.145,10.021,13.2791,18.9899,5.8982,18.2685,12.1831-1.9353-.8839-3.4078,1.2993-3.6693,3.0131-.0573,1.9802-1.8697,1.2291-4.0464,2.8128,2.7959,2.2725,5.7765.3797,8.9811,2.0108,6.183,5.1175-12.8144,4.9913-4.2533,11.1258,6.0479,3.3688,7.0175-3.7089,7.4487-8.0865,5.7232-2.9689,10.7272.9348,16.6931,2.5428,2.4322-.302,5.3641-4.0986,9.754-1.1717,10.2624,6.1876-2.8803,9.6429-8.6639,4.6729-4.0559,2.482-8.0908,4.8555-9.7009,8.9113,6.8178,3.0026,12.9268.4363,19.9651,1.6074,2.7716.4612,6.5829,5.0513,9.8854,3.3329-1.0065,2.0507-2.1349,10.0732-5.1039,10.275-6.1316,1.8658-.6131-8.2686-17.7817-2.9562-1.3379.414-3.3741-3.1457-5.1866-1.6689.6783,12.4582-20.0534,11.4282-18.0273,14.0088-1.4794-.0962-2.9554.0919-4.3884.4619-7.5522-3.4242-7.0421,4.5195-14.6728-2.7841-2.1619-2.0692-5.5301-3.4064-9.0179-3.0811-3.5636.3324-.7909,7.1018-3.3304,9.0584-1.6449,1.2674-2.443-.2799-3.1746-3.3009-2.0702,8.6661-7.0523,5.1187-8.7483,14.2929-2.6927,14.5652-14.7589,12.4616-16.7777,17.7622l-13.7972-.2138c-2.5844-.0401-2.2473,3.8873-2.1984,5.2103.0884,2.3916,2.2693,3.1075,5.8045,3.5379-9.0126,7.4013-7.4227,41.6563-8.8627,56.1048.0002-.0001-2.8804,53.9435-2.8804,53.9435,12.6183,7.3371,7.6128,4.262,20.234,4.5956,2.6686.0705,4.495-2.6801,7.8626-4.0943-16.2299-15.5083,21.9307-16.4018,28.2179-5.7478,2.4158-1.0182,6.0124-.2624,8.4308-.8574,2.7243-.6703,4.4524-2.6654,8.1947-1.4032,2.7255.9193,6.3435-.3996,8.9747-2.8001-6.4407-7.6035-13.789-17.5581,1.6097-16.5854,3.8652-1.3377,7.1606-4.3111,11.374-2.6024,6.2344,5.0342,6.5068.7132,12.0233.6853,7.1652,6.4842,3.7313,7.7231,14.6665,7.7541,3.0742.7041,5.662,4.3871,9.6334.496,2.8228.6077,5.4691,2.8428,8.3263,4.6536-1.2174,9.2053,2.1746,3.6391.3366,13.7326-1.3598,7.4674-12.7107-5.6444-15.7071,3.7779,5.0355,3.9725,9.4922-1.9923,20.7594,5.6206,1.9339,1.3067,1.7196,5.9443,4.0901,8.2137-9.7854,6.7839-6.4324,6.749-14.8787,4.7031-10.3655,7.8542-34.0615.8803-32.0854.5569l-6.2183,1.0177c-13.6862-1.137-24.3724,10.9594-34.2891,19.072-10.913,10.0797-14.6701.6194-19.1924,2.5869-3.6247,1.577-5.746,4.6111-11.0754,5.4733,12.4916,8.927-4.0853,28.2175,18.9264,23.9758,2.4525-.4768,3.9846,2.1018,6.1451,2.2602,10.9774.8051,2.5542,8.6775,11.8292,7.522,3.3258-.4143,5.2581,1.628,4.4081,4.6476-6.9467,9.1604-5.252,21.5117,4.6572,26.9422,1.4357,3.4143,2.1106,9.52,6.5532,9.3453,2.4402.232,12.4246-1.5558,13.9626.8099-5.1639,21.6818-12.3337,13.7463,14.949,22.5825,12.4588,11.2045,16.0396,1.2619,23.532,9.2243,1.8527-2.756-.2297-4.6139.1374-7.2525,9.867-8.1187,10.99,10.3978,19.3674-3.2369,1.4312-.111,2.837.1503,4.2099.5092-.8577,5.2887.4922,13.3325,5.7607,6.5499,4.26-2.3402,9.1506,1.3864,8.5017-7.0801,3.3402-.0024,6.0223,3.5253,6.8438,7.325,15.2012,1.7714,9.0108,2.9003,18.8547,8.4103,7.8413,12.5873,8.3272,4.576,20.3007,13.7485,25.4216-8.1201-1.3603-7.0708,25.4333-14.6668.6584-1.2596-11.7036-15.4249-11.0604-12.3259-.9072-4.3709,8.5052-5.8862,7.7452-10.4435-3.1344-1.789-4.6257-3.9186-4.9375-8.3261l-.605-8.5511c6.7102-2.8356,4.4731,8.1372,13.9669,3.6942,9.0857-1.0019,4.6375-5.0493,4.1355-10.1586,1.5648-6.0034,15.8222,3.3908,11.8862,1.8665,2.4443.3933,16.8953,6.9508,14.0041-.282-4.7708-6.1242-9.8433-7.1158-4.1573-15.2853,2.0352-10.0386-13.2046-24.0535-1.5428-24.5358,6.4207-.0708,8.6677,12.3624,16.8026,4.6245-7.9868-5.3301-2.4588-8.0099-10.3798-17.9345,2.3668-2.2326,5.123-1.1956,8.1321-2.4273,2.4752-6.6528,5.7582-12.1534,12.3672-6.9536-.5348-2.9602-2.776-3.9004-4.5826-4.0829-4.7962-7.8065,7.7278-7.3744,9.3677-13.6323,9.8152-2.2981,2.5541,12.9453,15.2412,13.8843.1444,1.2899.2215,2.5864.2047,3.8845-8.5683,2.8124-1.6585,10.2214,2.6314,2.849,6.6876,14.6211-16.5089,8.2612-12.8472,17.949,14.7376,2.827,3.2131,8.8483,11.0939,12.1224,1.356.4389,8.2001-8.8615,7.4525-8.9204,3.5355-1.6462,7.1696-2.8936,11.6098-1.9848.239,3.2559-.3108,5.8577.8374,9.3282,1.5219-1.2145,6.7242-2.282,6.4814.4208l-1.275,14.1939c-12.3527,7.6508-.5001,14.3231-9.5393,20.763-2.5328,1.8045-4.1007,7.6571-.944,8.3808,12.202-.1719,10.2914-2.4679,17.7112,7.3422,8.1867,9.9578,13.0222-.9266,17.0897,5.5452-2.8732,2.8049-3.6772,6.13-4.7031,10.0315-1.4641,5.5679-24.317-2.8835-19.1295,7.8193,6.2592,13.2437,24.1107,11.867,14.7188,24.7762-3.8686,4.1665-8.2382-3.9735-22.4566-.2081,0,0-2.2415,9.0563-2.2415,9.0563,16.9393,5.066,7.6933,10.5728,14.3981,13.6847,9.3098,4.3211,1.1723-8.6309,24.6443-.5428,1.0664,10.3638-8.3965,17.7948-4.6888,19.7199,8.8748,4.6078,7.3356-19.7918,17.3106-9.611,3.2828,3.3506,1.213,9.8814,5.8255,10.1694,5.1459.3213,10.6349-9.687,11.3792-4.9512.6627,4.216,4.4905,4.7169,5.4045,6.7483,2.8461,9.8163-13.3825,10.1607-10.0841,22.261-.0017-.0004,5.5153,6.7427,5.5153,6.7427,10.1802-1.1557,25.3866,6.9382,30.1465,1.9947,1.3121,7.4949,31.6243,22.4385,33.941,8.4494.3654-2.2064,1.5199-6.8901,4.0632-7.7921,23.6982-4.6786,28.3996,15.8614,35.8166,10.1968,8.5996-6.5678,11.3287,4.235,12.5997-1.5314.5095-2.3116-1.9139-5.7997-.7285-7.3901,1.302-1.7469,13.4129-3.5537,16.5821-2.6112.8675-2.2736,2.1963-3.6359,3.9869-3.0354-2.0092-.6738,6.8838,7.467,19.6297,4.6851,9.4325,13.1548,12.964,7.8631,25.6062,15.0739,2.2528-.8025,6.0901-2.3029,6.986-4.4454,1.5618-3.7351-2.5564-7.4228-2.4481-11.1973.4384-4.9325,13.5355,1.528,16.3411,1.5647,15.7282,4.2825,15.3946,1.0859,17.129,6.0955,2.7522,7.9495,10.8466,2.4924,16.952,5.7188,3.0326,1.6026,7.3344,4.678,10.5875,2.1742,2.7373-2.1068,5.8049-7.0062,9.6922-4.9811,13.8909,7.2366,8.9431-.1603,17.4017,8.2643,1.6253,1.6187,4.0477-.8585,5.2339-.4775,7.4249,2.3846,12.1993-.8851,18.114-4.4672,12.1968.3849,7.9159.1637,15.3762-8.5078,3.8912-3.0833,9.2538-2.2314,13.3181-4.6864,1.8619-1.1247,2.7069-4.2144,4.3755-3.3468,7.2086,6.888,36.1179-.7185,42.2462,1.3455,8.7521,3.3963,7.4374-5.8485,18.5501-3.8184,3.0321-.1476,4.8587-.9702,7.8872,1.189,9.5735,5.8723,14.0467-3.3923,17.2109,3.0394,2.4593,2.2185,6.1806.0726,8.7223,1.5396,4.0753,2.3521,6.7242.1486,10.4019-.1864,8.4789-.7724,9.912,17.7837,21.0611,16.9432,3.388-2.7766,4.7717-11.6612,13.1226-12.5698,7.9485,1.0881,3.425,14.876,16.429,7.7605,13.5515-8.0228,12.3169,4.4622,22.2476-2.3627,10.7339-7.3769,14.3479,4.5349,22.2862,2.2444,6.3814-1.8413,12.5048-4.7798,18.8549-.858,13.9298,8.6031,11.9224-7.5169,25.8821,4.2128,12.1305,9.226,21.5438-10.4043,33.836-6.0654,19.8358,7.6346,18.222,1.4049,26.1104,4.3121,5.3851,1.9846,10.2917,1.8426,14.816-1.5734,6.8698-5.1867,17.4935,6.4003,23.2682,4.9298,4.7286-1.3429,14.5425-3.5195,19.4027-4.3924,2.616-10.5008-.8072-8.424,7.4692-9.7503,2.1987-2.4527,1.3198-5.7266,5.7776-8.1771.6215,6.2765,18.1741,16.3003,20.972,13.5905-3.0723-6.9965.6406-5.3745,4.2009-8.0171.6089-3.0904-7.0517-7.3141,1.2034-8.6518,2.9271.6495,1.1922,9.962,7.723,4.5126,18.8954-6.5646,11.1183-2.3678,16.3313-9.414,2.4433-3.3026,8.4935-.6321,11.5683-2.6569,1.6759-1.1036,2.3883-3.388,4.1008-2.406,3.5349,3.7053,6.5269-1.0621,9.3116-3.0013,2.6279,2.4969,2.8961,5.1269,6.1415,7.2783,3.2827-4.0021,8.6935-6.6391,12.6472-3.419,10.1008,8.2268,13.8169-4.4248,17.5512,5.859,6.737-1.9118,36.4696,3.5122,36.2861-8.2925,9.3861-3.1672,9.8344,5.6967,17.4485,5.2167,8.0407-2.2259,8.8386-16.2503,14.0333-17.5777,8.1318-.8928,11.9031-13.8484,20.3589-4.8199,1.6348,1.845,3.5949,1.4525,5.4982.3751,7.1707-4.059,10.0849,2.8529,12.3789,1.9932,2.877-1.0781-2.7741-7.2958,4.3121-10.5656,3.5396-1.6333,7.0503-.8231,10.0208.2571,4.4121-8.9885-6.1282-5.2928-8.1363-10.7765,9.6305-.1527,9.7112-6.3599,7.8391-13.7253-.1668-2.9256,3.6041-3.9633,4.7063-5.9605,2.1065-3.8172,6.4173-15.6193,7.5046-19.7498,12.1111,8.334,5.203-6.1196,22.3846.1708l-.9634,10.2699c-3.1757,2.3721-4.8538,6.93-3.311,12.4294l4.7231-8.3454c5.8754-1.182,5.9871,2.4157,8.3585,6.7259,1.339,2.6059-.944,5.3077-.4478,7.4578-3.4442.8678-5.3883,7.2232.6254,6.0572,5.9211,3.0449-1.3285,7.0905-2.0309,9.1384-.8629,5.0213,5.0322,6.2929,13.8188,8.6598,12.8978,6.3746-9.0556,13.4688,22.4801,19.3905,46.12,10.4472,22.1586,2.6867,56.5517-12.8104,1.334-1.0793,1.2974-3.866,2.121-5.4746,10.8005-1.8621,12.6376-13.6916,18.9796-12.955,4.8777.5665,6.1217-2.7526,9.2332-5.0152l16.1207-11.7222c4.5136-3.2821,10.5525-23.27,20.6113-19.1584,5.1053,2.0868,7.3594-2.4739,10.8693-2.4899,16.3714-1.3468,11.5196,5.5877,24.6377-6.2543,5.8696-4.8493,11.5812-9.7484,10.827-17.6061,11.4847-6.5318,1.5344-4.7986,15.7228-6.0934.1679-3.1815-3.5292-8.9511-.405-11.1145,1.6619-1.1508,3.5508-.0952,4.7174,1.7154,4.4711,6.9388,7.1091,2.3794,13.7617,5.4723-9.4822-11.9513.6938-8.7221-.2993-28.2761,12.7964-6.7745,10.1073.545,15.0431-.4196-3.9047.7631,12.1963-6.5343,10.4478-6.3459,4.2518,8.9064,5.7732,2.9036,12.9471.6459-6.9571-4.245-1.8292-7.5365,1.0301-12.2232,1.9785-4.3898-.4913-9.4218,1.174-14.4149,3.601,4.4867,16.6687-3.6918,16.3812-4.4835-13.4805-12.3743-.9573-5.3039-8.5903-19.0792,10.3725,2.1848,15.0329,1.1173,15.0444-10.3885-2.8707-4.319-5.785-7.9648-6.4597-12.7195-8.4728-1.9625,8.752-3.2681,10.5215-4.3899-.3792-2.3641-1.0076-4.0584-.9641-5.8867,5.6916-.6775-1.0289-3.0802,7.6745-13.6378,10.8856-.4943,5.5972.7945,6.9133,8.8456,1.0202,2.2494,5.5614.1445,7.2394,2.006,2.925,4.7871-1.838,4.5989,3.2028,11.5123,1.4274,4.4946-3.7036,7.3477-7.337,10.3716.6527,3.4114,8.6066-1.5763,9.9215.6572,2.2905,3.8909-5.5983,7.673-5.6169,12.2953,1.44,4.9405,2.1006,8.6991,2.0306,14.3698,7.3112-9.8098,6.3759-15.1483,18.2527-2.821,2.0049,1.5981,9.3088-6.9013,25.0225,9.0162,15.4783,1.72,25.9257-6.2718,44.2487-3.61,13.5119,1.9628,26.2392,5.0947,40.3356,4.5343l.1385-69.3068c-.8691-6.3885-2.2708-2.9083-6.3587-2.2084.7095-3.8273,4.6624-4.7031,6.4497-7.6666l1.0683-21.7571c-1.6661-1.7849-4.7982-1.9283-5.7985-4.0489l.5299-13.1203c-4.5154-1.0405-9.001-.6047-14.2386-.8858l-3.8772,5.829c-8.8305-5.0948-20.889-16.6203-29.9472-14.2037-7.3693-4.0315-9.2363,4.2886-20.1484-11.3179-3.6738.0383-9.5668,1.1249-7.6849-3.8355,25.829-.0152,14.4477,1.0585,29.1577-9.7571,3.0139-1.2202.9689-3.9168.1536-5.6868-.9513-2.0653,1.6837-5.3837.2636-7.243,25.4567,5.2697,5.9667,16.3579,25.3342,12.4748,1.9339,2.18,3.6764.854,1.737-.9275-6.2969-17.0387-13.6025-6.0287-13.3389-23.4214,4.7681-1.5928,1.4587-11.6621,8.3941-4.1689-.5823-2.5684,2.0722-4.1182,3.0478-6.6431,2.5263-12.4494,8.9054-3.1786,13.0586-9.8506,2.2993-5.1052-4.8293-9.8667-.9495-11.0803,8.3472-2.6111,3.8344,12.2246,20.7322,5.1556,10.4251,6.0747,10.4874,11.012,16.483,13.8787,4.6092,9.4307,19.8084,7.9313,11.0032,18.9432-.1422,2.4628,1.6649,5.1358-.6173,8.0289,7.2233,6.711,7.8781,2.4937,13.3999-2.4916,5.1233,6.9218,4.1436,6.1188,13.0465,6.7436-3.7264-7.5244,7.7418-9.23,13.1482-14.7887,3.0076-.8206.7828-2.0791-2.2006-2.4172-3.9218,3.0486-21.0588,5.1365-28.7631,3.7916,2.6162-8.1927,10.8401-12.0702,20.2252-11.2618-8.2935-6.3178-6.6261-5.24-14.7396-16.1022,4.3701-4.212,8.6775-4.548,13.8424-5.3897l-4.0798-11.6651c.4862.6484,12.4995-9.8855,10.9341-8.2817-1.4086,1.4431,1.8572-15.4614-.4168-16.7244,1.2694-2.3516,2.6394-2.1187,3.1647.2949-2.923,7.8715,11.2475,9.7257,11.4149,9.6223,9.2521-6.9669,15.0961-.5937,17.1244-8.4843,5.2674-2.2417,10.0714.0651,15.2922,1.5503,2.4883.7079,11.2059-11.4645,10.208-16.3329,2.3509.5432,2.4849,3.3932,4.9174,3.482,1.2343-2.4563-.4084-3.1775-.7989-3.667-1.4588-4.1243,2.765-5.1349,4.2226.9877,1.9654-.7583,2.4986-2.465,5.2733-3.0871-1.0823,5.4034,1.7688,6.4052,4.3934,8.7739,12.4505,11.2363,15.5841-1.8818,9.7975,10.9119,10.4707-6.2016,20.4207,4.713,29.8718-.0357,6.718,3.8705,15.1126-5.1666,16.9153,4.112,2.3858-3.0596,4.1451-6.1371,7.5664-9.7192,1.3809,1.8652,1.7991,4.6468.8031,6.8594-2.1723,4.8258,7.0241,18.5579,10.5837,15.9951-.3863,3.0579-3.906,3.5613-5.3664,6.3962,11.6422,1.2912,4.822-4.4425,19.0697,2.9219-.8246,3.7594-2.195,9.0849-5.7652,10.648,2.439-1.0678-10.3495.3288-10.9373,3.8695-1.0978,6.6127,7.1737.9599,10.6834,11.4693,2.2722,1.8627,14.1126,1.5314,13.9578,6.5034-.09,2.891-2.8872,2.4806-5.3606,3.4076-2.8205,1.0571-4.1442,4.2241-8.2238,3.6214-4.4106-.2782-3.5883,3.515-2.5668,6.05-3.9167.0012-2.2209,1.4807-2.2152,4.6936-.9451,3.3347-6.0969.7281-8.7487-1.1554-7.2466-4.7125,1.9563,6.0987-6.726,5.0528-2.8835,1.8797,4.2919,8.5558,5.4004,1.3054.8667-2.7404,2.3611-2.638,3.0422.3862,6.0764,2.3655,13.5831,7.5993,10.1052,15.8243.0654-.1691,16.0148-11.9188,15.3648-7.5111,2.0176,4.3283-5.1815,6.1173-3.0088,14.1096,1.0872,3.9992,21.2273,6.533,24.9597,7.413,10.0798,2.3767-1.4873,3.3421,18.2241-.7591-7.9734-10.7432,8.5816-11.2129,15.3987-12.5611,6.8549-8.0783-2.1993-6.7101,13.003-12.6935,5.6475-.9077,6.2735,6.007,10.486-1.9418,8.7834,3.4871,23.277-.8564,17.5616-12.6678-.7122-3.2202,4.3067-4.4861,6.0449-8.2603-20.6428-9.2068-28.2346,11.1344-35.6702-7.1333-2.3775.3043-16.2959.9811-14.8494,4.203-2.4022-.9278-7.7797-1.7906-8.9821-4.9586-3.4348-9.05,12.087-8.5961,12.5135-10.3229.173-.7005-6.6644-8.403-4.9721-10.1214,6.5733-6.1839,15.812,1.4029,21.4132-.7979-10.1269-6.7123-3.1952-12.7462-6.3538-14.5101-3.9057-1.8847-8.221-4.1763-.4882-5.9298.3164-2.5457-1.1886-4.4428-.4907-6.768,4.8975.9125,8.3803,2.8208,13.1781,2.5932.4624-3.5445-.7772-5.9063-1.2204-10.0287,9.5578.7216,11.9219,11.8046,19.8946-4.4244-.7635-4.0363-7.0309-5.2311-1.5133-9.2847,1.5336-2.7501,4.271.2934,6.4959-.4713,7.3411-2.523,13.2748-7.7393,18.9753-13.2919-10.3857-7.6175-2.2985-5.4964-3.8936-12.0311-7.2223-1.4992-13.7088-.6602-20.2461,1.7107-4.5134,1.2546-9.4855-2.7713-14.0791-1.5521,1.9025-4.1049,10.3116-2.4229,2.296-9.1077,5.2741-3.4254,11.2088-5.7569,17.4961-8.7509-1.7215-11.8239-14.468-5.0128-17.9834-9.46,7.1773-4.0174,8.9564,1.8496,14.1462-6.799,14.2506,4.7815,7.3017-2.7035,16.1218,5.4535.4688-2.9948-2.3413-3.5022-3.2596-6.142,3.32-2.1422,4.363-5.2303,6.6986-7.7427,5.1252-3.5291,12.9982,3.9091,14.5306-6.7879-.9029-11.4901-11.9512-5.6527-8.9075-18.3693,2.6099.9222,3.5666-2.6801,2.3728-4.252,3.0783,1.6478,7.0459.0703,10.2204-.2677-1.6423,2.7827,5.7098,3.0357,4.5354.147,4.8598.3589,8.5069,1.8805,14.2936,3.6798,1.4895.9292,2.0065.5049,2.2464-1.3277-2.6778-2.9648-4.6328-6.8577-8.1935-8.2156.8623-1.3117.6286-2.7715.0894-4.147,2.7543.4285,5.4267,1.3515,9.7844-1.3091,3.3386,1.0336,3.7581.1504.5538-.9136-2.4134-1.8135-2.6082-4.6737-4.6481-3.7983,1.0241-1.3259.434-2.8987.4253-4.4042,3.6979-.7674,11.6466-4.0197,14.9759.1914-5.8284-12.3831,8.0127-8.1268,6.7891-14.6705-3.0796-3.0988-7.5635-1.4197-10.7352.6723-2.164-1.0054-3.6054-.4619-3.8782,1.564,4.3573,1.8732,6.0471,5.1756,5.669,8.846-8.966.1667-8.1589-3.7248-13.7724-8.5378-3.8702.293-13.1857,5.6625-10.6882-2.9638-2.6425-1.3091-6.9868-.0321-9.0458-3.2178-.4943-4.4589,9.5114-3.0142,11.8892-4.5823,3.5603-2.348-1.3767-11.5051,8.1725-11.4484,3.8291.0227,6.3686,2.8471,9.6061,5.3292,11.4261.0987-4.8331-1.9459-.1607-7.4869-5.4569-.6963-11.2701-3.0413-14.887-7.9728,8.1163-5.243,1.5626-16.2623,8.8838-13.6651,11.3955,4.0425-.4547-2.4813,11.5163-.5256-1.9908-2.6349-1.4788-6.3013,1.8539-6.5866,5.4228,1.829,4.4172,11.6235,12.3307,4.7255,16.738-5.6628,1.2843-20.9878,12.2734-22.3479-1.9491,16.6354,7.5641,7.9277,4.532,19.187-1.3444,7.932,4.6556,8.9062,3.981-.2489,6.3004-2.2167,12.1342-2.7471,17.8388-2.408,1.0745,5.9159-2.3722,12.3826-9.6964,13.4911-1.6503,5.936-11.3225,20.9295-1.1496,21.0634,4.4718-1.0239.8698-7.6733,6.0499-9.6816,3.5376-1.3715,6.5752.6024,6.1718,6.6178,2.9667-1.3529,5.323-10.7927,12.3235-8.3061,3.4401,1.2219,2.7985,5.6437,3.359,8.8956,15.9248-1.9874,15.1159,11.138,1.0506,13.1927,10.0159,3.6728-1.2784,18.3903,5.5647,24.0802,1.5998-1.5242,3.1827-3.8102,6.9758-5.3614,2.2171,2.7813.0774,5.4233.8397,7.8251,14.7183-2.6773,16.8247,20.9546,16.5384,21.6248-1.4203,3.3242-5.9707-1.8984-6.6376.8354-.8011,3.2844,3.218,6.3736.1561,10.4461-5.4093,7.1947-8.8259-4.5486-14.9585,2.611-2.4756,2.8902-6.3141,2.2937-9.4254,5.3426,12.3885,5.2487,1.9893,11.8503,14.3784,8.3767,3.4236,1.3134-8.0836,8.7435-3.2843,11.3667,33.0461,10.39-6.1804,9.6312,7.5564,21.4642,1.0059,6.2579-5.6797,4.689-5.4695,7.6338.4316,6.047,10.2019-2.877,13.7716,2.7723,7.2389,11.456,4.5807,18.0913,16.0048,19.4722,2.7181.3285,5.2987-2.8083,8.0329-2.1537,3.3197,4.0537,1.1843,8.1645-1.1631,11.6891-.0577.0867,2.8914,12.8875,11.9363,10.1286,6.1105-1.8638,15.0612.1191,16.9129,7.0321-1.5486,6.6538-8.7636,1.1133-2.4303,11.0804-3.8566-.2006-5.096,4.0689-7.2669,4.6842-5.7346,1.6253-6.1555-4.5431-7.8534-7.8101-2.2676-3.3726-9.9395-2.5132-12.8871-.6971-2.5713,2.3172-1.3245,6.6385-1.5634,10.286-11.3566-3.3991-6.3137-.36-15.6985,4.1874,3.7021,3.4626-2.7135,15.4579,2.9818,11.7078-1.6828,1.1081,2.2753-5.1098,12.2331-4.7961,3.0558.0963,7.2808,2.9818,10.0608.5262,10.7649-9.5091,13.4737,3.7194,17.7063.2852,6.2776-5.0934,15.0082-14.9112,21.1287-9.5045-8.3158,7.9328-.649,5.8222.9074,13.4725l12.9593,1.3436c-11.5606,4.8612-6.3592,5.5526-.4315,12.5572-5.4187,1.3486-5.3852,6.1294-5.7612,10.3545-15.1239.6487-12.1042-5.2248-27.0509-.532-1.6563,5.8465-4.9206,8.929-11.2576,10.6019,6.2527,14.4768,19.8567,2.0692,27.8315,12.8354,11.296-7.2744,9.9153-2.2941,17.2368-7.1886,5.5683-3.7225,4.3354,6.5817,11.3479,4.935v547.7166H.0086v-732c4.2511-1.0088,11.0713,9.9116,13.5336,4.5597l-4.1833-9.4911c14.6155-2.3306,13.0452-14.5448,22.1149-9.8808,9.2159,1.3986,1.1523-11.7949-.6949-14.091-1.7649-3.0492-2.2834-6.4848-3.8988-9.6613,3.0716-7.2755-4.3117-4.8642-7.9173-8.1686-4.0006-3.829,6.8381-4.5949,4.7045-12.6999,3.5718-.7697,12.3288,4.0851,15.898,5.4879-.6258-4.1326,1.6817-4.8728,3.0969-7.3681.0785-.1385,1.0938-20.2551,1.6166-22.1737,9.3923-6.8992,4.1383-13.648,8.7007-12.6695,4.9433,1.0601,1.6521,9.3001,6.534,14.6348,2.0698,2.2617,1.8961,4.5645,3.6708,7.6615,3.6639-20.5907-3.785-18.8996,7.6614-40.267,3.6528,2.719-.0995,6.6785.1721,10.2911.2893,3.8494,3.991,7.0153,3.4007,12.4716,3.2719.0634,5.9234-.5687,8.7352-.2007.7916,4.8426-4.816,5.3773-6.2673,8.7094l-5.8768,13.4928c2.5107,2.8522,8.2773,2.085,11.5148-2.5464,1.9299.0271,1.6478,2.8638.5022,4.4353,18.5043,8.216,6.5981,8.3546-3.012,15.2937-3.5629,2.1182-4.3852,7.3816-9.0015,9.605,0,0-.2,11.2093-.2,11.2093,7.1144-4.5427,10.4049-4.0195,10.4983-10.1999,7.9571,2.1802-3.1744,7.3002,4.1896,10.4955.498,2.6966,1.341,4.0171,2.9915,1.5645,2.9142-2.4594,3.6175-2.2828,1.5623-6.5394l8.4106,3.9143c.9472-2.7996-.5593-7.1005,2.281-9.5165,6.8084-2.9441,17.2461.9148,10.2984,9.8058.0856,1.85,1.3479,2.1083,2.8022,1.0375,4.5018-3.3145,1.1473,5.8709,3.9907,7.6335,7.0798,2.2868-1.8875-8.4225,8.9749-10.4621,8.3931-3.0133-5.4197,2.734,1.6313,11.251,1.8834,2.275,2.9741,4.5804,5.5852,4.8177,2.3845,2.2572-9.2165,2.2864-7.2599,6.3531,7.0853,5.1941-5.6158,5.0125-.8247,17.5438,1.0742,3.1825-6.654,2.608-6.0658,10.6809.1707,2.3426,2.4045,3.0486,5.4198,3.7886-4.8566,12.7129-11.1912,4.7635-9.4707,12.8752,12.7353-3.5429,18.6482.0132,4.6892,8.2328,4.7285,1.0939,6.1522,4.3498,5.8377,7.5965-1.7436.7229-5.9838,3.2683-3.8174,5.4848,2.2726,3.0945,7.6844,7.4553,10.5404,9.8325.5095,3.8849-22.857-1.2843-18.6287,4.9801,6.7521,14.4529,4.8051,5.9459,16.3155,9.2212,1.9963,1.273-.2273,5.825,1.0121,6.8931,6.4719,5.5771,16.0113,5.2097,23.3537.5757,5.4342-7.37-.4031-8.33,10.9461-6.1528-.7041,5.5281,5.4226,7.0721.8984,12.4552-2.5275,3.0073-3.6578,6.873-2.1724,9.879,19.2996.5164,9.9679,7.24,18.4526,9.3576,5.0016,1.2483,8.3195-5.9703,12.5282-2.1929,4.8983,4.3964,9.3242-4.6966,31.832,3.4537,2.2715.8225-1.0376,6.0693-2.9183,6.6983-6.116,2.0455-8.7377-7.9847-17.571.5067l6.652,2.7307c-2.1937.1741-6.8215,11.6083-6.8071,11.642-.336-.7858,5.8472,8.3136,10.2607,10.2274,6.1431,2.6638-6.9565,8.4461-.9743,10.1023,3.3097-2.1841,10.1957-2.8045,11.6935.8739-.9774,5.7527-8.0695,7.2552-12.5537,9.3844-3.6132,12.9682-7.8023,5.6592-9.6222,10.637-1.4388,3.9354-4.6045,7.55-9.0584,5.1885-14.5907-5.3873-3.1406,5.6114-7.8056,6.9756-4.1579.2587-6.1191-.1317-7.5852,1.5952-5.7669,6.7928,6.3444,6.824,1.5862,13.4808-13.2823,16.362,13.1013,13.4174,24.7029,16.5176,3.7354-2.2791,7.0386-4.2665,10.992-5.5677,4.8276-9.5488,3.6563-8.8405,13.7253-12.6035,4.6976-1.9192,5.8875-8.1031,9.391-11.84,0,0,9.7122-10.359,9.7122-10.359,3.375-3.5997,8.4321-4.8428,11.2519-10.0061-15.3029-4.9349-14.8259-11.0324-23.2879-9.2382-4.6278-12.5584,19.9317-8.4319,20.212-21.0096-8.6251-12.6531,14.5319-13.5201,10.2166-35.1529-17.8749,2.665-12.38-20.2916,2.6298-14.674,8.4494-19.0471-2.5627-12.645,4.1979-22.171,1.8835-2.6539-.4266-6.3675-.5007-9.2978-.0716-2.834,6.3803-22.4889-4.126-23.335-1.9304-.1555-3.4005,4.4975-5.9073,3.9218-5.05-1.1597-8.6585.3184-12.785,2.8928-6.4662-1.638-11.708,1.7377-13.3679.4789-5.8492-4.4358,3.8082-15.2478-4.1578-17.825-4.794-1.551-2.4616,4.934-11.7765-1.6062.0354-2.4246-7.1318-4.2036-.9621-6.6333,1.0325.3001,2.2085.8219,3.0311-1.335-3.2947-.5036-7.4053-1.7544-6.4158-4.5893,10.0184-6.9543,9.4641-.5834,14.4282-.1516,15.2652,1.3278,10.737,1.4516,20.7822-6.5375-9.4566-16.3572,8.4764-27.1386,13.1311-40.79,9.4438-.1963,15.0388,5.3342,27.5011,7.8297,8.2525-22.9784-11.1226-40.8597-31.5691-49.6904-1.8774,1.1247-6.2804,8.2862-9.0771,6.0063-6.6424-4.5384,12.4675-14.045-18.8766-14.5713-20.3364,2.5806-11.6595,7.5011-19.0539,9.8035-2.2444.6988-4.6514-1.0659-6.2612-3.7644,1.3284-1.7846,3.21-1.066,5.423-3.0398-2.9881-2.7077-12.0076-1.3226-10.7633,4.1979-.6611-.9888-1.2103-1.0831-1.5958.1312-.4059-2.3668-3.3496-1.6506-5.816-2.8833-4.0347-1.8119-9.2895-4.5943-12.6767-7.7744-2.6374-1.6371-5.3596-1.0499-6.8809,1.6609-3.7419,6.6677-8.2737,1.4745-8.6631,7.0597-2.2918-.2202-3.654,1.7015-5.559,2.4462-3.9868-6.2757.0677,12.6922-10.486,7.176.8333-.4648-4.3151,8.5614-2.5743,8.4828-10.2684,1.383-11.6391-13.385-9.2125-19.728.6768-1.2054,2.5681-3.2528,1.8602-5.3765-.7112-2.1336-13.5038.7271-15.8812,2.6636-.8017.653-2.6695-.2865-3.4331-.6667-2.7382-3.118-4.7718-6.4645-8.5232-9.1877-5.9768,3.8645-8.159-2.1609-4.2587-6.2825-6.7866-.4763-6.2347-8.2384.4789-7.2678,3.4351.1133,6.2928-.0759,6.4867-4.0862,5.6996-1.1631,6.1432-13.4634,12.5848-2.5488,1.5649,4.2685,5.3611-.0824,12.6355,1.6019-1.2052-5.6111-11.0104-2.4514-12.4834-7.5492.7157-8.6588,11.4187-.8226,16.6569-3.9247,8.3673-3.0897,9.5709,2.8916,18.7446-9.1832,9.7425,13.6741,7.4612-1.553,25.1916,1.7214-6.3057-10.4317-13.0196-16.7597-23.8595-7.5331-1.3453.7487-12.4647,13.8623-21.4225,4.4574-1.9394-2.0361.5602-5.4373.8011-7.3161-11.723,2.4467-7.5389-1.6152-10.684-2.5976-.8742-.2731-1.8457.5282-3.328.8425-2.6659.2011-12.9406-8.5255-11.3464.5596-3.585-.0045,1.274-6.5183-17.895-5.8058,1.278-7.2667-9.3453-4.6118-12.9328-.7328-2.3589,2.2529-13.9294-2.4359-11.781-5.0677l2.8609-8.5459c.5413-1.0054,2.0501-2.2752,1.6483-3.9423-.1873-3.9166.4567-8.2607-.8041-12.0261-8.9825,9.0998-2.6555-3.5942-6.0134-7.9825-1.1914-1.557-3.63-3.1238-6.4904-1.1784-13.3123,9.0537-9.0971-1.297-22.5597-1.045-8.291-1.5324-1.4316-14.1383,2.2853-17.1453,14.2011-6.9789-.172-10.81,15.7705-15.3526-5.7871-2.7549-8.2213-5.4858-6.5495-11.6384,5.324-.9554,9.3465-5.518,14.2769-5.67,9.4836,3.98,8.5038-4.6782,17.8955-2.1035-1.8572,4.9321,5.2676,6.3113,4.3569-.021,10.8914,1.3873,7.5748-2.7095,10.9733-4.2501,4.6863-2.1245,6.1436,4.9379,10.2639,3.8688,4.7226-1.2254,9.0569-5.8839,11.9661-2.0724,1.5559,2.0386.5158,4.3729-1.8916,6.0607-8.5599,6.0017,16.7844,8.6703,18.4362,6.8339,5.2865,4.9967,7.0351-6.8359,1.9624-8.3824.5211-4.8027-6.4963-5.3759-7.0808-6.9157-1.5324-4.0367,17.1946-2.4243,13.3394-1.9424,3.2225-.4028,5.3952-3.8132,10.0909-2.0354,4.0409,1.5299,3.7632-5.2886,11.4937-4.5615.2311,6.3334,11.7731,19.3955,19.7651,10.1206,2.1376-1.4829,2.6356,2.9769,4.8954,3.8924,8.2033-10.1337-18.9189-7.4504-9.1267-15.2955-3.3737-3.7808-9.9577,3.282-10.0588-2.8644-.2976-4.6584,5.6837-2.4066,6.1067-5.4078-3.2684-2.3385-4.4245-5.6765-6.2348-8.8107-4.2327,2.9013-7.7168,2.5778-11.3754-.2768-7.6271-5.9509-.9812-7.6675-5.1043-10.7147-3.3694-2.4902-5.7174-5.6448-5.1087-9.2519,3.4772.6883,7.5448-1.4003,11.2121-1.6928,2.2675,2.9663,4.108,1.7435,3.4491-2.1911-8.4114,2.91-6.1796-6.3256-11.4583-4.6014-8.0991,4.3783-10.2267-2.8713-15.8131-9.5239,2.5028-3.8829,6.4107-4.8866,10.2861-6.6588l-.5181-4.7633c9.8405-3.4714,8.3089,5.7219,15.3866,4.0484,3.7187-.8792,6.4768,1.2404,9.8223,1.3058,2.8138.0551,4.5351-5.9318,2.0902-6.8023-2.9596-1.0538-4.8555-1.465-4.0675-4.7641,7.0188-1.7746,12.0518,3.0229,14.9703-1.9157,2.9404-4.9756-10.6785-9.232-7.801-18.4706,5.8569,5.0315,13.7105,16.6446,16.9931,6.0586.1442-3.8912,1.232-5.0268,3.9678-5.1838l4.8349,11.5172c2.4716-2.868,3.0914-6.503,3.3278-9.9687,1.1911.1561,2.3444.674,3.4226.189-.5547.9822-.1229,1.8495.3285,2.5137,11.8976,9.3979,5.3225-4.2574,18.325-1.3921,2.2902-2.1233,1.5243-5.1915,3.5936-8.0678,3.5974,2.4517,5.8694,5.832,10.1643,4.2482-.7361-3.3631-2.7672-6.9891-2.3381-9.8899.9921-.1851,2.1875.0122,3.3358-.3568.2136-4.3397-3.9411-13.9357,2.1758-8.7407,5.2445,6.4258,6.1346-4.6996,13.5342,1.2511,2.0661-3.9137-1.4903-15.7586,6.3819-14.3635ZM356.0075,593c.019-1.2974-2.0192-1.2974-2,0-.019,1.2973,2.0192,1.2973,2,0ZM170.0081,613c.019-1.2974-2.0192-1.2974-2,0-.019,1.2973,2.0192,1.2973,2,0ZM337.3226,631.3735c-5.1104-.9138-12.5396.4685-10.431,5.5836,3.2224,4.1476,10.0913-2.835,10.431-5.5836ZM355.7795,642.1628c4.4562-11.6971-19.6405-.6319-12.0453,6.2989,1.3094.8702,10.7411.7806,12.0453-6.2989ZM338.1175,643.7345c-9.1392-2.0474-5.2117,2.4927.5421,4.1835,2.0804-.2121,2.2465-3.6485-.5421-4.1835ZM78.0853,662c-.6984-2.2839-1.4554-2.2839-2.1538,0,.6984,2.2839,1.4554,2.2839,2.1538,0ZM98.0083,663c.019-1.2974-2.0192-1.2974-2,0-.019,1.2973,2.0192,1.2973,2,0ZM360.3202,674.1384c-.2142-3.0031-4.4111-3.0031-4.6253,0-.0958,5.4016,4.721,5.4016,4.6253,0ZM137.8468,679.9803c-.7115,7.0115,7.1681,5.5952,12.2651,1.6882-7.3007-5.3907-10.618,1.4135-18.8906-5.8332-4.6041-.4087-4.5309,4.7238-.0008,4.3396,3.2284-.2612,5.1071.1983,6.6264-.1946ZM79.9191,685.6903c-3.9519,3.0421-10.4171,1.6667-15.8905,2.5827-2.8578,2.6729,22.5755,3.2082,22.0794,1.7428,5.3101,1.4296,2.8977,9.7608,9.9266,7.8445,8.6154-2.3489,22.4103,2.3497,29.6933-4.196,1.269-1.1405-1.9762-3.51-3.5463-3.6431l-15.3817-1.3035c-1.1389-.0965-1.254,3.1209-1.9705,3.4319-1.1263.4888-4.4908.3289-4.2617-1.4225.3581-2.7374,3.0666-2.4153,5.3824-3.0397,3.6749-1.1281-16.1491-5.0926-14.2977-4.4515-6.0156-2.083-8.337-.16-11.7335,2.4545ZM85.1079,707.6776c-4.3802.0072-6.0477,4.6835-1.6528,4.8357,2.139-1.4829,11.4329-4.4576,1.6528-4.8357ZM106.2103,716.8315c2.7407-.9431,3.6186-3.5465,4.0726-5.2347-4.5172-.4774-8.0714-.4695-12.2278.6895-.0466,2.0447,1.9255,2.0383,3.614,1.6582,1.2243,1.5841,2.4915,3.5923,4.5412,2.887ZM212.1445,779.9055c8.7358,4.9188,6.1568-8.5735,9.4122-12.4095,2.3436-1.1492,4.9325-.2843,5.5655,2.3024.4102.8173,2.2569,1.6919,3.3539.6207,5.7059-7.7016,5.9751-3.3985,15.3785,2.3205,2.7674,1.4329,5.1352-3.1255,8.1251-2.7777,9.1117,3.0366,15.174,8.7124,24.7052,2.0091,24.3338-5.7557,5.6111-8.5086-4.9507-17.9511-5.7861-5.6458-9.1372-13.8969-16.2965-19.9298-1.7523-1.4766-1.6129,2.144-1.9908,4.0465-.6092,3.0673-4.6327,2.3666-6.4955,2.1741-6.5474-.6766.1453-12.8293-10.6802-12.936-2.1592-.0213-1.9224-2.9297-3.1746-5.4477-2.7713,4.6489-8.3511,5.1826-13.0468,8.3195-2.337,1.5612-2.6992,7.4547-6.8342,7.5235-3.3388-1.1057-13.3826-.2242-10.6991-6.7222-11.663-.5926-20.9976-.9855-24.7103,12.8851,4.9213.9437,6.7207-2.1012,10.55-4.5509,7.6166.3908-6.7898,13.7625,2.1719,15.3549,4.9325.8765,6.9437,2.1349,8.4614,6.9869-.5038-1.6106,8.3039,19.916,7.0359,17.5062.8759,1.6646,3.0761.3117,4.119.6756ZM438.0073,723c.019-1.2974-2.0192-1.2974-2,0-.019,1.2973,2.0192,1.2973,2,0ZM280.2424,726c.0424-2.8993-4.5121-2.8994-4.4693.0002-.0424,2.8991,4.5121,2.8992,4.4693-.0002ZM274.0078,727c.019-1.2974-2.0192-1.2974-2,0-.019,1.2973,2.0192,1.2973,2,0ZM276.1023,732.0682c-.302-3.6161-6.9395-2.0621-10.0676.2373,6.0379,11.4796,14.4596,22.5871,27.7955,25.6619,6.7831,1.2218,14.4083-24.3477,8.4532-28.0703.4547,11.3909-6.5885,7.2963-12.9029,3.0473-8.2819,4.3813-5.1034,6.4321-13.2782-.8762ZM359.8606,745.5801c10.6067,2.1129,2.1459-18.937-13.7236-5.1283-5.6735-5.0865.2769-7.7042-8.4813-3.2816-3.5941-.7459-10.3942-.892-13.6222-1.9472-1.7686-.7932-.8651-4.3005-4.3104-5.1166,4.4138,8.3635,4.8761,26.9979,6.0702,27.6988-.0129-.0076,9.9316-1.2679,10.727-1.7325,6.7266-3.9292,7.3331,3.6525,10.4754,1.9477,1.0588-.5745,1.5023-1.7758,1.0264-3.0205-.9238-2.416-7.02.2481-7.8406-2.1329-1.8954-5.4995,17.6312-4.8548,19.6792-7.287ZM312.0943,759.3891c.2882-5.9574,1.1246-9.4165,3.5834-13.701,1.1608-2.0227-2.8423-5.1228-3.9266-3.983-2.7774,2.9193-9.5354,18.6329-8.5685,20.118,1.6704,2.5657,8.7053,1.8312,8.9117-2.4339ZM373.0264,753.3418c2.6546-.8045,4.3617-1.0578,4.8435-3.9755-6.4227-.3878-12.6187-.3322-19.0648,3.0092,4.0324,1.0925,8.1843,1.1279,14.2213.9662ZM346.0044,769.7057c8.4954,1.5168,17.257-2.441,18.6486-11.5209-11.0896-.2406-39.4604,5.4323-27.6295,17.3312,2.1847-.3699,4.4602-6.6174,8.9808-5.8103ZM187.9827,776.5894c4.6653-.0391,7.8389.6214,12.7331,3.5549,1.1474-4.9383-.0754-10.1128-4.3982-13.0677-2.1429,2.306-14.937,6.343-8.3349,9.5128ZM353.9496,777.8693c-4.7417-6.1035-12.2732.4534-4.9516,2.6307,1.6873.0196,3.9908.2364,4.9516-2.6307ZM298.7025,834.7155c2.3035-2.3063,7.9271-31.4807,1.0591-29.0544-7.4788,9.3345-10.1582-.7365-17.9057,2.5271-5.5452,1.7821-7.2599,1.3982-7.9471,8.3383,7.1221,3.2126,17.8884,11.6255,24.7938,18.189ZM320.0811,882.105c7.8631,12.4023,6.5759.3504,14.9617,2.1974,4.3192,1.1767.0123,9.0359,3.1432,9.3932-.2828,1.4094.2352,2.7221,1.7008,2.6614,5.5675,6.1778,5.5444-5.525,10.6939,11.633-.632-.0894,17.0992-12.6605,15.308-11.7367,1.2743-.6572,18.099-.1985,13.3569-4.3293-2.4158-4.0618-7.5793-3.9806-10.939-2.0815.2136-2.1496.1314-4.7647-2.2625-5.4856-.2175-.9815.0943-2.9751-1.5433-2.5249.65-1.0732.3421-2.3527-.1207-3.4436,1.258.4606,3.4476-.1111,3.6253-1.9234-2.2979-.7181-3.917-.7967-3.998-2.4651,10.5039.9457-2.2362-5.2896,20.6533,6.804,11.767-4.8694.8268-14.2125,3.2934-22.4761,3.4825-1.471,7.3459-1.7227,9.8833-4.4992,2.5502,1.6008,3.5384,3.2084,6.1258,4.4062,10.136-7.194,5.9681,4.1867,20.3549-10.3311-9.1449-9.3023-24.1226-49.0982-38.6269-25.9497-1.9845-.4096-2.5134-2.0865-3.9911-2.5956-1.001,1.9854-1.3492,3.7813-3.0545,4.6919-2.2464-5.455-9.5915-.3447-10.5625-8.1278.2816-11.614-16.1235,2.8155-16.1398,1.3295-3.2837,7.0679-3.4798,8.1931-10.8082,4.1298-9.5138-1.1325-16.4056-6.0315-18.5901-15.8119-7.771,3.4888-5.1165,39.6247-6.9573,46.2206-.8009,11.9645-2.9024,23.248-1.0772,34.2553,2.9191-2.8875,1.3618-4.1474,5.5702-3.9408ZM265.7907,811.7977c-2.8694-8.1212-5.6568.4416-2.8042,2.2298,1.0604.5469,3.5481.1009,2.8042-2.2298ZM2734.1135,822.6449c3.2747-7.864-23.1204-13.256-6.658,2.2376,1.9123-.6974,4.1386-.7925,6.658-2.2376ZM2748.6755,846.7735c-1.5755-4.0059.6973-5.561,2.3272-7.6448,4.6864-5.9918-6.2212-14.0041-8.846-12.6667-6.2572,3.1883,9.647,8.9389,1.6333,19.9946.5454,4.6614,4.5344,4.8158,4.8855.3169ZM437.2835,834.0715c.9604-2.4292.5836-3.6701-.5524-4.1431-.9604,2.4292-.5836,3.6701.5524,4.1431ZM438.3156,840.1385c-.2023-3.0033-4.4099-3.0032-4.6206,0-.0988,5.4016,4.7271,5.4016,4.6206,0ZM281.7505,888.9186c5.8401.5131,2.825-4.6352,11.9559-.7664,2.0454-5.8738-6.1194-5.2773-9.6455-8.4258-6.0457-7.259-12.3593-6.3216-17.354,5.2945-.8629,3.319,6.9063,10.3017,8.6912,8.342,1.8082-1.9852,2.8852-3.8543,6.3524-4.4442ZM490.2418,884c.0424-2.8993-4.5121-2.8994-4.4693.0002-.0424,2.8991,4.5121,2.8992,4.4693-.0002ZM486.2418,890c.0424-2.8993-4.5121-2.8994-4.4693.0002-.0424,2.8991,4.5121,2.8992,4.4693-.0002ZM2682.6291,887.8363c-5.1653-.298-5.7741,2.1228-1.1058,2.4337,2.3171-.2286,3.2159-1.3164,1.1058-2.4337ZM2736.5992,903.8678c3.0843-2.3827-4.568-14.1928-10.4065-13.1563-3.4515.6127-5.1422,4.6685-8.2341,7.5849,3.5703,4.4845,15.9604,7.6419,18.6406,5.5714ZM264.315,894.1385c-.1993-3.0033-4.4096-3.0032-4.6195,0-.0995,5.4016,4.7286,5.4015,4.6195,0ZM319.8787,893.8537c-.919-3.4798-6.2262-2.469-6.0771.1895.1805,3.2178,6.9119,2.9718,6.0771-.1895ZM330.6018,909.191c6.1578-1.6997,7.2989-7.9969,4.332-11.3056-1.0168,4.1151-3.7114,3.7996-6.5231,5.1421-1.6475.7867-.0716,6.788,2.191,6.1635ZM373.9975,903.2299c-7.557-6.2139-1.1873,9.5148,4.0195,6.5777.1558-2.7788-2.0658-3.5701-4.0195-6.5777ZM18.0085,909c.019-1.2974-2.0192-1.2974-2,0-.019,1.2973,2.0192,1.2973,2,0ZM2790.0277,909.3583c-2.3563-1.7796-3.9962.3311-6.0134.8526-4.618.8313-7.233,10.8414-1.4932,10.6284,2.8275-3.5996,3.6833-6.929,7.5066-11.481ZM383.43,915.711c-2.7609-2.4034-4.4601.1827-1.8613,1.8546,3.6254.5757,4.8933,3.2611,8.5335,2.3212-.7443-3.2038-3.3626-3.6131-6.6722-4.1758ZM412.4757,918.518c3.0848-1.7937,1.611-5.602-1.477-4.5266-1.9174.1552-1.4552,9.0067,1.477,4.5266ZM423.7356,922.379c-2.511-2.7487-.1453-4.0474-.2727-6.0771-.1279-2.0387-3.2378-1.9596-4.0287-1.2965-1.5616,1.3093-3.0622,6.9596-3.2496,6.0085-.345-1.7499,4.6535,4.7708,5.7397,3.867.8117-.6754,2.7817-1.4397,1.8114-2.5019ZM2718.217,938.7989c-9.8656-6.616,3.2291-12.473-17.6228-7.4696,1.174,6.787,6.0989,12.4615,13.2166,15.5393,3.2167-2.0603,5.0409-2.096,8.2285-.8804-.9057-2.8728-2.2755-4.3357-3.8223-7.1893ZM524.0726,947.4529c2.3159-.1595-.0089-4.0529-1.216-4.3636-2.0801-1.377-11.0145,3.6003-5.5497,4.8303,0-.0009,6.7657-.4667,6.7657-.4667ZM452.6672,1011.0756l.0173-31.3025c-16.3499-3.1987-10.0335,6.2266-33.3402-.7674,2.3654-3.4426,6.3477-.652,7.0296-2.6011,1.2743-10.3886,11.9995-5.2112,20.1817-2.7703,1.6862-12.2612-18.1266-1.2932-32.5579-13.404-9.6286,4.3522-12.2319-5.7778-16.5279-.3916-.5439.6819-.714,2.0288.7856,3.1021,14.3526.342,4.0555,7.0856,15.7923,4.9018,11.744-.0067,1.8592,10.107,5.3823,13.7957.6574.4963,1.8041.1796,2.7155,1.873-10.4901,3.3052-2.2064,6.2821-12.327,7.6592,26.6379,9.015,9.4967,14.6415,38.4795,25.189,2.931,1.0667,4.3674-1.7018,4.3694-5.2837ZM2801.8262,970.8629c-.1483-2.6502,2.2097-2.5421,4.1368-2.2251,2.9007.4772,2.8868-2.2719,1.7929-3.606-1.0399-1.2683-12.2199,1.6644-11.9358,5.3791,1.6847,4.7645,7.4928,9.9899,6.006.4521ZM370.1282,1010.0577c-12.2849,3.6964-9.3035-.3518-12.8894-.6992-5.0088-.4853-9.053,4.7248-9.2103,9.0666-22.0673-3.3557-14.5666-16.8538-37.9252-8.1801-2.0544.002-3.6954-3.0093-6.3201-2.7685-5.3786.4935-13.2543,6.0062-11.6762,12.1154,4.2218,16.3432,10.235,10.2671,10.5707,22.3689l8.6505,8.8269c-1.3949,1.9699-2.8513,2.7336-3.5854,5.8773,14.6227,7.2292,28.1555-3.0557,29.5384,5.2174.6296,3.7663-2.2603,8.0616,1.106,11.941-2.6316,5.1553-8.5996,12.8664,2.2717,8.5182,13.8161,3.504,13.4183-2.4187,12.4299,13.053.5519-15.1474-4.4833,23.1431-2.7794,15.4771-.6168,2.775,3.2128,3.6182,4.9451,4.187,4.3584,1.4312,5.7422-5.3415,9.7491-5.6302,2.259-.1628,3.935,1.5385,3.1187,4.6784-2.1436,8.246,6.4722,4.6717-8.6942,20.2564,3.6046,6.2767,11.1675,19.814,14.5388,26.0717,7.0388,11.7281,19.7801-.2877,14.3985-10.6207-.4353-1.8974,2.0458-2.661,3.0619-1.3267,11.6166,20.5926,12.0615-.5771,24.8571,7.5322.8956-4.2491,2.3888-7.2205,4.6717-10.7612,3.6099-5.5989-3.9662-6.5354,10.839-12.7489-1.1072-2.856-.0991-5.7596.9117-8.722.8968-2.6285-1.538-5.4572.4131-7.2701,3.8312-5.3222,7.9533-2.1576,12.6615-.6701.2241,2.1814-1.2324,5.3038,2.7013,7.0332,4.3112-12.6882,2.5846-24.7982,4.4834-38.9824,1.0026-8.9854-14.23-8.7303-21.3014-22.4123,11.1515-5.407,7.1252-5.5078,18.7511-1.3606,12.518-42.6453-10.3203-30.686-32.8861-58.5975-2.3947,1.1442-.9322,3.3301-1.8395,6.3699-5.1103.4274,3.1783-9.8165-6.8593-12.2841-2.8515-.701-4.0094-2.6216-5.7559-5.6416-5.3921,12.7971-9.2461-2.9962-14.2298,1-12.5528,7.3696.5487,15.7882-1.8724,20.9754-1.4258,1.2608-14.1869-6.0521-16.8447-1.8901ZM481.8513,1003.9278c.9388-3.5347-2.7531-4.2745-4.9575-4.9161-6.3106,1.9728-2.5292,5.0542-9.9423-.4112-2.0874,6.8672-2.7912,13.146-1.6361,19.8907,8.5267-1.4856,14.4779-6.8152,16.5359-14.5634ZM472.5427,1036.4474c.3248.6802,13.5346.1875,18.6526-5.3546,4.6698-2.6985,31.0271-41.7528,14.2285-29.7352-18.589-3.9036-20.7597,16.4311-36.8079,21.6865-8.5869,6.1878,2.3598,6.4077,3.9268,13.4032ZM2529.3698,1067.956c2.2529-3.1545-.4254-3.7149-1.3575-4.9611-1.0853-1.451-2.8452-1.8815-4.1327.1967,3.4215.5441,3.5985,1.8088,5.4903,4.7644ZM323.3495,1064.5106c-1.4721-2.0636-7.9282-1.2221-8.2591.88-1.1937,7.3262,11.9372,5.6646,8.2591-.88ZM2532.0011,1087c.019-1.2974-2.0192-1.2974-2,0-.019,1.2973,2.0192,1.2973,2,0ZM343.8787,1089.853c-.9181-3.479-6.2267-2.4672-6.0773.1894.1811,3.2194,6.9118,2.973,6.0773-.1894ZM2455.3875,1105.6801c1.5717-4.0919-.7378-9.7935-5.5241-10.8469-2.6286.4658-6.1008,6.6415-9.467,4.736-2.8307-1.6024-5.7029-7.2561-9.1623-4.9643-12.5844,14.8458-14.2921-5.1828-26.143.5943,4.048-2.0932-26.146,4.7228-26.7125,6.4346,3.1496,5.6962.4968,5.8847-2.6341,9.5234,20.777,8.6834,20.2852-5.189,31.2137,4.3368,1.4668,1.5517,3.3007-.8967,4.6589-1.4354,39.6369-15.72,2.7483-2.148,43.7705-8.3785ZM2389.3168,1167.3295c-3.2661-3.843-16.3131-3.6679-16.8974-1.8922l-1.4406,4.3786c-3.7372.8338-6.2529-3.5089-9.8682-4.4759l-16.3716-4.3786c-5.1802-1.9796-17.131-8.4151-16.5459-13.6667,2.5624-3.9682,21.1567-7.3136,27.292-3.9021,1.4504-1.7051.911-4.3252.1365-6.1503-7.1496-4.4141-7.4643,1.2532-17.4043-1.3334-5.1622,1.2943-6.1237-2.793-8.9477-4.3783l-10.4423-5.862c.6258,14.9071-2.3889,92.7863,1.5088,105.7883l19.7173-5.5128,34.0839,4.4027c3.6999.4779,7.1196-4.0691,11.4108-1.9662,5.6738,2.7804-1.3001,7.1371,20.5349,6.0313,4.5659-4.0427,9.9944-4.8379,14.888-7.4752,3.8174-2.0573,5.4575-8.2942,8.1899-11.3453,4.7289-5.2804-4.9811-14.2153-11.3578-15.143,1.1909-2.6487,3.2167-3.3917,2.3519-6.4337-4.8328.5471-7.9582,2.8211-12.0088,3.7921-2.9196.098-1.0936-4.7507-2.1312-6.0538-.9347-1.1739-16.144-13.2255-7.6661-17.6211,2.0121-1.0432,1.9735-3.068.8892-4.4608-2.1733-2.7916-4.4083,4.1453-9.9214-2.3415ZM445.4482,1170.1212c.5934-11.5217,4.7465-22.8183,3.1691-34.7688-11.337,9.0148-20.072,7.5405-22.1637,22.4038,4.5392.8331,8.2136.0191,12.1354-1.4158,6.7534-2.471.5911,7.6649,6.8592,13.7808ZM2499.9539,1206.1575c.024-2.6363-3.5665-2.6886-5.1391-4.8601-3.9906-5.5106,8.5269-8.9098,3.7678-14.0214-3.7711-4.0504-9.8773-4.255-14.106-1.6267,1.3699,10.6179,8.5864,10.8902,4.1461,14.8786-4.5147,4.0552-1.5472,5.0268-.7305,9.3342-3.7541,2.415-8.5644,3.3924-9.7876,8.0324-.7977,3.1796,1.0239,6.5231,5.2621,5.3627,3.9848-1.3745,14.8516-2.3621,16.697-6.9583,12.7817-5.1322,29.5638-11.3347,44.2595-11.7491,11.1939-1.1744,40.6084-19.5777,37.4459-25.5579-.5097-.9639-2.0294-1.0085-3.1109-1.7697-10.2656-7.2252-9.4649,3.7069-19.8695,4.0039-1.9126.0546-4.4281-2.5921-4.4174-5.3538,3.5309-6.3264-2.3094-11.264-7.3438-11.8739-5.281.469-4.5773,7.6462-13.5581,9.4527-13.9912,2.2562-20.3392,15.9384-22.6603,28.4934,3.8434,9.4126-5.2483,4.4313-10.8553,4.213ZM481.1387,1228.4158c1.1826,2.9438,3.1137,5.4382,6.5431,4.5566,4.4506-13.7336.2078-23.3974-14.5791-26.1874-1.7566,4.7786.7584,8.9085-2.5661,13.5501-3.4481-4.5483-3.4171-8.8532-5.5112-12.4415-.8935,2.2554-1.2354,20.9254.8372,19.617,12.4275.3874,2.7167,4.3169,15.2761.9053ZM522.2417,1246c.0424-2.8993-4.5121-2.8994-4.4693.0002-.0424,2.8991,4.5121,2.8992,4.4693-.0002Z" style="fill:#122521;"/><path d="M2912,662c-3.2077,1.5616-1.7104-8.8314-2-8h2v8Z" style="fill:#688d6f;"/><path d="M2894.1995,692.0367c-1.6394-.3386-2.0675-1.4877-.2834-1.958l.2834,1.958Z" style="fill:#517863;"/></svg>