<?xml version="1.0" encoding="UTF-8"?><svg id="Layer_1" xmlns="http://www.w3.org/2000/svg" viewBox="0 0 2912 1632"><path d="M2778.0801,752.5c-.4004-.03-1.1802-.14-2.4199-.15l-6.8301-14.63c-1.5098,3.95-5.96,8.28-7.21,5.23l-4.54-10.98c-2.25,1.52-.3398,10.26-6.1299,9.78-1.5503-.12-2.3101-.99-3.8799-3.74-4.8403,5.78-2.0303,17.1899-7.7603,15.0601-2.2002-.8201-2.6802.74-4.5903,2.9199-.4097-4.74-.3296-9.37-3.4395-13.29-2.9902,4.21-2.8203,8.1201-3.9502,13.46l-13.6299-17.7799c-8.3604,16.09-3.2705,4.62-14.8403,17.5599l-6.9697-12.75c-2.6201,6.0179-3.2188,11.516-4.3384,16.9592l-1.0581.0894-4.7534-13.7586c-3.6963,3.3549-4.7266,11.7841-6.2749,14.6904l-1.2925.1092c-.4419-4.3848-.3027-7.6735-3.0029-11.4896-2.5801.3999-2.6099,3.1299-5.1499,4.1399l-4.6299-14.46c-9.7202,12.8201-6.8501,4.6001-13.0103,23.75-.0508.1183-.1074.1956-.1665.2531l-.3774.0319c-1.3105-.7899-3.6812-9.4105-5.2656-10.315-2.8301-1.6199-3.54,7.3401-7.2202,4.6101-2.0298-5.03-1.8198-9.8-4.5503-14.03-1.4795,4.4099-.7295,8.1-5.0996,10.85.1099,1.91.3701,3.88-1.21,2.9701-6.21-18.55-7.1304-3.9302-12.3003-14.3-2.8301,3.3999-2.7397,6.4299-5.0898,10.79-3.79-4.1201-2.8101-9.8201-6.23-16.3901-3.1201,8.78-3.6001,17.4001-9.4404,25.1301l-4.0396-14.67c-3.8701-.66-3.3804,3.84-5.3101,5.41-4.1699,3.4199-5.4199,6.8599-7.0098,12.73-1.9204-5.15-1.3403-9.99-4.6704-14.6301-3.1196,2.5-6.0298,1.77-8.98,3.1702-2.8599-3.99-2.4902-8.9202-4.2798-15.1001l-4.8403,16.22c-.4097,1.3701-2.0298,3.28-3.2197,3.46-2.1104.3201-3.1001-8.0299-6.5703-8.7-1.8398,3.3101-2.1499,6.16-4.9199,8.98-2.3496-2.74-3.4102-5.71-4.3096-10.03-.4502-2.0798-2.1904-1.8599-3.0205.2201-1.2295,6.23-1.29,11.87-4.4697,15.72l-7-15.83c-2.3901,7.83-2.9102,14.02-5.6602,20.27-1.3701-4.99-4.1099-5.0701-6.6899-4.8601,1.2202-.8799-8.9399-22.2-10.3901-19.24-7.25,11.3101-.8398,2.7101-10.7295,12.3401-3.1802-4.14-2.6104-8.3101-5.04-12.9399l-4.75,4.72c-1.4702-2.76-1.8105-4.98-3.3901-6.67-3.1899,2.4401-2.6704,6.08-4.8101,10.83-2.71-1.6299-.4302-4.49-3.0303-7.1499-3.1099,3.0699-3.2197,6.02-4.4097,9.49-3.3198,9.72-4.8301-11.1201-9.6899-9.1901-2.9902,4.1-2.5103,9-6.2305,12.9701-3.3994-4.5801-3.0596-8.9801-4.6196-14.54-2.71,2.24-1.3101,5.26-2.8701,7.95-2.5898-3.0901-3.9399-7.28-6.9497-8.12l-6.9502.7899c-3.4902,2.8101-1.54,7.1901-3.0303,11.8201-2.8599-1.39-.7998-4.3201-3.6396-6.88-2.71,3.1801-3.9102,5.7201-5.6104,8.9l-2.1025,2.4681c.0186-3.9214-.2207-7.3785-1.9971-11.2281-.0103-4.3201-2.9004-3.97-2.1602.53,0,4.37-3.21,5.29-4.1001.84-5.6401-10.9-6.71,8.25-13.8696,15.85l-7.1802-20.83c-1.6304,4.58-1.9302,9.13-4.6099,14.14-2.04-2.97-1.6704-5.6101-4.3301-8.47-2.2402,2.74-.8301,5.33-2.8003,8.6699-3.0098-4.48-4.5796-8.9099-6.96-14.25-4.6899,5.05-1.0298,11.53-6.3101,12.01-1.73.16-3.2197-5.52-5.5996-4.36-6.3203,3.0699-7.4004,9.4401-10.0303,14.0499-3.5,6.1401-6.75-12.74-10.9697-13.2-3.6904,8.47-5.04,4.8-8.2803,13.63-4.1401-9.11-3.71-16.49-6.8799-24.17-5.5801,5.99-3.4404,12.16-9.21,22.1301l-3.4199-12.9102c-3.7305-3.7-1.9102,5.53-11.3804,9.03-2.1899-1.6099-2.8296-14.96-6.48-9.8699-1.02,3.6199-1.54,7.7999-5.3999,10.0699l-4.8999-18.63c-2.46,1.4199-.8701,4.97-2.79,6.74-3.2002,1.62-4.4902,3.5601-5.23,7.74l-5.3804-8.8201c-2.8496,3.7301-3.0498,7.24-6.3696,10.3501-3.6899-4.6101-2.3101-7.8501-6.8403-13-1.9697.9099-2.1597,3.2-5.1099,5.38-.0796-4.26-2.5-6.7201-6.8799-6.85-.9097-3.92.3003-7.0801-1.3799-11.53-2.9902,1.28-2.46,12.1899-5.4302,8.53-1.1602-1.4401-2.1201-2.0801-2.8896-2.3401-5.21-1.75-4.46,9.53-9.04,12.4301l-5.1201-9.12c-5.1299,1.6699-4.5103,12.52-7.6201,10.28-.4102-2.74-.02-4.6901-2.0498-7.6901-1.5205,1.2001-2.1504,4.3199-4.21,3.99l-4.0801-9.9301-3.71,11.4001c-1.71-.8701-2.5-3.01-5.6201-3.8701-1.9102,3.9501-1.7598,7.73-2.1299,12.6301,1.0195,2.1199-1.21,2.4299-1.5303.26-2.8999-7.78-.5801-16.7001-3.77-20.9801l-4.3398,6.9401c-2.6401-2.4301-.0903-5-2.8403-8.3701-3.1597,3.6801-1.79,15.3501-4.9395,20.26-2.2002-3.3899-1.2803-6.23-2.7305-10.3899-2.79,3.6499-3.3896,7.8799-5.0996,12.4299-4.2305,1.74-2.54-5.3-4.7603-7.58-1.7202-1.76-4.3999-.4901-6.3999-.9401-.9697-4.3699-.5801-8.3099-2.3999-12.33-3.8701-4.33-2.25,11.33-3.5,8.65l-2.5503-4.5801c-2.54-4.5499-7.6201,15.6101-8.1699,17.52-2.1499,7.5-4.7002-6.3799-6.1797-7.11-2.1104.58-2.0605,2.53-3.25,3.51-1.9702,1.62-2.5205-1.4601-3.0801-3.6901-3.9102-6.0898-5.8501,7.79-7.29,9.5801-6.9404-6.63-.4302-7.3401-8.2402-17.72-1.8701-2.47-1.6797-5.65-5.1699-7.1801-1.2803,1.38-1.8198,3.14-3.8896,4.9601-.7002-1.6201-.7305-4.3201-3.4404-5.54-2.6602,3.37-2.2002,18.36-7.4199,18.51.04,1.3099-1.3799,2.1599-2.0098,4-.7803,2.23-2.3003,2.08-2.8301-.22-.6602-2.5601-2.3901-4.1301-1.73-6-1.8901-.8601-3.6802-1.8701-5.29-.2101,1.04,2.9501-.9102,5.76-2.1304,9.1801-7.4697-7.77-4.46,8.0699-15.8096,10.6799-1.0103-2.12.2397-3.8-1.6699-5.8101l-2.6201,7.9501c-3.9702-5.0399-4.1401-10.21-6.3101-15.6801-2.1401,4.04-1.3701,8.6301-3.8003,12.4701-1.9795,3.13-5.3599-1.05-7.7695-1.36-2.96-.39-5.8604,1.48-8.4199.6299.4897.9301.4697,2-.0503,3.0601-.4399.9-1.4497,1.51-2.98,1.03-1.4199-.4399-1.04-2.41-1.23-3.9399-.3701-.54-.46-1.67-1.0698-1.74-.8403-.1101-1.9102.8298-2.3003,2.1099-3.3198,10.9601-10.8501,6.48-8.6001,15.6301-2.2397-.4401-1.7197-2.4701-3.1099-3.5801-2.3901,1.05-3.8398,2.4199-7.6499,2.99-.4199-4.84-.6899-10.12-4.9399-13.9399-2.7104,3.53-2.48,7.78-5.6201,10.8699-3.2202-.95-3.0503-4.0499-5.6201-6.5698-1.6699,5.6299-3.4497,11.2899-6.7397,16.9099-1.75,2.98-5.9902.5-7.9199-.74l-4.3804.05c-1.52,2.0999-1.7896,5.26-4.4897,7.6799l-3.2002-6.21c-1.5898,1.59-5.1201,4.34-7.2002,1.9199-1.7598-2.0499-1.5596-5.6599-3.5498-6.33-1.75,1.52-2.9902,3.11-3.27,4.88-.1597.98.5,2.23-.9302,4.11-1.9199-.92-.9897-2.7001-1.5195-4.12-.46-1.04-1.04-1.8999-.9502-2.55.23-1.6499-3.0498-2.22-3.6699-.97-2.1699,4.39-2.3501,9.25-5.3501,13.48-1.2202,1.71-4.7798,1.42-5.3901,4.1801-.3701,1.7001.21,4.14-2.3096,3.74-.5703-4.88-1.0205-9.01-4.0801-11.34-.6201.62-1.2402.6599-1.8701.04-1.0801,5.7899-1.2998,11.7899-3.6899,17.8398-2.6704-.6299-4.0601-3.0299-6.5-2.6399-3.3301.53-3.5303,4.23-5.9399,6.34-8.7603-10.33-4.1299.65-8.8799-16.2999-2.9502,3.3899-2.9902,19.8999-7.8403,21.45-2.6699-2.99-3.79-5.45-6.1997-9.4l-6.5103,15.88c-2.5.4299-4.0103-2.6599-5.23-5.95-2.3799,1.49-2.1602,4.09-3.29,5.99-.25,2.1299,1,4.76-1.1899,6.3899-1.3003-2.72-1.54-4.5199-.96-6.0699-6.79,3.4701-8.6499,7.88-11.3999,5.86l-2.7002.04c-1.5498,3.1799-3.1899,6.46-6.21,8.46.1899,1.3301.4199,3-.29,4.05-1.2197,1.8-3.5898,1.64-5.4399,1.5-1.1304,2.6-2.3003,5.9299-5.5503,5.86-1.2695.12-2.8799-.09-4.0298.5499l-3.0103,4.9401c-1.2998.5-2.1396-1.35-3.8496-3.5-2.2998,2.78-3.1802,6.4701-3.2002,10.0499-1.8896,1.75-3.9902,5.2301-7.5801,3.4601-3.5-1.72-4.1499-4.6801-5.7197-7.5299-.8799,3.4199-.7803,5.5399-3,7.9399-.5103,1.3-1.1299,1.72-2.4502.74l-5.6299-12.4299c.2402-2.9001-3.1899-2.1401.2803.7899-3.0503,3.2799-3.9502,7.87-5.9604,11.52-2.1196,3.85-8.3599,1.12-11.1196,1.99-2.4004,3.5599-1.3901,8.47-4.8403,11.85l-2.98-5.4299c-3.6396-1.5-1.3799,17.6399-11.3999,15.71-1.27-.25-1.8701-2.52-2.8003-2.13-.8696.37-1.2197,1.47-2.4795,2.49-1.7402,1.41-2.7305-1.91-3.9102-2.8099.1899,3.27-.8799,7.8999-4.77,7.76-4.7202-.1702-3.3501-6.1401-4.4502-9.8301-7.0898,22.13-4.21,4.0601-13.1001,16.45l-4.3599-6.78c-1.8101,3.4601-2.3501,6.4301-5.2798,8.3301l-2.5103-3.15c-1.0498-1.2999-4.2896-1.7-5.5298.05-2.0303,2.85-2.5601,6-4.3701,9.11-3.2998,5.6699-13.23-3.8-16.0601,8.2-.5601,2.3701-1.5796,4.46-3.3799,4.14-.2603-5.23-3.3901-5.4401-3.3901-.7899-3.9199,9.1799-3.4102-9.6401-7.2798-1.7101-2.0801,3.0699-2.0801,7.2201-5.02,9.4701-2.0601.96-6.21.3099-8.1104-.25-2.6895-3.9401-4.6494-15.3-7.9199-23.3301l-6.0498,21.8201c-.4199,1.5-2.7998,1.4099-3.6602.3699-1.1201-1.3398-2.23-7.1299-4.3301-7.6199-7.2397-1.67-1.3599,8.3099-8.6997,7.5699-3.4302-.35-5.0903-.92-6.2603-4-6.2598,6.4-2.2598,14-7.4097,15.7999-1.7603.6101-2.1704-1.3699-3.5801-3.52-1.1201.9701-.9302,2.9102-3.1602,4.1301-1.5601-1.28-2.1597-3.1801-3.21-5.52-5.8999,3.46-.6597,9.88-12.6699,10.9099-3.77.3301-6.3901,3.25-9.96,3.77-4.5503.67-6.79-1.1299-8.8101-4.35-3.27,1.6901-14,5.2401-17.2803,6.7101.5103.33,1.0903.46,1.8105.3199-3.2402.61-3.3403.38-1.8105-.3199-1.1396-.7001-1.9297-2.3401-3.1997-4.04-2.8003.63-2.29,3.75-4.6201,5.83-3.1597-2.39-3.5298-5.14-6.2397-8.15-2.8799,2.8201-2.4199,5.6301-4.27,8.54-12.3501-.5701-12.4502,8.3301-19.02,1.22-1.9199-1.96-7.7002,4.47-9.8101,4.67-1.7603.17-2.4702-1.76-3.75-3.67-1.1099,2.14-2.5601,3.91-4.2002,4.7-3.8501,1.8701-5.5601-1.1199-8.3398-1.8599-1.71-.2001-4.6401,4.46-7.1299,1.53-.8901-1.05-1.73-1.9001-2.6304-2.25-1.7598-.6801-2.1699,1.5599-3.5996,2.9299-2.4199,2.3301-5.29-.0901-7.8101-1.0601-2.6899-1.04-3.8403,2.29-5.73,3.3501-3.4004,1.8999-6.4404-1.22-9.6001-1.1301-1.8901.05-3.4497,1.76-4.98,1.4001-4.4199-1.03-4.1802-2.6602-6.9502-6.4102-1.8496-2.49-2.54,5.29-7.0498,5.1001-1.8101-.0701-2.7197-2.27-4.2197-2.95-2.6504-1.2001-5.8906,2.1299-8.7603,1.75-12.0601-1.5701-3.54,2.8599-17.8501,3.1399-5.4199,4.22-9.0801,6.1001-16.29,6.22-3.4697.05-7.1899,4.1401-11.3198-.0898-2-2.05-4.7603-3.3701-7.52-2.9202-8.1201,1.3301-6.8203,11.29-11.1201,12.2101-5.1299,1.09-10.46.4701-14.4399,3.7001-3.1201,2.5399-6.5298,12.5-12.3799,9.8699-1.5503-.7-1.9604-2.8899-3.0103-5.49-1.7998,2.0701-1.9897,3.6301-2.46,4.9-.79,2.1-4.04.38-5.1602,1.4-3.6797,3.4-7.21,3.5801-11.6499,4.8101-2.8398.7899-2.4302,5.0499-15.9399,8.8799-1.5698-2.0499-1.73-4.59-3.7998-8-1.4902,1.9401-2.04,4.42-4.48,5.52l-3.3599-9.01c-1.9805.3401-6.8003,11.5601-11.25,13.98-17.7305,9.67-23.0605-.2999-26.6201,7.3201-.3901.8201-1.7402,1.6799-2.54,1.9399-1.5.48-2.4404-.8799-4.02-3.6299-1.73,6.96-11.0601,7.95-11.3999,7.53-.8101-.9901-.04-3.0701-3.1904-5.6602-.4697-.3899-.6895.6901-1.7998,1.76-1.8301,2.99-2.25,6.1301-4.3799,8.91-5.8701-1.0199-5.29-5.74-6.8604-10.86l-4.9697,16.72c-.7803,2.6301-4.4697,3.4401-5.9102,5.04L0,1101.022v530.978h2912v-865.1464l-133.9199-14.3536ZM1982.5303,795.9299c-.7402-2.3199-.2305-4.3999,1.1494-3.6799.29,2.96-.1699,4.04-1.1494,3.6799ZM2163,766c-.5498,0-1-.45-1-1s.4502-1,1-1,1,.45,1,1-.4502,1-1,1Z" style="fill:#759675;"/><path d="M751.8853,490.5831l4.5849,1.6368c-3.7715.9756-6.0866,1.7282-9.0423,3.6254-4.8181,3.0927-11.4205,3.4901-16.7594,1.5528l-5.2049-1.8886-4.7919,1.9551c6.3962-6.5377,1.1113-4.3288,7.8357-9.2604.9966-1.0775-.7962-4.3253-1.7251-5.5717-4.2363-5.6838-9.8465-9.4403-16.0743-12.5717-2.9882-1.5025-5.7132-3.4757-7.487-6.6892,6.5772,3.2472,13.104,5.4937,20.0969,7.8016,7.5957,2.5069,12.8513,8.8337,15.7619,16.0846,1.89-.0192,3.5883-.776,4.8442-1.9336,4.4963-4.1441,10.5636-10.5458,17.3569-10.102,11.7943.7706,22.9641,2.5063,34.2444,4.9958-4.4045.1881-8.3894-.6335-12.6959-1.0111-10.3748-.9098-26.7707.968-30.9441,11.3762Z"/></svg>