<svg width="1903" height="414" viewBox="0 0 1903 414" fill="none" xmlns="http://www.w3.org/2000/svg">
<path d="M391.61 140.184V176.684L93.1035 176.684V140.184C93.1035 135.37 97.0128 131.457 101.83 131.457L382.887 131.457C387.701 131.457 391.61 135.366 391.61 140.184Z" fill="#F3F3F3"/>
<path d="M391.613 237.074V273.574C391.613 278.388 387.704 282.301 382.887 282.301H101.83C97.0158 282.301 93.1035 278.391 93.1035 273.574V237.074L391.613 237.074Z" fill="#F3F3F3"/>
<path d="M335.247 131.457L294.584 356.913C292.977 365.815 285.229 372.292 276.186 372.292H246.586L290.025 131.457" fill="#F3F3F3"/>
<path d="M329.982 108.848H303.753C297.929 108.848 293.524 103.581 294.552 97.8489L299.305 71.32C300.102 66.8626 303.98 63.6211 308.505 63.6211H334.734C340.558 63.6211 344.963 68.8881 343.935 74.6199L339.182 101.149C338.385 105.606 334.507 108.848 329.982 108.848Z" fill="#69528E"/>
<path d="M176.045 372.292H153.193C141.539 372.292 132.726 361.745 134.794 350.276L189.007 48.924C189.811 44.4728 193.683 41.2344 198.208 41.2344H235.62L176.048 372.289L176.045 372.292Z" fill="#F3F3F3"/>
<path d="M306.184 131.633L334.161 131.731L334.18 131.633H306.184Z" fill="#6B4484"/>
<path d="M329.982 108.848H303.753C297.929 108.848 293.524 103.581 294.552 97.8489L299.305 71.32C300.102 66.8626 303.98 63.6211 308.505 63.6211H334.734C340.558 63.6211 344.963 68.8881 343.935 74.6199L339.182 101.149C338.385 105.606 334.507 108.848 329.982 108.848Z" fill="#D59CED"/>
<path d="M703.584 93.1576V320.189C703.584 325.121 699.589 329.116 694.657 329.116H658.689V229.121H498.162V329.116H462.196C457.265 329.116 453.27 325.121 453.27 320.189V93.1576C453.27 88.2261 457.265 84.2305 462.196 84.2305H498.162V184.226H658.689V84.2305H694.657C699.589 84.2305 703.584 88.2261 703.584 93.1576Z" fill="#F3F3F3"/>
<path d="M921.399 84.2305C947.588 84.2305 969.012 105.659 969.012 131.846V320.189C969.012 325.121 965.017 329.116 960.086 329.116H923.778V246.805H769.032V329.116H733.063C728.132 329.116 724.137 325.121 724.137 320.189V131.507C724.137 105.397 745.302 84.2305 771.411 84.2305H921.399ZM923.778 201.914V131.51C923.778 130.15 922.756 129.131 921.399 129.131H771.411C770.051 129.131 769.032 130.153 769.032 131.51V201.914H923.778Z" fill="#F3F3F3"/>
<path d="M1233.01 129.128H1036.84C1035.53 129.128 1034.46 130.193 1034.46 131.507V181.844C1034.46 183.158 1035.53 184.223 1036.84 184.223H1187.16C1213.01 184.223 1234.44 205.31 1234.44 231.5V281.834C1234.44 308.024 1213.01 329.11 1187.16 329.11H1004.85C999.921 329.11 995.926 325.115 995.926 320.183V284.216H1187.16C1188.19 284.216 1189.21 283.194 1189.21 281.834V231.5C1189.21 230.136 1188.18 229.117 1187.16 229.117H1036.84C1010.73 229.117 989.566 207.951 989.566 181.841V131.507C989.566 105.397 1010.73 84.2305 1036.84 84.2305H1224.09C1229.02 84.2305 1233.02 88.2261 1233.02 93.1576L1233.01 129.128Z" fill="#F3F3F3"/>
<path d="M1504.11 93.1576V320.189C1504.11 325.121 1500.12 329.116 1495.18 329.116H1459.22V229.121H1298.69V329.116H1262.72C1257.79 329.116 1253.8 325.121 1253.8 320.189V93.1576C1253.8 88.2261 1257.79 84.2305 1262.72 84.2305H1298.69V184.226H1459.22V84.2305H1495.18C1500.12 84.2305 1504.11 88.2261 1504.11 93.1576Z" fill="#F3F3F3"/>
<path d="M1763.02 84.2305C1789.21 84.2305 1810.63 105.659 1810.63 131.846V320.189C1810.63 325.121 1806.64 329.116 1801.71 329.116H1765.4V246.805H1610.65V329.116H1574.68C1569.75 329.116 1565.76 325.121 1565.76 320.189V131.507C1565.76 105.397 1586.92 84.2305 1613.03 84.2305H1763.02ZM1765.4 201.914V131.51C1765.4 130.15 1764.38 129.131 1763.02 129.131H1613.03C1611.67 129.131 1610.65 130.153 1610.65 131.51V201.914H1765.4Z" fill="#F3F3F3"/>
<path d="M1876.08 320.189C1876.08 325.121 1872.08 329.116 1867.15 329.116H1840.11C1835.18 329.116 1831.19 325.121 1831.19 320.189V93.1576C1831.19 88.2261 1835.18 84.2305 1840.11 84.2305H1867.15C1872.08 84.2305 1876.08 88.2261 1876.08 93.1576V320.189Z" fill="#F3F3F3"/>
<path d="M174.24 131.46L166.083 176.687L155.107 237.548L146.949 282.775L134.689 350.75C132.62 362.22 141.433 372.766 153.087 372.766H175.94L192.171 282.775H262.711L246.479 372.766H276.079C285.126 372.766 292.874 366.289 294.477 357.387L307.935 282.772L316.092 237.545L326.968 177.256L335.322 131.457H174.237L174.24 131.46ZM270.939 237.074H200.399L211.277 176.847L281.774 177.096L270.939 237.074Z" fill="#950BFF"/>
<path d="M335.325 131.457L294.662 356.913C293.055 365.815 285.308 372.292 276.264 372.292H246.664L290.103 131.457" fill="url(#paint0_linear_2483_26894)"/>
<defs>
<linearGradient id="paint0_linear_2483_26894" x1="315.354" y1="95.2653" x2="292.21" y2="244.049" gradientUnits="userSpaceOnUse">
<stop stop-color="#D297EE"/>
<stop offset="0.115" stop-color="#C67BF2"/>
<stop offset="0.387" stop-color="#C57AF1"/>
<stop offset="0.845" stop-color="#A42EFA"/>
<stop offset="0.999" stop-color="#940FFE"/>
</linearGradient>
</defs>
</svg>
