<?xml version="1.0" encoding="UTF-8"?><svg id="Layer_1" xmlns="http://www.w3.org/2000/svg" viewBox="0 0 100 100"><path d="M60.8009,89.6007c-12.0081,11.0587-31.7351,7.8441-42.0437-2.1795-5.0356-4.8964-6.721-12.1011-6.6404-19.106.1203-10.4488,1.7761-20.3641,3.7069-30.5693.6067-3.2066,3.1364-5.8082,5.4249-6.8851,3.405-1.6022,6.8952-.2647,10.08.7081,1.8298-1.1203,4.5256-2.5871,6.9068-3.1826.1099-6.4714.3759-13.1089,2.994-18.8808,2.114-4.6605,6.2309-6.7987,11.1788-5.4949,9.4901,2.5007,8.2048,12.4655,9.0871,20.3107l5.5436-8.3899c3.3579-5.082,8.6133-7.3753,14.1492-4.943,4.8166,2.1163,8.2298,8.1051,5.9999,13.846-2.9473,7.5878-7.0826,14.6177-10.8845,22.0088-1.0419,2.0255-1.5476,4.5094-1.3868,6.8724.9245,13.5797-3.9458,26.5191-14.1158,35.885ZM69.8564,40.8694c3.7084-6.2797,6.8464-12.1077,9.759-18.5569.6161-1.3641-.1695-4.0544-1.2816-4.5866-3.154-1.5092-5.9727,2.7009-7.5036,5.1887l-10.9123,17.7332c-.6294,1.0228-2.5421,1.8038-3.5053,1.4624-.8022-.2843-2.0002-1.9992-2.0398-2.9612l-1.0169-24.7379c-.0695-1.6912-1.8822-3.3145-3.2497-3.4264-1.1118-.091-3.0206,1.3218-3.2088,2.7483-3.4211,25.9312,3.02,17.3558,2.1679,25.3584l-.6775,6.3622c6.487.9596,11.6781,3.5161,17.2139,6.2942.7205-4.0062,2.1785-7.3629,4.2545-10.8783ZM41.7456,45.9226l.6656-7.6126c.1141-1.3048-1.278-3.2508-2.504-3.577-5.9479-1.5828-5.6439,11.8686-5.307,14.8715,2.3281-2.0704,4.1287-2.9061,7.1454-3.6819ZM27.3101,48.9694l1.6149-11.1236c.1754-1.2082-2.2672-2.6572-3.355-2.5881-1.0838.0688-3.2193,1.3364-3.3728,2.5126-.479,3.6713-2.0219,13.1857,1.9772,13.5606.9432.0884,2.9686-1.2106,3.1357-2.3616ZM29.0535,57.2893c-1.6812,1.5942-4.3047,2.3266-7.753,1.7935-.3429,4.1756-.3388,8.8652.5125,13.2242,2.2402,11.4703,20.8137,17.0981,30.5337,12.4498,7.1711-3.4293,19.0444-19.4279,11.5051-25.2055-6.3642-4.877-13.5918-7.879-21.6198-8.2741-.9585-.0472-2.9514,1.2629-2.9596,2.1253s.8763,2.5792,1.6697,2.9993l9.3097,4.9295c4.5372,2.4025-1.6581,5.2363-5.6788,14.015-.4112.8978-1.9953,1.7176-2.8976,1.5142-.7184-.162-2.0376-1.751-1.9581-2.4937l.9512-8.8838-7.009-4.9145-4.606-3.2793Z"/></svg>