<?xml version="1.0" encoding="UTF-8"?><svg id="Layer_1" xmlns="http://www.w3.org/2000/svg" viewBox="0 0 100 100"><path d="M41.9113,78.5744c-10.6564,9.2198-19.5993,11.1986-33.5937,11.6918-10.1099-.8725,3.3106-24.9657,5.7243-27.809,13.9526-16.4358,28.7431-31.5073,43.8199-46.8253,2.9663-3.0138,6.0217-5.4026,9.337-7.9553,1.8078-1.392,4.8118-1.8764,6.9554-1.0614,8.3014,3.1564,14.6204,8.9153,18.6496,16.5596,1.9028,3.6101.9515,7.3616-1.9455,10.3441-15.543,16.0018-32.0608,30.4458-48.947,45.0556ZM86.7558,27.5843c1.2888-6.5687-12.4179-17.708-15.4689-15.0009-3.5248,3.1275,14.4683,20.1009,15.4689,15.0009ZM76.5599,38.2503l3.3501-3.6023c-6.9952-4.2097-12.7424-8.3178-16.0113-15.921-8.9451,3.6899,7.2876,17.8047,12.6612,19.5233ZM31.2434,64.4636l29.7786-28.7143-5.8231-8.029-28.2067,31.218,4.2513,5.5253ZM39.3145,71.5656l31.4399-28.4519c-1.2142-1.2858-3.2098-2.4359-4.9412-2.419l-30.3161,28.2692c1.1589,1.1396,2.283,1.922,3.8174,2.6018ZM28.2835,79.2273c-3.5281-3.5179-6.2072-6.8215-9.3145-11.2307-1.2536,2.0803-2.6669,4.4076-3.3395,6.7958-.66,2.3435,2.9576,5.0424,4.8369,5.9476,2.4604,1.185,5.4312.527,7.8171-1.5126Z"/></svg>