<?xml version="1.0" encoding="UTF-8"?><svg id="Layer_1" xmlns="http://www.w3.org/2000/svg" viewBox="0 0 100 100"><path d="M72.472,81.1139c18.6102-10.9299,10.8296-33.3621,17.509-35.0899,8.8677-2.2938,3.2045,19.9261.7163,25.6451-8.9235,20.51-30.6522,25.3474-51.2909,22.2825-14.6924-2.1818-27.1086-11.7711-31.5339-26.1496-3.6252-11.7789-3.5223-24.4034.2237-36.195C14,13.0235,35.0088,2.9973,51.5126,5.8972c1.3808.2426,3.1162,4.1113,2.3147,4.9015-5.4677,5.3908-24.3972-.9571-35.47,17.5641-8.1707,13.6669-7.9904,43.1172,9.7269,53.0823,13.4359,7.557,31.1043,7.4702,44.3879-.3313Z"/><path d="M66.1342,39.6386l-12.8421,12.6199c-1.0467,1.0286-4.0827,1.7585-5.4304,1.194-1.3443-.563-1.6669-5.1286-.5685-6.2422l12.4637-12.6367c.3141-3.7323-.6151-11.0125,1.6913-13.7772,2.1684-2.5992,15.4001-19.0378,17.9355-14.9359,4.1736,6.7522,1.0024,11.5227,11.216,13.1372,1.105.1747,3.4081,1.6147,3.9221,2.459.515.8461-.5572,3.4371-1.3484,4.2144l-10.417,10.2342c-4.1772,4.1039-9.7972,5.4412-16.6222,3.7332Z"/><path d="M51.0295,67.2592c17.4786.1512,13.5498-15.9956,19.9541-16.2948,1.4054-.0656,3.7742,2.9257,3.623,4.6246-1.1296,12.6912-12.6515,19.9684-24.7963,19.8142-15.5545-.1974-25.3241-10.4092-25.0695-25.9137.1805-10.9914,5.9298-21.4953,17.6909-23.6151,1.3338-.2404,4.2542,1.1817,4.8329,2.3371,3.4172,6.8229-15.9178,3.5574-14.5391,21.7123.3417,4.4997,1.6219,10.2345,4.4902,13.079,3.314,3.2866,9.0899,4.2155,13.8139,4.2564Z"/></svg>