<?xml version="1.0" encoding="UTF-8"?><svg id="Layer_1" xmlns="http://www.w3.org/2000/svg" viewBox="0 0 100 100"><path d="M73.8257,7.8319L34.3498,1.8621c-2.1973-.3364-3.9152,1.632-4.3877,4.6741l-3.8222,25.3174c-.2506,1.6177.2076,3.7864,1.0737,4.6454l8.8544,8.6324c.5152.4939.9161,2.2475.7084,3.0348-.1716.6873-1.0307,2.0186-1.6032,2.3122l-10.8158,5.5258c-1.1736.5942-2.262,2.5053-2.5053,4.1444l-3.8295,25.3674c-.3792,2.4981.3939,5.3326,2.3693,5.6331l40.8285,6.2132c1.3386.2004,2.8202-1.0094,3.1211-2.9993l4.1228-27.1426c.2146-1.4172-.4365-3.8439-1.174-4.5666l-8.6468-8.475c-.4722-.4654-.9877-2.0042-.9304-2.813.0356-.8161.9161-2.4409,1.5675-2.7702l11.3166-5.8837c.8304-.4294,1.9758-2.6627,2.1474-3.8224l3.8725-25.8326c.4149-2.7487-.9307-4.9462-2.7915-5.2253ZM56.2959,78.623c-2.4336,6.4063-8.9473,10.3717-15.733,9.1549-7.5804-1.3599-12.8985-8.5751-11.5742-16.2125.4652-2.6699,1.4602-5.118,3.6146-6.6282.4725,2.355,1.095,4.402,2.8345,5.8694.3866.3221,1.5389-.0143,1.8968-.3507,1.9901-1.8396-2.9774-9.2479,3.7079-16.4702,2.7702-2.9919,9.7704-4.9747,8.0739-2.4981-1.7105,2.4909-1.8824,6.8215.6658,9.434l3.6936,3.7794c3.6076,3.6936,4.6526,9.0904,2.8202,13.922Z"/></svg>