<?xml version="1.0" encoding="UTF-8"?><svg id="Layer_1" xmlns="http://www.w3.org/2000/svg" viewBox="0 0 100 100"><path d="M86.1326,18.1915c-3.1255-4.2733-7.727-7.0764-12.9576-7.8875l-32.8798-5.1045c-10.7994-1.6394-20.9454,5.7436-22.6249,16.5431l-7.3888,47.5771c-.8111,5.2306.4614,10.4641,3.5855,14.7374,3.124,4.2733,7.7256,7.0735,12.9562,7.8846l32.8827,5.1045c1.0261.1605,2.045.235,3.0524.235,9.5971,0,18.0535-7.0047,19.5711-16.7781l7.3888-47.5742c.8125-5.2306-.4614-10.4641-3.5855-14.7374ZM39.0212,13.3965l32.8813,5.1045c3.0409.4729,5.7164,2.1008,7.5335,4.5857s2.558,5.5258,2.0851,8.5696l-6.3364,42.8108c-.9745,6.2767-6.8758,10.5759-13.1511,9.6157l-32.8841-5.1045c-3.0409-.4729-5.7164-2.1008-7.5335-4.5857-1.8157-2.4849-2.5566-5.5258-2.0837-8.5696l6.3349-42.8079c.8828-5.6806,5.801-9.7562,11.3813-9.7562.5847,0,1.178.0459,1.7727.1376Z"/><path d="M69.0072,35.0937l-36.0841-5.6013c-1.8206-.2826-3.0611-2.0226-2.7719-3.885s1.999-3.1444,3.8197-2.8618l36.0841,5.6013c1.8206.2826,3.0611,2.0226,2.7719,3.885s-1.999,3.1444-3.8197,2.8618Z"/><path d="M46.9741,45.3443l-16.0727-2.4949c-1.3511-.2097-2.2112-1.8907-1.922-3.7531.2892-1.8624,1.6186-3.2035,2.9698-2.9938l16.0727,2.4949c1.3511.2097,2.2112,1.8907,1.922,3.7531s-1.6186,3.2035-2.9698,2.9938Z"/></svg>