<?xml version="1.0" encoding="UTF-8"?><svg id="a" xmlns="http://www.w3.org/2000/svg" viewBox="0 0 165.42 65.66"><path d="M22.74,31.17h.01s-.01,0-.01,0Z"/><path d="M27.82,39.39c.24.25.23.65-.03.88-.07.06-.11.09-.11.09-.42.38-1.52,1.37-1.93,1.74-.16.13-.44.1-.53-.09-.43-.49-1.11-1.07-1.59-1.52-.15-.09-.2-.36-.07-.54.04-.05.21-.23.25-.28.42-.46,1.03-1.14,1.61-1.78.23-.26.63-.27.87-.02l1.53,1.52Z"/><path d="M30.77,35.33c1.58,2.14,3.2,4.31,4.83,6.41,0,.01-.01.02-.01.03s-.01.01-.02.02c0,.01-.01.01-.01.02h-.01s-.03.04-.03.04l-.23.24-.48.49-.18.19s-.04.03-.05.04c-.02,0-.04.02-.05.02-3.53-3.98-7.29-7.87-11.71-11.58l-.06-.06s0-.01,0-.03c0-.02.01-.04.02-.06.03-.09.12-.15.18-.21l.24-.24.49-.47.11-.11s.08-.06.11-.07c.02-.01.04-.01.05-.01h.01s.02.02.02.02c1.49,1.15,4.98,3.85,6.52,5.02.05.04.09.08.12.12.06.08.13.18.13.18Z"/><path d="M45.08,21.17l-.12,3.98c0,.16-.08.32-.2.43l-10.54,9.37c-.27.23-.67.19-.88-.09-.1-.13-.2-.26-.3-.39h0c1.2-1.41,4.71-5.52,4.71-5.52.55-.67-.33-1.56-1.01-1l-5.16,4.41c-.21.18-.52.19-.75.03t0,0c-.28-.21-.33-.62-.09-.88l9.32-10.63c.11-.13.26-.2.43-.2l3.98-.12c.35-.01.63.27.62.62Z"/><path d="M157.01,38.39c-1.3-2.43-1.3-5.34,0-7.77l7.16-13.41c.8-1.5-.29-3.32-1.99-3.32H54.8l.42-3.37c.18-1.49-1.22-2.67-2.65-2.24l-9.54,2.87c-.88.26-1.83-.08-2.33-.86l-5.42-8.36c-.82-1.25-2.65-1.26-3.47-.01l-5.46,8.34c-.51.76-1.46,1.11-2.34.84l-9.53-2.92c-1.43-.44-2.83.73-2.66,2.21l1.17,9.9c.11.92-.4,1.79-1.25,2.15l-9.17,3.89c-1.38.58-1.7,2.38-.61,3.4l7.25,6.84c.67.63.84,1.62.43,2.44l-4.54,8.88c-.67,1.33.24,2.92,1.73,3l9.95.57c.92.05,1.69.71,1.89,1.6l2.24,9.72c.33,1.45,2.05,2.08,3.25,1.19l7.99-5.96c.73-.55,1.75-.55,2.48.01l7.95,6c1.2.9,2.92.28,3.26-1.18l1.82-7.71h114.52c1.7,0,2.79-1.82,1.99-3.33l-7.16-13.41ZM47.26,25.52c-.01.27-.12.51-.32.69l-11.65,10.33c-.23.2-.27.55-.08.8.63.85,1.26,1.7,1.87,2.54l.41.56c.3.42.41.92.39,1.37-.05.63-.32,1.17-.74,1.6l-.04.02-.24.24c-.13.14-.54.52-.67.65-.81.83-2.29.96-3.13.09-.92-.94-1.84-1.89-2.76-2.84-.24-.25-.65-.24-.88.02-.5.57-1.04,1.18-1.39,1.56-.18.19-.64.74-.84.9-1.09.94-2.85.87-3.88-.13-.42-.36-.82-.82-1.19-1.23-.06-.06-.23-.25-.29-.31-.52-.54-.83-1.29-.83-2.03,0-.78.32-1.54.89-2.07.17-.16.52-.48.7-.64.32-.29.97-.88,1.56-1.4.26-.24.27-.64.02-.88-.93-.93-1.87-1.85-2.81-2.77-.45-.42-.66-1.12-.58-1.67.06-.54.32-1.03.7-1.41l.3-.3c.09-.09.51-.52.59-.61.52-.51,1.21-.78,1.97-.67.32.05.65.19.92.39.7.52,1.86,1.36,3.04,2.22.25.18.6.15.81-.09l10.37-11.7c.18-.19.42-.31.69-.32l6.3-.19c.26,0,.51.1.7.28.18.19.28.44.28.7l-.19,6.3Z"/></svg>