<?xml version="1.0" encoding="UTF-8"?><svg id="a" xmlns="http://www.w3.org/2000/svg" viewBox="0 0 250 161.61"><path d="M139.63,119.27c4.2-7.67,6.57-15.75,7.38-23.93.99-9.79-.23-19.72-3.13-29.29-2.46-8.14-6.14-16-10.71-23.28-2.76-4.39-5.84-8.59-9.19-12.49-2.49-2.93-5.14-5.69-7.9-8.27C84.3-7.74,38.87,6.61,15.46,36.91c-28.83,37.3-11.98,94.35,32.5,116.42,24.34,12.09,55.81,4.01,76.78-15.24,4.76-4.36,8.97-9.29,12.44-14.71.87-1.34,1.69-2.72,2.45-4.11ZM113.5,121.44c-10.87,9.69-25.54,15.69-39.87,17.12-14.91,1.49-28.2-4.09-38.5-14.3-14.27-14.13-20.59-32.58-18.47-52.49,2.04-19.08,12.25-35.36,29.63-44.4,8.85-4.6,18.43-9.04,28.71-8.64,16.56.65,30.51,10.42,40.33,23.58,3.65,4.89,6.73,10.26,9.16,15.8,2.7,6.16,4.59,12.54,5.56,18.73,1.78,11.34-.27,21.44-4.89,30.02-2.94,5.5-6.95,10.39-11.65,14.57Z"/><path d="M83.53,58.34c3.63.35,7.73-1.7,9.83-4.87,1.54-2.33,2.33-6.92,1.01-10.53-2.12-5.81-7.06-7.49-11.95-6.27-5.23,1.31-8.45,6.3-8.19,10.63.33,5.53,3.55,10.49,9.31,11.04Z"/><path d="M50.11,71.09c3.63.35,7.73-1.7,9.82-4.87,1.54-2.33,2.33-6.92,1.01-10.53-2.12-5.81-7.06-7.49-11.95-6.27-5.23,1.31-8.45,6.3-8.19,10.63.33,5.53,3.55,10.49,9.31,11.04Z"/><path d="M244.33,50.1C231.61,8.03,184.8-2.33,149.14,12.36c-8.07,3.33-15.13,8.01-21.11,13.72,3.22,3.73,6.25,7.74,9.01,11.98,11.18-12.31,26.46-19.24,43.76-18.48,10.02.44,20.61,1.38,29.37,6.92,25.18,15.94,28.47,53.18,18.68,78.64-12.99,33.75-52.39,38.16-80.25,25.56-2.43-1.1-4.7-2.37-6.81-3.78-3.6,5.51-7.96,10.59-12.88,15.12,22.53,19.23,60.2,21.37,86.91,5.06,32.27-19.69,38.76-63.01,28.49-97.01Z"/><path d="M106.8,63.47c-9.05-.83-2.47,27.08-28.58,32.95-10.65,2.41-23.27-.06-31.51-6.16-.3-2.37-1.5-7.47-3.51-7.27-8.66.87-12.09,11.91-7.57,18.57.84,1.23,4.9-.15,6.7-1.34,10.3,10.26,25.07,15.49,39.69,12.09,10-2.34,18.41-8.2,23.44-16.87h0c.43-.74.83-1.49,1.2-2.26,4.13-8.49,5.12-20.43.23-29.53-.03-.06-.07-.13-.1-.18Z"/><path d="M169.16,111.95c10.73,3.27,21.9,1.94,31.11-4.31,7.94-5.38,14.83-15.42,15.08-25.94-7.47-5.3-15.79,22.46-41.49,14.43-8.26-2.58-16.05-8.4-21-15.4.7,6.9.5,13.87-.79,20.79,4.66,4.73,10.43,8.39,17.09,10.42Z"/><path d="M208.67,66.17c2.52-1.26,5.51-4.89,6.18-8.71,1.08-6.16-2.38-10.12-7.25-11.52-5.21-1.49-10.54,1.25-12.49,5.17-2.5,5.01-2.19,10.98,2.55,14.36,2.98,2.14,7.59,2.41,11.02.69Z"/><path d="M173.13,60.47c2.52-1.26,5.51-4.89,6.18-8.71,1.08-6.16-2.38-10.12-7.25-11.52-5.21-1.49-10.54,1.25-12.49,5.17-2.5,5.01-2.19,10.98,2.55,14.36,2.99,2.14,7.59,2.41,11.02.69Z"/></svg>