<?xml version="1.0" encoding="UTF-8"?><svg id="a" xmlns="http://www.w3.org/2000/svg" viewBox="0 0 250 250"><path d="M105.98,231.67c-14.25,6.81-28.9,7.65-42-.79-41.97,4.24-47.99-57.12-39.06-88.37,2.35-8.22,9.41-13.9,14.37-20.16,6.39-8.07,12.83-14.52,22.07-19.65,11.15-29.64,27.3-56.6,50.87-77.24,17.45-15.28,36.61-22.59,59.66-20.48,34.73,3.18,58.94,30.8,56.59,65.95-1.38,20.6-4.85,40.56-9.95,60.82-1.66,6.6-.71,11.11,1.23,17.71,6.97,23.75.75,50.41-13.19,70.42-21.5,30.86-70.16,32.36-100.59,11.8ZM203.07,117.58c6.6-30.61,21.77-80.73-17.47-94.36,11.95,24.28,1.98,57.64-6.1,82.28,8.52,3.08,15.78,6.77,23.57,12.09ZM159.21,100.54c6.51-15.2,22.05-62.22,5.31-70.34-23.34-11.32-65.49,74.29-61.27,80.31.46.65,3.56-.16,4.46-.79,13.47-9.6,32.61-14.76,51.5-9.18ZM188.37,205.42c-23.22,8.06-49.95,4.65-64.88-15.08-19.7-26.04-7.79-63.98,20.78-76.95-13.84-1.33-26.81,4.87-34.71,16.75-12.17,18.32-15.77,44.5-4.16,64.26,16.7,28.44,65.17,34.4,82.97,11.01ZM62.29,139.5c1.56-4.69,7.27-9.47,11.06-10.67,4.7-1.49,10.49.06,15.61,2.74l4.78-8.45c-6.74-6.36-15.16-8.86-23.59-7.66-7.66,1.08-15.37,6.01-19.2,13.31-9.39,17.91-7.98,37.1-1.26,55.54,6.34,17.39,21.94,29.04,40.99,25.85l-6.56-14.69c-22.02-4.96-27.67-38.43-21.83-55.97ZM185.81,181.19c16.07-9.59,17.76-32.82,6.66-45.98-9.92-11.77-27.69-15.8-41.42-8.92-14.34,7.19-21.82,27.64-13.75,42.04,8.99,16.03,32.36,22.49,48.51,12.86Z"/></svg>