<?xml version="1.0" encoding="UTF-8"?><svg id="a" xmlns="http://www.w3.org/2000/svg" viewBox="0 0 250 250"><path d="M239.88,194.46l-24.75-24.75c-.09-.09-.12-.23-.07-.33,11.51-21.04,15.92-44.88,12.75-68.97-6.63-50.42-46.5-90.11-96.95-96.51C95.87-.54,61.56,11.14,36.74,35.93,11.91,60.72.2,95.01,4.59,130.01c6.28,50.02,45.53,89.89,95.44,96.94,23.69,3.35,47.28-.67,68.22-11.63.1-.05.23-.02.32.07l25.19,25.19c4.16,4.16,9.69,6.45,15.57,6.45s11.41-2.29,15.57-6.45l14.98-14.98c8.58-8.58,8.58-22.55,0-31.13ZM206.35,115.54c0,49.69-40.42,90.11-90.11,90.11S26.14,165.22,26.14,115.54,66.56,25.43,116.24,25.43s90.11,40.42,90.11,90.11Z"/></svg>