<?xml version="1.0" encoding="UTF-8"?><svg id="a" xmlns="http://www.w3.org/2000/svg" viewBox="0 0 250 250"><path d="M184.28,207.07c49.09-28.83,28.57-88,46.19-92.56,23.39-6.05,8.45,52.56,1.89,67.65-23.54,54.1-80.86,66.86-135.3,58.78-38.76-5.76-71.51-31.05-83.18-68.98-9.56-31.07-9.29-64.37.59-95.48C30.04,27.46,85.46,1.01,128.99,8.66c3.64.64,8.22,10.85,6.11,12.93-14.42,14.22-64.36-2.52-93.57,46.33-21.55,36.05-21.08,113.74,25.66,140.02,35.44,19.93,82.05,19.71,117.09-.87Z"/><path d="M167.56,97.67l-33.88,33.29c-2.76,2.71-10.77,4.64-14.32,3.15s-4.4-13.53-1.5-16.47l32.88-33.33c.83-9.85-1.62-29.05,4.46-36.34,5.72-6.86,40.62-50.22,47.31-39.4,11.01,17.81,2.64,30.4,29.59,34.65,2.91.46,8.99,4.26,10.35,6.49,1.36,2.23-1.47,9.07-3.56,11.12l-27.48,27c-11.02,10.83-25.84,14.35-43.85,9.85Z"/><path d="M127.72,170.53c46.11.4,35.74-42.19,52.64-42.98,3.71-.17,9.96,7.72,9.56,12.2-2.98,33.48-33.37,52.67-65.41,52.27-41.03-.52-66.8-27.46-66.13-68.36.48-28.99,15.64-56.7,46.67-62.29,3.52-.63,11.22,3.12,12.75,6.16,9.01,18-41.99,9.38-38.35,57.27.9,11.87,4.28,27,11.84,34.5,8.74,8.67,23.98,11.12,36.44,11.23Z"/></svg>