<?xml version="1.0" encoding="UTF-8"?><svg id="a" xmlns="http://www.w3.org/2000/svg" viewBox="0 0 560 87.51"><path d="M391.37,40.98c-.99-17.14-13.83-29.87-29-31.97-15.98-2.22-31.01,7.58-36.45,23.02-7.3,20.68,6.23,42.37,26.7,45.26,21.48,3.03,40.07-13.32,38.74-36.31ZM374.56,54.88c-5.19,8.13-14.67,10.65-23.7,7.76-7.7-2.47-13.63-10.45-13.34-20.09.24-8.03,5.76-16.41,14.82-19.24,8.38-2.62,17.12.89,21.81,7.78,4.57,6.68,5.47,15.82.41,23.78Z"/><path d="M496.02,59.22c-.66-1.04-.43-2.4.51-3.19,8.16-6.85,11.12-16.19,8.95-26.49-1.79-8.45-8.85-17.83-19.34-19.19-8.23-1.07-16.49-.76-24.88-.56-1.32.04-2.37,1.12-2.37,2.43v61.82c.01,1.33,1.08,2.41,2.4,2.43l8.53.17c1.33.02,2.45-1.02,2.48-2.35l.36-10.34c.04-1.22.96-2.2,2.16-2.33,2.47-.31,6.03-.1,6.99,1.29l8.6,12.54c.47.66,1.22,1.07,2.02,1.07l10.15-.04c1.92-.01,3.08-2.12,2.05-3.74l-8.62-13.53ZM485.17,46.64c-3.12,1.02-6.72,1.04-10.25.96-1.3-.02-2.36-1.1-2.36-2.42l-.1-19.13c-.01-1.29,1.01-2.37,2.3-2.45,3.8-.21,7.52-.12,11.01,1.08,4.21,1.45,6.57,6.59,6.67,10.1.14,4.47-1.53,9.99-7.26,11.86Z"/><path d="M50.94,9.77l-21.54-.1c-.91,0-1.65.73-1.65,1.65l-.02,63.47c0,.91.74,1.65,1.65,1.65l22.26.05c18.04.04,30.23-13.54,30.76-31.75.58-19.39-12.1-34.88-31.46-34.97ZM62.54,58.61c-5.51,4.7-12.86,4.26-19.49,4.02-.88-.04-1.59-.76-1.59-1.64l-.05-35.69c0-.86.67-1.56,1.54-1.64,6.46-.47,13.48-.45,18.89,3.72,9.21,7.11,9.96,23.28.7,31.22Z"/><path d="M314.18,76.33l-8.43.3c-1.37.05-2.5-1.04-2.52-2.41l-.21-19.85c-.01-1.33-1.09-2.4-2.42-2.41l-18.78-.13c-1.34,0-2.44,1.07-2.45,2.41l-.19,19.92c-.01,1.36-1.14,2.44-2.5,2.41l-8.7-.23c-1.32-.03-2.37-1.11-2.37-2.43V12.32c0-1.33,1.07-2.42,2.41-2.43l8.76-.09c1.35-.01,2.45,1.07,2.46,2.42l.12,23.44c0,1.34,1.09,2.42,2.43,2.42l18.76.02c1.34,0,2.43-1.08,2.44-2.41l.18-23.49c.01-1.35,1.11-2.43,2.46-2.41l8.44.1c1.33.02,2.4,1.1,2.41,2.43l.04,61.58c0,1.31-1.04,2.39-2.35,2.43Z"/><path d="M175.39,51.8h-19.18c-.92,0-1.66.76-1.64,1.67l.13,7.75c.02.89.74,1.61,1.63,1.61l26.98.12c.91,0,1.65.75,1.63,1.66l-.14,10.36c-.01.9-.74,1.62-1.64,1.62l-40.84-.04c-.91,0-1.64-.74-1.64-1.64V11.27c0-.91.74-1.64,1.64-1.64l40.4-.04c.91,0,1.64.73,1.64,1.64l.03,10.48c0,.91-.73,1.64-1.63,1.65l-26.57.12c-.9,0-1.63.74-1.63,1.64l-.02,11.25c0,.9.73,1.64,1.64,1.64l19,.07c.89,0,1.62.72,1.63,1.61l.2,10.44c.02.92-.72,1.67-1.64,1.67Z"/><path d="M438.05,9.92l8.92-.04c1.35,0,2.45,1.09,2.45,2.43l-.02,40.86c0,14.84-11.97,25.05-26.61,24.5-12.64-.47-24.45-9.13-24.54-22.54l-.29-42.81c0-1.34,1.07-2.44,2.41-2.45l8.57-.07c1.34-.01,2.44,1.07,2.45,2.41l.48,43.13c.06,5.37,6.63,8.26,10.74,8.64s12.46-1.95,12.52-7.39l.49-44.26c.01-1.33,1.09-2.4,2.42-2.41Z"/><path d="M537.56,77.35c-10.1,1.16-18.79-1.89-24.51-9.77-.79-1.08-.59-2.59.47-3.4l6.88-5.25c.94-.72,2.28-.66,3.14.16,4.95,4.77,11.29,6.77,17.16,2.63,3.42-2.42,1.34-8.21-2.16-9.93l-15.55-7.62c-5.45-2.67-9.52-8.74-10.12-13.33-.94-7.22.66-13.92,6.74-17.94,9.96-6.59,23.5-5.65,32.69,2.98,1.09,1.02,1.05,2.76-.12,3.7l-6.77,5.45c-.77.62-1.83.71-2.69.24-4.1-2.25-8.52-3.45-12.85-2.44-1.46.34-3.76,2.96-3.67,4.27s1.67,4.06,2.97,4.71l16.1,8.06c8.5,4.25,11.92,12.54,10.63,21.32-1.22,8.36-8.32,15.02-18.34,16.17Z"/><path d="M133.1,64.35c.23,3,.3,6.45.28,10.55,0,.9-.74,1.64-1.64,1.64l-40.58.05c-.91,0-1.64-.73-1.64-1.64l.03-63.6c0-.91.74-1.64,1.65-1.64l10.18.05c.9,0,1.63.74,1.63,1.64l.03,49.82c0,.91.74,1.64,1.64,1.64l26.78-.02c.86,0,1.57.66,1.64,1.52Z"/><path d="M15.84,76.36l-10.34.08c-.91,0-1.65-.73-1.65-1.64V11.46c0-.9.73-1.63,1.63-1.64l10.32-.07c.91,0,1.65.73,1.65,1.64l.02,63.33c0,.9-.73,1.63-1.63,1.64Z"/><path d="M248.59,9.16l-32.7-4.94c-1.81-.29-3.24,1.35-3.62,3.87l-3.17,20.97c-.21,1.34.17,3.13.88,3.85l7.34,7.14c.42.41.76,1.86.58,2.52-.14.57-.84,1.68-1.33,1.91l-8.95,4.58c-.97.48-1.87,2.07-2.07,3.43l-3.18,21.02c-.31,2.06.32,4.41,1.96,4.67l33.81,5.14c1.1.16,2.33-.83,2.58-2.48l3.41-22.48c.19-1.17-.36-3.18-.97-3.79l-7.16-7.01c-.38-.38-.82-1.66-.77-2.33.04-.67.76-2.01,1.3-2.28l9.37-4.88c.68-.36,1.64-2.21,1.78-3.17l3.2-21.39c.35-2.28-.77-4.1-2.31-4.33ZM234.08,67.79c-2.02,5.3-7.41,8.59-13.03,7.58-6.28-1.13-10.69-7.1-9.58-13.43.38-2.21,1.2-4.23,2.99-5.49.38,1.95.91,3.64,2.35,4.85.32.27,1.28-.01,1.58-.29,1.64-1.53-2.47-7.66,3.07-13.64,2.3-2.47,8.09-4.12,6.69-2.06-1.43,2.06-1.56,5.65.55,7.81l3.05,3.13c2.99,3.05,3.86,7.54,2.35,11.53Z"/></svg>