<?xml version="1.0" encoding="UTF-8"?><svg id="a" xmlns="http://www.w3.org/2000/svg" viewBox="0 0 250 250"><path d="M203.86,218.7c-44.99,38.27-120.44,40.21-158.86-1.4C-9.72,158.05-2.25,61.71,63.11,21.8,116.19-10.62,193.45-6.09,224.46,57.46c25.07,51.36,25.8,121.77-20.61,161.24ZM213.89,148.77c9.1-42.92-5.66-101.2-49.88-120.08-15.38-6.57-32.5-5.37-48.59-3.51-31.61,3.65-56.53,22.44-70.68,50.22-14.76,28.97-15.84,60.64-2.36,90.37,9.72,21.45,26.65,37.63,50.14,44,47.61,12.91,109.3-4.12,121.36-61Z"/><path d="M123.9,148.48c43.02,6.2,49.19-39.98,62.45-33.48,2.29,16.76-6.14,34.46-17.41,45.02-13.07,12.25-30.56,17.2-48.48,14.76-24.16-3.3-43.55-19.78-53.24-41.32-3.42.77-10.38.51-10.94-1.85-3.01-12.71,8.58-27.49,22.23-23.79,3.17.86,2.05,9.29,1.12,13.07,8.97,14.03,26.7,25.07,44.26,27.6Z"/><path d="M179.37,76.65c-.09,6.24-3.94,12.75-7.63,15.4-5.02,3.6-12.43,4.34-17.73,1.71-8.41-4.17-10.43-13.57-7.73-22.15,2.11-6.72,9.9-12.43,18.59-11.38,8.12.97,14.65,6.38,14.5,16.44Z"/><path d="M121.27,76.65c-.09,6.24-3.94,12.75-7.63,15.4-5.02,3.6-12.43,4.34-17.73,1.71-8.41-4.17-10.43-13.57-7.73-22.15,2.11-6.72,9.9-12.43,18.59-11.38,8.12.97,14.65,6.38,14.5,16.44Z"/></svg>