<?xml version="1.0" encoding="UTF-8"?><svg id="a" xmlns="http://www.w3.org/2000/svg" viewBox="0 0 250 250"><path d="M203.75,218.57c-44.93,38.22-120.27,40.16-158.64-1.39C-9.53,158-2.07,61.8,63.2,21.94,116.2-10.43,193.35-5.9,224.32,57.56c25.03,51.29,25.76,121.6-20.58,161.01ZM213.76,148.74c9.09-42.86-5.65-101.05-49.81-119.91-15.36-6.56-32.46-5.36-48.52-3.51-31.56,3.65-56.45,22.41-70.58,50.15-14.73,28.93-15.81,60.56-2.36,90.24,9.71,21.42,26.61,37.57,50.07,43.93,47.55,12.89,109.14-4.12,121.19-60.91Z"/><path d="M179.29,76.71c-.09,6.23-3.94,12.73-7.62,15.37-5.01,3.6-12.41,4.33-17.71,1.7-8.4-4.16-10.41-13.55-7.72-22.12,2.11-6.71,9.89-12.41,18.56-11.37,8.11.97,14.63,6.37,14.48,16.41Z"/><path d="M112.5,76.71c-.09,6.23-3.94,12.73-7.62,15.37-5.01,3.6-12.41,4.33-17.71,1.7-8.4-4.16-10.41-13.55-7.72-22.12,2.11-6.71,9.89-12.41,18.56-11.37,8.11.97,14.63,6.37,14.48,16.41Z"/><path d="M128.16,109.81c-.16-.01-.31-.04-.48-.05-19.93-.96-30.2,25.25-29.26,41.87,1.03,18.12,14.93,35.09,34.33,33.12,39.63-4.02,30.59-80.57-4.59-74.95ZM130.56,166.07c-7.98.75-12.65-7.66-13.25-14.47-.45-5.13,2.29-21,8.89-22.8,1.29.24,2.71.2,4.26-.22,7.88-2.13,16.79,35.91.1,37.48Z"/></svg>