<?xml version="1.0" encoding="UTF-8"?><svg id="a" xmlns="http://www.w3.org/2000/svg" viewBox="0 0 250 250"><path d="M170.17,244.59l-39.9-28.54c-.75-.53-1.76-.51-2.48.06l-38.56,30.33c-1.17.92-2.91.34-3.28-1.11l-12.22-47.51c-.23-.89-1.02-1.52-1.94-1.55l-49.03-1.55c-1.49-.05-2.44-1.61-1.8-2.96l21.18-44.25c.4-.83.2-1.82-.49-2.43L5.1,112.37c-1.11-1-.84-2.81.52-3.42l44.67-20.28c.84-.38,1.32-1.27,1.19-2.18l-6.99-48.55c-.21-1.48,1.16-2.69,2.6-2.29l47.25,13.17c.89.25,1.83-.12,2.31-.9L122.52,6.23c.79-1.27,2.62-1.31,3.46-.08l27.73,40.47c.52.76,1.48,1.08,2.35.8l46.6-15.31c1.42-.47,2.85.68,2.7,2.17l-4.77,48.82c-.09.91.44,1.78,1.29,2.12l45.54,18.23c1.39.55,1.75,2.35.68,3.4l-35.04,34.34c-.66.64-.81,1.64-.38,2.45l23.17,43.24c.71,1.32-.17,2.92-1.66,3.04l-48.91,3.78c-.92.07-1.68.74-1.86,1.64l-10.04,48.02c-.31,1.46-2.01,2.13-3.23,1.26Z"/></svg>