<?xml version="1.0" encoding="UTF-8"?><svg id="a" xmlns="http://www.w3.org/2000/svg" viewBox="0 0 250 215.72"><path d="M240.12,96.8c-3.97-15.8-9.28-36.47-23.59-46.28-15.51-10.38-33.91-.95-50.51-1.44-2.25-.04-4.34-.27-6.31-.64,2.45-9.43,8.19-23.28,18.01-26.14,2.92-.79,6.16-.3,9.49,1.18.95.44,2.08,1.03,3.03,1.45,3.52,1.62,7.22,2.8,11.07,3.44,15.51,2.76,31.35-4.17,42.41-14.83,5.63-6.86-3.82-15.23-9.95-8.88,0,0,.01,0,0,0l-.04.05-.09.11s-.21.24-.21.24c-5,5.55-11.82,9.89-19.04,11.65-7.89,1.98-15.52.3-22.59-3.46-5.08-2.36-11.21-3.35-16.84-1.94-14.19,3.61-22.66,19.11-27.41,32.21-15.31-10.07-21.56-30.62-41.36-34.64-21.41-3.95-46.58,16.7-62.16,29.47C23.34,55.43,4.05,78.53,2.71,106.6c-.74,16.07,5.81,35.61,21.32,43.05,10.09,5.65,21.19,2.91,30.96-.96,7.12-2.82,13.71-6.21,20.33-9.79,13.6-7.59,28.8-11.12,43.38-4.61,2.36.89,6.69,2.52,9.02,3.35,7.01,2.52,13.06,7.57,17.52,13.57,2.73,3.64,4.93,7.58,6.77,11.81,1.35,3.04,2.47,6.41,3.7,9.51,4.56,11.24,9.59,22.99,19.01,31.6,1.94,1.71,4.34,3.39,6.95,4.61,2.56,1.24,5.37,1.97,6.18,2.25,10.07,3.3,21.14-.21,29.53-5.51,14.72-9.42,23.28-24.83,26.9-41.3,4.94-22.61.88-45.32-4.16-67.38ZM212.97,182.5c-3.77,3.55-8.67,6.5-13.5,7.58-1.09.24-2.13.36-2.96.35-.82,0-1.43-.17-1.38-.19l-2.65-.89c-.56-.2-.91-.35-1.22-.51-2.84-1.65-4.4-3.95-6.67-7.27-4.28-6.72-7.74-14.57-10.87-22.05-7.07-17.35-20.07-33.12-38.05-39.79-4.16-1.45-8.49-2.89-12.6-4.48-17.79-6.84-38.09-3.15-54.38,5.51-6.74,3.64-13.72,7.36-20.74,10.18-4.2,1.57-10,3.96-13.83,2.59-.79-.3-2.5-1.16-3.4-1.64-2.9-1.86-4.8-4.74-6.49-8.09-3.75-7.86-4.2-16.77-2.33-25.49,4.36-19.27,18.19-34.88,32.73-47.7,11.4-9.84,33.84-29.64,49.15-27.77,18.05,2.92,24.95,37.91,61.97,38.65,7.63.14,15.11-1.31,22.37-2.51,8.78-1.46,18.26-2.67,24.57,4.45,10.52,11.53,14.25,36.34,16.3,51.73,2.96,23.11,1.51,50.36-16.02,67.34Z"/><path d="M113.89,68.87l-7.28-3.91c-.9-.48-1.24-1.6-.75-2.51l3.11-5.8c1.09-2.03,1.26-4.31.64-6.35-1.16-3.83-5.03-6.84-10.73-5.82-1.62.29-3.01,1.33-3.79,2.78l-3.92,7.3c-.48.9-1.6,1.24-2.5.75l-5.81-3.12c-5.83-3.13-13.71,1.39-12.17,10.07.25,1.41,1.52,3.13,2.78,3.81l7.31,3.92c.9.48,1.24,1.6.75,2.51l-3.11,5.8c-3.13,5.83,1.37,13.71,10.06,12.17,1.42-.25,3.13-1.52,3.81-2.78l3.92-7.31c.48-.9,1.6-1.24,2.5-.75l5.81,3.12c2.03,1.09,4.3,1.25,6.34.63,3.86-1.16,6.88-5.12,5.78-10.8-.31-1.59-1.34-2.96-2.77-3.73Z"/><circle cx="171.09" cy="89.78" r="14.78" transform="translate(-22.12 90.05) rotate(-27.77)"/><circle cx="194.44" cy="127.13" r="14.78" transform="translate(-35.94 97.23) rotate(-25.78)"/></svg>