<?xml version="1.0" encoding="UTF-8"?><svg id="a" xmlns="http://www.w3.org/2000/svg" viewBox="0 0 250 250"><path d="M199.61,16.14L75.65,2.86c-16.4-1.76-31.17,10.15-32.93,26.55l-18.9,176.38c-1.76,16.39,10.15,31.17,26.55,32.93l86.2,9.23c37.22,3.99,70.75-23.05,74.74-60.27l14.85-138.62c1.76-16.4-10.15-31.17-26.55-32.93ZM209.49,43.2l-14.51,135.47c-2.98,27.78-28,47.96-55.79,44.98l-86.2-9.23c-6.96-.75-12.01-7.01-11.27-13.97L60.28,27.21c.75-6.96,7.01-12.02,13.97-11.28l123.96,13.28c6.96.75,12.02,7.02,11.28,13.98Z"/><path d="M110.4,166.69l-9.48-1.02c-1.96-.21-3.38-1.97-3.17-3.93l1.01-9.47c.21-1.96-1.21-3.72-3.17-3.93l-10.04-1.08c-1.96-.21-3.72,1.21-3.93,3.17l-1.02,9.47c-.21,1.96-1.97,3.38-3.93,3.17l-9.47-1.01c-1.96-.21-3.72,1.21-3.93,3.17l-1.08,10.04c-.21,1.96,1.21,3.72,3.17,3.93l9.47,1.01c1.96.21,3.38,1.97,3.17,3.93l-1.01,9.47c-.21,1.96,1.21,3.72,3.17,3.93l10.04,1.08c1.96.21,3.72-1.21,3.93-3.17l1.02-9.47c.21-1.96,1.97-3.38,3.93-3.17l9.48,1.02c1.96.21,3.72-1.21,3.93-3.17l1.08-10.04c.21-1.96-1.21-3.72-3.17-3.93Z"/><path d="M154.71,163.94c-8.77-.94-16.65,5.41-17.59,14.18-.94,8.77,5.41,16.65,14.18,17.59,8.77.94,16.65-5.41,17.59-14.18.94-8.77-5.41-16.65-14.18-17.59Z"/><path d="M181.46,56.06l-95.56-10.24c-5.29-.57-10.04,3.26-10.6,8.55l-6.61,61.74c-.57,5.29,3.26,10.04,8.55,10.6l95.56,10.24c5.29.57,10.04-3.26,10.6-8.55l6.61-61.74c.57-5.29-3.26-10.04-8.55-10.6ZM174.39,75.29l-1.24,11.57-3.2,29.85c-.4,3.71-3.73,6.39-7.43,6l-72.23-7.74c-3.71-.4-6.39-3.73-6-7.43l4.44-41.47c.4-3.71,3.73-6.39,7.43-6l60.62,6.49,11.57,1.24c3.74.4,6.44,3.75,6.04,7.49Z"/></svg>