<?xml version="1.0" encoding="UTF-8"?><svg id="a" xmlns="http://www.w3.org/2000/svg" viewBox="0 0 250 250"><path d="M116.17,190.81c-21.65,26.7-42.28,35.28-75.69,42.46-24.66,2.23-2.73-61.38,1.85-69.24,26.48-45.45,55.56-87.98,85.21-131.22,5.84-8.51,12.15-15.55,19.02-23.1,3.75-4.12,10.75-6.57,16.25-5.53,21.29,4.03,38.93,15.16,51.88,31.79,6.12,7.86,5.44,17.27-.25,25.68-30.49,45.09-63.98,86.85-98.29,129.16ZM202.06,49.15c.29-16.33-37.4-37.22-43.57-29.41-7.13,9.02,43.35,42.09,43.57,29.41ZM182.14,79.13l6.51-10.09c-18.6-7.12-34.16-14.53-45.27-31.39-19.91,12.69,25.12,39.65,38.76,41.48ZM84.51,161.48l59.24-81.71-17.42-16.79-54.39,87.05,12.58,11.45ZM106.93,175.08l63.34-81.79c-3.47-2.57-8.75-4.48-12.9-3.7l-60.72,80.87c3.27,2.24,6.31,3.64,10.28,4.62ZM83.72,198.21c-9.98-6.94-17.83-13.73-27.18-22.99-2.12,5.53-4.52,11.73-5.11,17.75-.58,5.91,9.26,10.85,14.16,12.22,6.42,1.79,13.27-1.06,18.13-6.98Z"/></svg>