<?xml version="1.0" encoding="UTF-8"?><svg id="a" xmlns="http://www.w3.org/2000/svg" viewBox="0 0 250 250"><path d="M191.89,184.84c-.7,23.2-14.29,40.09-33.79,49.21-25.16,11.76-52.43,15.55-78.95,6.91-22.31-7.27-35.33-25.24-39.1-48.09-6.09-36.82-14.88-71.97-25.28-107.64-5.97-20.46-1.85-39.76,14.1-53.96,13.1-11.67,29.05-18.53,46.47-22.48C110.47.73,169.43-1.14,177.47,45.39c22.5-7.41,44.2,2.93,52.61,24.06,9.05,22.71,11.01,48.39,1.47,70.86-7.1,16.72-20.87,27.07-39.13,27.1l-.53,17.43ZM143.6,78.31c11.23-6.85,18.36-18.73,15.65-32.4C152.81,13.36,46.6,12.59,31.72,62.07c-12.69,42.19,73.51,39.66,111.88,16.25ZM214.39,75.06c-6.45-16.41-22.96-18.21-36.5-12.47l1.54,11.61c12.6-6.05,22.64-1.93,34.95.86ZM185.95,136.05c11.47.22,20.76-7.73,23.23-17.41,2.62-10.25.84-22.76-9-28.14-6.19-3.39-14.92-.65-20.17,2.63l5.94,42.92ZM154.36,203.72c14.67-7.59,20.85-21.38,18.32-37.33l-12.02-75.7c-37.78,26.89-73.42,27.28-117.14,19.6l16.39,82.13c6.66,33.34,73.84,25.72,94.45,11.3Z"/><path d="M67.31,66c-10.19,4.78-12.92,11.36-18.51,10.39-3.69-.64-6.87-16.49,10.16-27.17,22.35-14,50.94-17.58,75.75-8.63,6.95,2.5,11.36,9.54,9.93,17.1-26.23-3.57-52.38-3.41-77.34,8.3Z"/></svg>