<?xml version="1.0" encoding="UTF-8"?><svg id="a" xmlns="http://www.w3.org/2000/svg" viewBox="0 0 250 250"><path d="M209.79,203.88c.35,13.94-4.18,23.23-16.54,28.18-35.22,14.12-73.97,18.24-111.69,11.2-7.32-1.37-11.24-9.41-12.52-14.3-2.05-7.8-.28-16.19,6.36-21.17-11.92-51.38,33.6-66.32,7.45-84.53-16.92-11.79-26.58-28.05-29.82-48.07-10.72-11.17-17.33-28.93-9.23-43.36C58.7,5.31,132.69,1.69,160.73,3.93c7.81.62,17.78,4.5,21.26,10.73,7.31,13.06,2.82,26.91,1.66,40.29-.99,11.36-1.58,22.49-7.19,32.67l-15.22,27.61c-3.02,5.48-2.03,13.5,2.68,17.95,25.31,23.89,27.23,18.27,36.9,53.63,2.81,4.48,8.75,9.24,8.95,17.07ZM162.18,25.48c-4.51-16.44-75.61,1.06-91.32,6.3-4.1,1.37-8.09,7.05-7.45,10.14.6,2.91,5.69,6.93,9.34,7.17,16.99,1.13,94.33-5.76,89.44-23.61ZM96.19,212.28c26.75,5.08,52.82,1.88,76.99-7.08,5.79-2.14,8.74-7.54,8.01-13.18-2.22-17.22-9.85-31.48-23.06-42.7-13.25-11.27-19.29-28.78-10.86-45.08l11.59-22.43c1.98-3.83,2.47-9.55,1.63-13.8l-46.58,8.64c-12.83,2.38-25.17,1.92-39.45,1.75-.62,3.99,1.25,11.57,4.74,15.15l18,18.48c9.38,9.64,12.58,22.25,8.08,35.5l-10.92,32.12c-3.39,9.97-3.77,23.18,1.83,32.65Z"/><path d="M152.32,199.75c-11.8,4.01-42.61,8.34-45.5-3.28-2.97-11.99,10.69-11.35,16.78-29.37,2.12-6.28,8.47-10.11,14.97-8.98,12.84,2.24,20.44,12.01,23.11,24.12,1.69,7.7-1.24,14.75-9.36,17.51Z"/><path d="M135.78,105.1c-.72,5.15-4.13,8.64-8.47,8.59-4.07-.04-7.43-3.67-8.05-8.93-.32-2.69,1.62-8.14,3.62-9.47,2-1.34,6.61-1.75,8.85-.84,2.86,1.18,4.55,7.06,4.05,10.64Z"/><path d="M104.89,93.74c2.7-.42,6.82,2.16,7.23,4.36.56,3.03-1.62,7.71-4.12,8.33-3.02.75-7.86-1.67-8.4-4.27-.71-3.41,1.47-7.82,5.29-8.41Z"/><path d="M122.3,150.64c-2.16,0-4.93-4.85-4.69-6.83.24-1.99,3.23-5.68,5.69-5.85,2.14-.15,5.25,3.9,5.33,5.82.1,2.36-2.29,6.88-6.33,6.86Z"/></svg>