<?xml version="1.0" encoding="UTF-8"?><svg id="a" xmlns="http://www.w3.org/2000/svg" viewBox="0 0 250 250"><path d="M243.27,8.16c-1.68-1.68-3.99-2.58-6.35-2.52l-57.04,1.7c-2.38.07-4.62,1.12-6.2,2.9l-93.96,105.97c-1.86,2.1-5.01,2.44-7.27.79-10.75-7.83-21.21-15.43-27.58-20.07-2.4-1.83-5.4-3.14-8.31-3.56-6.88-1.02-13.14,1.45-17.85,6.07-.75.77-4.56,4.66-5.38,5.53l-2.13,2.19s-.53.55-.53.55c-3.42,3.4-5.78,7.82-6.31,12.69-.73,5.06,1.17,11.33,5.2,15.12,8.52,8.35,17.02,16.73,25.5,25.14,2.22,2.2,2.13,5.83-.2,7.92-5.34,4.78-11.23,10.07-14.16,12.74-1.59,1.44-4.79,4.32-6.34,5.74-5.1,4.8-8.04,11.74-8,18.8-.07,6.71,2.79,13.46,7.51,18.34.55.6,2.05,2.23,2.61,2.86,3.37,3.68,6.99,7.84,10.77,11.08,9.36,9.1,25.25,9.75,35.13,1.17,1.8-1.4,5.98-6.36,7.58-8.08,3.17-3.52,8.04-8.98,12.62-14.14,2.1-2.37,5.77-2.45,7.97-.17,8.31,8.58,16.61,17.17,24.97,25.7,7.63,7.91,20.98,6.7,28.37-.8,1.15-1.16,4.89-4.68,6.08-5.91l2.2-2.13.27-.27c3.89-3.87,6.33-8.72,6.72-14.47.23-4.04-.8-8.6-3.49-12.35l-3.71-5.1c-5.56-7.64-11.23-15.32-16.94-22.97-1.69-2.26-1.37-5.44.75-7.32l105.47-93.52c1.78-1.58,2.83-3.82,2.9-6.2l1.69-57.05c.07-2.38-.84-4.68-2.52-6.35ZM33.46,112.04s-.09,0-.18-.03c.13,0,.2.02.18.03ZM33.14,111.94s.02.01.03.02c0,0-.01,0-.02,0,0,0-.05-.04,0-.01ZM66.84,205.93c-3.84,3.44-13.83,12.38-17.55,15.71-1.42,1.2-3.92.9-4.81-.77-3.84-4.46-9.97-9.72-14.36-13.75-1.39-.83-1.79-3.33-.63-4.91.35-.45,1.89-2.09,2.28-2.54,3.74-4.14,9.31-10.3,14.55-16.13,2.08-2.32,5.69-2.41,7.89-.21l13.83,13.83c2.22,2.22,2.1,5.85-.25,7.93-.59.52-.96.85-.96.85ZM129.07,228.56c.09.06.17.14.24.23-.08-.08-.16-.16-.24-.23ZM138.27,218.9s-.07.08-.1.12c-.04.04.02,0-.1.12l-.27.27-2.13,2.2-4.27,4.38-1.68,1.71c-.16.15-.32.3-.48.38-.18.12-.34.18-.45.21-31.92-36.09-66.03-71.32-106.05-104.91l-.54-.55-.13-.14s.01,0,.01,0c.01,0,.02,0,.03.02,0,.04.07.05.08.09.12.13.02.09.11-.24.03-.15.08-.35.2-.56.31-.74,1.13-1.3,1.66-1.9l2.19-2.13,4.39-4.27s1.05-1.02,1.05-1.02c.28-.24.65-.48.97-.59.18-.07.34-.1.46-.1.09.07.21.16.21.16,13.5,10.42,45.13,34.84,59.11,45.51.41.31.76.67,1.06,1.08.5.68,1.15,1.55,1.15,1.55,14.32,19.43,28.99,39.05,43.75,58.13-.03.07-.05.13-.1.2-.03.09-.11.16-.15.25ZM93.47,158.38s0,0-.01,0c.03.02.02.02.01,0ZM138.59,218.01s.01.1-.01.24c-.03-.16-.02-.25.01-.24ZM221.46,72.05l-95.48,84.82c-2.37,2.1-6.03,1.74-7.94-.78-.9-1.19-1.8-2.37-2.7-3.55,0,0-.04-.06-.04-.06,10.86-12.69,42.64-49.86,42.64-49.86,5.03-6.12-2.98-14.17-9.13-9.13l-46.71,39.95c-1.92,1.64-4.7,1.75-6.74.26-.03-.02-.06-.04-.08-.06-2.59-1.89-2.99-5.6-.87-8L178.81,29.39c.99-1.12,2.41-1.78,3.91-1.83l36.05-1.07c3.13-.09,5.69,2.47,5.6,5.6l-1.07,36.05c-.04,1.5-.71,2.91-1.83,3.91Z"/></svg>