<?xml version="1.0" encoding="UTF-8"?><svg id="a" xmlns="http://www.w3.org/2000/svg" viewBox="0 0 250 250"><path d="M225.11,158.98c-9.88,53.21-190.25,53.18-200.1.17-6.41-34.49,23.23-31.75,23.1-60.32s8.56-54.14,32.89-67.82c26.37-14.83,61.33-14.67,87.81-.13,23.06,12.66,32.64,37.82,32.86,63.78.29,35.39,29.96,29.24,23.44,64.32ZM203.9,151.71c-1.59-19.72-25.12-14.97-23.99-56.93.86-32.09-19.61-52.75-51.41-52.86-15.59-.05-33.01,3.13-44.16,13.64-26.49,24.96-.3,53.76-31.66,82.53-3.45,3.17-7.3,12.81-5.9,16.84,10.71,30.8,159.63,27.89,157.12-3.23Z"/><path d="M227.31,82.58c-23.44-1.82,11.48-45.31-29.19-53.21-4.7-.91-11.95-8.61-12.18-12.92-.27-5.03,9.61-14.23,14.91-13.61,33.51,3.94,54.33,39.08,42.17,70.7-1.65,4.3-11.35,9.38-15.72,9.04Z"/><path d="M32.04,63.63c1.51,5.61-2.15,15.86-6.82,18.13-5.31,2.58-16.37-2.98-18.74-9.62C-4.71,40.86,16.62,7.72,48.41,2.7c4.91-.78,14.4,6.19,15.48,10.55,5.61,22.8-43.02,8.83-31.85,50.39Z"/><path d="M156.13,234.84c-20.21,18.17-45.45,15.44-63.03-1-4.14-3.87-5.72-21.93.14-22.53,20.98-2.15,41.91-1.95,63.67.06,5.96.55,4.03,19.15-.78,23.48Z"/></svg>