<?xml version="1.0" encoding="UTF-8"?><svg id="a" xmlns="http://www.w3.org/2000/svg" viewBox="0 0 250 250"><path d="M239.69,99.06c-1.79-18.3-9.16-33.75-21.31-47.11-16.03-17.62-35.33-31.02-57.46-40.26-20.02-8.37-40.71-8.94-61.61-4.26-26.37,5.89-47,21.55-60.55,44.78-.35.59-.69,1.18-1.04,1.79-4.1,7.07-8.01,14.16-11.54,21.41-5.28,10.84-9.69,22.02-12.5,33.92-3.5,14.78-1.13,28.93,9.21,40.42,9.31,10.33-38.11,55.56,5.35,78.77,25.62,13.68,56.2,19.46,86.46,16.03,11.32-1.29,17.1-13.11,24.15-18.87,30.2,1.52,56.26-.72,75.29-28.24,19.94-28.86,28.96-63.22,25.54-98.37ZM185.64,187.98c-8.62,9.12-21.74,11.08-33.43,9.66,2.6-11.05,22.38-31.07,13-35.94-7.76-4.02-17.66.18-21.76,7.6l-20.5,37.07c-3.86,6.98-10.73,13.68-19.68,13.91-21.94.56-44.72-4.12-62.66-16.33-4.97-8-2.44-18.69.29-27.63l16.92,6.31,2.52,11.49c.46,2.11,6.72,4.13,8.57,3.19,2.15-1.09,4.65-4.28,7.07-7.81,2.54-3.72,14.3-5,16.28-1.2,1.82,3.51,2.91,8.68,5.25,9.99,2.63,1.47,10.47-1.45,11.35-4.5,2.41-8.41,11.64-35.07,2.09-37.36-8.46-2.03-10.11,10.14-13.16,11.35-1.8.73-6.07.38-8.51-.03l-6.05-1.04c-3.22-.54-.06-14.51-9.04-14.86-4.06-.14-7.26,3.24-9.55,7.87-2.28,4.66-13.81,1.34-15.13-3.51-1.66-6.05-2.75-11.48-7.97-14.77-19.36-12.17-7.49-38.78-5.62-41.14l2.83-5.84.15-.31c.46.46.93.87,1.4,1.22,1.13.83,2.31,1.53,3.53,2.11,6.77,3.22,14.53,2.47,21.65-1.1,6.05-3.03,12.58-8.99,14.06-17.61.42-2.36-1.28-7.49-3.3-8.25-1.74-.65-6.05-.77-7.9-.22-5.25,1.56-8.81,1.36-11.43.21-2.01-.88-3.44-2.32-4.63-3.94l1.04-2.13c16.92-28.85,42-45.23,77.67-39.11,25.7,4.39,47.13,18.23,64.42,37.69,9.16,10.33,16.75,21.57,18.5,35.89,3.94,32.34-5.81,65.3-28.27,89.08Z"/><path d="M157.3,99.48c-1.95-1.04-7.03-1.82-9.3-1.45-27.09,4.44-14.39-23.79-34.12-19.28-16.51,3.77-12.04,35.84-2.77,44.66,8.03,7.64,19.03,8.7,29.57,4.99,7.6-2.68,16.21-8.71,19.28-18.68.84-2.73-.39-9.04-2.66-10.25Z"/><path d="M57.99,130.81c-.47,2.32,1.35,7.23,3.41,7.71,11.62,2.69,10.89-3.99,17.56,2.05,3.23,2.93,8.03,3.89,11.56,2.43,11.27-4.66.83-26.47-3.75-34.64-5.32-9.49-25.28,5.03-28.78,22.45Z"/></svg>