<?xml version="1.0" encoding="UTF-8"?><svg id="a" xmlns="http://www.w3.org/2000/svg" viewBox="0 0 250 250"><path d="M134.22,237.55c-42.52,38.98-105.24-35.9-126.53-68.28-7.49-11.38-8.48-35.79.29-46.23C43.93,80.3,81.81,44.56,123.46,7.79c35.68-4.56,119.33-21.8,123.7,31.23,2.54,30.83.68,59.87-5.84,89.61-35.29,38.92-69.01,74.01-107.1,108.93ZM120.99,220.36c36.96-33.88,68.27-67.2,101.82-104.59,2.58-25.54,3.82-51.25,2.89-75.25-1.05-27.05-75.95-14.02-93.86-11.83L33.68,125c-8.57,8.41-12.99,25.52-5.24,36.2,15.05,20.73,65.46,83.98,92.54,59.16Z"/><path d="M163.82,47.69c16.55-4.42,33.84,2.74,38.4,18.19,4.72,15.98-.44,34.79-19.06,39.91-14.63,4.03-33.49-1-38.76-18.89-4.37-14.85.69-34.22,19.42-39.22Z"/></svg>