<?xml version="1.0" encoding="UTF-8"?><svg id="a" xmlns="http://www.w3.org/2000/svg" viewBox="0 0 250 250"><path d="M198.09,246.77c-35.83-3.53-34.09-43.74-58.58-54.01-11.83-4.96-19.66-12.88-26.25-23.86-11.02-18.37-36.37-10.09-58.18-47.23-3.81-6.49-9.6-14.27-14.56-19.79-11.62-2.52-22.95-3.41-31.18-12.5C-1.45,77.45-.07,56,13.83,46.68c24.41-16.37,50.31-29.32,78.75-36.97,24.83-6.67,78.86-12.05,100.49,3.32,7.95,5.65,9.81,14.16,5.23,22.92,20.73,49.12,31.76,101.46,31.49,155.03-.1,19.78-4.09,58.51-31.7,55.8ZM58.82,57.87c33.97-24.04,74.96-32.19,115.15-31.43,1.63.03,4.44-1.5,5.46-2.29,1.02-.79-2.68-4.89-4.42-5.02-49.85-3.65-84.26,5.31-129.44,26.56l13.25,12.17ZM170.5,143.55c18.54,1.47,30.39,16.17,29.24,33.7-.69,10.58-7.28,18.48-12.84,27.08-.52,6.44,11.93,14.9,18.89,9.56,10.81-8.3,1.81-68.57-.17-82.23-12.91-1.26-24.16-5.88-29.96-15.77-5.76-9.81-6.44-23.11,1.15-32.92l13.33-17.24-9.14-23.94c-38.82.04-91.95,14.81-120.94,40.3l18.34,14.72c5.43-15.46,15.68-23.26,30.84-26.44,16.18-3.4,36.78,3.03,47.04,16.99,9.21,12.53.51,29.9-11.87,35.52-13.6,6.17-24.88,4.79-41.88,3.61,10.01,9.66,23.24,10.98,37.21,24.21,9.27-4.26,19.75-8.04,30.78-7.17ZM41.57,70.32c1.98-6.62-5.14-10.8-9.05-11.85-4.5-1.21-12.4-.99-13.67,5.15-1.12,5.41,4.73,9.34,8.64,10.53,4.46,1.36,12.48,1.52,14.08-3.83ZM204.82,114.61c-2-11.23-4.1-20.45-7.55-30.75-6.27,5.43-9.04,12.84-8.02,19.93,1.08,7.5,8.33,11.44,15.57,10.82ZM142.32,100.24c-.1-9.04-21.55-19.94-39.85-11.76-4.53,2.02-8.13,7.03-7.3,11.65,2.43,13.61,47.34,15.92,47.15.11ZM177.33,189.66c4.42-3.66,6.94-11.29,5.55-18.11-3.08-15.08-24.05-15.14-36.22-8.98,12.09,8.23,20.91,15.65,30.67,27.09Z"/></svg>