<?xml version="1.0" encoding="UTF-8"?><svg id="a" xmlns="http://www.w3.org/2000/svg" viewBox="0 0 250 250"><path d="M153.08,227.73c-31.22,28.75-82.51,20.39-109.31-5.67-13.09-12.73-17.47-31.46-17.26-49.68.31-27.17,4.62-52.95,9.64-79.48,1.58-8.34,8.15-15.1,14.1-17.9,8.85-4.17,17.93-.69,26.21,1.84,4.76-2.91,11.77-6.73,17.96-8.27.29-16.83.98-34.08,7.78-49.09,5.5-12.12,16.2-17.68,29.06-14.29,24.67,6.5,21.33,32.41,23.63,52.81l14.41-21.81c8.73-13.21,22.39-19.18,36.79-12.85,12.52,5.5,21.4,21.07,15.6,36-7.66,19.73-18.41,38.01-28.3,57.22-2.71,5.27-4.02,11.72-3.61,17.87,2.4,35.31-10.26,68.95-36.7,93.3ZM176.63,101.03c9.64-16.33,17.8-31.48,25.37-48.25,1.6-3.55-.44-10.54-3.33-11.92-8.2-3.92-15.53,7.02-19.51,13.49l-28.37,46.11c-1.64,2.66-6.61,4.69-9.11,3.8-2.09-.74-5.2-5.2-5.3-7.7l-2.64-64.32c-.18-4.4-4.89-8.62-8.45-8.91-2.89-.24-7.85,3.44-8.34,7.15-8.89,67.42,7.85,45.12,5.64,65.93l-1.76,16.54c16.87,2.49,30.36,9.14,44.76,16.36,1.87-10.42,5.66-19.14,11.06-28.28ZM103.54,114.17l1.73-19.79c.3-3.39-3.32-8.45-6.51-9.3-15.46-4.12-14.67,30.86-13.8,38.67,6.05-5.38,10.73-7.56,18.58-9.57ZM66.01,122.09l4.2-28.92c.46-3.14-5.89-6.91-8.72-6.73-2.82.18-8.37,3.47-8.77,6.53-1.25,9.55-5.26,34.28,5.14,35.26,2.45.23,7.72-3.15,8.15-6.14ZM70.54,143.72c-4.37,4.14-11.19,6.05-20.16,4.66-.89,10.86-.88,23.05,1.33,34.38,5.82,29.82,54.12,44.45,79.39,32.37,18.64-8.92,49.52-50.51,29.91-65.53-16.55-12.68-35.34-20.49-56.21-21.51-2.49-.12-7.67,3.28-7.69,5.53-.02,2.24,2.28,6.71,4.34,7.8l24.21,12.82c11.8,6.25-4.31,13.61-14.76,36.44-1.07,2.33-5.19,4.47-7.53,3.94-1.87-.42-5.3-4.55-5.09-6.48l2.47-23.1-18.22-12.78-11.98-8.53Z"/></svg>