<?xml version="1.0" encoding="UTF-8"?><svg id="a" xmlns="http://www.w3.org/2000/svg" viewBox="0 0 250 250"><path d="M202.86,217.52c-44.42,37.79-118.92,39.7-156.85-1.38C-8.02,157.63-.64,62.51,63.89,23.1,116.3-8.9,192.58-4.43,223.21,58.32c24.75,50.71,25.47,120.23-20.35,159.2ZM212.76,148.47c8.99-42.37-5.59-99.92-49.25-118.56-15.18-6.48-32.09-5.3-47.97-3.47-31.21,3.6-55.82,22.16-69.79,49.59-14.57,28.61-15.64,59.87-2.33,89.23,9.6,21.18,26.31,37.15,49.51,43.44,47.01,12.75,107.92-4.07,119.83-60.23Z"/><path d="M178.68,77.26c-.09,6.16-3.89,12.59-7.53,15.2-4.96,3.56-12.27,4.28-17.51,1.69-8.3-4.12-10.3-13.4-7.63-21.87,2.08-6.64,9.78-12.27,18.36-11.24,8.02.96,14.46,6.3,14.32,16.23Z"/><path d="M121.63,77.26c-.09,6.16-3.89,12.59-7.53,15.2-4.96,3.56-12.27,4.28-17.51,1.69-8.3-4.12-10.3-13.4-7.63-21.87,2.08-6.64,9.78-12.27,18.36-11.24,8.02.96,14.46,6.3,14.32,16.23Z"/><path d="M100.06,150.61c16.6-10.06,37.83-12.07,56.02-5.31,3.67,1.36,7.22,3.06,10.99,4.11s7.87,1.42,11.55.1,6.83-4.6,7.14-8.5c.22-2.72-.94-5.42-2.65-7.54s-3.95-3.76-6.21-5.3c-14.22-9.64-30.92-16.22-48.09-16.28-17.18-.06-34.76,6.99-45.33,20.53-1.95,2.49-3.67,5.25-4.37,8.33s-.22,6.56,1.84,8.96c2.01,2.34,5.06,3.36,8.07,4.05,3.25.74,6.43-.43,11.03-3.15"/></svg>