<?xml version="1.0" encoding="UTF-8"?><svg id="a" xmlns="http://www.w3.org/2000/svg" viewBox="0 0 165.42 65.66"><path d="M164.16,51.81c.8,1.51-.29,3.33-1.99,3.33H47.65l-1.82,7.71c-.34,1.46-2.06,2.08-3.26,1.18l-7.95-6c-.73-.56-1.75-.56-2.48-.01l-7.99,5.96c-1.2.89-2.92.26-3.25-1.19l-2.24-9.72c-.2-.89-.97-1.55-1.89-1.6l-9.95-.57c-1.49-.08-2.4-1.67-1.73-3l4.54-8.88c.41-.82.24-1.81-.43-2.44l-7.25-6.84c-1.09-1.02-.77-2.82.61-3.4l9.17-3.89c.85-.36,1.36-1.23,1.25-2.15l-1.17-9.9c-.17-1.48,1.23-2.65,2.66-2.21l9.53,2.92c.88.27,1.83-.08,2.34-.84L31.8,1.93c.82-1.25,2.65-1.24,3.47.01l5.42,8.36c.5.78,1.45,1.12,2.33.86l9.54-2.87c1.43-.43,2.83.75,2.65,2.24l-.42,3.37h107.38c1.7,0,2.79,1.82,1.99,3.32l-7.16,13.41c-1.3,2.43-1.3,5.34,0,7.77l7.16,13.41Z"/></svg>