<?xml version="1.0" encoding="UTF-8"?><svg id="a" xmlns="http://www.w3.org/2000/svg" viewBox="0 0 512.47 250"><path d="M469.87,132.13c-2.2-4.5-2.2-9.76,0-14.26l36.74-74.95c5.27-10.76-2.56-23.33-14.55-23.33H186.16c-9.68-10.73-20.94-17.16-33.69-16.72-38.12,1.33-54.02,56.39-65.93,86.4-6.62-9.01-24.09-21.87-34.78-14.02-27.26,20.01-33.15,55.79-29.92,87.91,3.64,36.16,24.83,66.9,62.09,77.07,31.37,8.57,65.44,10.09,95.09-.66,6.19-2.25,11.86-5.36,16.98-9.16h296.06c11.99,0,19.82-12.57,14.55-23.33l-36.74-74.95ZM181.43,214.22c-2.59,1.73-5.4,3.24-8.44,4.51,2.85-29.3-3.77-59.43-24.31-81.51-11.02-11.84-29.5-11.28-39.87.3-18.65,20.83-26.82,46.22-25.61,78.09-15.28-3.62-29.04-17.29-34.8-34.11-10.3-30.11-7.98-63.76,12.52-87.02l21.61,28.38c2.12,2.78,11.07,6.42,13.46,4.31,13.75-12.15,8.84-46.59,38.86-91.32,2.98-4.44,13.25-10.57,18.14-10.94,8.65-.66,19.05,10.13,28.44,26.98,25.12,45.12,42.92,133.7,0,162.33Z"/></svg>