<?xml version="1.0" encoding="UTF-8"?><svg id="a" xmlns="http://www.w3.org/2000/svg" viewBox="0 0 250 250"><path d="M245.13,225.31c-2.97,28.48-64.17,20.67-91.35,19.35-27.07-1.32-21.49-55.6-16.14-71.31l14.05-12.37c1.04-19.86,14.03-35.08,31.47-38.04,19.14-3.25,38.7,7.08,42.88,28.94,5,26.19,26.3,4.28,19.1,73.44ZM207.56,160.86c-5.79-13.38-12.39-18.46-19.98-16.75-7.05,1.59-11.88,8.24-14.45,17.24l34.43-.49Z"/><path d="M47.18,28.46c-29.43,3.47-21.42,70.23-18.53,89.04,1.01,6.56,12.87,17.2,18.99,17.57l64.45,3.96c4.12.25,10.53,5.55,12.23,8.71,1.71,3.16-5.98,12.86-9.86,12.66l-64.78-3.41C-5.06,154.11.26,73.96,8.66,39.26,14.07,16.89,35.42,6.6,56.48,5.24c38.19-2.48,73.46-2.48,111.75-.02,19.54,1.25,41.26,8.86,47.88,29.92,3.53,11.25,14.23,60.17-2.94,62.58-4.26.6-11.72-6.95-12.08-11.36l-2.94-36.13c-1.07-13.1-13.15-21.98-26.17-23.01-41.47-3.26-84.39-3.53-124.78,1.23Z"/><path d="M157.83,98.57c-5.57-.52-13.04-10.61-13.17-15.15-.15-5.31,5.6-16.88,10.97-18.14,10.46-2.46,19.76,6.43,20.27,14.61.53,8.47-5.2,19.88-18.07,18.68Z"/><path d="M60.71,97.61c-14.58-6.69-11.16-25.17-2.71-30.5,4.85-3.07,17.72-1.69,19.93,2.87,2.24,4.62,3.22,15.38,2,20.42-1.19,4.93-14.53,9.37-19.22,7.22Z"/><path d="M108.64,97.94c-15.44-6.23-11.43-26-3.1-31.3,4.47-2.85,18.44-.54,20.45,4.06,2,4.59,2.59,13.69,1.54,19.37-.91,4.94-14.05,9.83-18.89,7.88Z"/></svg>