<?xml version="1.0" encoding="UTF-8"?><svg id="a" xmlns="http://www.w3.org/2000/svg" viewBox="0 0 250 195.85"><path d="M237.45,139.17c-8.67,13.64-22.36,22.23-37.46,25.85-3.03.73-5.14-2.88-3.03-5.17,23.82-25.82,38.42-60.52,26.41-94.97-10.09-28.52-35.32-49.28-63.85-57.06-4.44-1.17-7.32,4.95-3.61,7.66,42.2,36.66,57.43,71.47,28.73,122.22-2.39,4.34-4.96,8.64-7.67,12.94-1.54,2.45-5.26,1.69-5.74-1.16-2.35-14.26-3-28.89-3.08-43.3.05-2.76-1.85-5.27-4.66-5.89-3.2-.71-6.37,1.32-7.07,4.52-4.19,18.77-6.99,37.81-7.05,57.16,0,5.88.26,11.97,1.05,17.88.39,6.23,4.9,12.35,11.71,12.9,34.55,2.33,72.03-14.95,85.71-47.96,2.92-6.6-6.45-11.67-10.39-5.62Z"/><path d="M67.01,58.45c2.49-4.66,5.2-9.26,8.07-13.85,1.52-2.44,5.25-1.66,5.72,1.18,2.36,14.28,3.01,28.92,3.09,43.35-.05,2.76,1.85,5.27,4.66,5.89,3.2.71,6.37-1.32,7.07-4.52,4.19-18.76,6.99-37.81,7.05-57.16-.01-5.88-.25-11.97-1.05-17.88-.39-6.23-4.9-12.35-11.71-12.91C55.38.23,17.89,17.5,4.21,50.51c-2.92,6.6,6.45,11.67,10.39,5.62,8.72-13.72,22.53-22.34,37.74-25.93,3.03-.71,5.13,2.89,3.02,5.17-2.94,3.17-5.76,6.49-8.45,9.97-13.84,18.34-23.41,40.59-22.51,64.11,1.07,38.98,31.69,72.14,67.76,83.23,4.41,1.35,7.51-4.71,3.88-7.53-41.09-37.97-57.76-74.94-29.04-126.7Z"/></svg>