<?xml version="1.0" encoding="UTF-8"?><svg id="a" xmlns="http://www.w3.org/2000/svg" viewBox="0 0 250 250"><path d="M237.64,97.44c-.43-.16-.86-.3-1.29-.46-.91-.56-1.99-.95-3.23-1.15-35.74-13.02-73.49-20.3-111.53-21.29-12.3-.32-13.81,18.81-1.44,19.13,11.8.31,23.52,1.3,35.15,2.81-20.81,1.56-41.5,4.34-61.85,8.93-29.67,6.69-58.08,17.4-85.27,30.93-11.05,5.5-2.68,22.77,8.42,17.25,25.76-12.82,52.43-23.01,80.55-29.34,23.37-5.27,47.1-8.12,70.95-9.38-15.36,6.1-30.25,13.36-44.43,21.89-10.5,6.32-2.19,23.63,8.42,17.25,32.06-19.29,67.21-32.21,104.17-38.13,9.61-1.54,9.96-15.2,1.39-18.45Z"/></svg>