<?xml version="1.0" encoding="UTF-8"?><svg id="a" xmlns="http://www.w3.org/2000/svg" viewBox="0 0 250 250"><path d="M226.19,30.04H26.4c-11.27,0-20.44,9.17-20.44,20.44v149.03c0,11.27,9.17,20.44,20.44,20.44h199.8c11.27,0,20.44-9.17,20.44-20.44V50.48c0-11.27-9.17-20.44-20.44-20.44ZM76.67,113.07c3.36,3.61,3.47,9.14.25,12.88l-50.09,58.07V59.65l1.9,2.04c.05.06.09.12.14.17l45.08,48.39c.29.31.62.58.91.88l1.81,1.94ZM86.1,100.65l-46.03-49.34c-.7-.81-.58-1.64-.34-2.2.25-.58.79-1.27,1.94-1.27h169.81c.24,0,.97,0,1.35.89.38.89-.12,1.42-.28,1.59l-46.98,49.74c-10.36,10.97-24.97,17.26-40.05,17.26s-29.08-6.09-39.41-16.67ZM176.05,113.07l49.84-53.42v124.37l-50.09-58.07c-3.22-3.74-3.11-9.27.25-12.88ZM29.93,203.95l58.62-67.97c2.78-3.22,4.52-6.98,5.39-10.89,9.72,4.88,20.51,7.59,31.56,7.59,11.61,0,22.97-2.96,33.08-8.34.8,4.18,2.62,8.21,5.58,11.64l58.63,67.97c.21.24.46.43.69.65H29.24c.23-.22.48-.41.7-.65Z"/></svg>