<?xml version="1.0" encoding="UTF-8"?><svg id="Objects" xmlns="http://www.w3.org/2000/svg" width="100" height="100" viewBox="0 0 100 100"><path d="M50,99.74s-.08,0-.12,0c-2.21-.03-4.29-.93-5.84-2.53-1.55-1.6-2.39-3.7-2.36-5.92.04-2.3,1.04-4.51,2.76-6.06.05-.04.07-.1.07-.17s-.03-.13-.07-.17c-.03-.03-.08-.07-.17-.07H15.85c-.37,0-.68-.3-.68-.68v-28.42c0-.13-.11-.24-.24-.24-.07,0-.13.03-.17.07-1.55,1.72-3.75,2.72-6.06,2.75-2.21.03-4.31-.8-5.91-2.36-1.6-1.55-2.5-3.63-2.53-5.84-.03-2.25.82-4.36,2.4-5.96,1.58-1.6,3.68-2.48,5.92-2.48,2.36,0,4.61,1.01,6.19,2.76.04.05.11.07.17.07.13,0,.24-.11.24-.24V15.86c0-.37.3-.68.68-.68h28.42c.88,0,1.59.71,1.59,1.59,0,.45-.19.88-.52,1.18-1.44,1.3-2.28,3.14-2.31,5.07-.03,1.85.67,3.61,1.98,4.95,1.3,1.34,3.04,2.09,4.89,2.12,1.88.02,3.65-.69,4.99-2,1.34-1.32,2.07-3.08,2.07-4.96,0-1.97-.84-3.86-2.31-5.18-.33-.3-.52-.73-.52-1.18,0-.42.17-.83.47-1.13.3-.3.7-.47,1.13-.47h28.42c.37,0,.68.3.68.68v28.22c0,.99-.8,1.79-1.79,1.79-.25,0-.5-.05-.72-.15-.23-.1-.43-.25-.59-.43-1.31-1.42-3.09-2.22-5.02-2.25-1.85-.03-3.62.68-4.96,1.98-1.34,1.3-2.09,3.04-2.11,4.88h0c-.03,1.88.68,3.65,2,4.99,1.32,1.34,3.08,2.08,4.96,2.08s3.81-.82,5.13-2.25c.34-.37.82-.58,1.31-.58s.92.19,1.26.53.52.79.52,1.26v28.22c0,.37-.3.68-.68.68h-28.42c-.13,0-.24.11-.24.24,0,.06.03.13.08.17,1.75,1.57,2.76,3.83,2.76,6.18s-.88,4.35-2.48,5.92c-1.57,1.55-3.64,2.39-5.84,2.39ZM68.95,49.89h0,0Z"/></svg>