<?xml version="1.0" encoding="UTF-8"?><svg id="Objects" xmlns="http://www.w3.org/2000/svg" width="100" height="100" viewBox="0 0 100 100"><path d="M84.14,84.83H15.85c-.37,0-.68-.3-.68-.68v-28.23c0-.99.8-1.79,1.79-1.79.25,0,.49.05.72.15.22.1.42.24.59.42,1.31,1.42,3.09,2.22,5.02,2.25,1.86.02,3.61-.67,4.95-1.98,1.34-1.3,2.09-3.04,2.12-4.89.03-1.88-.68-3.65-2-4.99-1.32-1.34-3.08-2.08-4.96-2.08s-3.81.82-5.13,2.25c-.34.37-.82.58-1.32.58s-.93-.19-1.26-.52-.52-.79-.52-1.26V15.85c0-.37.3-.68.68-.68h28.23c.99,0,1.79.8,1.79,1.79,0,.25-.05.49-.15.72-.1.22-.24.43-.43.6-1.42,1.31-2.22,3.09-2.25,5.02-.03,1.85.67,3.61,1.98,4.96,1.3,1.34,3.04,2.09,4.88,2.12,1.88.04,3.65-.69,4.99-2,1.34-1.32,2.07-3.08,2.07-4.96s-.82-3.81-2.25-5.13c-.37-.34-.58-.82-.58-1.32s.19-.93.53-1.26c.34-.34.78-.52,1.26-.52h28.23c.37,0,.68.3.68.68v28.23c0,.99-.8,1.79-1.79,1.79-.25,0-.49-.05-.72-.15-.22-.1-.43-.24-.6-.43-1.31-1.42-3.09-2.22-5.02-2.25-1.85-.02-3.61.67-4.95,1.98-1.34,1.3-2.09,3.04-2.12,4.89h0c-.03,1.88.68,3.65,2,4.99,1.32,1.34,3.08,2.07,4.96,2.07s3.81-.82,5.13-2.25c.34-.37.82-.58,1.32-.58s.92.19,1.26.52c.34.34.52.79.52,1.26v28.23c0,.37-.3.68-.68.68ZM68.96,49.89h0,0Z"/></svg>