<?xml version="1.0" encoding="UTF-8"?><svg id="Objects" xmlns="http://www.w3.org/2000/svg" width="100" height="100" viewBox="0 0 100 100"><path d="M84.15,84.82h-28.23c-.99,0-1.79-.8-1.79-1.79,0-.25.05-.49.15-.72.1-.23.24-.43.43-.6,1.42-1.31,2.22-3.09,2.25-5.02.03-1.85-.67-3.61-1.98-4.95-1.3-1.34-3.04-2.09-4.89-2.12-1.88-.02-3.65.68-4.99,2-1.34,1.32-2.07,3.08-2.07,4.96s.82,3.81,2.25,5.13c.37.34.58.82.58,1.32s-.19.93-.52,1.26c-.34.34-.79.52-1.26.52H15.85c-.37,0-.68-.3-.68-.68v-28.42c0-.13-.11-.24-.24-.24-.07,0-.13.03-.17.07-1.54,1.72-3.75,2.72-6.05,2.75-2.21.04-4.32-.8-5.92-2.36-1.6-1.55-2.5-3.63-2.53-5.84-.03-2.25.82-4.36,2.39-5.96,1.58-1.6,3.68-2.48,5.92-2.48,2.36,0,4.61,1.01,6.19,2.76.04.05.1.07.17.07.13,0,.24-.11.24-.24V15.85c0-.37.3-.68.68-.68h68.29c.37,0,.68.3.68.68v68.29c0,.37-.3.68-.68.68Z"/></svg>