<?xml version="1.0" encoding="UTF-8"?><svg id="Objects" xmlns="http://www.w3.org/2000/svg" width="100" height="100" viewBox="0 0 100 100"><path d="M84.15,84.82h-28.22c-.99,0-1.79-.8-1.79-1.79,0-.25.05-.49.15-.72.1-.22.24-.43.42-.6,1.42-1.31,2.22-3.09,2.25-5.02.03-1.85-.67-3.61-1.98-4.95-1.3-1.34-3.04-2.09-4.88-2.12-.03,0-.07,0-.1,0-1.84,0-3.57.71-4.89,2-1.34,1.32-2.07,3.08-2.07,4.96s.82,3.81,2.25,5.12c.37.34.58.82.58,1.32s-.19.93-.52,1.26c-.34.34-.79.52-1.26.52H15.87c-.37,0-.68-.3-.68-.68v-28.41c0-.88.71-1.59,1.59-1.59.45,0,.88.19,1.18.52,1.29,1.44,3.14,2.28,5.07,2.31,1.85.04,3.61-.67,4.95-1.97,1.34-1.3,2.09-3.04,2.12-4.89.03-1.88-.69-3.65-2-4.99-1.32-1.34-3.08-2.07-4.96-2.07-1.97,0-3.86.84-5.18,2.31-.3.33-.73.52-1.18.52-.43,0-.83-.17-1.13-.47-.3-.3-.47-.7-.47-1.13V15.87c0-.37.3-.68.68-.68h68.27c.37,0,.68.3.68.68v68.27c0,.37-.3.68-.68.68Z"/></svg>