<?xml version="1.0" encoding="UTF-8"?><svg id="Objects" xmlns="http://www.w3.org/2000/svg" width="100" height="100" viewBox="0 0 100 100"><path d="M49.99,99.73s-.08,0-.12,0c-2.21-.03-4.29-.93-5.84-2.53-1.55-1.6-2.39-3.7-2.36-5.92.04-2.3,1.04-4.51,2.75-6.05.05-.04.07-.1.07-.17,0-.09-.04-.14-.07-.17-.03-.03-.08-.07-.17-.07H15.85c-.37,0-.68-.3-.68-.68v-28.41c0-.13-.11-.24-.24-.24-.07,0-.13.03-.17.07-1.54,1.72-3.75,2.72-6.05,2.75-2.22.03-4.31-.8-5.92-2.36-1.6-1.55-2.5-3.63-2.53-5.84-.03-2.25.82-4.36,2.39-5.96,1.58-1.6,3.68-2.48,5.92-2.48,2.36,0,4.61,1,6.18,2.76.04.05.1.07.17.07.13,0,.24-.11.24-.24V15.87c0-.37.3-.68.68-.68h28.41c.13,0,.24-.11.24-.24,0-.07-.03-.13-.07-.17-1.71-1.54-2.72-3.75-2.75-6.05-.03-2.21.8-4.32,2.36-5.92,1.55-1.6,3.63-2.5,5.84-2.53.04,0,.08,0,.12,0,2.2,0,4.27.85,5.84,2.4,1.6,1.58,2.48,3.68,2.48,5.92,0,2.35-1.01,4.61-2.76,6.18-.04.04-.07.1-.07.17,0,.09.04.14.07.17.03.03.08.07.17.07h28.41c.37,0,.68.3.68.68v28.22c0,.99-.8,1.79-1.79,1.79-.25,0-.49-.05-.72-.15-.23-.1-.43-.25-.59-.43-1.31-1.42-3.09-2.22-5.02-2.25-1.86-.03-3.61.67-4.95,1.98-1.34,1.3-2.09,3.04-2.11,4.88,0,0,0,0,0,0-.03,1.88.68,3.65,2,4.98,1.32,1.34,3.08,2.07,4.96,2.07s3.81-.82,5.12-2.25c.34-.37.82-.58,1.32-.58s.93.19,1.27.53c.34.34.52.78.52,1.26v28.22c0,.37-.3.68-.68.68h-28.41c-.13,0-.24.11-.24.24,0,.07.03.13.08.17,1.75,1.57,2.76,3.82,2.76,6.18s-.88,4.34-2.48,5.92c-1.57,1.55-3.64,2.4-5.84,2.4ZM68.94,49.9h0s0,0,0,0Z"/></svg>