<?xml version="1.0" encoding="UTF-8"?><svg id="Objects" xmlns="http://www.w3.org/2000/svg" width="100" height="100" viewBox="0 0 100 100"><path d="M50.01,99.72s-.08,0-.12,0c-2.21-.03-4.28-.93-5.84-2.53-1.56-1.6-2.39-3.7-2.36-5.92.04-2.3,1.04-4.51,2.76-6.05.05-.04.07-.11.07-.17,0-.08-.04-.14-.07-.17-.03-.03-.09-.07-.17-.07H15.87c-.37,0-.68-.3-.68-.68v-28.42c0-.13-.11-.24-.24-.24-.07,0-.13.03-.17.07-1.54,1.71-3.75,2.72-6.05,2.75-2.21.04-4.31-.8-5.92-2.36-1.6-1.55-2.5-3.63-2.53-5.84-.03-2.24.82-4.36,2.39-5.96,1.58-1.6,3.68-2.48,5.92-2.48,2.36,0,4.61,1,6.19,2.76.04.05.1.07.17.07.13,0,.24-.11.24-.24V15.84c0-.37.3-.68.68-.68h28.42c.13,0,.24-.11.24-.24,0-.07-.03-.13-.07-.17-1.71-1.54-2.72-3.75-2.75-6.05-.03-2.22.8-4.32,2.36-5.92,1.55-1.6,3.63-2.5,5.84-2.53,2.25-.03,4.36.82,5.96,2.39s2.48,3.68,2.48,5.92c0,2.35-1.01,4.61-2.76,6.19-.05.04-.07.1-.07.17,0,.08.04.14.07.17.03.03.08.07.17.07h28.42c.37,0,.68.3.68.68v28.42c0,.13.11.24.24.24.07,0,.13-.03.17-.08,1.57-1.75,3.83-2.75,6.18-2.75s4.35.88,5.92,2.48c1.57,1.6,2.42,3.71,2.39,5.96h0c-.03,2.21-.93,4.29-2.53,5.84-1.6,1.55-3.7,2.4-5.92,2.36-2.3-.03-4.51-1.04-6.05-2.75-.04-.05-.1-.07-.17-.07-.13,0-.24.11-.24.24v28.42c0,.37-.3.68-.68.68h-28.42c-.13,0-.24.11-.24.24,0,.07.03.13.07.17,1.75,1.58,2.76,3.83,2.76,6.18s-.88,4.35-2.48,5.92c-1.57,1.55-3.64,2.4-5.84,2.4ZM99.07,50.09h0,0Z"/></svg>