<svg xmlns="http://www.w3.org/2000/svg" viewBox="0 0 1812.4 946.84"><path fill="#eae5d8" d="M380.93 214.76c-7.14 1.09-6.43 1.21-13.07-1.58-3.28-.8-9.8-1.27-13.16-.96l-6.23-2.83-6.77.79-6.13-3.45-6.52-.87-6.81 1.02-6.6-.36-6.52-.86-6.19-3.09-6.66.05c-3.36 0-9.8-1.08-12.98-2.18-3.26-.31-9.85-.98-13.11-1.33l-6.2-2.97c-3.35.77-10.07 1.42-13.5 1.25-3.09-1.41-9.35-4.14-12.49-5.44l-6.56-.67-6.94 1.88c-3.02-1.59-9.27-4.2-12.53-5.19l-6.64-.09-6.5-.98-6.72.44-6.18-3.13c-5.91-.83-13.98.12-19.9-.49l-6.24-2.74-6.53-.85-6.73.39c-6.28-1.55-5.92-1.9-12.27.1l-5.83.89-5.83 2.67-3.55 5.3c-1.25 3-4.39 8.53-6.25 11.19-1.5 7.2-.96 6.68 1.28 13.27l-1.04 6.42c-1.41 3.06-3.31 9.25-3.8 12.58l.16 6.6-1.8 6.31.56 6.66-.81 6.46c-2.97 6.23-2.95 5.95-2.5 12.78-2.87 5.56-3.73 13.03-3.66 19.18l-2.77 6.16-.45 6.51-1.35 6.37v6.58l-1.38 6.37c1.13 6.94 1.32 6.32-1.35 12.96-.2 3.28-1.63 9.67-2.83 12.73-.71 3.17-1.44 9.7-1.45 12.96l-.31 6.03 1.24 5.9 1.4 5.74 3.05 5c1.17 6.23.78 5.88 5.37 10.9 4.53 4.98 4.43 4.64 10.98 6.73l2.51 6.43 6.16 2.68 2.78 6.15 5.67 3.19 3.03 5.89c4.07 3.9 9.91 8.91 14.62 12.03l3.49 5.43 5.88 4.05-.16 6.91-2.03 6.07.11 6.19c-8.45 5.68-16.44 14.11-25.46 19.02l-7.62-.12-5.42 4.19-6.43 2.2-4.49 6.01-6.7 1.67-5.86 3.33-5.78 3.5-6.94 1.22-3.47 5.5-4.37 4.11-4.18 4.68-2.36 5.77c-.51 3.23-.44 9.66.03 12.9-.77 3.18-2.54 9.52-3.51 12.65l-.86 6.46.49 6.66-2.85 6.16c.21 3.27.27 9.92.13 13.2l-4.16 5.96c-.37 3.28-.64 9.81-.54 13.1-1.07 3.12-2.71 9.45-3.27 12.69.56 3.36.58 9.83-.01 13.18l-2.63 6.19-.62 6.5-1.06 6.43.72 6.7-2.53 6.21-1.14 6.42c.54 3.29.96 9.99.83 13.32l-4.37 5.94.88 7.04-1.01 7.01 4.11 6.12 1.6 6.56 3.7 6.01 7.02.55 6.31 2.57 6.54 1.03 6.35 2.3 6.58.79 6.67.2 6.48 1.42 6.75-.32c6.64 2.47 6.22 2.35 13.22 1.19l6.29 2.71 6.61.6 6.35 2.31 6.77-.46 6.75-.36 6.4 1.99 6.71-.02 6.05 4.25 6.67.24c3.18 1.02 9.67 2.37 12.99 2.7 6.81-2.46 6.29-2.91 13.64-1.56l6.01 4.52c3.39-.61 10.23-1.47 13.66-1.69l6.03 4.44 6.65.38c3.38-.72 10.07-1.1 13.51-.7l6.17 3.5 6.91-1.33 6.07 4.17 7.03-2.11 6.62.54 6.08 4.06 6.51 1.31 6.83-.75 6.37 2.23 8.02-.21 4.66-6.41 5.99-4.94c.13-3.53.74-10.61 1.34-14.06-1.07-8.21.65-18.16 4.96-25.28-.68-3.28-1.06-9.81-.72-13.13l3.33-6 .7-6.4-1.2-6.69c1.58-2.94 4.08-9.06 4.96-12.27l.32-6.46 1.7-6.25-1.06-6.67 2.89-6.07-.83-6.63 1.44-6.29.28-6.47 3.89-12.44 1.29-6.32-.97-6.66 1.36-6.31 2.87-6.09-2.09-6.84c.08-3.66.66-11.02 1.1-14.66-2.14-7.24-2.19-7.29-7.28-12.79l-4.04-5.46-5.95-3.51-4.56-4.93-3.68-5.84c-3.54-5.11-10.52-9.59-15.81-12.62-3.97-6.29-3.35-5.64-10.11-8.86l-2.49-7.06-5.49-4c-2.03-2.38-5.02-7.61-6.11-10.54.92-3.12 1.68-9.47 1.58-12.72l4.78-4.8 2.74-6.6 6.47-1.61c2.98-1.58 8.12-5.58 10.42-8.05 3.11-1.3 9.57-2.9 12.92-3.26l4.91-4.6 6.61-1.34 4.75-4.92c2.83-1.58 8.68-4.41 11.67-5.66l5.17-4.13c2.95-1.22 8.33-4.48 10.71-6.61 2.58-7.03 2.68-6.4 8.25-11.06 2.22-6.91 2.25-6.55.85-13.68l2.59-6.32.11-6.69-.65-6.81 1.65-6.46c1.24-3.13 3.39-9.53 4.3-12.77l-.91-6.85c.57-3.32 2.53-9.75 3.89-12.83l-1.65-6.96 2.33-6.36-.88-6.84 1.18-6.53 4.02-6.1 1.47-6.49c.15-3.32.95-9.92 1.6-13.18-.1-3.37.8-9.93 1.8-13.15-1.33-6.7-1.51-6.69.51-13.35l.11-6.7 2.38-6.36-1.39-6.68.85-6.66-.78-6.92c-6.46-4.12-5.95-3.34-9.3-10.29l-6.69-1.81ZM276.47 604.62l.86 6.6-3.37 5.91 1.28 6.79c-.85 3.13-2.92 9.21-4.17 12.19l-.69 6.54-3.07 5.74-1.52 6.36c-1.95 2.67-4.85 8.44-5.86 11.59-2.44 2.25-6.41 7.32-7.98 10.25l-5.59 3.62-5.06 3.83c-1.91 2.61-6.23 7.48-8.6 9.71-2.64 1.89-8.28 5.24-11.22 6.65l-6.79.12-5.7 3.93c-5.81-.02-13.75-.18-19.55.05-6.8-.03-6.73-.23-12.63-3.43l-6.98.36-6.57-1.65c-3.2-1.21-9.05-4.47-11.76-6.57l-4.18-5.84-5.47-3.55c-6.77-4.65-13.66-11.7-18.66-18.19l-2.75-5.97-4.9-4.92c-.41-7.22-2.31-13.15-6.36-19.17l1.32-6.83-.06-6.37 1.98-6.15.14-6.39 2.77-5.78.42-6.56 4.11-5.14.53-6.86 3.02-5.7 4.45-4.76 5.3-4.01 3.42-5.35 3.61-5.25 5.11-3.91c1.95-2.52 5.85-7.66 7.75-10.23l6.06-2.73 4.65-4.26 1.77.22 1.86 7.14-.86 7.39 1.3 7.34 6.07 4.84 1.5 6.1 6.29-.91c2.94-1.62 8.15-5.62 10.47-8.04 1.69-2.81 4.9-8.58 6.38-11.5l5.02-4.76-.61-7.2 1.95-6.04 3.26-5.94-1.17-6.62 2.95-6.4-3.05-6.37-.71-6.35 1.11-6.78c-1.34-3.05-4.66-8.75-6.66-11.41l-.97-6.62-2.75-6.29.61.19 6.33 1.87 4.07 5.46c2.88 1.79 9.08 4.38 12.34 5.3l2.7 6.45 6.19 3.26c1.41 2.99 4.2 8.95 5.59 11.94l4.64 4.88 2.64 6c.43 3.28 2.15 9.56 3.46 12.59l-.96 6.82c.81 3.11 2.65 9.35 3.65 12.41l-.02 6.46 2.84 1.11 2.95-1.86c.71-1.63 2.5-5.68 3.98-6.75 1.69 2.69 5.22 7.98 7.07 10.56 5.22 3.99 5.19 3.77 7.78 9.85.92 3.04 1.92 9.25 1.98 12.43l3.57 5.73-1.73 6.43 2.83 6.33-2.98 6.08ZM1059.38 628.03l-.62 6.64-2.1 6.55c1.56 8.26.18 18.18.84 26.49l-4.25 5.85c.17 6-1.53 13.96-2.72 19.8l-2.79 6.05-5.44 4.76-.77 6.96-3.22 5.78-5.96 4c-1.43 3.04-4.06 9.24-5.28 12.37-2.31 2.36-6.82 7.22-9 9.7l-6.49 2.75-4.82 4.34c-2.77 2.05-7.16 6.73-9.09 9.59-6.74 2.12-6.39 1.95-11.11 7.03-5.17 2.79-12.7 5.47-17.98 8l-6.12 2.31-6.57.86c-2.77 2.02-8.69 5.38-11.85 6.7l-6.56 1.05-6.52 1.38-6.77-1.34c-3.28-.17-9.88-.84-13.12-1.34-3.24.74-9.84 1.21-13.15.92-6.92-2.08-6.25-1.87-13.24-.06-7.45-3.57-16.71-7.38-25.11-7.29l-4.81-5.28-6.78-.75-5.92-2.73-3.94-6.02-6.6-1.64-5.78-3.09-3.68-5.77c-6.35-5.16-13.97-11.19-20.53-16.08-1.76-2.74-5.42-8.2-7.29-10.87-2.61-7.8-7.07-16.76-13.16-22.44-.83-3.2-2-9.72-2.33-13.01l-5.39-4.96.68-6.96-2.04-6.12c-.37-5.88-2.82-13.47-5.06-18.88l2.03-6.64-2.45-6.4 3.02-6.41-3.13-6.67 3.84-6.11c-1.67-6.53-1.25-13.24.59-19.65l4.68-5.4c1.25-2.95 3.73-8.89 4.94-11.85l-.4-7.2c1.66-6.45 5.35-12.14 10.02-16.81l3.83-5.25 4.89-4.45c1.21-3.11 3.89-9.34 5.3-12.38l5.97-3.39 3.39-5.8 5.09-4.13 6.5-2.35 5.4-3.51c2.14-2.5 6.99-6.77 9.76-8.55l5.1-4.15 5.82-2.94c3-1.24 9.19-3.35 12.33-4.18l5.27-4.6 7.08.83 5.59-4.36 6.55-.72 6.78 1.25c5.72-1.19 13.45-3.21 19.24-3.98 5.34 2.78 13.26 3.95 19.14 4.71l6.56-.22 6.23 1.77 6.39 1.09 5.74 3.25 6.43 1.13 6.71.77 5.63 3.37c2.93 1.42 8.97 4.1 12 5.32l3.77 6.15c3.11 1.29 9.42 3.71 12.59 4.84 3.68 4.58 9.44 10.13 13.7 14.15 4.14 4.2 8.05 11.16 10.77 16.34 2.2 2.47 6.95 7.17 9.43 9.36l1.15 6.83 3.58 5.45 2.46 6.01.97 6.56 2.17 6.04 3.7 5.63c1.45 5.65 4.18 13.14 4.76 18.97l1.85 6.38-.28 6.61Zm-74.6 59.26c1.91-2.69 6.33-7.57 8.78-9.8 1.8-7.88 5.1-17.19 4.19-25.38l3.73-5.96c-.56-3.19-1.53-9.62-1.92-12.83-.93-3.05-2.01-9.26-2.14-12.44l1.47-6.91-4.23-5.41-2.3-5.9-.04-7.06c-1.94-2.74-6.47-7.47-9.12-9.52l-3.61-5.56-4.4-4.95-2.97-6.57c-2.51-2.32-7.96-6.43-10.88-8.19-6.78-1.83-6.73-1.78-11.9-6.59l-6.88-.98c-3.12-1.22-9.49-3.39-12.71-4.33-5.98-.97-14.26-1.2-20.2-2.45-3.21 1.32-9.57 4.02-12.73 5.41-3.26.55-9.36 2.59-12.27 4.15-6.13.05-13.63 3.25-19.04 5.89-3.98 4.42-9.7 10.18-14.75 13.4l-2.28 6.7c-5.26 3.79-9.73 9.21-12.38 15.13l-1.13 6.66-5.2 4.98.17 6.93-1.1 6.39-4.13 6.03c1.03 3.28 2.39 9.84 2.67 13.25l-1.75 6.69c1.21 8.92 4.17 17.02 9.29 24.44.85 3.14 3.33 9.09 4.96 11.91l2.21 6.34c1.61 2.95 5.66 8.1 8.15 10.37l6.01 3.19c2.04 2.65 6.42 7.82 8.7 10.27l7.41.3 4.76 5.18c3.18.82 9.43 2.85 12.48 4.07 3.35.58 9.72.58 13.07.02l6.16 3.1 6.49-2.1 6.57 2.65 6-4.22 6.9 1.95c4.72-3.42 11.75-7.05 17.1-9.32l7.08-.39c2.99-1.42 8.55-4.93 11.11-7.02l2.65-6.7c3.13-4.74 8.7-10.13 11.94-14.79ZM1493.48 779.75l-5.24.9-4.97-2.95c-1.59-2.89-4.67-8.72-6.15-11.66l-4.3-4.99-1.84-6.69-4.21-5.05c-2.41-5.4-7.28-11.76-11.12-16.21l-5.52-4.17-1.24-7.11-6.85-1.35c-2.96-1.31-8.84-4.26-11.69-5.82l-6.4 3.54-6.37-1.08-5.57 4.13-4.17 5.86-1.74 6.31 1.97 6.43.28 6.38-.48 6.35-2.37 6.29 2.6 6.46.22 6.38-4.42 7.63-7.83 2.5-6.08-1.83-6.18 3.05-6.09-1.42-6.14.79-6.09-1.84-6.13.28c-6.67-4.07-6.16-3.41-9.82-10.34l.34-6.49-1.43-6.49-.41-6.49 2.51-6.49-2.76-6.49.57-6.49 2.22-6.49c.17-3.24.41-9.74.49-12.99-2.79-7.89-1.6-17.87-.4-25.97-.72-3.2-1.33-9.7-1.2-12.98-.67-3.19-1.38-9.72-1.41-12.98l1.58-6.49-2.13-6.49 1.41-6.49-.97-6.49 2.7-6.49c-.3-3.3-1.46-9.78-2.31-12.99.03-3.25-.26-9.75-.59-12.99l.46-6.5 1.72-6.5c-.26-3.34-1.66-9.83-2.77-12.99l.61-6.5 2.69-6.49-1.75-6.49.81-6.5-1.34-6.5c.64-3.23.99-9.71.69-12.99l-1.21-6.49.86-6.5.43-6.5-1.01-6.5 4.35-7.04 6.99-2.58 6.71-.02c3.34-.53 10.02-.93 13.4-.8l6.68-.99c6.81 1.67 6.65 1.68 13.41-.09l6.71.63c3.3-.88 10.03-1.98 13.44-2.18 3.27.91 9.98 1.96 13.38 2.09l6.58 2.33 6.8-1.54 6.64.99 6.83-.85 6.7.63 6.17 3.05 6.76.08 6.49 1.59 5.46 4.08 6.35 2.04 5.36 3.91 5.55 3.57c2.32 2.4 6.5 7.53 8.35 10.3 2.63 1.97 7.38 6.4 9.51 8.89 1.63 2.81 5.01 8.4 6.72 11.16l5.01 4.61 3.13 5.79 4.14 5.41 1.49 6.55c1.26 3.08 2.92 9.5 3.27 12.82l2.42 6.41 1.04 6.7c.3 3.37.22 10.19-.22 13.56l.91 6.79-.8 6.75-2.79 6.41-.74 6.68-2.49 6.25-1.19 6.65-4.62 5.3.44 7.64-5.22 4.8c-1.74 2.88-5.9 8.06-8.33 10.38-1.51 3.07-5.37 8.43-7.81 10.83-7.14 3.61-10.88 8.71-14.93 15.31l1.85 8.2c3.09 4.7 7.53 10.95 11.28 15.15l2.18 6.06c1.99 2.51 6.37 7.17 8.74 9.33 1.01 3.03 3.35 9.02 4.66 11.93l4.74 4.43c1.59 5.59 5.48 12.49 7.82 17.78l-2.59 7.11-7.4 3.47c-3.12-.11-9.39-.42-12.5-.63-3.15-.12-9.4.36-12.5.95l-6.26-1.08-6.41.65-6.11-2.77Zm-30.8-125.89c2.52-2.14 7.55-6.42 10.05-8.56 2.78-1.55 7.81-5.33 10.08-7.56l2.87-5.71 4.8-4.87c.59-3.25 2.37-9.59 3.56-12.67.48-3.28.53-9.81.08-13.09l-2.94-6.51 1.18-7.39-5.31-5.29c-1.27-3.31-3.38-10.15-4.25-13.59l-7.37-2.49-4.48-5.25-6.61-1.75c-2.95-1.97-9.21-5.23-12.52-6.52-3.49.85-10.41 1.49-13.99 1.18l-6.82-.45-6.9-2.07c-3.26 1.4-9.65 4.56-12.7 6.34l-3.39 6.17c0 3.29-1.09 9.57-2.17 12.68l3.21 6.32-1.26 6.34.95 6.33-1.68 6.35.44 6.33-1.23 6.34.98 6.33-.31 6.34 1.46 6.33.45 6.34-2.48 6.36 5.38 6.37c3.01 1.8 9.29 4.66 12.64 5.66 3.2.21 9.63.37 12.83.31 7.58-3.13 17.44-3.11 25.41-4.65ZM853.1 310.92l2.46 6.75c-3.64 10.18-3.01 22.4-5.9 32.77-.83 3.26-2.23 9.84-2.82 13.15-1.23 3.13-4.1 9.21-5.75 12.14l-4.9 4.96c-1.63 5.82-5.73 12.93-8.63 18.19-2.36 2.4-6.59 7.68-8.45 10.49-2.87 1.79-8.73 5.4-11.65 7.11l-3.72 5.95-6.1 2.97-5.23 4.17-6.08 2.78-5.4 4.1-6.98.63-5.87 3.17c-8.48.4-17.41 5.28-25.71 6.67l-6.59 1.06-6.76-1.78c-5.87-.01-13.84.57-19.37 2.71l-6.39-2.46-6.4 3.12-6.39-3.35-6.39 1.51-6.39-2.01c-3.29-.25-9.6.37-12.79 1.23l-6.39-.87-6.4.83c-3.24-.17-9.63.4-12.79 1.13-5.19.17-12.34-1.03-17-3.39l-3.59-4.2c-.23-3.32.32-9.79 1.08-13.02-.36-3.27-1.4-9.79-2.07-13.02.53-3.3 2.07-9.82 3.06-13.02l.54-6.51-.99-6.51-2.59-6.51c1.57-5.71 1.71-13.77 3.1-19.52l-2.32-6.51 2.45-6.51-.09-6.5-1.65-6.51c.92-3.22 1.67-9.67 1.47-13.02l-3.15-6.51c1.12-3.22 2.79-9.67 3.32-13.02-.54-3.27-1.62-9.76-2.16-13.02l1.12-6.51c.06-3.28-.33-9.78-.78-13.02l1.68-6.51-.13-6.51c-1.66-5.68-3.07-13.6-2.96-19.54l2.81-6.51.26-6.51-.04-6.51-2.96-6.51.21-6.51c.9-3.17 1.85-9.72 1.87-13.03-1.5-6.78-1.51-6.29.71-13.03l-1.85-6.52c.34-3.04 1.53-9.08 2.54-11.95l5.44-1.77 6.62-.02 6.62-.14 6.62 1.21 6.63-1.08c3.28.53 9.92 1.34 13.23 1.6l6.63-1.1 6.62 1.82 6.64-3.34c7.1 2.09 6.26 2.02 13.25.03 3.38-.22 9.96.32 13.25 1.07l6.64-.86c6.67 2.65 5.96 2.69 13.03 1.47l6.28 2.26 6.49.42 6.9-1.05c6.76 2.04 6.59 2.34 11.47 7.22 5.47 2.04 12.83 5.06 18.72 5.53 4.86 3.15 11.33 7.75 15.84 11.38l6.96 1.68c5.56 10.21 8.52 13.01 18.59 18.7l2.73 6.18 4.48 4.84 3.59 5.49 1.37 6.71 5.35 4.59-.72 7.47 5.28 4.87.78 6.64 2.72 5.97c-.8 7.15-1.09 6.37 2.01 12.89l.46 6.49 2.48 6.21 1.21 6.44-1.88 6.62c.29 3.23.08 9.69-.43 12.9Zm-82.52 61.22 2.96-6.57 5.38-4.02 4.2-5.16c3.95-7.28 8.07-16.3 9.94-24.4.2-3.26 1.24-9.73 2.08-12.89l1.1-6.43 2.41-6.49c-1.27-5.78-2.36-13.79-4.31-19.4l-1.09-6.43-2.52-6.02c-.24-3.38-1.49-10.01-2.48-13.24l-5.24-4.6-2.73-6.08-4.67-4.67-4.16-5.14-5.79-3.3-4.06-5.57-6.16-2.49-5.49-3.84c-5.59-1.97-13.56-2.92-19.41-3.64l-6.48-.6-6.32-2.79c-3.29-.3-9.89-.12-13.16.36l-6.49 2.03-6.64-2.14-6.31 3.55-5.87-.64c-.15 3.19-1.66 9.47-2.75 12.49-.24 3.45.4 10.02 1.28 13.36l-.84 6.68.85 6.68c-.16 3.4.44 10.05 1.18 13.36.17 3.45-.64 10.05-1.62 13.36l.03 6.68 1.86 6.68v6.68l-1.06 6.68c.37 3.34 1.42 10.06 2.09 13.36-.52 3.37-2.05 10.1-3.04 13.37l-.53 6.68 1 6.68 2.6 6.68c-1.57 5.88-1.69 14.16-3.06 20.07 2.03 2.12 6.1 6.4 8.11 8.54l6.76.16 6.82-1.44 6.75 1.45 6.8.09 6.62-3.41c12.96 3.05 14.74 2.16 26.47-3.41l6.71-1.31 6.05-3.08 5.4-4.11 6.82-2.35ZM725.67 779.06l-5.96 2.63c-8.48-3.36-16-1.78-24.17 1.46l-6.17-3.05-5.66.94-3.77-4.37c1.14-5.63-1.3-13.07-2.52-18.52l.38-6.58 2.35-6.6c.17-3.3-.06-9.87-.47-13.15l.33-6.58-2.57-6.55-.04-6.58 1.37-6.59c-.04-3.28.3-9.91.68-13.17-1.43-3.59-3.11-11.28-3.63-15.12-7.75-1.65-7.44-2.58-15.31-.16-6.02-1.04-14.35-1.43-20.19-3.37l-6.74-.3-6.76 2.46c-3.36.49-10.11.6-13.48.21l-6.72-2.67q-6.73 1.77-13.49.25s-6.75-.35-6.75-.35l-5.78 2-4.59 3.99c.89 6.63.31 6.58-2.07 12.54l3.38 6.63c-.81 3.31-2.67 9.91-3.7 13.16l3.43 6.63-3.16 6.57 3.01 6.63c.12 3.41-.75 9.92-1.73 13.19 2.09 6.85 2.14 6.23.44 13.21.93 7.3.75 6.58-2.16 13.2l-1.32 4.47-3.12 3.64c-2.77.3-8.44 2.1-11.05 3.13-5.56-.47-13.17 0-18.74-.33-3.11-.58-9.36-.81-12.5-.48l-6.3-5.06-3.96-6.43-1.55-6.47 3.59-6.47c-.27-3.41-1.94-9.8-3.3-12.94-.39-3.27-.12-9.71.53-12.94l2.51-6.47-2.18-6.47 1.4-6.47-.18-6.47c.34-5.8 1.31-13.65.05-19.4.34-3.22.83-9.7.98-12.93l-2.24-6.47c.54-3.22.68-9.69.28-12.94.43-3.21.63-9.71.4-12.94l-1.75-6.47 3.39-6.47-3.55-6.47 2.64-6.47-1.17-6.47.11-6.47 1.81-6.47c-1.59-6.53-1.57-6.46.16-12.95l-2.94-6.47-.84-6.47c.74-5.82 2.49-13.66 3.63-19.41l-2.91-6.47-.26-6.47 2.13-6.48-1.37-6.47 2.5-6.48.08-6.48-3.78-6.48 4.41-7.9 7.87-2.99 6.3 1.76c3.18-.67 9.46-2.4 12.53-3.43 3.23.58 9.55 2.37 12.62 3.56l6.25-3.8 6.09 1.87c1.74 4.98 2.86 12.25 4.73 17.2l-.45 6.73 2.2 6.72-2.92 6.75.89 6.73-.78 6.74 3.02 6.71-3.3 6.75 3.1 6.72-1.11 6.74.67 6.73.39 6.73-1.34 6.74c1.29 7.37 1.14 6.6-1.53 13.49l1.74 5.88c7.3 2.2 16.2 4.58 23.67 6.14l6.74-1.53 6.73.52c6.03-.93 14.27-.61 20.2.82l6.74-2.5 6.73-.26 6.73 2.03 6.74-1.07 6.74.6c2.52-.94 7.04-3.58 9.09-5.31l2.88-5.22-.26-6.75-2.66-6.77c3.13-10.65.69-22.87.44-33.72-.66-7.29-.44-6.89 2.49-13.47-.62-3.39-2.07-10.16-2.88-13.51l3.48-6.72c-1.51-6.8-1.48-6.81.36-13.5l-2.74-6.77c1.75-2.16 4.97-6.72 6.36-9.12 6.01.98 6.04.26 11.37-1.88 5.4.15 12.76.76 18.16.57l6.06.49 6.08-1.8 6.52 5.66 3.66 6.58c-.48 5.78 0 13.64.45 19.4.68 3.22 1.48 9.66 1.59 12.94-.75 3.23-1.2 9.64-.89 12.94-1.02 5.72-1.25 13.65-1.94 19.41.45 5.76.51 13.66 1.12 19.4.82 3.17 1.68 9.65 1.69 12.93l-1.12 6.47.47 6.47c-1 5.73-1.08 13.71-2.31 19.4l2.66 6.47-.28 6.47-2.8 6.47 2.43 6.47-1.91 6.47 2.21 6.47c-.83 3.2-1.98 9.66-2.28 12.94l2.45 6.47c-1.32 9.05-3.42 16.75-.4 25.88l-2.29 6.47c1.48 6.67 1.42 6.44-.5 12.94l2.83 6.47-1.31 6.47c.97 3.18 2.13 9.64 2.3 12.96-.58 3.69-2.51 11.33-3.56 14.94l-8.44.71ZM1255.46 339.62c-6.81-.18-6.81.22-12.7 3.22-3.11-.98-9.45-2.21-12.7-2.43-3.11.99-9.47 2.41-12.7 2.81l-6.35-3.03-6.35 2.05-6.35-1.1-6.35 1.65-6.36-2.15-6.36 1.69-6.36-1.04-4.52 2.77-4.36 4.6c.21 3.44 1.7 10.07 2.92 13.29l-2.32 6.72-.31 6.69c1.32 2.61 3.89 8.43 4.5 11.26l4.65 1.8 6.45.25 6.45.27 6.45 1.77 6.47-3.64c3.3-.08 9.73.73 12.9 1.6 3.22-.33 9.7-1.06 12.92-1.45l6.44 3.18c5.87.6 13.74-.46 19.38-2.1 3.19.88 9.61 1.59 12.91 1.4l6.46-.51 6.45 1.73c3.22.02 9.72-.31 12.93-.64l4.89 1.43.49 4.9 3.42 6.42c-.45 3.21-1.76 9.58-2.61 12.71.84 3.14 2.02 9.54 2.36 12.78l-2.57 6.34c-.1 3.14-.3 9.46-.38 12.6-6.66 2.32-5.94 2.19-12.74.62l-6.51.05-6.51-1.29-6.51 1.54-6.51-2.08c-6.71 2.56-5.92 2.68-13.03 1.27-6.77 1.1-6.62.96-13.02-1.29-9 2.07-17.06 5.05-26.06.99l-6.52 2.32c-3.15-1.3-9.63-2.92-13.03-3.17l-6.52.72-6.51 2.62c-3.21-1.02-9.71-2.61-13.03-3.16l-6.52 1.94c-3.27-.46-9.8-1.6-13.03-2.27l-6.51.31-6.52 2.62c-3.26-.22-9.82-.97-13.05-1.49l-4.17-2.53-2.18-4.18-1.4-6.52 2.52-6.53-2.62-6.53c1.87-6.3.94-13.32-.43-19.58l.31-6.53-1.06-6.53.98-6.53.79-6.53-1.26-6.53 1.43-6.52c-.18-3.25-.63-9.81-.89-13.05.33-3.33 1.78-9.87 2.87-13.05-1.42-3.14-3.38-9.64-3.86-13.05l2.65-6.52-2.22-6.53.54-6.52 1.96-6.53c.05-3.27-.06-9.79-.23-13.05l-2.14-6.53 1.34-6.53c-.17-3.31.4-9.82 1.13-13.05l-1.39-6.53.17-6.53c2.02-9.8 2.1-16.49-1.13-26.11l1.91-6.53.38-6.53-.98-6.53 1.32-6.53-.4-6.53-2.87-6.53 2.9-6.54-2.68-6.54 3.03-5.69c3.03-.66 9.14-2.31 12.13-3.22 3.17.98 9.61 2.51 12.89 3.04l6.44-2.18 6.44-.51 6.44 2.83c7.86-2.33 17.8-2.77 25.77-.84 3.2-.56 9.66-1.51 12.89-1.9l6.45.24 6.45 1.92 6.45.57 6.44-1.93 6.45 2.18c7.92-2.27 17.81-2.56 25.78-.4l6.44-2.13 6.45-.38 6.45 2.99 6.45-3.26 6.46 2.19c2.72.13 8.36.85 10.87 1.88.16 2.83 2.49 8.33 3.76 10.84l-1.03 6.45.86 6.44v6.44l-1.95 6.45 2.54 6.44c-.36 3.19-1.46 9.55-2.22 12.67-3.25-.1-9.73.52-12.93 1.12l-6.73-1.17-6.72 2.86-6.75-3.15c-3.39.01-10.11.57-13.46 1.11l-6.74-.97-6.73.31c-3.3.89-10.04 2.13-13.45 2.46l-6.73-.4-6.74-2.75-6.73 1.68-6.74-1.61-6.74.07c-5.91.17-13.65 2.46-19.52 2.86-.13 3.22.29 9.76.71 12.98l-2.2 6.92-1.15 6.92.75 6.92c.23 3.51 1.39 10.45 2.28 13.86l-2.82 6.92c1.89 2.2 5.84 5.71 8.4 7.08l6.29 1.08 6.3-1.39 6.29 1.05 6.3-2.53 6.28 1.85 6.29-.42c3.13.14 9.45.28 12.59.27l6.3-1.56 6.28 3.51c3.14-.36 9.45-.66 12.6-.59l6.31-2.24 3.58 4.68 4.52 3.51v6.42l-2.06 6.46c-.32 3.2-.4 9.64-.16 12.85l3.08 6.37c-.25 3.34-1.72 9.78-2.89 12.92l1.07 6.28-6.3-.9ZM1259.29 496.15l6.39-2.29c6.76 1.62 6.22 1.57 12.79-.54l6.41 1.99 6.41.19c3.07.23 9.15-.09 12.14-.8 1.09 2.62 3.76 7.59 5.38 9.92l-1.83 6.51 3.12 6.52-1.22 6.51.84 6.52c-.52 3.24-.89 9.76-.73 13.03l-2.36 6.52-.1 6.52 3.16 6.52-2.71 6.52-.3 6.52 1.48 6.52-.45 6.52-.72 6.52 1.26 6.52c-.55 3.25-1.38 9.76-1.66 13.04.45 3.25 1.26 9.77 1.6 13.03-.43 3.25-1.21 9.78-1.55 13.04l.66 6.52 2.66 6.52-.56 6.52-2.23 6.52c0 5.8.33 13.74.67 19.53l-1.86 6.3-1.05 6.3.79 6.75-.84 6.55-4.75 5.24c-.44 5.96-3.67 13.34-5.64 18.9l-6.16 3.72-2.87 5.91-4.91 4.29-3.55 5.59-4.88 4.32c-4.25 4.02-10.8 8.5-16.11 10.98l-6.1 2.31-5.29 4.08c-3.25.81-9.86 1.49-13.2 1.35l-5.61 4-6.59.04-6.16 2.7-6.66-1.84-6.38 2.31-6.47-1.27-6.65.46-6.37-2.28-7.07 1.99c-3.17-1.22-9.31-4.02-12.3-5.62-3.52-.2-9.8-1.63-13.05-2.98l-6.18-2.59-5.1-4.58c-5.54-2.33-12.76-6.16-17.45-9.94-1.97-2.81-5.43-8.77-6.87-11.9l-4.9-4.4-3.53-5.51-5.25-4.51-.93-6.94-4.94-5.05.03-6.99-3.71-5.85 1.06-6.89c-1.08-3.17-2.28-9.62-2.41-12.97.49-3.28.62-9.86.27-13.16l-2.49-6.57 1.93-6.59-.51-6.58-.93-6.58 1.88-6.59-1.66-6.57 1.08-6.59-2.06-6.57 2.71-6.6-1.89-6.57.78-6.59c-.38-3.28-1.23-9.89-1.71-13.16l3.09-6.61-1.21-6.58.98-6.59c-.28-3.33-1.43-9.92-2.27-13.15l2.28-6.6-3.12-6.57 1.55-6.6c-.23-3.3-.06-9.89.34-13.18-.72-3.26-1.37-9.84-1.27-13.18l2.82-6.61.56-4.58 3.29-3.44c5.19-.59 12.11-1.59 16.87-3.93l6.17 3.23 6.13-1.93 6.15-.16c3.12.42 9.29.2 12.38-.42l2.15 5.96 3.27 4.77-1.75 6.65.33 6.63c-.06 8.37 1.11 18.27 2.58 26.5l-2.76 6.66 2.43 6.61-1.56 6.65.51 6.63c-1.51 6.86-1.43 6.64.56 13.26-.79 3.29-1.81 9.92-2.03 13.29l1.99 6.61-.59 6.64 1.54 6.62c-.2 3.3-.57 9.97-.74 13.28 3.27 8.44.37 18.21-1.75 26.57l3.52 6.6.22 6.63-1.61 6.66.99 6.63-2.03 6.67.46 6.75 4.9 5.07 2.32 6.05 4.53 4.61 6.13 2.44c4.83 4.41 4.74 4.34 11.07 5.83l5.15 4.61c8.9 1.84 16.2 4.42 25.31 1.24l6.27-.57 5.56-3.29 6.82.46c4.97-4.87 4.43-4.59 11.2-6.19l4.29-4.81 2.74-5.7 5.02-4.57c1.68-5.88.68-13.82-.39-19.72l-1.53-6.59-.14-6.57 3.44-6.53-3.08-6.61c-.31-5.92 1.19-13.83 1.74-19.7l-1.12-6.59.29-6.57 1.82-6.55c-2.42-6.53-2.56-6.25-1.5-13.17l.15-6.57c.98-3.22 2.31-9.78 2.65-13.12.91-7.32.66-6.6-2.3-13.18l.14-6.57 2.27-6.55c-2.92-8.54-1.59-17.71.07-26.31l-.93-6.59 1.56-6.56-2.7-6.62c.85-3.54 2.97-10.67 4.13-14.14l7.6-.97ZM1687.76 783.87l-6.57.73-6.55 2.01-6.64-2.63-6.57.04-6.83 1.82-6.34-2.61-6.76-.12-5.88-3.62-7.21.55c-6.28-2.1-12.25-6.37-16.66-11.25-3.34-.9-9.65-3.53-12.64-5.25-2.51-2.28-6.96-7.38-8.87-10.18l-2.39-6.68-5.24-4.26-1.55-4.87 1.36-4.66 2.99-3.4 3.05-6.24 5.58-2.93 4.32-4.57c2.6-1.93 8.23-4.71 11.32-5.66l3.74-5.34 7.34-.41 7.22 1.2 3.99 4.95 6.19 2.23 3.36 6.25c5.62 1 13.26 2.37 18.29 5.23 5.37 1.25 12.87 1.09 18.32 1.75 3.16-.27 9.52-.97 12.67-1.38 2.68-1.73 7.75-5.65 10.07-7.85l6.38-2.94 2.16-6.58c-.08-3.36-.06-10.12.05-13.48-2.08-2.58-6.26-7.75-8.34-10.31l-4.53-4.25-3.71-6.21c-10.52-.1-17.01-4.21-25.29-9.97l-6.4-2.35-5.34-4.51c-5.91-1.62-13.94-3.87-18.87-7.7-3.3-.88-9.69-3.3-12.75-4.83-2.63-2.25-7.78-7.02-10.19-9.5l-6.96-2.28-2.27-7.43-7-2.81c-1.33-3.22-4.47-9.29-6.29-12.24l-5.17-4.94-2.93-6.28c-.5-3.51-2.41-10.19-3.8-13.44l1.19-6.93-.81-6.7.95-6.71-1.31-6.87c.9-6.06 3.75-13.93 4.3-20.06l3.88-5.76 5.24-4.67 3.73-5.38c4.66-7.08 12.57-13.24 18.87-18.75 5.49-2.35 13.14-5.25 18.1-8.65l7.04.19 6.32-1.77c5.78-4.16 5.41-4.31 12.61-5.15l6.91 3.05c6.46-1.42 13.23-1.62 19.58.47 8.86-.71 18.07.07 26.4 3.38l5.12 5.03c2.94 1.58 9.13 3.94 12.37 4.75l5.88 3.13c5.11 3.11 10.74 8.95 14.74 13.34 1.06 2.59 3.04 7.93 3.97 10.58l-4.02 4.55-5.5 3.12-3.55 5.53-6.58 1.77c-3.83 5.48-3.52 5.24-9.6 8l-3.42 5.72c-2.91.24-8.46-.01-11.26-.81l-5.91-2.66-6.44-1.36c-5.74-3.87-5.23-3.68-12.11-4.02l-6.22-1.41-6.4.14-6.28-.44-6.22.9c-6.91-1.25-6.54-1.21-13.18 1.15l-3.78 5.55c-.96 3.13-3.81 8.78-5.77 11.4 1.76 2.54 4.72 7.89 5.89 10.74l4.19 4.25 2.85 5.86 6.75.96 5.08 4.29 6.19 2.05 5.94 2.57 5.01 4.43 6.87.7 4.95 4.55c2.96 1.4 9.11 3.54 12.3 4.31l5.59 3.27 4.77 4.93 6.5 1.47 5.99 2.68c4.21 4.05 10.37 9.08 15.23 12.32 2.37 2.24 6.58 7.19 8.41 9.89l3.7 5.31 4.94 4.69 1.2 6.7c1.75 2.81 4.84 8.69 6.18 11.72-1.95 8.14-1.17 18.08.68 26.17-2.22 6.76-2.08 6.08-.48 12.97-1.61 3.02-3.77 9.24-4.34 12.61-1.73 5.71-4.2 13.44-7.38 18.54l-5.21 4.43-3.49 5.73c-2.42 2.35-6.92 7.41-8.99 10.08-2.98 1.55-8.9 4.87-11.78 6.6-3.31.61-9.67 2.71-12.68 4.22-3.24.88-9.37 3.54-12.26 5.26l-6.92-.76-6.36 2.02ZM1072.92 395.5l1.93 6.38c-.49 3.26-1.4 9.81-1.82 13.07.44 3.27 1.79 9.76 2.68 12.94l-2.32 6.51.17 6.49c-1.21 2.27-4.48 6.81-6.08 8.86l-6.47-3.61-6.47 3.81-6.47-1.27-6.47.59-6.47-1.78c-6.76 1.77-6.24 1.75-12.94-.19l-6.47 2.22-6.48-2.98-6.47 2.52-6.47.18-6.48-2.6-6.47 2.08-6.47.01c-5.79-.7-13.56-2.43-19.43-2.14l-6.47 1.98-6.47-.11-6.47.19-6.48-1.87c-3.22.65-9.73 1.99-12.95 2.67l-6.48-3.25c-5.63 1.9-13.51 3.3-19.44 2.42l-4.56-2.99-4.18-4.56 2.54-6.52c-.63-3.25-1.03-9.74-.78-13.04-1.8-6.63-1.8-6.4-.16-13.04-.25-3.3.21-9.81.9-13.04l-.73-6.52 1.76-6.52-.45-6.52-2.38-6.52 1.93-6.52-.65-6.52-2.26-6.52c1.35-3.17 3-9.61 3.27-13.03l-.66-6.52-2.54-6.52c.49-3.31 1.96-9.84 2.93-13.04l-.24-6.52.34-6.52c-.88-3.21-2.24-9.75-2.71-13.04l3.62-6.52-3.89-6.53 2.39-6.52c.22-3.27.39-9.78.34-13.05.73-6.87.48-6.81-2.04-13.05l.9-6.52-1.16-6.52c-.21-3.25-.25-9.79-.09-13.05l1.6-6.52-.59-6.53c.84-3.2 1.54-9.74 1.37-13.05l.27-6.53-2.27-6.53c1.12-2.4 3.63-7.97 4.43-10.42l3.92-4.93 6.26.75 6.25 2.47 6.26-.27 6.27-1.98 6.26.05 6.26 1.91 6.28-1.61 5.69 2.02.56 5.7-.97 6.5 3.7 6.5-3.71 6.5 2.94 6.5.38 6.5-3.08 6.5 2.54 6.5c-.58 3.23-1.64 9.75-2.11 13l3.09 6.5-2.6 6.5c1.85 6.7 1.84 6.3.09 13-1.33 7.07-1.21 6.35 1.28 13-1.59 6.66-1.53 6.48.29 13.01-1.75 5.67-1.46 13.66-1.64 19.51l-.52 6.5 2.07 6.5-2.31 6.51c.5 3.25 1.62 9.77 2.22 13l-2.51 6.51c3.2 6.18 3.54 5.92 3.33 13.01l-.37 6.51-3.19 6.51c.32 7.81.62 17.29 4.14 24.46l4.92 3 6.41 1.07 6.41-2.98c6.69 1.29 6.42 1.18 12.81-.95l6.41 3.94c6.43-2.06 6.2-2.13 12.82-.78 5.87.3 13.76-.43 19.22-2.78l6.41 3.57 6.41-2.35 6.41-.98 6.41 3.11c6.2-2.51 6.1-2.71 12.82-1.92 3.2-.31 9.64-.95 12.83-1.28l4.53 3.58 2.11 4.38ZM568.25 445.87l-6.36.7-6.37-.69-6.35 2.1-6.38-1.89-6.35 1.87c-3.23-.48-9.54-.31-12.74.33l-4.88-2.98-1.04-4.86.33-6.49-1.96-6.49.4-6.49 1.92-6.49-3.09-6.49.28-6.5 2.03-6.49-.04-6.5-1.37-6.49 1.07-6.49-1.66-6.5.33-6.49 1.59-6.5.55-6.49-1.06-6.49c-1.72-6.48-1.76-6.4-.12-12.99l-2.17-6.49 3.29-6.49c-1.06-5.74-1.51-13.7-2.28-19.48l2.04-6.49c-1.85-6.95-1.81-6.17.31-12.99l-2.69-6.5 1.55-6.5c-.03-3.38-1.21-9.81-2.34-13 .28-3.36 1.84-9.85 3.06-12.99l-1.82-6.5 1.86-6.49-2.17-6.5c-.1-3.25.08-9.76.36-13l-1.28-6.5.09-6.5.93-6.5-1.07-6.5 3.18-6.51c0-3.01.09-9.12.19-12.11 2.96-.36 8.98-1.2 11.94-1.65l6.34-1.7 6.35.63c3.14.74 9.51 1.88 12.71 2.27l6.34-1.96 6.36.49c2.32 1.53 6.56 5.23 8.52 7.22l-1.36 6.49 1.89 6.49-.2 6.49-3.07 6.49c-.46 3.26-.48 9.73-.03 12.99-.21 3.27.08 9.75.59 12.99l-.49 6.49 2.23 6.49-.75 6.49.89 6.49c-1.65 6.79-1.64 6.27.44 12.98-.82 3.2-2.3 9.74-2.95 12.98l3.1 6.49-2.65 6.49 2.51 6.49-.06 6.49-1.58 6.49.75 6.49-1.01 6.49 1.59 6.49c.61 7.15.34 6.64-2.69 12.99 1.55 5.68 2.06 13.65 2.57 19.49 1.04 6.83.88 6.6-1.51 12.99l1.67 6.5-1.82 6.49.74 6.49-.59 6.5c-.65 8.21-1.65 18.36 2.13 25.99l-2.28 6.5 1.61 6.5c-2.61 6.26-3.1 5.63-1.93 12.55l-6.05-.27Z"/></svg>