<svg xmlns="http://www.w3.org/2000/svg" viewBox="0 0 1812.4 946.84"><path fill="#eae5d8" d="M1056.95 628.17c.55 3.58 2.06 10.69 3 14.18l-2.68 7.01.09 7.13-1.19 7.01c-1.65 3.28-3.78 9.91-4.29 13.53l-.05 7.33-2.12 6.8c-1.41 6.43-5.37 14.03-7.13 20.34l-5.22 5.28-3.27 6.37-5.82 4.57-4.03 5.8-3.16 6.67-4.4 5.73-6.36 3.69-5.37 4.67c-6.18 2.05-12.96 7.53-17.77 11.76-5.65 2.77-13.5 6.4-19.4 8.62l-5.98 4.32-7.41.12-6.3 3.97-6.96 1.73-7.2.24c-3.59.44-10.66.44-14.25-.01l-7.08 1.53c-3.53-.55-10.58-1.64-14.11-2.18l-6.91-1.64-7.39.85-6.96-1.83-6.58-3.05-7.36-.57-6.55-3.02c-3.37-1.25-10.06-4.04-13.31-5.58l-4.86-5.89-6.52-3.04-5.18-4.99-6.92-2.8c-6.49-4.58-5.77-3.94-9.03-11.28l-5.22-4.86-7.02-3.51-1.91-7.59-3.82-6.01-5.75-4.88-4.14-5.99c-1.37-3.38-3.47-10.37-4.18-13.95l-4.68-5.95-.83-7.34-3.19-6.63c-.9-3.57-1.68-10.76-1.57-14.44l-1.23-7.12 1.55-7.3-.23-7.13-1.58-7.22 2.41-7.01-1.52-7.43c1.28-3.41 3.79-10.23 5.02-13.66l1.2-7.09 3.32-6.43c.88-9.16 5.66-18.96 10.77-26.48l2.19-7.12 4.25-5.88 4.26-5.87 5.28-5.03 6.7-3.59 3.2-6.9c2.67-2.46 7.75-7.68 10.14-10.4 5.12-4.27 13.61-7.08 19.84-9.11l4.58-6.61c6.41-1.07 14.91-3.54 21-5.75l6.09-4.7c3.64-.53 10.88-1.05 14.55-1.02l6.82-3.27c3.66.03 10.91.54 14.54 1.03l7.22-1.22 7.21.64 6.92 2.7c6.48-.06 15.18 1.08 21.2 3.59l6.19 4.04 7.03 1.57 6.65 2.67c2.95 2.06 9.32 5.38 12.7 6.63 5.01 4.1 12.94 7.99 18.5 11.26l3.84 6.54 6.69 3.39c2.98 2.17 8.18 7.21 10.43 10.12l2.66 7.08c2.23 2.8 6.34 8.71 8.19 11.78l2.11 7.01 5.63 5.2 3.66 6.32.04 7.7 1.68 6.95c1.29 3.47 4.65 10.04 6.65 13.16l1.03 7.19c-.85 3.62-1.45 10.88-1.11 14.59Zm-70.12 60.43 2.82-6.8 1.59-7.23 4.85-5.83c1.14-6.48 3.32-15.14 5.83-21.23l.39-7.38-2.07-7.27c-.2-3.66-1.55-10.69-2.76-14.14l-1.83-6.93-3.35-6.38-1.08-7.34-3.94-6.08-2.08-7.28-4.64-5.55c-3.1-1.85-9.02-6.02-11.81-8.3l-4.41-5.74-5.91-3.95-5.41-5-6.68-2.8-7.09-1.51c-3.34-1.29-10.3-3.19-13.85-3.72l-7.16-.82-7.13 1.95-7.29-1.5-6.63 3.43-6.72 2.05c-3.72.58-10.73 2.73-14.12 4.37l-6.97 2.81-5.4 5.31c-5.95 3.19-12.95 9.09-17.87 13.66l-2.94 7.18c-2.1 3.08-6.58 9.13-8.91 12.05l-1.39 7.53-2.84 6.84c-.89 3.57-2.07 10.9-2.32 14.58l-3.21 7.24 1.07 7.51-.35 7.58c1.8 3.36 4.71 10.35 5.76 14l-.18 7.93c3.42 7.11 3.55 6.95 9.72 11.75l1.44 7.87c4.41 6.48 4.38 6.27 11.16 9.99 5.54 3.65 11.79 10.16 16.85 14.4l7.59 1.22 6.32 3.95c6.51.13 14.97 2.51 21.17 4.32l7.2.09 7.28 1.97 7.3-.73 6.85-2.99 7.5-.03 6-4.72c3.64-.67 10.55-2.98 13.86-4.64 2.65-2.65 8.55-6.93 11.88-8.64 3.6-5.53 8.6-13 13.93-17.05ZM1493.49 782.21l-8.35-5.79-3.24-6.6q-5.64-4.98-8.36-11.92s-3.62-6.35-3.62-6.35l-5.41-5.12c-2.63-2.57-7.55-8.04-9.82-10.92-1.96-3.06-5.83-9.28-7.7-12.39l-6.14-3.76c-3.87-.17-11.57-1.27-15.35-2.13l-7.75 1.15-5.79 2.79-3.34 5.94-2.36 7.35.77 7.46c.41 6.66.25 15.79 1.68 22.35-1.84 3.51-4.44 10.79-5.14 14.69l-7.51 3.64-7.36.78-7.34-.51-7.28-3.15-7.4 2.31-7.35-.11-5.83-5.47-3.65-5.94-1.81-7.19c.32-3.62.48-10.77.34-14.39l2.6-7.19v-7.19l-.22-7.2-1.76-7.19 1.76-7.2-1.69-7.19c.16-6.42 1.05-15.15.69-21.58-.27-3.67.36-10.81 1.24-14.38-1.99-6.27-4.28-14.94-3.44-21.58l-.48-7.19 1.96-7.2c.4-3.56 1.25-10.83 1.7-14.39-.8-3.51-1.65-10.78-1.68-14.39 1.22-7.77 1.2-6.91-1.81-14.39 2.14-8.91 3.24-19.99.09-28.79l3.02-7.2-2.22-7.2-.36-7.2 3.18-7.2-2.24-7.19-.88-7.2 2.24-7.21-.3-7.21 2.53-7.02 6.93-4.17 7.12-1.42 7.17.47 7.16.07c3.53.94 10.69 1.86 14.34 1.79l7.14-.28 7.15-1.91c3.57.62 10.74 2.17 14.25 3.1l7.25-3.24 7.03 2.97 7.15-.04c6.37 1.4 15.16 1.06 21.57.13l6.82 3.73 7.68-.32 5.91 5.21 8.14-.16 4.87 6.37 7.28 2.27 6.42 3.85 5.59 4.95 2.92 7.4c2.16 2.91 6.35 8.82 8.38 11.81l6.63 4.44 4.27 6.14 2.8 6.92 1.51 7.36 1.89 7.1.34 7.4c1.57 3.26 4.47 10 5.77 13.38l-1.56 7.25 1.85 7.05-.67 7.11c-3.35 6.3-5.16 13.49-5.09 20.62-.81 3.44-2.35 10.38-3.08 13.84l-3 6.44c-1.75 3.07-5.78 8.93-8.02 11.66l-2.04 7.25-6.7 3.7-2.68 7.13-5.55 4.55-6.84 2.93-3.44 7.22 2.46 7.02 4.5 5.32 1.63 7.15 3.11 6.21 3.53 5.94 4.79 5.14c1.48 3.16 5.24 8.96 7.52 11.6l2.52 6.59c2.23 2.75 7.22 7.8 9.93 10.08l1.02 7.76-3.44 6.86-7.28 3.54-7.3-3.12c-3.7.67-11 2.5-14.58 3.63-6.45-1.23-15.37-1.4-21.9-.87Zm-31.57-130.69 7.12-1.4 6.79-2.95 4.36-6.05 5.65-4.79 4.14-6.18c1.25-6.38 1.82-15.2 1.84-21.69.7-6.18.5-14.34-1.72-20.23-1.86-2.88-4.56-9.08-5.44-12.39-5.51-6.67-12.69-14.05-19.3-19.64-8.59-1.14-18.93-3.23-27.56-1.46l-6.75-3.16c-3.38.82-10.22 2.08-13.66 2.5l-5.79 3.66c-1.57 3.24-4.4 10.13-5.68 13.52l2.5 7.48.08 7.48-2.88 7.5c.5 3.8 2.07 11.28 3.1 14.96-.3 3.74-.43 11.24-.27 14.98l-2.56 7.5c-.02 3.73.12 11.26.29 14.99 4.62 7.44 4.54 7.35 11.86 12.12l7.47-1.57c3.71.13 11.18.35 14.9.43 3.72-.32 11.14-1.35 14.8-2.06l6.71-3.57ZM856.72 311.03l-4.1 6.88 2.43 7.31-2.39 6.85-.38 7.13-3.84 6.38-.53 7.13-2.78 6.51-.94 7.18-2.26 6.77-5.15 5.36c-1.57 3.15-5.16 9.17-7.19 12.03l-2.27 7.04-3.53 6.32c-4.54 4.56-11.67 9.61-15.65 14.72l-6.94 2.67-5.37 4.58c-8.02 3.9-17.58 8.9-24.26 14.89l-7.68-.53-6 4.83-7.2.53-7.37-1.29-6.6 4.41-7.22-1.07-7.09 1.37c-3.66-.92-11.05-2.57-14.74-3.29l-7.38 2.17-7.38.48-7.37-.28-7.37-2.17-7.38 2.8-7.38.42-7.38-.99c-3.78-.01-11.14-1.16-14.75-2.27l-7.39 3.16c-3.31-.5-10.02-1.84-13.19-2.81-.48-3.16-.98-9.79-1.1-13.01l1.27-7.19-.95-7.19.34-7.19-1.43-7.19-.41-7.19 2.51-7.19-2.75-7.19.58-7.2 2.22-7.19c.17-3.61.42-10.77.5-14.38-2.79-8.8-1.59-19.79-.38-28.77-.72-3.58-1.32-10.74-1.19-14.39-.67-3.57-1.37-10.76-1.41-14.39 1.9-7.78 1.84-6.8-.54-14.39l1.41-7.19-.97-7.2 2.7-7.2c-.29-3.62-1.45-10.86-2.3-14.39.04-3.58-.26-10.83-.58-14.4-.05-3.68 1.07-10.88 2.2-14.39-.25-3.65-1.65-10.9-2.77-14.4l.61-7.2 2.69-7.19-1.75-7.2.81-7.21-1.34-7.21 2.93-5.02 5.03-2.21 7.14-1.18c3.6.55 10.64 1.2 14.26 1.35l7.14-.98c3.57.99 10.57 1.97 14.25 2 6.39.48 15.01-.64 21.4-.21l7.13-.81 7.13 1.62 7.15-1.44 7.14.7c3.57-.84 10.72-1.65 14.39-1.54 3.42 1.21 10.36 3.08 13.91 3.78 6.84 3.93 6 3.67 13.78 3.55l6.58 2.74 7.19 1.27 6.57 2.91 5.33 5.14 6.88 2.42 6.19 3.68 4.6 5.72 6.05 3.92 4.68 5.43 5 5.1c1.91 3.02 5.35 9.37 6.78 12.65 2.33 2.64 6.54 8.38 8.31 11.43 1.22 3.28 3.91 9.9 5.25 13.13l4.44 5.85 2.42 6.7 3.51 6.44.78 7.2c.92 3.43 2.08 10.56 2.18 14.13 3.32 8.59 2.46 19.52 2.52 28.54Zm-88.49 58.36 7.84-2.25c2.5-7.77 1.66-7.05 7.9-12.48l2.96-6.66 5.3-5.55 1.36-7.34 2.68-6.84c-.16-3.69-.06-10.99.21-14.66l2.65-7.13c-.04-3.67-.42-11-.78-14.65-1.74-3.27-4.87-10-6.23-13.43-.7-3.52-2.55-10.49-3.68-13.89l-4-6c-1.99-7.57-1.48-7-7.07-12.68l-4.53-5.82c-2.68-2.47-8.64-6.66-11.92-8.27l-7.21-1.5-5.27-5.59-7.66.59c-3.46-1.22-10-4.5-13.1-6.46l-7.46 2.77c-6.98-2.21-6.82-2.21-14-.91-3.52-.9-10.67-2.32-14.26-2.83-8.51 2.85-7.18 3.05-12.81 9.49l-.25 7.32-2.14 7.32 2.83 7.31.45 7.31-.96 7.32c0 3.75-1.12 11.05-2.21 14.64l3.18 7.31-1.28 7.32.93 7.32-1.71 7.32.42 7.32-1.25 7.32.96 7.32-.33 7.32 1.44 7.32.42 7.32-2.5 7.33 2.77 7.32-.56 7.33-2.21 7.33 2.19 6.14 6.04 2.9c9.08-2.43 20.23-.84 29.43.09 3.61-.83 10.93-2.01 14.61-2.35 6.27-2.05 14.77-4.99 21.43-5.23l5.72-4.97 6.93-2.51 4.75-5.68ZM725.72 780.63c-3.66.1-10.94-.37-14.56-.92l-7.16 2.9-7.27-.03-7.36-2.54-8.11-.69c-.58-3.92-2.45-11.48-3.86-15.17.8-3.53 1.88-10.66 2.14-14.27-2.69-7.19-2.8-6.59-1.63-14.23 1.33-6.84 1.29-14.66-.77-21.36l2.22-7.14-1.32-7.11 1.68-7.15c-1.71-3.52-4.09-10.89-4.8-14.74l-7.65-1.61-7.36.66-7.34-1.34-7.36 1.09-7.33-3.6-7.37 2.73c-9.1-2.48-20.15-1.27-29.41-.84-3.67.03-11.06.27-14.72.48l-6.13 3.44-2.77 6.08-.44 7.14-2.19 7.13c.7 3.55 1.5 10.7 1.59 14.31.64 3.6.79 10.68.29 14.3l.58 7.16c-.9 3.52-2.47 10.69-3.11 14.27l2.18 7.17-1.28 7.15.57 7.16-3.84 7.45-7.6 4.17-7.44-2.43-7.52.7-7.46-1.39c-3.75.06-11.3.51-15.03.9l-7.58-2.83-3.44-7.65 2.21-7.17c.18-6.51-.47-15.31-2.61-21.51l2.44-7.17-3.13-7.17 3.34-7.17c-1.83-7.7-1.72-6.93.48-14.34.25-3.67-.39-10.77-1.26-14.33l.85-7.17-.85-7.17c.16-3.64-.42-10.78-1.16-14.34-.17-3.68.66-10.78 1.64-14.34l-.02-7.17-1.86-7.17.01-7.17 1.06-7.17c-.36-3.58-1.4-10.8-2.08-14.34.52-3.61 2.06-10.83 3.06-14.34l.54-7.17-.99-7.17-2.59-7.17c.87-3.54 1.81-10.7 1.87-14.34 1.52-7.7 1.42-6.99-1.11-14.34l2.45-7.17-.09-7.17-1.65-7.18c1.76-6.72 1.41-16.22 1.9-23.1l8.72-1.7 7.56 1.25c3.76-.58 11.31-1.74 15.07-2.32l7.56 1.04 7.55-.21 7.78 2.48 1.58 7.75.16 7.21c1.7 6.32 3.15 15.07 3.08 21.62l-2.77 7.23c-.18 3.6-.26 10.82-.15 14.42l3 7.2-.18 7.21c-.88 3.55-1.79 10.78-1.79 14.43 1.55 7.44 1.52 7.11-.63 14.44.93 3.66 2.94 11.05 4 14.69 8.82 3.79 20.17 2.78 29.51 2.64l7.34 1.19 7.35-1.1c3.64.52 11.02 1.3 14.69 1.56l7.35-1.12 7.34 1.8 7.36-3.36 7.35 1.76 6.36-4.39 2.66-6.34 1.08-7.22c-1.1-7.53-.92-7.4 1.5-14.44l-1.35-7.24 1.6-7.22-.55-7.23-2.38-7.24.58-7.22 3.35-7.2c.22-6.55.21-15.45-2.07-21.7.34-3.58.89-10.86 1.1-14.46l3.2-6.74 6.83-5.66c11.79 4.3 17.18 4.23 29.07.43 3.89.77 11.63 2.99 15.39 4.3l3.45 8.16-2.13 7.17 2.68 7.17-3.75 7.17 3.08 7.17-1.47 7.17.86 7.17-2.38 7.17 1.34 7.17-.67 7.16c1.03 3.54 2.14 10.65 2.2 14.33l-2.28 7.17c.08 3.58.03 10.76-.09 14.33 1.29 3.48 2.98 10.64 3.32 14.33-.32 3.57-1.08 10.78-1.52 14.34l.72 7.17-2.26 7.17.62 7.17c-1.2 9.01-1.1 20.11 2.21 28.68l-3 7.17 3.02 7.17-1.06 7.17-2.51 7.17 3.61 7.17-1.56 7.17 1.23 7.17c-.9 3.56-2.53 10.75-3.25 14.34l2.19 7.17c.42 3.57.55 10.77.25 14.36l-4.61 6.11-5.94 4.63ZM1255.46 343.3l-7.51-1.82-7.51.45c-6.76-.24-15.96-.71-22.52 1.36-7.65-3.6-6.44-3.82-15.02-2.93l-7.51.09-7.51 2.27-7.51-3.2c-2.76 1.1-9.18 3.65-11.88 4.7l-3.94 4.43c-.33 3.33-.42 10.01-.18 13.35l3.07 6.62c-.25 3.46-1.73 10.15-2.91 13.41l5.17 3.63 3.7 4.6 7.27-2.38c9.68 3.68 19.4 2.42 29.05-.48l7.25 3.3 7.27-2.25 7.26.61c7.37 2.18 7.01 2.21 14.52.7l7.27-1.46 7.26.48 7.26 2.45c3.63.22 10.92.09 14.54-.26 3.07.27 9.66.52 12.7.22l2.16 5.46c-1.04 3.68-1.97 11.03-1.83 14.84l-.74 7.43 1.92 7.46-2.16 7.41 1.58 7.46-.84 6.15-6.17 1.57-7.32-.62-7.33-1.67-7.32-.27-7.33 2.5c-3.65.51-10.98.65-14.65.28l-7.32-2.63-7.33 1.63-7.33-1.31c-3.67-.33-11-.24-14.66.18l-7.33-.39-7.33 2.16-7.33-2.53-7.33 3.44c-3.68-.78-11.03-2.58-14.65-3.59l-7.33 3.49-7.33-3.1-7.33 3.07c-3.74.15-11.04-.67-14.66-1.61l-7.34 1.93c-3.31-.51-10.03-1.98-13.18-3.1.89-8.6-.34-18.87.13-27.48l-2.36-7.21c.18-3.6.08-10.83-.19-14.43-.2-6.45.95-15.2.18-21.64l2.28-7.21c-.62-3.6-2.08-10.86-2.89-14.42l3.59-7.21c-.26-3.74-1.94-10.92-3.3-14.42-.67-7.39.05-14.76 3.04-21.64-2.44-7.56-2.45-6.73-.78-14.43-.22-3.62-.1-10.82.23-14.43.51-3.68.33-10.78-.36-14.43.34-3.59.83-10.83.98-14.43l-2.24-7.22.63-7.22c-.38-3.6-.28-10.84.19-14.43l-.15-7.22-1.75-7.22 3.39-7.22-3.55-7.22c2.86-7.54 2.96-6.46 1.47-14.43l.11-7.22c.79-2.81 2.28-9.12 2.4-12l4.78-.44 7.24-2.95c9.18-1.97 19.94 1.4 29 2.76l7.25-2.91 7.25-.27c7.51 2.35 6.79 2.4 14.5.74l7.25 2.49 7.25.07 7.25-3.79c3.6.76 10.83 1.51 14.5 1.49l7.25 1.82c16.35-3.08 11.94-4.95 29 .37 7.29-3.78 6.12-4.06 14.51-3.44l7.26 3.08 7.26.43 7.26-2.08 4.78 2.45 4.15 4.76c-3.1 7.7-3.26 6.73-2.05 15.04-1.11 8.36-.94 7.37 2.22 15.03l-3.31 7.53 3.08 7.51c-3.36 5.62-2.83 5.3-8.69 8.25l-7.15.39-7.16-1.34-7.15.98-7.16-2.51-7.15.17-7.14 3.05-7.15-.04c-3.55-.86-10.73-2.43-14.32-3.12l-7.14 1.57-7.15-.48c-6.39.96-15.15.7-21.46-.7l-7.15 2.54c-2.99.13-9.6.41-12.58.54-1.59 5.73-2.16 13.42-.81 19.26-.32 3.5-1.5 10.43-2.34 13.84l.3 6.92 2.7 6.93-1.34 6.93 1.76 5.08 5.08 1.54c3.71-.29 11.17-.71 14.88-.85 7.85-.69 7.66-.47 14.86 2.44 3.73-.64 11.19-2.11 14.88-2.93l7.43 3.46 7.45-1.33 7.43 1.64 7.45-2.76c2.93.99 9.39 2.84 12.43 3.07l.21 5 2.67 7.44c.05 6.68-.3 15.81.08 22.49l-.28 7.51 2.02 7.46c-2.4 2.1-6.81 6.68-8.83 9.14ZM1259.28 494.1l7.67-1.23 7.68.17 7.69 1.71 7.67-2.41 7.69.7 8.18 3.43 1.79 8.17c-.53 3.65-1.25 10.98-1.43 14.66l2.97 7.33-.07 7.33-2.2 7.33 1.67 7.33.33 7.33c-.31 3.66-1.21 11.03-1.79 14.66l1 7.33-1.49 7.33 2.77 7.34-1.68 7.33.8 7.34-2.15 7.33.09 7.33 3.12 7.34c-.99 3.61-2.22 10.94-2.44 14.67.99 3.61 2.4 10.96 2.8 14.68l-3.04 7.33 2.04 7.34-1.1 7.34 1.42 7.37c-3.07 7.2-3.05 6.75-2.34 14.54l-2.68 6.89-1.32 7.24-5 5.84c-1.32 3.44-3.46 10.52-4.3 14.11l-6.06 4.69-4.73 5.39-2.66 7.37c-9.01 7.38-18.85 17.13-30.83 19.06l-5.16 6.33-7.04 2.33-7.41.89c-3.47 1.27-10.56 3.46-14.14 4.37l-7.61-2.35c-3.64-.04-10.86.42-14.46.91-7.48 1.28-7.17 1.31-14.35-1.04-3.52-.75-10.65-2.03-14.2-2.57l-6.37-3.72c-6.05-2.06-14.33-4.89-20.19-7.45l-5.38-4.95-7.94-1.23c-2.72-2.53-7.43-8.16-9.45-11.28-3.2-1.91-8.92-6.55-11.46-9.28l-2.08-7.4-3.48-6.27-5.33-5.51-2.08-7.06c-.16-3.66-1.22-10.88-2.16-14.42l.42-7.26-1.86-7.1 2.02-7.1c-2.63-7.24-2.71-6.57-1.37-14.17-1.15-7.22-1.01-7.31 1.19-14.19-2.13-9.66-5.18-18.64-1.2-28.35l-2.37-7.08c3.52-10.37 4.31-18.18-.38-28.37 1-3.51 2.53-10.6 3.05-14.21l-1.99-7.08c.43-3.56 1.52-10.67 2.17-14.2l-.36-7.09-2.67-7.08c.35-6.35 1.5-14.97 2.13-21.3-.04-3.6-1.02-10.71-1.94-14.19l5.01-6.14 6.07-5.19c6.86 1.8 15.32.81 22.13-.61l7.38.25 7.37-1.12 8.13 4.26c1.41 3.71 3.53 11.28 3.99 15.2l-1.35 7.16c.22 3.56.75 10.72 1.05 14.27-.29 3.64-1.66 10.81-2.71 14.32 1.47 3.44 3.5 10.54 4.02 14.24l-2.57 7.17 2.3 7.12-.46 7.15-1.88 7.17.08 7.15.31 7.14 2.22 7.12-1.26 7.16c.21 3.62-.28 10.75-.97 14.3l1.47 7.13-.09 7.15c-1.9 10.56-1.88 18.26 1.45 28.57l-1.83 7.18-.3 7.16 1.98 7.09c1.57 7.51 1.21 7.02 6.38 12.99l7.15 2.72 4.25 6.38 7.57.89c3.14 1.68 9.61 4.68 12.92 6l7.24-.7 6.7 1.84 7.03.5c2.98-1.9 9.28-4.9 12.66-5.93l7.44.06c2.6-2.31 7.91-6.85 10.6-9.05 2.39-2.44 6.76-7.72 8.74-10.51.3-3.59-.06-10.72-.63-14.28l.32-7.32 2.01-7.31.66-7.32-1.84-7.35c2.52-7.62 2.55-6.82.9-14.65-.63-6.59-.37-15.55 1.33-21.98l-2.04-7.35-.29-7.34 3.08-7.3-3.17-7.37c2.73-6.97 3.41-14.6 2.5-21.98 1.38-8.16 1.2-7.12-1.74-14.68l1.13-7.32-.76-7.34.11-7.33 2.04-7.32-2.44-7.36 1.01-7.33-1.16-7.35c4.94-6.5 4.72-6.8 12.14-10.58M1687.65 782.91l-6.77 2.82-7.08-1.2c-6.25.28-14.79.23-21.05.25l-7.02-.82-6.47-3.16-7.01-.97c-3.32-1.28-10.14-3.35-13.6-4.15-2.85-2.1-8.72-6.16-11.69-8.09-2.15-2.81-7.12-7.84-9.92-10-2.33-2.64-7.66-7.27-10.59-9.25-1.33-3.21-3.55-9.8-4.34-13.17l1.93-7.49c7.1-3.35 6.85-3.24 11.55-9.43l7.15-2.92c5.42-3.83 12.64-9.31 18.13-13.04 2.82 2.55 9.07 6.67 12.5 8.31l4.85 5.97c7.95 1.19 7.49.66 13.96 5.58 3.61.68 10.7 2.56 14.16 3.77l7.31.38c7.88 1.73 7.32 1.85 15.15-.39l5.54-5.9 7.73-1.6 5.58-5.57c1.25-7.07 1.97-15.51-.07-22.53l-4.7-5.94-4.17-6.24-5.96-4.91c-3.54-1.23-10.59-3.79-14.09-5.12-9.36-5.92-15.88-11.18-27.56-11.52l-6.45-3.78-5.72-5.28c-5.96-2.91-14.3-6.55-20.28-9.44-2.51-2.69-7.93-7.83-10.75-10.2l-6.72-3.79-5.52-5.21c-1.95-7.95-1.37-7.35-7.05-13.35-1.96-3.25-5.65-9.93-7.37-13.31 1.54-7.88 1.91-7.34-.56-15.04l.59-7.29-1.24-7.3c.63-9.21 2.26-20.12 6.74-28.34l4.06-6.09 2.83-6.92 5.73-4.74 6.53-3.48 4.33-6.26 6.83-2.73 5.59-4.98 7.61-.75c6.38-4.85 5.39-4.54 13.37-5.4l6.87-2.49 7.39.34 6.94-3.84c3.71.35 11 1.53 14.62 2.4l7.36-.63 7.31.71 7.23 1.33 6.57 3.59c3.6.74 10.69 2.71 14.15 3.94l6.72 3.04c2.77 2.52 7.92 8 10.23 10.95l6.23 3.67c2.27 2.37 7.26 6.98 9.84 8.98l-2.44 5.63-1.26 6.11-7.27 2.9-4.5 6.34-7.27 2.91c-2.51 2.81-7.9 8.08-10.78 10.51l-5.63 1.62c-3.17-.56-9.91-1.59-13.14-2.04l-5.76-4.66-6.93-1.96-7.11-.97-6.75-3.08-7.26 1.15-7.19-.77-6.65 3.17-6.5.45-3.34 5.68-4.34 4.54-1.12 5.81 3.23 7.02 1.62 8.57c3.17 2.25 9.59 6.78 12.77 8.97 3.3 1.36 10.1 3.53 13.58 4.35l5.26 5.23 7.68.4 5.59 4.58c3.26 1.4 9.46 4.74 12.42 6.69 3.45.94 10.01 3.55 13.15 5.25l5.03 5.72c3.44 1.24 9.8 4.65 12.73 6.83 4.57 4.83 11.98 9.98 17.78 13.19l1.7 7.83 5.35 5.24 3.3 6.56 2.22 7 4.28 6.5-1.41 7.79 2.71 7.1-1.59 7.41-.05 7.31c-.8 9.01-2.22 19.7-4.68 28.42l-5.77 5.05-1.82 7.25-5.64 4.66-4.47 5.5-6.09 3.77-4.51 5.7c-3.3 1.32-9.92 4-13.2 5.35-5.52 4.75-5.36 4.77-12.51 6.43l-6.43 3.37-7.08 1.05-7.34-1.42ZM1071.39 395.62c2.55 7.37 2.6 7.3 1.6 15.02-.06 6.88.79 16.17 3.15 22.68l-3.6 7.57.16 5.24-5.23 3.15-7.28-3.11-7.28 2.46-7.28-.53c-3.63.31-10.93.95-14.56 1.29-8.89-2.71-20.19-3.21-29.12-.48l-7.29-2.66-7.28.32-7.28 2.46-7.28-1.64-7.28 1.26-7.29-1.95-7.28 2.85c-6.62.34-15.48-.96-21.85-2.71-3.59 1.01-10.89 2.61-14.57 3.18-3.64-.13-10.96-.76-14.58-1.26l-7.29-2.58-4.7-.39-1.59-4.7.75-7.21c.59-7.82.32-7.4-2.8-14.42l1.06-7.21-1-7.21.6-7.21c2.07-7.73 2.06-6.74-.19-14.42 2.21-7.75 2.2-6.68.05-14.41 1.24-7.35 1.13-7.35-1.09-14.41l3.3-7.21c-1.23-3.55-2.9-10.69-3.31-14.41l.68-7.21c-.09-3.61-.34-10.81-.49-14.41.96-6.42 1.38-15.28 2.86-21.62a704 704 0 0 1-2-14.42l2.54-7.21c-.3-3.58-.89-10.83-1.18-14.42l1.34-7.21c-2.28-6.19-2.93-15.09-3.08-21.63l3.15-7.21c-4.52-9.99-3.69-18.39-2.16-28.84l-.7-7.21 1.7-7.22-1.17-7.22 1.59-5.97c5.86-2.21 14.36-2.99 20.59-2.97 3.61.86 10.93 2.28 14.6 2.81l7.32-2.62 7.29 3.82 5.99-.85.92 5.98-.44 7.15 2.14 7.15.12 7.15-.81 7.15 1.01 7.15-1.91 7.15.46 7.15-.89 7.15 1.82 7.15c-.13 3.58-.48 10.74-.71 14.3l1.15 7.15c-.4 3.69-2.14 10.83-3.44 14.31l.14 7.15c.84 8.97.85 19.75 2.54 28.62-.7 6.39-1.3 15.14.22 21.46l-2.37 7.16.1 7.15 2.89 7.15.07 7.16-3.6 7.15c1.11 6.37 1.55 15.12.23 21.49l3.39 5.22 5.22.93c3.61-.28 10.8-.54 14.42-.51l7.21 2.75 7.21-.05c3.56-.84 10.76-1.74 14.42-1.77 6.46-.24 15.2.84 21.63 1.3 7.48 1.15 7.28 1.03 14.42-1.4 3.59.31 10.85 1.19 14.42 1.76l7.21-2.09 7.22 2.74 7.22-1.66 5.11 6.44ZM568.26 447.26c-11.89-.6-25.81-2.9-37.12 1.83-3.16-1.11-9.82-2.85-13.15-2.94l.33-5.7-3.26-7.18c2.19-7.47 2.19-6.83.43-14.36.67-3.57 1.86-10.76 2.36-14.36-.36-3.62-1.59-10.82-2.45-14.36l2.35-7.18c-.3-3.6-.03-10.79.53-14.35l-3.51-7.17 3.62-7.18-3.8-7.18 1.27-7.17-.58-7.18 1.78-7.18c-1.75-7.37-1.73-7.04.21-14.36l-2.21-7.18 2.98-7.18-2.51-7.18-.17-7.18 2.61-7.18-2.07-7.18v-7.18c.7-6.42 2.44-15.06 2.16-21.54l-1.97-7.18.11-7.18-.18-7.18 1.88-7.18c-.65-3.57-1.98-10.8-2.65-14.36l3.25-7.18c-1.9-6.27-3.28-15.02-2.4-21.57l2.98-4.54 4.51-4.19c7.44 2.64 6.98 2.76 14.82 1.58l7.41.02 7.39-1.65 7.42 1.38 7.41-.1c4.49 2.6 4.58 2.62 7.04 7.2l-1.75 7.18.45 7.18 2.39 7.18-1.93 7.18.66 7.18 2.27 7.18c-3.67 10.35-4.53 18.43-.04 28.71-.48 3.63-1.95 10.82-2.91 14.35l.24 7.18-.33 7.17c.89 3.53 2.25 10.74 2.72 14.35l-3.61 7.18 3.89 7.18-2.38 7.18c-.22 3.59-.38 10.76-.33 14.35l-.46 7.18 2.5 7.18-.9 7.18 1.16 7.18c.21 3.58.26 10.78.1 14.36l-1.59 7.18.6 7.18c-.84 3.53-1.53 10.73-1.36 14.36l-.27 7.18 2.28 7.18-2.95 7.18.15 7.18 3.33 7.18-.71 7.19c-.9 2.65-2.99 8.81-3.87 11.39l-4.18 2.96ZM381.52 214.32l-6.61-1.47c-3.41 0-10.2-.18-13.6-.38l-6.5-2.15-6.57-1.7-6.96.83c-3.18-1.3-9.75-2.92-13.17-3.23-6.73-2.21-6.56-2.09-13.51-.95l-6.66-1.14-6.85.17c-3.42-.7-9.88-3.17-12.92-4.9l-7.14 2.07c-3.25-1.17-9.72-3.74-12.89-5.12l-7.01 1.19-6.67-1.06-6.8-.22-6.59-1.59-6.33-3.35-7.03 1.32-6.74-.62-6.19-4.27-6.9.45-6.68-1-6.97.94c-3.3-.73-9.98-1.81-13.34-2.15-3.42-.81-9.84-3.42-12.88-5.18-3.32-.64-10.06-1.39-13.44-1.5l-7.15 2.01-6.15-4.58c-7.63 4.16-6.39 3.84-15.05 3.63l-5.32 5.59-3.61 6.62c-.87 3.62-1.56 10.92-1.34 14.63l-4.19 6.22 1.8 7.12c-1.67 3.14-3.92 9.53-4.52 13.02l1.16 7.03-.11 6.84c-.83 3.37-3.08 9.86-4.49 13.03l-.32 6.81c-2.36 6.75-2.23 6.56-1.2 13.53l-2.25 6.52.28 6.9c-4.65 8.4-4.3 17.63-3.76 26.86-1.94 5.82-5.43 13.48-6.17 19.63.05 3.39-.03 10.31-.13 13.7l-2.44 6.5 1.78 7.63.16 7.44 1.76 7.3 3.14 7.31c2.53 2.37 7.95 6.58 10.85 8.47 2.44 2.49 7.84 6.71 10.83 8.5 3.61 6.75 2.87 6.05 9.43 9.94 2.41 2.52 6.56 8.07 8.32 11.08 2.44 2.38 7.31 7.25 9.68 9.7l5.95 3.72c1.85 2.75 4.63 8.7 5.57 11.88l-.08 6.91-2.61 5.51c-2.11 1.91-6.58 5.46-9.1 6.8l-4.7 5.57-6.11 2.8-7.08.92-4.77 5.45c-6.8 1.33-6.83 1.3-12.27 5.54-3.19 1.1-9.48 3.59-12.55 4.98l-4.99 5.01-5.97 3.12-6.36 2.33-6.35 4.01-3.44 6.8-5.15 6.04-2.3 7.56 1.59 7.11-.62 6.77-3.44 6.35-1.14 6.69.67 6.97c-.79 3.3-2.06 9.99-2.54 13.35-1.22 3.22-2.73 9.85-3.01 13.28l.2 6.9c-.1 3.39-.37 10.27-.52 13.66-1.06 3.23-3.07 9.86-4.01 13.13l1.03 7.02c-1.39 3.2-4.1 9.68-5.39 12.92l1.87 7.15-4.14 6.25c.62 6.16 1.58 14.53-.14 20.6l-3.8 6.3 2.71 7.07.06 6.62-1.64 7.36c1.93 2.99 6.1 8.76 8.34 11.52l6.45 3.66 7.12-1.6c5.75 2.09 13.92 3.82 19.77 5.62l7.1-1.47 6.85.14 6.19 4.52 7.25-2.45 6.24 4.11 6.97-.66c3.4.49 10.01 1.98 13.29 2.98l6.94-.45 6.55 2.12c8.55-.12 18.63 1.54 27.06 2.82 6.02 3.54 6.05 3.78 13.1 4.25l7.14-1.77 6.71 1.1c3.16 1.37 9.73 3.58 13.08 4.4 3.42-.2 10.37-.36 13.8-.31l6.48 2.64c5.94 1.28 14.24 2.2 19.96 4.38l7.15-1.8c3.19 1.37 9.75 3.27 13.18 3.8 5.67 2.61 13.96 3.36 20.11 3.46 3.4-.42 10.29-1.07 13.71-1.27l6.35-3.42 2.9-6.65 1.22-6.84c1.79-3.15 4.57-9.75 5.54-13.24.25-3.49.43-10.53.36-14.03 2.27-7.34 2.02-6.6.37-14.03l4.21-6.4 1.29-6.85-1.46-7.26.35-6.99.8-6.92 3.43-6.52 1.15-6.87-1.51-7.28c5.5-7.34 6.4-18.23 7.76-27-.85-3.53-1.56-10.67-1.37-14.3l3.11-6.58-.81-7.17 4.09-6.43c.71-3.63.84-10.87.43-14.55l-3.03-6.93-.91-7.38-4.98-5.26-3.03-6.48-6.17-3.27-4.73-4.74-5.46-4-4.52-4.97c-1.88-2.81-6.05-8.15-8.32-10.66l-5.97-3.48c-5.77-4.32-5.38-4.15-8.37-10.63l-4.32-5.18-5.63-3.63c-1.86-6.44-1.48-12.78.15-19.19l4.17-5.29 5.06-3.35 4.76-6.16 7.8-.3 4.71-6.24c3.36-1.22 10.17-3.45 13.59-4.47l5.2-5.3c5.88-2.46 14.15-5.16 20.25-6.99 2.91-2.11 9.19-5.29 12.61-6.4 2.87-6.79 2.6-6.88 8.31-11.72l.33-7.27 2.64-6.01 2.77-6.57.06-6.98c.59-6.16 1.47-14.54 3.36-20.46.21-3.48.28-10.47.15-13.96.79-3.44 3.09-10.09 4.57-13.3-1.02-7.1-1.13-6.95 1.26-13.8-.82-7.36-.94-6.8 1.99-13.69.11-3.47 1.24-10.32 2.25-13.65.04-7.59 0-6.79 3.84-13.41l-1.65-7.24c3.31-6.89 3.2-6 2.51-13.61l1.16-6.82-.53-7.08 3.27-6.51-1.46-6.68.84-6.65c-4.33-11.3-7.66-12.32-16.75-19.11ZM274.69 638.43l-.5 6.94-4.37 5.78-1.9 6.51-3.69 5.67-1.88 6.94-6.13 3.8-2.42 7.25c-5.11 3.61-12.63 7.53-18.64 9.29l-4.78 5.91c-3.53.99-10.36 1.74-14.02 1.56l-6.19 3.6-6.85.95-6.94-1.08-6.95 2.78-6.61-3.18-7.16 1.18a610 610 0 0 1-13.42-3.25l-5.3-5.6-7.72.64c-2.7-2.23-8.22-6.46-11.05-8.5l-4.13-5.56c-7.06-5.41-12.63-14.2-15.05-22.71-.41-6.17-2.24-14.4-3.37-20.46l.55-6.9 2.76-6.73-2.92-7.04c1.29-3.16 3.7-9.51 4.82-12.72.29-3.27 1.07-9.81 1.56-13.06l2.69-6.05.87-6.58 2.1-6.23 3.49-5.57c3.6-7.7 11.65-14.05 18.52-18.74.73 2.45 4.11 7.81 5.55 9.97.69 3.52 2.38 10.56 3.33 14.03l7.21 2.5 4.17-5.15 1.79-6.43c4.39-5.77 4.18-5.17 5.14-12.37 4.9-5.06 5.04-4.83 7.02-11.63 1.88-2.86 4.56-8.89 5.43-12.2l2.48-6.32 4.57-5.02 2.29-6.73 4.56-5.08 5.9-3.66 5.45-3.91 4.2-5.77 6.76-1.89 5.69-3.73 2.51 3.38c-1.5 3-3.4 9.14-3.86 12.45l-2.49 6.1-.64 6.56.63 6.67c-.4 5.65-.43 13.37.51 18.97 1.02 2.88 3.27 8.63 4.48 11.43l4.16 4.99 6.17-.06 4.22-4.06 5.17-.13 2.52 6.45 5.84 4.18c1.09 5.97 3.37 13.9 6.14 19.32l4.74 5.34 2.76 6.22-.81 7.11 3.13 6.24c.4 3.38.4 10.11 0 13.49l.44 6.71c-.78 3.25-2.03 9.87-2.48 13.18Z"/></svg>