<svg xmlns="http://www.w3.org/2000/svg" viewBox="0 0 1812.4 946.84"><path fill="#eae5d8" d="M1056.95 628.17c.57 4 2.05 11.98 2.95 15.92l-2.82 7.84-.13 7.98-1.49 7.82c-1.83 3.63-4.37 11.07-5.14 15.04l-.64 8.13-2.77 7.49c-2.01 6.95-7 15.43-9.58 22.16l-6.08 5.59-4.3 6.77-6.75 4.7c-2.83 2.9-7.6 9.39-9.59 12.92l-5.65 5.78c-3.81 1.47-10.82 5.42-14.03 7.95l-7.69 2.56c-3.48 1.84-10.4 5.87-13.74 7.97-3.73 1.24-11.39 3.61-15.19 4.65l-7.71 1.82-7.42 3.5-8.19-.95-7.73 2.95-8.02.56c-4-.56-11.94-1.48-15.95-1.88l-7.79-1.85-8.19.02c-3.83-1.32-11.45-4.06-15.23-5.5l-7.26-3.46-8.2-1.24-7.12-3.84-6.41-5.01-7.74-2.88-6.29-5.12c-3.29-2.35-9.7-7.39-12.75-10.04l-3.73-7.62-6.03-5.37-4.15-6.93-6.37-5.36c-5.33-6.92-4.9-6.16-6.32-14.94l-3.95-6.98-5.99-6.28.2-8.66-2.02-7.76-4.11-7.32-2.14-7.9c-.25-4.13 0-12.25.53-16.34l-2.37-8.09 1.82-8.07-.55-8.23 1.49-8.04c1.51-3.83 3.66-11.66 4.34-15.71l4.44-7.05 2.78-7.49 1.62-8.07c5.88-6.75 5.32-5.83 7.17-14.52 2.72-3 8.19-9.06 10.91-12.05l4.45-6.7 6.19-5.2c5.27-8.81 14.71-16.57 23.46-21.73l5.81-5.91 7.19-3.81 7.24-3.7 7.8-2.38 8.4-.33 6.92-4.78c3.94-.99 11.78-3.23 15.64-4.47 7.33-1.27 17.13.56 24.29 2.09l8.23-3.19c6.81 2.56 16.33 5.16 23.4 6.82l8.51-.36c3.75 1.69 10.89 5.58 14.32 7.84l8.27 1.48c3.4 2.29 9.86 7.24 12.93 9.95l7.34 3.61 6.23 5.19 4.75 6.77c8.57 6.3 16.84 14.31 20.01 24.78 2.81 2.91 7.5 9.41 9.36 13l3.03 7.43 3.83 7.07 2.35 7.68c1.62 3.68 4.72 11.25 6.12 15.03-1.07 8.95-1.39 7.61 2.36 16.03l-1.32 8.18Zm-70.12 60.43 3.06-7.26 1.75-7.71 4.95-6.38c.64-3.87 2.27-11.47 3.2-15.27l2.38-7.64.12-7.91c-1.44-3.75-3.26-11.36-3.67-15.33-1.2-3.66-3.58-11-4.78-14.66l-3.94-6.63c-1.63-7.73-1.53-7.69-6.45-13.91l-3.29-7.85-5.93-5.87-7.44-4.02-6.97-4.17-6.1-5.62-7.43-3.47-7.21-4.41-8.15-1.82-8.35-.25c-4.09-.62-12.39-.96-16.52-.59l-8.24 1.1-7.47 3.96-8.21.72c-2.94 2.88-9.34 7.61-12.96 9.52-3.69 1.68-10.25 5.94-13.27 8.62l-6.31 4.99-4.06 7c-5.12 5.11-10.48 13.31-14.04 19.56-.1 7.35-3.44 16.65-5.82 23.5l1.15 8.1-.34 7.92c.4 3.92 1.85 11.74 2.92 15.54l-.46 8.4c2.15 3.53 5.25 10.93 6.26 14.93 3 2.74 8.52 8.67 10.99 11.88l3.15 7.82c6.31 5.64 6.25 5.4 14.33 7.7 4.98 7.08 4.37 6.78 12.08 10.74 7.4.24 17.25 2.05 24.21 4.57 8.89 2.54 7.5 2.4 16.35.09 8.57 1.19 7.98 1.25 16.13-1.62 3.98-.86 11.98-2.69 15.94-3.65l7.22-3.91 8.13-2.62 6.59-5.19 4.78-7.01 6.82-5.08 4.89-6.82ZM1493.49 782.21l-8.35-5.79-3.76-7.35-5.97-5.83c-1.54-3.86-5.3-11.19-7.56-14.68-3-2.86-8.79-8.84-11.55-11.93-2.78-3.04-7.6-9.69-9.63-13.28-5.99-4.5-6.09-4.22-13.38-5.48-3.9.49-11.73.41-15.62-.1l-5.6 3.53-2.57 5.87c-.31 3.83-2.08 11.16-3.5 14.73 1.39 9.31.6 20.57 2.45 29.81l-5.84 6.26-6.54 3.91-7.36.59c-3.79.68-10.89.82-14.7.27l-7.29-3.15-7.4 2.31-7.91-3.38c.03-4.1-.76-12.04-1.56-16.05l-1.81-8.07.41-8.07-.07-8.07 2.6-8.07v-8.07l-.22-8.07-1.76-8.07 1.76-8.06-1.69-8.06c.09-4.04.49-12.11.8-16.13-.15-7.23-.47-17.09 1.13-24.2-1.14-3.97-2.94-12.06-3.59-16.13.21-4.02.04-12.12-.34-16.13 2.19-7 2.85-16.97 3.66-24.21-.8-3.96-1.65-12.09-1.68-16.14 1.21-8.56 1.19-7.84-1.81-16.14 2.14-10 3.25-22.38.09-32.28l3.02-8.07-2.22-8.08-.36-8.08c2.57-3.03 8.27-8.47 11.48-10.79l8.23-1.09 8.31 2.03 8.24-.5c7.44-.13 17.41-1.88 24.74-3 4.11.43 12.4.99 16.53 1.13 7.15 2.05 17.21 3.05 24.62 3.18l8.4-1.11c3.92.95 11.68 3.51 15.36 5.19l8.42-1.29 6.41 5.21 7.18 2.9c5.67 4.12 14.11 8.63 20.31 11.87 4.13 7.98 3.07 6.91 10.77 11.53l2.47 7.93 7.28 4.5 1.17 8.36 5.37 6.02 3.86 6.94 2.58 7.49-1.03 8.32c.48 3.89 1.32 11.71 1.67 15.62l3.67 7.7.74 8.04-1 8.01-2.42 7.74-2.05 7.68-3.61 7.14c-.44 4.03-1.88 12.09-2.84 16.03l-5.76 5.94-2.98 7.59-5.21 6.12c-9.13 5.01-17.61 12.81-21.53 22.64l2.39 6.94c2.1 3.22 5.98 9.86 7.75 13.27 3.46 7.16 3.63 7.09 9.83 11.95l1.68 8.03 6.49 4.97 3.57 6.83 2.16 7.74 4.66 6.15 2.53 6.97-3.09 7.48c-4.14.53-12.46.33-16.6-.22l-8.76-.19-8.75 1.3-8.82-.42-8.69 2.07Zm-31.57-130.69 7.92-1.82 7.45-3.67 4.66-6.92 5.79-5.93 3.98-7.33c.94-7.24.88-17.15.23-24.4-.1-3.86-1.3-11.38-2.42-15.08l-3.2-7.04c-2.51-2.94-6.94-9.25-8.88-12.59-7.87-6.14-19.11-9.95-27.94-14.35-7.18.06-17.02.31-24.18.8-3.9 1.11-11.93 2.3-15.98 2.45l-1.8 8.12c.35 4.12 1.23 12.37 1.76 16.47l-.31 8.24-2.96 8.25 2.5 8.22.08 8.24-2.88 8.26c.51 4.16 2.07 12.41 3.11 16.47-.42 7.94-.96 7.61 2.5 15.05l6.68 5.53c3.73.14 11.21.07 14.93-.14q7.36-2.29 14.99-1.05c3.49-1.42 10.5-4.32 13.96-5.79ZM856.72 311.03l-4.15 7.66 2.31 8.11-2.58 7.6-.65 7.89-4.17 7.05-.95 7.86-3.26 7.14-1.53 7.86-2.93 7.37-5.81 5.76c-1.95 3.38-6.35 9.8-8.82 12.82l-3.29 7.45-4.59 6.59c-5.41 4.63-13.78 9.6-18.86 14.63l-7.86 2.29-6.56 4.28c-9.32 3.33-20.53 7.36-28.97 12.6l-8.3-1.47-7.41 4.02-7.99-.46-7.89-2.33-8 3.59-7.99-1.58-8 1.21c-3.97-.92-11.97-2.57-15.97-3.29l-8 2.17-7.99.48-7.99-.28-7.99-2.17-8 2.8-8 .42-8-.99-7.12-7.67 1.71-8.04-3.17-8.04 1.29-8.04-.92-8.04 1.72-8.04-.41-8.04 1.27-8.04-.95-8.04.34-8.04-1.43-8.04-.41-8.04 2.51-8.04c-2.89-7.92-3.01-7.77-2.18-16.08l2.22-8.04.3-8.04.2-8.04-1.67-8.04c-.13-7.2.23-17 1.29-24.13-.72-4-1.32-12.03-1.19-16.09-.67-3.99-1.37-12.05-1.41-16.09l1.59-8.04-2.12-8.04 1.41-8.04-.97-8.04 2.7-8.04c-.29-4.03-1.45-12.14-2.3-16.09.04-3.99-.26-12.12-.58-16.1l8.4-7.9 7.72 1.76c3.94-.23 11.67-1.6 15.47-2.7l7.72.64 7.71 2.72 7.73-1.72 7.72.84 7.73-1.3 7.73.87c3.95.2 11.61-.48 15.47-1.29 7.13.94 16.88 1.94 24.08 1.26 9.65 3.33 21.46 6.27 31.33 8.87 3.71 1.67 11.3 4.59 15.16 5.87l6.29 5.34 7.6 3.16 6.12 5.38c3.72 1.86 10.55 6.47 13.64 9.27 2.17 3.48 6.91 10.25 9.4 13.51l3.06 7.74 5.96 5.79 3.51 7.34 4.88 6.7 3.27 7.52.81 8.35 3.77 7.38 2.39 7.85-.16 8.33 2.12 7.94c-.12 7.3.59 17.3 1.83 24.51Zm-88.49 58.36 8.38-2.81c2.79-8.25 2.21-7.8 8.6-13.85l3.11-7.42 5.38-6.47c.35-4.16 2.18-11.98 3.73-15.84-.31-4.05-.59-12.11-.57-16.15l2.09-8.07c-.35-4.04-1.47-12.08-2.26-16.06-2.14-3.46-6.18-10.55-8.07-14.14-1.26-3.76-4.35-11.07-6.17-14.6l-5.33-5.91-3.79-7.41c-3.26-2.27-9.58-7.25-12.55-9.89-3.39-2-10.61-5.06-14.43-6.03l-7.98-.17-6.89-4.58-8.07 1.87c-3.93-.64-11.54-2.92-15.22-4.47l-7.7 3.67-7.76-1.25-7.62 1.72-7.12 5.78c-1.81 8.63-1.75 7.78.69 16.17.43 4.03.56 12.13.26 16.17l-2.14 8.09 2.83 8.09.45 8.09-.96 8.09c0 4.12-1.12 12.21-2.21 16.18l3.19 8.08-1.28 8.09.93 8.09-1.71 8.09.42 8.09-1.25 8.09c.77 4.04 1.09 12.09.63 16.19l1.44 8.09c6.25 6.27 5.65 6.04 14.1 8.81l8.07-2.53 7.97.63 8.07 2.01 8.09-.3 8.08-.89 7.56-3.32c6.96-1.93 16.14-5.5 22.69-8.54l4.34-7.5ZM725.72 780.63c-3.66.1-10.94-.37-14.56-.92l-7.16 2.9-7.27-.03-7.36-2.54-8.11-.69c-.62-4.06-2.55-11.94-3.87-15.82.8-3.86 1.87-11.64 2.13-15.56-2.69-7.76-2.8-7.35-1.65-15.52.72-3.86 1.13-11.63.81-15.55l-1.61-7.76 2.21-7.8-1.32-7.76 1.67-7.8-5.65-6.68-6.71-4.11c-4 .94-12.09 2.04-16.19 2.18l-8.08-1.34-8.09 1.09-8.06-3.6c-8.55 2.99-7.26 3.07-16.19 1.35-4.05-.33-12.15-.23-16.18.2l-8.1.32-7.08 3.07c-3.04 7.56-2.72 6.96-1.72 14.84-.09 3.9-.45 11.7-.71 15.59l-2.19 7.78c1.26 6.9 1.55 16.47 2.32 23.42-.46 3.9-.41 11.71.11 15.61-1.67 7.03-3.39 16.77-4.46 23.92l-8.4 2.07-7.51.45-7.48-.83-7.53 1.03-7.44-2.43-7.52.7-6.31-3.97-3.08-6.41c-.88-7.14-1.4-16.94-1.63-24.11l2.21-8.04c.18-7.27-.46-17.13-2.61-24.12l2.44-8.04-3.13-8.03 3.34-8.04c-1.82-8.44-1.71-7.94.48-16.07.25-4.11-.39-12.07-1.26-16.08l.85-8.04c-.59-4.02-1.06-12.02-.95-16.08-.81-4.02-1.24-12-.85-16.08l1.43-8.04-.02-8.04-1.86-8.04c-.23-4.06.32-12.09 1.08-16.08-.36-4.02-1.4-12.1-2.08-16.08.52-4.04 2.06-12.12 3.06-16.08l.54-8.04-.99-8.05-2.59-8.04c.87-3.94 1.81-12.06 1.87-16.1l3.85-6.41 6.36-5.03 7.57 2.36 7.55-.17 7.53-1.73c6.99 1.67 16.8 1.21 23.93 1.72l1.72 8.8-1.29 7.77 2.24 15.52c-.81 3.87-1.28 11.6-.91 15.54l.7 7.76-1.64 7.77.17 7.77c.96 3.82 2.36 11.61 2.79 15.53l.3 7.77-2.76 7.79c-.56 8.64-.12 8.16 3.24 15.96 4.08.26 12.21.59 16.29.65 4 .91 12.06 1.86 16.16 1.88l8.08-1.27c8.54 2.28 7.6 2.28 16.16.14l8.08 1.02 8.08-.72c4.01.35 12.14.57 16.17.43l7.15-3.1 4.18-7.11-1.05-7.79c.55-3.86 1.38-11.66 1.67-15.55l-1.07-7.79 1.85-7.76-3.31-7.81 1.82-7.77-1.72-7.8.05-7.78 1.09-7.78-.82-7.79c2.55-8.01 2.63-7.24.98-15.57l4.37-6.63c3.31-1.91 10.29-4.71 14-5.65l7.26.6 7.23 3.38c3.62.12 10.92.05 14.55-.15l7.62 1.31 2.58 7.64c-.23 4-.61 12.07-.76 16.07l2.94 8.03c-4.13 12.9-4 19.27-.07 32.15l-1.64 8.04.88 8.03.1 8.03-2.13 8.04 2.68 8.03-3.75 8.04 3.08 8.03-1.47 8.04.86 8.04-2.38 8.04 1.34 8.04-.67 8.04c1.03 3.98 2.15 11.98 2.21 16.08l-2.28 8.04.06 8.04-.15 8.04c1.3 3.92 2.98 11.96 3.32 16.08-.32 4-1.08 12.08-1.52 16.08l.72 8.04-2.26 8.05.62 8.04-.75 8.05.2 8.05-2.21 6.87-6.73 3.87ZM1255.46 343.3l-8.26-1.82-8.26.45c-7.42-.24-17.53-.72-24.77 1.36-8.38-3.62-7.3-3.8-16.52-2.93l-8.26.09-8.26 2.27-8.27-3.2-6 9.09.02 8.34-2.04 8.38c-.31 4.16-.37 12.53-.12 16.7l8.69 5.61c3.97.33 11.7 1.95 15.48 3.21l7.76-3.56 7.73 3.1 7.76-2.38c10.21 3.67 20.8 2.42 30.99-.47l7.73 3.3 7.76-2.25 7.75.61 7.74 1.98c3.88-.6 11.67-1.97 15.52-2.73l7.6 8.19-2.52 7.4c-.47 6.64.44 15.68-.37 22.3l2.4 7.47-.13 7.44-7.62 6.07c-4.03 0-11.99-.42-15.98-.83l-7.99 2.01-7.99-2.07c-4.01.81-12 2.54-15.99 3.44-3.98-.56-11.98-1.35-15.99-1.58l-7.99-1.67-7.99-.27-8 2.5c-3.98.51-11.99.65-15.99.28l-7.99-2.63-8 1.63-7.99-1.31c-3.97-.33-12.02-.24-15.99.18l-8-.39-8 2.16-8-2.53-8.01 3.44-7.03-8.7 1.92-8.06-3.49-8.06 3.1-8.06-3.07-8.06c-.15-4.12.66-12.12 1.6-16.12l-1.94-8.06 1.37-8.06-.7-8.06 2.74-8.06c.15-4.03-.05-12.1-.4-16.12l.22-8.06-2.36-8.06c.34-10.11-.74-22.16.4-32.24l-.4-8.06 2.28-8.06c-.62-4.01-2.08-12.15-2.89-16.13l3.59-8.06c-.26-4.16-1.93-12.2-3.3-16.13-.39-4.05-.12-12.11.53-16.13l2.51-8.06c-2.41-8.27-2.45-7.7-.78-16.13-.73-10.14 1.52-22.2-.13-32.28l6.27-5.68 7.9.38 7.91-2.24c3.95.53 11.85.66 15.81.26 7.12.79 16.82.83 23.72-1.38l7.91 3.39 7.91-3.56 7.91 2.63c3.95-.87 11.79-1.42 15.82-1.07l7.91 1.8 7.91-1.39 7.91 1.54 7.91-2.95 7.91-.85c7.1.73 16.7 2.48 23.74 3.61l7.91-2.91 7.92-.27 6.42 8.52 1.39 7.51-2.47 7.53-.06 7.52 3.81 7.51c-.75 3.73-1.49 11.25-1.46 15.05-7.41 5.67-6.17 5.75-15.62 7.15l-8.16 1.89c-4.15-.58-12.35-2.4-16.36-3.62l-8.16 3.77-8.18-.27-8.19-3.05-8.17-.39-8.16 2.11-8.18-.44-8.17 2.2-8.19-2.92-8.18.9-8.18-.77-5.11 8.12-3.34 8.07c3.3 8.52 3.41 7.07 1.9 16.15.68 7.25 1.53 17.11-.42 24.23l6.92 6 8.17 2.58 8.18-.1 8.19-2.98 8.18.1c4.06.89 12.26 2.52 16.35 3.25l8.19-1.5 8.18.55c4.07-.5 12.29-.66 16.38-.32l5.67 6.77 2.65 7.44.42 7.49-1.88 7.54 1.23 7.47-.45 7.51 1.12 7.48-7.9 9.12ZM1259.28 494.1l7.67-1.23 7.68.17 7.69 1.71 7.67-2.41 7.69.7 8.18 3.43 1.79 8.17c-.53 3.99-1.25 11.98-1.43 15.99l2.97 8-.07 8-2.2 8c2.03 7.08 2.37 16.75 1.24 24l-1.03 8 1 8c-1.85 8.92-1.81 7.41 1.27 16l-1.68 8 .8 8-2.15 8 .09 8 3.12 8c-.99 3.95-2.22 11.94-2.44 16.01.99 3.94 2.41 11.97 2.8 16.01l-3.04 8.01 1.77 8-1.92 7.81.22 8.16c-4.24 7.09-4.27 7.08-5.03 15.26-2.33 3.36-5.83 10.49-7.05 14.38l-6.38 5.32c-2.15 3.36-6.12 10.38-7.91 13.95-3.79 1.61-10.58 5.72-13.68 8.41l-4.76 6.98c-11.32 5.77-24.23 13.46-37.39 12.8l-7.14 5.08-8.05.71-8.08-.82c-4 .44-12.06.89-16.08.9l-7.48-4.17c-3.84-.96-11.58-2.41-15.5-2.93-8.22-.87-8-.79-14.94-5.2-3.52-1.81-10.65-5.35-14.21-7.07-4.54-5.51-12.51-10.99-17.96-15.5l-5.82-5.38-3.66-7.12-7.26-4.76c-1.7-3.74-4.01-11.42-4.65-15.47-2.22-3.48-5.48-10.8-6.59-14.77l1.41-8.26-.26-7.89-2.51-8c.07-4.05.98-12.08 1.82-16.04l-.11-8.01 1.24-8.02-1.6-8 2.02-8.03c-2.63-8.05-2.7-7.67-1.38-16.02l-.91-8.01 2.09-8.03c-2.13-10.66-5.18-21.37-1.23-32.06l-2.38-8c3.49-11.39 4.27-20.84-.4-32.07 1-3.97 2.52-12.01 3.04-16.06l-2-8.01 3.86-7.02 6.98-1.7 7.37-.38 7.36-2.68c3.69.19 11.1.87 14.77 1.36l7.39.74 6.91 2.35 4.32 6.85-2.43 8.1 2.71 8.04-1.16 8.09.58 8.07 1.28 8.06-.22 8.08 1.15 8.06c-.49 4.03-1.28 12.13-1.58 16.17l1.35 8.06-1.34 8.09.49 8.07c1.15 7.31-.23 17.17-2.12 24.26 1.48 3.88 3.52 11.98 4.04 16.11l-2.56 8.11 2.31 8.05-.45 8.09-1.87 8.1.09 8.08.32 8.08 3.34 7.52c2.05 7.87 2.05 7.74 7.32 13.87 5.87 6.35 5.28 5.94 13.42 8.8 6.64 3 15.54 7.46 22.84 8.55l7.82-.96 7.32-2.75 7.85.15 7.45-2.11 6.57-4.14c7.31-2.97 7.28-2.89 12.61-8.93l1.32-7.87 4.19-6.79-2.59-7.97c.31-3.98 1.23-11.92 1.83-15.86l-1.75-7.96c1.04-3.91 2.66-11.85 3.23-15.85l-2.09-7.97-.42-7.95 2.93-7.91c-2.23-9.81-2.51-21.93-.46-31.78-.9-7.07-2.14-16.72-1.38-23.85 1.31-3.97 2.64-11.68 2.68-15.86-2.16-8.7-2.16-7.3.44-15.89-1.61-6.99-2-16.73-1.43-23.86.74-3.91 2.05-11.9 2.62-15.84l7.91-2.71ZM1687.65 782.91l-7.71 2.89c-4-.9-11.84-1.49-15.91-1.15-7.12-.16-16.83-.34-23.81-1.92l-7.18-3.78-7.8-1.77c-3.63-1.7-11.1-4.78-14.88-6.15-3.03-2.62-9.21-7.84-12.29-10.4l-4.71-6.57c-4.87-5.17-11-12.24-13.23-19.15 2.56-2.77 8.15-7.74 11.2-9.95 4.66-6.7 3.93-6.22 11.32-9.73l4.79-6.02c3.19-1.45 9.9-3.92 13.32-4.63 3.26 1.4 10.18 4.65 13.41 6.21l5.39 6.49 7.91 2.75 6.8 4.98 8.67-.77 7.77 2.16c3.95-.65 11.91-1.82 15.87-2.33 3.74-1.83 11.62-4.47 15.7-5.36l6.15-6.97-1.03-9.07 1.48-8.77-3.31-8.27c-5.56-5.37-13.54-12.1-20.42-15.68l-7.99-2.51c-3.47-2.32-10.54-6.69-14.15-8.77-3.92-1.42-11.71-4.33-15.59-5.85-3.52-2.21-10.64-6.55-14.21-8.68l-7.74-3.05-8.56-1.81-6.5-5.42-4.69-7.2c-5.21-5.18-11.55-12.96-15.7-19.02-2.14-7.09-5.29-16.7-9.06-23.12-2.06-8.75-2.01-7.26.84-15.92-1.71-7.08-.89-16.9-.26-24.07 5.47-6.44 5.54-6.08 7.57-14.29 2.76-2.99 7.15-9.54 8.89-13.22 8.99-9.39 21.36-17.32 34.04-20.47 7.14-4.31 6.83-4.26 15.22-4.97 8.74.54 7.82.65 15.78-3.06l8.07.87 8.07-1.61 7.75 3.16c8.67-.93 7.74-1.13 15.76 2.28l7.92 1.55 6.89 4.34 8.62.62c3.33 2.39 9.58 7.63 12.51 10.49l7.18 3.84 6.37 5.01 4.05 9.03c-5.32 8.59-14.23 16.71-21.74 23.32-5.44 2.78-13.51 5.83-18.56 9.28-3.08-.99-10.31-2.65-13.54-3.34l-6.71-5.39c-9.26.03-8.12.35-16.22-4.12-8.58 1.5-8.45 1.45-16.77-.83l-8.11 2.31-7.12 4.79-6.12 5.99-2.9 8.2 4.79 6.83 2.52 7.85 6.14 5.14 7.33 2.68 6.07 5.18 7.66 2.02 6.43 4.48 7.83 1.67 5.7 5.94 7.76 1.82 6.57 4.21c3.62 1.41 10.95 4.17 14.61 5.5 5.3 6.61 4.67 6.49 12.53 9.92 4.56 5.44 12.34 11.14 17.7 15.74l2.51 7.79 6.48 5.45c.62 4 2.67 11.68 4.14 15.43l1.15 7.8 2.02 7.69.51 7.92-3.13 7.73c.18 3.99-.7 11.73-1.72 15.59-3.02 6.61-5.81 16.11-7.4 23.19-7.85 4.85-7.04 3.57-11.26 11.86-2.76 3.02-9 8.09-12.52 10.18l-5.66 6.35c-9.05 1.11-7.98.52-15.34 6.01l-8.29.69-7.79 2.06-8.13-.16ZM1071.39 395.62c2.55 7.37 2.6 7.3 1.6 15.02-.06 6.88.79 16.17 3.15 22.68-1.59 4.1-5.96 11.52-8.66 14.98-8.9 1.35-7.68 1.17-15.88-2.12l-7.94 2.46-7.94-.53c-3.96.31-11.93.96-15.88 1.29-9.74-2.71-22-3.21-31.78-.48l-7.95-2.66-7.95.32-7.94 2.46-7.95-1.64-7.94 1.26-7.95-1.95-7.94 2.85c-7.2.34-16.88-.96-23.85-2.7-3.92 1.01-11.9 2.61-15.9 3.19l-8.52-8.96.84-8.05 2.59-8.05-1.55-8.06c.09-4.04.66-12.1 1.12-16.11.59-8.53.32-8.36-2.8-16.11l1.06-8.06-1-8.06c.04-4.11 1.25-12.15 2.38-16.1l-1.97-8.06c2.17-8.43 2.21-7.58.05-16.11l1-8.05-2.08-8.06 3.3-8.05c-1.24-3.98-2.91-11.98-3.31-16.11l.68-8.06c-.09-4.03-.34-12.09-.49-16.12.96-7.18 1.38-17.07 2.86-24.17-.55-4.01-1.55-12.1-1.99-16.12l2.54-8.06-.59-8.06-.58-8.06 1.34-8.06c-2.29-6.97-2.93-16.91-3.08-24.19l8.35-5.17 8.78-2.56 8.77-.92c4.38.18 13.18.92 17.53 1.48l8.77-.66c5.9 7.83 6.38 5.84 7.49 15.99l.9 7.95-.68 7.94 1.01 7.94.28 7.95c-.85 3.93-2.22 11.91-2.73 15.89l2.66 7.94-3.78 7.95 3.35 7.94c-1.01 3.95-2.01 11.83-1.98 15.9l2.14 7.95.12 7.95-.81 7.95 1.01 7.95-1.91 7.95.46 7.95-.89 7.95 1.82 7.95c-.22 7.14-1.23 16.8.44 23.85-.39 4.06-2.13 12.04-3.44 15.91-.02 3.95.31 11.97.67 15.91l8.11 7.65c4.17-.06 12.38-.84 16.48-1.56 7.37.7 17.41 1.3 24.72-.23l8.24 2.37 8.24-.1 8.24-2.89c8.95-.36 8.46-.09 16.48 3.52 4.08-.61 12.36-1.2 16.48-1.17l8.25.93 8.25-1.23 5.11 6.36ZM568.26 447.26c-11.89-.6-25.81-2.9-37.12 1.83l-7.45-2.23-8.08-6.42 2.7-8.02-3.26-8.02c2.18-8.24 2.18-7.78.43-16.05.67-4 1.86-12.03 2.36-16.05-.35-4.04-1.59-12.08-2.45-16.05l2.35-8.02-.19-8.02c1.08-9.11.9-7.78-2.79-16.04l3.62-8.02-3.8-8.02 1.27-8.02-.58-8.02c2-8.09 2.01-7.91.26-16.05 2.04-8.65 2.01-7.53-.49-16.05l2.98-8.03-2.51-8.03-.17-8.03 2.61-8.03-2.07-8.03v-8.03c.7-7.17 2.44-16.85 2.16-24.07l-1.97-8.03c.12-4 .09-12.06-.07-16.06l1.88-8.03-1.31-8.03 7.01-8.4 7.43 3.2c6.46-1.95 15.46-3.39 22.2-2.55 7.84 1.33 7.33 1.24 14.81-1.29l6.25 8.73c.64 4 1.04 12 .8 16.04l1.6 8.02-1.42 8.02c.25 4.04-.2 12.06-.89 16.04l.74 8.02-1.75 8.02.45 8.02 2.39 8.02-1.93 8.02.66 8.02 2.27 8.02c-3.65 11.27-4.51 20.87-.04 32.08-.48 4.05-1.95 12.09-2.91 16.05l.24 8.02-.33 8.02c.89 3.95 2.25 12.02 2.72 16.05l-3.61 8.03 3.89 8.02-2.38 8.03c-.22 4.01-.38 12.04-.32 16.05l-.46 8.02 2.5 8.02-.9 8.03 1.16 8.03c.21 3.99.26 12.07.1 16.06l-8.6 7.17ZM379.13 219.01c-5.92-3.25-5.3-3.26-12.09-2.99l-6.13-.96-5.79-3.17-6.38.69-6.06-1.39-6.44 1.08-5.82-3.03-6.24-.16-6.04-1.57-6.05-1.46-6.33.44-5.95-2.13c-6.44 1.82-6.01 2.12-12.61.42-2.83-1.71-8.59-4.06-11.83-4.74l-6.64 2.44-5.65-4.1c-6.57 1.93-5.96 2.2-12.62.49-6.02-3-5.52-2.95-12.17-2.47-3.03-.68-9.11-1.97-12.16-2.57l-6.47 1.27c-3.02-.78-9.06-2.46-12.04-3.35-3.1-.13-9.35-.44-12.45-.61-2.88-1.29-8.85-3.52-11.88-4.42l-6.45 1.17c-3.1-.25-9.22-1.45-12.19-2.38l-6.2-.46-5.82-3.05c-6.62.49-6.26.48-12.21-2.34l-6.23 2.47-6.57.15-3.46 5.65-4.46 4.21c-.69 6.21-4.35 12.13-7.82 17.12.24 3.21 1.09 9.63 1.68 12.8l-3.94 5.68 1.89 6.56c-.76 3.19-3.32 9.01-5.09 11.78l.29 6.32-1.82 6 1.72 6.54-4.03 5.66c-.03 5.56-.86 13.1-1.29 18.63l1.2 6.46-1.25 6.09-3.73 5.71.49 6.35-1.95 5.98 1.2 6.46-3.72 5.71c.62 3.16.96 9.45.64 12.65l-1.97 5.98-.34 6.23-2.03 5.98 1.65 6.01c-.11 2.95.65 8.57 1.55 11.38l2.32 5.16.38 6.98 6.67 2.09 3.08 5.78 5.96 2.83c7.08 12.72 5.92 10.03 16.76 18.59 2.76 1.57 7.91 5.23 10.29 7.33l2.63 6.26c2.67 1.71 7.43 5.76 9.53 8.14l3.77 5.42c.33 3.26.84 9.84 1 13.12-1.79 2.27-5.48 6.74-7.38 8.9l-2.18 6.31-6.03 1.67-5.44 2.82-5.74 2.23-4.62 4.43-5.62 2.47-6.41.92-5.28 3.15-5.64 2.43c-2.42 1.95-7.36 5.84-9.82 7.74l-5.86 2.02-6.52.73-4.39 4.81-2.26 5.85c-1.86 2.35-4.96 7.45-6.2 10.18l.31 6.12c-1.21 2.93-3.49 8.89-4.55 11.88.28 3.14.33 9.44.11 12.58l-3.47 5.76c.52 3.24.52 9.34-.06 12.56l-1.38 6.08.83 6.41-4.04 5.67.25 6.32-1.16 6.11c-.92 7.77-2.63 16.98-1.96 24.85l-2.21 5.95-.48 6.22-.34 6.24-2.71 5.88 1.11 6.46c-1.01 2.98-2.48 9.02-2.91 12.14-.22 3.11-.99 9.29-1.49 12.37.42 2.9.22 8.58-.36 11.45 1.76 11.49 4.14 16.46 14.11 22.83l5.92 1.64 6.16.05c5.35 1.05 12.53 3.07 17.92 3.9l6.25-.53 6.01 1.04 6.04.87 5.81 2.38 6.35-1.21 5.64 3.5c6.2-2.39 5.85-2.84 12.61-1.79l5.98 1.26 5.55 4.05c6.61-.98 5.96-1.11 12.11 1.53l6.35-1.16 5.78 2.57c5.44.62 12.85 1.58 18.34 1.15l5.8 2.46 6.05.8 6.35-1.16 6.07.69 5.6 3.77 6.29-.76 5.76 2.71 6.1.49 6.4-1.48c2.98.62 9.01 1.65 12.03 2.05 2.9 1.08 8.78 3.23 11.7 4.29 6.47-1.34 5.99-1.51 12.25.66 3.08.48 8.97 2.25 11.82 3.51 3.09-.32 9.34-.58 12.45-.53l6.17 1.86c2.66-1.67 7.58-5.52 9.82-7.72.68-6.69.45-6.08 4.52-11.4l-2.39-6.59c1.61-5.33 3.88-12.6 5.93-17.78l-2.26-6.57c.94-3.05 3.44-8.9 4.97-11.7l-1.16-6.4 1.01-6.08 2.47-5.85-1.9-6.52 3.28-5.73-1.48-6.45c.58-3.02 1.53-9.12 1.9-12.17l4.47-5.55-2.67-6.64c1.25-2.91 2.8-8.84 3.1-11.98l2.18-5.9c-.16-5.53.14-13.08.78-18.58.21-3.12 1.56-9.14 2.69-12.06.44-3.05.9-9.25.93-12.34.29-3 1.73-8.89 2.72-11.75l-4.66-4.9-.3-6.04-2.22-5.99c-2.33-1.99-7.01-5.94-9.37-7.89l-3.62-5.03-5.2-3.43-4.62-4.01c-1.82-2.5-6.09-6.86-8.56-8.73-3.93-4.75-8.84-8.96-14.69-11.21l-2.51-6.18-6.04-2.58c-2.74-5.91-2.82-5.89-2.47-12.41l-1.72-5.67.87-6.55 2.37-6.43c2.91-1.53 8.27-5.23 10.58-7.55l6.51-.37c2.42-1.81 7.66-4.56 10.52-5.52 2.42-1.77 7.26-5.41 9.64-7.24l5.76-1.81 4.26-4.71 5.32-2.66c3.03-.48 8.76-2.29 11.49-3.68l4.23-4.77 6.1-1.17c1.88-2.89 6.42-7.89 9.04-10.12l3.17-6.13c.55-3.26 2.05-9.62 3.1-12.72.27-3.13-.07-9.31-.65-12.4l.58-6.07c.65-5.38 1.91-12.7 2.26-18.11.96-2.92 2.94-8.81 3.94-11.71-.25-7.71.14-17.18 4.2-23.98l-1.65-6.4c2.96-4.87 5.55-11.85 5.91-17.57l-1.62-6.4.12-6.14 3.34-5.65-1.03-6.31c.54-3.02 2-8.95 2.92-11.87l.38-6.1c1.02-2.9 2.52-8.84 2.99-11.88l.93-6.7c-.58-3.34-2.71-9.61-4.33-12.59l-2.5-6.2-4.73-5.04-7.05.42ZM203.92 705.7l-5.8-3.95-6.52 2.31-5.73-3.22c-3-.89-9.09-1.74-12.22-1.75-4.92-2.64-12.07-5.06-17.61-5.84l-5.57-2.75-4.17-4.95c-4.1-4.13-10.37-8.1-15.89-9.96-1.83-5.46-6.61-11.53-9.95-16.13l.58-6.82-.94-6-2.03-5.78-.1-6.11c-.44-3.08-1.72-9.21-2.54-12.22l-.04-6.23 2.42-6.09-1.2-6.46 3.04-5.92-.56-6.44 1.36-6.15 2.67-5.85c2.25-6.5 1.87-6.17.64-12.78l4.26-5.3c-.64-12.17 2.13-14.06 8.96-23.2l3.94-.38-1.25 5.65 5.21.07 4.38-4.13 1.73-5.92.47-6.2 3.04-5.52.97-6.04 1.27-5.98-.42-6.23c1.05-2.92 2.64-8.95 3.16-12.01l-2.58-6.04 3.69-1.1c2.21 2.04 6.89 5.78 9.36 7.49l3.9 4.56 4.98 3.53 3.83 4.64 3.58 4.83 2.34 5.72 5.06 3.73 2.4 5.57 4.82 4.21 2.91 5.39-.17 6.52 1.18 5.8 5.93 1.41-.47-5.98 2.44-4.51-.16-5.1 3.27-.32 6.51 2.32 4.8 4.32 1.66 7.03 5.64 3.58 4.37 4.7 1.64 6.68c2.5 2.12 6.61 6.91 8.3 9.72 6.79 7.01 9.91 13.01 11.53 22.64l4.89 4.87-.27 6.92 3.6 5.56-.78 6.53.89 6.13-1.06 6.19.36 6.21c-.55 5.67-1.31 13.4-.28 19.07l-4.89 5.11-.47 6.46-1.8 6.12c-5.22 4.72-4.82 4-6.76 10.75l-4.18 4.77-5.46 3.38-3.88 5.15c-3.01.92-8.98 2.92-11.93 3.99-3.03.54-8.93 2.24-11.79 3.38l-6.18-.15-6.39 2.53Z"/></svg>