<svg xmlns="http://www.w3.org/2000/svg" viewBox="0 0 1812.4 946.84"><path fill="#eae5d8" d="m1059.38 628.03-.6 8.03-2.2 7.91c1.36 10.06-.65 21.95-.84 32.01-5.22 7.13-5.05 6.08-6.1 14.91-1.89 6.97-4.43 16.47-8.7 22.43l-6.64 5.33-2.39 7.97-4.8 6.43-7.36 4.17c-2.34 3.3-6.87 9.99-9.12 13.35-3.22 2.41-9.58 7.27-12.77 9.7l-8.05 2.23c-6.08 3.68-14.75 7.98-20.21 12.59l-8.04 1.17-7.04 4.01c-9.7 2.24-21.49 3.87-31.4 4.72l-7.94-.93-7.95 1.95-8.1 1c-3.99-.59-12.11-1.57-16.12-1.98-6.39-3.5-15.79-6.92-22.24-10.31-3.99-.71-11.68-3.29-15.29-5.17l-6.54-4.8-8.3-2.08c-7.06-7.44-15.62-16.33-24.63-21.43l-3.06-8.07-6.72-4.98-4.96-6.46-1.55-8.53-5.83-5.97-4.31-6.94-1.04-8.32c-3.72-9.48-7.84-20.89-11.16-30.52-.17-4.07-.5-12.26-.64-16.33.88-3.97 2.05-12.06 2.32-16.12 1.81-19.05-3.53-11.35 6.51-31.3l-.81-8.75 5.35-6.59 2.79-7.52c3.94-6.09 7.77-15.19 10.28-21.98l6.74-5.07 3.27-7.7 7.52-4.05 3.18-8.19 8.11-3.04 4.89-6.72c2.87-3.01 9.22-7.94 12.83-9.97l8.5-1.35c3.65-1.57 11.03-4.59 14.73-6.03l6.45-5.73 7.57-3.06c4.12-1.05 11.98-1.81 16.22-1.57l8.03-.56 8.06.96c3.97-.99 12.12-2.59 16.17-3.19 7.85 3.24 7.67 3.22 16.06 2.7l7.83 2.22 7.06 4.54 7.33 3.15c3.99.74 11.6 3.27 15.24 5.07l7.55 3.02 6.8 4.39c3.22 2.42 9.35 7.73 12.19 10.59l7.73 3.48 3.7 7.75c7.9 4.19 7.24 3.36 12.11 10.86l2.82 7.9 4.85 6.41c13.92 18 6.86 10.67 12.33 29.47.84 3.94 3.49 11.51 5.27 15.13.71 7.2 2.71 16.87 5.04 23.73Zm-74.6 59.26c11.41-15.61 9.31-7.54 13.34-27.72l1.09-7.68-.56-7.78 3.15-7.67c-.92-3.81-2.79-11.44-3.74-15.23-1.46-3.55-3.81-10.86-4.68-14.59l-.23-8.32-5.76-5.78-4.11-6.49-2.66-8.35-6.54-5.32-7.3-4.15c-3.03-2.85-9.61-7.45-13.32-9.32-6.25-6.05-5.99-6.02-14.25-8.77l-8.18-1.87-8.47.5-8.2-2.17c-7.11 2.33-17.26 3-24.52 4.66-6.82 2.31-15.61 6.74-22.39 9.16-2.67 3.06-7.95 9.34-10.45 12.53-3.04 2.53-8.17 8.36-10.29 11.71l-6.13 5.31c-2.47 3.16-7.01 9.89-8.99 13.39-1.4 7.04-3.33 16.69-5.65 23.5l2.12 8.1-1.36 7.88.11 7.97 1.59 7.81 3.86 7.12-.09 8.49c2.83 2.92 7.7 9.31 9.69 12.85l2.05 8.34c3.48 2.17 10.06 6.87 13.21 9.45l4.83 6.69c9.69 6.46 18.67 9.35 30.24 10.18 3.89 1.34 11.87 3.03 15.97 3.37l8.21 1.81 8.36-.04 8.24-1.48 7.54-3.87c4.15-.64 12.41-2.55 16.43-3.79l5.23-7.3c8.6-2.98 7.76-2.26 13.86-9.07 6.14-6.1 5.93-5.93 8.76-14.06ZM1493.48 779.75l-9.28-2.69-5.56-6.11a807 807 0 0 1-8.01-14.36l-5.23-6.35-2.76-8.03-5.14-6.41c-1.82-3.69-6.23-10.63-8.81-13.84l-7.34-4.09c-8.93.87-7.78.87-15.87-2.75-3.35 1.68-10.4 4.66-14 5.61l-5.15 6.32 3.35 7.54-1.82 7.37.97 7.46c-1.03 3.65-2.92 11.04-3.77 14.73l1.93 7.5-2.99 7.77-7.92 2.8-7.3-2.3-7.4 2.67-7.35.29c-3.63-.65-10.99-1.56-14.67-1.8l-6.1-4.36-5.7-6.19 1.29-8.07-.92-8.07 1.71-8.07-.41-8.07 1.26-8.07-.95-8.07.34-8.07-1.43-8.07-.41-8.06 2.51-8.06c-2.89-7.94-3.02-7.8-2.19-16.13l2.22-8.07.29-8.07.2-8.07-1.67-8.07c-.13-7.22.22-17.05 1.27-24.2-.72-4.01-1.33-12.07-1.2-16.14-.67-4-1.38-12.08-1.41-16.14l1.58-8.07c-2.33-8.21-2.41-7.67-.72-16.14-1.26-8.6-1.17-7.93 1.72-16.14-.3-4.04-1.46-12.17-2.31-16.14.07-7.2-.94-17.04-.13-24.22 4.45-6.88 3.75-6.55 11.06-10.5l8.21-2.07 8.27.4 8.31 2.49 8.22-1.91 8.26.71 8.25-1.37 8.25.9c4.19.25 12.42-.25 16.56-.89 4.1.73 12.29 1.84 16.42 2.32l8.32-.23 8.03 2.44c3.78.83 11.26 2.78 14.94 3.97 6.88 1.42 15.14 6.09 21.53 8.84l5.42 5.77 6.91 3.82 5.13 5.89c3.32 2.24 9.23 7.49 11.78 10.58 1.54 3.63 5.03 10.75 6.91 14.21l1.64 7.82 4.78 6.39 2.04 7.53 3.4 7.21 1.61 7.85-.98 8.14 2.06 7.83.53 8.02-2.19 7.85-.04 8.03-2.23 7.68-1.98 7.72-3.81 7.05-4.46 6.59c-1.43 3.65-4.99 10.72-7.21 13.97-2.67 2.83-8.02 8.71-10.71 11.53l-4.17 6.98-5.87 5.38-2.01 6.48.41 6.43 4.24 6.4 3.75 6.71 5.14 5.83c3.92 5.63 8.63 13.73 11.59 19.93 8.08 8.35 10.56 16.31 13.53 27.15-4.3 6.55-3.76 6.01-10.74 9.47l-8.76-2.27-8.74 3.73-8.76-2.19c-4.39.07-13.17-.52-17.52-1.16Zm-30.8-125.89c3.3-2.43 9.57-7.59 12.51-10.4l5.99-4.98 5.13-6.09 2.62-7.54 4.37-7.15c.19-4.09.99-12.28 1.57-16.33l-1.18-7.99-2.74-7.52-5.15-6.24-1.58-8.25-7.38-3.98c-2.66-2.99-8.42-8.68-11.41-11.37l-8.7 1.23c-7.66-3.3-7.24-3.23-15.52-2.7-3.91-1.2-11.89-3-15.93-3.61l-7.93 2.5-6.53 3.56c-1.86 3.51-4.26 11.09-5.02 15l2.86 8.22.48 8.23-.93 8.24c.02 4.19-1.07 12.43-2.15 16.49 3.5 8.75 3.6 7.1 1.97 16.47l.96 8.24-1.67 8.25 3.44 7.38 7.28 4.45c3.72-.66 11.14-.93 14.9-.53 3.61-1 10.94-2.44 14.65-2.87 7.68 1.38 7.51 1.53 15.07-.73ZM853.1 310.92l2.37 7.98c-3.87 12.13-3.93 26.52-7.93 38.63-1.2 3.81-3.4 11.44-4.47 15.28-1.72 3.62-5.6 10.54-7.83 13.86l-6.01 5.52c-2.85 6.57-8.7 14.28-13.06 19.89-3.12 2.51-8.99 7.92-11.77 10.79-3.63 1.7-11.01 4.93-14.73 6.41l-5.84 5.74-7.68 2.24-7.12 3.46-7.71 1.8-7.36 3.13-8.16-.71-7.65 1.92-7.9-.59c-7.06.53-16.71 1.66-23.79 1.91l-7.99.31-7.99-2.23c-7.21-.21-17.04.43-23.98 2.56l-7.99-2.46-8 3.11-7.98-3.36c-8.36 1.77-7.8 1.73-15.99-.52l-5.18-5.15-1.22-8.04.85-8.04-.84-8.04c.16-4.08-.42-12.07-1.15-16.08-.17-4.11.66-12.1 1.64-16.08l-.02-8.04-1.85-8.04c-.23-4.06.32-12.08 1.08-16.07-.36-4.03-1.4-12.09-2.07-16.08.52-4.05 2.06-12.12 3.06-16.08l.54-8.04-.99-8.04-2.59-8.04c.87-3.94 1.82-12.04 1.88-16.08 1.46-8.33 1.48-7.82-1.1-16.09l2.45-8.04-.09-8.04-1.65-8.05c.93-3.98 1.67-12.01 1.47-16.09l-3.15-8.04c1.13-3.96 2.8-12.01 3.32-16.09-.54-4.01-1.62-12.08-2.16-16.09.84-3.99 1.34-12.04 1-16.1l6.89-7.52 7.72 1.71 7.73-.09c3.86-.91 11.53-2.25 15.46-2.64l7.73-.22 7.71 2.84c3.87.22 11.58.36 15.45.29l7.74-2.93c3.94-.14 11.63.71 15.45 1.68l7.73.49 8.19-1.03 7.94 2.66c8.35-.88 8.15-.98 16.1 1.91l8.06 1.38 7.59 3.01c6.93 2.58 16.01 6.17 21.5 11.34l7.41 3.48c2.97 2.72 8.91 8.39 11.72 11.27 6.8 4.72 6.62 4.38 10.74 11.95l7.72 4.2 3.31 7.67 5.84 5.98 3.95 7.2 2.59 7.83 3.92 7.23.53 8.44c3.88 7.5 3.79 7.23 3.96 15.66l2.05 7.85 3.48 7.78.17 8.23-2.99 8.24-.07 8.05Zm-82.52 61.22 3.91-7.56 6.17-5.22 4.76-6.5c4.47-8.99 8.58-20.27 9.9-30.25-.03-3.95.39-11.85.82-15.78-.16-4.05.61-12.08 1.45-16.05-1.31-3.78-3.97-11.41-5.31-15.17-1.85-3.47-5.16-10.69-6.59-14.35l-4.61-6.38c-1.49-3.77-5.46-10.85-7.91-14.09l-7.51-3.53-5.62-5.33c-3.58-1.44-10.54-4.76-13.93-6.61l-7.69-1.09c-7.28-4.11-6.46-4.01-14.86-4.06l-7.63-1.84-7.78.22c-6.84.83-16.24 1.75-23.1 2.5l-8.04 6.26c-.09 4.05.29 12.15.75 16.17 2.27 8.98 2.23 7.38-.54 16.17l3.14 8.08-3.33 8.09c1.82 8.44 1.73 7.97-.46 16.18-.24 4.11.41 12.16 1.28 16.18l-.84 8.09c.59 4.02 1.08 12.11.97 16.17l1.07 8.09c.18 4.1-.64 12.19-1.61 16.18l.03 8.09 1.87 8.09v8.1l6.07 7.4c4.03-.2 12.04-.98 16.03-1.55 4.02.62 12.04 2.08 16.02 2.91l8.1-.05 7.88-2.07 7.24-4.19 7.94-1.04 7.52-2.71 7.6-3 6.82-4.55ZM725.67 779.06l-7.17 2.67c-9.82-3.29-19.48-1.65-29.01 1.63l-6.6-5.73-5.05-6.34.5-7.78 1.86-7.79c-.66-3.89-2.14-11.65-2.97-15.51l.36-7.77 2.34-7.8c.31-6.95-.82-16.38-.18-23.32l-2.58-7.75-.05-7.78-1.9-7.95-7.95-3.5-8.08-.69-8.1 1.97-8.07-2.11c-4.05.79-12.17 2.47-16.19 3.35-7.21-1.05-17.18-1.44-24.24-3.4l-8.09-.31c-3.85.91-11.21 3.61-14.59 5.69-1.83 3.35-4.64 10.54-5.74 14.21l1.56 7.82-1.37 7.78c-.37 3.9-.34 11.7.04 15.6l-.46 7.79 2.1 7.82-2.6 7.78 3.37 7.83c-.81 3.91-2.68 11.72-3.73 15.58l-.18 8.58-8.59.28c-7.27 2.9-7.17 3.16-15.06 2.47-7.73-1.84-7.35-1.77-15.01.17-4.01-.57-11.78-2.86-15.54-4.39-.43-4.06-.69-12.12-.51-16.19-.39-4.02-.52-12.05-.25-16.08l-2.36-8.04c.18-4.01.08-12.07-.19-16.08-.2-7.18.95-16.94.18-24.11l2.28-8.04c-.62-4-2.08-12.1-2.89-16.07l3.59-8.04c-.26-4.14-1.93-12.16-3.3-16.07-.39-4.04-.12-12.07.53-16.08l2.51-8.04c-2.43-8.3-2.44-7.68-.78-16.08-.22-4.03-.11-12.06.23-16.08.51-4.05.33-12.06-.36-16.08.34-4 .83-12.07.98-16.08l-2.24-8.04.63-8.04c-.38-4.01-.28-12.08.19-16.09l-.15-8.04-1.75-8.05c3.6-8.06 3.62-7.77 3.36-16.61 4.05-.38 12.11-1.46 16.08-2.23l7.55.03 7.56 1.73 7.53-1.47c3.87 1.03 11.77 1.9 15.78 1.85l4.29 8.18c-.7 6.97-2.41 16.4-3.52 23.32l2.95 7.75.3 7.76c-2.31 7.94-2.36 7.43-.68 15.54l-2.46 7.78-.04 7.77 3.82 7.75c-.74 3.85-1.46 11.63-1.43 15.55l-1.79 7.78 4.52 7.35c7.06 1.05 16.69 2.76 23.53 4.9l8.08-3.72 8.08.32 8.08 3.09 8.08.44 8.09-2.07 8.08.49 8.09-2.15 8.08 2.97 7.57-3.97 3.99-7.53-2.92-7.8 3.39-7.76-3-7.81 1.2-7.77-.58-7.78-.29-7.78 1.44-7.77c-1.18-8.28-1.03-7.79 1.72-15.55l-.07-7.79-2.95-7.81.13-7.79 1.75-7.78 4.17-6.27 6.35-4.08 7.26.6c3.63-.47 10.9-.58 14.54-.21 7.91 1.59 7.01 1.47 14.56-1.15l8.32 3.26c1.31 7.25 3.16 17.06 1.9 24.43l.98 8.04-.87 8.04-1.44 8.04.32 8.04 2.71 8.03c-3.04 12.77-.49 27.26-.15 40.17l.44 8.04-2.82 8.04c.65 4 2.15 12.1 2.99 16.07l-3.43 8.04 1.36 8.04-1.6 8.04 2.8 8.04-2.22 8.04 1.24 8.04-1.92 8.04 2.53 8.04c-.05 4.01-.27 12.07-.45 16.08.17 4.01 0 12.07-.32 16.08l1.88 8.04c-3.07 8.23-3.19 7.33-1.92 16.09-.26 4.01-.26 12.08 0 16.09l-2.58 7.47-7.42 1.7ZM1255.46 339.62l-8.26.1-8.26 3.12c-4.08-.99-12.33-2.22-16.51-2.43-4.07 1-12.35 2.41-16.52 2.82l-8.26-3.03-8.26 2.05-8.27-1.1c-9.59 1.56-8.6 1.89-16.12 7.5l1.83 8.31-.9 8.36c1.3 8.66 1.16 8.42-1.38 16.72l8.85 7.94 7.75-1.86 7.74 2.47 7.74.46 7.76-2.92c12.39 1.4 26.61-.74 38.72 2.81l7.76-3.63c3.93-.08 11.66.74 15.49 1.61 3.87-.33 11.65-1.05 15.51-1.44 7.95 3.09 7.64 2.77 13.41 9.14.18 3.78 1.27 11.22 2.16 14.9l-1.34 7.42c-.25 3.72-.13 11.17.23 14.88l-1.8 7.42-5.56 5.65c-3.99.24-12 .82-15.98 1.15l-7.99-1.49-8 3.5c-4.04-.41-12.02-1.64-15.99-2.45-3.97.88-11.95 2.14-15.99 2.51l-7.99-2.49-8-.12-8 2.45c-4.04-.1-12.05-1.07-15.99-1.94l-8 .05-7.99-1.3-8 1.54-7.99-2.08-8 2.37-8-1.11-8 .85c-8.34-2.4-7.48-2.44-16.01-.59l-8.07-6.74-.22-8.06 2.11-8.06-2.33-8.06c3.56-11.42 4.41-20.94-.19-32.25 1.02-4 2.6-12.04 3.14-16.12l-1.94-8.06c.45-4.04 1.59-12.11 2.26-16.12l-.32-8.06-2.62-8.06c.39-7.2 1.6-17 2.27-24.18-.01-4.07-.94-12.15-1.85-16.12l2.52-8.06-2.62-8.06 1.25-8.06-.49-8.06-1.19-8.06.31-8.07-1.06-8.06c.53-4.01 1.41-12.1 1.76-16.13l-1.26-8.06 1.43-8.07c-.18-4.01-.63-12.13-.88-16.13.33-4.08 1.77-12.19 2.87-16.14l5.11-7.58c8.75-1.76 7.49-1.65 15.81 1.24l7.9-2.23 7.91.53 7.91 1.95h7.91l7.91-.24 7.91-2.15c3.93.94 11.79 1.65 15.82 1.41l7.91 1.03 7.91-1.39 7.91.16c7.04 1.16 16.68 2.19 23.73.65 8.31-2.08 7.45-2.11 15.82.09l7.91.37 7.91-.98 7.92 1.31 7.92-.41 8.94 6.04-2.87 7.53 2.7 7.51c-.25 3.77-1.06 11.31-1.61 15.05 2.12 7.91 2.13 7.1.1 15.05-6.96 5.89-6.25 5.93-15.26 8.08-8.53.82-8.4.62-16.36-2.26-10.06 2.38-22.52 2.86-32.69.97-7.26 1.02-17.17 2.41-24.51 1.76-4.02-1.23-12.16-2.46-16.36-2.43-8.82 2.27-7.53 2.29-16.36-.19l-7.26 8.74c.69 7.24.52 17.11-1.11 24.22l2.11 8.08.36 8.08-3.01 8.08 8.87 5.65 8.17 2.22 8.18.66 8.18-.53 8.18.99c8.43-3.03 7.42-3.15 16.37-1.74 4.06-.6 12.27-.98 16.37-.75l8.18 1.99 8.2-2.49 7.51 8.32c1.72 8.12 1.59 7.22-.89 15.01l1.07 7.48-1.05 7.52 2.97 7.44c-2.94 7.72-2.56 7.41-8.76 12.95ZM1259.29 496.15l7.67-2.3c7.89 1.6 7.66 1.55 15.36-.56l7.69 1.99 7.68.18c7.66 2.93 6.57 2.95 11.48 9.16l-2.03 7.99c1.9 8.28 1.89 7.77-.17 16 3.39 8.51 3.49 6.92 1.89 16l.84 8c-.53 3.98-.89 11.99-.73 16l-2.36 8-.1 8 3.16 8-2.71 8-.3 8 1.48 8c-.16 4.02-.75 12-1.17 16l1.26 8c-.55 3.99-1.38 11.99-1.66 16.01.45 3.99 1.26 12.01 1.59 16.01-.37 3.96-1.27 11.91-1.82 15.85-.4 4.17.18 12.13 1.06 16.22l-2.54 7.68-4.67 6.82c-2.54 6.57-6.78 15.23-10.29 21.34-2.94 2.61-8.51 8.32-11.09 11.29l-4.2 7.03-5.61 5.81c-8.34 2.21-7.79 1.69-14.14 7.62-3.43 2.09-10.38 6.25-13.84 8.28-8.75-.52-7.94-.91-15.87 2.84l-7.96.58-7.72 2.34c-7.11.45-16.83.9-23.93.04-3.97-.5-11.73-2.35-15.49-3.71l-8.09-.54c-3.72-1.63-10.61-5.83-13.75-8.4l-8.17-1.25-6.24-5.05-7.59-2.97-4.71-6.82c-7.76-3.99-6.96-3.19-11.71-10.51l-5.57-5.72-3.02-7.46-6.51-5.57c-1.19-3.91-2.82-11.79-3.24-15.85l-3-7.48-1.48-7.9-.66-8.03 1.56-8.03c-.45-3.99-1.29-12.02-1.68-16.02l-.41-8.01c.83-4.01 2.65-12.08 3.62-16.05-.78-3.99-1.12-11.98-.66-16.03l-2.15-8 2.33-8.03-2.6-8 2.25-8.03-2.16-8 2.24-8.03c-.65-3.98-1.42-12-1.53-16.02.48-4 .61-12.02.25-16.04l-2.5-8 1.92-8.03c-.16-4.02-.89-12.05-1.45-16.03.98-4.01 2.76-12.13 3.56-16.18 3.85-1.1 11.63-3.3 15.48-4.38l7.4 2.7 7.36-1.9 7.39.77 7.38-.82 8.69 2.65c.11 4.23.97 12.59 1.8 16.72l-.93 8.08c.3 4.06 1.49 12.14 2.37 16.12l-2.23 8.1 3.17 8.04-1.5 8.09c.25 4.05.12 12.12-.25 16.16.75 4.01 1.44 12.07 1.37 16.14l-2.77 8.11c.49 4.01.93 12.11.88 16.15l-.55 8.08c.21 4.19 1.91 12.18 3.38 16.12l-3.19 8.11 1.97 8.06.2 8.08-.3 8.08 2.47 8.06-2.76 8.12c1.91 3.84 4.31 11.36 4.98 15.58l5.46 6.1 6.38 5.04 7.21 3.68c3.76 1.45 11.54 3.31 15.55 3.71l7.44 4.11 7.64-2.33 7.73.66 7.36-2.14c8.42-1.13 7.34-.71 13.94-6.02l7.19-3.02 6.22-4.96c1.16-3.76 3.35-11.29 4.37-15.07l-1.38-7.95.55-7.94.51-7.93-1.51-7.96c.14-7.21 2.18-16.81 3.91-23.78l-3.36-7.98-.05-7.94 1.78-7.92-.83-7.95 2.19-7.92.5-7.94-2.7-7.98 1.48-7.93v-7.95l-1.75-7.96 1.19-7.93-1.06-7.96 2.7-7.92-.2-7.95c.57-7.09.79-16.81-.33-23.86l3.52-6.97 7-1.57ZM1687.76 783.87c-4.05.16-11.93 1.58-15.8 2.79l-7.9-2.81-7.87-.3-8.22 1.3-7.46-3.28-8-1.02-6.74-4.62-8.42-.81-6.99-4.06c-3.34-2.54-8.79-8.22-11.19-11.66-3.65-1.87-10.36-6.49-13.42-9.23l-4.63-6.65-1.41-8.67c3.02-2.45 8.41-7.93 10.78-11l6.14-4.23c3.23-1.87 9.5-5.99 12.49-8.22l4.05-7c8.05-1.6 7.35-1.64 15.15.82 2.94 2.89 8.56 8.98 11.22 12.14l8.06 2.47 6.74 5.05 8.4.45 7.96 1.96c8.67-2.97 7.7-2.62 16.58-1.11 5.88-4.24 13.58-10.46 18.58-15.71l1.61-7.79c-.48-4.1-2.41-12.01-3.88-15.87l-4.73-7.02-6.3-6.16c-3.95-1.32-11.84-4.07-15.75-5.49l-6.32-5.92c-3.84-1.54-11.57-4.67-15.4-6.23l-6.85-4.85c-7.46-1.1-16.9-5.01-23.69-8.17l-5.62-6.81-8.18-2.74-6.9-4.9-5.35-6.52c-2.04-3.69-6.76-10.6-9.45-13.84l-2.23-8.17-3.99-7.34-2.68-8.05c.2-4.05-.51-12.06-1.41-16.02l.02-8.09c1.15-3.86 3.81-11.56 5.34-15.29v-8.43l6.77-5.6 1.36-8.48c5.62-4.62 13.4-10.67 17.44-16.83l6.89-4.34c3.96-1.25 11.22-4.81 14.66-7.12l8.27-.83 7.65-2.52 8.05-.63 7.78-2.75c4.05-.19 12.16.06 16.19.51l8.18-.39 7.8 2.52 7.25 4.01c6.81 1.94 16.09 4.73 22.56 7.66 3.57 1.81 10.89 5.35 14.52 7.06 3 2.64 9.03 8.11 11.92 10.88l4.49 8.18-5.81 6.87-5.77 4.77-4.02 6.94-5.79 4.75-8.1 1.9-5.26 5.42-5.17 2.32c-11.39-4.65-24.91-7.97-36.93-10.45-8.16-3.84-7.23-3.8-16.3-3.32l-8 2.62-6.87 4.66-5.55 6.22-3.65 7.53 2.06 8.1 3.66 7.66c6.47 3.16 14.77 8.39 20.65 12.53l7.87 1.6 5.7 5.92 7.67 1.99 6.29 4.76 7.97 1.4 5.9 5.54c6.28 3.08 14.92 7.07 21.65 9.05l5.75 5.48 6.99 3.81c2.78 2.83 8.52 8.35 11.45 11.03 10.63 16.45 7.87 10.4 10.88 29.37 1.65 3.62 4.5 11.11 5.68 14.91l-1.3 7.96 1.47 7.96c-.66 3.98-1.56 12.12-1.84 16.16-5.41 7.34-5.06 6.26-6.27 15.31l-5.42 6.32-3.99 7.15-5.17 6.38c-7.48 4.21-7.27 4.14-12.14 11.16-7.26 1.85-15.72 7.32-22.1 11.07l-7.97 2.06-8.42-.4-7.93 1.29ZM1072.92 395.5l1.99 7.47c-.47 3.8-1.38 11.42-1.8 15.23.43 3.81 1.75 11.39 2.62 15.12-2.4 8.45-2.16 7.5-8.26 13.65-9.12-1.08-7.69-.87-15.88 2.81l-7.94-3.61-7.94 3.81-7.94-1.26-7.94.59c-8.02-1.99-7.83-2-15.89-.24-8.56-2.03-7.46-2.01-15.89.5l-7.95-2.98-7.94 2.52-7.95.18-7.95-2.6c-9.85 3.75-21.71 1.53-31.78.09l-7.95-.13-7.94 1.98c-3.96-.12-11.95-.07-15.9.09l-5.76-7.63c-.65-4.02-1.98-12.1-2.65-16.11l3.26-8.05c-1.91-7.06-3.27-16.86-2.39-24.17 1.38-8.35 1.29-8.06-1.18-16.11 2.7-8.03 2.8-7.74 1.68-16.1l.07-8.05-1.59-8.06 1.43-8.05-.05-8.06.95-8.05-.73-8.06 1.76-8.05-.45-8.06-2.38-8.06 1.93-8.06-.65-8.06-2.26-8.06c3.66-11.31 4.52-20.97.07-32.23.48-4.06 1.96-12.14 2.93-16.11l-.24-8.06.34-8.06c-.88-3.97-2.24-12.08-2.71-16.12l3.62-8.06-3.89-8.07 9.02-6.59c7.81.44 18.49.28 26.29.92 8.62-2.6 8.55-2.73 17.55-1.52l8.53 7.4c.21 3.97.26 11.92.1 15.89l-1.59 7.94.6 7.94c-.84 3.93-1.53 11.87-1.35 15.89l-.27 7.95 2.28 7.94-2.95 7.95.15 7.95c3.52 8.18 3.66 6.97 2.63 15.89l-2.44 7.95.3 7.95 2.02 7.95v7.95l-1.88 7.95c1.09 3.91 2.11 11.84 2 15.9-1.06 3.89-2.45 11.88-2.75 15.9l3.7 7.95-3.71 7.95 2.94 7.95.39 7.95-3.08 7.96c2.45 8.74 2.87 8.48 8.63 15.15 9.17 1.34 7.98 1.19 16.48-2.1l8.24 2.6c8.18-1.84 8.37-1.81 16.48-.1 8.52 1.31 8.35 1.18 16.48-1.29l8.24 1.36 8.24-1.65 8.24 1.38c7.35.05 17.41.16 24.73.78l8.24-2.07 6.64 7.44ZM568.25 445.87l-7.42.71-7.43-.68-7.41 2.11-7.44-1.89-7.42 1.88-7.43-.42-7.89-7.14c.88-7.14 2.29-16.86 2.31-24.07l-1.96-8.02.4-8.02 1.92-8.02-3.09-8.02.28-8.02 2.03-8.02c.28-4.11-.43-12.04-1.41-16.04l1.07-8.02-1.66-8.02c-.12-4.09.85-12.09 1.92-16.04 1.17-7.25-.51-16.99-2.06-24.07 1.69-8.41 1.68-7.74-.75-16.05l3.29-8.03c-1.06-7.12-1.51-16.93-2.28-24.08l2.04-8.03c-1.82-8.29-1.81-7.82.31-16.05-3.01-8.63-3.05-7.1-1.14-16.05-.02-4.1-1.21-12.11-2.34-16.06.28-4.1 1.83-12.13 3.06-16.06l-1.82-8.03 7.68-5.86 7.39-2.22c3.7-.12 11.12 0 14.82.26 6.53-1.75 15.61-1.56 22.23-.41l9.06 7.93-3.17 8.02-.05 8.02 2.18 8.02-1.62 8.02c.28 4.09 1.56 12.07 2.55 16.04-.31 7.23-2.29 16.88-3.02 24.07l1.92 8.02-.53 8.02c-1.78 8.93-1.67 7.58 1.25 16.04-1.6 8.13-1.54 8.07.53 16.04l-.2 8.02-3.07 8.02c-.84 7.14.19 16.9-.11 24.07.6 3.99.68 12.04.18 16.05l2.23 8.02-.75 8.02.89 8.03-1.41 8.02 1.85 8.02c-.82 3.93-2.3 12.07-2.95 16.05l3.1 8.02-2.65 8.03 2.51 8.02-.05 8.03-1.58 8.03-6.86 5.78ZM380.49 213.72l-6.11-2.52-6.74 1.67-6.46-.19-5.94-3.61-6.26-1.52c-3.37-.27-9.88.39-13.15 1.25l-6.3-1.18-6.03-3.02-6.52.27-6.14-2.26-6.75 1.73c-5.41-2.25-13.22-2.95-19.02-2.86-3.21-.47-9.45-2.08-12.49-3.21l-6.31-1.19-6.51.18-5.94-3.61-6.69 1.32-6.08-2.67-6.67 1.2-5.82-4.41-6.83 2.28-6-3.26-6.33-1.06-6.52.18c-5.73-2.19-13.02-3.17-19.1-2.36l-6.36-.87-6.02-3.08-6.26-1.52-6.48-.06-6.78 1.88-6.12-2.51-6.42-.52-5.76 1.2-6.74-.71-5.65 3.56c-1.53 2.88-4.88 8.49-6.7 11.19l-1.3 6.29.28 6.42-.57 6.5-2.89 6.15 1 6.73-3.27 6.09.63 6.68-1.22 6.4-2.45 6.21c-1.82 7.04-1.46 6.45.58 13.26l-3.66 6.03 1.18 6.76-.24 6.55c-1.24 3.09-3.71 9.33-4.91 12.43l1.86 6.86-4.12 5.96 1.36 6.79-2.51 6.21c-.49 3.29-.59 9.84-.22 13.14l-2.65 6.18-.66 6.49-1.16 6.42.41 6.66c-1.08 2.94-2.14 8.93-2.16 12.06l3.68 5.4.24 6.29 3.57 5.17 4.99 3.89 4.13 4.77 5.35 3.52 4.32 4.58 4.25 4.65 3.31 5.62c6.08 2.83 5.9 2.52 9.75 8.02l6.08 2.77 4.76 4.14 2.73 6.23 4.25 4.67 2.32 5.4 4.59 5.65c-.58 3.18-2.17 9.48-3.29 12.5l-5.34 3.37-2.38 6.11-5.27 3.27-7.11-.34-4.51 4.74-5.23 3.34-6.75.37c-2.33 2.14-7.45 5.63-10.3 7-7.21 6.13-13.04 8.88-22.34 10.61l-4.28 5.22-6.31 1.4c-2.25 6.21-2.14 5.97-7.16 10.21-.85 3.05-3.13 8.94-4.52 11.79.02 5.85-1.26 13.73-1.35 19.58l1.24 6.78-4.33 5.94c.62 3.31 1.01 9.95.73 13.3l-3.14 6.12.86 6.73-1.27 6.41c-2.82 6.48-2.71 5.96-1.84 12.92-1.48 3.01-3.51 9.28-4.05 12.59l-1.39 6.38.07 6.61c-1.92 7.14-1.57 6.32.51 13.28-3.4 6.24-3.4 5.58-3.13 12.73l-1 6.45-3.32 6.1.71 6.71-1.46 6.39c1.8 7.29 1.79 6.6-.3 13.8 1.11 3.27 3.25 9.87 4.27 13.16l4.21 5.78c3.41.54 10 2.35 13.16 3.72 6.72-1.9 6.27-2.21 13.14-.42 2.95 1.79 8.94 4.24 12.32 4.95l6.92-2.53 5.89 4.28c6.84-2 6.21-2.29 13.15-.5 6.27 3.13 5.75 3.08 12.68 2.58 3.16.71 9.49 2.06 12.66 2.68l6.74-1.32c3.14.81 9.43 2.57 12.54 3.5 3.23.14 9.74.46 12.97.65 3 1.35 9.22 3.67 12.37 4.62l6.72-1.21c3.23.26 9.6 1.51 12.7 2.49l6.46.48 6.06 3.18c6.9-.5 6.5-.5 12.71 2.45l6.77-1.54 6.05 3.21c6.96-1.56 6.19-1.79 12.99.56l6.64-.65 6.24 1.95 6.01 3.49c3.35-.25 10.04-1.13 13.34-1.74l5.92 4.11 6.85-1.96c3.07 1.07 9.31 2.98 12.45 3.8 2.38-2.02 7.25-5.97 9.72-7.86l.27-6.46 4.63-4.87c.04-5.77.9-13.6 1.34-19.34l-1.25-6.71 1.3-6.32 3.89-5.93-.51-6.59 2.03-6.21-1.25-6.71 3.87-5.93c-.64-3.29-1-9.81-.67-13.14l2.05-6.21.35-6.47 2.11-6.2-1.15-6.69c1.17-5.63 2.1-13.44 2.47-19.18l4.72-5.8-2.29-6.87 3.01-6.06-1.23-6.71c5.21-11.05 6.07-12.41 4.76-24.78-1.03-2.73-3.06-8.26-4.05-11l.54-6.42c-2.01-2.44-6.43-7.08-8.74-9.26l-5.4-4.08-4.16-5.35-5.19-4.31c-1.64-3.02-5.62-8.56-7.98-11.05l-7.11-2.34-3.88-5.63-4.83-4.68-4.35-5.17-6.15-3.34-3.11-5.91.19-6.53-1.1-5.82c1.15-3.04 3.24-9.26 4.18-12.37l4.11-5.94 6.17-2.19 6.87-.85c2.75-1.94 7.75-6.35 10.04-8.81 3.01-1.24 9.07-3.68 12.09-4.87l4.93-4.59c3.22-.78 9.65-2.52 12.82-3.47 2.48-2.16 7.78-6.09 10.57-7.82l7-.62c3.65-5.08 7.6-12.63 10.58-18.11l.07-6.84 4.19-5.81-.28-6.49 1.19-6.27c.94-7.97 2.68-17.42 1.95-25.49l2.29-6.1c.27-3.17.68-9.59.81-12.77l2.81-6.03-1.18-6.63c1.05-3.06 2.55-9.25 2.98-12.45.41-5.71 1.88-13.36 1.56-19.1 1.14-3.05 2.41-9.27 2.53-12.52.57-3.14 1.44-9.47 1.73-12.64l.72-6.34 2.43-6.09 1.7-6.2.04-6.45c.65-3.34 1-10.11.72-13.51l-1.93-6.65c-2.3-2.44-7.17-7.22-9.73-9.39l-6.13-2.61Zm-101.58 376.6c0 6.84-.1 6.49-3.4 12.3l-1 6.26.29 6.66-1.07 6.37-3.57 5.56-2.13 6.01-3.92 5.26c-1.29 2.91-3.44 8.93-4.3 11.99-3 4.79-7.17 11.31-10.56 15.84l-2.31 6.25-5.72 3.49-2.86 6.1-4.65 4.49c-2.82 1.58-8.41 4.79-11.21 6.39l-6.03 2.15-5.33 3.73c-5.59 1.05-13.24 2.24-18.94 1.9l-6.22 2.3-6.37-.51-6.17-1.85-6.5.67c-5.38-1.79-12.98-3.36-18.34-5.21-4.38-5.01-4.04-5.09-10.4-7.33l-4.44-4.43-6.06-2.58-4.75-4.32-1.52-6.65-3.51-5.09-5.36-4.58.91-6.97-1.11-6.1-3.07-5.94-.99-6.38c.34-3.23 1.84-9.49 3-12.52l-.95-6.68 3.15-5.76 1.08-6.46c1.33-3.03 4.81-8.52 6.98-11.03l3.02-5.73 5.21-4.28 3.62-5.29 2.43-6.21 5.41-3.95 2.2-6.51c2.6-1.99 7.62-6.19 10.02-8.41l3.7-5.32 5.12-4.07c3.62-7.35 10.3-14.43 15.58-20.58l3.55 1.22c-2.03 8.01-1.32 17.93-1.61 26.13l6.49 3.01 5.16-1.89c1.79-2.71 5.77-7.83 7.94-10.24 2.55-2.26 7.45-7.04 9.77-9.54l.19-7.54c4.5-4.11 9.14-10.85 11.72-16.35l.55-7.14c1.84-2.8 5.68-8.36 7.64-11.08.62-6.95.35-6.74 4.3-12.63l4.19-.26 5.5 3.67 4.27 4.92 2.69 6.17c4.31 3.95 9.27 10.08 11.48 15.54l1.18 6.56 3.42 5.47 2.31 5.99c.35 3.21 1.82 9.47 2.93 12.51l.24 6.42c.58 3.2 1.35 9.72 1.55 12.97l-2.58 7.54 5.93-5.03 5.35 4.78c.38 6.82.31 6.81-2.5 12.97-.23 3.2-.55 9.65-.65 12.85Z"/></svg>