<svg xmlns="http://www.w3.org/2000/svg" viewBox="0 0 1812.4 946.84"><path fill="#eae5d8" d="M1056.95 628.17c.53 3.32 2.06 9.89 3.03 13.11-2.66 6.21-2.82 6.44-2.38 13.09l-1.02 6.49-2.56 6.2-1.26 6.38.27 6.81-1.76 6.35-1.56 6.45c-1.4 3.05-3.47 9.37-4.19 12.65l-4.72 5.03-2.69 6.06-5.28 4.43-3.39 5.59-2.42 6.43-3.67 5.59-5.72 3.73-4.63 4.68c-5.71 2.23-11.43 7.75-15.53 12.15-5.01 2.98-11.93 6.97-17.17 9.53l-5.05 4.65-6.87.67-5.35 4.42-6.22 2.3c-3.31.38-9.85 1.41-13.11 2.04l-6.62.26-6.32 2.28c-3.3-.16-9.9-.42-13.2-.53l-6.52-.77-6.62 1.82c-3.37-.15-9.77-1.53-12.9-2.78l-6.65.71-6.25-1.77c-3.17-.59-9.56-2.02-12.68-2.85-5.07-4.74-4.44-4.77-11.45-6.24l-5.36-3.65-6.69-1.12-5.92-2.76-3.91-5.81-5.5-3.31-7.02-1.57-2.89-6.57-4.48-4.59-6.16-3.02-4.86-4.4c-1.85-2.72-5.02-8.5-6.32-11.52l-5.52-4.11-2.16-6.32-4.34-5.03c-1.57-2.92-3.8-9.04-4.49-12.29l-2.75-5.9-.18-6.77-1.92-6.12-3.3-5.82.52-6.7-3.43-6c.31-3.28.82-9.81 1.01-13.09l-.91-6.41 1.26-6.41c-1.91-8.08-.43-17.82 1.95-25.65l-.27-6.74 2.01-6.22 1.96-6.23 3.13-5.8 4.88-4.95.43-6.95c1.53-2.91 4.18-8.92 5.3-12.01 3-5.26 9.44-10.2 14.11-13.88l1.38-7.3c5.13-2.91 11.46-7.83 15.75-11.85l3.21-6.27c2.85-1.72 8.7-4.71 11.77-5.99 4.37-5.76 3.62-5.37 10.39-7.91l6.25-2.09 5.34-3.94 6.11-2.32 6.75-.41c7.77-3.97 16.33-7.1 25.16-5.04 5.6-2.06 13.22-2.92 19.13-2.06l6.46-.58 6.41.87c3.25-.08 9.87-.13 13.13-.1l5.85 3.72c6.76-1.03 13.3.26 19.55 2.77l5.18 4.56c3.01 1.18 8.91 3.92 11.75 5.47l4.78 4.62 6.91 1.22 5.81 3.13c4.02 8.86 11 13.61 19.61 17.45l4.23 5.02 2.51 6.37q5.07 4.31 7.49 10.53l5.8 4.07c1.7 5.7 5.75 12.63 8.93 17.6 1.32 3.07 2.98 9.42 3.35 12.74.6 3.27 2.81 9.44 4.4 12.36l-1.34 6.93 3.37 6.03c-.65 3.27-1.23 9.85-1.13 13.17Zm-70.12 60.43c1.48-3 3.31-9.19 3.72-12.51l4.65-4.94c.58-3.2 2.25-9.37 3.3-12.43l2.74-6.05.74-6.48-1.59-6.54-.25-6.37c-.65-3.12-1.76-9.36-2.23-12.51l-2.47-5.88v-6.61l-2.87-5.71-.77-6.71-3.45-5.49c-2.65-2.03-7.48-6.6-9.65-9.13l-3.07-6.08c-2.68-2.18-7.06-7.3-8.87-10.24l-5.66-3.75-6.28-2.63c-5.05-3.29-12.58-6.59-18.35-8.33-7.41.58-6.57.76-13.25-2.67l-6.81 1.8-6.57.36c-3.37-.37-9.95-.08-13.27.62l-6.72.84-5.73 3.5c-5.83 1.28-13.2 4.6-18.54 7.19l-4.13 5.55c-2.55 2.09-7.95 5.97-10.74 7.75l-3.04 6.09-4.33 4.91c-1.74 2.74-4.86 8.52-6.18 11.49l-5.23 4.8-1.5 6.55-2.93 6.05c.49 3.36.66 10.07.26 13.43l-3.18 6.37c.34 7.05.62 6.98 4.15 12.92l-2.11 6.89c1 6.91 1.1 6.69 5.23 12.19 3.06 5.05 5.03 12.8 6.9 18.34 5.67 4.21 5.44 3.75 8.18 10.25 4.98 3.14 10.27 9.06 14.11 13.45l5.53 3.41 4.63 5.07 6.04 2.77 6.77.61 5.69 3.58 6.81-.97c3.02 1.34 9.22 3.26 12.47 3.83l6.5-.55 6.54.89c7.65-2.78 17.18-4.66 24.96-6.97l5.09-4.24 5.66-2.8c4.75-3.47 11.66-7.48 17.33-9.18l2.55-6.5 3.83-5.11 5.42-4.11ZM1493.49 782.21l-4.72-2.56-2.75-3.83-5.04-4.48c-1.08-3.18-3.9-9.15-5.7-11.98-4.5-3.88-10.28-9.58-13.99-14.24-3.13-4.93-7.12-11.87-10.65-16.54-1.95-2.25-6.14-6.85-8.25-8.94-7.83-1.4-17.33-2.14-25.01-4.37l-6.84 4.58-2.36 7.26c-.12 3.25.59 9.63 1.39 12.78l-3.19 6.26c.72 3.16 1.57 9.56 1.69 12.79l.71 6.4-.58 6.35c-2.66 3.17-8.68 8.67-12.13 10.95-6.59.17-6.49-.17-12.18-3.13-3.13.43-9.29 1.82-12.3 2.78-3.04-.38-9.18-.68-12.25-.59-5.35-4.69-5.86-4.19-8.35-11.16l-.21-6.49-1.76-6.49c2.05-6.97 2-6.1.07-12.98.16-5.8 1.05-13.67.69-19.48-.27-3.38.35-9.71 1.24-12.99-1.98-5.64-4.28-13.43-3.44-19.48l-.48-6.49 1.96-6.49c.4-3.23 1.25-9.76 1.7-12.98-1.45-5.78-2.16-13.61-.73-19.47l-2.76-6.49c2.14-8.02 3.24-18.08.09-25.97l3.02-6.5-2.22-6.49-.36-6.5 3.18-6.5-2.24-6.49-.88-6.5 2.24-6.5c-.09-8.25-1.16-17.93-3.02-25.98.42-3.22.87-9.74.9-12.99 2.39-7.97 3.05-18.14-.03-26l4.25-7.14 7.11-1.5 6.62-3.64c6.61 2.53 6.37 2.75 13.47 1.82 6.1.8 14.25-.55 20.09-2.35l6.72 2.47 6.71-2.26 6.67 3 6.79-3.37 6.59 3.42c5.98-2.12 14.04-2.66 20.29-1.82l6.37 3.69 6.57 1.3 6.3 1.27 7.11-1.5 6.58 1.41 6 3.01 5.3 4.2 5.41 3.74 4.48 4.93c3.13 1.29 9.31 4.24 12.29 5.86l3.04 6.25 5.56 3.94 3.66 5.55c1.24 6.91 3.87 12.57 8.52 17.85 1.51 2.92 4.72 8.72 6.38 11.56l1.88 6.33c.67 3.25 1.5 9.88 1.67 13.2l3.43 6.31-2.3 6.94 3.04 6.61-.79 6.76-2.84 6.49c-.26 6.01-.4 14.24-1.36 20.2-4.23 4.47-7.89 11.85-10.64 17.26l-2.12 6.39-3.97 5.34-3.47 5.69-5.3 4.21c-1.92 2.8-5.51 8.64-7.16 11.61-5.96 4.02-5.57 3.79-8.75 10.2l2.09 6.35.72 6.99c2.28 2.35 7.18 6.67 9.78 8.66 1.93 5.33 5.92 11.89 9.22 16.47 3.16 4.71 6.03 11.88 8.35 17.03 2.01 2.52 6.58 7.09 9.09 9.12l-.55 7.84-2.76 6.48-6.79 2.3-6.25-1.52-6.25.08-6.25 1.94c-3.13-.04-9.4.36-12.5.81-3.11 0-9.4.06-12.52.14Zm-31.57-130.69 6.47-1.08 6.23-2.4 4.06-5.39 5.44-3.9 4.16-5.26c1.42-5.7 2.42-13.61 2.89-19.45 1.12-5.7 1.88-13.52.61-19.26-1.49-3.08-3.43-9.55-3.92-12.94-4.69-7.27-10.68-15.68-15.95-22.54-8.3-2.68-18.62-5.24-27.38-4.01l-6.59-3.5c-8.38 1.76-18.85 1.72-26.62 5.72l-5.46 6.28 2.49 6.32.07 6.34-2.89 6.35c.5 3.23 2.06 9.55 3.09 12.65-.3 3.16-.44 9.51-.28 12.68l-2.57 6.35.04 6.34.24 6.33 1.79 6.33-1.73 6.35c.77 3.5 3.15 10.48 4.51 13.82l7.41 3.75c5.74 0 13.57-.28 19.2 1.07 3.06-1.25 9.23-3.64 12.33-4.75 3.08-.46 9.27-1.56 12.32-2.18ZM856.72 311.03l-4.07 6.45 2.5 6.86-2.29 6.42-.24 6.69-3.67 5.99-.31 6.72-2.53 6.14-.63 6.79-1.92 6.41-4.81 5.11c-1.37 3-4.53 8.76-6.34 11.51l-1.73 6.75-2.98 6.12c-2.28 2.47-7.17 7.14-9.77 9.29l-4.17 5.27-6.43 2.8-4.71 4.65c-7.3 4.11-15.9 9.5-21.55 15.77l-7.29-.07-5.15 5.16-6.7 1.01-7.03-.75-5.75 4.89-6.84-.49-6.5 1.95c-3.34-.62-10.06-1.97-13.38-2.7l-6.4 2.17-6.39.48-6.39-.28-6.39-2.17-6.4 2.8-6.39.43-6.39-.98c-3.32-.01-9.65-1.16-12.78-2.26l-6.4 3.16-6.39-1.31-6.39.9-6.39-1.73-6.4.4c-2.69-.53-8.42-1.69-11.07-2.27-2.01-4.99-3.42-12.3-3.43-17.69l2.51-6.51-2.75-6.51.58-6.51 2.22-6.51c.17-3.25.42-9.77.5-13.02-2.78-7.91-1.59-17.92-.39-26.03-.72-3.21-1.32-9.73-1.19-13.02-.67-3.2-1.37-9.74-1.41-13.01l1.59-6.51-2.13-6.51 1.41-6.51-.97-6.51 2.7-6.51c-.3-3.31-1.45-9.81-2.3-13.02.07-5.83-.93-13.72-.11-19.53l1.73-6.51c-.25-3.34-1.65-9.86-2.77-13.03l.61-6.51 2.69-6.51-1.75-6.51.81-6.51-1.34-6.51c.64-3.25.99-9.73.7-13.03l-1.21-6.51c.52-3.23 1.17-9.76 1.3-13.03l-1.01-6.52 1.48-6.52.46-6.52 1.94-4.3 4.31-2.34c3.35.29 9.94-.05 13.25-.67 6.73 1.83 6.5 1.83 13.24.18l6.61.7c3.26-.86 9.9-1.97 13.25-2.22 3.25.87 9.88 1.75 13.24 1.75l6.62 2.03 6.63-1.95 6.63.48 6.64-1.5 6.63-.15 6.47 2.14 6.6-1.12 6.58.2 6.19 2.66 6.6.29 6.18 2.19 6.31 1.68 5.74 3.25 5.44 3.69 6.1 2.16 5.83 2.81c2.5 2.03 7.63 5.99 10.22 7.91l6.32 2.4c2.41 2.33 7.85 6.07 10.85 7.55 1.76 2.79 5.9 7.95 8.22 10.3l3.67 5.44 4.76 4.68c1.93 2.66 5.29 8.37 6.63 11.38l2.33 6.18 3.67 5.55 2.21 6.21.39 6.8 2.47 6.05.86 6.5 2.34 6.15-1.13 6.78 4.55 5.95-1.56 6.72.16 6.49c-.93 7.3-.66 6.51 2.31 13.04Zm-88.49 58.36 7.39-1.78 2.16-7c5.23-4.21 5.29-4.24 7.94-10.41l5.2-4.81 1.4-6.69 2.79-6.11c-.07-3.38.29-10.05.73-13.4l3.01-6.32c.17-3.35.3-10.05.24-13.4-1.46-3.08-3.93-9.42-4.91-12.67-.31-3.26-1.27-9.79-1.92-13.01l-3.04-5.86c-.72-7.14-.28-6.56-4.67-12.43-2.57-6.01-7.57-11.43-12.68-15.38l-6.42-2.57-3.62-6.2-7.16-.63c-2.92-1.74-8.27-5.93-10.74-8.27l-7.28 1.71c-6.18-3.09-5.76-3.03-12.63-2.56-3.12-1.27-9.56-3.35-12.83-4.15l-6.59 2.13-6.51.64-6.53.04-6.67-1.72-3.73 4.7-1.15 4.06c-1.05 6.04-1.18 14.17-3.17 20.04l3.18 6.67-1.28 6.68.93 6.68-1.71 6.68.42 6.68-1.25 6.68.96 6.68-.33 6.68 1.44 6.68.42 6.68-2.5 6.69c2.86 6.64 3.05 6.11 2.2 13.36l-2.21 6.69-.29 6.68-.19 6.68 1.68 6.68c.14 5.99-.21 14.16-1.25 20.07l3.18 5.28c5.94 2.84 5.8 2.09 12 1.39l6.77-.15 6.74 1.7c6.9-2.37 6.35-2.43 13.52-1.02 7.13-1.87 6.72-1.6 13.72.25l6.54-2.18c2.95-1.73 9.12-4.58 12.36-5.66 2.85-1.72 8.71-4.95 11.69-6.44l4.68-4.79ZM725.72 780.63c-3.06.07-9.13-.44-12.14-1.01l-5.95 2.86-6.06-.07-6.15-2.59-5.97 2.64c-2.38-1.74-7.53-4.36-10.32-5.31-.37-3.12 0-9.36.56-12.46l-2.52-6.55c1.23-9.22 3.26-17.04.14-26.3l2.23-6.6c-1.54-6.68-1.47-6.6.37-13.16l-2.89-6.54c1.45-6.62 1.4-6.67-.41-13.16-.22-3.43-1.47-10.2-2.41-13.52l-6.95-1.75-6.71-3.59-6.76 2.73c-10.63-3.04-22.85-.53-33.69-.67-3.39.04-10.15.67-13.49 1.25-3.36-.08-10.14-.4-13.49-.65l-6.73-2.16-5.08 2.51-3.27 3.95c-.71 5.28-1.22 12.68-.38 17.99-.9 3.25-2.46 9.86-3.1 13.16 2.4 6.88 2.47 6.09.91 13.21l.58 6.61-.69 6.59c1.46 7.19 1.36 6.38-1.13 13.19l.83 6.61-1.26 6.6c.37 2.94.41 9-.25 11.9l-3.72 4.22-5.58 1.68-6.19-2.37c-5.7-.33-13.4.14-18.8 2.13l-6.19-2.61-6.33 2.97-6.16-6.07-4.09-6.31 2-6.47c.25-3.35-.39-9.71-1.26-12.94l.85-6.47-.85-6.47c.16-3.29-.42-9.73-1.16-12.94-.16-3.41.65-9.68 1.64-12.94l-.02-6.47-1.86-6.47.01-6.47 1.06-6.47c-.36-3.24-1.41-9.74-2.08-12.93.53-3.27 2.06-9.77 3.06-12.94l.54-6.47-.99-6.47-2.59-6.47c1.57-5.68 1.71-13.7 3.09-19.41l-2.33-6.47 2.45-6.47-.09-6.47-1.65-6.47c.92-3.21 1.67-9.62 1.46-12.95l-3.15-6.47c1.12-3.18 2.79-9.62 3.32-12.94L515.77 550l1.12-6.47c.06-3.25-.34-9.73-.79-12.95l1.68-6.47-.13-6.48c-.93-3.17-2.3-9.69-2.71-12.96l3.31-8.68c6.27-1.01 14.97-.65 21.25-.77l6.25-3.03c3.25-.2 9.48.56 12.6 1.48 2.99.22 9.08.53 12.06.6 1.12 2.67 3.96 7.63 5.7 9.94l-.98 6.74.76 6.73c-.6 5.99-.38 14.19-.15 20.19l-1.14 6.74 1.14 6.72c-.5 3.34-1.24 10.1-1.48 13.47l1.17 6.72-1.76 6.74 3.4 6.71c-2 7.18-1.98 6.35.09 13.47-.03 2.87.09 8.91.38 11.74 2.21 1.48 6.57 4.72 8.66 6.38l6.73-1.4 6.73 1.55 6.73-.6 6.73-2.43 6.73.53 6.73 3.3c6.12.17 14.42.1 20.2-2.21 5.99.56 14.21 1.07 20.22 1.35l4.23-4.05 5.04-1.96 2.62-5.32c-.35-3.48-1.97-10.23-3.19-13.51l1.7-6.73-.83-6.75-.04-6.75 2.19-6.73-2.62-6.76 3.8-6.71-3.02-6.77 1.53-6.73-.8-6.75 2.43-6.72-1.28-6.76.73-6.75-1.57-6.77 1-5.72c5.57-2.46 9.79-3.93 16-3.17 2.93-1.25 8.98-2.86 12.15-3.17 3.02.36 9.1 1.2 12.1 1.67l6.07-.65c6.25 4.77 6.38 4.22 9.75 11.53-1.07 5.75-.65 13.64 0 19.4l2.2 6.47-3 6.47 3.02 6.47-1.06 6.47-2.51 6.47 3.61 6.47-1.56 6.47 1.23 6.46c-.9 3.2-2.53 9.69-3.25 12.94l2.19 6.46.5 6.47-.26 6.47-2.15 6.47 2.82 6.47.45 6.47-.96 6.47c0 3.34-1.14 9.78-2.22 12.94l3.18 6.47-1.29 6.47.92 6.47-1.71 6.47.41 6.47-1.26 6.47.95 6.47-.33 6.47 1.43 6.47.42 6.47-2.51 6.47c2.85 6.45 3.04 5.87 2.19 12.94l-2.22 6.47-.29 6.47-.2 6.47 1.68 6.47c.07 3.23-.11 9.74-.35 12.96l-3.41 6.17-6.01 4.57ZM1255.46 343.3l-6.35-1.82-6.35.45c-3.16-.13-9.53-.24-12.7-.23l-6.35 1.59-6.35-3.48c-3.16.38-9.52.7-12.71.64l-6.35 2.27-6.35-3.2-6.36 2.99-6.36-.12-6.36-2.18-6.28 2.13-2.43 6.32 3.07 6.62c-.25 3.45-1.73 10.14-2.91 13.4l3.71 6.62-2.95 6.73c2.01 2.04 6.18 5.97 8.34 7.83 5.96.91 13.74-.58 19.37-2.54l6.44 3.29 6.47-2.26 6.45.61 6.45 1.97c3.25-.6 9.71-1.98 12.92-2.75l6.45.48 6.45 2.45 6.46.17c3.23-.41 9.68-.42 12.91-.01l6.47-2.47 6.46.06 6.46 1.47 6.46.22 3.8 2.24 3.55 3.85-2.14 6.34c.77 3.21 2.42 9.61 3.28 12.79-.6 3.15-1.47 9.53-1.74 12.72-1.97 5.22-2.36 12.7-1.91 18.21l-5.47 2.85-6.51-.32-6.51-2.63c-6.51 1.81-6.46 1.83-13.02.33-3.26-.33-9.77-.24-13.03.18l-6.51-.39-6.51 2.16-6.51-2.53-6.52 3.44c-3.28-.78-9.81-2.58-13.03-3.59l-6.52 3.49-6.51-3.1-6.52 3.07c-3.37.15-9.8-.67-13.03-1.61l-6.51 1.93-6.51-1.38-6.52.7-6.51-2.74-6.52-.07c-3.24.39-9.78.51-13.03.24l-6.52 2.35-6.52-.15-6.53.32-5.82-2.44-1.85-5.82-.4-6.52 2.28-6.53c-.63-3.27-2.08-9.82-2.89-13.05l3.59-6.53c-.27-3.43-1.94-9.89-3.3-13.05-.39-3.29-.12-9.8.53-13.05l2.51-6.53-2.18-6.53 1.4-6.52-.18-6.53c.34-5.85 1.31-13.77.05-19.57.34-3.25.83-9.79.98-13.05l-2.24-6.52c.54-3.25.68-9.78.28-13.05.43-3.24.63-9.79.4-13.05l-1.75-6.53 3.39-6.53-3.55-6.53 2.64-6.53-1.17-6.53.11-6.53 1.81-6.53c-1.59-6.59-1.57-6.51.16-13.06l-2.94-6.52-.84-6.53c.74-5.88 2.49-13.78 3.63-19.59l-2.91-6.53-.26-6.53c2.35-6.83 2.43-5.98.76-13.07.89-2.4 3.03-7.96 4.1-10.22l3.67-5.31c3.19.76 9.61 1.51 12.89 1.5l6.44 1.82c14.74-3.09 10.4-4.97 25.77.37l6.44-3.74 6.44.3 6.45 3.08 6.45.43 6.44-2.08 6.45.47 6.44-2.17 6.45 2.95 6.44-.86 6.45.8 6.44-2.99 6.45 3.32 6.44-3.07 6.45 1.13c3.21-.38 9.67-.89 12.89-1l6.45 1.37 6.45-.95 6.46 2.54c3.15 0 9.5-.29 12.63-.61l2.5 6.17c-.87 3.2-2.45 9.66-3.15 12.9l1.55 6.44-.5 6.44c.52 3.21.73 9.66.42 12.9l-1.16 6.46.12 5.8-5.78 2.7c-6.75-2.16-6.52-2.23-13.46-.88l-6.73-.56-6.73 1c-3.4-.3-10.16-1.44-13.47-2.26l-6.73.34-6.72 2.74c-10.67-3-22.83-.41-33.66-.02-7.27.75-6.87.52-13.48-2.32-3.38.67-10.13 2.2-13.47 3.05l-6.02-.92c-.53 3.22-1.95 9.75-2.75 12.93l2.78 6.92-2.23 6.92c1.48 7.17 1.4 6.88-.71 13.84l2.51 6.93-.17 6.93 1.7 4.84 4.83 1.92 6.29.44 6.3-1.85 6.28 2.9 6.29-.93c3.15.28 9.43.3 12.58.05 5.67-.1 13.22-1.79 18.89-1.95l6.29 1.04c3.18-.28 9.47.14 12.6.84l6.3.41 4.24 2.4 2.21 4.21c.08 3.22.56 9.64.96 12.83 1.63 6.04 2.48 13.09.93 19.26l.59 6.42-.76 6.45-2.36 5.01-4.96 4.1ZM1259.28 494.1l6.39-1.23 6.4.18 6.4 1.72c6.32-2.51 6-2.67 12.8-1.71 6.31-.01 5.93-.51 11.39 2.96l2.87 4.09.68 4.52 2.97 6.52-.07 6.52-2.2 6.51c3.01 8.48 1.78 17.48.21 26.07l1 6.52-1.49 6.52 2.77 6.52-1.67 6.52.8 6.52-2.15 6.52.09 6.52 3.12 6.52c-.99 3.2-2.22 9.7-2.44 13.04.99 3.19 2.4 9.72 2.81 13.03l-3.04 6.52 2.04 6.52-1.1 6.52 1.65 6.52-2.16 6.52 1.68 6.53-1.04 6.53.87 6.53-2.73 6.38c-.04 3.3.59 9.87 1.2 13.12l-3.69 5.84-2.08 6.04.73 7.05c-4.84 9.16-9.02 20.87-18.2 26.62l-1.47 7.31-4.82 4.52-5.73 3.42c-2.29 2.36-7.13 6.87-9.64 8.99l-7.19.67c-2.96 1.3-8.58 4.4-11.27 6.2-5.61 4.05-5.21 3.91-12.07 4.57-3.16.69-9.44 2.36-12.52 3.32l-6.62-.76c-5.7.65-13.5 1.69-19.23 2.08l-6.46-1.9-6.98 2.72c-3.29-.89-9.57-3.37-12.57-4.96-3.41.05-10.14-.71-13.45-1.53l-5.25-4.78-5.91-2.9-7.02-.99-5.42-3.99c-2.15-2.61-7.05-7.14-9.84-9.04l-3.98-5.38-5.67-3.67-2.62-6.36-5.78-3.93-2.54-6.2-3.81-5.46-.62-6.87c-3.59-5.15-7.27-11.96-8-18.31l1.36-6.82-2.59-6.54c3.54-9.78 4.33-16.73-.37-26.32 1-3.26 2.53-9.83 3.06-13.19l-1.99-6.57c.43-3.31 1.52-9.91 2.18-13.18l-.36-6.58-2.67-6.57c.35-5.9 1.51-13.9 2.14-19.77-.03-3.35-1.01-9.94-1.93-13.16l2.48-6.6-2.66-6.57c1.83-6.36.85-13.46-.56-19.75l.26-6.59-1.1-6.58c.51-3.27 1.35-9.89 1.67-13.19l-1.3-6.58 1.38-6.61-.45-6.59 1-5.7 4.65-3.32 5.19.43c2.93-1.44 9.04-3.45 12.26-3.96l6.17 2.6 6.13-2.27 6.16.49 6.17 1.91 4.73 1.22 3.69 3.31 3.49 4.8-1.26 6.64c.21 3.37-.29 9.98-.98 13.28l1.46 6.61-.1 6.63c-1.91 9.94-1.9 16.84 1.43 26.52l-1.84 6.65-.31 6.64 1.05 6.62-1.24 6.65.47 6.63 2.94 6.6-2.82 6.67c2.85 6.58 3.04 6.04 2.16 13.25l-.91 6.64 1.91 6.61c-.95 3.28-2.41 9.93-2.9 13.31l2.25 6.61.58 6.63-2.76 6.67c2.54 8.04 2.46 18.12 1.87 26.44 2.42 5.25 7.75 10.86 11.56 15.11l3.9 5.46 5.35 3.87c7.23.93 6.45.64 12.08 5.26 8.09.29 17.73.86 25.77 1.78 2.75-1.81 8.45-4.41 11.65-5.18l6.92.71 4.31-5.59 6.45-1.37 5.35-3.62c1.88-2.68 5.57-8.17 7.35-10.92-1.93-6.55-2.06-6.53-.69-13.25-.57-3.27-.91-9.84-.67-13.15l2.03-6.55-2.45-6.6 1.01-6.56-1.17-6.59 2.5-6.54-.85-6.58 1.27-6.56-2.75-6.6 3.25-6.54c.04-3.31-.41-9.89-.9-13.16l1.07-6.56-.2-6.58c-.84-3.24-1.97-9.84-2.25-13.18l.51-6.57 2.85-6.54-1.58-6.59 1.72-6.56.04-6.58c-.07-3.35-1.06-9.94-1.95-13.18l1.9-6.55-2.47-6.61-.61-6.59 2.26-6.56 3.75-6.18 6.2-4.43ZM1687.65 782.91l-6.38 2.79-6.7-1.19c-5.91.3-13.97.36-19.88.52l-6.64-.63-6.16-2.94-6.66-.67c-3.17-1.12-9.69-2.81-13-3.4-2.75-1.9-8.45-5.52-11.34-7.2-2.12-2.6-7.02-7.13-9.79-9.02-2.33-2.39-7.62-6.43-10.53-8.1l-2.7-6.39c-1.81-2.4-5.79-6.97-8.02-8.97 1.1-2.54 3.04-7.76 3.89-10.4l6.16-2.16 5.07-3.59 5-3.68 3.49-5.67 6.17-2.16 3.94-5.09c3.76-.42 11.39-.46 15.18-.2l3.79 5.08 5.4 3.2 4.74 4.08 5.43 3.05c4.63 4.73 4.54 4.86 10.95 6.83l6.81-1.84 6.06 3.16 6.48-.07 5.99-2.68c3.12-.69 9.23-2.57 12.21-3.73l4.71-4.45 5.28-4.01 3.3-6.04-.34-6.8-1.88-6.27-1.67-6.34-2.97-5.99-5.08-4.37-6.71-1.27-5.84-3.48-5.1-4.98c-5.43-2.65-12.97-6.04-18.63-8.17-2.59-2.28-8.35-5.94-11.53-7.28-3.51-.27-10.27-1.86-13.51-3.24l-4.85-5.52c-6.18-.99-13.76-4.7-19.35-7.37l-3.31-6.7-5.75-3.74-3.82-5.64-5.23-4.52-3.72-5.72c-3.49-5.08-6.87-12.68-8.12-18.73l-.58-6.79-2.24-6.54c.22-3.46 1.62-10.19 2.81-13.45l-1.97-6.83 2.23-6.45-.22-6.96 4.41-5.6.82-6.94 4.37-5.24 3.22-5.95 5.61-3.93 2.93-6.85c3.04-1.66 9.27-4.42 12.54-5.52l5.22-4.3 5.88-3.22 6.14-2.72 6.84-.55c5.51-2.41 13.27-5.01 19.25-5.85 3.41.48 10.15 1.99 13.43 3.02l6.58-.7 6.5.98 6.85-1.08 5.97 3.7 7.05-.71 5.54 4.29 6.92.51 5 4.89c3.21.94 9.24 3.63 12.09 5.39 2.44 2.23 7.64 6.34 10.38 8.2l6.61 2.6 1.69 6.54.27 6.07-2.97 5.78-6.06 2.42-3.84 5.17-5.56 3.04-3.6 5.48-6.6 1.77-3.71 5.35-6.25 1.66-6.41-.61-6.02-2.14-4.55-5.47-6.45-1.19-5.89-2.83c-3.28-.57-9.71-.59-12.99-.04l-6.34-2.54-6.15 3.5-6.48-.47c-2.88 1.35-8.04 4.85-10.39 7l-2.89 5.67c-1.11 2.93-2.34 9.11-2.65 12.24 3.04 4.97 7.66 11.4 12.03 15.3l6.19 2.07 6.8.85 4.3 5.82 6.62 1.21 5.83 2.79 5.6 3.24 6.84.77 4.51 5.44 6.64 1.16 4.97 4.52 5.9 2.66c7.34 3.65 16.35 7.47 23.5 11.5l3.05 6.41 6.23 2.99 2.93 6.05 4.08 5.04 2.11 6.22 4.39 5.05c.49 3.23 1.56 9.66 2.14 12.87l3.25 5.87.28 6.5 1.95 6.38c-.12 3.26-.71 9.79-1.18 13.01l.83 6.68c-1.13 6.47-4.88 13.14-8.94 18.19l.18 7.49-3.39 5.91-5.32 4.48-3.68 5.69c-3.15 1.35-8.92 4.85-11.51 7.09l-3.79 6.15c-3.28.95-9.44 3.63-12.34 5.42l-5.47 4.33-6.74 1.18-6.2 2.9c-3.41-.78-10.29-1.48-13.77-1.29ZM1071.39 395.62c2.51 6.41 2.54 6.05 1.51 12.86-.06 5.94.83 13.91 3.21 19.41l-3.55 6.51 2.33 6.5-1.49 5.92c-6.58-1.03-6.45-.49-12.39 1.8-5.79-.97-13.63.16-19.41.76-7.85-2.71-17.98-3.21-25.89-.49l-6.48-2.66-6.47.32-6.47 2.46c-6.44-1.81-6.42-1.85-12.95-.39l-6.48-1.95-6.47 2.85c-5.91.34-13.79-.97-19.42-2.71-3.19 1-9.66 2.6-12.94 3.18-3.25-.13-9.74-.76-12.95-1.26l-6.48-2.58-6.47 1.56-6.48-.35c-5.59-.79-13.28-1.41-18.87-.37-2.56-9.33-3.22-16.13-.01-25.47L884.8 415l1.91-6.52c-1.99-6.36-2.08-6.47-.87-13.04l-2.08-6.52 3.3-6.52c-1.23-3.2-2.9-9.65-3.31-13.04l.68-6.52a807 807 0 0 0-.5-13.04c.96-5.81 1.38-13.84 2.86-19.56-.55-3.24-1.55-9.78-2-13.04l2.54-6.52c-.3-3.24-.89-9.8-1.18-13.04l1.34-6.52c-2.27-5.56-2.93-13.63-3.08-19.57l3.15-6.52c-4.54-9.18-3.7-16.41-2.16-26.1l-.7-6.52 1.7-6.52c-1.15-5.8-2.66-13.68-1.38-19.57-.66-3.22-1.3-9.77-1.27-13.05.85-3.2 2.23-9.78 2.75-13.05l-2.65-6.53 3.79-6.53-.85-6.01 6.02-.92 6.26.47 6.27-2.1 6.26-.08 6.25.84 6.27-.98 6.26 1.95 6.27-.43 4.63 2.83 3.73 4.64c-.13 3.27-.48 9.75-.71 13l1.15 6.5c-.4 3.39-2.14 9.85-3.44 13 .02 8.17 1.13 17.84 1.55 26l1.13 6.5-.61 6.5-.25 6.5 1.09 6.5-2.37 6.5.1 6.5 2.89 6.5.07 6.5-3.6 6.5c1.11 5.79 1.55 13.72.23 19.51 1.75 8.07 3.29 17.72 2.97 26.01l-2.75 6.51.05 6.51c.84 3.19 1.73 9.71 1.76 13.01.13 8.2-1.12 17.93-2.2 26.04l4.21 4.62 4.62 2.66 6.41 1.01 6.41-2.09 6.41 2.74c6.57-1.87 6.19-1.88 12.82-.22l6.41-2.32 6.41 2.3c5.78-.06 13.63-.26 19.22-1.93l6.41 1.35 6.41-1.44c3.25.25 9.64-.21 12.82-.91 3.2.27 9.63.14 12.82-.26 4.89 1.93 12.09 3.58 17.35 3.66l.59 4.47ZM568.26 447.26c-10.19-.63-22.28-2.9-31.8 1.79l-6.39-2.23-6.36 1.66c-1.81-2.39-6.16-6.35-8.65-8.03 2.19-6.86 2.21-6.03.43-12.99 2.53-12.1 3.06-13.75-.09-25.98l2.35-6.49c-.3-3.27-.03-9.76.53-12.99l-3.51-6.49 3.62-6.5-3.8-6.49 1.27-6.5-.58-6.49 1.78-6.49c-1.76-6.77-1.74-6.28.21-12.99l-2.21-6.49 2.98-6.49-2.51-6.5-.17-6.49 2.61-6.5-2.07-6.49v-6.5c.7-5.81 2.44-13.6 2.16-19.49l-1.97-6.5.11-6.5-.18-6.5 1.88-6.5c-.65-3.23-1.98-9.77-2.65-12.99l3.25-6.5c-1.89-5.65-3.28-13.55-2.4-19.5 1.4-7.04 1.29-6.34-1.18-13 2.67-6.57 2.83-5.93 1.68-13.01-.15-3.17.3-9.45.96-12.55 3.06-.8 9.23-1.38 12.39-1.2l6.35.9 6.34-.78 6.36 1.71 6.35-.49 6.34-2.43c2.74.83 8.46 2.49 11.2 3.2l4.27 4.82c-1.35 3.15-2.99 9.57-3.26 12.99l.67 6.49 2.55 6.49c-.48 3.3-1.95 9.8-2.91 12.99l.24 6.49-.33 6.49c.88 3.19 2.25 9.71 2.72 12.99l-3.61 6.5 3.89 6.49-2.39 6.5c-.22 3.25-.38 9.73-.33 12.98-.73 6.81-.47 6.8 2.05 12.98l-.9 6.49 1.16 6.49c.21 3.24.26 9.75.1 12.99l-1.59 6.5.59 6.49c-.84 3.19-1.53 9.69-1.36 12.99l-.27 6.5 2.28 6.49c-2.92 6.19-3.22 6.02-2.81 12.99l3.33 6.49-.71 6.5-2.44 6.5.3 6.49 2.02 6.49-.02 6.5-1.87 6.5 1.64 6.5.36 6.5c-1.06 3.17-2.45 9.67-2.76 13l3.7 6.5-3.71 6.51.55 5.79-5.78 1.37ZM381.46 217.11l-5.85-3.18-6.17-1.04-6.36.18c-5.59-2.13-12.7-3.1-18.64-2.3l-6.2-.85-5.87-3.01-6.1-1.49-6.32-.06-6.6 1.84-5.96-2.44c-3.14-.41-9.45-.57-12.61-.33l-5.74-3.88-6.08-1.62h-6.33l-6.09-1.55c-3.19-.28-9.55-.06-12.72.41l-6.25-.54-5.91-2.8-6.48.99-5.85-3.17-6.43.63-6.15-1.18-5.97-2.37c-6.83-1.76-6.16-1.41-12.75.59l-5.79-3.56-6.51 1.16-6.3-.22c-2.97-1.21-8.96-3.6-11.94-4.77l-6.61 1.83-5.73-4.01-6.54 1.34-5.97-2.44-6.26-.54c-3.07.86-9.35 1.84-12.54 1.98-2.6 1.94-7.02 6.49-8.88 9.15l-1.62 6.18c-1.79 2.68-4.45 8.45-5.35 11.54l1.52 6.56-2.8 5.9c-.58 3.1-1.15 9.34-1.14 12.49l-1.45 6.11.24 6.37c-1.02 5.58-2.29 13.19-5.07 18.23 1.2 6.52 1.33 6.26-.84 12.54l1.25 6.52c-.39 6.58-.63 6.54-4 12.06-.64 3.05-1.97 9.22-2.65 12.26l2.2 6.66-2.26 5.99-.32 6.29-3.42 5.82 1.84 6.61-.44 6.27-4.35 5.68 1.16 6.52-.35 6.29-3.06 5.84c.86 2.95 2.43 8.9 3.14 11.88 3.58 6.78 10.25 13.18 13.96 19.91l6.35 2.5 2.63 6.33 5.79 3.08 3.08 5.87 4.78 4.12 3.73 5.2c4.61 3.28 10.08 8.73 14.63 12.09l6.04 2.84.34 7.53 3.15 5.87.7 6.85c-4.48 4.53-4.43 4.25-6.08 10.43-4.81 4.36-4.64 4.09-10.87 5.41l-4.76 4.27c-5.58.84-12.53 3.97-17.65 6.22l-5.04 3.73-5.75 2.35-4.17 5.44c-6.73.77-6.18.38-11.55 4.58l-5.53 2.79-6.57.76c-1.9 2.59-6.05 7.48-8.33 9.73l-1.19 6.28-4.25 4.83c-.22 5.63-2.48 12.93-3.74 18.38l.45 6.41-2.16 6.01c1.86 6.53 2.17 6.06.44 12.75-1.73 2.85-4.12 8.7-4.81 11.96l2.49 6.72-4.16 5.71 1.88 6.63-1.37 6.14-2.81 5.92.31 6.39c-.69 3.07-1.99 9.21-2.6 12.29l1.3 6.54c-.79 3.05-2.49 9.16-3.4 12.18-.13 3.14-.43 9.46-.61 12.6l-2.47 5.97c-2.36 6.48-2.17 5.84-.82 12.58-.31 2.97-1.3 8.99-2.01 11.9l.62 5.75-1.29 6.12 2.93 5.31 1.33 6.14 5.93 2.44 4.73 4.15c6.8-1.52 6.04-1.75 12.68.54l6.48-.64 6.09 1.91 5.86 3.4c3.27-.25 9.8-1.1 13.02-1.7l5.77 4.01 6.68-1.92c3.24.78 9.16 3.39 11.97 5.19l6.42-.29 6.1 1.85 6.65-1.75 5.76 4.11c5.65.04 13.32.89 18.94 1.32l6.57-1.22 6.19 1.27 5.8 3.8 6.46-.49 6.08 1.99 6.57-1.21 5.81 3.79c3.22-.62 9.61-.97 12.87-.64l6.08 2.01 6.33.35 6.07 2.07 6.55-1.12c5.52 1.15 13.17 2.07 18.79 2.43l5.68 4.62 6.73-2.23 5.94 2.94 6.57-1.2c2.93 1.43 8.95 3.99 12.02 5.09l6.26-1.42 4.96-3.41 2.91-5.05 1.99-5.12 4.03-4.86c-.18-3.16.33-9.33 1.03-12.41l.1-6.27 1.8-6.01.4-6.23c1.43-2.85 3.49-8.82 4.09-11.95l-2.25-6.63 2.19-5.95.89-6.15 1.56-6.05-.92-6.43 1.29-6.09 3.04-5.83.53-6.21 1.33-6.08c-.17-3.15-.46-9.51-.58-12.66l1.8-6.01 3.26-5.79c.04-3.22-.58-9.6-1.21-12.76.74-3.03 2.28-9.1 3.07-12.11l-.8-6.41c1.23-2.93 3.54-8.9 4.61-11.89-.44-2.95-1.69-8.79-2.53-11.65l1.15-6.36c-3.01-4.47-7.24-10.49-10.97-14.4l-5.67-3.03-2.16-6.6-5.25-3.45-4.24-4.49c-4.09-3.68-9.35-9.07-13.69-12.47l-5.19-3.51-3.48-5.27c-2.33-2.01-7.14-5.98-9.57-7.89l-1.65-6.32-3.89-5.25.12-6.42c.84-3.31 3.3-9.52 4.99-12.49l4.77-4.96 5.36-3.78c5.66-1.58 12.37-5.84 17.61-8.37 2.82-1.59 8.51-4.79 11.33-6.38 3.23-.69 9.53-2.71 12.55-4.04 6.36-5.35 15.99-7.9 23.22-11.74 1.97-2.91 5.83-8.81 7.69-11.79 1.32-3.22 4.44-9.49 6.18-12.52l-1.22-6.64 3.58-5.92c-2.44-6.49-2.87-6.13-1.79-13.18l1.29-6.26 4.13-5.84c-.99-6.9-1.11-6.25 1.59-12.67l-1.17-6.63 2.63-6.06.69-6.35c.5-3.2.75-9.61.52-12.84l2.52-6.08.83-6.33-1.16-6.63.71-6.35 3.85-5.88-.76-6.57 2.77-6.04.51-6.38-1.49-6.68c.64-3.12 1.7-9.45 2.11-12.61 1.28-3.1 3.22-9.54 3.92-12.82l-2.88-6.43-1.1-6.55-3.19-5.94-4.45-5.59-7.36.6ZM272.61 631.25l.97 6.51-1.17 6.17c-1.3 2.87-3.7 8.66-4.81 11.61l-3.14 5.42-1.46 6.18c-3.33 4.44-7.94 10.43-12.19 14.04-2.74 5.8-2.57 5.79-7.83 9.59l-5.72 2.56-4.58 4.5c-5.27 1.82-12.29 4.87-17.67 6.39-6.49-1.52-6.09-1.78-12.54.19l-6.19-.66-6.19 2.04-6.27.3-5.95-3.16-6.2-.33-6.72 1.77-5.4-4.36-5.84-2.06-6.63-.14-6.05-2.05c-2.7-1.75-7.53-5.92-9.66-8.34l-6.25-2.39-3.41-5.57-4.91-4.27-3.09-5.66c-.75-3.11-2.74-9.18-3.99-12.12 1.18-6.41.35-12.75-1.79-18.85l2.18-6.12-1.5-6.51c1.23-2.94 3.62-8.82 4.8-11.78l1.11-6.18 3.07-5.53c.47-5.78 3.13-13.09 5.96-18.12l3.44-5.57 1.9-6.53c5.85-7.9 9.13-14.45 18.9-18.29l2.92-6.32 4.8-4.5 4.6-4.83 5.61-3.54 6.41-2.12c.62.64 2.43 6.79 2.77 7.72l-2.17 5.63-.56 5.97.69 5.94c3.86 5.05 3.98 4.5 4.67 10.95l3.28 2.6 4.31-4.32c2.69-1.14 7.56-4.23 9.78-6.13 1.8-5.05 5.36-11.33 9.1-15.2 1.19-8.13 2.58-16.73 8.2-23.17.69-5.6 3.11-12.81 6.02-17.65l1.78-6c1.69-2.69 4.06-8.41 4.77-11.51l4.04.5-1.76 6.34c2.82 4.89 4.9 12.19 5.82 17.73l-.69 6.46c1.64 5.34 4.59 12.38 5.02 18.02l5.21 4.23 4.21 5.64 1.06 7.37 2.45 6.42 7.48.07 1.22-7.07c1.18-3.24 4.1-9.52 5.77-12.55l2.51-.77 1.17 6.21 4.51 5.04c.28 5.66 2.39 13.02 4.15 18.37.49 3.14.54 9.4.12 12.55-.2 3.18.49 9.34 1.36 12.41l-2.69 6.17 1.97 6.29-2.14 6.06 1.5 6.39-4.16 5.71-.27 6.2Z"/></svg>