<svg xmlns="http://www.w3.org/2000/svg" viewBox="0 0 1812.4 946.84"><path fill="#eae5d8" d="M380.68 216.63c-6.52-3.5-6.61-3.64-13.93-3.86-7.34.88-7.43.87-14.27-1.61l-7.12-.89-6.93-2.17c-3.62 0-10.86-.11-14.47-.23-6.94-3.83-6.02-3.79-13.97-3.56l-6.92-2.22-7.28.16c-3.52-.61-10.65-1.66-14.2-2.09-6.34-1.14-15.13-.94-21.49-1.87l-6.82-2.92-7.07-1.24-6.88-2.55-7.1-1.05c-7.77.82-6.86 1.06-14.17-2.32l-7.63 2.42-6.88-2.53-7.19-.44c-3.6-.56-10.56-2.49-13.94-3.84l-7.28.09-7.01-1.69-7.09-1.13-7.31.33-6.66-4.01c-7.16 2.41-6.8 2.99-14.49 1.6-2.7 2.29-8.6 6.11-11.77 7.7l-4.76 5.72.23 7.78-4.99 6.33-1.32 6.99.93 7.33c-.44 3.57-2.1 10.5-3.3 13.88.05 6.44.37 15.13-1.88 21.29l-.98 7.04-3.04 6.73c1.99 10.94.45 18.02-2.73 28.36l-1.19 7.01.13 7.21-1.71 6.94-.04 7.19-2.02 6.89c-.44 3.52-1.5 10.58-2.11 14.07l-3.29 6.7c-.51 3.67-1.28 11.16-1.57 14.87.95 3.71 3.26 11.1 4.65 14.68 2.4 2.88 7.87 7.99 10.92 10.19l3.83 6.89 6.91 3.74 5.02 5.68 3.75 6.98 7.29 3.35c2.85 2.48 8.42 7.61 11.12 10.24 2.6 2.74 7.8 8.28 10.37 11.04 1.01 3.2 3.14 9.64 4.22 12.82l.52 6.87-4.88 7.64c-3.09 2.53-9.71 6.79-13.38 8.34-2.8 2.55-8.81 7.09-12.04 9.06-3.61.98-10.68 3.5-14.09 5.04l-5.62 5.31-7.59 1.44-6.85 2.91-5.61 5.36-7.27 2.1-7 4.02-1.78 8.12-3.15 6.69-3.69 6.84-1.6 6.96-.13 7.18c-.97 3.43-2.59 10.42-3.23 13.92l1.77 7.47c-.98 3.49-3.31 10.34-4.65 13.71l-.97 7.06c-2.44 7.32-2.23 6.81-.82 14.29l-.08 7.19-1.62 6.96-3.27 6.71-1.47 6.98 2.54 7.59c-1.5 3.34-4.26 10.15-5.51 13.58l1.23 7.39c-3.2 6.35-4.42 13.95-4.24 20.99l.18 7.24-1.67 6.65c2.59 7.28 2.28 6.41.73 13.84l3.46 6.13 4.87 4.82 6.37.94 6.56 4.84c7.97 1.61 7.26 1.19 14.78-1.28 8.64 2.75 19.29 4.72 28.2 6.39l7.01 1.82 7.35-.42c9.3 3.73 18.81 5.16 28.71 2.99l6.6 4.54 7.7-2.65 7.06 1.53 6.75 3.59 7.37-.51 7.07 1.46c3.65-.16 10.9.03 14.53.38l6.91 2.57c3.58.59 10.77 1.24 14.39 1.29l6.94 2.31 7.24.38 6.92 2.46c3.58.45 10.84.92 14.45.94l7.03 1.77 7.43-.85 7.1 1.28 7.05 1.66 6.79 3.39 7.4-.61c3.22-1 9.42-3.61 12.39-5.21 3.7-5.3 6.68-13.51 8.62-19.62.45-3.63 2-10.79 3.1-14.28l-2.25-7.72c1.52-3.42 4.13-10.39 5.22-13.96.25-6.55-.09-15.49 1.29-21.94l.82-7.25 2.62-6.98 1.18-7.2-1.57-7.62 3.71-6.82 2.18-7.04-1.57-7.62 3.75-6.81-2.4-7.74 2.54-6.99.9-7.24 3.32-6.88c-1.9-9.15-.41-20.19-.37-29.44-1.67-3.49-4.15-10.84-5.05-14.61-9.2-3.33-15.93-12.65-21.9-19.92-4.13-5.33-11.05-11.21-17.02-14.34l-3.6-6.9-5.64-4.83-6.33-4.12-3.62-5.22.77-6.62-3.63-5.71 1.54-6.88 5.55-4.55 2.65-7.17 7.52-.88 6.68-2.51 5.42-4.93 6.73-2.43 6.13-3.57 5.4-4.98 7.38-1.18 6.43-3 4.99-5.78 7.59-.78 6.44-2.99 2.65-7.09 6.38-4.04-.13-7.55 4.15-5.81-.2-7.36 1.98-7.04c-.44-8.12-.49-7.08 3.31-14.17l-2.26-7.67c.59-3.61 2.43-10.67 3.65-14.12.29-6.63 3.73-14.9 5.66-21.16l-2.69-7.74 4.25-6.7-1.5-7.56 3.95-6.74-2.5-7.71 3.93-6.75.67-7.24-1.01-7.49 2.6-6.94.15-7.32 3.08-6.88v-7.35l1.99-6.68c-1.14-6.03-4.69-13.52-7.29-19.02l-5.95-3.21-6.06-1.13ZM280.23 634.58c-1.95 6.24-4.39 14.81-5.39 21.28l-5.24 5.75c-1.42 3.47-3.09 10.71-3.48 14.44-2.82 2.37-8.16 7.43-10.65 10.13-5.46 3.46-12.77 8.4-17.25 13.11l-7.5.65-6.09 4.76-7.58-1.08-7.06.79-7.09-.07-7.31 1.77-6.98-2.96-7.85 1.25-6.4-4.79c-3.62-.82-10.94-2.29-14.6-2.93-2.94-2.26-9.09-6.48-12.26-8.39l-7.2-2.47-4.04-6.62-7.56-2.9c-5.46-6.34-4.84-5.51-6.25-13.64l-5.01-5.82.31-7.84-4.26-6.58 1.64-7.65-2.36-7.22 1.78-7.34c-.36-3.71.1-10.88.93-14.51l2.58-6.84.74-7.38c3.06-5.88 5.51-14.58 8.14-20.64 6.93-3.99 6.74-3.21 10.9-10.22 2.64-2.5 7.58-7.86 9.85-10.69l5.61-4.63 6.43-3.44 3.54.4-1.8 7.04 3.01 6.57 1.43 7.15 3.49 6.89 3.44-1.85 3.58-6.45 5.18-5.57 1.35-7.53c1.86-3.27 5.52-9.87 7.32-13.17l2.05-7.24c-1.67-7.46-1.94-7.52-.09-15.06-.45-6.7 1.34-15.66 1.6-22.33l-3.68-7.05 1.01-7.67 1.04-.41 7.59 2.09 6.13 4.42c3.12 7.64 2.25 7.12 8.9 12.21 2.19 3.01 6.93 8.77 9.44 11.51 2.18 6.43 6.11 14.75 10.37 20.08l-.2 7.81 2.62 7.11.08 7.53 1.64 7.46c.1.49-.29 7.77.11 8.14 3.4-1.74 10.36-4.97 13.88-6.45l4.83-6.25 2.77-7.44 2.57-.85 6.35 4.32c2.07 6.33 5.77 14.61 6.76 21.24l3.21 6.87 1.6 7.29-1.16 7.53 2.06 7.32-.81 7.41-1.56 7.33 1.45 7.49c-2.13 7.37-2.06 7.29-.61 14.85ZM1057.63 628.13c.29 3.99.49 11.9.37 15.9-1 7.09-1.33 16.82-1.2 23.96l-3.66 7.37-.71 8.05-3.17 7.35c-1.87 3.57-4.66 11.02-5.62 14.93-4.6 5.56-9.16 14.19-11.79 20.89l-5.95 5.5c-2.24 3.29-7.08 9.71-9.63 12.78-5.71 4.34-12.36 11.57-17.97 16.02-3.88 1.1-11.4 4.23-14.93 6.2l-5.85 6.07-8.36.85-7.09 3.68c-9.38 3.62-20.79 7.3-30.93 7.48l-7.99.04-7.92 1.82c-3.87-1.18-11.8-2.54-15.84-2.7l-7.87-.86-8.35.85c-7.28-4.66-6.94-4.61-15.31-5.51-3.62-1.85-10.89-5.17-14.56-6.88-3.98-1.07-11.69-3.63-15.44-5.34l-6.88-4.37c-2.8-3.04-8.41-8.89-11.2-11.91l-7.4-3.86c-2.07-3.59-6.89-10.01-9.63-13.08-2.94-2.85-8.75-8.58-11.54-11.58l-3.99-7.11-1.86-8.19-4.24-6.87c-1.62-3.75-5.39-10.96-7.45-14.49-.6-4.05-1.73-12.1-2.17-16.16l-3.43-7.61c.44-4.09.43-12.2.06-16.28l.82-8.05c.28-4 .61-12.03.73-16.03 1.1-7.15 3.09-16.84 3.09-24.11l4.51-7.04 2.34-7.68c3.49-6.28 7.06-15.42 10.02-21.95 6.31-11.39 16.08-22.17 26.13-30.37l4.71-6.79c3.59-1.87 10.19-6.63 13.19-9.35l7.68-2.87 6.58-4.59 7.53-2.78c3.59-1.77 10.69-5.81 14.12-7.89l7.75-2.3c3.92-.7 11.95-2.09 15.92-2.55l7.85-2.37 8.11-.15c4-.11 12.18-.02 16.18.4l7.82 2.49 8.3-.68 7.26 4.38 8.52-.47c7.07 2.14 15.49 7.31 21.18 11.94 3.83 1.44 10.7 5.31 13.91 7.83 6.55 3.21 15.37 7.73 20.41 13.14 5.24 5.03 10.86 13.18 15.89 18.4 1.42 3.82 5.05 11.08 7.27 14.49 2.48 3.21 7.49 9.72 9.95 12.95 1.36 3.81 3.55 11.68 4.33 15.66.4 4.01 2.33 11.83 3.82 15.58l1.11 7.93 2.72 7.74-.26 8.1Zm-71.38 60.1c3.61-5.97 7.57-14.59 10.29-21l1.65-7.64.25-7.82c3.25-8.09 3.14-6.75 1.65-15.3.33-3.92.11-11.68-.47-15.56l-2.78-7.33-1.26-7.77-3.28-7.1-4.83-6.23-2.9-7.33c-4.61-5.73-12.27-12.22-17.29-17.57-3.38-2.24-10.5-6.31-14.18-8.04l-6.49-5.38-7.6-3.39-8.62.62-7.71-3.81c-7.36.37-17.38.96-24.52 2.97-6.95 1.75-16.35 4.42-23.02 7.06l-6.12 5.28-7.54 3.09c-3.31 2.31-9.32 7.65-11.98 10.69-3.63 8.4-2.71 7.17-10.19 12.48l-2.99 7.55c-2.4 3.35-5.98 10.43-7.27 14.34-.89 7.09-.98 16.79-1.6 23.89-.95 3.97-1.85 11.93-1.71 16.02l3.54 7.46.57 8.09 2.56 7.62c2.04 3.5 6.74 9.95 9.5 12.92 2.45 3.25 6.24 10.35 7.71 14.14 5.6 4.51 13.25 10.58 20.24 12.74 3.14 2.51 9.96 6.65 13.65 8.25l8.5.26 7.8 3.01c4.12.51 12.44 1.64 16.55 2.21l8.39-.41 8.21-1.78c4.11-.79 12.08-3.33 15.87-5.14l6.7-5.11c8.21-2.42 7.93-2.04 14.43-8.1l6.35-5.44c2.46-3.32 7.53-10.04 9.94-13.4ZM1493.49 782.45l-7.93-6.31-4.56-6.8-5.33-6.27c-2.04-3.58-6.77-10.26-9.46-13.37-1.76-3.75-6.18-10.63-8.87-13.78-2.2-3.45-6.94-10.17-9.46-13.39l-6.48-4.8c-12.42-3.05-18.77-2.06-30.6 2.37l-2.55 7.02-.08 7.42c-.25 3.73-1.26 11.13-2.01 14.79-.29 3.76.23 11.2 1 14.9-.6 3.63-2.71 10.63-4.35 13.93-3.35 1.71-10.38 4.03-14.09 4.71l-7.32-1.43c-3.69-.22-11.05.07-14.71.59-3.95-.27-11.64-2.07-15.38-3.39-.89-4.08-1.65-12.01-1.48-16.16l.17-8.07-1.2-8.07c-.26-4.13.39-12.1 1.27-16.13-.8-4.03-1.84-12.04-2.07-16.13.6-4.05.94-12.06.68-16.13l1.11-8.06-1.95-8.07c.08-4.07.83-12.12 1.49-16.13l.44-8.07c-.94-3.98-2.05-12.04-2.19-16.13l1.92-8.07-.95-8.07 1.12-8.07-.31-8.07.15-8.07-1.71-8.07 2.39-8.07v-8.07l-1.68-8.07c-.48-7.18.47-17.02.27-24.21-1.5-8.59-1.57-7.59 1.38-16.14-.07-3.98.1-12.16.33-16.15l-2.16-8.08 4-6.99c20-6.77 13.22-2.86 31.71-2.78l8.21-2.2 8.25-.41 8.26 1.92c4.13-.03 12.35.12 16.47.33l8.28-.76 8.21.87c4.15-.36 12.43-.42 16.58-.08 3.87 1.15 11.65 3.39 15.5 4.51l8.15-.27c3.75 1.24 11.1 4.22 14.65 5.96l5.76 5.66 6.82 3.83 5.79 5.25 4.7 6.28 6.85 4.32c2.22 3.24 6.03 10.14 7.52 13.78l5.26 5.94 2.77 7.33c2.7 6.42 5.17 15.64 8.25 21.91-.84 8.94-1.05 7.57 2.9 15.72l-1.63 8.06 1.51 7.93-1.14 7.9-.69 7.93-3.23 7.39.12 8.3-5.12 6.55-2.56 7.49c-2.54 3.11-6.54 9.89-8.05 13.61l-5.14 6.02c-3.93 7.34-3.64 7.05-10.5 11.81-2.41 3.15-7.73 9.08-10.61 11.79 2.28 7.93 1.93 7.53 7.6 13.48 1.94 3.31 5.9 9.9 7.91 13.17 1.54 3.54 5.27 10.27 7.47 13.45l5.43 5.64c2.65 6.37 7.87 14.18 11.65 19.92l2.51 7.42-5.01 5.84-6.49 3.68c-4.46.1-13.19-.94-17.51-2.04l-8.75 2.56-8.76-1.18-8.75 1.32Zm-31.64-131.16c8.57-1.01 8.01-.76 15.15-5.63 2.65-3.12 7.67-9.54 10.01-12.9l2.84-7.59 3-7.57.85-8.1.32-8.11-1.29-7.81-1.63-7.77c-1.41-3.75-5.12-10.76-7.46-14.01-3.23-2.34-9.02-7.75-11.58-10.8-9.03-4.49-20.93-6.6-30.63-9.11l-8.07-.19-8.02 1.34-8.06-1.12-7.72 3.91-2.86 7.94c2.26 8.22 2.29 8.15.82 16.47-.13 4.14.36 12.37.97 16.47l-.85 8.24 1.16 8.23-1.96 8.25.22 8.24-.13 8.25 1.24 8.24 2.89 7.11 7.01 4.31c3.69-.7 11.11-1.7 14.85-1.99 3.82.52 10.99.36 14.78-.35 8.17.02 7.15.23 14.16-3.94ZM855.2 310.99c.33 9.96-1.63 21.62-2.87 31.46-2.09 6.78-6.64 15.26-8.82 22-1.17 8.29-.95 7.82-5.76 14.58-1.33 3.79-4.74 10.88-6.92 14.25l-5.63 5.67-4.43 6.56-6.62 4.57-5.31 5.76c-3.03 2.5-8.99 7.64-11.92 10.24-3.05 2.59-9.7 6.8-13.36 8.4l-7.58 2.38-6.94 3.9-7.48 2.58c-4.02-.31-11.91.22-15.83 1.13l-7.44 3.67-7.96-.34-7.89 1.32-7.99-2.21c-4.12-.23-11.98.6-15.99 1.64-8.14-2.16-7.54-2.27-15.98-.39-3.93-.35-12.02-.56-15.98-.48l-7.99-1.34c-4.04.01-12.11 1.29-15.99 2.47l-7.99-2.64-8 2.08c-6.14-7.42-6.56-6.2-8.47-15.85l2.21-8.04-.45-8.04 1-8.04c-.74-4.04-1.42-12-1.35-16.08l-.57-8.04 1.44-8.04-1.08-8.04 1.03-8.04c.14-4.06-.36-12.07-.98-16.08l1.04-8.04-.75-8.04 1.37-8.04-1.03-8.04c-1.09-3.98-2.06-11.96-1.92-16.08.87-3.96 1.93-12.03 2.1-16.08l-1.61-8.04 1.11-8.04-1.15-8.04c-.1-4.05.76-12.13 1.7-16.09-.79-3.94-1.66-12.06-1.72-16.09.49-7.17 1.33-17 0-24.13.47-3.96 1.39-12.12 1.84-16.09-.73-3.93-1.28-12.1-1.08-16.1l7.44-7.02c3.85.37 11.58.82 15.45.91l7.74-2.3c6.88 1.02 16.27-.08 23.17.13l7.71 2.88c7.66-2.45 7.53-2.54 15.47-1.36 3.84-.88 11.54-1.53 15.47-1.28l7.73.31 8.1 1.73 8.23-.64 8.16.84 7.61 3.47 8.41.08c5.98 4.24 15.01 8.47 21.62 11.56l6.9 4.14 8.11 2.39 5.37 6.4 6.71 4.59 6.35 5.14 4.86 6.58c7.19 5.56 6.39 4.55 9.79 12.91 6.04 6.52 5.51 5.68 7.65 14.26 2.01 3.56 6.33 10.58 8.59 13.99.77 4.02 2.03 12.2 2.48 16.26l2.14 7.79 3.55 7.62c-1.25 9.03-1.34 7.83 2.01 16.25-.54 4.06-.97 12.25-.83 16.35Zm-85.98 59.55c5.11-4.96 11.34-12.32 15.1-18.36 2.8-6.59 7.86-14.92 10.93-21.38l1.92-7.85-.73-8.19 1.61-7.89-1.13-7.96c-.86-3.94-1.57-11.87-1.5-15.9l-2.85-7.49-1.19-8.12-3.99-7.05c-3.28-6.48-9.95-13.61-15.44-18.28-2.93-2.58-8.78-7.88-11.67-10.5l-7.31-2.69-7.13-2.76-6.78-4.24-7.58-1.95-8.03 1.52-7.58-1.58-7.72.88-7.73-2.12-7.73.48-7.61 2-7.71 6.2 1.6 8.08c-.32 4.03-.53 12.13-.42 16.17l-1.31 8.09c.04 4.13 1.33 12.21 2.53 16.17l-2.61 8.09 2.11 8.09c-1.48 8.15-1.38 8.29.71 16.18l-2.2 8.09.47 8.09-.99 8.09 1.12 8.09c.06 4.04.48 12.16.84 16.18l-1.43 8.09 1.09 8.09-1.02 8.1 7.57 7.75 8.02-.6 7.97 1.26 8.01-.69 8.06 1.15c4.05-.57 11.85-2.71 15.63-4.28 3.81-1.2 11.64-2.66 15.63-2.94l7.63-2.57 6.08-5.39 6.77-4.16ZM725.73 780.77c-7.96-1.94-6.78-1.95-14.51.59-3.62-.46-10.93-1.03-14.58-1.15-7.81 1.46-7.68 1.04-15.11-1.16l-3.32-7.76-.56-7.77 1.79-7.79-1.16-7.76.69-7.78.46-7.78-2.59-7.74 1.38-7.79-1.79-7.76c.28-3.87.25-11.68-.06-15.55l.83-7.79-3.61-6.31-6.32-3.3-8.09.46-8.07-2.25c-7.23.66-17.14.41-24.27 1.95-7.34.36-16.99-2-24.25-2.67-4 .76-12.13 1.72-16.2 1.91l-7.37 2.34q-3.19 7.28-2.85 15.13s-1.56 7.79-1.56 7.79l.33 7.8.88 7.81-1.46 7.79c.77 3.88 1.28 11.67 1.01 15.61 1.39 8.07 1.33 7.78-1.05 15.6l1.44 7.82-.73 7.8c-3.97 7.71-3.64 6.86-10.78 11.67l-7.44-2.24-7.53.95-7.45-1.9c-3.74.58-11.25.93-15.02.67l-6.4-3.72-3.59-6.49 1.09-8.04c-.15-4.12-1.57-12.14-2.81-16.08l.59-8.04 2.35-8.04-2.34-8.04.21-8.04 1.83-8.04-.26-8.03-1.38-8.04c.18-4.04.43-12.04.5-16.07-.29-4.03-.95-12.06-1.32-16.08l2.64-8.04-.5-8.04c.14-7.17-.2-16.96.4-24.12-2.49-8.22-2.56-7.6-.96-16.08l-.97-8.04.94-8.04c-.78-3.97-1.35-12.04-1.14-16.08l1.5-8.04c-.1-3.98-.2-12.09-.21-16.08l.14-8.04-1.82-8.05 1.21-8.04c-.61-3.98-.63-12.1-.05-16.1l3.84-6.72c6.78-3.71 6.56-3.61 14.23-3.79 3.75-.75 11.27-1.21 15.08-.92l7.56 1.2 7.55-.21 8.04 1.98 3.18 8 .74 7.76-2.24 7.78.54 7.76-.97 7.77 2.6 7.75-2.13 7.78c2.05 7.92 2.04 7.59.29 15.53 2.56 8.21 2.59 7.14.69 15.54 2.03 8.44 1.97 7.29-.57 15.55l1.27 7.77 3.04 7.09c6.81 2.43 15.96 4.74 23.26 4 7.27 1.47 17.06-.12 24.24-1.42 4.02.75 12.09 1.07 16.16.62l8.08 1.23c8.51-2.68 7.32-2.78 16.17-.82l7.82-2.78 3.27-7.79c-.19-3.91.05-11.67.47-15.56l-1.81-7.8.47-7.78-.51-7.78c.58-3.86 1.58-11.66 1.99-15.55-.47-3.87-.74-11.68-.54-15.57l-1.27-7.8.19-7.78 2.24-7.77-.91-7.8 3.59-6.82 6.89-3.11 7.28-1.41c6.61-.32 15.52.49 21.78 2.74l7.3-2.06 7.24 3.88 1.77 7.29.06 8.04 1.84 8.04c.13 4.13-.72 12.07-1.69 16.08v8.04l2.54 8.04c-.88 4.03-1.52 11.97-1.25 16.07l1.21 8.03-1.54 8.03c.18 4.02.28 12.05.19 16.07l1.44 8.04c-.75 4.04-1.02 12-.55 16.07.16 4.09-.68 12.1-1.65 16.08l1.61 8.04c-.35 3.99-.84 12.07-.97 16.08-.06 4-.55 12.09-.98 16.08l1.72 8.04c-.03 4-.61 12.11-1.15 16.08l1.58 8.04-.37 8.04-1.51 8.04 1.25 8.04-.94 8.04 1.76 8.04c.1 3.98-.39 12.14-.99 16.09l-3.11 7.22-7.09 3.66ZM1255.46 342.05l-8.26-1.83-8.26 1.14c-4.13.18-12.4.69-16.51 1.01-7.37-.48-17.41-1.55-24.78-.55l-8.26-1.74c-4.1.46-12.41.67-16.53.42l-7.9 8.12 1.87 8.31-1.03 8.36c.16 4.2 1.15 12.54 1.98 16.66l5.63 5.82c7.39 2.04 15.86 1.41 23.24-.09 3.82.92 11.57 2.24 15.48 2.61 6.89-.84 16.29-2.08 23.24-1.47 8.44 1.81 7.3 1.76 15.5-.95 7.99 2.47 7.29 2.51 15.5.89l7.74 1.9c3.84-.73 11.61-1.56 15.51-1.64l7.25 7.58-.23 7.43 1.22 7.45c-2.09 9.19-1.04 20.43-.51 29.75l-8.37 6.94c-7.75 1.97-16.32 1.14-23.97-.58-8.18 1.8-7.98 1.74-15.99-.18l-8 1.35-7.99-1.14-8 1.91-8-1.32-8 1.07-7.99-2.62c-4.05.34-12.06 1.69-16 2.69-7.21.24-17.02-.13-23.98-2.2-7.28-1.04-16.99.22-23.99 2.31-3.93-.79-11.99-1.42-16-1.26l-8-1.28-8.26-5.95c2.28-8.71 2.26-7.49-.17-16.12l2.64-8.06-.08-8.06-1.55-8.06c.93-7.16 1.47-16.98.82-24.19l-1.31-8.06 1.76-8.06-1.19-8.06 1.04-8.06-1.62-8.06 2.03-8.06-2.46-8.06c-.18-7.28.23-17.14 2.23-24.19l-2.4-8.06c.92-4.04 1.57-12.01 1.28-16.13l.85-8.06-.66-8.06c.54-7.22.95-17.06-.57-24.19l1.2-8.06-1.02-8.06c.7-7.17.34-17.01.22-24.2-.23-3.99-.62-12.13-.78-16.14l1.67-8.07 6.34-8.26 7.91 2.13 7.91.06 7.9-2.36c8.02 2.81 7.47 2.88 15.82 1.71 8.46-2.06 7.57-1.98 15.82.29l7.91.58c3.94-.59 11.85-1.41 15.82-1.64l7.91 1.69c6.99-1.27 16.64-2.34 23.73-2.81 3.94.87 11.8 1.39 15.82 1.03l7.91-.84c3.89.83 11.86 2.04 15.83 2.4l7.91-2.18 7.92.87c9.77 1.04 8.4 1.68 16.14 7.14-.1 3.8-.96 11.32-1.7 15.04-.13 3.75-.06 11.29.13 15.04-.32 3.77-.06 11.3.51 15.05l-7 5.95c-4.07.86-12.19 1.73-16.34 1.73-7.28-1.03-17.23-.74-24.52-.03-4.07-.47-12.27-1.21-16.35-1.48l-8.16 1.88c-7.19-1.65-17.21-1.6-24.53-1.75-7.2 1.64-17.15 3.09-24.53 2.04l-6.47 6.35c.03 4.09-.84 12.15-1.71 16.14.02 4.08.91 12.16 1.76 16.15-.11 4.06-.99 12.16-1.75 16.16l8.1 5.7 8.17 2.53 8.18.3c4.04-.89 12.23-1.99 16.37-2.18 4.12 1.14 12.08 2.1 16.35 1.94l8.19-2.26 8.17 2.37c4.08-.35 12.29-.45 16.38-.2l7.15 6.11c.06 3.77.74 11.25 1.35 14.96l-1.14 7.52.87 7.48-1.81 7.54.14 7.5-5.71 7.83ZM1259.28 495.78l7.67-1.93c3.85 0 11.54-.45 15.35-.9l7.68.05c3.92.97 11.91 2.69 15.89 3.43l2.6 8.19c-.58 3.98-1.13 11.98-1.1 15.99l.84 8-.89 8 1.16 8-.84 8 1.86 8-2.66 8c.33 4.01.83 11.99.99 16 .52 4.01.7 11.98.34 16 .55 3.98 1.2 11.99 1.29 16l-2.15 8 .04 8 1.55 8c-2.01 8.25-2.03 7.71-.03 16.01l.67 8-2.58 8.01c.37 4.01 1.53 12.1 2.29 16.05-3.63 8.24-3.4 7.15-2.48 15.89l-2.33 7.69c-1.94 3.56-4.96 10.91-6.16 14.76l-4.46 6.64-3.1 7.47-4.83 6.4-6.43 4.94c-2.9 2.68-8.72 8.03-11.67 10.66l-5.91 5.41-7.42 3.08-6.4 5-7.97 1.56-7.01 4.15-7.93 1.28c-7.15-.35-16.79.87-23.71 2.65l-7.91-1.25-8.05 1.43c-6.88-2.14-16.08-5.2-23.41-4.89-3.42-2.07-10.82-5.12-14.68-6.14l-6.79-4.11-7.9-2.23c-5.17-7.03-4.42-6.56-12.32-10.22-3.91-5.96-10.9-12.65-15.8-17.76l-4.29-6.66-3.08-7.3-4.81-6.59-1.49-7.9-3.04-7.52 1.62-8.22-2.79-7.8c-.42-4-.5-12.02-.15-16.03l2.16-8.03-2.53-8c2.35-8.48 2.34-7.56.31-16.03l2.22-8.03c-.74-3.99-2.16-12.01-2.84-16.01l2.1-8.03-.24-8.02c-.16-7.17.5-16.96-.97-24.05l-.41-8.02 1.12-8.02-2.07-8 2.56-8.03.18-8.02-1.72-8.01.3-8.02-1.25-8.02c1.41-3.86 3.26-11.83 3.61-15.92l7.86-2.38c3.68.67 11.04 1.03 14.76.73l7.37-1.06 7.39.83 7.37-.88 8.03 2.18c2.01 7.04 3.24 16.82 3.04 24.13.15 7.27.37 17.12-1.35 24.24l1.73 8.06-.5 8.08 1.26 8.06-1.63 8.1c-.35 4.09.13 12.12.95 16.15-1.63 8.96-1.53 7.71 1.52 16.14l-1.27 8.09.49 8.07-.82 8.09 2.01 8.06-2.04 8.1c.88 3.96 1.85 12.08 1.91 16.14-2.41 8.37-2.55 7.45-.61 16.17.24 3.96.83 12.06 1.19 16.01 1.93 3.53 6.59 9.69 9.54 12.48 3.28 2.25 9.39 7.49 12.21 10.3l8.01 1.61 7.06 4.5 8.1 1.12c7.8-2.33 7.6-2.22 15.43-.84l7.69-1.15 7-3.46c3.68-1.34 10.54-4.79 13.74-7.04l4.95-6.01 3-6.91c1.5-6.78 2.47-16.15 1.42-23.06l2.34-7.91c.2-4-.14-11.93-.68-15.89l1.08-7.93-1.74-7.96 1.15-7.93c-.54-3.95-.98-11.92-.89-15.9l1.44-7.93-.15-7.95c.41-3.93.86-11.92.88-15.88l-2.64-7.98c.42-3.98 1.86-11.97 2.86-15.86-2.33-8.5-2.48-7.15 0-15.89l-.86-7.96c.4-3.9.79-11.95.75-15.89l-1.32-7.97.25-7.95 3.71-7.13 7.16-1.78ZM1687.85 784.61c-4.12.03-11.96 1.33-15.88 2.59l-8.01-.99c-4.01-.3-12.05-.75-16.06-.91l-7.87-1.79-7.37-3.41-7.81-2.01-7.34-3.33-5.8-5.91c-3.71-1.57-10.83-5.39-14.19-7.61l-4.32-7.04-6.5-4.85-4.59-6.57-2.22-7.92 4.38-6.89c2.97-2.24 9.04-6.6 12.11-8.7l5.1-5.61c3.18-1.95 9.35-6.21 12.3-8.49l6.99-.47c6.76 1.44 14.55 6.78 19.74 11.17 6 6.17 5.74 6.06 13.83 8.98l8.43.29 7.91 2.36c4.01-.92 12.19-2.04 16.3-2.26 6.32-3.81 14.75-9.38 20.52-13.99.15-4.34.79-13.04 1.28-17.35-9.16-14.74-8.66-14.87-24.77-21.66l-6.61-5.33-7.34-3.83-8.38-1.72-6.29-5.99-8.3-1.89-7.14-4.27c-3.64-2.06-11.29-5.27-15.31-6.44-2.81-3.13-9.06-8.68-12.53-11.04l-7.68-3.81-4.33-7.28-6.36-5.56-4.02-7.32-2.31-8.05-5-6.96-2.2-8.18-.99-7.97 1.62-8.04.92-7.86-1.44-8.19c1.33-3.83 4.75-11.09 6.86-14.55 1.15-3.79 4.48-10.83 6.68-14.12l5.52-5.58 3.81-7.53 7.95-2.67 6.94-3.86 6.15-5.52 8.03-1.6c3.64-1.74 11.12-4.41 15.04-5.32 4.06-.09 11.91-1.32 15.8-2.45 4-.16 12-.35 16-.36l7.87 1.59 8.13-.13 8 1.25 7.24 3.79c3.71 1.69 11.49 4.02 15.51 4.72l6.14 5.52c3.21 2.44 10.15 6.61 13.79 8.34l5.55 5.89 4.6 8.15-4.7 8.34-6.54 3.81-5.55 5.04-6.62 3.72c-2.69 2.65-7.86 8.23-10.29 11.12-3.17.59-9.6 1.29-12.82 1.41-3.7-1.9-10.68-6.39-13.98-8.93l-8.26-1.3c-8.62-3.54-7.04-3.28-16.18-1.82l-8.14-.45-8.05 1.32c-3.33 2.44-10.1 7.35-13.45 9.78l-1.06 8.04 1.52 7.67 3.65 7.37c3.41 2.18 9.73 6.95 12.74 9.64 6.19 3.29 14.87 7.14 21.82 8.36l6.18 4.97 6.92 3.5c3.31 2.03 10.11 5.78 13.59 7.5l8.03 1.3c5.45 4.57 13.12 10.4 20 12.58 6.33 7.57 15.82 14.81 20.98 23.34l4.95 6.34 2.89 7.44c1.38 6.93 1.58 16.59 3.57 23.4.89 9.92-1.39 21.63-1.46 31.56l-4.03 7.17-1.31 8.25-5.91 5.92c-2.13 3.42-6.54 10.18-8.83 13.51-3.11 2.59-9.43 7.65-12.64 10.11-6.07 3.9-15.1 7.81-21.5 11.11-6.68 3.04-16.51 4-23.62 5.39ZM1074.05 395.41c.81 6.81.1 16.07-1.14 22.79l2.59 7.53c.03 3.78-.12 11.4-.31 15.18l-7.72 5.83c-4.01.54-11.87.62-15.88.15l-7.94 2.01c-4.03-.12-11.94-1.04-15.89-1.84l-7.94 1.09c-3.98.29-11.91.32-15.89.05l-7.95-.85-7.94 1.62-7.95-1.22-7.94 1.67c-4.05.08-11.99-.97-15.89-2.07l-7.94 1.46-7.95-1.19-7.94.71c-7.06-1.36-16.8-1.25-23.84.21l-7.95-1.27-7.95.9-5.99-7.1c-.88-4.01-1.7-12.02-1.62-16.11l1.66-8.06c.1-4.09-.7-12.12-1.57-16.11-1.03-7.16-.51-16.97-.28-24.17l.12-8.05 1.59-8.05c-.33-4.01-1.18-12.12-1.69-16.11l2.14-8.05c-2.46-8.34-2.46-7.7-.83-16.11-.3-4.06-.2-12.07.2-16.11l-2.15-8.06c.96-4 1.81-12.01 1.68-16.11l-.83-8.06 1.74-8.06c-.28-4.03-1.04-12.11-1.51-16.12l-.14-8.06 1.9-8.06c-.32-4.07-1.7-12.16-2.74-16.12 3.15-9.9 2.83-22.3-.03-32.24 1.99-8.03 2.1-7.8.27-16.13l8.23-6 8.78-2.45c4.33.97 13.09 1.91 17.52 1.88l8.76 1.15 8.77-.3 8 5.94c-.53 4.01-.84 11.87-.61 15.89l-.84 7.94 1.67 7.94c-1 3.95-2.26 11.83-2.5 15.89.78 3.96 2.03 11.89 2.49 15.89l-1.16 7.95 1.01 7.95-2.39 7.95 1.46 7.95-1.12 7.95 1.67 7.95-.32 7.95-1.56 7.95c.59 3.96 1.86 11.95 2.53 15.9l-.25 7.95-1.78 7.95c.61 3.92 1.63 11.94 2.03 15.9-.22 3.99-1.38 12.01-2.31 15.91l2.27 7.95.24 7.96-1.6 7.96 7.31 7.78 8.24-2.05c4.19-.14 12.39.62 16.48 1.51l8.24-.66 8.24 1.67 8.24-.1c4.2-.11 12.43-1.37 16.47-2.5l8.24 2.28 8.24-1.42 8.24 1.04 8.24-1.63c4.09.33 12.39.5 16.49.35l7.77 7.19ZM568.26 447.67l-7.43-.89-7.42 1c-9.31.29-20.4.42-29.71.7-5.84-7.8-6.29-6.02-7.43-16.05l1.26-8.02-.66-8.02-.94-8.02 1.37-8.02c-.28-3.99-.53-12.04-.51-16.05 1.33-7.09.95-16.89 1.07-24.06l.14-8.02-2.44-8.02c2.4-8.64 2.33-7.52.18-16.04-.26-4.09.34-12.04 1.18-16.04l-.95-8.02 1.19-8.02-.03-8.02-1.61-8.02c.36-4.03 1.42-12.07 2.12-16.05-1.49-7.08-2.11-16.87-1.52-24.08-.28-7.17-.05-16.97 1.01-24.08l.87-8.02c-.38-3.97-.85-12.06-.93-16.06-1.06-3.92-2.03-11.99-1.89-16.06l2.51-8.03 5.91-6.07 7.39-1.93 7.41 1.21 7.41-.19 7.39-1.69c3.79.15 11.21 1.44 14.84 2.55l6.25 5.81c-.33 4.01-.37 12.03-.08 16.04l.02 8.02 2.27 8.02-2.53 8.02 2.29 8.02-2.02 8.02-.32 8.02 2.54 8.02-2.39 8.02 2.4 8.02c-2.41 8.76-2.39 7.33.07 16.04l-2.46 8.02c-.14 7.24.15 17.07 2.25 24.06-1.1 7.13-.39 16.93-1.36 24.07 1.54 8.53 1.48 7.8-1.16 16.05l2.85 8.02c-.18 4.02-.74 12.05-1.12 16.05.16 4.03-.16 12.05-.63 16.05l1.41 8.02-1.57 8.02.96 8.03-1.48 8.03c.2 7.2 2.01 16.9 2.41 24.09l-8.42 7.57Z"/></svg>