<svg xmlns="http://www.w3.org/2000/svg" viewBox="0 0 1812.4 946.84"><path fill="#eae5d8" d="m1059.38 628.03-.61 7.17-2.13 7.07c1.5 8.95-.11 19.63.25 28.61l-4.5 6.27c-.1 6.48-2.24 14.99-3.83 21.23l-3.24 6.43-5.87 5-1.36 7.38-3.8 6.07-6.47 4.1c-1.75 3.16-5.1 9.61-6.69 12.85-2.63 2.4-7.85 7.33-10.4 9.82l-7.07 2.61-5.56 4.28c-3.06 1.91-8.41 6.63-10.74 9.38-7.24 1.72-7.12 1.71-12.65 6.5-5.84 2.49-14.2 4.64-20.17 6.75l-6.85 1.79-7.15.26c-3.24 1.76-10.02 4.5-13.58 5.48l-7.18.32-7.18.61-7.1-2.16c-3.5-.58-10.5-2.11-13.92-3.05-3.61.29-10.8-.24-14.33-1.07-6.98-3.21-6.69-2.94-14.35-2.47-7.64-5.02-17.06-10.8-26.12-12.69l-4.39-6.45-7.11-2.41-5.87-4.25-3.25-7.14-6.67-3.4-5.55-4.7-2.9-6.94c-5.72-7.04-12.47-15.45-18.22-22.47a1054 1054 0 0 0-5.27-13.54c-.35-3.62-1.75-10.76-2.8-14.24-4.6-16.72-6.9-7.54-4.61-28.05l-3.96-6.92 2.49-7.25-.28-7.16c1.3-6.38 1.2-15.21.73-21.68l4.03-6.46-.28-7.53 5-5.91-.75-7.97 5.78-5.34c.66-7.34 3.51-14.37 7.58-20.43l6.53-4.27c2.32-2.69 6.98-8.08 9.31-10.76l2.44-7.45c4.17-6.03 10.12-10.65 16.66-13.83l5.98-4 6.72-2.8c2.54-2.66 7.91-7.83 10.66-10.28 7.79-1.1 7.23-.83 13.43-5.55l6.95-2.07 7.56.2 7.01-1.21c3.31-1.5 10.17-3.5 13.76-4l7.07-1.67 7.21-.2c3.59.17 10.78 1 14.31 1.67l7.46-1.7 6.65 4.03 7.65-1.2 6.84 2.54 6.11 4.46c6.21 1.81 14.77 3.99 20.81 6.34 3.95 5.29 11.1 10.54 16.37 14.4l6.4 3.39 5.12 5.02 5.56 4.54 3.88 6.15 5.49 4.68 5.87 4.55 3.59 6.31c2.01 2.98 6.24 8.95 8.38 11.85l.41 7.83c11.71 16.13 7.21 7.46 11.82 26.18 1.04 3.47 2.45 10.57 2.81 14.17l-.05 7.27 2.08 7.07Zm-74.6 59.26c11.09-14.84 8.67-6.3 12.83-25.71l1.18-7.15-.39-7.29 3.41-7.03c-.77-3.58-2.26-10.77-2.98-14.35-1.24-3.37-3.07-10.29-3.64-13.83l.46-7.83-5.15-5.68-3.39-6.32-1.41-7.72c-2.51-2.77-8.13-7.33-11.36-9.2l-4.8-5.18-5.53-4.4-4.46-6.19c-3.08-1.95-9.6-5.18-13.02-6.44l-7.36-.8-6.48-3.57-7.38.4c-3.55-.55-10.66-1.29-14.25-1.46-3.6.25-10.7 1.21-14.23 1.94l-7.31.67c-3.14 2.17-9.38 6.62-12.44 8.89-3.4 1.49-9.46 5.4-12.23 7.88-6.68 2.14-13.63 7.84-18.67 12.53-3.09 5.96-7.5 14.02-11.69 19.29-.37 8.06.04 7.43-4.27 14.32l-2.48 7.03-1.07 7.37 1.29 7.47-2.95 7.43c1.64 3.45 3.9 10.61 4.42 14.39l-1.27 8c2.35 3.05 6.46 9.39 8.25 12.77l1.52 7.59c5.43 8.64 12.33 15.5 21.26 20.49 2.56 2.65 8.29 7.13 11.48 8.97l5.92 4.7 6.85 3.09 7.08 1.8 7.47-.35c3.47 1.23 10.6 3.43 14.17 4.36l7.21-3.54 7.43 1.99c3.54-.93 10.7-2.5 14.3-3.13l6.59-3.22 5.85-4.47 7.51-1.43 4.61-6.02 7.42-2.48 2.57-7.63 7.06-3.54 2.04-7.41ZM1493.48 779.75l-9.28-2.69-5.05-5.36-3.54-6.4-3.44-6.47-4.71-5.59-2.25-7.29-4.63-5.65c-2.78-5.94-8.15-13.04-12.37-18.03l-7.56-2.32-7.11-4.47-8.05 2.65-7.86-.55-8.02 1.44.3 8.15-1.82 7.36.97 7.46c-1.03 3.65-2.92 11.03-3.77 14.73l1.93 7.5.24 7.44-3.67 7.56-7.7.84-7.4 2.67-7.35.29c-3.63-.65-10.98-1.56-14.66-1.8l-7.31-1.85-8.4-.43c-1.15-3.85-2.82-11.62-3.06-15.61l1.71-7.19-.41-7.19 1.26-7.19-.95-7.19.34-7.2c-.93-3.53-1.87-10.74-1.85-14.39l2.51-7.19-2.76-7.19.57-7.19 2.22-7.2c.17-3.62.41-10.77.49-14.38-2.18-6.32-1.77-15.04-1.31-21.58l.91-7.19-1.05-7.19c.13-3.65-.47-10.82-1.19-14.39l-.37-7.19 1.58-7.2-2.13-7.2 1.41-7.2-.97-7.2 2.7-7.2c-.3-3.62-1.46-10.85-2.31-14.39.03-3.58-.26-10.83-.59-14.39-.05-3.68 1.07-10.88 2.19-14.4-.25-3.65-1.66-10.9-2.77-14.4l.61-7.21 2.69-7.21 1.33-7.55c3.67-1.28 10.79-3.4 14.61-3.97 3.64.58 10.68.69 14.32.33l7.13-1.36c3.61.48 10.71.98 14.33 1.1l7.15-1.03 7.14 1.53c6.37.62 15.04 1.18 21.42.72 3.59.5 10.71.58 14.32.28 6.86 2.48 7.11 2.46 14.21 1.67l7.1 1.92 7.49.46 7.29 1.76 6.22 4.27 6.24 3.92 4.94 5.69 6.95 2.92 5.13 5.25 6.21 4.25 4.91 5.57 2.77 7.1 5.29 5.34 4.08 6.21 1.69 7.37 3.73 6.44c.77 3.59 2.71 10.76 3.78 14.28l.22 7.14-.33 7.1c.78 3.41 1.74 10.39 1.81 13.89-.53 3.43-1.43 10.43-1.9 13.87l.83 7.23c-.98 3.46-1.91 10.61-1.99 14.21-3.24 5.51-6.16 13.78-9.9 19.01l-2.73 6.7-4.06 5.92c-2.25 2.77-7.25 7.96-10.07 10.17l-4.35 5.75c-2.9 2.06-8.13 7-10.5 9.65.75 3.57 3.19 10.19 5.04 13.34 4.98 5.49 4.65 5.23 6.31 12.36l6.84 3.84 1.85 7.02 3.52 5.95 3.07 6.24 4.58 5.28c4.05 4.78 6.56 12.66 8.25 18.57l-3.59 5.44-5.87 2.36-7.29.2c-3.66.1-10.97.72-14.59 1.23l-7.3-1.4-7.25.93-7.35-.98Zm-30.8-125.89c2.86-2.27 8.46-6.92 11.16-9.35 3.01-1.87 8.29-6.4 10.62-9.08l2.81-6.52 4.67-5.9c.43-3.62 1.83-10.81 2.78-14.33l-.03-7.3-1.34-6.9-3.83-6.05.28-7.49-5.89-4.63c-1.64-3.13-4.67-9.62-6.06-12.89-7.59-1.18-7.05-.36-13.08-5.47l-6.86-.76c-3.1-1.71-9.59-4.49-12.97-5.56l-7.05 1.64-6.84.31-6.84-.18-6.95-1.86-6.13 5.75-2.1 6.46-.93 7.49c.02 3.83-1.08 11.31-2.15 14.99l3.21 7.47-1.25 7.49.96 7.48-1.68 7.5.45 7.49-1.22 7.5c.78 3.76 1.13 11.17.69 14.99l4.24 6.83c3.5 1.34 10.63 3.93 14.17 5.17l7.41-2.8c3.83-.15 11.32.76 15.03 1.75l7.5-.97 7.24-2.29ZM853.1 310.92l2.43 7.19C851.81 329 852.21 342 848.94 353c-.95 3.45-2.63 10.43-3.38 13.93-1.39 3.31-4.62 9.71-6.46 12.79l-5.28 5.18c-2.05 6.11-6.75 13.48-10.15 18.89-2.61 2.46-7.43 7.83-9.6 10.69-3.13 1.78-9.54 5.31-12.74 6.96l-4.47 5.94-6.67 2.76-5.91 3.98-6.68 2.49-6.13 3.82-7.43.2-6.54 2.78c-9.01-.2-19.02 3.97-27.95 4.64l-7.11.48-7.37-2.22c-6.68-.2-15.75.43-22.14 2.56l-7.37-2.46-7.38 3.11-7.37-3.36-7.38 1.5-7.37-2.02-7.38.02-7.38 1.2-7.38-.87-7.39.83-4.59-1.81-2.96-4.6c-.17-3.71.66-10.81 1.64-14.39l-.02-7.19-1.85-7.2c-.23-3.65.32-10.82 1.08-14.39-.36-3.61-1.4-10.83-2.07-14.39.52-3.63 2.06-10.85 3.06-14.39l.54-7.19-.99-7.19-2.59-7.2c.87-3.55 1.82-10.73 1.88-14.38 1.52-7.76 1.42-6.97-1.1-14.39l2.45-7.19-.09-7.19-1.65-7.2c.92-3.55 1.67-10.73 1.47-14.39l-3.15-7.2c4.3-14.42 3.37-14.51 1.17-28.79 1.52-6.37 1.15-15.15.34-21.59l1.68-7.2-.12-7.2c-1.67-6.3-3.07-15.06-2.96-21.59l2.81-7.2c.33-6.12.37-14.59-.12-20.7l6.3-2.37c3.51.92 10.63 1.89 14.25 1.93 7.41-1.5 7.07-1.43 14.26.77l7.14-1.83 7.13 1.04 7.13-.7c6.34.66 15.03.51 21.39.34l7.13 1.21 7.15-1.08c3.52.49 10.66 1.38 14.19 1.77 7.4-.81 7.01-.84 13.94 2.04l7.58-2.09c6.71 3.59 6.48 3.47 13.93 3.55l6.81 2.33 6.25 3.65 6.85 2.26 5.18 5.4c7.16 2.49 6.73 2.24 11.71 7.87l5.93 3.9 6.98 2.91 4.77 5.43 2.34 7.47c4.01 4.94 9.19 11.92 14.3 15.82 2.82 5.67 6.35 13.6 8.58 19.52l5.36 5.55c-.07 12.43 1.28 17.05 7.39 27.81l-.53 7.33c1.07 3.47 2.19 10.52 2.25 14.14-1.12 3.48-2.62 10.6-2.95 14.23Zm-82.52 61.22 3.39-7.02 5.74-4.56 4.47-5.76c4.2-8.04 8.36-18.07 10.02-27.03.19-6.39 1.81-14.95 2.31-21.31l1.95-7.27c-1.71-6.23-3.57-14.89-6.18-20.83l-1.91-6.87-3.39-6.28c-.76-3.6-3.14-10.58-4.75-13.9l-6.24-4.28-4.09-6.02c-3-1.98-8.64-6.34-11.31-8.73l-6.73-2.34-5.57-4.88-7.03-1.43-6.62-2.9c-8.84-1.29-19.51-.73-28.41-.55l-7.12-2.09c-3.55.04-10.66.78-14.14 1.5l-5.31 7.73-2.43 7.32 3.14 7.31-3.33 7.32c1.83 7.78 1.73 7.12-.46 14.63-.24 3.74.41 11 1.28 14.63l-.84 7.32c.59 3.65 1.08 10.95.97 14.63.81 3.66 1.25 10.91.87 14.64l-1.42 7.32.03 7.32 1.87 7.32c.23 3.69-.3 11.02-1.06 14.64.37 3.65 1.42 11.03 2.1 14.64-.52 3.68-2.05 11.06-3.04 14.66l1.96 6.19 6.13 1.73c7.84-2.56 6.63-2.68 14.69-.72 3.69.19 11.06 1.05 14.7 1.71l7.2-2.72 7.56 1.67 7.31-1.33 6.76-3.38 7.4-1.14 6.82-3 4.63-6.45 8.12-1.43ZM725.67 779.06l-7.17 2.67c-9.82-3.29-19.48-1.65-29.01 1.63l-6.6-5.73-5.05-6.34.5-7.13 1.87-7.14c-.65-3.57-2.13-10.68-2.95-14.21l.37-7.13 2.34-7.15c.32-6.37-.81-15.01-.16-21.37l-2.57-7.1-.04-7.13 1.37-7.15-3.21-8.07-8.08-4-7.36 1.97-7.34-2.11c-3.69.79-11.06 2.47-14.72 3.36l-7.34-1.01c-3.76-.1-11.09-1.3-14.69-2.37l-7.35-.31-7.37 2.46-7.36.56c-3.96-.5-11.94-.13-15.9.49-2.43 9.23-4.57 20.39-3.28 29.95l-.45 7.14 2.1 7.17-2.59 7.12 3.38 7.18c-.81 3.58-2.68 10.74-3.71 14.26l3.43 7.19-3.16 7.13 3 7.19-3.82 8.37c-4.01.9-12.03 2.74-16 3.67l-7.46-1.57-7.51.51-7.43-2.93-7.5-.26-6.46-2.35c-1.33-3.35-3.72-10.24-4.79-13.69.32-6.4-.33-15.11-.16-21.51.49-3.58.57-10.75.15-14.34l2.28-7.17c-.62-3.58-2.08-10.79-2.89-14.34l3.59-7.16c-.26-3.72-1.94-10.86-3.3-14.34-.39-3.61-.12-10.76.53-14.33l2.51-7.17c-2.43-7.49-2.45-6.71-.78-14.34-.22-3.6-.11-10.75.23-14.34.51-3.7.33-10.67-.36-14.34.34-3.57.83-10.76.98-14.34l-2.24-7.17.63-7.17c-.38-3.58-.28-10.77.19-14.34l-.15-7.17-1.75-7.17 3.39-7.17-3.55-7.17 2.64-7.17c-.88-3.66-1.4-10.6-1.06-14.34 2-7.24 2.04-7.01.42-14.36 1.12-3.75 2-11.4 1.95-15.32l8.09-4.27c6.78.67 15.95 2.32 22.67 3.39l7.52-2.99 7.55-.34c6.99 4.75 7.04 4.51 11.32 11.89l-2.46 7.22-.04 7.21 3.82 7.19c-.74 3.58-1.47 10.78-1.43 14.43l-1.79 7.22c3.14 16.28 5.01 11.82-.25 28.85 3.81 7.23 4.09 6.05 3.5 14.41l-3.05 7.24-.4 7.22c5.24 7.48 3.86 6.93 12.38 10.73l7.35-2.16c7.55 3.13 6.49 3.29 14.69 2.12 8.18 1.15 7.2.96 14.69-2.16l7.34 3.34 7.35-3.05 7.35 1.15 7.35-.63 7.35-.34 7.35 1.38 6.63-3.67 5.33-6.59-.08-7.23-2.96-7.25.13-7.22c.91-3.59 2.56-10.81 3.3-14.43l-1.48-7.23.57-7.22c-.48-3.6-.62-10.83-.27-14.45 1.55-7.89 1.45-6.94-1.21-14.47l-.21-7.23 2.08-7.22-1.02-7.24 3.7-7.3 7.38-3.93c3.67.36 10.93 1.61 14.51 2.49l7.27-.23 7.3-2.62 7.26 1.41 7.24 3.4 3.58 7.28c.3 3.57.76 10.76.91 14.33.72 7.62.49 7.37-2.37 14.34.65 3.59 2.15 10.78 2.99 14.33l-3.43 7.17 1.36 7.17-1.6 7.16 2.8 7.16-2.22 7.17c1.49 7.35 1.42 7.18-.68 14.33l2.53 7.16c-.05 3.58-.27 10.76-.45 14.33.17 3.58 0 10.77-.32 14.34l1.88 7.17c-3.09 7.47-3.19 6.37-1.92 14.34-.52 9.01-.04 19.79 1.55 28.68l.49 7.17-1.01 7.17c.54 6.44-1.04 15.08-1.17 21.51-1.11 8.95-.05 19.71.47 28.68 2.48 10.84 2.09 19.26-2.22 29.61l-8.04 1.1ZM1255.46 339.62l-7.51.1-7.51 3.12c-3.7-.99-11.2-2.21-15.01-2.43-3.69 1-11.21 2.41-15.01 2.82l-7.51-3.03c-7.42 2.2-7.39 2.28-15.02.95-8.1 1.96-7.09 1.92-15.03-.5l-4.4 3.53-2.81 4.45c1.31 7.29 1.12 6.58-1.44 13.37.22 3.44 1.7 10.08 2.92 13.31l-2.32 6.72 2.27 6.3c6.19-.7 14.65.55 20.86.15 6.55.22 15.49.13 21.78 2.3l7.28-3.64c3.7-.08 10.92.74 14.52 1.61 3.63-.33 10.91-1.06 14.53-1.44l7.25 3.18c6.57.6 15.44-.44 21.8-2.09l7.26 1.27 7.27.14 5.14 1.63c.57 5.86.34 14.15.88 20.03l.53 7.44-1.59 7.41 3.41 7.49-1.1 7.43-3.36 4.5-4.55 3.4c-7.88 1.29-7.27 1.13-14.65-1.51l-7.32-.12-7.33 2.45c-3.71-.1-11.04-1.07-14.65-1.94l-7.33.05-7.33-1.3c-7.76 1.81-6.97 1.81-14.66-.53-7.47 2.57-6.88 2.65-14.66 1.26l-7.33.85-7.33-2.15c-9.93 2.05-19.39 5.04-29.32.99l-7.33 2.32c-10.59-3.59-18.85-4.44-29.33.16l-7.34-1.84c-2.21-1.36-5.9-4.82-7.49-6.86.45-3.62 1.59-10.84 2.26-14.43l-.32-7.21-2.62-7.21c.39-6.45 1.6-15.21 2.27-21.64-.01-3.65-.95-10.88-1.84-14.43l2.52-7.21-2.62-7.21 1.25-7.21-.49-7.21-1.19-7.21.31-7.21-1.06-7.21c.53-3.58 1.41-10.82 1.76-14.42l-1.26-7.21 1.43-7.21c-.18-3.59-.63-10.84-.89-14.43.33-3.66 1.78-10.91 2.87-14.43-1.43-3.49-3.38-10.69-3.86-14.43l2.65-7.22-2.22-7.22.54-7.22 1.96-7.21v-7.22l-.23-7.22-2.14-7.22 1.34-7.22c-.17-3.64.4-10.86 1.13-14.43l-1.38-7.23.17-7.22 2.86-4.31c2.52-.99 8.82-1.9 11.55-2.2l7.25-1.81 7.25 1.9 7.25.37 7.25-.98 7.25 1.31 7.25-.41 7.25-2.87 7.25 2.89 7.25-2.69c3.64.26 10.9 1.09 14.5 1.64l7.25-1.84c3.57.99 10.84 2.51 14.51 3.04l7.25-2.18 7.25-.51 7.25 2.83c8.89-2.34 20.01-2.77 29.01-.84 3.6-.56 10.89-1.51 14.52-1.91l5.76 2.62c.56 3.23.32 10.01-.08 13.28l1.94 7.51c-2.4 7.83-2.45 7.04-.69 15.04.4 3.75.54 11.29.28 15.05-1.39 2.3-4.96 6.2-7.04 7.9-7.74.7-7.33.44-14.31-2.56l-7.14 3.29c-6.88-2.62-14.23-3.18-21.47-2.16-7.99-1.25-6.95-1.09-14.29 1.97l-7.16-1.02-7.15.87h-7.15l-7.16-1.92c-7.25 2.72-6.59 2.84-14.3 1.66-7.81 1.6-6.88 1.49-14.33-1.12l-4.82 2.94-3.2 4.83 2.82 6.92-3.19 6.91c0 3.48.51 10.4 1.03 13.84l-1.01 6.92.26 6.93 1.49 6.93 2.55 4.02c2.38 1.57 8.72 3.94 11.44 4.92l7.44-1.63 7.43 1.67h7.44c3.77-.1 11.22-1.14 14.88-2.05l7.43 1.85 7.45-2.52 7.44-.66c5.46 2.09 13.62 3.02 19.21 4.4l2.65 4.29 1.66 7.46-2.66 7.55 2.57 7.45c-.45 3.75-1.37 11.29-1.83 15.03l1.56 7.47-2.85 4.63-4.58.79ZM1259.29 496.15l7.67-2.3c7.89 1.6 7.66 1.55 15.36-.56l7.69 1.99 7.68.18c7.66 2.93 6.57 2.95 11.48 9.16l-2.03 7.33c1.91 7.68 1.9 7.04-.17 14.66l3.12 7.33-1.23 7.33.84 7.33c-.52 3.65-.89 10.98-.73 14.66l-2.36 7.33-.1 7.33 3.16 7.34-2.71 7.33-.3 7.33 1.48 7.34c-.16 3.69-.75 11-1.17 14.67l1.26 7.33c-.55 3.66-1.38 10.99-1.66 14.67.45 3.66 1.26 11.01 1.6 14.68-1.25 10.89-2.9 18.79 1.54 29.42l-1.26 7.3-3.37 6.85c-1.25 6.33-3.59 14.86-5.59 21-2.23 2.84-6.23 8.97-7.95 12.15l-2.25 7.22-3.81 6.36c-7.3 3.59-6.68 2.74-11.17 9.62-2.62 2.59-7.92 7.81-10.55 10.39-8.12 1.2-7.28.51-13.64 5.76l-7 2.14-6.34 3.84-7.02 2.07c-8.8 2.83-19.76 4.13-28.95 3.08l-7.32 1.48c-3.65-.64-10.68-2.85-14.03-4.44l-7.5 1.14-6.71-2.92-7.43-.39-5.91-4.78c-7.86-.94-7.04-.51-13.29-5.39l-6.64-2.95-5.04-5.35-7.63-2.05c-2.4-2.83-6.71-8.77-8.63-11.94l-5.57-4.8-4.5-5.76-3.9-6.21-1.66-7.26c-3.24-5.72-6.65-13.96-7.87-20.44.28-3.72 1.53-11.09 2.53-14.68l-.98-7.08.33-7.09-2.14-7.07 2.33-7.11-2.59-7.07 2.25-7.11-2.16-7.07 2.24-7.11c-.64-3.51-1.41-10.61-1.52-14.17.48-3.54.62-10.63.27-14.18l-2.49-7.08 1.93-7.11c-.16-3.56-.88-10.66-1.44-14.18 2.12-7.44 2.15-6.68.21-14.19 1.32-7.32 1.25-7.1-.98-14.18l2.71-7.11-1.89-7.08.78-7.1c-.38-3.54-1.24-10.66-1.71-14.19 1.79-3.45 4.24-10.59 4.88-14.42 3.57-1.28 10.85-2.74 14.64-2.9 8.02-1.78 7-1.7 14.76.81l7.36-3.14c3.96.5 11.39 2.81 15.01 4.5l2.68 7.56c.74 3.54 1.42 10.66 1.34 14.27l-2.79 7.17c.87 6.35 1.1 15.06.3 21.43l.99 7.13 2.36 7.12-3.2 7.18 1.96 7.12.19 7.14-.31 7.15 2.45 7.12-2.77 7.18c2.32 7.67 2.28 6.6.27 14.29.21 3.56.46 10.72.49 14.29.32 6.4 1.41 15.09 2.45 21.41l-2.76 7.18 2.43 7.12-1.55 7.17.51 7.15-1.26 7.17c1.63 3.39 3.76 10.36 4.27 14.08l3.78 6.43 6.64 3.55 5.56 4.58 7.01 1.96c3.16 1.66 9.76 4.3 13.2 5.28 8.77-1.12 19.14 1 27.92 1.04l5.62-5.27c3.07-1.58 9.53-3.73 12.93-4.37l4.91-4.77 6.2-3.68 3.72-6.24-1.55-7.27 1.47-7.31v-7.33l-1.76-7.35 1.19-7.32c-1.38-8.08-1.26-7.1 1.63-14.64-.56-9.21 1.15-20.18-.56-29.33l.66-7.32-1.66-7.35 2.81-7.3-1.99-7.36 1.99-7.31c-.33-3.71-1.5-11.07-2.33-14.7l2.69-7.3c.44-6.58-.26-15.52-1.32-22.02l-1.52-7.35-.13-7.34 3.45-7.3-3.07-7.38.08-7.34 4.23-7.92 7.97-.6ZM1687.76 783.87c-3.62.11-10.51 1.51-13.91 2.76l-7.01-2.67-6.96-.05-7.24 1.68-6.68-2.79-7.13-.37-6.15-3.89-7.58.18c-6.6-2.51-12.66-7.14-17.2-12.49-11.28-4.11-15.35-7.54-21.79-17.62-.88-3.59-3.56-10.42-5.39-13.64 4.06-6.67 3.72-6.33 10.43-10.26 6.72-4.39 6.3-4.41 10.14-11.28l6.57-3.69 5.32-5.33 7.67-1.8c2.86 2.49 9.19 6.31 12.67 7.79l4.79 6.03 7.31 2.37 6.22 4.14 7.61.45 6.61 4.7c3.71-.77 11.04-2.58 14.65-3.68l7.12-1.23 6.54-3.13c3.01-1.85 8.69-6.03 11.3-8.39l2.84-6.55 1.16-7.49-3.11-6.89-4.33-5.91-3-7.26c-3.21-2.14-9.98-5.47-13.65-6.64l-6.1-4.48c-6.78-.77-15.3-4.23-21.44-7.07l-5.31-6.11-7.84-.94-7.12-2.42c-5.91-3.21-13.33-8.6-19.7-10.88l-5.13-5.69-6.43-3.94-5.93-4.74-4.31-6.22-5.18-5.59-4.1-6.42-1.84-7.5-1.35-7.41-4.15-6.83 3.02-7.63-3.67-7.11c.98-3.6 2.36-10.79 2.82-14.47l-.81-7.59 1.87-7.2c1.95-3.24 4.91-10.05 5.98-13.67l5.73-5.04 4.42-5.82 5.96-4.27 4.82-5.8c5.63-3.42 14-6.71 19.3-10.69l7.3-1.42 7.56.06 6.94-1.74c8.78-2.57 19.64-3.28 28.67-4.42 6.43 1.11 15.16 3.1 21.72 3.21l6.31 4.31 6.79 2.35c7.71.12 7.54-.16 14.42 3.56l4.4 6.81c3.37 1.43 9.49 5.19 12.29 7.54 2.04 2.39 6.4 7.29 8.57 9.53l1 6.14-3.41 5.63-5.78 4.76-7.56 2.55c-3.15 2.2-8.5 7.4-10.82 10.46l-5.56 5.05-5.89 2.33c-6.26-1.38-12.86-6.43-18.35-9.48l-7.6-.26c-3.36-1.38-10.27-3.77-13.76-4.77l-7.34 1.62-7.39-2.38c-3.26 1.5-9.99 3.93-13.47 4.74-3.15 6.55-2.69 6.01-8.77 9.95l-1.96 6.92 3.02 8.14c2.85 3.1 8.25 9.63 10.77 13.02l6.95 1.87 6.27 3.2 6.73 2.3c3.04 1.82 9.39 4.86 12.72 6.08 2.5 2.67 8.04 7.33 11.11 9.3 3.46.97 10.48 2.76 13.98 3.56l5.57 4.63 7.09 1.6c3.14 2 9.76 5.58 13.15 7.12l4.19 6.65 6.87 3.46 3.76 6.57c2.82 2.54 7.42 8.27 9.29 11.57 1.57 7.91 1.41 7.31 6.56 13.46l.22 7.66c.9 3.62 2.82 10.83 3.81 14.41l-.19 7.47-2.59 7.25.77 7.47-.88 7.13c-2.8 5.71-6.37 13.65-8.65 19.59-1.78 3.08-6.02 8.8-8.46 11.39-2.77 2.54-7.02 8.1-8.83 11.4l-6.79 2.92c-2.64 2.46-8.29 7-11.25 9.07-6.51-.01-15.04 2.02-21.16 4.1l-6.63 2.62-7.06.45ZM1072.92 395.5l1.99 7.47c-.47 3.8-1.38 11.43-1.8 15.23.43 3.81 1.75 11.39 2.62 15.12-.84 2.74-2.88 9.29-3.97 11.87-2.85.25-9.03 3.25-11.57 4.58l-7.29-3.61-7.27 3.81-7.28-1.26-7.28.59-7.28-1.77c-7.45 1.76-7.16 1.74-14.56-.19l-7.28 2.22-7.29-2.98-7.28 2.52-7.28.18-7.29-2.6-7.28 2.08h-7.28c-6.51-.69-15.27-2.42-21.85-2.13l-7.28 1.98-7.29-.1-7.29.19-7.29-1.87c-3.62.65-10.96 1.99-14.58 2.67-1.59-2.2-5.06-6.49-6.96-8.41l-.96-7.21.36-7.21c1.4-7.63 1.28-7.13-1.18-14.41l2.54-7.21c-.63-3.6-1.03-10.78-.78-14.42-1.79-7.18-1.79-7.24-.16-14.42-.25-3.63.21-10.83.9-14.41l-.73-7.21 1.76-7.21-.45-7.2-2.38-7.21 1.93-7.21-.65-7.21-2.26-7.21c3.68-10.38 4.54-18.51.07-28.83.49-3.65 1.96-10.87 2.93-14.42l-.24-7.21.34-7.21c-.88-3.55-2.24-10.8-2.71-14.42l3.62-7.21-3.89-7.21 2.39-7.21c.22-3.6.39-10.82.34-14.42l.46-7.21-2.5-7.21.9-7.21-1.16-7.22c-.33-7-.67-6.87 2.46-13.36 3.28-.63 10.09-1.32 13.45-1.48l7.3 1.26c3.64.06 10.97.3 14.61.48l7.32-2.24c2.51 1.04 8.68 3.58 11.16 4.46l4.93 3.87-.71 7.15-2.44 7.15.3 7.15 2.02 7.15v7.15l-1.89 7.15c1.11 3.61 2.1 10.53 2 14.3-1.06 3.49-2.45 10.67-2.75 14.3l3.7 7.15-3.71 7.15 2.94 7.15.39 7.15-3.08 7.15 2.54 7.15c-.58 3.56-1.64 10.74-2.11 14.31l3.09 7.15-2.6 7.16 1.63 7.16c-.87 3.54-2.16 10.69-2.57 14.31 2.57 7.51 2.63 6.52.96 14.31 1.83 7.1 1.86 7.13.27 14.31-.05 6.38-.16 15.13-.78 21.49 1.87 2.3 6.02 6.55 8.26 8.5 3.6-.5 10.83-1.62 14.41-2.22l7.21 2.51 7.21-3.27c3.61-.12 10.82.04 14.42.31 7.11 3.23 6.5 3.48 14.42 2.83 3.67.04 10.87-.91 14.42-1.87 6.5-.25 15.24 1.16 21.63 2.15l7.21-2.98c7.3 1.27 7.4 1.16 14.44-.96l6.64 8.55ZM568.25 445.87l-7.42.71-7.43-.68-7.41 2.11c-7.95-2.18-6.94-2.17-14.86 0l-7.43-.42-5.57-1.57-1.33-5.56c.64-3.56 1.3-10.74 1.32-14.36l-1.96-7.18.4-7.18 1.92-7.18-3.09-7.18.28-7.18 2.03-7.18-.04-7.18-1.37-7.17 1.07-7.17-1.66-7.18c-.12-3.7.85-10.81 1.92-14.35 1.17-6.51-.51-15.21-2.06-21.53 1.7-7.67 1.69-6.83-.75-14.36l3.29-7.18c-1.06-6.36-1.51-15.15-2.28-21.54l2.04-7.18c-1.84-7.56-1.82-6.88.31-14.36l-2.69-7.18 1.55-7.18c-.02-3.69-1.21-10.85-2.34-14.36.28-3.69 1.83-10.87 3.06-14.36-2.11-7.66-2.1-6.73.04-14.36l-2.17-7.18-.02-7.19.38-7.19-1.28-7.19 2.66-6.25c3.29-1.1 10.17-2.43 13.63-2.81l7.43 3.13h7.41l7.39-2.22 7.42 1.57 7.4-.94 6.3.92 1.95 6.29c-.76 3.56-1.94 10.75-2.35 14.35l1.92 7.18c-.06 3.64-1.05 10.82-1.94 14.35l2.67 7.18-1.36 7.18 1.89 7.18-.2 7.18-3.07 7.17c-.46 3.6-.48 10.75-.03 14.35-.21 3.6.08 10.78.59 14.35l-.49 7.18 2.23 7.18-.75 7.17.89 7.18c-1.64 7.4-1.64 7 .44 14.35-.82 3.54-2.3 10.78-2.95 14.36l3.1 7.18-2.65 7.18 2.51 7.18-.06 7.18-1.58 7.18.75 7.18-1.01 7.18 1.59 7.18c.61 7.73.37 7.36-2.69 14.36 1.56 6.3 2.06 15.1 2.57 21.54 1.04 7.38.88 7.38-1.51 14.37l1.67 7.19-3.69 4.53-4.52 1.25ZM379.93 214.31l-6.52.25c-3.29-.69-9.34-3.13-12.23-4.86l-6.82 2.19c-3.09-1.16-9.2-3.71-12.2-5.09l-6.68 1.29-6.33-1.01-6.46-.15-6.25-1.55-5.97-3.35-6.7 1.43-6.4-.56-5.83-4.29-6.56.53-6.34-.95-6.64 1.04c-3.13-.71-9.47-1.74-12.66-2.05-3.26-.79-9.33-3.4-12.19-5.15-3.15-.62-9.55-1.31-12.76-1.39l-6.81 2.14-5.79-4.61-6.87 2.56-5.81-4.51c-3.18-.36-9.58-1.03-12.77-1.33-3.27.22-9.86.72-13.12 1l-5.85-4.21-6.78 1.92c-3.03-1.7-8.88-3.86-12.3-4.47l-6.68 1.27-6.49-.03c-3.04-1-9.25-2.72-12.37-3.4-2.86 1.39-8.53 4.35-11.3 5.9l-2.26 6.12-3.93 4.92-.71 6.28-3.07 5.71c-1.5 5.53-1.14 13.21-.67 18.85-1.89 5.36-5.33 12.33-6.01 18.05.1 3.14.13 9.5.07 12.65l-2.39 5.96c1.37 6.43 1.53 6.27-.42 12.58-.48 3.15-2.26 9.19-3.53 12.11-.72 5.58-.06 13.24-1 18.81.49 6.89.53 6.15-2.72 12.23l.6 6.41-1.57 6.08-2.45 5.95-.98 6.17-1.08 6.16.57 6.42-.69 6.23.54 5.92c.12 2.91.85 8.71 1.45 11.56l.45 6.17 2.72 5.88 6.51 2.32 4.3 4.59 2.78 6.14 6.42 2.42c3.16 5.81 2.99 5.7 8.55 9.25 1.9 2.53 5.95 7.39 8.1 9.71l6.07 2.78c6.13 5.25 11.34 13.39 16.29 19.7-.71 5.59-1.4 13.24-.98 18.87l-3.01 5.21c-2.97.94-8.63 3.32-11.37 4.8l-4.71 4.36c-2.88 1.14-8.49 3.71-11.24 5.13-3.07.73-8.77 3.06-11.46 4.71-4.25 3.62-10.59 7.84-15.22 10.92-2.99.88-8.99 2.79-11.94 3.79l-4.55 4.7-5.63 2.09-5.2 3.82-.43 6.79-5.27 4.5c.02 3.22.37 9.68.7 12.88L62 545.73l-3.78 5.76 2.4 6.69-1.22 6.15-4.09 5.71.48 6.4c-.55 3.1-2.1 9.21-3.09 12.2l1.75 6.59c-2.04 5.27-3.68 12.81-5.42 18.18l1.62 6.58-.03 6.33-4.51 5.65 2.61 6.72-4.1 5.71.79 6.45c-.45 3.12-1.87 9.24-2.83 12.24l.57 6.42-2.06 6.03c.3 5.75-.98 13.51-1.1 19.25l.32 6.66-1.17 7.26 3.13 6.42c5.18 2.7 12.45 5.99 17.88 8.11l6.09 1.84 6.43-.39 6.39-.12 5.98 2.6c5.51 1.22 13.2 2.04 18.48 4.18l6.66-1.94c2.95 1.35 8.98 3.2 12.18 3.69 7.38 3.39 17.21 3.83 25.12 2.36 3.12.59 9.24 2.25 12.24 3.3l6.42-.31 6.34.2c2.79 1.75 8.76 4.49 11.92 5.42 3.16.19 9.56.26 12.72.13l6.1 1.81 6.63-1.67c5.34 3.99 5.21 4.35 11.93 5.38l6.62-1.61 6.34.23 6.27.69 5.85 3.39 6.21 1.05 6.63-1.67c6.46 5.43 16.36 6.22 24.37 7.46 3.2-.92 9.69-1.78 13.01-1.64l5.92 3.06 5.38-2.34 6.59-.03 4.1-4.75 2.45-5.62-.33-6.12c2.62-6.34 2.54-5.97 1.7-12.77l3.49-5.98-1.04-6.67c.77-3.2 1.27-9.6 1.03-12.87.9-5.75 3.88-13.1 5.09-18.77-.59-3.26-.85-9.81-.48-13.1l3.41-6 1.65-6.27-2.13-6.84c.79-3.14 2.54-9.41 3.5-12.5l.41-6.45c.99-3.12 3.24-9.32 4.49-12.35l-2.35-6.87 4.33-5.86-2.44-6.89c.96-3.12 3.1-9.34 4.25-12.39l-1.36-6.73c1.58-5.3 3.46-12.59 3.58-18.15-1.08-2.84-2.8-8.71-3.44-11.68l-5.58-3.36-2.97-5.76-6.35-2.32c-2.1-2.4-5.52-7.66-6.9-10.54-6.44-4.32-13.45-10.5-18.07-16.74-2.43-1.94-7.54-5.56-10.17-7.22-2.05-2.41-5.54-7.67-6.98-10.49l-4.74-4.26-.84-6.29-2.43-6.2c1.75-3.01 4.96-9.19 6.36-12.36 2.39-2.29 7.59-6.37 10.4-8.12l6.99-.61 4.48-5.44 6.69-1.18 5.04-4.38 5.82-2.86 5.01-4.42 6.83-.93 4.85-4.74 6.5-1.58c2.68-1.85 8.21-5.32 11.04-6.92l4.06-4.78c1.38-3.05 4.76-8.8 6.73-11.51l2.26-6.29.36-6.39 3.8-5.87.15-6.42-1.69-6.7 2.49-6.07 1.22-6.26c1.18-3.02 2.59-9.23 2.81-12.47l-.83-6.57 3.12-5.98-1.74-6.71 3.42-5.93.97-6.3 1.22-6.26-1.21-6.63 2.58-6.05-1.81-6.72 3.85-5.87c.28-3.22.27-9.67-.02-12.9 1.4-2.95 3.33-9.09 3.84-12.32l-.92-6.59 3.41-5.94-2.29-6.8.26-6.42 1.96-6.88c-4.37-5.84-4.17-5.76-5.32-12.87-3.23-1.07-9.6-3.61-12.62-5.14Zm-212.65 486.1-6.38-.36c-5.08-4.04-4.98-4.27-11.47-5.43l-5.45-3.01-6.62-.87-3.95-5.41-7.08-1.19c-3.76-4.37-7.85-11-9.62-16.51l-5.87-4.04-1.2-6.42.18-6.55-3.26-5.76-.49-6.33 1.57-6.29-2.45-6.54 3.4-5.89-.94-6.76c1-3.07 3.34-9.11 4.65-12.06l6.19-3.72.05-7.23c2.37-2.12 6.49-6.81 8.25-9.46l4.84-4.08c4.89-8.68 11.31-18.22 19.53-24.06 2.11-2.27 6.07-7.11 7.89-9.62l4.88-3.91 6.23-2.56 1.87-6.86c10.47-5.42 12-6.87 18.55-16.61l-.53-.04c-.29 5.89-1.8 13.78-3.23 19.49.91 7.03.82 6.61 5.04 12.27l6.62-.92 4.17-4.99 6.54-1.85 2.83-6.11c2.41-2.21 7.79-5.77 10.74-7.19 2.88-4.9 6.75-11.64 9.32-16.7l5.19-3.98 2.4-5.97 5.71-3.82 2.66-5.85 1.28-.33c1.88 2.58 5.01 8.07 6.28 10.99l.27 6.42 3.15 5.99.42 6.42c-.85 3.13-1.89 9.51-2.06 12.74l1.94 6.5-2.47 6.16.04 6.43-2.88 5.94-1.6 6.12 3.05 1.94 5.97-2.41c2.67-2.04 8.54-5.3 11.64-6.62l2.5 6.92c.45 3.19.96 9.6 1.01 12.82 1.07 5.96-.82 13.36-2.2 19.1.95 8.04.84 18.03-3.58 25.11l1.38 6.77c-3.31 4.8-6.87 11.84-8.22 17.54l.3 6.87-1.73 6.25-5.05 4.66-1.34 6.56c-1.75 2.75-5.85 7.67-8.24 9.88l-3.79 5.18-5.22 3.79c-2.45 2.02-7.74 5.45-10.59 6.87l-5.09 3.86-5.59 3.18-6.42.84-6.29.71-6 2.79c-3.18-.51-9.55-.92-12.76-.81l-6.23-1.35c-6.7 1.48-6.12 1.66-12.68-.6Z"/></svg>